G04 (created by PCBNEW (2013-06-10 BZR 4207)-testing) date jeu. 11 juil. 2013 12:19:06 CEST*
%MOIN*%
G04 Gerber Fmt 3.4, Leading zero omitted, Abs format*
%FSLAX34Y34*%
G01*
G70*
G90*
G04 APERTURE LIST*
%ADD10C,0.005906*%
%ADD11C,0.009843*%
%ADD12C,0.000100*%
G04 APERTURE END LIST*
G54D10*
G54D11*
X95723Y-46959D02*
X95618Y-46959D01*
X95566Y-46978D01*
X95513Y-47015D01*
X95487Y-47090D01*
X95487Y-47221D01*
X95513Y-47296D01*
X95566Y-47334D01*
X95618Y-47353D01*
X95723Y-47353D01*
X95776Y-47334D01*
X95828Y-47296D01*
X95854Y-47221D01*
X95854Y-47090D01*
X95828Y-47015D01*
X95776Y-46978D01*
X95723Y-46959D01*
X95251Y-47090D02*
X95251Y-47484D01*
X95251Y-47109D02*
X95198Y-47090D01*
X95093Y-47090D01*
X95041Y-47109D01*
X95014Y-47128D01*
X94988Y-47165D01*
X94988Y-47278D01*
X95014Y-47315D01*
X95041Y-47334D01*
X95093Y-47353D01*
X95198Y-47353D01*
X95251Y-47334D01*
X94542Y-47334D02*
X94595Y-47353D01*
X94700Y-47353D01*
X94752Y-47334D01*
X94778Y-47296D01*
X94778Y-47146D01*
X94752Y-47109D01*
X94700Y-47090D01*
X94595Y-47090D01*
X94542Y-47109D01*
X94516Y-47146D01*
X94516Y-47184D01*
X94778Y-47221D01*
X94280Y-47090D02*
X94280Y-47353D01*
X94280Y-47128D02*
X94253Y-47109D01*
X94201Y-47090D01*
X94122Y-47090D01*
X94070Y-47109D01*
X94043Y-47146D01*
X94043Y-47353D01*
X93361Y-47353D02*
X93361Y-46959D01*
X93361Y-47146D02*
X93046Y-47146D01*
X93046Y-47353D02*
X93046Y-46959D01*
X92547Y-47353D02*
X92547Y-47146D01*
X92574Y-47109D01*
X92626Y-47090D01*
X92731Y-47090D01*
X92783Y-47109D01*
X92547Y-47334D02*
X92600Y-47353D01*
X92731Y-47353D01*
X92783Y-47334D01*
X92810Y-47296D01*
X92810Y-47259D01*
X92783Y-47221D01*
X92731Y-47203D01*
X92600Y-47203D01*
X92547Y-47184D01*
X92285Y-47353D02*
X92285Y-47090D01*
X92285Y-47165D02*
X92259Y-47128D01*
X92232Y-47109D01*
X92180Y-47090D01*
X92127Y-47090D01*
X91707Y-47353D02*
X91707Y-46959D01*
X91707Y-47334D02*
X91760Y-47353D01*
X91865Y-47353D01*
X91917Y-47334D01*
X91944Y-47315D01*
X91970Y-47278D01*
X91970Y-47165D01*
X91944Y-47128D01*
X91917Y-47109D01*
X91865Y-47090D01*
X91760Y-47090D01*
X91707Y-47109D01*
X91497Y-47090D02*
X91392Y-47353D01*
X91287Y-47165D01*
X91182Y-47353D01*
X91077Y-47090D01*
X90631Y-47353D02*
X90631Y-47146D01*
X90658Y-47109D01*
X90710Y-47090D01*
X90815Y-47090D01*
X90867Y-47109D01*
X90631Y-47334D02*
X90684Y-47353D01*
X90815Y-47353D01*
X90867Y-47334D01*
X90894Y-47296D01*
X90894Y-47259D01*
X90867Y-47221D01*
X90815Y-47203D01*
X90684Y-47203D01*
X90631Y-47184D01*
X90369Y-47353D02*
X90369Y-47090D01*
X90369Y-47165D02*
X90343Y-47128D01*
X90316Y-47109D01*
X90264Y-47090D01*
X90211Y-47090D01*
X89818Y-47334D02*
X89870Y-47353D01*
X89975Y-47353D01*
X90028Y-47334D01*
X90054Y-47296D01*
X90054Y-47146D01*
X90028Y-47109D01*
X89975Y-47090D01*
X89870Y-47090D01*
X89818Y-47109D01*
X89791Y-47146D01*
X89791Y-47184D01*
X90054Y-47221D01*
X89135Y-47146D02*
X88951Y-47146D01*
X88873Y-47353D02*
X89135Y-47353D01*
X89135Y-46959D01*
X88873Y-46959D01*
X88558Y-47353D02*
X88610Y-47334D01*
X88637Y-47296D01*
X88637Y-46959D01*
X88138Y-47334D02*
X88190Y-47353D01*
X88295Y-47353D01*
X88348Y-47334D01*
X88374Y-47296D01*
X88374Y-47146D01*
X88348Y-47109D01*
X88295Y-47090D01*
X88190Y-47090D01*
X88138Y-47109D01*
X88112Y-47146D01*
X88112Y-47184D01*
X88374Y-47221D01*
X87639Y-47334D02*
X87692Y-47353D01*
X87797Y-47353D01*
X87849Y-47334D01*
X87875Y-47315D01*
X87902Y-47278D01*
X87902Y-47165D01*
X87875Y-47128D01*
X87849Y-47109D01*
X87797Y-47090D01*
X87692Y-47090D01*
X87639Y-47109D01*
X87482Y-47090D02*
X87272Y-47090D01*
X87403Y-46959D02*
X87403Y-47296D01*
X87377Y-47334D01*
X87324Y-47353D01*
X87272Y-47353D01*
X87088Y-47353D02*
X87088Y-47090D01*
X87088Y-47165D02*
X87062Y-47128D01*
X87035Y-47109D01*
X86983Y-47090D01*
X86930Y-47090D01*
X86668Y-47353D02*
X86720Y-47334D01*
X86747Y-47315D01*
X86773Y-47278D01*
X86773Y-47165D01*
X86747Y-47128D01*
X86720Y-47109D01*
X86668Y-47090D01*
X86589Y-47090D01*
X86537Y-47109D01*
X86511Y-47128D01*
X86484Y-47165D01*
X86484Y-47278D01*
X86511Y-47315D01*
X86537Y-47334D01*
X86589Y-47353D01*
X86668Y-47353D01*
X86248Y-47090D02*
X86248Y-47353D01*
X86248Y-47128D02*
X86222Y-47109D01*
X86169Y-47090D01*
X86091Y-47090D01*
X86038Y-47109D01*
X86012Y-47146D01*
X86012Y-47353D01*
X85749Y-47353D02*
X85749Y-47090D01*
X85749Y-46959D02*
X85776Y-46978D01*
X85749Y-46996D01*
X85723Y-46978D01*
X85749Y-46959D01*
X85749Y-46996D01*
X85251Y-47334D02*
X85303Y-47353D01*
X85408Y-47353D01*
X85461Y-47334D01*
X85487Y-47315D01*
X85513Y-47278D01*
X85513Y-47165D01*
X85487Y-47128D01*
X85461Y-47109D01*
X85408Y-47090D01*
X85303Y-47090D01*
X85251Y-47109D01*
X85041Y-47334D02*
X84988Y-47353D01*
X84883Y-47353D01*
X84831Y-47334D01*
X84804Y-47296D01*
X84804Y-47278D01*
X84831Y-47240D01*
X84883Y-47221D01*
X84962Y-47221D01*
X85014Y-47203D01*
X85041Y-47165D01*
X85041Y-47146D01*
X85014Y-47109D01*
X84962Y-47090D01*
X84883Y-47090D01*
X84831Y-47109D01*
X93230Y-48002D02*
X93230Y-47609D01*
X93020Y-47609D01*
X92967Y-47627D01*
X92941Y-47646D01*
X92915Y-47683D01*
X92915Y-47740D01*
X92941Y-47777D01*
X92967Y-47796D01*
X93020Y-47815D01*
X93230Y-47815D01*
X92679Y-48002D02*
X92679Y-47740D01*
X92679Y-47815D02*
X92652Y-47777D01*
X92626Y-47758D01*
X92574Y-47740D01*
X92521Y-47740D01*
X92259Y-48002D02*
X92311Y-47983D01*
X92337Y-47965D01*
X92364Y-47927D01*
X92364Y-47815D01*
X92337Y-47777D01*
X92311Y-47758D01*
X92259Y-47740D01*
X92180Y-47740D01*
X92127Y-47758D01*
X92101Y-47777D01*
X92075Y-47815D01*
X92075Y-47927D01*
X92101Y-47965D01*
X92127Y-47983D01*
X92180Y-48002D01*
X92259Y-48002D01*
X91917Y-47740D02*
X91707Y-47740D01*
X91839Y-47609D02*
X91839Y-47946D01*
X91812Y-47983D01*
X91760Y-48002D01*
X91707Y-48002D01*
X91445Y-48002D02*
X91497Y-47983D01*
X91524Y-47965D01*
X91550Y-47927D01*
X91550Y-47815D01*
X91524Y-47777D01*
X91497Y-47758D01*
X91445Y-47740D01*
X91366Y-47740D01*
X91314Y-47758D01*
X91287Y-47777D01*
X91261Y-47815D01*
X91261Y-47927D01*
X91287Y-47965D01*
X91314Y-47983D01*
X91366Y-48002D01*
X91445Y-48002D01*
X91104Y-47740D02*
X90894Y-47740D01*
X91025Y-47609D02*
X91025Y-47946D01*
X90999Y-47983D01*
X90946Y-48002D01*
X90894Y-48002D01*
X90762Y-47740D02*
X90631Y-48002D01*
X90500Y-47740D02*
X90631Y-48002D01*
X90684Y-48096D01*
X90710Y-48115D01*
X90762Y-48133D01*
X90290Y-47740D02*
X90290Y-48133D01*
X90290Y-47758D02*
X90238Y-47740D01*
X90133Y-47740D01*
X90080Y-47758D01*
X90054Y-47777D01*
X90028Y-47815D01*
X90028Y-47927D01*
X90054Y-47965D01*
X90080Y-47983D01*
X90133Y-48002D01*
X90238Y-48002D01*
X90290Y-47983D01*
X89791Y-48002D02*
X89791Y-47740D01*
X89791Y-47609D02*
X89818Y-47627D01*
X89791Y-47646D01*
X89765Y-47627D01*
X89791Y-47609D01*
X89791Y-47646D01*
X89529Y-47740D02*
X89529Y-48002D01*
X89529Y-47777D02*
X89503Y-47758D01*
X89450Y-47740D01*
X89371Y-47740D01*
X89319Y-47758D01*
X89293Y-47796D01*
X89293Y-48002D01*
X88794Y-47740D02*
X88794Y-48058D01*
X88820Y-48096D01*
X88846Y-48115D01*
X88899Y-48133D01*
X88978Y-48133D01*
X89030Y-48115D01*
X88794Y-47983D02*
X88846Y-48002D01*
X88951Y-48002D01*
X89004Y-47983D01*
X89030Y-47965D01*
X89056Y-47927D01*
X89056Y-47815D01*
X89030Y-47777D01*
X89004Y-47758D01*
X88951Y-47740D01*
X88846Y-47740D01*
X88794Y-47758D01*
X88112Y-48002D02*
X88112Y-47609D01*
X87902Y-47609D01*
X87849Y-47627D01*
X87823Y-47646D01*
X87797Y-47683D01*
X87797Y-47740D01*
X87823Y-47777D01*
X87849Y-47796D01*
X87902Y-47815D01*
X88112Y-47815D01*
X87482Y-48002D02*
X87534Y-47983D01*
X87560Y-47946D01*
X87560Y-47609D01*
X87035Y-48002D02*
X87035Y-47796D01*
X87062Y-47758D01*
X87114Y-47740D01*
X87219Y-47740D01*
X87272Y-47758D01*
X87035Y-47983D02*
X87088Y-48002D01*
X87219Y-48002D01*
X87272Y-47983D01*
X87298Y-47946D01*
X87298Y-47908D01*
X87272Y-47871D01*
X87219Y-47852D01*
X87088Y-47852D01*
X87035Y-47833D01*
X86852Y-47740D02*
X86642Y-47740D01*
X86773Y-47609D02*
X86773Y-47946D01*
X86747Y-47983D01*
X86694Y-48002D01*
X86642Y-48002D01*
X86537Y-47740D02*
X86327Y-47740D01*
X86458Y-48002D02*
X86458Y-47665D01*
X86432Y-47627D01*
X86379Y-47609D01*
X86327Y-47609D01*
X86064Y-48002D02*
X86117Y-47983D01*
X86143Y-47965D01*
X86169Y-47927D01*
X86169Y-47815D01*
X86143Y-47777D01*
X86117Y-47758D01*
X86064Y-47740D01*
X85986Y-47740D01*
X85933Y-47758D01*
X85907Y-47777D01*
X85881Y-47815D01*
X85881Y-47927D01*
X85907Y-47965D01*
X85933Y-47983D01*
X85986Y-48002D01*
X86064Y-48002D01*
X85644Y-48002D02*
X85644Y-47740D01*
X85644Y-47815D02*
X85618Y-47777D01*
X85592Y-47758D01*
X85539Y-47740D01*
X85487Y-47740D01*
X85303Y-48002D02*
X85303Y-47740D01*
X85303Y-47777D02*
X85277Y-47758D01*
X85224Y-47740D01*
X85146Y-47740D01*
X85093Y-47758D01*
X85067Y-47796D01*
X85067Y-48002D01*
X85067Y-47796D02*
X85041Y-47758D01*
X84988Y-47740D01*
X84909Y-47740D01*
X84857Y-47758D01*
X84831Y-47796D01*
X84831Y-48002D01*
X94804Y-48502D02*
X94385Y-48502D01*
X94122Y-48502D02*
X93702Y-48502D01*
X93440Y-48502D02*
X93020Y-48502D01*
X92757Y-48502D02*
X92337Y-48502D01*
X92075Y-48502D02*
X91655Y-48502D01*
X91392Y-48502D02*
X90972Y-48502D01*
X90710Y-48502D02*
X90290Y-48502D01*
X90028Y-48502D02*
X89608Y-48502D01*
X89345Y-48502D02*
X88925Y-48502D01*
X88663Y-48502D02*
X88243Y-48502D01*
X87980Y-48502D02*
X87560Y-48502D01*
X87298Y-48502D02*
X86878Y-48502D01*
X86616Y-48502D02*
X86196Y-48502D01*
X85933Y-48502D02*
X85513Y-48502D01*
X85251Y-48502D02*
X84831Y-48502D01*
X91445Y-49301D02*
X91445Y-48908D01*
X91235Y-48908D01*
X91182Y-48926D01*
X91156Y-48945D01*
X91130Y-48983D01*
X91130Y-49039D01*
X91156Y-49076D01*
X91182Y-49095D01*
X91235Y-49114D01*
X91445Y-49114D01*
X90894Y-49301D02*
X90894Y-48908D01*
X90631Y-49301D02*
X90631Y-48908D01*
X90316Y-49301D01*
X90316Y-48908D01*
X89765Y-48926D02*
X89818Y-48908D01*
X89896Y-48908D01*
X89975Y-48926D01*
X90028Y-48964D01*
X90054Y-49001D01*
X90080Y-49076D01*
X90080Y-49133D01*
X90054Y-49208D01*
X90028Y-49245D01*
X89975Y-49283D01*
X89896Y-49301D01*
X89844Y-49301D01*
X89765Y-49283D01*
X89739Y-49264D01*
X89739Y-49133D01*
X89844Y-49133D01*
X89503Y-48908D02*
X89503Y-49226D01*
X89476Y-49264D01*
X89450Y-49283D01*
X89398Y-49301D01*
X89293Y-49301D01*
X89240Y-49283D01*
X89214Y-49264D01*
X89188Y-49226D01*
X89188Y-48908D01*
X88925Y-49301D02*
X88925Y-48908D01*
X88663Y-49301D02*
X88663Y-48908D01*
X88348Y-49301D01*
X88348Y-48908D01*
X87980Y-48908D02*
X87875Y-48908D01*
X87823Y-48926D01*
X87770Y-48964D01*
X87744Y-49039D01*
X87744Y-49170D01*
X87770Y-49245D01*
X87823Y-49283D01*
X87875Y-49301D01*
X87980Y-49301D01*
X88033Y-49283D01*
X88085Y-49245D01*
X88112Y-49170D01*
X88112Y-49039D01*
X88085Y-48964D01*
X88033Y-48926D01*
X87980Y-48908D01*
X86852Y-49039D02*
X86852Y-49301D01*
X86983Y-48889D02*
X87114Y-49170D01*
X86773Y-49170D01*
X86616Y-48908D02*
X86248Y-48908D01*
X86484Y-49301D01*
X85881Y-48908D02*
X85881Y-49189D01*
X85907Y-49245D01*
X85959Y-49283D01*
X86038Y-49301D01*
X86091Y-49301D01*
X85356Y-48908D02*
X85618Y-48908D01*
X85644Y-49095D01*
X85618Y-49076D01*
X85566Y-49058D01*
X85434Y-49058D01*
X85382Y-49076D01*
X85356Y-49095D01*
X85329Y-49133D01*
X85329Y-49226D01*
X85356Y-49264D01*
X85382Y-49283D01*
X85434Y-49301D01*
X85566Y-49301D01*
X85618Y-49283D01*
X85644Y-49264D01*
X85146Y-48908D02*
X84804Y-48908D01*
X84988Y-49058D01*
X84909Y-49058D01*
X84857Y-49076D01*
X84831Y-49095D01*
X84804Y-49133D01*
X84804Y-49226D01*
X84831Y-49264D01*
X84857Y-49283D01*
X84909Y-49301D01*
X85067Y-49301D01*
X85119Y-49283D01*
X85146Y-49264D01*
X92547Y-49951D02*
X92547Y-49557D01*
X92364Y-49839D01*
X92180Y-49557D01*
X92180Y-49951D01*
X91839Y-49951D02*
X91891Y-49932D01*
X91917Y-49914D01*
X91944Y-49876D01*
X91944Y-49764D01*
X91917Y-49726D01*
X91891Y-49707D01*
X91839Y-49689D01*
X91760Y-49689D01*
X91707Y-49707D01*
X91681Y-49726D01*
X91655Y-49764D01*
X91655Y-49876D01*
X91681Y-49914D01*
X91707Y-49932D01*
X91760Y-49951D01*
X91839Y-49951D01*
X91182Y-49951D02*
X91182Y-49557D01*
X91182Y-49932D02*
X91235Y-49951D01*
X91340Y-49951D01*
X91392Y-49932D01*
X91419Y-49914D01*
X91445Y-49876D01*
X91445Y-49764D01*
X91419Y-49726D01*
X91392Y-49707D01*
X91340Y-49689D01*
X91235Y-49689D01*
X91182Y-49707D01*
X90710Y-49932D02*
X90762Y-49951D01*
X90867Y-49951D01*
X90920Y-49932D01*
X90946Y-49895D01*
X90946Y-49745D01*
X90920Y-49707D01*
X90867Y-49689D01*
X90762Y-49689D01*
X90710Y-49707D01*
X90684Y-49745D01*
X90684Y-49782D01*
X90946Y-49820D01*
X90369Y-49951D02*
X90421Y-49932D01*
X90448Y-49895D01*
X90448Y-49557D01*
X89765Y-49839D02*
X89503Y-49839D01*
X89818Y-49951D02*
X89634Y-49557D01*
X89450Y-49951D01*
X88846Y-49801D02*
X88427Y-49801D01*
X87429Y-49951D02*
X87613Y-49764D01*
X87744Y-49951D02*
X87744Y-49557D01*
X87534Y-49557D01*
X87482Y-49576D01*
X87455Y-49595D01*
X87429Y-49632D01*
X87429Y-49689D01*
X87455Y-49726D01*
X87482Y-49745D01*
X87534Y-49764D01*
X87744Y-49764D01*
X86983Y-49932D02*
X87035Y-49951D01*
X87140Y-49951D01*
X87193Y-49932D01*
X87219Y-49895D01*
X87219Y-49745D01*
X87193Y-49707D01*
X87140Y-49689D01*
X87035Y-49689D01*
X86983Y-49707D01*
X86957Y-49745D01*
X86957Y-49782D01*
X87219Y-49820D01*
X86773Y-49689D02*
X86642Y-49951D01*
X86511Y-49689D01*
X85592Y-49951D02*
X85907Y-49951D01*
X85749Y-49951D02*
X85749Y-49557D01*
X85802Y-49614D01*
X85854Y-49651D01*
X85907Y-49670D01*
X85356Y-49914D02*
X85329Y-49932D01*
X85356Y-49951D01*
X85382Y-49932D01*
X85356Y-49914D01*
X85356Y-49951D01*
X85119Y-49595D02*
X85093Y-49576D01*
X85041Y-49557D01*
X84909Y-49557D01*
X84857Y-49576D01*
X84831Y-49595D01*
X84804Y-49632D01*
X84804Y-49670D01*
X84831Y-49726D01*
X85146Y-49951D01*
X84804Y-49951D01*
X88505Y-50601D02*
X88689Y-50413D01*
X88820Y-50601D02*
X88820Y-50207D01*
X88610Y-50207D01*
X88558Y-50226D01*
X88532Y-50244D01*
X88505Y-50282D01*
X88505Y-50338D01*
X88532Y-50376D01*
X88558Y-50394D01*
X88610Y-50413D01*
X88820Y-50413D01*
X88085Y-50394D02*
X88007Y-50413D01*
X87980Y-50432D01*
X87954Y-50469D01*
X87954Y-50526D01*
X87980Y-50563D01*
X88007Y-50582D01*
X88059Y-50601D01*
X88269Y-50601D01*
X88269Y-50207D01*
X88085Y-50207D01*
X88033Y-50226D01*
X88007Y-50244D01*
X87980Y-50282D01*
X87980Y-50319D01*
X88007Y-50357D01*
X88033Y-50376D01*
X88085Y-50394D01*
X88269Y-50394D01*
X87429Y-50601D02*
X87744Y-50601D01*
X87587Y-50601D02*
X87587Y-50207D01*
X87639Y-50263D01*
X87692Y-50301D01*
X87744Y-50319D01*
X87245Y-50207D02*
X86904Y-50207D01*
X87088Y-50357D01*
X87009Y-50357D01*
X86957Y-50376D01*
X86930Y-50394D01*
X86904Y-50432D01*
X86904Y-50526D01*
X86930Y-50563D01*
X86957Y-50582D01*
X87009Y-50601D01*
X87167Y-50601D01*
X87219Y-50582D01*
X87245Y-50563D01*
X86563Y-50207D02*
X86511Y-50207D01*
X86458Y-50226D01*
X86432Y-50244D01*
X86406Y-50282D01*
X86379Y-50357D01*
X86379Y-50451D01*
X86406Y-50526D01*
X86432Y-50563D01*
X86458Y-50582D01*
X86511Y-50601D01*
X86563Y-50601D01*
X86616Y-50582D01*
X86642Y-50563D01*
X86668Y-50526D01*
X86694Y-50451D01*
X86694Y-50357D01*
X86668Y-50282D01*
X86642Y-50244D01*
X86616Y-50226D01*
X86563Y-50207D01*
X86196Y-50207D02*
X85828Y-50207D01*
X86064Y-50601D01*
X85329Y-50601D02*
X85644Y-50601D01*
X85487Y-50601D02*
X85487Y-50207D01*
X85539Y-50263D01*
X85592Y-50301D01*
X85644Y-50319D01*
X84988Y-50207D02*
X84936Y-50207D01*
X84883Y-50226D01*
X84857Y-50244D01*
X84831Y-50282D01*
X84804Y-50357D01*
X84804Y-50451D01*
X84831Y-50526D01*
X84857Y-50563D01*
X84883Y-50582D01*
X84936Y-50601D01*
X84988Y-50601D01*
X85041Y-50582D01*
X85067Y-50563D01*
X85093Y-50526D01*
X85119Y-50451D01*
X85119Y-50357D01*
X85093Y-50282D01*
X85067Y-50244D01*
X85041Y-50226D01*
X84988Y-50207D01*
X94804Y-51100D02*
X94385Y-51100D01*
X94122Y-51100D02*
X93702Y-51100D01*
X93440Y-51100D02*
X93020Y-51100D01*
X92757Y-51100D02*
X92337Y-51100D01*
X92075Y-51100D02*
X91655Y-51100D01*
X91392Y-51100D02*
X90972Y-51100D01*
X90710Y-51100D02*
X90290Y-51100D01*
X90028Y-51100D02*
X89608Y-51100D01*
X89345Y-51100D02*
X88925Y-51100D01*
X88663Y-51100D02*
X88243Y-51100D01*
X87980Y-51100D02*
X87560Y-51100D01*
X87298Y-51100D02*
X86878Y-51100D01*
X86616Y-51100D02*
X86196Y-51100D01*
X85933Y-51100D02*
X85513Y-51100D01*
X85251Y-51100D02*
X84831Y-51100D01*
X94437Y-51637D02*
X94332Y-51900D01*
X94227Y-51712D01*
X94122Y-51900D01*
X94017Y-51637D01*
X93860Y-51637D02*
X93755Y-51900D01*
X93650Y-51712D01*
X93545Y-51900D01*
X93440Y-51637D01*
X93282Y-51637D02*
X93177Y-51900D01*
X93072Y-51712D01*
X92967Y-51900D01*
X92862Y-51637D01*
X92652Y-51862D02*
X92626Y-51881D01*
X92652Y-51900D01*
X92679Y-51881D01*
X92652Y-51862D01*
X92652Y-51900D01*
X92390Y-51637D02*
X92390Y-52031D01*
X92390Y-51656D02*
X92337Y-51637D01*
X92232Y-51637D01*
X92180Y-51656D01*
X92154Y-51675D01*
X92127Y-51712D01*
X92127Y-51825D01*
X92154Y-51862D01*
X92180Y-51881D01*
X92232Y-51900D01*
X92337Y-51900D01*
X92390Y-51881D01*
X91891Y-51900D02*
X91891Y-51637D01*
X91891Y-51506D02*
X91917Y-51525D01*
X91891Y-51544D01*
X91865Y-51525D01*
X91891Y-51506D01*
X91891Y-51544D01*
X91629Y-51637D02*
X91629Y-51900D01*
X91629Y-51675D02*
X91602Y-51656D01*
X91550Y-51637D01*
X91471Y-51637D01*
X91419Y-51656D01*
X91392Y-51694D01*
X91392Y-51900D01*
X90894Y-51637D02*
X90894Y-51956D01*
X90920Y-51994D01*
X90946Y-52012D01*
X90999Y-52031D01*
X91077Y-52031D01*
X91130Y-52012D01*
X90894Y-51881D02*
X90946Y-51900D01*
X91051Y-51900D01*
X91104Y-51881D01*
X91130Y-51862D01*
X91156Y-51825D01*
X91156Y-51712D01*
X91130Y-51675D01*
X91104Y-51656D01*
X91051Y-51637D01*
X90946Y-51637D01*
X90894Y-51656D01*
X90395Y-51637D02*
X90395Y-51900D01*
X90631Y-51637D02*
X90631Y-51844D01*
X90605Y-51881D01*
X90553Y-51900D01*
X90474Y-51900D01*
X90421Y-51881D01*
X90395Y-51862D01*
X90133Y-51900D02*
X90133Y-51637D01*
X90133Y-51506D02*
X90159Y-51525D01*
X90133Y-51544D01*
X90106Y-51525D01*
X90133Y-51506D01*
X90133Y-51544D01*
X89870Y-51637D02*
X89870Y-51900D01*
X89870Y-51675D02*
X89844Y-51656D01*
X89791Y-51637D01*
X89713Y-51637D01*
X89660Y-51656D01*
X89634Y-51694D01*
X89634Y-51900D01*
X89293Y-51900D02*
X89345Y-51881D01*
X89371Y-51862D01*
X89398Y-51825D01*
X89398Y-51712D01*
X89371Y-51675D01*
X89345Y-51656D01*
X89293Y-51637D01*
X89214Y-51637D01*
X89161Y-51656D01*
X89135Y-51675D01*
X89109Y-51712D01*
X89109Y-51825D01*
X89135Y-51862D01*
X89161Y-51881D01*
X89214Y-51900D01*
X89293Y-51900D01*
X88873Y-51862D02*
X88846Y-51881D01*
X88873Y-51900D01*
X88899Y-51881D01*
X88873Y-51862D01*
X88873Y-51900D01*
X88374Y-51881D02*
X88427Y-51900D01*
X88532Y-51900D01*
X88584Y-51881D01*
X88610Y-51862D01*
X88637Y-51825D01*
X88637Y-51712D01*
X88610Y-51675D01*
X88584Y-51656D01*
X88532Y-51637D01*
X88427Y-51637D01*
X88374Y-51656D01*
X87902Y-51881D02*
X87954Y-51900D01*
X88059Y-51900D01*
X88112Y-51881D01*
X88138Y-51862D01*
X88164Y-51825D01*
X88164Y-51712D01*
X88138Y-51675D01*
X88112Y-51656D01*
X88059Y-51637D01*
X87954Y-51637D01*
X87902Y-51656D01*
X87272Y-51487D02*
X87744Y-51994D01*
X86852Y-51637D02*
X86852Y-51900D01*
X86983Y-51487D02*
X87114Y-51769D01*
X86773Y-51769D01*
X86616Y-51506D02*
X86248Y-51506D01*
X86484Y-51900D01*
X85881Y-51506D02*
X85881Y-51787D01*
X85907Y-51844D01*
X85959Y-51881D01*
X86038Y-51900D01*
X86091Y-51900D01*
X85356Y-51506D02*
X85618Y-51506D01*
X85644Y-51694D01*
X85618Y-51675D01*
X85566Y-51656D01*
X85434Y-51656D01*
X85382Y-51675D01*
X85356Y-51694D01*
X85329Y-51731D01*
X85329Y-51825D01*
X85356Y-51862D01*
X85382Y-51881D01*
X85434Y-51900D01*
X85566Y-51900D01*
X85618Y-51881D01*
X85644Y-51862D01*
X85146Y-51506D02*
X84804Y-51506D01*
X84988Y-51656D01*
X84909Y-51656D01*
X84857Y-51675D01*
X84831Y-51694D01*
X84804Y-51731D01*
X84804Y-51825D01*
X84831Y-51862D01*
X84857Y-51881D01*
X84909Y-51900D01*
X85067Y-51900D01*
X85119Y-51881D01*
X85146Y-51862D01*
X94804Y-52399D02*
X94385Y-52399D01*
X94122Y-52399D02*
X93702Y-52399D01*
X93440Y-52399D02*
X93020Y-52399D01*
X92757Y-52399D02*
X92337Y-52399D01*
X92075Y-52399D02*
X91655Y-52399D01*
X91392Y-52399D02*
X90972Y-52399D01*
X90710Y-52399D02*
X90290Y-52399D01*
X90028Y-52399D02*
X89608Y-52399D01*
X89345Y-52399D02*
X88925Y-52399D01*
X88663Y-52399D02*
X88243Y-52399D01*
X87980Y-52399D02*
X87560Y-52399D01*
X87298Y-52399D02*
X86878Y-52399D01*
X86616Y-52399D02*
X86196Y-52399D01*
X85933Y-52399D02*
X85513Y-52399D01*
X85251Y-52399D02*
X84831Y-52399D01*
X91891Y-52993D02*
X91812Y-53012D01*
X91786Y-53030D01*
X91760Y-53068D01*
X91760Y-53124D01*
X91786Y-53162D01*
X91812Y-53180D01*
X91865Y-53199D01*
X92075Y-53199D01*
X92075Y-52805D01*
X91891Y-52805D01*
X91839Y-52824D01*
X91812Y-52843D01*
X91786Y-52880D01*
X91786Y-52918D01*
X91812Y-52955D01*
X91839Y-52974D01*
X91891Y-52993D01*
X92075Y-52993D01*
X91576Y-52937D02*
X91445Y-53199D01*
X91314Y-52937D02*
X91445Y-53199D01*
X91497Y-53293D01*
X91524Y-53312D01*
X91576Y-53330D01*
X90710Y-53180D02*
X90631Y-53199D01*
X90500Y-53199D01*
X90448Y-53180D01*
X90421Y-53162D01*
X90395Y-53124D01*
X90395Y-53087D01*
X90421Y-53049D01*
X90448Y-53030D01*
X90500Y-53012D01*
X90605Y-52993D01*
X90658Y-52974D01*
X90684Y-52955D01*
X90710Y-52918D01*
X90710Y-52880D01*
X90684Y-52843D01*
X90658Y-52824D01*
X90605Y-52805D01*
X90474Y-52805D01*
X90395Y-52824D01*
X89949Y-53180D02*
X90001Y-53199D01*
X90106Y-53199D01*
X90159Y-53180D01*
X90185Y-53143D01*
X90185Y-52993D01*
X90159Y-52955D01*
X90106Y-52937D01*
X90001Y-52937D01*
X89949Y-52955D01*
X89923Y-52993D01*
X89923Y-53030D01*
X90185Y-53068D01*
X89450Y-53199D02*
X89450Y-52993D01*
X89476Y-52955D01*
X89529Y-52937D01*
X89634Y-52937D01*
X89686Y-52955D01*
X89450Y-53180D02*
X89503Y-53199D01*
X89634Y-53199D01*
X89686Y-53180D01*
X89713Y-53143D01*
X89713Y-53105D01*
X89686Y-53068D01*
X89634Y-53049D01*
X89503Y-53049D01*
X89450Y-53030D01*
X89188Y-53199D02*
X89188Y-52805D01*
X88689Y-53180D02*
X88741Y-53199D01*
X88846Y-53199D01*
X88899Y-53180D01*
X88925Y-53162D01*
X88951Y-53124D01*
X88951Y-53012D01*
X88925Y-52974D01*
X88899Y-52955D01*
X88846Y-52937D01*
X88741Y-52937D01*
X88689Y-52955D01*
X88243Y-53180D02*
X88295Y-53199D01*
X88400Y-53199D01*
X88453Y-53180D01*
X88479Y-53143D01*
X88479Y-52993D01*
X88453Y-52955D01*
X88400Y-52937D01*
X88295Y-52937D01*
X88243Y-52955D01*
X88217Y-52993D01*
X88217Y-53030D01*
X88479Y-53068D01*
X87718Y-53199D02*
X87980Y-53199D01*
X87980Y-52805D01*
X87298Y-53199D02*
X87298Y-52993D01*
X87324Y-52955D01*
X87377Y-52937D01*
X87482Y-52937D01*
X87534Y-52955D01*
X87298Y-53180D02*
X87350Y-53199D01*
X87482Y-53199D01*
X87534Y-53180D01*
X87560Y-53143D01*
X87560Y-53105D01*
X87534Y-53068D01*
X87482Y-53049D01*
X87350Y-53049D01*
X87298Y-53030D01*
X87035Y-53199D02*
X87035Y-52805D01*
X87035Y-52955D02*
X86983Y-52937D01*
X86878Y-52937D01*
X86825Y-52955D01*
X86799Y-52974D01*
X86773Y-53012D01*
X86773Y-53124D01*
X86799Y-53162D01*
X86825Y-53180D01*
X86878Y-53199D01*
X86983Y-53199D01*
X87035Y-53180D01*
X86537Y-53162D02*
X86511Y-53180D01*
X86537Y-53199D01*
X86563Y-53180D01*
X86537Y-53162D01*
X86537Y-53199D01*
X86038Y-53180D02*
X86091Y-53199D01*
X86196Y-53199D01*
X86248Y-53180D01*
X86274Y-53162D01*
X86301Y-53124D01*
X86301Y-53012D01*
X86274Y-52974D01*
X86248Y-52955D01*
X86196Y-52937D01*
X86091Y-52937D01*
X86038Y-52955D01*
X85723Y-53199D02*
X85776Y-53180D01*
X85802Y-53162D01*
X85828Y-53124D01*
X85828Y-53012D01*
X85802Y-52974D01*
X85776Y-52955D01*
X85723Y-52937D01*
X85644Y-52937D01*
X85592Y-52955D01*
X85566Y-52974D01*
X85539Y-53012D01*
X85539Y-53124D01*
X85566Y-53162D01*
X85592Y-53180D01*
X85644Y-53199D01*
X85723Y-53199D01*
X85303Y-53199D02*
X85303Y-52937D01*
X85303Y-52974D02*
X85277Y-52955D01*
X85224Y-52937D01*
X85146Y-52937D01*
X85093Y-52955D01*
X85067Y-52993D01*
X85067Y-53199D01*
X85067Y-52993D02*
X85041Y-52955D01*
X84988Y-52937D01*
X84909Y-52937D01*
X84857Y-52955D01*
X84831Y-52993D01*
X84831Y-53199D01*
X96143Y-53849D02*
X96143Y-53455D01*
X95933Y-53455D01*
X95881Y-53474D01*
X95854Y-53492D01*
X95828Y-53530D01*
X95828Y-53586D01*
X95854Y-53624D01*
X95881Y-53642D01*
X95933Y-53661D01*
X96143Y-53661D01*
X95592Y-53849D02*
X95592Y-53586D01*
X95592Y-53455D02*
X95618Y-53474D01*
X95592Y-53492D01*
X95566Y-53474D01*
X95592Y-53455D01*
X95592Y-53492D01*
X95329Y-53586D02*
X95329Y-53849D01*
X95329Y-53624D02*
X95303Y-53605D01*
X95251Y-53586D01*
X95172Y-53586D01*
X95119Y-53605D01*
X95093Y-53642D01*
X95093Y-53849D01*
X94595Y-53586D02*
X94595Y-53905D01*
X94621Y-53942D01*
X94647Y-53961D01*
X94700Y-53980D01*
X94778Y-53980D01*
X94831Y-53961D01*
X94595Y-53830D02*
X94647Y-53849D01*
X94752Y-53849D01*
X94804Y-53830D01*
X94831Y-53811D01*
X94857Y-53774D01*
X94857Y-53661D01*
X94831Y-53624D01*
X94804Y-53605D01*
X94752Y-53586D01*
X94647Y-53586D01*
X94595Y-53605D01*
X94096Y-53586D02*
X94096Y-53849D01*
X94332Y-53586D02*
X94332Y-53792D01*
X94306Y-53830D01*
X94253Y-53849D01*
X94175Y-53849D01*
X94122Y-53830D01*
X94096Y-53811D01*
X93833Y-53849D02*
X93833Y-53586D01*
X93833Y-53455D02*
X93860Y-53474D01*
X93833Y-53492D01*
X93807Y-53474D01*
X93833Y-53455D01*
X93833Y-53492D01*
X93571Y-53586D02*
X93571Y-53849D01*
X93571Y-53624D02*
X93545Y-53605D01*
X93492Y-53586D01*
X93413Y-53586D01*
X93361Y-53605D01*
X93335Y-53642D01*
X93335Y-53849D01*
X92993Y-53849D02*
X93046Y-53830D01*
X93072Y-53811D01*
X93098Y-53774D01*
X93098Y-53661D01*
X93072Y-53624D01*
X93046Y-53605D01*
X92993Y-53586D01*
X92915Y-53586D01*
X92862Y-53605D01*
X92836Y-53624D01*
X92810Y-53661D01*
X92810Y-53774D01*
X92836Y-53811D01*
X92862Y-53830D01*
X92915Y-53849D01*
X92993Y-53849D01*
X92154Y-53849D02*
X92154Y-53586D01*
X92154Y-53624D02*
X92127Y-53605D01*
X92075Y-53586D01*
X91996Y-53586D01*
X91944Y-53605D01*
X91917Y-53642D01*
X91917Y-53849D01*
X91917Y-53642D02*
X91891Y-53605D01*
X91839Y-53586D01*
X91760Y-53586D01*
X91707Y-53605D01*
X91681Y-53642D01*
X91681Y-53849D01*
X91182Y-53849D02*
X91182Y-53642D01*
X91209Y-53605D01*
X91261Y-53586D01*
X91366Y-53586D01*
X91419Y-53605D01*
X91182Y-53830D02*
X91235Y-53849D01*
X91366Y-53849D01*
X91419Y-53830D01*
X91445Y-53792D01*
X91445Y-53755D01*
X91419Y-53717D01*
X91366Y-53699D01*
X91235Y-53699D01*
X91182Y-53680D01*
X90920Y-53849D02*
X90920Y-53455D01*
X90867Y-53699D02*
X90710Y-53849D01*
X90710Y-53586D02*
X90920Y-53736D01*
X90264Y-53830D02*
X90316Y-53849D01*
X90421Y-53849D01*
X90474Y-53830D01*
X90500Y-53792D01*
X90500Y-53642D01*
X90474Y-53605D01*
X90421Y-53586D01*
X90316Y-53586D01*
X90264Y-53605D01*
X90238Y-53642D01*
X90238Y-53680D01*
X90500Y-53717D01*
X90001Y-53849D02*
X90001Y-53586D01*
X90001Y-53661D02*
X89975Y-53624D01*
X89949Y-53605D01*
X89896Y-53586D01*
X89844Y-53586D01*
X89266Y-53830D02*
X89214Y-53849D01*
X89109Y-53849D01*
X89056Y-53830D01*
X89030Y-53792D01*
X89030Y-53774D01*
X89056Y-53736D01*
X89109Y-53717D01*
X89188Y-53717D01*
X89240Y-53699D01*
X89266Y-53661D01*
X89266Y-53642D01*
X89240Y-53605D01*
X89188Y-53586D01*
X89109Y-53586D01*
X89056Y-53605D01*
X88794Y-53849D02*
X88794Y-53586D01*
X88794Y-53455D02*
X88820Y-53474D01*
X88794Y-53492D01*
X88768Y-53474D01*
X88794Y-53455D01*
X88794Y-53492D01*
X88532Y-53586D02*
X88532Y-53849D01*
X88532Y-53624D02*
X88505Y-53605D01*
X88453Y-53586D01*
X88374Y-53586D01*
X88322Y-53605D01*
X88295Y-53642D01*
X88295Y-53849D01*
X87797Y-53830D02*
X87849Y-53849D01*
X87954Y-53849D01*
X88007Y-53830D01*
X88033Y-53811D01*
X88059Y-53774D01*
X88059Y-53661D01*
X88033Y-53624D01*
X88007Y-53605D01*
X87954Y-53586D01*
X87849Y-53586D01*
X87797Y-53605D01*
X87350Y-53830D02*
X87403Y-53849D01*
X87508Y-53849D01*
X87560Y-53830D01*
X87587Y-53792D01*
X87587Y-53642D01*
X87560Y-53605D01*
X87508Y-53586D01*
X87403Y-53586D01*
X87350Y-53605D01*
X87324Y-53642D01*
X87324Y-53680D01*
X87587Y-53717D01*
X86694Y-53492D02*
X86668Y-53474D01*
X86616Y-53455D01*
X86484Y-53455D01*
X86432Y-53474D01*
X86406Y-53492D01*
X86379Y-53530D01*
X86379Y-53567D01*
X86406Y-53624D01*
X86720Y-53849D01*
X86379Y-53849D01*
X86038Y-53455D02*
X85986Y-53455D01*
X85933Y-53474D01*
X85907Y-53492D01*
X85881Y-53530D01*
X85854Y-53605D01*
X85854Y-53699D01*
X85881Y-53774D01*
X85907Y-53811D01*
X85933Y-53830D01*
X85986Y-53849D01*
X86038Y-53849D01*
X86091Y-53830D01*
X86117Y-53811D01*
X86143Y-53774D01*
X86169Y-53699D01*
X86169Y-53605D01*
X86143Y-53530D01*
X86117Y-53492D01*
X86091Y-53474D01*
X86038Y-53455D01*
X85513Y-53455D02*
X85461Y-53455D01*
X85408Y-53474D01*
X85382Y-53492D01*
X85356Y-53530D01*
X85329Y-53605D01*
X85329Y-53699D01*
X85356Y-53774D01*
X85382Y-53811D01*
X85408Y-53830D01*
X85461Y-53849D01*
X85513Y-53849D01*
X85566Y-53830D01*
X85592Y-53811D01*
X85618Y-53774D01*
X85644Y-53699D01*
X85644Y-53605D01*
X85618Y-53530D01*
X85592Y-53492D01*
X85566Y-53474D01*
X85513Y-53455D01*
X85067Y-53849D02*
X84962Y-53849D01*
X84909Y-53830D01*
X84883Y-53811D01*
X84831Y-53755D01*
X84804Y-53680D01*
X84804Y-53530D01*
X84831Y-53492D01*
X84857Y-53474D01*
X84909Y-53455D01*
X85014Y-53455D01*
X85067Y-53474D01*
X85093Y-53492D01*
X85119Y-53530D01*
X85119Y-53624D01*
X85093Y-53661D01*
X85067Y-53680D01*
X85014Y-53699D01*
X84909Y-53699D01*
X84857Y-53680D01*
X84831Y-53661D01*
X84804Y-53624D01*
G54D12*
G36*
X97760Y-54814D02*
X97707Y-54818D01*
X97700Y-54818D01*
X97648Y-54813D01*
X97653Y-54803D01*
X97658Y-54801D01*
X97731Y-54797D01*
X97758Y-54803D01*
X97760Y-54814D01*
X97760Y-54814D01*
X97760Y-54814D01*
G37*
G36*
X97878Y-54689D02*
X97859Y-54751D01*
X97850Y-54775D01*
X97827Y-54812D01*
X97819Y-54791D01*
X97835Y-54720D01*
X97850Y-54691D01*
X97874Y-54665D01*
X97878Y-54689D01*
X97878Y-54689D01*
X97878Y-54689D01*
G37*
G36*
X97574Y-54771D02*
X97564Y-54786D01*
X97530Y-54789D01*
X97494Y-54780D01*
X97510Y-54768D01*
X97562Y-54764D01*
X97574Y-54771D01*
X97574Y-54771D01*
X97574Y-54771D01*
G37*
G36*
X97416Y-54745D02*
X97402Y-54754D01*
X97351Y-54751D01*
X97256Y-54733D01*
X97116Y-54701D01*
X97005Y-54674D01*
X96924Y-54653D01*
X96890Y-54642D01*
X96894Y-54608D01*
X96911Y-54522D01*
X96938Y-54395D01*
X96974Y-54239D01*
X96984Y-54195D01*
X97029Y-54011D01*
X97065Y-53883D01*
X97100Y-53804D01*
X97140Y-53765D01*
X97191Y-53758D01*
X97261Y-53775D01*
X97316Y-53793D01*
X97352Y-53809D01*
X97329Y-53812D01*
X97260Y-53804D01*
X97202Y-53797D01*
X97160Y-53798D01*
X97129Y-53817D01*
X97102Y-53863D01*
X97076Y-53945D01*
X97045Y-54073D01*
X97003Y-54256D01*
X96999Y-54275D01*
X96971Y-54399D01*
X96946Y-54502D01*
X96930Y-54563D01*
X96930Y-54564D01*
X96933Y-54595D01*
X96969Y-54621D01*
X97051Y-54648D01*
X97165Y-54675D01*
X97283Y-54703D01*
X97372Y-54727D01*
X97415Y-54743D01*
X97416Y-54745D01*
X97416Y-54745D01*
X97416Y-54745D01*
G37*
G36*
X98638Y-54666D02*
X98569Y-54683D01*
X98449Y-54685D01*
X98293Y-54673D01*
X98152Y-54653D01*
X98048Y-54633D01*
X97974Y-54614D01*
X97952Y-54603D01*
X97971Y-54597D01*
X98039Y-54602D01*
X98116Y-54612D01*
X98264Y-54630D01*
X98426Y-54640D01*
X98488Y-54641D01*
X98582Y-54645D01*
X98635Y-54655D01*
X98638Y-54666D01*
X98638Y-54666D01*
X98638Y-54666D01*
G37*
G36*
X98802Y-54576D02*
X98799Y-54592D01*
X98764Y-54619D01*
X98725Y-54624D01*
X98716Y-54611D01*
X98742Y-54590D01*
X98768Y-54578D01*
X98802Y-54576D01*
X98802Y-54576D01*
X98802Y-54576D01*
G37*
G36*
X98883Y-54541D02*
X98866Y-54558D01*
X98850Y-54541D01*
X98866Y-54525D01*
X98883Y-54541D01*
X98883Y-54541D01*
X98883Y-54541D01*
G37*
G36*
X98950Y-54508D02*
X98933Y-54525D01*
X98916Y-54508D01*
X98933Y-54491D01*
X98950Y-54508D01*
X98950Y-54508D01*
X98950Y-54508D01*
G37*
G36*
X99016Y-54475D02*
X99000Y-54491D01*
X98983Y-54475D01*
X99000Y-54458D01*
X99016Y-54475D01*
X99016Y-54475D01*
X99016Y-54475D01*
G37*
G36*
X99250Y-54339D02*
X99223Y-54364D01*
X99159Y-54403D01*
X99150Y-54408D01*
X99083Y-54438D01*
X99050Y-54443D01*
X99076Y-54418D01*
X99140Y-54379D01*
X99150Y-54375D01*
X99216Y-54344D01*
X99249Y-54338D01*
X99250Y-54339D01*
X99250Y-54339D01*
X99250Y-54339D01*
G37*
G36*
X99316Y-54308D02*
X99300Y-54325D01*
X99283Y-54308D01*
X99300Y-54291D01*
X99316Y-54308D01*
X99316Y-54308D01*
X99316Y-54308D01*
G37*
G36*
X99616Y-54140D02*
X99589Y-54164D01*
X99522Y-54204D01*
X99483Y-54225D01*
X99404Y-54262D01*
X99356Y-54278D01*
X99350Y-54276D01*
X99376Y-54252D01*
X99444Y-54212D01*
X99483Y-54191D01*
X99562Y-54154D01*
X99610Y-54138D01*
X99616Y-54140D01*
X99616Y-54140D01*
X99616Y-54140D01*
G37*
G36*
X98483Y-54241D02*
X98466Y-54258D01*
X98450Y-54241D01*
X98466Y-54225D01*
X98483Y-54241D01*
X98483Y-54241D01*
X98483Y-54241D01*
G37*
G36*
X98240Y-54204D02*
X98231Y-54220D01*
X98197Y-54222D01*
X98161Y-54214D01*
X98177Y-54202D01*
X98229Y-54198D01*
X98240Y-54204D01*
X98240Y-54204D01*
X98240Y-54204D01*
G37*
G36*
X98606Y-54179D02*
X98600Y-54191D01*
X98568Y-54223D01*
X98562Y-54225D01*
X98560Y-54203D01*
X98566Y-54191D01*
X98598Y-54159D01*
X98603Y-54158D01*
X98606Y-54179D01*
X98606Y-54179D01*
X98606Y-54179D01*
G37*
G36*
X98077Y-54186D02*
X98060Y-54191D01*
X98007Y-54166D01*
X97998Y-54156D01*
X97989Y-54098D01*
X97996Y-54045D01*
X97999Y-53992D01*
X97964Y-53959D01*
X97890Y-53932D01*
X97766Y-53895D01*
X97883Y-53914D01*
X97982Y-53933D01*
X98029Y-53958D01*
X98038Y-54002D01*
X98028Y-54047D01*
X98028Y-54130D01*
X98053Y-54161D01*
X98077Y-54186D01*
X98077Y-54186D01*
X98077Y-54186D01*
G37*
G36*
X98961Y-53960D02*
X98955Y-53968D01*
X98912Y-54004D01*
X98841Y-54052D01*
X98762Y-54099D01*
X98693Y-54134D01*
X98653Y-54148D01*
X98650Y-54145D01*
X98676Y-54120D01*
X98743Y-54074D01*
X98801Y-54039D01*
X98883Y-53987D01*
X98933Y-53950D01*
X98941Y-53938D01*
X98904Y-53924D01*
X98826Y-53902D01*
X98798Y-53895D01*
X98733Y-53876D01*
X98723Y-53864D01*
X98739Y-53861D01*
X98826Y-53871D01*
X98901Y-53892D01*
X98960Y-53924D01*
X98961Y-53960D01*
X98961Y-53960D01*
X98961Y-53960D01*
G37*
G36*
X100797Y-54137D02*
X100791Y-54140D01*
X100728Y-54142D01*
X100613Y-54144D01*
X100483Y-54144D01*
X100329Y-54144D01*
X100222Y-54142D01*
X100169Y-54139D01*
X100174Y-54136D01*
X100225Y-54133D01*
X100399Y-54129D01*
X100594Y-54129D01*
X100741Y-54133D01*
X100797Y-54137D01*
X100797Y-54137D01*
X100797Y-54137D01*
G37*
G36*
X99705Y-54102D02*
X99700Y-54122D01*
X99683Y-54125D01*
X99655Y-54112D01*
X99661Y-54102D01*
X99700Y-54098D01*
X99705Y-54102D01*
X99705Y-54102D01*
X99705Y-54102D01*
G37*
G36*
X101407Y-54109D02*
X101365Y-54114D01*
X101316Y-54115D01*
X101244Y-54113D01*
X101224Y-54106D01*
X101241Y-54101D01*
X101338Y-54095D01*
X101391Y-54101D01*
X101407Y-54109D01*
X101407Y-54109D01*
X101407Y-54109D01*
G37*
G36*
X101718Y-54078D02*
X101672Y-54083D01*
X101650Y-54083D01*
X101589Y-54080D01*
X101582Y-54071D01*
X101591Y-54068D01*
X101676Y-54063D01*
X101708Y-54068D01*
X101718Y-54078D01*
X101718Y-54078D01*
X101718Y-54078D01*
G37*
G36*
X102018Y-54045D02*
X101972Y-54050D01*
X101950Y-54050D01*
X101889Y-54047D01*
X101882Y-54038D01*
X101891Y-54035D01*
X101976Y-54030D01*
X102008Y-54035D01*
X102018Y-54045D01*
X102018Y-54045D01*
X102018Y-54045D01*
G37*
G36*
X102229Y-54015D02*
X102183Y-54019D01*
X102136Y-54014D01*
X102141Y-54002D01*
X102209Y-53998D01*
X102225Y-54002D01*
X102229Y-54015D01*
X102229Y-54015D01*
X102229Y-54015D01*
G37*
G36*
X102731Y-53904D02*
X102689Y-53920D01*
X102600Y-53943D01*
X102477Y-53968D01*
X102391Y-53982D01*
X102348Y-53984D01*
X102354Y-53975D01*
X102415Y-53954D01*
X102466Y-53940D01*
X102581Y-53915D01*
X102681Y-53900D01*
X102716Y-53898D01*
X102731Y-53904D01*
X102731Y-53904D01*
X102731Y-53904D01*
G37*
G36*
X97699Y-53877D02*
X97687Y-53884D01*
X97666Y-53884D01*
X97585Y-53875D01*
X97500Y-53858D01*
X97437Y-53840D01*
X97437Y-53833D01*
X97483Y-53832D01*
X97583Y-53842D01*
X97650Y-53858D01*
X97699Y-53877D01*
X97699Y-53877D01*
X97699Y-53877D01*
G37*
G36*
X102907Y-53871D02*
X102897Y-53886D01*
X102863Y-53889D01*
X102828Y-53880D01*
X102843Y-53868D01*
X102895Y-53864D01*
X102907Y-53871D01*
X102907Y-53871D01*
X102907Y-53871D01*
G37*
G36*
X96848Y-53608D02*
X96830Y-53708D01*
X96809Y-53787D01*
X96787Y-53833D01*
X96753Y-53824D01*
X96685Y-53778D01*
X96597Y-53703D01*
X96581Y-53688D01*
X96400Y-53517D01*
X96587Y-53670D01*
X96774Y-53822D01*
X96811Y-53715D01*
X96848Y-53608D01*
X96848Y-53608D01*
X96848Y-53608D01*
G37*
G36*
X98626Y-53847D02*
X98574Y-53851D01*
X98566Y-53851D01*
X98514Y-53847D01*
X98519Y-53836D01*
X98525Y-53835D01*
X98598Y-53830D01*
X98625Y-53836D01*
X98626Y-53847D01*
X98626Y-53847D01*
X98626Y-53847D01*
G37*
G36*
X103038Y-53836D02*
X103034Y-53855D01*
X103016Y-53858D01*
X102989Y-53846D01*
X102994Y-53836D01*
X103034Y-53832D01*
X103038Y-53836D01*
X103038Y-53836D01*
X103038Y-53836D01*
G37*
G36*
X98440Y-53804D02*
X98431Y-53820D01*
X98397Y-53822D01*
X98361Y-53814D01*
X98377Y-53802D01*
X98429Y-53798D01*
X98440Y-53804D01*
X98440Y-53804D01*
X98440Y-53804D01*
G37*
G36*
X103172Y-53802D02*
X103167Y-53822D01*
X103150Y-53825D01*
X103122Y-53812D01*
X103127Y-53802D01*
X103167Y-53798D01*
X103172Y-53802D01*
X103172Y-53802D01*
X103172Y-53802D01*
G37*
G36*
X98266Y-53778D02*
X98249Y-53785D01*
X98194Y-53778D01*
X98116Y-53758D01*
X98065Y-53739D01*
X98076Y-53731D01*
X98100Y-53730D01*
X98187Y-53743D01*
X98233Y-53758D01*
X98266Y-53778D01*
X98266Y-53778D01*
X98266Y-53778D01*
G37*
G36*
X103272Y-53769D02*
X103267Y-53789D01*
X103250Y-53791D01*
X103222Y-53779D01*
X103227Y-53769D01*
X103267Y-53765D01*
X103272Y-53769D01*
X103272Y-53769D01*
X103272Y-53769D01*
G37*
G36*
X103405Y-53736D02*
X103400Y-53755D01*
X103383Y-53758D01*
X103355Y-53746D01*
X103361Y-53736D01*
X103400Y-53732D01*
X103405Y-53736D01*
X103405Y-53736D01*
X103405Y-53736D01*
G37*
G36*
X97974Y-53704D02*
X97964Y-53720D01*
X97930Y-53722D01*
X97894Y-53714D01*
X97910Y-53702D01*
X97962Y-53698D01*
X97974Y-53704D01*
X97974Y-53704D01*
X97974Y-53704D01*
G37*
G36*
X103483Y-53708D02*
X103466Y-53725D01*
X103450Y-53708D01*
X103466Y-53691D01*
X103483Y-53708D01*
X103483Y-53708D01*
X103483Y-53708D01*
G37*
G36*
X97840Y-53671D02*
X97831Y-53686D01*
X97797Y-53689D01*
X97761Y-53680D01*
X97777Y-53668D01*
X97829Y-53664D01*
X97840Y-53671D01*
X97840Y-53671D01*
X97840Y-53671D01*
G37*
G36*
X103583Y-53675D02*
X103566Y-53691D01*
X103550Y-53675D01*
X103566Y-53658D01*
X103583Y-53675D01*
X103583Y-53675D01*
X103583Y-53675D01*
G37*
G36*
X97674Y-53638D02*
X97664Y-53653D01*
X97630Y-53655D01*
X97594Y-53647D01*
X97610Y-53635D01*
X97662Y-53631D01*
X97674Y-53638D01*
X97674Y-53638D01*
X97674Y-53638D01*
G37*
G36*
X103906Y-53545D02*
X103875Y-53567D01*
X103833Y-53589D01*
X103745Y-53628D01*
X103682Y-53650D01*
X103656Y-53652D01*
X103676Y-53634D01*
X103716Y-53611D01*
X103812Y-53568D01*
X103883Y-53545D01*
X103906Y-53545D01*
X103906Y-53545D01*
X103906Y-53545D01*
G37*
G36*
X97534Y-53610D02*
X97523Y-53618D01*
X97500Y-53619D01*
X97412Y-53606D01*
X97366Y-53591D01*
X97333Y-53571D01*
X97350Y-53564D01*
X97405Y-53571D01*
X97483Y-53591D01*
X97534Y-53610D01*
X97534Y-53610D01*
X97534Y-53610D01*
G37*
G36*
X96876Y-53575D02*
X96872Y-53580D01*
X96852Y-53575D01*
X96850Y-53558D01*
X96862Y-53530D01*
X96872Y-53536D01*
X96876Y-53575D01*
X96876Y-53575D01*
X96876Y-53575D01*
G37*
G36*
X97223Y-53548D02*
X97190Y-53548D01*
X97116Y-53534D01*
X97016Y-53508D01*
X96943Y-53483D01*
X96919Y-53467D01*
X96933Y-53464D01*
X97007Y-53473D01*
X97107Y-53499D01*
X97133Y-53507D01*
X97206Y-53535D01*
X97223Y-53548D01*
X97223Y-53548D01*
X97223Y-53548D01*
G37*
G36*
X96383Y-53508D02*
X96366Y-53525D01*
X96350Y-53508D01*
X96366Y-53491D01*
X96383Y-53508D01*
X96383Y-53508D01*
X96383Y-53508D01*
G37*
G36*
X104016Y-53508D02*
X104000Y-53525D01*
X103983Y-53508D01*
X104000Y-53491D01*
X104016Y-53508D01*
X104016Y-53508D01*
X104016Y-53508D01*
G37*
G36*
X99842Y-53430D02*
X99833Y-53471D01*
X99781Y-53486D01*
X99725Y-53486D01*
X99646Y-53482D01*
X99632Y-53478D01*
X99680Y-53471D01*
X99708Y-53467D01*
X99782Y-53452D01*
X99816Y-53435D01*
X99816Y-53433D01*
X99795Y-53378D01*
X99741Y-53295D01*
X99669Y-53205D01*
X99596Y-53126D01*
X99537Y-53077D01*
X99523Y-53070D01*
X99470Y-53049D01*
X99462Y-53034D01*
X99512Y-53026D01*
X99585Y-53068D01*
X99669Y-53149D01*
X99734Y-53235D01*
X99809Y-53354D01*
X99842Y-53430D01*
X99842Y-53430D01*
X99842Y-53430D01*
G37*
G36*
X104083Y-53475D02*
X104066Y-53491D01*
X104050Y-53475D01*
X104066Y-53458D01*
X104083Y-53475D01*
X104083Y-53475D01*
X104083Y-53475D01*
G37*
G36*
X96313Y-53456D02*
X96305Y-53458D01*
X96277Y-53435D01*
X96230Y-53383D01*
X96166Y-53308D01*
X96241Y-53371D01*
X96304Y-53430D01*
X96313Y-53456D01*
X96313Y-53456D01*
X96313Y-53456D01*
G37*
G36*
X99446Y-53446D02*
X99395Y-53448D01*
X99333Y-53450D01*
X99228Y-53445D01*
X99080Y-53429D01*
X98914Y-53406D01*
X98816Y-53390D01*
X98667Y-53364D01*
X98540Y-53343D01*
X98451Y-53329D01*
X98419Y-53326D01*
X98387Y-53315D01*
X98391Y-53305D01*
X98429Y-53303D01*
X98520Y-53311D01*
X98650Y-53328D01*
X98806Y-53352D01*
X98821Y-53354D01*
X98993Y-53382D01*
X99154Y-53406D01*
X99285Y-53425D01*
X99366Y-53435D01*
X99436Y-53442D01*
X99446Y-53446D01*
X99446Y-53446D01*
X99446Y-53446D01*
G37*
G36*
X104416Y-53306D02*
X104389Y-53330D01*
X104322Y-53371D01*
X104283Y-53391D01*
X104204Y-53428D01*
X104156Y-53444D01*
X104150Y-53443D01*
X104176Y-53419D01*
X104244Y-53378D01*
X104283Y-53358D01*
X104362Y-53321D01*
X104410Y-53305D01*
X104416Y-53306D01*
X104416Y-53306D01*
X104416Y-53306D01*
G37*
G36*
X100507Y-53338D02*
X100497Y-53353D01*
X100463Y-53355D01*
X100428Y-53347D01*
X100443Y-53335D01*
X100495Y-53331D01*
X100507Y-53338D01*
X100507Y-53338D01*
X100507Y-53338D01*
G37*
G36*
X100343Y-53324D02*
X100337Y-53325D01*
X100309Y-53302D01*
X100279Y-53266D01*
X100250Y-53227D01*
X100267Y-53235D01*
X100291Y-53254D01*
X100343Y-53302D01*
X100343Y-53324D01*
X100343Y-53324D01*
X100343Y-53324D01*
G37*
G36*
X100605Y-53302D02*
X100600Y-53322D01*
X100583Y-53325D01*
X100555Y-53312D01*
X100561Y-53302D01*
X100600Y-53298D01*
X100605Y-53302D01*
X100605Y-53302D01*
X100605Y-53302D01*
G37*
G36*
X96107Y-53283D02*
X96064Y-53251D01*
X95975Y-53174D01*
X95919Y-53123D01*
X95833Y-53042D01*
X95774Y-52980D01*
X95751Y-52948D01*
X95752Y-52947D01*
X95781Y-52963D01*
X95844Y-53015D01*
X95930Y-53094D01*
X95950Y-53113D01*
X96051Y-53213D01*
X96103Y-53270D01*
X96107Y-53283D01*
X96107Y-53283D01*
X96107Y-53283D01*
G37*
G36*
X98329Y-53281D02*
X98283Y-53286D01*
X98236Y-53281D01*
X98241Y-53269D01*
X98309Y-53265D01*
X98325Y-53269D01*
X98329Y-53281D01*
X98329Y-53281D01*
X98329Y-53281D01*
G37*
G36*
X100683Y-53275D02*
X100666Y-53291D01*
X100650Y-53275D01*
X100666Y-53258D01*
X100683Y-53275D01*
X100683Y-53275D01*
X100683Y-53275D01*
G37*
G36*
X104483Y-53275D02*
X104466Y-53291D01*
X104450Y-53275D01*
X104466Y-53258D01*
X104483Y-53275D01*
X104483Y-53275D01*
X104483Y-53275D01*
G37*
G36*
X98140Y-53238D02*
X98131Y-53253D01*
X98097Y-53255D01*
X98061Y-53247D01*
X98077Y-53235D01*
X98129Y-53231D01*
X98140Y-53238D01*
X98140Y-53238D01*
X98140Y-53238D01*
G37*
G36*
X100783Y-53241D02*
X100766Y-53258D01*
X100750Y-53241D01*
X100766Y-53225D01*
X100783Y-53241D01*
X100783Y-53241D01*
X100783Y-53241D01*
G37*
G36*
X104550Y-53241D02*
X104533Y-53258D01*
X104516Y-53241D01*
X104533Y-53225D01*
X104550Y-53241D01*
X104550Y-53241D01*
X104550Y-53241D01*
G37*
G36*
X97972Y-53202D02*
X97967Y-53222D01*
X97950Y-53225D01*
X97922Y-53212D01*
X97927Y-53202D01*
X97967Y-53198D01*
X97972Y-53202D01*
X97972Y-53202D01*
X97972Y-53202D01*
G37*
G36*
X100872Y-53179D02*
X100866Y-53191D01*
X100835Y-53223D01*
X100829Y-53225D01*
X100827Y-53203D01*
X100833Y-53191D01*
X100864Y-53159D01*
X100870Y-53158D01*
X100872Y-53179D01*
X100872Y-53179D01*
X100872Y-53179D01*
G37*
G36*
X104616Y-53208D02*
X104600Y-53225D01*
X104583Y-53208D01*
X104600Y-53191D01*
X104616Y-53208D01*
X104616Y-53208D01*
X104616Y-53208D01*
G37*
G36*
X97840Y-53171D02*
X97831Y-53186D01*
X97797Y-53189D01*
X97761Y-53180D01*
X97777Y-53168D01*
X97829Y-53164D01*
X97840Y-53171D01*
X97840Y-53171D01*
X97840Y-53171D01*
G37*
G36*
X99114Y-52964D02*
X99083Y-53005D01*
X99001Y-53073D01*
X98882Y-53135D01*
X98754Y-53177D01*
X98666Y-53189D01*
X98562Y-53173D01*
X98466Y-53139D01*
X98418Y-53113D01*
X98422Y-53108D01*
X98433Y-53111D01*
X98621Y-53147D01*
X98792Y-53131D01*
X98962Y-53058D01*
X99050Y-53001D01*
X99105Y-52963D01*
X99114Y-52964D01*
X99114Y-52964D01*
X99114Y-52964D01*
G37*
G36*
X100244Y-53185D02*
X100239Y-53191D01*
X100211Y-53166D01*
X100154Y-53100D01*
X100077Y-53004D01*
X100031Y-52946D01*
X99941Y-52831D01*
X99873Y-52756D01*
X99811Y-52709D01*
X99735Y-52677D01*
X99629Y-52648D01*
X99597Y-52639D01*
X99482Y-52609D01*
X99400Y-52582D01*
X99366Y-52566D01*
X99366Y-52564D01*
X99403Y-52564D01*
X99487Y-52580D01*
X99601Y-52606D01*
X99618Y-52611D01*
X99737Y-52644D01*
X99820Y-52678D01*
X99886Y-52727D01*
X99957Y-52806D01*
X100024Y-52890D01*
X100106Y-52996D01*
X100176Y-53086D01*
X100219Y-53142D01*
X100225Y-53150D01*
X100244Y-53185D01*
X100244Y-53185D01*
X100244Y-53185D01*
G37*
G36*
X103316Y-53175D02*
X103300Y-53191D01*
X103283Y-53175D01*
X103300Y-53158D01*
X103316Y-53175D01*
X103316Y-53175D01*
X103316Y-53175D01*
G37*
G36*
X97674Y-53138D02*
X97664Y-53153D01*
X97630Y-53155D01*
X97594Y-53147D01*
X97610Y-53135D01*
X97662Y-53131D01*
X97674Y-53138D01*
X97674Y-53138D01*
X97674Y-53138D01*
G37*
G36*
X101148Y-52883D02*
X101127Y-52931D01*
X101072Y-53002D01*
X101041Y-53035D01*
X100993Y-53081D01*
X100984Y-53084D01*
X101003Y-53059D01*
X101066Y-52978D01*
X101111Y-52908D01*
X101139Y-52872D01*
X101148Y-52883D01*
X101148Y-52883D01*
X101148Y-52883D01*
G37*
G36*
X103183Y-53141D02*
X103166Y-53158D01*
X103150Y-53141D01*
X103166Y-53125D01*
X103183Y-53141D01*
X103183Y-53141D01*
X103183Y-53141D01*
G37*
G36*
X103450Y-53141D02*
X103433Y-53158D01*
X103416Y-53141D01*
X103433Y-53125D01*
X103450Y-53141D01*
X103450Y-53141D01*
X103450Y-53141D01*
G37*
G36*
X104739Y-53113D02*
X104733Y-53125D01*
X104701Y-53156D01*
X104696Y-53158D01*
X104693Y-53136D01*
X104700Y-53125D01*
X104731Y-53093D01*
X104737Y-53091D01*
X104739Y-53113D01*
X104739Y-53113D01*
X104739Y-53113D01*
G37*
G36*
X97529Y-53115D02*
X97483Y-53119D01*
X97436Y-53114D01*
X97441Y-53102D01*
X97509Y-53098D01*
X97525Y-53102D01*
X97529Y-53115D01*
X97529Y-53115D01*
X97529Y-53115D01*
G37*
G36*
X103250Y-53108D02*
X103233Y-53125D01*
X103216Y-53108D01*
X103233Y-53091D01*
X103250Y-53108D01*
X103250Y-53108D01*
X103250Y-53108D01*
G37*
G36*
X105549Y-50695D02*
X105523Y-51061D01*
X105440Y-51403D01*
X105416Y-51457D01*
X105416Y-51108D01*
X105416Y-50141D01*
X105400Y-50125D01*
X105383Y-50141D01*
X105383Y-50041D01*
X105366Y-50025D01*
X105350Y-50041D01*
X105366Y-50058D01*
X105383Y-50041D01*
X105383Y-50141D01*
X105400Y-50158D01*
X105416Y-50141D01*
X105416Y-51108D01*
X105400Y-51091D01*
X105383Y-51108D01*
X105400Y-51125D01*
X105416Y-51108D01*
X105416Y-51457D01*
X105383Y-51533D01*
X105383Y-51308D01*
X105366Y-51291D01*
X105350Y-51308D01*
X105350Y-51175D01*
X105333Y-51158D01*
X105316Y-51175D01*
X105333Y-51191D01*
X105350Y-51175D01*
X105350Y-51308D01*
X105366Y-51325D01*
X105383Y-51308D01*
X105383Y-51533D01*
X105316Y-51686D01*
X105316Y-51308D01*
X105300Y-51291D01*
X105283Y-51308D01*
X105300Y-51325D01*
X105316Y-51308D01*
X105316Y-51686D01*
X105299Y-51725D01*
X105283Y-51749D01*
X105283Y-51508D01*
X105266Y-51491D01*
X105250Y-51508D01*
X105266Y-51525D01*
X105283Y-51508D01*
X105283Y-51749D01*
X105183Y-51903D01*
X105183Y-51741D01*
X105166Y-51725D01*
X105150Y-51741D01*
X105166Y-51758D01*
X105183Y-51741D01*
X105183Y-51903D01*
X105097Y-52035D01*
X105083Y-52051D01*
X105083Y-51808D01*
X105066Y-51791D01*
X105050Y-51808D01*
X105050Y-49475D01*
X105050Y-49375D01*
X105033Y-49358D01*
X105016Y-49375D01*
X105033Y-49391D01*
X105050Y-49375D01*
X105050Y-49475D01*
X105033Y-49458D01*
X105016Y-49475D01*
X105033Y-49491D01*
X105050Y-49475D01*
X105050Y-51808D01*
X105066Y-51825D01*
X105083Y-51808D01*
X105083Y-52051D01*
X105050Y-52088D01*
X105050Y-52008D01*
X105033Y-51991D01*
X105016Y-52008D01*
X105033Y-52025D01*
X105050Y-52008D01*
X105050Y-52088D01*
X104983Y-52165D01*
X104983Y-52041D01*
X104983Y-51908D01*
X104966Y-51891D01*
X104950Y-51908D01*
X104966Y-51925D01*
X104983Y-51908D01*
X104983Y-52041D01*
X104966Y-52025D01*
X104950Y-52041D01*
X104966Y-52058D01*
X104983Y-52041D01*
X104983Y-52165D01*
X104850Y-52318D01*
X104850Y-52175D01*
X104833Y-52158D01*
X104816Y-52175D01*
X104833Y-52191D01*
X104850Y-52175D01*
X104850Y-52318D01*
X104833Y-52338D01*
X104750Y-52414D01*
X104750Y-52241D01*
X104750Y-49141D01*
X104750Y-49041D01*
X104733Y-49025D01*
X104716Y-49041D01*
X104733Y-49058D01*
X104750Y-49041D01*
X104750Y-49141D01*
X104733Y-49125D01*
X104716Y-49141D01*
X104733Y-49158D01*
X104750Y-49141D01*
X104750Y-52241D01*
X104733Y-52225D01*
X104716Y-52241D01*
X104733Y-52258D01*
X104750Y-52241D01*
X104750Y-52414D01*
X104716Y-52446D01*
X104716Y-52308D01*
X104700Y-52291D01*
X104683Y-52308D01*
X104683Y-49175D01*
X104666Y-49158D01*
X104650Y-49175D01*
X104666Y-49191D01*
X104683Y-49175D01*
X104683Y-52308D01*
X104700Y-52325D01*
X104716Y-52308D01*
X104716Y-52446D01*
X104565Y-52585D01*
X104565Y-52438D01*
X104549Y-52441D01*
X104517Y-52484D01*
X104516Y-52493D01*
X104527Y-52523D01*
X104551Y-52497D01*
X104562Y-52473D01*
X104565Y-52438D01*
X104565Y-52585D01*
X104559Y-52591D01*
X104450Y-52670D01*
X104450Y-52541D01*
X104450Y-52441D01*
X104433Y-52425D01*
X104416Y-52441D01*
X104433Y-52458D01*
X104450Y-52441D01*
X104450Y-52541D01*
X104433Y-52525D01*
X104416Y-52541D01*
X104433Y-52558D01*
X104450Y-52541D01*
X104450Y-52670D01*
X104285Y-52790D01*
X104283Y-52791D01*
X104283Y-52708D01*
X104266Y-52691D01*
X104250Y-52708D01*
X104266Y-52725D01*
X104283Y-52708D01*
X104283Y-52791D01*
X104209Y-52831D01*
X104209Y-52746D01*
X104204Y-52735D01*
X104152Y-52713D01*
X104099Y-52706D01*
X104045Y-52712D01*
X104045Y-52746D01*
X104059Y-52773D01*
X104088Y-52819D01*
X104103Y-52808D01*
X104109Y-52780D01*
X104140Y-52737D01*
X104176Y-52740D01*
X104209Y-52746D01*
X104209Y-52831D01*
X103996Y-52947D01*
X103987Y-52950D01*
X103987Y-52882D01*
X103983Y-52879D01*
X103983Y-52802D01*
X103962Y-52769D01*
X103936Y-52740D01*
X103902Y-52715D01*
X103894Y-52744D01*
X103895Y-52771D01*
X103913Y-52828D01*
X103941Y-52833D01*
X103980Y-52809D01*
X103983Y-52802D01*
X103983Y-52879D01*
X103975Y-52874D01*
X103904Y-52873D01*
X103889Y-52873D01*
X103792Y-52883D01*
X103745Y-52914D01*
X103738Y-52933D01*
X103731Y-52981D01*
X103757Y-52985D01*
X103808Y-52961D01*
X103886Y-52925D01*
X103946Y-52901D01*
X103987Y-52882D01*
X103987Y-52950D01*
X103906Y-52986D01*
X103770Y-53040D01*
X103652Y-53082D01*
X103562Y-53109D01*
X103509Y-53118D01*
X103503Y-53108D01*
X103525Y-53091D01*
X103563Y-53046D01*
X103561Y-53017D01*
X103562Y-52993D01*
X103588Y-52999D01*
X103644Y-52990D01*
X103675Y-52957D01*
X103697Y-52917D01*
X103678Y-52916D01*
X103627Y-52941D01*
X103560Y-52965D01*
X103500Y-52969D01*
X103465Y-52957D01*
X103473Y-52931D01*
X103488Y-52920D01*
X103511Y-52898D01*
X103475Y-52892D01*
X103427Y-52914D01*
X103418Y-52961D01*
X103454Y-52998D01*
X103455Y-52999D01*
X103478Y-53027D01*
X103457Y-53064D01*
X103408Y-53089D01*
X103389Y-53091D01*
X103352Y-53085D01*
X103376Y-53062D01*
X103383Y-53058D01*
X103399Y-53036D01*
X103359Y-53025D01*
X103300Y-53021D01*
X103283Y-53020D01*
X103283Y-52932D01*
X103283Y-52925D01*
X103255Y-52899D01*
X103208Y-52894D01*
X103156Y-52897D01*
X103168Y-52910D01*
X103200Y-52925D01*
X103256Y-52948D01*
X103275Y-52955D01*
X103283Y-52932D01*
X103283Y-53020D01*
X103204Y-53019D01*
X103134Y-53021D01*
X103125Y-53022D01*
X103086Y-53006D01*
X103083Y-52993D01*
X103083Y-52908D01*
X103066Y-52891D01*
X103050Y-52908D01*
X103066Y-52925D01*
X103083Y-52908D01*
X103083Y-52993D01*
X103054Y-52968D01*
X102984Y-52958D01*
X102983Y-52958D01*
X102983Y-52908D01*
X102966Y-52891D01*
X102950Y-52908D01*
X102966Y-52925D01*
X102983Y-52908D01*
X102983Y-52958D01*
X102981Y-52958D01*
X102916Y-52965D01*
X102908Y-52972D01*
X102908Y-52860D01*
X102903Y-52858D01*
X102873Y-52881D01*
X102866Y-52891D01*
X102858Y-52922D01*
X102862Y-52925D01*
X102893Y-52901D01*
X102900Y-52891D01*
X102908Y-52860D01*
X102908Y-52972D01*
X102895Y-52984D01*
X102896Y-52986D01*
X102886Y-53010D01*
X102867Y-53013D01*
X102826Y-53002D01*
X102822Y-52994D01*
X102819Y-52926D01*
X102816Y-52923D01*
X102816Y-52791D01*
X102805Y-52759D01*
X102801Y-52758D01*
X102773Y-52781D01*
X102766Y-52791D01*
X102769Y-52822D01*
X102781Y-52825D01*
X102815Y-52800D01*
X102816Y-52791D01*
X102816Y-52923D01*
X102781Y-52897D01*
X102701Y-52896D01*
X102701Y-52789D01*
X102690Y-52768D01*
X102652Y-52768D01*
X102585Y-52785D01*
X102570Y-52803D01*
X102616Y-52815D01*
X102617Y-52815D01*
X102680Y-52805D01*
X102701Y-52789D01*
X102701Y-52896D01*
X102693Y-52896D01*
X102683Y-52897D01*
X102600Y-52900D01*
X102553Y-52894D01*
X102550Y-52889D01*
X102533Y-52873D01*
X102504Y-52868D01*
X102504Y-52713D01*
X102464Y-52695D01*
X102438Y-52686D01*
X102383Y-52673D01*
X102383Y-49148D01*
X102383Y-49143D01*
X102359Y-49115D01*
X102344Y-49105D01*
X102322Y-49101D01*
X102330Y-49119D01*
X102363Y-49155D01*
X102383Y-49148D01*
X102383Y-52673D01*
X102356Y-52668D01*
X102313Y-52681D01*
X102321Y-52702D01*
X102385Y-52715D01*
X102408Y-52716D01*
X102487Y-52718D01*
X102504Y-52713D01*
X102504Y-52868D01*
X102474Y-52863D01*
X102383Y-52858D01*
X102383Y-52775D01*
X102366Y-52758D01*
X102350Y-52775D01*
X102366Y-52791D01*
X102383Y-52775D01*
X102383Y-52858D01*
X102362Y-52857D01*
X102343Y-52856D01*
X102279Y-52843D01*
X102272Y-52806D01*
X102269Y-52764D01*
X102253Y-52758D01*
X102223Y-52730D01*
X102216Y-52691D01*
X102202Y-52637D01*
X102183Y-52625D01*
X102156Y-52652D01*
X102150Y-52691D01*
X102136Y-52745D01*
X102116Y-52758D01*
X102089Y-52730D01*
X102083Y-52691D01*
X102068Y-52637D01*
X102050Y-52626D01*
X102050Y-52543D01*
X102050Y-49141D01*
X102033Y-49125D01*
X102016Y-49141D01*
X102033Y-49158D01*
X102050Y-49141D01*
X102050Y-52543D01*
X102026Y-52515D01*
X102011Y-52505D01*
X101988Y-52501D01*
X101996Y-52519D01*
X102030Y-52555D01*
X102049Y-52548D01*
X102050Y-52543D01*
X102050Y-52626D01*
X102048Y-52625D01*
X102028Y-52645D01*
X102033Y-52658D01*
X102030Y-52689D01*
X102017Y-52691D01*
X101974Y-52665D01*
X101963Y-52645D01*
X101950Y-52635D01*
X101950Y-52525D01*
X101921Y-52503D01*
X101866Y-52499D01*
X101809Y-52511D01*
X101809Y-52374D01*
X101805Y-52369D01*
X101785Y-52374D01*
X101783Y-52391D01*
X101795Y-52419D01*
X101805Y-52413D01*
X101809Y-52374D01*
X101809Y-52511D01*
X101803Y-52513D01*
X101783Y-52532D01*
X101811Y-52551D01*
X101866Y-52558D01*
X101929Y-52547D01*
X101950Y-52525D01*
X101950Y-52635D01*
X101920Y-52613D01*
X101880Y-52616D01*
X101832Y-52647D01*
X101835Y-52704D01*
X101828Y-52711D01*
X101793Y-52670D01*
X101750Y-52609D01*
X101750Y-52175D01*
X101733Y-52158D01*
X101716Y-52175D01*
X101716Y-49441D01*
X101700Y-49425D01*
X101683Y-49441D01*
X101700Y-49458D01*
X101716Y-49441D01*
X101716Y-52175D01*
X101733Y-52191D01*
X101750Y-52175D01*
X101750Y-52609D01*
X101735Y-52588D01*
X101734Y-52586D01*
X101734Y-52429D01*
X101733Y-52366D01*
X101725Y-52275D01*
X101714Y-52237D01*
X101693Y-52236D01*
X101683Y-52241D01*
X101683Y-52175D01*
X101666Y-52158D01*
X101650Y-52175D01*
X101666Y-52191D01*
X101683Y-52175D01*
X101683Y-52241D01*
X101681Y-52243D01*
X101635Y-52237D01*
X101594Y-52203D01*
X101562Y-52166D01*
X101565Y-52178D01*
X101593Y-52225D01*
X101641Y-52281D01*
X101682Y-52299D01*
X101711Y-52317D01*
X101715Y-52349D01*
X101713Y-52433D01*
X101728Y-52458D01*
X101734Y-52429D01*
X101734Y-52586D01*
X101704Y-52541D01*
X101487Y-52186D01*
X101483Y-52178D01*
X101483Y-51641D01*
X101466Y-51625D01*
X101450Y-51641D01*
X101466Y-51658D01*
X101483Y-51641D01*
X101483Y-52178D01*
X101450Y-52114D01*
X101450Y-51908D01*
X101450Y-51808D01*
X101444Y-51802D01*
X101444Y-51712D01*
X101438Y-51702D01*
X101399Y-51698D01*
X101394Y-51702D01*
X101399Y-51722D01*
X101416Y-51725D01*
X101444Y-51712D01*
X101444Y-51802D01*
X101433Y-51791D01*
X101416Y-51808D01*
X101433Y-51825D01*
X101450Y-51808D01*
X101450Y-51908D01*
X101433Y-51891D01*
X101416Y-51908D01*
X101433Y-51925D01*
X101450Y-51908D01*
X101450Y-52114D01*
X101383Y-51984D01*
X101383Y-51641D01*
X101375Y-51633D01*
X101375Y-49993D01*
X101370Y-49991D01*
X101340Y-50015D01*
X101333Y-50025D01*
X101324Y-50056D01*
X101329Y-50058D01*
X101359Y-50034D01*
X101366Y-50025D01*
X101375Y-49993D01*
X101375Y-51633D01*
X101366Y-51625D01*
X101350Y-51641D01*
X101366Y-51658D01*
X101383Y-51641D01*
X101383Y-51984D01*
X101350Y-51921D01*
X101350Y-51741D01*
X101333Y-51725D01*
X101316Y-51741D01*
X101316Y-50141D01*
X101300Y-50125D01*
X101283Y-50141D01*
X101300Y-50158D01*
X101316Y-50141D01*
X101316Y-51741D01*
X101333Y-51758D01*
X101350Y-51741D01*
X101350Y-51921D01*
X101320Y-51863D01*
X101200Y-51561D01*
X101126Y-51270D01*
X101096Y-50980D01*
X101106Y-50681D01*
X101156Y-50361D01*
X101200Y-50172D01*
X101317Y-49819D01*
X101481Y-49486D01*
X101684Y-49189D01*
X101863Y-48993D01*
X101983Y-48878D01*
X102141Y-48935D01*
X102249Y-48968D01*
X102342Y-48989D01*
X102373Y-48991D01*
X102438Y-49016D01*
X102496Y-49096D01*
X102505Y-49116D01*
X102569Y-49217D01*
X102670Y-49343D01*
X102792Y-49478D01*
X102923Y-49606D01*
X103045Y-49712D01*
X103145Y-49781D01*
X103154Y-49786D01*
X103253Y-49827D01*
X103330Y-49832D01*
X103390Y-49817D01*
X103464Y-49775D01*
X103568Y-49697D01*
X103687Y-49595D01*
X103806Y-49483D01*
X103911Y-49374D01*
X103988Y-49282D01*
X104008Y-49253D01*
X104074Y-49178D01*
X104158Y-49158D01*
X104295Y-49134D01*
X104444Y-49071D01*
X104573Y-48983D01*
X104588Y-48970D01*
X104650Y-48916D01*
X104694Y-48905D01*
X104748Y-48933D01*
X104758Y-48939D01*
X104825Y-48994D01*
X104910Y-49080D01*
X104972Y-49150D01*
X105198Y-49453D01*
X105364Y-49754D01*
X105475Y-50064D01*
X105535Y-50397D01*
X105549Y-50695D01*
X105549Y-50695D01*
X105549Y-50695D01*
G37*
G36*
X97362Y-53081D02*
X97316Y-53086D01*
X97269Y-53081D01*
X97275Y-53069D01*
X97343Y-53065D01*
X97358Y-53069D01*
X97362Y-53081D01*
X97362Y-53081D01*
X97362Y-53081D01*
G37*
G36*
X98350Y-53075D02*
X98333Y-53091D01*
X98316Y-53075D01*
X98333Y-53058D01*
X98350Y-53075D01*
X98350Y-53075D01*
X98350Y-53075D01*
G37*
G36*
X104839Y-53046D02*
X104833Y-53058D01*
X104801Y-53090D01*
X104796Y-53091D01*
X104793Y-53070D01*
X104800Y-53058D01*
X104831Y-53026D01*
X104837Y-53025D01*
X104839Y-53046D01*
X104839Y-53046D01*
X104839Y-53046D01*
G37*
G36*
X97174Y-53038D02*
X97164Y-53053D01*
X97130Y-53055D01*
X97094Y-53047D01*
X97110Y-53035D01*
X97162Y-53031D01*
X97174Y-53038D01*
X97174Y-53038D01*
X97174Y-53038D01*
G37*
G36*
X103005Y-53012D02*
X103000Y-53025D01*
X102970Y-53056D01*
X102964Y-53058D01*
X102950Y-53032D01*
X102950Y-53025D01*
X102975Y-52992D01*
X102985Y-52991D01*
X103005Y-53012D01*
X103005Y-53012D01*
X103005Y-53012D01*
G37*
G36*
X97078Y-52641D02*
X97071Y-52690D01*
X97053Y-52780D01*
X97034Y-52858D01*
X97010Y-52941D01*
X96994Y-52975D01*
X96988Y-52958D01*
X96995Y-52900D01*
X97012Y-52820D01*
X97033Y-52738D01*
X97055Y-52669D01*
X97072Y-52633D01*
X97078Y-52641D01*
X97078Y-52641D01*
X97078Y-52641D01*
G37*
G36*
X99372Y-53002D02*
X99367Y-53022D01*
X99350Y-53025D01*
X99322Y-53012D01*
X99327Y-53002D01*
X99367Y-52998D01*
X99372Y-53002D01*
X99372Y-53002D01*
X99372Y-53002D01*
G37*
G36*
X102616Y-53008D02*
X102600Y-53025D01*
X102583Y-53008D01*
X102600Y-52991D01*
X102616Y-53008D01*
X102616Y-53008D01*
X102616Y-53008D01*
G37*
G36*
X102750Y-52991D02*
X102724Y-53023D01*
X102714Y-53025D01*
X102694Y-53004D01*
X102700Y-52991D01*
X102729Y-52959D01*
X102735Y-52958D01*
X102749Y-52984D01*
X102750Y-52991D01*
X102750Y-52991D01*
X102750Y-52991D01*
G37*
G36*
X104981Y-52925D02*
X104972Y-52942D01*
X104954Y-52966D01*
X104905Y-53018D01*
X104883Y-53018D01*
X104883Y-53012D01*
X104906Y-52984D01*
X104941Y-52954D01*
X104981Y-52925D01*
X104981Y-52925D01*
X104981Y-52925D01*
G37*
G36*
X98230Y-52987D02*
X98209Y-52966D01*
X98165Y-52889D01*
X98132Y-52812D01*
X98122Y-52760D01*
X98122Y-52757D01*
X98140Y-52766D01*
X98172Y-52822D01*
X98189Y-52859D01*
X98224Y-52951D01*
X98230Y-52987D01*
X98230Y-52987D01*
X98230Y-52987D01*
G37*
G36*
X99238Y-52969D02*
X99234Y-52989D01*
X99216Y-52991D01*
X99189Y-52979D01*
X99194Y-52969D01*
X99234Y-52965D01*
X99238Y-52969D01*
X99238Y-52969D01*
X99238Y-52969D01*
G37*
G36*
X96016Y-52864D02*
X95991Y-52886D01*
X95983Y-52891D01*
X95907Y-52918D01*
X95866Y-52922D01*
X95819Y-52919D01*
X95832Y-52906D01*
X95866Y-52891D01*
X95944Y-52866D01*
X95983Y-52861D01*
X96016Y-52864D01*
X96016Y-52864D01*
X96016Y-52864D01*
G37*
G36*
X105176Y-52758D02*
X105170Y-52779D01*
X105133Y-52825D01*
X105083Y-52874D01*
X105056Y-52891D01*
X105063Y-52870D01*
X105100Y-52825D01*
X105150Y-52775D01*
X105176Y-52758D01*
X105176Y-52758D01*
X105176Y-52758D01*
G37*
G36*
X96138Y-52836D02*
X96134Y-52855D01*
X96116Y-52858D01*
X96089Y-52846D01*
X96094Y-52836D01*
X96134Y-52832D01*
X96138Y-52836D01*
X96138Y-52836D01*
X96138Y-52836D01*
G37*
G36*
X101983Y-52806D02*
X101965Y-52851D01*
X101950Y-52858D01*
X101917Y-52834D01*
X101916Y-52826D01*
X101940Y-52781D01*
X101950Y-52775D01*
X101978Y-52782D01*
X101983Y-52806D01*
X101983Y-52806D01*
X101983Y-52806D01*
G37*
G36*
X96700Y-52661D02*
X96696Y-52671D01*
X96645Y-52693D01*
X96562Y-52723D01*
X96464Y-52755D01*
X96367Y-52783D01*
X96287Y-52802D01*
X96280Y-52804D01*
X96255Y-52804D01*
X96288Y-52787D01*
X96369Y-52757D01*
X96416Y-52741D01*
X96538Y-52703D01*
X96637Y-52674D01*
X96694Y-52661D01*
X96700Y-52661D01*
X96700Y-52661D01*
X96700Y-52661D01*
G37*
G36*
X101183Y-52808D02*
X101166Y-52825D01*
X101150Y-52808D01*
X101166Y-52791D01*
X101183Y-52808D01*
X101183Y-52808D01*
X101183Y-52808D01*
G37*
G36*
X105316Y-52675D02*
X105300Y-52691D01*
X105283Y-52675D01*
X105300Y-52658D01*
X105316Y-52675D01*
X105316Y-52675D01*
X105316Y-52675D01*
G37*
G36*
X97077Y-52571D02*
X97034Y-52592D01*
X96983Y-52610D01*
X96877Y-52640D01*
X96813Y-52653D01*
X96797Y-52649D01*
X96836Y-52627D01*
X96883Y-52608D01*
X96979Y-52577D01*
X97059Y-52563D01*
X97066Y-52563D01*
X97077Y-52571D01*
X97077Y-52571D01*
X97077Y-52571D01*
G37*
G36*
X98694Y-52134D02*
X98653Y-52148D01*
X98577Y-52171D01*
X98394Y-52243D01*
X98265Y-52340D01*
X98180Y-52474D01*
X98139Y-52608D01*
X98128Y-52645D01*
X98122Y-52619D01*
X98120Y-52591D01*
X98146Y-52465D01*
X98225Y-52345D01*
X98344Y-52243D01*
X98492Y-52170D01*
X98600Y-52144D01*
X98675Y-52134D01*
X98694Y-52134D01*
X98694Y-52134D01*
X98694Y-52134D01*
G37*
G36*
X101176Y-52609D02*
X101172Y-52613D01*
X101152Y-52609D01*
X101150Y-52591D01*
X101162Y-52564D01*
X101172Y-52569D01*
X101176Y-52609D01*
X101176Y-52609D01*
X101176Y-52609D01*
G37*
G36*
X99305Y-52536D02*
X99300Y-52555D01*
X99283Y-52558D01*
X99255Y-52546D01*
X99261Y-52536D01*
X99300Y-52532D01*
X99305Y-52536D01*
X99305Y-52536D01*
X99305Y-52536D01*
G37*
G36*
X101147Y-52493D02*
X101143Y-52509D01*
X101118Y-52499D01*
X101102Y-52468D01*
X101091Y-52429D01*
X101116Y-52445D01*
X101120Y-52449D01*
X101147Y-52493D01*
X101147Y-52493D01*
X101147Y-52493D01*
G37*
G36*
X99183Y-52475D02*
X99166Y-52491D01*
X99150Y-52475D01*
X99166Y-52458D01*
X99183Y-52475D01*
X99183Y-52475D01*
X99183Y-52475D01*
G37*
G36*
X105539Y-52413D02*
X105533Y-52425D01*
X105501Y-52456D01*
X105496Y-52458D01*
X105493Y-52436D01*
X105500Y-52425D01*
X105531Y-52393D01*
X105537Y-52391D01*
X105539Y-52413D01*
X105539Y-52413D01*
X105539Y-52413D01*
G37*
G36*
X99147Y-52405D02*
X99139Y-52424D01*
X99135Y-52425D01*
X99107Y-52401D01*
X99096Y-52386D01*
X99092Y-52363D01*
X99111Y-52371D01*
X99147Y-52405D01*
X99147Y-52405D01*
X99147Y-52405D01*
G37*
G36*
X101038Y-52358D02*
X101036Y-52358D01*
X101010Y-52332D01*
X100959Y-52265D01*
X100892Y-52171D01*
X100889Y-52166D01*
X100805Y-52036D01*
X100727Y-51906D01*
X100665Y-51790D01*
X100626Y-51704D01*
X100617Y-51667D01*
X100631Y-51681D01*
X100669Y-51741D01*
X100723Y-51836D01*
X100731Y-51851D01*
X100801Y-51975D01*
X100872Y-52091D01*
X100924Y-52168D01*
X101001Y-52274D01*
X101038Y-52336D01*
X101038Y-52358D01*
X101038Y-52358D01*
X101038Y-52358D01*
G37*
G36*
X105740Y-52101D02*
X105720Y-52141D01*
X105672Y-52221D01*
X105633Y-52275D01*
X105595Y-52321D01*
X105593Y-52315D01*
X105612Y-52275D01*
X105660Y-52194D01*
X105699Y-52141D01*
X105737Y-52095D01*
X105740Y-52101D01*
X105740Y-52101D01*
X105740Y-52101D01*
G37*
G36*
X98983Y-52241D02*
X98966Y-52258D01*
X98950Y-52241D01*
X98966Y-52225D01*
X98983Y-52241D01*
X98983Y-52241D01*
X98983Y-52241D01*
G37*
G36*
X98916Y-52208D02*
X98900Y-52225D01*
X98883Y-52208D01*
X98900Y-52191D01*
X98916Y-52208D01*
X98916Y-52208D01*
X98916Y-52208D01*
G37*
G36*
X98840Y-52171D02*
X98831Y-52186D01*
X98797Y-52189D01*
X98761Y-52180D01*
X98777Y-52168D01*
X98829Y-52164D01*
X98840Y-52171D01*
X98840Y-52171D01*
X98840Y-52171D01*
G37*
G36*
X105974Y-51639D02*
X105967Y-51672D01*
X105937Y-51745D01*
X105892Y-51838D01*
X105844Y-51933D01*
X105800Y-52012D01*
X105771Y-52055D01*
X105766Y-52058D01*
X105772Y-52031D01*
X105802Y-51959D01*
X105849Y-51857D01*
X105856Y-51842D01*
X105910Y-51739D01*
X105951Y-51667D01*
X105974Y-51639D01*
X105974Y-51639D01*
X105974Y-51639D01*
G37*
G36*
X100609Y-51609D02*
X100605Y-51613D01*
X100585Y-51609D01*
X100583Y-51591D01*
X100595Y-51564D01*
X100605Y-51569D01*
X100609Y-51609D01*
X100609Y-51609D01*
X100609Y-51609D01*
G37*
G36*
X106048Y-51475D02*
X106032Y-51529D01*
X106016Y-51558D01*
X105990Y-51585D01*
X105984Y-51575D01*
X106000Y-51520D01*
X106016Y-51491D01*
X106043Y-51464D01*
X106048Y-51475D01*
X106048Y-51475D01*
X106048Y-51475D01*
G37*
G36*
X100583Y-51508D02*
X100566Y-51525D01*
X100550Y-51508D01*
X100566Y-51491D01*
X100583Y-51508D01*
X100583Y-51508D01*
X100583Y-51508D01*
G37*
G36*
X100540Y-51407D02*
X100537Y-51415D01*
X100524Y-51395D01*
X100506Y-51327D01*
X100500Y-51291D01*
X100488Y-51202D01*
X100489Y-51146D01*
X100492Y-51138D01*
X100506Y-51157D01*
X100523Y-51224D01*
X100530Y-51261D01*
X100540Y-51350D01*
X100540Y-51407D01*
X100540Y-51407D01*
X100540Y-51407D01*
G37*
G36*
X106083Y-51408D02*
X106066Y-51425D01*
X106050Y-51408D01*
X106066Y-51391D01*
X106083Y-51408D01*
X106083Y-51408D01*
X106083Y-51408D01*
G37*
G36*
X106116Y-51308D02*
X106100Y-51325D01*
X106083Y-51308D01*
X106100Y-51291D01*
X106116Y-51308D01*
X106116Y-51308D01*
X106116Y-51308D01*
G37*
G36*
X106210Y-50875D02*
X106201Y-50942D01*
X106178Y-51048D01*
X106168Y-51091D01*
X106143Y-51177D01*
X106126Y-51218D01*
X106120Y-51208D01*
X106127Y-51138D01*
X106149Y-51034D01*
X106164Y-50975D01*
X106192Y-50884D01*
X106207Y-50853D01*
X106210Y-50875D01*
X106210Y-50875D01*
X106210Y-50875D01*
G37*
G36*
X100477Y-51039D02*
X100471Y-51067D01*
X100460Y-51068D01*
X100456Y-51016D01*
X100456Y-51008D01*
X100461Y-50956D01*
X100471Y-50961D01*
X100473Y-50967D01*
X100477Y-51039D01*
X100477Y-51039D01*
X100477Y-51039D01*
G37*
G36*
X99840Y-50803D02*
X99827Y-50826D01*
X99769Y-50857D01*
X99685Y-50889D01*
X99596Y-50914D01*
X99521Y-50924D01*
X99517Y-50925D01*
X99428Y-50903D01*
X99371Y-50864D01*
X99327Y-50786D01*
X99316Y-50729D01*
X99338Y-50629D01*
X99392Y-50510D01*
X99466Y-50399D01*
X99521Y-50341D01*
X99600Y-50275D01*
X99528Y-50358D01*
X99432Y-50494D01*
X99372Y-50628D01*
X99352Y-50746D01*
X99376Y-50835D01*
X99390Y-50851D01*
X99465Y-50885D01*
X99575Y-50885D01*
X99693Y-50852D01*
X99721Y-50839D01*
X99793Y-50808D01*
X99837Y-50802D01*
X99840Y-50803D01*
X99840Y-50803D01*
X99840Y-50803D01*
G37*
G36*
X99916Y-50775D02*
X99900Y-50791D01*
X99883Y-50775D01*
X99900Y-50758D01*
X99916Y-50775D01*
X99916Y-50775D01*
X99916Y-50775D01*
G37*
G36*
X99983Y-50741D02*
X99966Y-50758D01*
X99950Y-50741D01*
X99966Y-50725D01*
X99983Y-50741D01*
X99983Y-50741D01*
X99983Y-50741D01*
G37*
G36*
X106243Y-50718D02*
X106238Y-50733D01*
X106226Y-50737D01*
X106221Y-50691D01*
X106227Y-50644D01*
X106238Y-50650D01*
X106243Y-50718D01*
X106243Y-50718D01*
X106243Y-50718D01*
G37*
G36*
X100050Y-50708D02*
X100033Y-50725D01*
X100016Y-50708D01*
X100033Y-50691D01*
X100050Y-50708D01*
X100050Y-50708D01*
X100050Y-50708D01*
G37*
G36*
X100450Y-50641D02*
X100444Y-50704D01*
X100433Y-50725D01*
X100419Y-50697D01*
X100416Y-50661D01*
X100397Y-50599D01*
X100375Y-50580D01*
X100363Y-50565D01*
X100391Y-50560D01*
X100438Y-50582D01*
X100450Y-50641D01*
X100450Y-50641D01*
X100450Y-50641D01*
G37*
G36*
X100116Y-50675D02*
X100100Y-50691D01*
X100083Y-50675D01*
X100100Y-50658D01*
X100116Y-50675D01*
X100116Y-50675D01*
X100116Y-50675D01*
G37*
G36*
X100216Y-50641D02*
X100200Y-50658D01*
X100183Y-50641D01*
X100200Y-50625D01*
X100216Y-50641D01*
X100216Y-50641D01*
X100216Y-50641D01*
G37*
G36*
X100305Y-50602D02*
X100300Y-50622D01*
X100283Y-50625D01*
X100255Y-50612D01*
X100261Y-50602D01*
X100300Y-50598D01*
X100305Y-50602D01*
X100305Y-50602D01*
X100305Y-50602D01*
G37*
G36*
X107350Y-50445D02*
X107320Y-50508D01*
X107240Y-50545D01*
X107151Y-50552D01*
X107033Y-50547D01*
X107150Y-50534D01*
X107241Y-50510D01*
X107305Y-50470D01*
X107308Y-50466D01*
X107340Y-50436D01*
X107350Y-50445D01*
X107350Y-50445D01*
X107350Y-50445D01*
G37*
G36*
X106983Y-50508D02*
X106966Y-50525D01*
X106950Y-50508D01*
X106966Y-50491D01*
X106983Y-50508D01*
X106983Y-50508D01*
X106983Y-50508D01*
G37*
G36*
X106279Y-50380D02*
X106273Y-50433D01*
X106265Y-50449D01*
X106260Y-50407D01*
X106259Y-50358D01*
X106261Y-50286D01*
X106268Y-50266D01*
X106273Y-50283D01*
X106279Y-50380D01*
X106279Y-50380D01*
X106279Y-50380D01*
G37*
G36*
X106916Y-50475D02*
X106900Y-50491D01*
X106883Y-50475D01*
X106900Y-50458D01*
X106916Y-50475D01*
X106916Y-50475D01*
X106916Y-50475D01*
G37*
G36*
X106850Y-50441D02*
X106833Y-50458D01*
X106816Y-50441D01*
X106833Y-50425D01*
X106850Y-50441D01*
X106850Y-50441D01*
X106850Y-50441D01*
G37*
G36*
X106783Y-50408D02*
X106766Y-50425D01*
X106750Y-50408D01*
X106766Y-50391D01*
X106783Y-50408D01*
X106783Y-50408D01*
X106783Y-50408D01*
G37*
G36*
X106716Y-50375D02*
X106700Y-50391D01*
X106683Y-50375D01*
X106700Y-50358D01*
X106716Y-50375D01*
X106716Y-50375D01*
X106716Y-50375D01*
G37*
G36*
X106650Y-50341D02*
X106633Y-50358D01*
X106616Y-50341D01*
X106633Y-50325D01*
X106650Y-50341D01*
X106650Y-50341D01*
X106650Y-50341D01*
G37*
G36*
X106583Y-50308D02*
X106566Y-50325D01*
X106550Y-50308D01*
X106566Y-50291D01*
X106583Y-50308D01*
X106583Y-50308D01*
X106583Y-50308D01*
G37*
G36*
X106468Y-50286D02*
X106416Y-50277D01*
X106366Y-50258D01*
X106320Y-50236D01*
X106338Y-50228D01*
X106373Y-50227D01*
X106440Y-50239D01*
X106466Y-50258D01*
X106468Y-50286D01*
X106468Y-50286D01*
X106468Y-50286D01*
G37*
G36*
X107345Y-50255D02*
X107341Y-50274D01*
X107313Y-50246D01*
X107268Y-50173D01*
X107266Y-50170D01*
X107198Y-50071D01*
X107108Y-49972D01*
X107084Y-49951D01*
X107029Y-49900D01*
X107017Y-49879D01*
X107033Y-49885D01*
X107118Y-49947D01*
X107212Y-50043D01*
X107292Y-50146D01*
X107315Y-50186D01*
X107345Y-50255D01*
X107345Y-50255D01*
X107345Y-50255D01*
G37*
G36*
X99683Y-50241D02*
X99666Y-50258D01*
X99650Y-50241D01*
X99666Y-50225D01*
X99683Y-50241D01*
X99683Y-50241D01*
X99683Y-50241D01*
G37*
G36*
X99772Y-50179D02*
X99766Y-50191D01*
X99735Y-50223D01*
X99729Y-50225D01*
X99727Y-50203D01*
X99733Y-50191D01*
X99764Y-50159D01*
X99770Y-50158D01*
X99772Y-50179D01*
X99772Y-50179D01*
X99772Y-50179D01*
G37*
G36*
X99816Y-50108D02*
X99800Y-50125D01*
X99783Y-50108D01*
X99800Y-50091D01*
X99816Y-50108D01*
X99816Y-50108D01*
X99816Y-50108D01*
G37*
G36*
X99842Y-50042D02*
X99838Y-50047D01*
X99819Y-50042D01*
X99816Y-50025D01*
X99828Y-49997D01*
X99838Y-50002D01*
X99842Y-50042D01*
X99842Y-50042D01*
X99842Y-50042D01*
G37*
G36*
X99876Y-49942D02*
X99872Y-49947D01*
X99852Y-49942D01*
X99850Y-49925D01*
X99862Y-49897D01*
X99872Y-49902D01*
X99876Y-49942D01*
X99876Y-49942D01*
X99876Y-49942D01*
G37*
G36*
X99909Y-49842D02*
X99905Y-49847D01*
X99885Y-49842D01*
X99883Y-49825D01*
X99895Y-49797D01*
X99905Y-49802D01*
X99909Y-49842D01*
X99909Y-49842D01*
X99909Y-49842D01*
G37*
G36*
X106950Y-49841D02*
X106933Y-49858D01*
X106916Y-49841D01*
X106933Y-49825D01*
X106950Y-49841D01*
X106950Y-49841D01*
X106950Y-49841D01*
G37*
G36*
X106903Y-49787D02*
X106880Y-49778D01*
X106865Y-49756D01*
X106855Y-49712D01*
X106859Y-49704D01*
X106882Y-49715D01*
X106894Y-49740D01*
X106903Y-49787D01*
X106903Y-49787D01*
X106903Y-49787D01*
G37*
G36*
X99950Y-49741D02*
X99933Y-49758D01*
X99916Y-49741D01*
X99933Y-49725D01*
X99950Y-49741D01*
X99950Y-49741D01*
X99950Y-49741D01*
G37*
G36*
X104068Y-48982D02*
X104040Y-49061D01*
X103977Y-49171D01*
X103881Y-49296D01*
X103764Y-49425D01*
X103636Y-49546D01*
X103511Y-49650D01*
X103399Y-49724D01*
X103313Y-49757D01*
X103302Y-49758D01*
X103230Y-49739D01*
X103137Y-49691D01*
X103096Y-49663D01*
X102978Y-49566D01*
X102852Y-49443D01*
X102733Y-49311D01*
X102633Y-49185D01*
X102566Y-49078D01*
X102549Y-49040D01*
X102527Y-48955D01*
X102538Y-48898D01*
X102584Y-48839D01*
X102703Y-48747D01*
X102862Y-48685D01*
X103068Y-48652D01*
X103300Y-48644D01*
X103572Y-48661D01*
X103786Y-48707D01*
X103942Y-48782D01*
X104024Y-48861D01*
X104064Y-48925D01*
X104068Y-48982D01*
X104068Y-48982D01*
X104068Y-48982D01*
G37*
G36*
X100006Y-49646D02*
X100000Y-49658D01*
X99968Y-49690D01*
X99962Y-49691D01*
X99960Y-49670D01*
X99966Y-49658D01*
X99998Y-49626D01*
X100003Y-49625D01*
X100006Y-49646D01*
X100006Y-49646D01*
X100006Y-49646D01*
G37*
G36*
X106850Y-49641D02*
X106833Y-49658D01*
X106816Y-49641D01*
X106833Y-49625D01*
X106850Y-49641D01*
X106850Y-49641D01*
X106850Y-49641D01*
G37*
G36*
X100143Y-49458D02*
X100136Y-49479D01*
X100100Y-49525D01*
X100049Y-49574D01*
X100023Y-49591D01*
X100029Y-49570D01*
X100066Y-49525D01*
X100116Y-49475D01*
X100143Y-49458D01*
X100143Y-49458D01*
X100143Y-49458D01*
G37*
G36*
X106809Y-49542D02*
X106805Y-49547D01*
X106785Y-49542D01*
X106783Y-49525D01*
X106795Y-49497D01*
X106805Y-49502D01*
X106809Y-49542D01*
X106809Y-49542D01*
X106809Y-49542D01*
G37*
G36*
X106783Y-49441D02*
X106766Y-49458D01*
X106750Y-49441D01*
X106766Y-49425D01*
X106783Y-49441D01*
X106783Y-49441D01*
X106783Y-49441D01*
G37*
G36*
X100250Y-49408D02*
X100233Y-49425D01*
X100216Y-49408D01*
X100233Y-49391D01*
X100250Y-49408D01*
X100250Y-49408D01*
X100250Y-49408D01*
G37*
G36*
X100316Y-49375D02*
X100300Y-49391D01*
X100283Y-49375D01*
X100300Y-49358D01*
X100316Y-49375D01*
X100316Y-49375D01*
X100316Y-49375D01*
G37*
G36*
X106750Y-49358D02*
X106746Y-49384D01*
X106731Y-49378D01*
X106694Y-49331D01*
X106640Y-49254D01*
X106550Y-49159D01*
X106425Y-49069D01*
X106289Y-48998D01*
X106165Y-48960D01*
X106133Y-48958D01*
X106051Y-48941D01*
X106016Y-48924D01*
X106001Y-48905D01*
X106036Y-48904D01*
X106107Y-48918D01*
X106200Y-48943D01*
X106302Y-48978D01*
X106358Y-49000D01*
X106454Y-49053D01*
X106557Y-49129D01*
X106651Y-49214D01*
X106720Y-49294D01*
X106749Y-49355D01*
X106750Y-49358D01*
X106750Y-49358D01*
X106750Y-49358D01*
G37*
G36*
X100535Y-49304D02*
X100500Y-49325D01*
X100422Y-49348D01*
X100383Y-49353D01*
X100364Y-49345D01*
X100400Y-49325D01*
X100477Y-49301D01*
X100516Y-49296D01*
X100535Y-49304D01*
X100535Y-49304D01*
X100535Y-49304D01*
G37*
G36*
X100674Y-49271D02*
X100664Y-49286D01*
X100630Y-49289D01*
X100594Y-49280D01*
X100610Y-49268D01*
X100662Y-49264D01*
X100674Y-49271D01*
X100674Y-49271D01*
X100674Y-49271D01*
G37*
G36*
X100806Y-49213D02*
X100800Y-49225D01*
X100768Y-49256D01*
X100762Y-49258D01*
X100760Y-49236D01*
X100766Y-49225D01*
X100798Y-49193D01*
X100803Y-49191D01*
X100806Y-49213D01*
X100806Y-49213D01*
X100806Y-49213D01*
G37*
G36*
X100880Y-49025D02*
X100864Y-49096D01*
X100850Y-49125D01*
X100824Y-49151D01*
X100819Y-49141D01*
X100830Y-49087D01*
X100851Y-49037D01*
X100872Y-49011D01*
X100880Y-49025D01*
X100880Y-49025D01*
X100880Y-49025D01*
G37*
G36*
X104880Y-48113D02*
X104857Y-48365D01*
X104777Y-48601D01*
X104640Y-48811D01*
X104620Y-48834D01*
X104497Y-48946D01*
X104355Y-49032D01*
X104219Y-49083D01*
X104157Y-49090D01*
X104103Y-49083D01*
X104105Y-49047D01*
X104117Y-49024D01*
X104130Y-48935D01*
X104088Y-48842D01*
X103998Y-48752D01*
X103869Y-48672D01*
X103806Y-48647D01*
X103806Y-48145D01*
X103784Y-48045D01*
X103754Y-47978D01*
X103734Y-47970D01*
X103720Y-48023D01*
X103712Y-48108D01*
X103692Y-48217D01*
X103659Y-48288D01*
X103618Y-48307D01*
X103608Y-48302D01*
X103583Y-48259D01*
X103583Y-48254D01*
X103604Y-48238D01*
X103625Y-48246D01*
X103644Y-48249D01*
X103620Y-48214D01*
X103562Y-48172D01*
X103523Y-48166D01*
X103480Y-48145D01*
X103465Y-48091D01*
X103481Y-47971D01*
X103545Y-47886D01*
X103590Y-47862D01*
X103637Y-47840D01*
X103623Y-47822D01*
X103603Y-47814D01*
X103533Y-47822D01*
X103464Y-47873D01*
X103417Y-47932D01*
X103392Y-48002D01*
X103383Y-48107D01*
X103383Y-48156D01*
X103389Y-48285D01*
X103409Y-48367D01*
X103450Y-48425D01*
X103540Y-48483D01*
X103631Y-48475D01*
X103710Y-48415D01*
X103785Y-48289D01*
X103806Y-48145D01*
X103806Y-48647D01*
X103712Y-48610D01*
X103551Y-48575D01*
X103450Y-48557D01*
X103396Y-48530D01*
X103368Y-48482D01*
X103357Y-48446D01*
X103345Y-48362D01*
X103336Y-48236D01*
X103333Y-48094D01*
X103334Y-48075D01*
X103362Y-47817D01*
X103436Y-47595D01*
X103552Y-47413D01*
X103705Y-47276D01*
X103890Y-47191D01*
X104102Y-47163D01*
X104156Y-47165D01*
X104345Y-47202D01*
X104503Y-47288D01*
X104639Y-47428D01*
X104749Y-47608D01*
X104844Y-47857D01*
X104880Y-48113D01*
X104880Y-48113D01*
X104880Y-48113D01*
G37*
G36*
X100909Y-48942D02*
X100905Y-48947D01*
X100885Y-48942D01*
X100883Y-48925D01*
X100895Y-48897D01*
X100905Y-48902D01*
X100909Y-48942D01*
X100909Y-48942D01*
X100909Y-48942D01*
G37*
G36*
X103281Y-48217D02*
X103254Y-48413D01*
X103244Y-48444D01*
X103218Y-48500D01*
X103218Y-48225D01*
X103208Y-48108D01*
X103170Y-48009D01*
X103108Y-47949D01*
X103103Y-47947D01*
X103075Y-47943D01*
X103075Y-47972D01*
X103102Y-48042D01*
X103140Y-48147D01*
X103143Y-48204D01*
X103110Y-48221D01*
X103071Y-48217D01*
X103013Y-48216D01*
X103002Y-48253D01*
X103004Y-48272D01*
X103003Y-48298D01*
X102980Y-48263D01*
X102969Y-48241D01*
X102940Y-48145D01*
X102939Y-48058D01*
X102947Y-48003D01*
X102928Y-48004D01*
X102918Y-48012D01*
X102888Y-48068D01*
X102864Y-48158D01*
X102859Y-48185D01*
X102855Y-48283D01*
X102881Y-48352D01*
X102927Y-48405D01*
X103004Y-48471D01*
X103064Y-48485D01*
X103125Y-48448D01*
X103150Y-48425D01*
X103199Y-48338D01*
X103218Y-48225D01*
X103218Y-48500D01*
X103214Y-48509D01*
X103169Y-48545D01*
X103089Y-48565D01*
X103036Y-48572D01*
X102866Y-48609D01*
X102710Y-48669D01*
X102584Y-48744D01*
X102503Y-48827D01*
X102487Y-48859D01*
X102461Y-48926D01*
X102443Y-48954D01*
X102407Y-48945D01*
X102333Y-48927D01*
X102327Y-48926D01*
X102119Y-48846D01*
X101946Y-48721D01*
X101816Y-48559D01*
X101737Y-48370D01*
X101716Y-48205D01*
X101748Y-47998D01*
X101839Y-47808D01*
X101982Y-47648D01*
X102129Y-47549D01*
X102291Y-47494D01*
X102483Y-47473D01*
X102677Y-47488D01*
X102846Y-47537D01*
X102871Y-47549D01*
X103039Y-47672D01*
X103168Y-47833D01*
X103250Y-48020D01*
X103281Y-48217D01*
X103281Y-48217D01*
X103281Y-48217D01*
G37*
G36*
X100981Y-48654D02*
X100971Y-48724D01*
X100955Y-48789D01*
X100948Y-48808D01*
X100932Y-48831D01*
X100931Y-48794D01*
X100938Y-48741D01*
X100954Y-48654D01*
X100968Y-48600D01*
X100971Y-48594D01*
X100981Y-48603D01*
X100981Y-48654D01*
X100981Y-48654D01*
X100981Y-48654D01*
G37*
G36*
X101883Y-48841D02*
X101866Y-48858D01*
X101850Y-48841D01*
X101866Y-48825D01*
X101883Y-48841D01*
X101883Y-48841D01*
X101883Y-48841D01*
G37*
G36*
X105883Y-48808D02*
X105866Y-48825D01*
X105850Y-48808D01*
X105866Y-48791D01*
X105883Y-48808D01*
X105883Y-48808D01*
X105883Y-48808D01*
G37*
G36*
X105831Y-48726D02*
X105830Y-48760D01*
X105811Y-48740D01*
X105807Y-48733D01*
X105782Y-48663D01*
X105752Y-48540D01*
X105719Y-48373D01*
X105685Y-48175D01*
X105665Y-48048D01*
X105602Y-47715D01*
X105518Y-47432D01*
X105403Y-47184D01*
X105250Y-46954D01*
X105053Y-46728D01*
X104985Y-46660D01*
X104894Y-46568D01*
X104835Y-46503D01*
X104814Y-46473D01*
X104833Y-46481D01*
X104998Y-46620D01*
X105167Y-46806D01*
X105326Y-47021D01*
X105465Y-47246D01*
X105568Y-47465D01*
X105596Y-47541D01*
X105622Y-47641D01*
X105653Y-47786D01*
X105686Y-47958D01*
X105714Y-48125D01*
X105742Y-48294D01*
X105770Y-48450D01*
X105794Y-48574D01*
X105812Y-48649D01*
X105812Y-48650D01*
X105831Y-48726D01*
X105831Y-48726D01*
X105831Y-48726D01*
G37*
G36*
X103316Y-48525D02*
X103291Y-48557D01*
X103281Y-48558D01*
X103261Y-48537D01*
X103266Y-48525D01*
X103296Y-48493D01*
X103301Y-48491D01*
X103316Y-48517D01*
X103316Y-48525D01*
X103316Y-48525D01*
X103316Y-48525D01*
G37*
G36*
X101012Y-48365D02*
X101006Y-48433D01*
X100998Y-48447D01*
X100993Y-48403D01*
X100992Y-48341D01*
X100995Y-48266D01*
X101001Y-48243D01*
X101007Y-48267D01*
X101012Y-48365D01*
X101012Y-48365D01*
X101012Y-48365D01*
G37*
G36*
X101282Y-47229D02*
X101259Y-47297D01*
X101218Y-47401D01*
X101196Y-47451D01*
X101138Y-47600D01*
X101087Y-47752D01*
X101054Y-47879D01*
X101051Y-47892D01*
X101018Y-48075D01*
X101032Y-47902D01*
X101049Y-47807D01*
X101082Y-47682D01*
X101127Y-47545D01*
X101176Y-47411D01*
X101225Y-47300D01*
X101265Y-47226D01*
X101282Y-47208D01*
X101282Y-47229D01*
X101282Y-47229D01*
X101282Y-47229D01*
G37*
G36*
X102983Y-47475D02*
X102966Y-47491D01*
X102950Y-47475D01*
X102966Y-47458D01*
X102983Y-47475D01*
X102983Y-47475D01*
X102983Y-47475D01*
G37*
G36*
X101350Y-47141D02*
X101333Y-47158D01*
X101316Y-47141D01*
X101333Y-47125D01*
X101350Y-47141D01*
X101350Y-47141D01*
X101350Y-47141D01*
G37*
G36*
X101416Y-47041D02*
X101400Y-47058D01*
X101383Y-47041D01*
X101400Y-47025D01*
X101416Y-47041D01*
X101416Y-47041D01*
X101416Y-47041D01*
G37*
G36*
X102181Y-46304D02*
X102160Y-46330D01*
X102094Y-46379D01*
X102053Y-46406D01*
X101972Y-46466D01*
X101863Y-46559D01*
X101743Y-46669D01*
X101680Y-46731D01*
X101589Y-46820D01*
X101528Y-46874D01*
X101501Y-46890D01*
X101511Y-46868D01*
X101585Y-46778D01*
X101695Y-46666D01*
X101823Y-46548D01*
X101950Y-46441D01*
X102057Y-46362D01*
X102080Y-46348D01*
X102155Y-46308D01*
X102181Y-46304D01*
X102181Y-46304D01*
X102181Y-46304D01*
G37*
G36*
X104683Y-46375D02*
X104666Y-46391D01*
X104650Y-46375D01*
X104666Y-46358D01*
X104683Y-46375D01*
X104683Y-46375D01*
X104683Y-46375D01*
G37*
G36*
X104616Y-46341D02*
X104600Y-46358D01*
X104583Y-46341D01*
X104600Y-46325D01*
X104616Y-46341D01*
X104616Y-46341D01*
X104616Y-46341D01*
G37*
G36*
X104550Y-46315D02*
X104537Y-46317D01*
X104479Y-46294D01*
X104416Y-46266D01*
X104326Y-46230D01*
X104198Y-46185D01*
X104059Y-46140D01*
X104050Y-46137D01*
X103943Y-46102D01*
X103875Y-46076D01*
X103859Y-46061D01*
X103866Y-46060D01*
X103931Y-46071D01*
X104036Y-46099D01*
X104163Y-46140D01*
X104295Y-46186D01*
X104412Y-46231D01*
X104497Y-46270D01*
X104527Y-46289D01*
X104550Y-46315D01*
X104550Y-46315D01*
X104550Y-46315D01*
G37*
G36*
X102250Y-46275D02*
X102233Y-46291D01*
X102216Y-46275D01*
X102233Y-46258D01*
X102250Y-46275D01*
X102250Y-46275D01*
X102250Y-46275D01*
G37*
G36*
X102316Y-46241D02*
X102300Y-46258D01*
X102283Y-46241D01*
X102300Y-46225D01*
X102316Y-46241D01*
X102316Y-46241D01*
X102316Y-46241D01*
G37*
G36*
X102383Y-46208D02*
X102366Y-46225D01*
X102350Y-46208D01*
X102366Y-46191D01*
X102383Y-46208D01*
X102383Y-46208D01*
X102383Y-46208D01*
G37*
G36*
X102483Y-46175D02*
X102466Y-46191D01*
X102450Y-46175D01*
X102466Y-46158D01*
X102483Y-46175D01*
X102483Y-46175D01*
X102483Y-46175D01*
G37*
G36*
X102572Y-46136D02*
X102567Y-46155D01*
X102550Y-46158D01*
X102522Y-46146D01*
X102527Y-46136D01*
X102567Y-46132D01*
X102572Y-46136D01*
X102572Y-46136D01*
X102572Y-46136D01*
G37*
G36*
X102672Y-46102D02*
X102667Y-46122D01*
X102650Y-46125D01*
X102622Y-46112D01*
X102627Y-46102D01*
X102667Y-46098D01*
X102672Y-46102D01*
X102672Y-46102D01*
X102672Y-46102D01*
G37*
G36*
X103281Y-46034D02*
X103280Y-46037D01*
X103243Y-46044D01*
X103155Y-46054D01*
X103035Y-46063D01*
X103000Y-46066D01*
X102888Y-46070D01*
X102820Y-46069D01*
X102805Y-46061D01*
X102816Y-46057D01*
X102878Y-46045D01*
X102970Y-46036D01*
X103075Y-46029D01*
X103175Y-46026D01*
X103249Y-46027D01*
X103281Y-46034D01*
X103281Y-46034D01*
X103281Y-46034D01*
G37*
G36*
X103716Y-46040D02*
X103682Y-46045D01*
X103597Y-46047D01*
X103583Y-46047D01*
X103491Y-46045D01*
X103450Y-46041D01*
X103468Y-46035D01*
X103475Y-46034D01*
X103591Y-46028D01*
X103691Y-46034D01*
X103716Y-46040D01*
X103716Y-46040D01*
X103716Y-46040D01*
G37*
G36*
X103583Y-48375D02*
X103566Y-48391D01*
X103550Y-48375D01*
X103566Y-48358D01*
X103583Y-48375D01*
X103583Y-48375D01*
X103583Y-48375D01*
G37*
G36*
X103569Y-48191D02*
X103568Y-48216D01*
X103550Y-48258D01*
X103515Y-48310D01*
X103497Y-48325D01*
X103497Y-48300D01*
X103516Y-48258D01*
X103551Y-48205D01*
X103569Y-48191D01*
X103569Y-48191D01*
X103569Y-48191D01*
G37*
G36*
X103483Y-48241D02*
X103466Y-48258D01*
X103450Y-48241D01*
X103466Y-48225D01*
X103483Y-48241D01*
X103483Y-48241D01*
X103483Y-48241D01*
G37*
G36*
X103083Y-48275D02*
X103066Y-48291D01*
X103050Y-48275D01*
X103066Y-48258D01*
X103083Y-48275D01*
X103083Y-48275D01*
X103083Y-48275D01*
G37*
G36*
X107192Y-53948D02*
X106600Y-53948D01*
X106008Y-53948D01*
X106008Y-53799D01*
X106008Y-53651D01*
X106600Y-53651D01*
X107192Y-53651D01*
X107192Y-53799D01*
X107192Y-53948D01*
X107192Y-53948D01*
X107192Y-53948D01*
G37*
G36*
X107292Y-52008D02*
X107291Y-52010D01*
X107287Y-52015D01*
X107280Y-52021D01*
X107272Y-52030D01*
X107263Y-52040D01*
X107252Y-52050D01*
X107249Y-52054D01*
X107237Y-52066D01*
X107224Y-52079D01*
X107212Y-52092D01*
X107200Y-52104D01*
X107191Y-52114D01*
X107183Y-52121D01*
X107177Y-52128D01*
X107168Y-52137D01*
X107157Y-52149D01*
X107144Y-52161D01*
X107131Y-52175D01*
X107117Y-52189D01*
X107104Y-52203D01*
X107088Y-52219D01*
X107074Y-52233D01*
X107064Y-52244D01*
X107055Y-52253D01*
X107048Y-52260D01*
X107043Y-52265D01*
X107039Y-52269D01*
X107037Y-52272D01*
X107036Y-52273D01*
X107035Y-52275D01*
X107035Y-52275D01*
X107035Y-52275D01*
X107035Y-52275D01*
X107038Y-52276D01*
X107043Y-52277D01*
X107045Y-52277D01*
X107054Y-52278D01*
X107055Y-52351D01*
X107055Y-52424D01*
X107012Y-52424D01*
X107012Y-52385D01*
X107012Y-52351D01*
X107011Y-52316D01*
X107002Y-52316D01*
X106999Y-52315D01*
X106999Y-52249D01*
X106999Y-52248D01*
X106997Y-52247D01*
X106991Y-52246D01*
X106985Y-52246D01*
X106978Y-52246D01*
X106972Y-52247D01*
X106970Y-52247D01*
X106969Y-52250D01*
X106968Y-52255D01*
X106967Y-52262D01*
X106967Y-52268D01*
X106967Y-52274D01*
X106967Y-52275D01*
X106969Y-52277D01*
X106973Y-52275D01*
X106979Y-52271D01*
X106986Y-52265D01*
X106988Y-52263D01*
X106993Y-52257D01*
X106997Y-52252D01*
X106999Y-52249D01*
X106999Y-52315D01*
X106993Y-52315D01*
X106970Y-52339D01*
X106947Y-52362D01*
X106947Y-52374D01*
X106947Y-52385D01*
X106980Y-52385D01*
X107012Y-52385D01*
X107012Y-52424D01*
X107005Y-52424D01*
X106954Y-52425D01*
X106953Y-52438D01*
X106952Y-52445D01*
X106951Y-52456D01*
X106950Y-52467D01*
X106949Y-52479D01*
X106949Y-52480D01*
X106948Y-52491D01*
X106947Y-52502D01*
X106947Y-52512D01*
X106946Y-52518D01*
X106946Y-52519D01*
X106945Y-52525D01*
X106945Y-52535D01*
X106944Y-52547D01*
X106943Y-52560D01*
X106942Y-52573D01*
X106941Y-52584D01*
X106940Y-52594D01*
X106940Y-52594D01*
X106939Y-52601D01*
X106939Y-52610D01*
X106938Y-52622D01*
X106937Y-52634D01*
X106937Y-52637D01*
X106936Y-52648D01*
X106935Y-52657D01*
X106935Y-52664D01*
X106934Y-52666D01*
X106934Y-52172D01*
X106934Y-52168D01*
X106931Y-52164D01*
X106926Y-52159D01*
X106925Y-52158D01*
X106918Y-52153D01*
X106911Y-52149D01*
X106907Y-52146D01*
X106899Y-52143D01*
X106892Y-52140D01*
X106891Y-52139D01*
X106872Y-52132D01*
X106852Y-52125D01*
X106828Y-52119D01*
X106801Y-52114D01*
X106785Y-52111D01*
X106776Y-52109D01*
X106768Y-52108D01*
X106763Y-52107D01*
X106761Y-52107D01*
X106759Y-52107D01*
X106758Y-52110D01*
X106757Y-52116D01*
X106757Y-52118D01*
X106757Y-52129D01*
X106718Y-52129D01*
X106718Y-52078D01*
X106656Y-52078D01*
X106594Y-52078D01*
X106594Y-52085D01*
X106594Y-52092D01*
X106655Y-52092D01*
X106717Y-52091D01*
X106718Y-52085D01*
X106718Y-52078D01*
X106718Y-52129D01*
X106653Y-52129D01*
X106551Y-52128D01*
X106551Y-52115D01*
X106550Y-52102D01*
X106542Y-52102D01*
X106534Y-52102D01*
X106524Y-52103D01*
X106514Y-52104D01*
X106505Y-52105D01*
X106498Y-52105D01*
X106493Y-52106D01*
X106491Y-52107D01*
X106488Y-52108D01*
X106482Y-52109D01*
X106477Y-52110D01*
X106469Y-52111D01*
X106461Y-52112D01*
X106458Y-52112D01*
X106451Y-52113D01*
X106451Y-52146D01*
X106451Y-52178D01*
X106692Y-52178D01*
X106934Y-52177D01*
X106934Y-52172D01*
X106934Y-52666D01*
X106934Y-52668D01*
X106934Y-52669D01*
X106933Y-52671D01*
X106933Y-52677D01*
X106933Y-52684D01*
X106932Y-52687D01*
X106932Y-52696D01*
X106932Y-52700D01*
X106932Y-52254D01*
X106931Y-52249D01*
X106930Y-52247D01*
X106928Y-52247D01*
X106922Y-52247D01*
X106912Y-52247D01*
X106899Y-52247D01*
X106883Y-52246D01*
X106864Y-52246D01*
X106843Y-52246D01*
X106820Y-52246D01*
X106795Y-52246D01*
X106768Y-52246D01*
X106740Y-52246D01*
X106711Y-52246D01*
X106682Y-52246D01*
X106651Y-52246D01*
X106621Y-52246D01*
X106591Y-52246D01*
X106561Y-52246D01*
X106532Y-52246D01*
X106503Y-52246D01*
X106476Y-52246D01*
X106450Y-52246D01*
X106426Y-52246D01*
X106408Y-52246D01*
X106408Y-52119D01*
X106408Y-52109D01*
X106408Y-52102D01*
X106407Y-52098D01*
X106406Y-52097D01*
X106405Y-52097D01*
X106404Y-52097D01*
X106403Y-52100D01*
X106402Y-52104D01*
X106402Y-52112D01*
X106402Y-52119D01*
X106402Y-52128D01*
X106403Y-52135D01*
X106403Y-52140D01*
X106403Y-52142D01*
X106405Y-52143D01*
X106407Y-52141D01*
X106408Y-52135D01*
X106408Y-52126D01*
X106408Y-52119D01*
X106408Y-52246D01*
X106403Y-52246D01*
X106383Y-52247D01*
X106366Y-52247D01*
X106359Y-52247D01*
X106359Y-52178D01*
X106359Y-52160D01*
X106359Y-52152D01*
X106359Y-52146D01*
X106358Y-52142D01*
X106358Y-52141D01*
X106354Y-52143D01*
X106348Y-52146D01*
X106340Y-52150D01*
X106333Y-52155D01*
X106326Y-52160D01*
X106325Y-52162D01*
X106318Y-52168D01*
X106315Y-52173D01*
X106315Y-52176D01*
X106318Y-52177D01*
X106324Y-52178D01*
X106335Y-52178D01*
X106337Y-52178D01*
X106359Y-52178D01*
X106359Y-52247D01*
X106351Y-52247D01*
X106339Y-52247D01*
X106331Y-52247D01*
X106326Y-52248D01*
X106326Y-52248D01*
X106325Y-52250D01*
X106325Y-52256D01*
X106326Y-52265D01*
X106327Y-52276D01*
X106327Y-52285D01*
X106328Y-52298D01*
X106330Y-52310D01*
X106330Y-52320D01*
X106331Y-52328D01*
X106331Y-52332D01*
X106333Y-52345D01*
X106334Y-52356D01*
X106335Y-52363D01*
X106336Y-52369D01*
X106337Y-52373D01*
X106339Y-52376D01*
X106341Y-52378D01*
X106344Y-52381D01*
X106349Y-52387D01*
X106356Y-52395D01*
X106366Y-52405D01*
X106377Y-52416D01*
X106389Y-52429D01*
X106402Y-52443D01*
X106416Y-52457D01*
X106430Y-52471D01*
X106444Y-52486D01*
X106457Y-52500D01*
X106464Y-52506D01*
X106473Y-52516D01*
X106483Y-52526D01*
X106492Y-52536D01*
X106500Y-52544D01*
X106505Y-52549D01*
X106514Y-52558D01*
X106525Y-52569D01*
X106536Y-52581D01*
X106547Y-52592D01*
X106558Y-52604D01*
X106569Y-52616D01*
X106579Y-52626D01*
X106588Y-52635D01*
X106595Y-52643D01*
X106600Y-52648D01*
X106603Y-52651D01*
X106603Y-52652D01*
X106606Y-52654D01*
X106606Y-52655D01*
X106608Y-52653D01*
X106612Y-52649D01*
X106618Y-52644D01*
X106625Y-52637D01*
X106628Y-52633D01*
X106636Y-52625D01*
X106646Y-52615D01*
X106657Y-52603D01*
X106669Y-52591D01*
X106681Y-52579D01*
X106689Y-52571D01*
X106699Y-52561D01*
X106708Y-52551D01*
X106716Y-52543D01*
X106722Y-52536D01*
X106726Y-52532D01*
X106728Y-52530D01*
X106728Y-52530D01*
X106726Y-52529D01*
X106720Y-52529D01*
X106711Y-52529D01*
X106698Y-52528D01*
X106682Y-52528D01*
X106663Y-52528D01*
X106641Y-52527D01*
X106637Y-52527D01*
X106546Y-52527D01*
X106546Y-52485D01*
X106546Y-52443D01*
X106680Y-52442D01*
X106814Y-52442D01*
X106829Y-52427D01*
X106835Y-52421D01*
X106843Y-52413D01*
X106853Y-52403D01*
X106863Y-52392D01*
X106874Y-52382D01*
X106876Y-52379D01*
X106908Y-52347D01*
X106908Y-52313D01*
X106908Y-52300D01*
X106908Y-52291D01*
X106909Y-52285D01*
X106909Y-52281D01*
X106910Y-52279D01*
X106911Y-52278D01*
X106913Y-52277D01*
X106913Y-52277D01*
X106917Y-52277D01*
X106919Y-52277D01*
X106925Y-52277D01*
X106928Y-52276D01*
X106930Y-52272D01*
X106931Y-52265D01*
X106931Y-52263D01*
X106932Y-52254D01*
X106932Y-52700D01*
X106931Y-52706D01*
X106931Y-52714D01*
X106931Y-52714D01*
X106930Y-52722D01*
X106929Y-52731D01*
X106928Y-52741D01*
X106928Y-52741D01*
X106927Y-52750D01*
X106926Y-52758D01*
X106926Y-52763D01*
X106926Y-52764D01*
X106925Y-52769D01*
X106924Y-52776D01*
X106924Y-52785D01*
X106923Y-52792D01*
X106923Y-52801D01*
X106922Y-52810D01*
X106922Y-52817D01*
X106921Y-52819D01*
X106921Y-52824D01*
X106920Y-52832D01*
X106920Y-52839D01*
X106919Y-52844D01*
X106918Y-52853D01*
X106918Y-52865D01*
X106916Y-52878D01*
X106916Y-52884D01*
X106916Y-52429D01*
X106916Y-52426D01*
X106915Y-52425D01*
X106914Y-52424D01*
X106912Y-52424D01*
X106910Y-52423D01*
X106909Y-52421D01*
X106908Y-52416D01*
X106908Y-52414D01*
X106908Y-52409D01*
X106907Y-52406D01*
X106906Y-52405D01*
X106904Y-52407D01*
X106900Y-52411D01*
X106894Y-52417D01*
X106886Y-52425D01*
X106877Y-52434D01*
X106867Y-52444D01*
X106857Y-52454D01*
X106847Y-52464D01*
X106838Y-52474D01*
X106830Y-52483D01*
X106823Y-52491D01*
X106817Y-52497D01*
X106814Y-52501D01*
X106813Y-52502D01*
X106813Y-52507D01*
X106813Y-52513D01*
X106813Y-52515D01*
X106813Y-52520D01*
X106813Y-52525D01*
X106812Y-52525D01*
X106810Y-52527D01*
X106804Y-52528D01*
X106798Y-52528D01*
X106784Y-52529D01*
X106769Y-52545D01*
X106769Y-52486D01*
X106768Y-52486D01*
X106765Y-52485D01*
X106759Y-52485D01*
X106752Y-52484D01*
X106741Y-52484D01*
X106727Y-52484D01*
X106710Y-52484D01*
X106690Y-52483D01*
X106678Y-52483D01*
X106659Y-52483D01*
X106642Y-52483D01*
X106626Y-52483D01*
X106612Y-52483D01*
X106600Y-52483D01*
X106593Y-52484D01*
X106588Y-52484D01*
X106587Y-52484D01*
X106585Y-52486D01*
X106585Y-52487D01*
X106587Y-52487D01*
X106593Y-52488D01*
X106601Y-52488D01*
X106613Y-52489D01*
X106626Y-52489D01*
X106641Y-52489D01*
X106657Y-52489D01*
X106674Y-52489D01*
X106690Y-52489D01*
X106707Y-52489D01*
X106722Y-52489D01*
X106736Y-52488D01*
X106748Y-52488D01*
X106758Y-52488D01*
X106765Y-52487D01*
X106768Y-52487D01*
X106769Y-52486D01*
X106769Y-52545D01*
X106711Y-52604D01*
X106697Y-52619D01*
X106683Y-52633D01*
X106671Y-52645D01*
X106660Y-52657D01*
X106651Y-52666D01*
X106644Y-52674D01*
X106639Y-52680D01*
X106637Y-52683D01*
X106637Y-52683D01*
X106638Y-52686D01*
X106642Y-52691D01*
X106647Y-52697D01*
X106654Y-52705D01*
X106656Y-52707D01*
X106663Y-52714D01*
X106672Y-52723D01*
X106683Y-52735D01*
X106694Y-52747D01*
X106706Y-52759D01*
X106718Y-52771D01*
X106729Y-52783D01*
X106740Y-52794D01*
X106750Y-52805D01*
X106759Y-52814D01*
X106766Y-52821D01*
X106771Y-52826D01*
X106771Y-52826D01*
X106776Y-52831D01*
X106782Y-52838D01*
X106791Y-52846D01*
X106801Y-52857D01*
X106812Y-52868D01*
X106823Y-52880D01*
X106826Y-52883D01*
X106837Y-52894D01*
X106847Y-52905D01*
X106856Y-52913D01*
X106863Y-52921D01*
X106868Y-52926D01*
X106871Y-52928D01*
X106871Y-52929D01*
X106872Y-52927D01*
X106873Y-52922D01*
X106874Y-52917D01*
X106875Y-52906D01*
X106877Y-52892D01*
X106878Y-52878D01*
X106880Y-52864D01*
X106880Y-52852D01*
X106881Y-52843D01*
X106882Y-52832D01*
X106883Y-52821D01*
X106884Y-52816D01*
X106885Y-52805D01*
X106886Y-52794D01*
X106886Y-52785D01*
X106887Y-52781D01*
X106887Y-52775D01*
X106888Y-52765D01*
X106889Y-52753D01*
X106890Y-52741D01*
X106891Y-52733D01*
X106892Y-52721D01*
X106893Y-52708D01*
X106894Y-52697D01*
X106895Y-52689D01*
X106895Y-52685D01*
X106896Y-52676D01*
X106896Y-52668D01*
X106897Y-52663D01*
X106898Y-52657D01*
X106898Y-52649D01*
X106899Y-52638D01*
X106900Y-52627D01*
X106900Y-52627D01*
X106902Y-52607D01*
X106903Y-52585D01*
X106905Y-52561D01*
X106907Y-52538D01*
X106909Y-52515D01*
X106911Y-52495D01*
X106912Y-52483D01*
X106914Y-52466D01*
X106915Y-52452D01*
X106916Y-52442D01*
X106916Y-52435D01*
X106916Y-52429D01*
X106916Y-52884D01*
X106915Y-52894D01*
X106914Y-52909D01*
X106914Y-52910D01*
X106910Y-52967D01*
X106916Y-52975D01*
X106919Y-52977D01*
X106925Y-52983D01*
X106933Y-52991D01*
X106942Y-53001D01*
X106952Y-53011D01*
X106963Y-53022D01*
X106963Y-53023D01*
X106974Y-53034D01*
X106986Y-53046D01*
X106996Y-53057D01*
X107006Y-53067D01*
X107014Y-53075D01*
X107018Y-53080D01*
X107024Y-53086D01*
X107032Y-53094D01*
X107042Y-53104D01*
X107053Y-53115D01*
X107064Y-53127D01*
X107071Y-53134D01*
X107082Y-53145D01*
X107093Y-53157D01*
X107104Y-53168D01*
X107113Y-53178D01*
X107120Y-53186D01*
X107124Y-53189D01*
X107130Y-53195D01*
X107138Y-53204D01*
X107148Y-53214D01*
X107159Y-53226D01*
X107170Y-53238D01*
X107179Y-53247D01*
X107198Y-53266D01*
X107214Y-53283D01*
X107227Y-53297D01*
X107237Y-53308D01*
X107245Y-53316D01*
X107250Y-53322D01*
X107253Y-53325D01*
X107253Y-53325D01*
X107252Y-53328D01*
X107249Y-53332D01*
X107244Y-53337D01*
X107238Y-53342D01*
X107233Y-53347D01*
X107228Y-53351D01*
X107225Y-53353D01*
X107225Y-53353D01*
X107223Y-53351D01*
X107219Y-53348D01*
X107214Y-53342D01*
X107211Y-53339D01*
X107205Y-53333D01*
X107198Y-53326D01*
X107189Y-53316D01*
X107179Y-53306D01*
X107168Y-53295D01*
X107161Y-53287D01*
X107149Y-53276D01*
X107138Y-53264D01*
X107127Y-53252D01*
X107117Y-53242D01*
X107109Y-53234D01*
X107106Y-53230D01*
X107099Y-53223D01*
X107090Y-53214D01*
X107079Y-53202D01*
X107066Y-53189D01*
X107052Y-53174D01*
X107037Y-53159D01*
X107022Y-53143D01*
X107006Y-53127D01*
X106991Y-53111D01*
X106976Y-53096D01*
X106963Y-53082D01*
X106958Y-53077D01*
X106948Y-53067D01*
X106939Y-53057D01*
X106931Y-53049D01*
X106924Y-53041D01*
X106919Y-53036D01*
X106919Y-53036D01*
X106913Y-53030D01*
X106908Y-53026D01*
X106905Y-53026D01*
X106904Y-53030D01*
X106904Y-53032D01*
X106905Y-53037D01*
X106908Y-53040D01*
X106913Y-53044D01*
X106915Y-53045D01*
X106924Y-53051D01*
X106934Y-53060D01*
X106943Y-53069D01*
X106952Y-53079D01*
X106958Y-53088D01*
X106960Y-53091D01*
X106966Y-53103D01*
X106970Y-53113D01*
X106973Y-53121D01*
X106975Y-53130D01*
X106975Y-53140D01*
X106976Y-53153D01*
X106976Y-53154D01*
X106975Y-53173D01*
X106973Y-53188D01*
X106969Y-53201D01*
X106964Y-53212D01*
X106963Y-53214D01*
X106960Y-53220D01*
X106958Y-53224D01*
X106954Y-53231D01*
X106947Y-53238D01*
X106939Y-53247D01*
X106930Y-53255D01*
X106920Y-53263D01*
X106911Y-53270D01*
X106908Y-53271D01*
X106908Y-53157D01*
X106908Y-53150D01*
X106907Y-53143D01*
X106906Y-53140D01*
X106904Y-53134D01*
X106903Y-53130D01*
X106901Y-53126D01*
X106897Y-53120D01*
X106891Y-53113D01*
X106884Y-53107D01*
X106878Y-53102D01*
X106874Y-53100D01*
X106870Y-53098D01*
X106869Y-53098D01*
X106869Y-52988D01*
X106869Y-52987D01*
X106869Y-52985D01*
X106867Y-52984D01*
X106865Y-52981D01*
X106863Y-52978D01*
X106859Y-52974D01*
X106853Y-52968D01*
X106847Y-52961D01*
X106838Y-52952D01*
X106828Y-52942D01*
X106816Y-52929D01*
X106802Y-52914D01*
X106785Y-52897D01*
X106766Y-52877D01*
X106745Y-52855D01*
X106730Y-52840D01*
X106715Y-52824D01*
X106698Y-52807D01*
X106682Y-52790D01*
X106667Y-52775D01*
X106654Y-52761D01*
X106652Y-52758D01*
X106641Y-52747D01*
X106631Y-52737D01*
X106622Y-52728D01*
X106615Y-52721D01*
X106610Y-52716D01*
X106607Y-52714D01*
X106606Y-52714D01*
X106605Y-52715D01*
X106600Y-52719D01*
X106595Y-52726D01*
X106586Y-52734D01*
X106577Y-52743D01*
X106577Y-52683D01*
X106576Y-52681D01*
X106572Y-52676D01*
X106565Y-52669D01*
X106557Y-52660D01*
X106547Y-52649D01*
X106535Y-52637D01*
X106526Y-52627D01*
X106501Y-52601D01*
X106479Y-52578D01*
X106460Y-52558D01*
X106442Y-52540D01*
X106426Y-52524D01*
X106412Y-52509D01*
X106400Y-52496D01*
X106392Y-52488D01*
X106379Y-52474D01*
X106368Y-52463D01*
X106360Y-52455D01*
X106353Y-52448D01*
X106349Y-52444D01*
X106346Y-52441D01*
X106344Y-52439D01*
X106343Y-52438D01*
X106342Y-52438D01*
X106342Y-52440D01*
X106342Y-52446D01*
X106343Y-52454D01*
X106343Y-52463D01*
X106343Y-52463D01*
X106345Y-52483D01*
X106346Y-52499D01*
X106347Y-52512D01*
X106348Y-52523D01*
X106348Y-52530D01*
X106349Y-52536D01*
X106349Y-52541D01*
X106350Y-52545D01*
X106350Y-52546D01*
X106350Y-52552D01*
X106351Y-52560D01*
X106352Y-52571D01*
X106353Y-52582D01*
X106353Y-52583D01*
X106354Y-52595D01*
X106355Y-52606D01*
X106356Y-52616D01*
X106356Y-52623D01*
X106356Y-52623D01*
X106357Y-52638D01*
X106359Y-52652D01*
X106360Y-52665D01*
X106361Y-52676D01*
X106362Y-52685D01*
X106362Y-52690D01*
X106362Y-52691D01*
X106363Y-52695D01*
X106364Y-52704D01*
X106365Y-52715D01*
X106366Y-52727D01*
X106367Y-52742D01*
X106368Y-52756D01*
X106369Y-52764D01*
X106369Y-52772D01*
X106370Y-52780D01*
X106371Y-52784D01*
X106371Y-52789D01*
X106372Y-52797D01*
X106373Y-52806D01*
X106373Y-52809D01*
X106373Y-52819D01*
X106374Y-52830D01*
X106376Y-52840D01*
X106376Y-52841D01*
X106377Y-52851D01*
X106377Y-52862D01*
X106378Y-52869D01*
X106378Y-52877D01*
X106379Y-52883D01*
X106380Y-52885D01*
X106382Y-52886D01*
X106383Y-52884D01*
X106388Y-52880D01*
X106394Y-52874D01*
X106403Y-52865D01*
X106413Y-52855D01*
X106424Y-52844D01*
X106436Y-52831D01*
X106442Y-52825D01*
X106457Y-52810D01*
X106472Y-52794D01*
X106488Y-52778D01*
X106503Y-52762D01*
X106517Y-52748D01*
X106530Y-52735D01*
X106539Y-52726D01*
X106550Y-52715D01*
X106559Y-52705D01*
X106567Y-52696D01*
X106573Y-52690D01*
X106576Y-52685D01*
X106577Y-52683D01*
X106577Y-52743D01*
X106576Y-52744D01*
X106564Y-52756D01*
X106552Y-52769D01*
X106541Y-52780D01*
X106526Y-52795D01*
X106510Y-52811D01*
X106495Y-52827D01*
X106479Y-52843D01*
X106465Y-52858D01*
X106453Y-52870D01*
X106442Y-52881D01*
X106440Y-52884D01*
X106426Y-52898D01*
X106414Y-52910D01*
X106405Y-52919D01*
X106398Y-52927D01*
X106393Y-52932D01*
X106389Y-52937D01*
X106387Y-52940D01*
X106385Y-52943D01*
X106385Y-52945D01*
X106385Y-52948D01*
X106385Y-52950D01*
X106385Y-52951D01*
X106385Y-52956D01*
X106386Y-52965D01*
X106387Y-52975D01*
X106388Y-52986D01*
X106388Y-52987D01*
X106390Y-53012D01*
X106392Y-53038D01*
X106395Y-53066D01*
X106396Y-53081D01*
X106397Y-53091D01*
X106398Y-53102D01*
X106399Y-53111D01*
X106399Y-53115D01*
X106400Y-53123D01*
X106401Y-53134D01*
X106401Y-53142D01*
X106402Y-53150D01*
X106403Y-53157D01*
X106403Y-53161D01*
X106403Y-53161D01*
X106404Y-53162D01*
X106405Y-53162D01*
X106406Y-53163D01*
X106409Y-53163D01*
X106413Y-53164D01*
X106419Y-53164D01*
X106426Y-53164D01*
X106436Y-53164D01*
X106448Y-53164D01*
X106463Y-53164D01*
X106481Y-53165D01*
X106502Y-53165D01*
X106526Y-53165D01*
X106554Y-53165D01*
X106560Y-53165D01*
X106714Y-53165D01*
X106714Y-53146D01*
X106714Y-53137D01*
X106715Y-53130D01*
X106715Y-53126D01*
X106716Y-53125D01*
X106717Y-53122D01*
X106720Y-53116D01*
X106722Y-53110D01*
X106726Y-53100D01*
X106733Y-53089D01*
X106740Y-53078D01*
X106747Y-53069D01*
X106751Y-53064D01*
X106758Y-53058D01*
X106766Y-53052D01*
X106773Y-53047D01*
X106778Y-53043D01*
X106782Y-53040D01*
X106783Y-53040D01*
X106787Y-53039D01*
X106789Y-53038D01*
X106796Y-53035D01*
X106804Y-53032D01*
X106807Y-53031D01*
X106810Y-53030D01*
X106817Y-53029D01*
X106826Y-53028D01*
X106836Y-53028D01*
X106837Y-53028D01*
X106864Y-53027D01*
X106867Y-53009D01*
X106868Y-53001D01*
X106869Y-52993D01*
X106869Y-52988D01*
X106869Y-52988D01*
X106869Y-53098D01*
X106862Y-53096D01*
X106854Y-53095D01*
X106853Y-53095D01*
X106844Y-53095D01*
X106837Y-53095D01*
X106830Y-53097D01*
X106825Y-53098D01*
X106818Y-53101D01*
X106810Y-53105D01*
X106803Y-53110D01*
X106798Y-53114D01*
X106796Y-53118D01*
X106796Y-53118D01*
X106794Y-53121D01*
X106791Y-53125D01*
X106790Y-53127D01*
X106786Y-53132D01*
X106783Y-53140D01*
X106781Y-53148D01*
X106779Y-53155D01*
X106779Y-53162D01*
X106781Y-53165D01*
X106781Y-53166D01*
X106783Y-53169D01*
X106783Y-53171D01*
X106785Y-53174D01*
X106787Y-53180D01*
X106791Y-53187D01*
X106792Y-53188D01*
X106798Y-53197D01*
X106804Y-53203D01*
X106811Y-53208D01*
X106824Y-53214D01*
X106836Y-53217D01*
X106848Y-53217D01*
X106862Y-53214D01*
X106877Y-53208D01*
X106889Y-53200D01*
X106899Y-53189D01*
X106905Y-53176D01*
X106908Y-53161D01*
X106908Y-53157D01*
X106908Y-53271D01*
X106904Y-53273D01*
X106895Y-53278D01*
X106887Y-53281D01*
X106881Y-53283D01*
X106874Y-53284D01*
X106865Y-53285D01*
X106854Y-53285D01*
X106846Y-53285D01*
X106834Y-53285D01*
X106825Y-53285D01*
X106817Y-53284D01*
X106811Y-53283D01*
X106804Y-53281D01*
X106795Y-53278D01*
X106785Y-53274D01*
X106778Y-53270D01*
X106771Y-53265D01*
X106768Y-53262D01*
X106763Y-53258D01*
X106759Y-53255D01*
X106757Y-53255D01*
X106755Y-53253D01*
X106751Y-53249D01*
X106750Y-53248D01*
X106746Y-53243D01*
X106741Y-53236D01*
X106739Y-53235D01*
X106734Y-53228D01*
X106729Y-53220D01*
X106728Y-53218D01*
X106725Y-53212D01*
X106720Y-53209D01*
X106720Y-53209D01*
X106717Y-53208D01*
X106710Y-53208D01*
X106700Y-53208D01*
X106687Y-53208D01*
X106672Y-53208D01*
X106654Y-53208D01*
X106635Y-53208D01*
X106614Y-53208D01*
X106592Y-53208D01*
X106469Y-53209D01*
X106468Y-53252D01*
X106467Y-53294D01*
X106429Y-53294D01*
X106429Y-53230D01*
X106429Y-53221D01*
X106428Y-53214D01*
X106427Y-53210D01*
X106427Y-53210D01*
X106426Y-53212D01*
X106425Y-53217D01*
X106425Y-53225D01*
X106425Y-53230D01*
X106425Y-53240D01*
X106425Y-53246D01*
X106426Y-53250D01*
X106427Y-53250D01*
X106428Y-53248D01*
X106428Y-53243D01*
X106429Y-53235D01*
X106429Y-53230D01*
X106429Y-53294D01*
X106427Y-53294D01*
X106387Y-53294D01*
X106386Y-53251D01*
X106385Y-53208D01*
X106377Y-53201D01*
X106372Y-53197D01*
X106370Y-53193D01*
X106370Y-53189D01*
X106370Y-53188D01*
X106370Y-53184D01*
X106370Y-53177D01*
X106369Y-53167D01*
X106369Y-53155D01*
X106367Y-53141D01*
X106366Y-53126D01*
X106365Y-53111D01*
X106364Y-53096D01*
X106362Y-53082D01*
X106361Y-53075D01*
X106360Y-53065D01*
X106359Y-53052D01*
X106358Y-53039D01*
X106357Y-53029D01*
X106356Y-53011D01*
X106355Y-52997D01*
X106353Y-52986D01*
X106353Y-52980D01*
X106352Y-52977D01*
X106352Y-52977D01*
X106351Y-52977D01*
X106348Y-52980D01*
X106343Y-52984D01*
X106336Y-52991D01*
X106327Y-53000D01*
X106316Y-53011D01*
X106303Y-53025D01*
X106287Y-53041D01*
X106268Y-53060D01*
X106250Y-53079D01*
X106213Y-53116D01*
X106179Y-53151D01*
X106148Y-53184D01*
X106119Y-53213D01*
X106093Y-53240D01*
X106070Y-53264D01*
X106049Y-53285D01*
X106031Y-53303D01*
X106016Y-53319D01*
X106003Y-53331D01*
X105994Y-53341D01*
X105987Y-53348D01*
X105983Y-53352D01*
X105981Y-53353D01*
X105979Y-53351D01*
X105975Y-53348D01*
X105969Y-53343D01*
X105967Y-53341D01*
X105961Y-53335D01*
X105957Y-53330D01*
X105955Y-53326D01*
X105954Y-53326D01*
X105956Y-53323D01*
X105960Y-53318D01*
X105967Y-53310D01*
X105977Y-53300D01*
X105989Y-53287D01*
X106004Y-53272D01*
X106021Y-53254D01*
X106041Y-53234D01*
X106063Y-53212D01*
X106068Y-53207D01*
X106075Y-53200D01*
X106084Y-53190D01*
X106094Y-53180D01*
X106104Y-53169D01*
X106111Y-53162D01*
X106119Y-53154D01*
X106130Y-53142D01*
X106143Y-53129D01*
X106158Y-53113D01*
X106174Y-53097D01*
X106192Y-53079D01*
X106209Y-53061D01*
X106227Y-53043D01*
X106245Y-53024D01*
X106262Y-53007D01*
X106278Y-52990D01*
X106293Y-52975D01*
X106306Y-52963D01*
X106311Y-52958D01*
X106347Y-52921D01*
X106346Y-52900D01*
X106345Y-52888D01*
X106344Y-52875D01*
X106343Y-52864D01*
X106343Y-52860D01*
X106342Y-52854D01*
X106341Y-52844D01*
X106340Y-52831D01*
X106339Y-52816D01*
X106337Y-52800D01*
X106336Y-52782D01*
X106334Y-52764D01*
X106333Y-52746D01*
X106331Y-52729D01*
X106330Y-52713D01*
X106329Y-52700D01*
X106328Y-52689D01*
X106327Y-52681D01*
X106327Y-52673D01*
X106326Y-52665D01*
X106325Y-52660D01*
X106325Y-52660D01*
X106325Y-52655D01*
X106324Y-52646D01*
X106323Y-52635D01*
X106322Y-52623D01*
X106320Y-52610D01*
X106319Y-52596D01*
X106319Y-52595D01*
X106319Y-52586D01*
X106318Y-52578D01*
X106317Y-52572D01*
X106316Y-52565D01*
X106316Y-52557D01*
X106315Y-52549D01*
X106315Y-52542D01*
X106314Y-52533D01*
X106313Y-52522D01*
X106312Y-52509D01*
X106310Y-52493D01*
X106308Y-52473D01*
X106308Y-52470D01*
X106307Y-52459D01*
X106306Y-52446D01*
X106305Y-52432D01*
X106304Y-52424D01*
X106303Y-52414D01*
X106302Y-52405D01*
X106301Y-52399D01*
X106300Y-52396D01*
X106300Y-52396D01*
X106298Y-52393D01*
X106294Y-52389D01*
X106287Y-52381D01*
X106279Y-52372D01*
X106268Y-52361D01*
X106256Y-52349D01*
X106243Y-52335D01*
X106230Y-52321D01*
X106216Y-52306D01*
X106201Y-52291D01*
X106189Y-52278D01*
X106177Y-52267D01*
X106166Y-52255D01*
X106156Y-52245D01*
X106147Y-52236D01*
X106141Y-52229D01*
X106136Y-52224D01*
X106135Y-52223D01*
X106131Y-52219D01*
X106125Y-52212D01*
X106116Y-52203D01*
X106106Y-52193D01*
X106096Y-52182D01*
X106084Y-52170D01*
X106083Y-52169D01*
X106070Y-52156D01*
X106056Y-52141D01*
X106042Y-52127D01*
X106029Y-52113D01*
X106017Y-52100D01*
X106009Y-52092D01*
X105999Y-52081D01*
X105988Y-52070D01*
X105978Y-52059D01*
X105968Y-52050D01*
X105961Y-52043D01*
X105960Y-52041D01*
X105952Y-52034D01*
X105945Y-52026D01*
X105938Y-52019D01*
X105935Y-52015D01*
X105927Y-52006D01*
X105941Y-51993D01*
X105947Y-51987D01*
X105952Y-51983D01*
X105955Y-51980D01*
X105956Y-51980D01*
X105958Y-51981D01*
X105962Y-51985D01*
X105969Y-51992D01*
X105977Y-52000D01*
X105986Y-52009D01*
X105994Y-52017D01*
X106006Y-52030D01*
X106019Y-52044D01*
X106034Y-52059D01*
X106049Y-52074D01*
X106063Y-52089D01*
X106069Y-52095D01*
X106080Y-52107D01*
X106092Y-52118D01*
X106102Y-52129D01*
X106111Y-52139D01*
X106119Y-52147D01*
X106123Y-52152D01*
X106129Y-52157D01*
X106136Y-52165D01*
X106146Y-52175D01*
X106156Y-52186D01*
X106167Y-52197D01*
X106177Y-52208D01*
X106189Y-52219D01*
X106200Y-52231D01*
X106210Y-52241D01*
X106219Y-52251D01*
X106226Y-52258D01*
X106231Y-52263D01*
X106244Y-52277D01*
X106255Y-52289D01*
X106266Y-52300D01*
X106276Y-52310D01*
X106284Y-52318D01*
X106290Y-52324D01*
X106293Y-52327D01*
X106294Y-52328D01*
X106295Y-52326D01*
X106295Y-52321D01*
X106295Y-52320D01*
X106295Y-52315D01*
X106294Y-52307D01*
X106293Y-52297D01*
X106293Y-52289D01*
X106292Y-52279D01*
X106291Y-52271D01*
X106290Y-52265D01*
X106289Y-52263D01*
X106288Y-52259D01*
X106289Y-52257D01*
X106289Y-52253D01*
X106288Y-52250D01*
X106287Y-52248D01*
X106285Y-52247D01*
X106282Y-52246D01*
X106277Y-52246D01*
X106269Y-52246D01*
X106258Y-52246D01*
X106256Y-52246D01*
X106226Y-52246D01*
X106226Y-52212D01*
X106226Y-52178D01*
X106250Y-52178D01*
X106274Y-52177D01*
X106276Y-52168D01*
X106277Y-52161D01*
X106279Y-52155D01*
X106279Y-52154D01*
X106283Y-52149D01*
X106289Y-52142D01*
X106296Y-52135D01*
X106304Y-52129D01*
X106311Y-52123D01*
X106318Y-52118D01*
X106323Y-52115D01*
X106325Y-52115D01*
X106329Y-52114D01*
X106332Y-52111D01*
X106336Y-52108D01*
X106339Y-52107D01*
X106343Y-52106D01*
X106349Y-52104D01*
X106351Y-52103D01*
X106359Y-52099D01*
X106359Y-52078D01*
X106359Y-52058D01*
X106405Y-52058D01*
X106451Y-52058D01*
X106451Y-52066D01*
X106451Y-52075D01*
X106464Y-52073D01*
X106472Y-52072D01*
X106479Y-52071D01*
X106483Y-52070D01*
X106487Y-52069D01*
X106495Y-52068D01*
X106504Y-52067D01*
X106515Y-52066D01*
X106518Y-52066D01*
X106528Y-52065D01*
X106537Y-52064D01*
X106544Y-52062D01*
X106548Y-52061D01*
X106549Y-52061D01*
X106551Y-52057D01*
X106551Y-52050D01*
X106551Y-52048D01*
X106550Y-52036D01*
X106653Y-52036D01*
X106756Y-52036D01*
X106757Y-52051D01*
X106758Y-52066D01*
X106767Y-52069D01*
X106773Y-52071D01*
X106782Y-52072D01*
X106791Y-52074D01*
X106793Y-52074D01*
X106804Y-52076D01*
X106816Y-52078D01*
X106829Y-52081D01*
X106843Y-52084D01*
X106856Y-52087D01*
X106868Y-52090D01*
X106877Y-52093D01*
X106884Y-52096D01*
X106886Y-52097D01*
X106891Y-52098D01*
X106893Y-52099D01*
X106897Y-52099D01*
X106902Y-52102D01*
X106905Y-52103D01*
X106910Y-52105D01*
X106915Y-52107D01*
X106916Y-52107D01*
X106920Y-52108D01*
X106923Y-52111D01*
X106927Y-52114D01*
X106929Y-52115D01*
X106932Y-52116D01*
X106936Y-52119D01*
X106940Y-52121D01*
X106949Y-52127D01*
X106963Y-52121D01*
X106978Y-52115D01*
X106992Y-52113D01*
X107006Y-52115D01*
X107013Y-52117D01*
X107025Y-52124D01*
X107034Y-52132D01*
X107041Y-52142D01*
X107043Y-52145D01*
X107047Y-52155D01*
X107049Y-52164D01*
X107048Y-52174D01*
X107045Y-52185D01*
X107043Y-52190D01*
X107039Y-52199D01*
X107036Y-52204D01*
X107032Y-52208D01*
X107027Y-52212D01*
X107027Y-52212D01*
X107020Y-52217D01*
X107017Y-52222D01*
X107017Y-52228D01*
X107017Y-52229D01*
X107019Y-52229D01*
X107021Y-52227D01*
X107026Y-52223D01*
X107033Y-52217D01*
X107042Y-52207D01*
X107043Y-52207D01*
X107049Y-52199D01*
X107059Y-52190D01*
X107070Y-52178D01*
X107083Y-52165D01*
X107096Y-52151D01*
X107110Y-52137D01*
X107124Y-52123D01*
X107138Y-52109D01*
X107152Y-52095D01*
X107165Y-52081D01*
X107178Y-52068D01*
X107189Y-52056D01*
X107199Y-52047D01*
X107206Y-52039D01*
X107220Y-52024D01*
X107233Y-52011D01*
X107244Y-51999D01*
X107253Y-51991D01*
X107260Y-51984D01*
X107264Y-51981D01*
X107265Y-51980D01*
X107268Y-51981D01*
X107272Y-51985D01*
X107277Y-51990D01*
X107282Y-51996D01*
X107287Y-52001D01*
X107291Y-52006D01*
X107292Y-52008D01*
X107292Y-52008D01*
X107292Y-52008D01*
X107292Y-52008D01*
G37*
G36*
X106888Y-53155D02*
X106887Y-53162D01*
X106886Y-53168D01*
X106884Y-53173D01*
X106880Y-53180D01*
X106874Y-53189D01*
X106868Y-53193D01*
X106865Y-53195D01*
X106859Y-53196D01*
X106851Y-53197D01*
X106848Y-53197D01*
X106848Y-53155D01*
X106846Y-53153D01*
X106843Y-53153D01*
X106842Y-53154D01*
X106841Y-53157D01*
X106843Y-53160D01*
X106845Y-53161D01*
X106847Y-53159D01*
X106848Y-53158D01*
X106848Y-53155D01*
X106848Y-53197D01*
X106842Y-53197D01*
X106833Y-53197D01*
X106827Y-53196D01*
X106818Y-53192D01*
X106811Y-53184D01*
X106807Y-53174D01*
X106804Y-53161D01*
X106804Y-53155D01*
X106804Y-53147D01*
X106805Y-53141D01*
X106807Y-53136D01*
X106811Y-53131D01*
X106819Y-53121D01*
X106828Y-53116D01*
X106840Y-53113D01*
X106846Y-53113D01*
X106857Y-53114D01*
X106866Y-53117D01*
X106874Y-53123D01*
X106880Y-53131D01*
X106884Y-53137D01*
X106887Y-53142D01*
X106887Y-53147D01*
X106888Y-53155D01*
X106888Y-53155D01*
X106888Y-53155D01*
G37*
M02*
