M48
METRIC,TZ
T1C0.635
T2C0.813
T3C1.001
T4C3.000
%
G90
G05
T1
X216292Y-119501
X218440Y-124599
X220803Y-121046
X223266Y-127618
X231835Y-125182
X235646Y-123363
X237394Y-126480
X238137Y-122463
X238944Y-120103
X240417Y-120212
X240775Y-131280
X240776Y-130002
X240801Y-125239
X240876Y-127162
X243063Y-123813
X244540Y-120834
X244615Y-123829
X245559Y-125782
X245954Y-123814
X245973Y-136594
X248032Y-124805
X249043Y-128084
X249264Y-123819
X252567Y-131018
X253018Y-126480
X253606Y-125213
X253843Y-130351
X255645Y-130360
X256788Y-123381
X262318Y-133946
X266449Y-123167
T2
X253365Y-118936
X253365Y-121476
T3
X221615Y-116650
X221615Y-139510
X224155Y-116650
X224155Y-139510
X226695Y-116650
X226695Y-139510
X229235Y-116650
X229235Y-139510
X231775Y-116650
X231775Y-139510
X234315Y-116650
X234315Y-139510
X236855Y-116650
X236855Y-139510
X239395Y-116650
X239395Y-139510
X241935Y-116650
X241935Y-139510
X244475Y-116650
X244475Y-139510
X247015Y-116650
X247015Y-139510
X249555Y-116650
X249555Y-139510
X252095Y-116650
X252095Y-139510
X254635Y-116650
X254635Y-139510
X257175Y-116650
X257175Y-139510
X259715Y-116650
X259715Y-139510
X262255Y-116650
X262255Y-139510
X264795Y-116650
X264795Y-139510
X264858Y-121730
X264858Y-124270
X264858Y-126810
X264858Y-129350
X264858Y-131890
X264858Y-134430
T4
X215646Y-116650
X215646Y-139510
X270764Y-116650
X270764Y-139510
T0
M30
