G04 (created by PCBNEW (2013-06-10 BZR 4207)-testing) date jeu. 11 juil. 2013 12:19:06 CEST*
%MOIN*%
G04 Gerber Fmt 3.4, Leading zero omitted, Abs format*
%FSLAX34Y34*%
G01*
G70*
G90*
G04 APERTURE LIST*
%ADD10C,0.005906*%
%ADD11O,0.060000X0.086600*%
%ADD12R,0.086600X0.060000*%
%ADD13O,0.086600X0.060000*%
%ADD14C,0.118100*%
%ADD15C,0.050000*%
%ADD16C,0.035000*%
%ADD17C,0.010000*%
G04 APERTURE END LIST*
G54D10*
G54D11*
X87250Y-54925D03*
X88250Y-54925D03*
X89250Y-54925D03*
X90250Y-54925D03*
X91250Y-54925D03*
X92250Y-54925D03*
X93250Y-54925D03*
X94250Y-54925D03*
X95250Y-54925D03*
X96250Y-54925D03*
X97250Y-54925D03*
X98250Y-54925D03*
X99250Y-54925D03*
X100250Y-54925D03*
X101250Y-54925D03*
X102250Y-54925D03*
X103250Y-54925D03*
X104250Y-54925D03*
X104250Y-45925D03*
X103250Y-45925D03*
X102250Y-45925D03*
X101250Y-45925D03*
X100250Y-45925D03*
X99250Y-45925D03*
X98250Y-45925D03*
X97250Y-45925D03*
X96250Y-45925D03*
X95250Y-45925D03*
X94250Y-45925D03*
X93250Y-45925D03*
X92250Y-45925D03*
X91250Y-45925D03*
X90250Y-45925D03*
X89250Y-45925D03*
X88250Y-45925D03*
X87250Y-45925D03*
G54D12*
X104274Y-52925D03*
G54D13*
X104274Y-51925D03*
X104274Y-50925D03*
X104274Y-49925D03*
X104274Y-48925D03*
X104274Y-47925D03*
G54D14*
X84900Y-45925D03*
X84900Y-54925D03*
X106600Y-45925D03*
X106600Y-54925D03*
G54D15*
X99750Y-47825D03*
X99750Y-46825D03*
G54D16*
X99435Y-51581D03*
X99938Y-51319D03*
X100647Y-51322D03*
X101097Y-48575D03*
X99845Y-49296D03*
X99613Y-49795D03*
X103274Y-52734D03*
X94793Y-51182D03*
X94793Y-51685D03*
X98135Y-48747D03*
X97650Y-49135D03*
X96676Y-49520D03*
X96832Y-48745D03*
X96275Y-47572D03*
X96305Y-48751D03*
X94652Y-47327D03*
X93754Y-48213D03*
X94803Y-49306D03*
X93462Y-49795D03*
X94833Y-50063D03*
X96839Y-53777D03*
X86930Y-47655D03*
X85999Y-49054D03*
X95694Y-48745D03*
X87900Y-50243D03*
X98048Y-50426D03*
X92774Y-48567D03*
X94072Y-47284D03*
X104901Y-48491D03*
X91273Y-49284D03*
X85154Y-47047D03*
G54D17*
X102250Y-54925D02*
X102250Y-54292D01*
X99539Y-51581D02*
X99435Y-51581D01*
X102250Y-54292D02*
X99539Y-51581D01*
X102911Y-54292D02*
X103250Y-54292D01*
X99938Y-51319D02*
X102911Y-54292D01*
X103250Y-54925D02*
X103250Y-54292D01*
X104250Y-54925D02*
X100647Y-51322D01*
X95250Y-54925D02*
X95250Y-54292D01*
X99098Y-50443D02*
X95250Y-54292D01*
X102756Y-50443D02*
X99098Y-50443D01*
X104274Y-48925D02*
X102756Y-50443D01*
X96250Y-54925D02*
X96250Y-54292D01*
X96250Y-53817D02*
X96250Y-54292D01*
X99373Y-50693D02*
X96250Y-53817D01*
X103506Y-50693D02*
X99373Y-50693D01*
X104274Y-49925D02*
X103506Y-50693D01*
X100376Y-49296D02*
X101097Y-48575D01*
X99845Y-49296D02*
X100376Y-49296D01*
X100450Y-49795D02*
X99613Y-49795D01*
X103083Y-47162D02*
X100450Y-49795D01*
X104745Y-47162D02*
X103083Y-47162D01*
X105276Y-47693D02*
X104745Y-47162D01*
X105276Y-52953D02*
X105276Y-47693D01*
X104802Y-53428D02*
X105276Y-52953D01*
X103751Y-53428D02*
X104802Y-53428D01*
X103274Y-52951D02*
X103751Y-53428D01*
X103274Y-52734D02*
X103274Y-52951D01*
X92993Y-51182D02*
X94793Y-51182D01*
X89250Y-54925D02*
X92993Y-51182D01*
X94490Y-51685D02*
X94793Y-51685D01*
X91250Y-54925D02*
X94490Y-51685D01*
X99557Y-47325D02*
X98135Y-48747D01*
X100850Y-47325D02*
X99557Y-47325D01*
X102250Y-45925D02*
X100850Y-47325D01*
X97650Y-46524D02*
X97650Y-49135D01*
X98250Y-45925D02*
X97650Y-46524D01*
X97250Y-48947D02*
X96676Y-49520D01*
X97250Y-45925D02*
X97250Y-48947D01*
X96832Y-46507D02*
X96832Y-48745D01*
X96250Y-45925D02*
X96832Y-46507D01*
X95250Y-45925D02*
X95250Y-46558D01*
X95261Y-46558D02*
X96275Y-47572D01*
X95250Y-46558D02*
X95261Y-46558D01*
X94418Y-46558D02*
X94250Y-46558D01*
X96305Y-48445D02*
X94418Y-46558D01*
X96305Y-48751D02*
X96305Y-48445D01*
X94250Y-45925D02*
X94250Y-46558D01*
X94652Y-47327D02*
X93250Y-45925D01*
X92250Y-45925D02*
X92250Y-46558D01*
X93754Y-48063D02*
X93754Y-48213D01*
X92250Y-46558D02*
X93754Y-48063D01*
X94315Y-49306D02*
X94803Y-49306D01*
X91566Y-46558D02*
X94315Y-49306D01*
X91250Y-46558D02*
X91566Y-46558D01*
X91250Y-45925D02*
X91250Y-46558D01*
X90250Y-45925D02*
X90250Y-46558D01*
X90250Y-46582D02*
X93462Y-49795D01*
X90250Y-46558D02*
X90250Y-46582D01*
X89250Y-45925D02*
X89250Y-46558D01*
X92864Y-50173D02*
X89250Y-46558D01*
X94723Y-50173D02*
X92864Y-50173D01*
X94833Y-50063D02*
X94723Y-50173D01*
X96839Y-53628D02*
X96839Y-53777D01*
X99524Y-50944D02*
X96839Y-53628D01*
X102293Y-50944D02*
X99524Y-50944D01*
X104274Y-52925D02*
X102293Y-50944D01*
X86744Y-47470D02*
X86930Y-47655D01*
X86744Y-45576D02*
X86744Y-47470D01*
X87034Y-45287D02*
X86744Y-45576D01*
X98611Y-45287D02*
X87034Y-45287D01*
X99250Y-45925D02*
X98611Y-45287D01*
X86930Y-48124D02*
X86930Y-47655D01*
X85999Y-49054D02*
X86930Y-48124D01*
X104759Y-46340D02*
X104522Y-46577D01*
X104759Y-45585D02*
X104759Y-46340D01*
X104461Y-45287D02*
X104759Y-45585D01*
X100888Y-45287D02*
X104461Y-45287D01*
X100250Y-45925D02*
X100888Y-45287D01*
X102092Y-46577D02*
X104522Y-46577D01*
X99916Y-48752D02*
X102092Y-46577D01*
X99354Y-48752D02*
X99916Y-48752D01*
X98201Y-49905D02*
X99354Y-48752D01*
X96519Y-49905D02*
X98201Y-49905D01*
X95694Y-49079D02*
X96519Y-49905D01*
X95694Y-48745D02*
X95694Y-49079D01*
X105526Y-47580D02*
X104522Y-46577D01*
X105526Y-54493D02*
X105526Y-47580D01*
X104454Y-55565D02*
X105526Y-54493D01*
X87043Y-55565D02*
X104454Y-55565D01*
X86747Y-55269D02*
X87043Y-55565D01*
X86747Y-51396D02*
X86747Y-55269D01*
X87900Y-50243D02*
X86747Y-51396D01*
X95950Y-50426D02*
X95205Y-49681D01*
X98048Y-50426D02*
X95950Y-50426D01*
X93887Y-49681D02*
X92774Y-48567D01*
X95205Y-49681D02*
X93887Y-49681D01*
X95205Y-48417D02*
X94072Y-47284D01*
X95205Y-49681D02*
X95205Y-48417D01*
X104910Y-48491D02*
X104901Y-48491D01*
X104910Y-51289D02*
X104910Y-48491D01*
X104274Y-51925D02*
X104910Y-51289D01*
X98281Y-50193D02*
X98048Y-50426D01*
X100691Y-50193D02*
X98281Y-50193D01*
X103471Y-47412D02*
X100691Y-50193D01*
X104628Y-47412D02*
X103471Y-47412D01*
X104910Y-47694D02*
X104628Y-47412D01*
X104910Y-48491D02*
X104910Y-47694D01*
X88250Y-45925D02*
X88250Y-46558D01*
X91273Y-49284D02*
X88281Y-49284D01*
X88281Y-46589D02*
X88250Y-46558D01*
X88281Y-49284D02*
X88281Y-46589D01*
X88250Y-54925D02*
X88250Y-54292D01*
X85154Y-49165D02*
X85154Y-47047D01*
X85944Y-49955D02*
X85154Y-49165D01*
X86303Y-49955D02*
X85944Y-49955D01*
X86401Y-49856D02*
X86303Y-49955D01*
X88281Y-49856D02*
X86401Y-49856D01*
X88281Y-49284D02*
X88281Y-49856D01*
X88281Y-54260D02*
X88250Y-54292D01*
X88281Y-49856D02*
X88281Y-54260D01*
M02*
