G04 (created by PCBNEW (2013-06-10 BZR 4207)-testing) date jeu. 11 juil. 2013 12:19:06 CEST*
%MOIN*%
G04 Gerber Fmt 3.4, Leading zero omitted, Abs format*
%FSLAX34Y34*%
G01*
G70*
G90*
G04 APERTURE LIST*
%ADD10C,0.005906*%
%ADD11O,0.060000X0.086600*%
%ADD12R,0.045000X0.025000*%
%ADD13R,0.031400X0.031400*%
%ADD14R,0.051200X0.021700*%
%ADD15R,0.021700X0.051200*%
%ADD16R,0.025000X0.045000*%
%ADD17R,0.039400X0.039400*%
%ADD18R,0.090600X0.019700*%
%ADD19R,0.098400X0.078700*%
%ADD20R,0.063000X0.086600*%
%ADD21R,0.078700X0.216500*%
%ADD22R,0.086600X0.060000*%
%ADD23O,0.086600X0.060000*%
%ADD24R,0.070900X0.051200*%
%ADD25R,0.070900X0.149600*%
%ADD26R,0.039400X0.031500*%
%ADD27C,0.118100*%
%ADD28C,0.050000*%
%ADD29R,0.055000X0.035000*%
%ADD30C,0.035000*%
%ADD31C,0.010000*%
%ADD32C,0.008000*%
G04 APERTURE END LIST*
G54D10*
G54D11*
X87250Y-54925D03*
X88250Y-54925D03*
X89250Y-54925D03*
X90250Y-54925D03*
X91250Y-54925D03*
X92250Y-54925D03*
X93250Y-54925D03*
X94250Y-54925D03*
X95250Y-54925D03*
X96250Y-54925D03*
X97250Y-54925D03*
X98250Y-54925D03*
X99250Y-54925D03*
X100250Y-54925D03*
X101250Y-54925D03*
X102250Y-54925D03*
X103250Y-54925D03*
X104250Y-54925D03*
X104250Y-45925D03*
X103250Y-45925D03*
X102250Y-45925D03*
X101250Y-45925D03*
X100250Y-45925D03*
X99250Y-45925D03*
X98250Y-45925D03*
X97250Y-45925D03*
X96250Y-45925D03*
X95250Y-45925D03*
X94250Y-45925D03*
X93250Y-45925D03*
X92250Y-45925D03*
X91250Y-45925D03*
X90250Y-45925D03*
X89250Y-45925D03*
X88250Y-45925D03*
X87250Y-45925D03*
G54D12*
X103274Y-52274D03*
X103274Y-51674D03*
X103274Y-48574D03*
X103274Y-49174D03*
X100400Y-49974D03*
X100400Y-50574D03*
X93325Y-50300D03*
X93325Y-50900D03*
G54D13*
X84550Y-47620D03*
X84550Y-47030D03*
G54D14*
X94210Y-49795D03*
X94210Y-50110D03*
X94210Y-50425D03*
X94210Y-50740D03*
X94210Y-51055D03*
X94210Y-48850D03*
X94210Y-49165D03*
X94210Y-49480D03*
G54D15*
X94899Y-52689D03*
X95214Y-52689D03*
X95529Y-52689D03*
X95844Y-52689D03*
X96159Y-52689D03*
X96474Y-52689D03*
X96789Y-52689D03*
X97104Y-52689D03*
G54D14*
X98738Y-52000D03*
X98738Y-51685D03*
X98738Y-51370D03*
X98738Y-51055D03*
X98738Y-50740D03*
X98738Y-50425D03*
X98738Y-50110D03*
X98738Y-49795D03*
G54D15*
X98049Y-48161D03*
X97734Y-48161D03*
X97419Y-48161D03*
X97104Y-48161D03*
X96789Y-48161D03*
X96474Y-48161D03*
X96159Y-48161D03*
X95844Y-48161D03*
G54D14*
X94210Y-51370D03*
X94210Y-51685D03*
X94210Y-52000D03*
G54D15*
X97419Y-52689D03*
X97734Y-52689D03*
X98049Y-52689D03*
G54D14*
X98738Y-49480D03*
X98738Y-49165D03*
X98738Y-48850D03*
G54D15*
X95529Y-48161D03*
X95214Y-48161D03*
X94899Y-48161D03*
G54D13*
X84525Y-53230D03*
X84525Y-53820D03*
G54D12*
X86050Y-47625D03*
X86050Y-47025D03*
G54D16*
X106450Y-52650D03*
X107050Y-52650D03*
X106450Y-48200D03*
X107050Y-48200D03*
G54D17*
X106750Y-49008D03*
X106750Y-51842D03*
G54D18*
X87108Y-49795D03*
X87108Y-50110D03*
X87108Y-50425D03*
X87108Y-50740D03*
X87108Y-51055D03*
G54D19*
X87069Y-48673D03*
X84904Y-48673D03*
X87069Y-52177D03*
X84904Y-52177D03*
G54D12*
X87425Y-53225D03*
X87425Y-53825D03*
G54D20*
X88852Y-49000D03*
X90348Y-49000D03*
G54D21*
X101825Y-48575D03*
X101825Y-52275D03*
G54D12*
X97100Y-47425D03*
X97100Y-46825D03*
X91274Y-53825D03*
X91274Y-53225D03*
G54D20*
X88852Y-47325D03*
X90348Y-47325D03*
G54D12*
X93325Y-48700D03*
X93325Y-49300D03*
X86100Y-53825D03*
X86100Y-53225D03*
G54D22*
X104274Y-52925D03*
G54D23*
X104274Y-51925D03*
X104274Y-50925D03*
X104274Y-49925D03*
X104274Y-48925D03*
X104274Y-47925D03*
G54D24*
X90955Y-52231D03*
X90955Y-51325D03*
X90955Y-50419D03*
G54D25*
X88593Y-51325D03*
G54D20*
X90348Y-53525D03*
X88852Y-53525D03*
G54D26*
X92141Y-47325D03*
X93007Y-46950D03*
X93007Y-47700D03*
G54D27*
X84900Y-45925D03*
X84900Y-54925D03*
X106600Y-45925D03*
X106600Y-54925D03*
G54D12*
X100400Y-48725D03*
X100400Y-49325D03*
X98250Y-47425D03*
X98250Y-46825D03*
G54D28*
X99750Y-47825D03*
X99750Y-46825D03*
G54D29*
X100400Y-53200D03*
X100400Y-52450D03*
X92150Y-51325D03*
X92150Y-50575D03*
X92150Y-48625D03*
X92150Y-49375D03*
G54D30*
X99435Y-51581D03*
X99938Y-51319D03*
X100647Y-51322D03*
X101097Y-48575D03*
X99845Y-49296D03*
X99613Y-49795D03*
X103274Y-52734D03*
X94793Y-51182D03*
X94793Y-51685D03*
X98135Y-48747D03*
X97650Y-49135D03*
X96676Y-49520D03*
X96832Y-48745D03*
X96275Y-47572D03*
X96305Y-48751D03*
X94652Y-47327D03*
X93754Y-48213D03*
X94803Y-49306D03*
X93462Y-49795D03*
X94833Y-50063D03*
X96839Y-53777D03*
X86930Y-47655D03*
X85999Y-49054D03*
X95694Y-48745D03*
X87900Y-50243D03*
X98048Y-50426D03*
X92774Y-48567D03*
X94072Y-47284D03*
X104901Y-48491D03*
X91273Y-49284D03*
X85154Y-47047D03*
G54D31*
X97104Y-52689D02*
X97104Y-53145D01*
X97250Y-54925D02*
X97250Y-54292D01*
X97250Y-53652D02*
X97250Y-54292D01*
X97104Y-53507D02*
X97250Y-53652D01*
X97104Y-53145D02*
X97104Y-53507D01*
X97419Y-53461D02*
X98250Y-54292D01*
X97419Y-52689D02*
X97419Y-53461D01*
X98250Y-54925D02*
X98250Y-54292D01*
X97734Y-53410D02*
X97734Y-52689D01*
X99250Y-54925D02*
X97734Y-53410D01*
X98470Y-53145D02*
X100250Y-54925D01*
X98049Y-53145D02*
X98470Y-53145D01*
X98049Y-52689D02*
X98049Y-53145D01*
X100369Y-54044D02*
X101250Y-54925D01*
X100132Y-54044D02*
X100369Y-54044D01*
X98282Y-52194D02*
X100132Y-54044D01*
X98282Y-51685D02*
X98282Y-52194D01*
X98738Y-51685D02*
X98282Y-51685D01*
X98738Y-51370D02*
X99194Y-51370D01*
X99406Y-51581D02*
X99435Y-51581D01*
X99194Y-51370D02*
X99406Y-51581D01*
X99709Y-51319D02*
X99938Y-51319D01*
X99445Y-51055D02*
X99709Y-51319D01*
X98738Y-51055D02*
X99445Y-51055D01*
X100268Y-50944D02*
X100647Y-51322D01*
X99867Y-50944D02*
X100268Y-50944D01*
X99663Y-50740D02*
X99867Y-50944D01*
X98738Y-50740D02*
X99663Y-50740D01*
X96159Y-54015D02*
X95250Y-54925D01*
X96159Y-52689D02*
X96159Y-54015D01*
X96250Y-54925D02*
X96250Y-54292D01*
X96445Y-54096D02*
X96250Y-54292D01*
X96445Y-53638D02*
X96445Y-54096D01*
X96474Y-53608D02*
X96445Y-53638D01*
X96474Y-52689D02*
X96474Y-53608D01*
X103274Y-48574D02*
X102849Y-48574D01*
X102849Y-48575D02*
X101825Y-48575D01*
X102849Y-48574D02*
X102849Y-48575D01*
X101825Y-48575D02*
X101231Y-48575D01*
X101231Y-48575D02*
X101097Y-48575D01*
X99478Y-49296D02*
X99845Y-49296D01*
X99295Y-49480D02*
X99478Y-49296D01*
X98738Y-49480D02*
X99295Y-49480D01*
X102849Y-52275D02*
X101825Y-52275D01*
X102849Y-52274D02*
X102849Y-52275D01*
X103274Y-52274D02*
X102849Y-52274D01*
X103274Y-52734D02*
X103274Y-52274D01*
X98738Y-49795D02*
X99613Y-49795D01*
X94666Y-51055D02*
X94793Y-51182D01*
X94666Y-51055D02*
X94666Y-51055D01*
X94210Y-51055D02*
X94666Y-51055D01*
X91008Y-54166D02*
X90250Y-54925D01*
X91573Y-54166D02*
X91008Y-54166D01*
X93278Y-52461D02*
X91573Y-54166D01*
X93278Y-51846D02*
X93278Y-52461D01*
X93754Y-51370D02*
X93278Y-51846D01*
X94210Y-51370D02*
X93754Y-51370D01*
X94210Y-51685D02*
X94666Y-51685D01*
X94666Y-51685D02*
X94793Y-51685D01*
X93754Y-53420D02*
X92250Y-54925D01*
X93754Y-52000D02*
X93754Y-53420D01*
X94210Y-52000D02*
X93754Y-52000D01*
X95029Y-53145D02*
X93250Y-54925D01*
X95529Y-53145D02*
X95029Y-53145D01*
X95529Y-52689D02*
X95529Y-53145D01*
X95844Y-53330D02*
X94250Y-54925D01*
X95844Y-52689D02*
X95844Y-53330D01*
X100400Y-48725D02*
X100400Y-48400D01*
X100308Y-48308D02*
X100400Y-48400D01*
X100233Y-48308D02*
X100308Y-48308D01*
X99750Y-47825D02*
X100233Y-48308D01*
X103097Y-47077D02*
X104250Y-45925D01*
X101539Y-47077D02*
X103097Y-47077D01*
X100308Y-48308D02*
X101539Y-47077D01*
X99634Y-48725D02*
X99194Y-49165D01*
X100400Y-48725D02*
X99634Y-48725D01*
X98738Y-49165D02*
X99194Y-49165D01*
X97824Y-47615D02*
X97824Y-47425D01*
X97734Y-47705D02*
X97824Y-47615D01*
X97734Y-48161D02*
X97734Y-47705D01*
X98250Y-47425D02*
X97824Y-47425D01*
X102350Y-46825D02*
X99750Y-46825D01*
X103250Y-45925D02*
X102350Y-46825D01*
X99150Y-47425D02*
X98250Y-47425D01*
X99750Y-46825D02*
X99150Y-47425D01*
X97419Y-48161D02*
X97419Y-48617D01*
X98005Y-48617D02*
X97419Y-48617D01*
X98135Y-48747D02*
X98005Y-48617D01*
X101611Y-45287D02*
X102250Y-45925D01*
X87041Y-45287D02*
X101611Y-45287D01*
X86050Y-46278D02*
X87041Y-45287D01*
X86050Y-47025D02*
X86050Y-46278D01*
X94899Y-48161D02*
X94899Y-48617D01*
X95536Y-49135D02*
X97650Y-49135D01*
X95018Y-48617D02*
X95536Y-49135D01*
X94899Y-48617D02*
X95018Y-48617D01*
X94726Y-48850D02*
X94210Y-48850D01*
X94807Y-48931D02*
X94726Y-48850D01*
X94978Y-48931D02*
X94807Y-48931D01*
X95567Y-49520D02*
X94978Y-48931D01*
X96676Y-49520D02*
X95567Y-49520D01*
X96789Y-48703D02*
X96832Y-48745D01*
X96789Y-48161D02*
X96789Y-48703D01*
X96474Y-48161D02*
X96474Y-47705D01*
X96408Y-47705D02*
X96275Y-47572D01*
X96474Y-47705D02*
X96408Y-47705D01*
X96171Y-48617D02*
X96305Y-48751D01*
X96159Y-48617D02*
X96171Y-48617D01*
X96159Y-48161D02*
X96159Y-48617D01*
X95467Y-47327D02*
X94652Y-47327D01*
X95844Y-47705D02*
X95467Y-47327D01*
X95844Y-48161D02*
X95844Y-47705D01*
X94210Y-49165D02*
X93754Y-49165D01*
X93754Y-49165D02*
X93754Y-48213D01*
X94666Y-49443D02*
X94803Y-49306D01*
X94666Y-49480D02*
X94666Y-49443D01*
X94210Y-49480D02*
X94666Y-49480D01*
X94210Y-49795D02*
X93462Y-49795D01*
X94786Y-50110D02*
X94833Y-50063D01*
X94210Y-50110D02*
X94786Y-50110D01*
X106450Y-52650D02*
X106124Y-52650D01*
X105849Y-52925D02*
X104274Y-52925D01*
X106124Y-52650D02*
X105849Y-52925D01*
X96789Y-53727D02*
X96839Y-53777D01*
X96789Y-52689D02*
X96789Y-53727D01*
X84912Y-47625D02*
X84907Y-47620D01*
X86050Y-47625D02*
X84912Y-47625D01*
X84550Y-47620D02*
X84907Y-47620D01*
X99924Y-52730D02*
X99194Y-52000D01*
X99924Y-53200D02*
X99924Y-52730D01*
X100400Y-53200D02*
X99924Y-53200D01*
X98738Y-52000D02*
X99194Y-52000D01*
X90750Y-52892D02*
X90347Y-52892D01*
X90955Y-52687D02*
X90750Y-52892D01*
X90955Y-52231D02*
X90955Y-52687D01*
X90347Y-53525D02*
X90347Y-52892D01*
X90347Y-47325D02*
X90863Y-47325D01*
X92141Y-47325D02*
X91744Y-47325D01*
X90863Y-47325D02*
X91744Y-47325D01*
X87425Y-53225D02*
X87425Y-52900D01*
X87295Y-52770D02*
X87425Y-52900D01*
X87069Y-52770D02*
X87295Y-52770D01*
X87069Y-52177D02*
X87069Y-52770D01*
X84904Y-52177D02*
X84904Y-49266D01*
X87069Y-52177D02*
X86376Y-52177D01*
X84904Y-52177D02*
X86376Y-52177D01*
X84904Y-48737D02*
X84904Y-49266D01*
X84904Y-48737D02*
X84904Y-48677D01*
X84904Y-48673D02*
X84904Y-48677D01*
X86372Y-48677D02*
X86376Y-48673D01*
X84904Y-48677D02*
X86372Y-48677D01*
X87069Y-48673D02*
X86376Y-48673D01*
X84887Y-53225D02*
X84882Y-53230D01*
X86100Y-53225D02*
X84887Y-53225D01*
X84525Y-53230D02*
X84882Y-53230D01*
X106750Y-49008D02*
X106750Y-48809D01*
X107050Y-52650D02*
X107050Y-52224D01*
X107147Y-52127D02*
X107050Y-52224D01*
X107147Y-49206D02*
X107147Y-52127D01*
X106750Y-48809D02*
X107147Y-49206D01*
X106934Y-48625D02*
X107050Y-48625D01*
X106750Y-48809D02*
X106934Y-48625D01*
X107050Y-48200D02*
X107050Y-48625D01*
X92150Y-51325D02*
X92000Y-51325D01*
X92000Y-51325D02*
X91510Y-51814D01*
X90955Y-51325D02*
X91024Y-51325D01*
X91024Y-51325D02*
X91510Y-50839D01*
X86525Y-53005D02*
X86525Y-53825D01*
X86290Y-52770D02*
X86525Y-53005D01*
X84314Y-52770D02*
X86290Y-52770D01*
X84211Y-52668D02*
X84314Y-52770D01*
X84211Y-48195D02*
X84211Y-52668D01*
X84328Y-48079D02*
X84211Y-48195D01*
X87673Y-48079D02*
X84328Y-48079D01*
X88336Y-48742D02*
X87673Y-48079D01*
X88336Y-49000D02*
X88336Y-48742D01*
X86100Y-53825D02*
X86525Y-53825D01*
X88852Y-49000D02*
X88336Y-49000D01*
X91274Y-53225D02*
X91274Y-52900D01*
X91510Y-52664D02*
X91274Y-52900D01*
X91510Y-51325D02*
X91510Y-51814D01*
X91510Y-51814D02*
X91510Y-52664D01*
X91510Y-51325D02*
X91510Y-51325D01*
X93324Y-48374D02*
X93325Y-48374D01*
X93007Y-48057D02*
X93324Y-48374D01*
X93325Y-48700D02*
X93325Y-48374D01*
X88852Y-49000D02*
X89334Y-49000D01*
X89334Y-49032D02*
X89334Y-49000D01*
X90202Y-49899D02*
X89334Y-49032D01*
X91358Y-49899D02*
X90202Y-49899D01*
X91510Y-50051D02*
X91358Y-49899D01*
X91510Y-51325D02*
X91510Y-50839D01*
X91510Y-50839D02*
X91510Y-50051D01*
X92789Y-47968D02*
X93007Y-47968D01*
X92508Y-48249D02*
X92789Y-47968D01*
X90039Y-48249D02*
X92508Y-48249D01*
X89334Y-48954D02*
X90039Y-48249D01*
X89334Y-49000D02*
X89334Y-48954D01*
X93007Y-47700D02*
X93007Y-47968D01*
X93007Y-47968D02*
X93007Y-48057D01*
X95214Y-48161D02*
X95214Y-47705D01*
X85707Y-49346D02*
X85999Y-49054D01*
X85707Y-49743D02*
X85707Y-49346D01*
X86389Y-50425D02*
X85707Y-49743D01*
X87107Y-50425D02*
X86389Y-50425D01*
X87871Y-47655D02*
X86930Y-47655D01*
X88182Y-47967D02*
X87871Y-47655D01*
X92138Y-47967D02*
X88182Y-47967D01*
X92538Y-47566D02*
X92138Y-47967D01*
X92538Y-47510D02*
X92538Y-47566D01*
X92706Y-47342D02*
X92538Y-47510D01*
X93314Y-47342D02*
X92706Y-47342D01*
X93677Y-47705D02*
X93314Y-47342D01*
X95214Y-47705D02*
X93677Y-47705D01*
X95529Y-48161D02*
X95529Y-48617D01*
X95566Y-48617D02*
X95694Y-48745D01*
X95529Y-48617D02*
X95566Y-48617D01*
X87766Y-50110D02*
X87900Y-50243D01*
X87107Y-50110D02*
X87766Y-50110D01*
X88336Y-47012D02*
X87250Y-45925D01*
X88336Y-47325D02*
X88336Y-47012D01*
X88852Y-47325D02*
X88336Y-47325D01*
X88013Y-54161D02*
X87250Y-54925D01*
X89253Y-54161D02*
X88013Y-54161D01*
X89383Y-54031D02*
X89253Y-54161D01*
X89383Y-50419D02*
X89383Y-54031D01*
X90955Y-50419D02*
X89383Y-50419D01*
X88759Y-49795D02*
X87107Y-49795D01*
X89383Y-50419D02*
X88759Y-49795D01*
X97100Y-47587D02*
X97100Y-47587D01*
X97100Y-47587D02*
X97100Y-47750D01*
X100400Y-50574D02*
X99974Y-50574D01*
X97104Y-47755D02*
X97104Y-48161D01*
X97100Y-47750D02*
X97104Y-47755D01*
X97100Y-47425D02*
X97100Y-47587D01*
X97100Y-47425D02*
X96674Y-47425D01*
X99164Y-50425D02*
X98738Y-50425D01*
X99217Y-50478D02*
X99164Y-50425D01*
X99878Y-50478D02*
X99217Y-50478D01*
X99974Y-50574D02*
X99878Y-50478D01*
X98738Y-50425D02*
X98282Y-50425D01*
X98281Y-50426D02*
X98048Y-50426D01*
X98282Y-50425D02*
X98281Y-50426D01*
X97735Y-50740D02*
X98048Y-50426D01*
X94210Y-50740D02*
X97735Y-50740D01*
X92150Y-48625D02*
X92625Y-48625D01*
X92682Y-48567D02*
X92774Y-48567D01*
X92625Y-48625D02*
X92682Y-48567D01*
X93007Y-46950D02*
X93404Y-46950D01*
X94072Y-46950D02*
X94072Y-47284D01*
X96200Y-46950D02*
X94072Y-46950D01*
X96674Y-47425D02*
X96200Y-46950D01*
X93405Y-46950D02*
X93404Y-46950D01*
X94072Y-46950D02*
X93405Y-46950D01*
X105833Y-48491D02*
X106124Y-48200D01*
X104901Y-48491D02*
X105833Y-48491D01*
X106450Y-48200D02*
X106124Y-48200D01*
X90347Y-49000D02*
X90702Y-49000D01*
X91077Y-48625D02*
X92150Y-48625D01*
X90702Y-49000D02*
X91077Y-48625D01*
X93750Y-50744D02*
X93754Y-50740D01*
X93750Y-50900D02*
X93750Y-50744D01*
X93325Y-50900D02*
X93750Y-50900D01*
X94210Y-50740D02*
X93754Y-50740D01*
X93754Y-50304D02*
X93754Y-50425D01*
X93750Y-50300D02*
X93754Y-50304D01*
X93325Y-50300D02*
X93750Y-50300D01*
X94210Y-50425D02*
X93754Y-50425D01*
X106750Y-51842D02*
X106352Y-51842D01*
X98250Y-46825D02*
X97100Y-46825D01*
X93325Y-50300D02*
X92900Y-50300D01*
X93325Y-49300D02*
X92900Y-49300D01*
X92268Y-49375D02*
X92825Y-49375D01*
X92825Y-49375D02*
X92900Y-49300D01*
X105435Y-50925D02*
X104274Y-50925D01*
X106352Y-51842D02*
X105435Y-50925D01*
X104274Y-50925D02*
X103704Y-50925D01*
X100400Y-52450D02*
X100400Y-52075D01*
X103274Y-50425D02*
X103274Y-49174D01*
X103279Y-51349D02*
X103274Y-51349D01*
X103704Y-50925D02*
X103279Y-51349D01*
X103274Y-51674D02*
X103274Y-51349D01*
X103274Y-50495D02*
X103274Y-50425D01*
X103704Y-50925D02*
X103274Y-50495D01*
X101054Y-50425D02*
X103274Y-50425D01*
X101054Y-51472D02*
X101054Y-50425D01*
X100451Y-52075D02*
X101054Y-51472D01*
X100400Y-52075D02*
X100451Y-52075D01*
X92150Y-50575D02*
X92625Y-50575D01*
X92625Y-52687D02*
X91487Y-53825D01*
X92625Y-50575D02*
X92625Y-52687D01*
X97100Y-46825D02*
X96674Y-46825D01*
X92209Y-49375D02*
X92268Y-49375D01*
X87425Y-53825D02*
X87787Y-53825D01*
X88852Y-53525D02*
X88336Y-53525D01*
X88036Y-53825D02*
X88336Y-53525D01*
X87787Y-53825D02*
X88036Y-53825D01*
X87107Y-51055D02*
X87761Y-51055D01*
X88039Y-51333D02*
X87761Y-51055D01*
X88039Y-53227D02*
X88039Y-51333D01*
X88336Y-53525D02*
X88039Y-53227D01*
X86735Y-55264D02*
X86735Y-54150D01*
X87033Y-55561D02*
X86735Y-55264D01*
X87613Y-55561D02*
X87033Y-55561D01*
X88250Y-54925D02*
X87613Y-55561D01*
X85243Y-54150D02*
X86735Y-54150D01*
X84913Y-53820D02*
X85243Y-54150D01*
X84525Y-53820D02*
X84913Y-53820D01*
X86735Y-54150D02*
X87425Y-54150D01*
X92900Y-50236D02*
X92900Y-50300D01*
X92900Y-50236D02*
X92900Y-50236D01*
X92900Y-50236D02*
X92900Y-50236D01*
X92926Y-50210D02*
X92900Y-50236D01*
X92926Y-49899D02*
X92926Y-50210D01*
X92825Y-49799D02*
X92926Y-49899D01*
X92825Y-49375D02*
X92825Y-49799D01*
X92900Y-50300D02*
X92625Y-50575D01*
X92900Y-50300D02*
X92900Y-50300D01*
X92900Y-50300D02*
X92900Y-50300D01*
X87425Y-53825D02*
X87425Y-54150D01*
X98262Y-50110D02*
X98738Y-50110D01*
X98203Y-50051D02*
X98262Y-50110D01*
X97309Y-50051D02*
X98203Y-50051D01*
X96904Y-50456D02*
X97309Y-50051D01*
X94695Y-50456D02*
X96904Y-50456D01*
X94663Y-50425D02*
X94695Y-50456D01*
X94210Y-50425D02*
X94663Y-50425D01*
X100825Y-50195D02*
X100825Y-49974D01*
X101054Y-50425D02*
X100825Y-50195D01*
X99771Y-50178D02*
X99974Y-49974D01*
X99271Y-50178D02*
X99771Y-50178D01*
X99202Y-50110D02*
X99271Y-50178D01*
X98738Y-50110D02*
X99202Y-50110D01*
X100400Y-49974D02*
X100825Y-49974D01*
X100400Y-49974D02*
X100247Y-49974D01*
X100247Y-49974D02*
X99974Y-49974D01*
X100400Y-49822D02*
X100400Y-49325D01*
X100247Y-49974D02*
X100400Y-49822D01*
X91274Y-53825D02*
X91487Y-53825D01*
X92209Y-49375D02*
X92150Y-49375D01*
X91364Y-49375D02*
X91273Y-49284D01*
X92150Y-49375D02*
X91364Y-49375D01*
X96408Y-46558D02*
X96674Y-46825D01*
X88883Y-46558D02*
X96408Y-46558D01*
X88250Y-45925D02*
X88883Y-46558D01*
X84924Y-47047D02*
X84907Y-47030D01*
X85154Y-47047D02*
X84924Y-47047D01*
X84550Y-47030D02*
X84907Y-47030D01*
G54D10*
G36*
X86819Y-45169D02*
X85880Y-46108D01*
X85828Y-46186D01*
X85810Y-46278D01*
X85810Y-46710D01*
X85787Y-46710D01*
X85717Y-46739D01*
X85663Y-46792D01*
X85635Y-46862D01*
X85635Y-46937D01*
X85635Y-47187D01*
X85663Y-47257D01*
X85717Y-47311D01*
X85750Y-47325D01*
X85717Y-47339D01*
X85671Y-47385D01*
X84932Y-47385D01*
X84907Y-47380D01*
X84878Y-47380D01*
X84870Y-47362D01*
X84910Y-47323D01*
X84947Y-47234D01*
X84947Y-47100D01*
X84887Y-47040D01*
X84560Y-47040D01*
X84560Y-47048D01*
X84540Y-47048D01*
X84540Y-47040D01*
X84540Y-47020D01*
X84540Y-46693D01*
X84480Y-46633D01*
X84440Y-46633D01*
X84345Y-46633D01*
X84257Y-46669D01*
X84189Y-46737D01*
X84153Y-46825D01*
X84153Y-46960D01*
X84213Y-47020D01*
X84540Y-47020D01*
X84540Y-47040D01*
X84213Y-47040D01*
X84153Y-47100D01*
X84153Y-47234D01*
X84189Y-47323D01*
X84229Y-47362D01*
X84203Y-47425D01*
X84203Y-47500D01*
X84203Y-47814D01*
X84224Y-47865D01*
X84158Y-47909D01*
X84119Y-47948D01*
X84119Y-46080D01*
X84237Y-46366D01*
X84457Y-46586D01*
X84605Y-46647D01*
X84560Y-46693D01*
X84560Y-47020D01*
X84887Y-47020D01*
X84947Y-46960D01*
X84947Y-46825D01*
X84910Y-46737D01*
X84878Y-46705D01*
X85054Y-46705D01*
X85341Y-46587D01*
X85561Y-46367D01*
X85680Y-46081D01*
X85680Y-45770D01*
X85562Y-45483D01*
X85342Y-45263D01*
X85115Y-45169D01*
X86819Y-45169D01*
X86819Y-45169D01*
G37*
G54D32*
X86819Y-45169D02*
X85880Y-46108D01*
X85828Y-46186D01*
X85810Y-46278D01*
X85810Y-46710D01*
X85787Y-46710D01*
X85717Y-46739D01*
X85663Y-46792D01*
X85635Y-46862D01*
X85635Y-46937D01*
X85635Y-47187D01*
X85663Y-47257D01*
X85717Y-47311D01*
X85750Y-47325D01*
X85717Y-47339D01*
X85671Y-47385D01*
X84932Y-47385D01*
X84907Y-47380D01*
X84878Y-47380D01*
X84870Y-47362D01*
X84910Y-47323D01*
X84947Y-47234D01*
X84947Y-47100D01*
X84887Y-47040D01*
X84560Y-47040D01*
X84560Y-47048D01*
X84540Y-47048D01*
X84540Y-47040D01*
X84540Y-47020D01*
X84540Y-46693D01*
X84480Y-46633D01*
X84440Y-46633D01*
X84345Y-46633D01*
X84257Y-46669D01*
X84189Y-46737D01*
X84153Y-46825D01*
X84153Y-46960D01*
X84213Y-47020D01*
X84540Y-47020D01*
X84540Y-47040D01*
X84213Y-47040D01*
X84153Y-47100D01*
X84153Y-47234D01*
X84189Y-47323D01*
X84229Y-47362D01*
X84203Y-47425D01*
X84203Y-47500D01*
X84203Y-47814D01*
X84224Y-47865D01*
X84158Y-47909D01*
X84119Y-47948D01*
X84119Y-46080D01*
X84237Y-46366D01*
X84457Y-46586D01*
X84605Y-46647D01*
X84560Y-46693D01*
X84560Y-47020D01*
X84887Y-47020D01*
X84947Y-46960D01*
X84947Y-46825D01*
X84910Y-46737D01*
X84878Y-46705D01*
X85054Y-46705D01*
X85341Y-46587D01*
X85561Y-46367D01*
X85680Y-46081D01*
X85680Y-45770D01*
X85562Y-45483D01*
X85342Y-45263D01*
X85115Y-45169D01*
X86819Y-45169D01*
G54D10*
G36*
X88267Y-45935D02*
X88260Y-45935D01*
X88260Y-45943D01*
X88240Y-45943D01*
X88240Y-45935D01*
X88232Y-45935D01*
X88232Y-45915D01*
X88240Y-45915D01*
X88240Y-45907D01*
X88260Y-45907D01*
X88260Y-45915D01*
X88267Y-45915D01*
X88267Y-45935D01*
X88267Y-45935D01*
G37*
G54D32*
X88267Y-45935D02*
X88260Y-45935D01*
X88260Y-45943D01*
X88240Y-45943D01*
X88240Y-45935D01*
X88232Y-45935D01*
X88232Y-45915D01*
X88240Y-45915D01*
X88240Y-45907D01*
X88260Y-45907D01*
X88260Y-45915D01*
X88267Y-45915D01*
X88267Y-45935D01*
G54D10*
G36*
X91292Y-53835D02*
X91284Y-53835D01*
X91284Y-53843D01*
X91264Y-53843D01*
X91264Y-53835D01*
X91256Y-53835D01*
X91256Y-53815D01*
X91264Y-53815D01*
X91264Y-53807D01*
X91284Y-53807D01*
X91284Y-53815D01*
X91292Y-53815D01*
X91292Y-53835D01*
X91292Y-53835D01*
G37*
G54D32*
X91292Y-53835D02*
X91284Y-53835D01*
X91284Y-53843D01*
X91264Y-53843D01*
X91264Y-53835D01*
X91256Y-53835D01*
X91256Y-53815D01*
X91264Y-53815D01*
X91264Y-53807D01*
X91284Y-53807D01*
X91284Y-53815D01*
X91292Y-53815D01*
X91292Y-53835D01*
G54D10*
G36*
X93570Y-51215D02*
X93108Y-51676D01*
X93056Y-51754D01*
X93038Y-51846D01*
X93038Y-52362D01*
X91739Y-53660D01*
X91739Y-53652D01*
X91703Y-53564D01*
X91635Y-53496D01*
X91626Y-53492D01*
X91660Y-53457D01*
X91689Y-53387D01*
X91689Y-53312D01*
X91689Y-53062D01*
X91660Y-52992D01*
X91607Y-52939D01*
X91584Y-52929D01*
X91680Y-52834D01*
X91680Y-52834D01*
X91732Y-52756D01*
X91750Y-52664D01*
X91750Y-52664D01*
X91750Y-51914D01*
X91974Y-51690D01*
X92462Y-51690D01*
X92532Y-51661D01*
X92586Y-51607D01*
X92615Y-51537D01*
X92615Y-51462D01*
X92615Y-51112D01*
X92586Y-51042D01*
X92532Y-50988D01*
X92503Y-50977D01*
X92560Y-50953D01*
X92628Y-50885D01*
X92665Y-50797D01*
X92665Y-50645D01*
X92665Y-50505D01*
X92665Y-50352D01*
X92665Y-49597D01*
X92665Y-49445D01*
X92605Y-49385D01*
X92160Y-49385D01*
X92160Y-49730D01*
X92220Y-49790D01*
X92377Y-49790D01*
X92472Y-49790D01*
X92560Y-49753D01*
X92628Y-49685D01*
X92665Y-49597D01*
X92665Y-50352D01*
X92628Y-50264D01*
X92560Y-50196D01*
X92472Y-50160D01*
X92377Y-50160D01*
X92220Y-50160D01*
X92160Y-50220D01*
X92160Y-50565D01*
X92605Y-50565D01*
X92665Y-50505D01*
X92665Y-50645D01*
X92605Y-50585D01*
X92160Y-50585D01*
X92160Y-50592D01*
X92140Y-50592D01*
X92140Y-50585D01*
X92132Y-50585D01*
X92132Y-50565D01*
X92140Y-50565D01*
X92140Y-50220D01*
X92140Y-49730D01*
X92140Y-49385D01*
X91695Y-49385D01*
X91635Y-49445D01*
X91635Y-49597D01*
X91671Y-49685D01*
X91739Y-49753D01*
X91827Y-49790D01*
X91922Y-49790D01*
X92080Y-49790D01*
X92140Y-49730D01*
X92140Y-50220D01*
X92080Y-50160D01*
X91922Y-50160D01*
X91827Y-50160D01*
X91750Y-50191D01*
X91750Y-50051D01*
X91732Y-49959D01*
X91680Y-49882D01*
X91528Y-49730D01*
X91450Y-49677D01*
X91358Y-49659D01*
X90301Y-49659D01*
X90265Y-49623D01*
X90700Y-49623D01*
X90770Y-49594D01*
X90824Y-49540D01*
X90853Y-49470D01*
X90853Y-49395D01*
X90853Y-49182D01*
X90872Y-49169D01*
X91176Y-48865D01*
X91696Y-48865D01*
X91713Y-48907D01*
X91767Y-48961D01*
X91796Y-48972D01*
X91739Y-48996D01*
X91671Y-49064D01*
X91635Y-49152D01*
X91635Y-49305D01*
X91695Y-49365D01*
X92140Y-49365D01*
X92140Y-49357D01*
X92160Y-49357D01*
X92160Y-49365D01*
X92605Y-49365D01*
X92665Y-49305D01*
X92665Y-49152D01*
X92628Y-49064D01*
X92560Y-48996D01*
X92503Y-48972D01*
X92532Y-48961D01*
X92586Y-48907D01*
X92594Y-48888D01*
X92701Y-48932D01*
X92846Y-48933D01*
X92925Y-48900D01*
X92939Y-48932D01*
X92973Y-48967D01*
X92964Y-48971D01*
X92896Y-49039D01*
X92860Y-49127D01*
X92860Y-49230D01*
X92920Y-49290D01*
X93315Y-49290D01*
X93315Y-49282D01*
X93335Y-49282D01*
X93335Y-49290D01*
X93343Y-49290D01*
X93343Y-49310D01*
X93335Y-49310D01*
X93335Y-49317D01*
X93315Y-49317D01*
X93315Y-49310D01*
X92920Y-49310D01*
X92860Y-49370D01*
X92860Y-49472D01*
X92896Y-49560D01*
X92964Y-49628D01*
X93052Y-49665D01*
X93121Y-49665D01*
X93097Y-49722D01*
X93097Y-49867D01*
X93125Y-49935D01*
X93052Y-49935D01*
X92964Y-49971D01*
X92896Y-50039D01*
X92860Y-50127D01*
X92860Y-50230D01*
X92920Y-50290D01*
X93315Y-50290D01*
X93315Y-50282D01*
X93335Y-50282D01*
X93335Y-50290D01*
X93343Y-50290D01*
X93343Y-50310D01*
X93335Y-50310D01*
X93335Y-50317D01*
X93315Y-50317D01*
X93315Y-50310D01*
X92920Y-50310D01*
X92860Y-50370D01*
X92860Y-50472D01*
X92896Y-50560D01*
X92964Y-50628D01*
X92973Y-50632D01*
X92939Y-50667D01*
X92910Y-50737D01*
X92910Y-50812D01*
X92910Y-51062D01*
X92939Y-51132D01*
X92992Y-51186D01*
X93062Y-51215D01*
X93137Y-51215D01*
X93570Y-51215D01*
X93570Y-51215D01*
G37*
G54D32*
X93570Y-51215D02*
X93108Y-51676D01*
X93056Y-51754D01*
X93038Y-51846D01*
X93038Y-52362D01*
X91739Y-53660D01*
X91739Y-53652D01*
X91703Y-53564D01*
X91635Y-53496D01*
X91626Y-53492D01*
X91660Y-53457D01*
X91689Y-53387D01*
X91689Y-53312D01*
X91689Y-53062D01*
X91660Y-52992D01*
X91607Y-52939D01*
X91584Y-52929D01*
X91680Y-52834D01*
X91680Y-52834D01*
X91732Y-52756D01*
X91750Y-52664D01*
X91750Y-52664D01*
X91750Y-51914D01*
X91974Y-51690D01*
X92462Y-51690D01*
X92532Y-51661D01*
X92586Y-51607D01*
X92615Y-51537D01*
X92615Y-51462D01*
X92615Y-51112D01*
X92586Y-51042D01*
X92532Y-50988D01*
X92503Y-50977D01*
X92560Y-50953D01*
X92628Y-50885D01*
X92665Y-50797D01*
X92665Y-50645D01*
X92665Y-50505D01*
X92665Y-50352D01*
X92665Y-49597D01*
X92665Y-49445D01*
X92605Y-49385D01*
X92160Y-49385D01*
X92160Y-49730D01*
X92220Y-49790D01*
X92377Y-49790D01*
X92472Y-49790D01*
X92560Y-49753D01*
X92628Y-49685D01*
X92665Y-49597D01*
X92665Y-50352D01*
X92628Y-50264D01*
X92560Y-50196D01*
X92472Y-50160D01*
X92377Y-50160D01*
X92220Y-50160D01*
X92160Y-50220D01*
X92160Y-50565D01*
X92605Y-50565D01*
X92665Y-50505D01*
X92665Y-50645D01*
X92605Y-50585D01*
X92160Y-50585D01*
X92160Y-50592D01*
X92140Y-50592D01*
X92140Y-50585D01*
X92132Y-50585D01*
X92132Y-50565D01*
X92140Y-50565D01*
X92140Y-50220D01*
X92140Y-49730D01*
X92140Y-49385D01*
X91695Y-49385D01*
X91635Y-49445D01*
X91635Y-49597D01*
X91671Y-49685D01*
X91739Y-49753D01*
X91827Y-49790D01*
X91922Y-49790D01*
X92080Y-49790D01*
X92140Y-49730D01*
X92140Y-50220D01*
X92080Y-50160D01*
X91922Y-50160D01*
X91827Y-50160D01*
X91750Y-50191D01*
X91750Y-50051D01*
X91732Y-49959D01*
X91680Y-49882D01*
X91528Y-49730D01*
X91450Y-49677D01*
X91358Y-49659D01*
X90301Y-49659D01*
X90265Y-49623D01*
X90700Y-49623D01*
X90770Y-49594D01*
X90824Y-49540D01*
X90853Y-49470D01*
X90853Y-49395D01*
X90853Y-49182D01*
X90872Y-49169D01*
X91176Y-48865D01*
X91696Y-48865D01*
X91713Y-48907D01*
X91767Y-48961D01*
X91796Y-48972D01*
X91739Y-48996D01*
X91671Y-49064D01*
X91635Y-49152D01*
X91635Y-49305D01*
X91695Y-49365D01*
X92140Y-49365D01*
X92140Y-49357D01*
X92160Y-49357D01*
X92160Y-49365D01*
X92605Y-49365D01*
X92665Y-49305D01*
X92665Y-49152D01*
X92628Y-49064D01*
X92560Y-48996D01*
X92503Y-48972D01*
X92532Y-48961D01*
X92586Y-48907D01*
X92594Y-48888D01*
X92701Y-48932D01*
X92846Y-48933D01*
X92925Y-48900D01*
X92939Y-48932D01*
X92973Y-48967D01*
X92964Y-48971D01*
X92896Y-49039D01*
X92860Y-49127D01*
X92860Y-49230D01*
X92920Y-49290D01*
X93315Y-49290D01*
X93315Y-49282D01*
X93335Y-49282D01*
X93335Y-49290D01*
X93343Y-49290D01*
X93343Y-49310D01*
X93335Y-49310D01*
X93335Y-49317D01*
X93315Y-49317D01*
X93315Y-49310D01*
X92920Y-49310D01*
X92860Y-49370D01*
X92860Y-49472D01*
X92896Y-49560D01*
X92964Y-49628D01*
X93052Y-49665D01*
X93121Y-49665D01*
X93097Y-49722D01*
X93097Y-49867D01*
X93125Y-49935D01*
X93052Y-49935D01*
X92964Y-49971D01*
X92896Y-50039D01*
X92860Y-50127D01*
X92860Y-50230D01*
X92920Y-50290D01*
X93315Y-50290D01*
X93315Y-50282D01*
X93335Y-50282D01*
X93335Y-50290D01*
X93343Y-50290D01*
X93343Y-50310D01*
X93335Y-50310D01*
X93335Y-50317D01*
X93315Y-50317D01*
X93315Y-50310D01*
X92920Y-50310D01*
X92860Y-50370D01*
X92860Y-50472D01*
X92896Y-50560D01*
X92964Y-50628D01*
X92973Y-50632D01*
X92939Y-50667D01*
X92910Y-50737D01*
X92910Y-50812D01*
X92910Y-51062D01*
X92939Y-51132D01*
X92992Y-51186D01*
X93062Y-51215D01*
X93137Y-51215D01*
X93570Y-51215D01*
G54D10*
G36*
X99427Y-46525D02*
X99377Y-46575D01*
X99310Y-46737D01*
X99309Y-46912D01*
X99313Y-46921D01*
X99050Y-47185D01*
X98628Y-47185D01*
X98601Y-47157D01*
X98610Y-47153D01*
X98678Y-47086D01*
X98715Y-46997D01*
X98715Y-46895D01*
X98655Y-46835D01*
X98260Y-46835D01*
X98260Y-46843D01*
X98240Y-46843D01*
X98240Y-46835D01*
X97845Y-46835D01*
X97785Y-46895D01*
X97785Y-46997D01*
X97821Y-47086D01*
X97889Y-47153D01*
X97898Y-47157D01*
X97871Y-47185D01*
X97824Y-47185D01*
X97733Y-47203D01*
X97655Y-47255D01*
X97603Y-47333D01*
X97584Y-47425D01*
X97584Y-47515D01*
X97565Y-47535D01*
X97513Y-47613D01*
X97494Y-47705D01*
X97494Y-47715D01*
X97490Y-47715D01*
X97423Y-47715D01*
X97432Y-47711D01*
X97486Y-47657D01*
X97515Y-47587D01*
X97515Y-47512D01*
X97515Y-47262D01*
X97486Y-47192D01*
X97451Y-47157D01*
X97460Y-47153D01*
X97528Y-47086D01*
X97565Y-46997D01*
X97565Y-46895D01*
X97505Y-46835D01*
X97110Y-46835D01*
X97110Y-46843D01*
X97090Y-46843D01*
X97090Y-46835D01*
X96695Y-46835D01*
X96635Y-46895D01*
X96635Y-46997D01*
X96668Y-47079D01*
X96369Y-46780D01*
X96291Y-46728D01*
X96200Y-46710D01*
X94072Y-46710D01*
X93406Y-46710D01*
X93404Y-46710D01*
X93376Y-46710D01*
X93365Y-46685D01*
X93312Y-46631D01*
X93242Y-46602D01*
X93167Y-46602D01*
X92773Y-46602D01*
X92703Y-46631D01*
X92649Y-46685D01*
X92620Y-46754D01*
X92620Y-46830D01*
X92620Y-47119D01*
X92614Y-47120D01*
X92537Y-47172D01*
X92528Y-47181D01*
X92528Y-47129D01*
X92499Y-47060D01*
X92446Y-47006D01*
X92376Y-46977D01*
X92301Y-46977D01*
X91907Y-46977D01*
X91837Y-47006D01*
X91783Y-47060D01*
X91773Y-47085D01*
X91744Y-47085D01*
X90863Y-47085D01*
X90853Y-47085D01*
X90853Y-46854D01*
X90824Y-46784D01*
X90770Y-46731D01*
X90700Y-46702D01*
X90625Y-46702D01*
X89995Y-46702D01*
X89925Y-46731D01*
X89871Y-46784D01*
X89843Y-46854D01*
X89843Y-46929D01*
X89843Y-47727D01*
X89357Y-47727D01*
X89357Y-47720D01*
X89357Y-46854D01*
X89328Y-46784D01*
X89274Y-46731D01*
X89204Y-46702D01*
X89129Y-46702D01*
X88499Y-46702D01*
X88429Y-46731D01*
X88412Y-46748D01*
X88260Y-46595D01*
X88260Y-46538D01*
X88344Y-46589D01*
X88447Y-46560D01*
X88624Y-46447D01*
X88745Y-46274D01*
X88774Y-46141D01*
X88797Y-46257D01*
X88903Y-46416D01*
X89062Y-46523D01*
X89250Y-46560D01*
X89437Y-46523D01*
X89596Y-46416D01*
X89702Y-46257D01*
X89740Y-46070D01*
X89740Y-45779D01*
X89702Y-45592D01*
X89659Y-45527D01*
X89840Y-45527D01*
X89797Y-45592D01*
X89760Y-45779D01*
X89760Y-46070D01*
X89797Y-46257D01*
X89903Y-46416D01*
X90062Y-46523D01*
X90250Y-46560D01*
X90437Y-46523D01*
X90596Y-46416D01*
X90702Y-46257D01*
X90740Y-46070D01*
X90740Y-45779D01*
X90702Y-45592D01*
X90659Y-45527D01*
X90840Y-45527D01*
X90797Y-45592D01*
X90760Y-45779D01*
X90760Y-46070D01*
X90797Y-46257D01*
X90903Y-46416D01*
X91062Y-46523D01*
X91250Y-46560D01*
X91437Y-46523D01*
X91596Y-46416D01*
X91702Y-46257D01*
X91740Y-46070D01*
X91740Y-45779D01*
X91702Y-45592D01*
X91659Y-45527D01*
X91840Y-45527D01*
X91797Y-45592D01*
X91760Y-45779D01*
X91760Y-46070D01*
X91797Y-46257D01*
X91903Y-46416D01*
X92062Y-46523D01*
X92250Y-46560D01*
X92437Y-46523D01*
X92596Y-46416D01*
X92702Y-46257D01*
X92740Y-46070D01*
X92740Y-45779D01*
X92702Y-45592D01*
X92659Y-45527D01*
X92840Y-45527D01*
X92797Y-45592D01*
X92760Y-45779D01*
X92760Y-46070D01*
X92797Y-46257D01*
X92903Y-46416D01*
X93062Y-46523D01*
X93250Y-46560D01*
X93437Y-46523D01*
X93596Y-46416D01*
X93702Y-46257D01*
X93740Y-46070D01*
X93740Y-45779D01*
X93702Y-45592D01*
X93659Y-45527D01*
X93840Y-45527D01*
X93797Y-45592D01*
X93760Y-45779D01*
X93760Y-46070D01*
X93797Y-46257D01*
X93903Y-46416D01*
X94062Y-46523D01*
X94250Y-46560D01*
X94437Y-46523D01*
X94596Y-46416D01*
X94702Y-46257D01*
X94740Y-46070D01*
X94740Y-45779D01*
X94702Y-45592D01*
X94659Y-45527D01*
X94840Y-45527D01*
X94797Y-45592D01*
X94760Y-45779D01*
X94760Y-46070D01*
X94797Y-46257D01*
X94903Y-46416D01*
X95062Y-46523D01*
X95250Y-46560D01*
X95437Y-46523D01*
X95596Y-46416D01*
X95702Y-46257D01*
X95740Y-46070D01*
X95740Y-45779D01*
X95702Y-45592D01*
X95659Y-45527D01*
X95840Y-45527D01*
X95797Y-45592D01*
X95760Y-45779D01*
X95760Y-46070D01*
X95797Y-46257D01*
X95903Y-46416D01*
X96062Y-46523D01*
X96250Y-46560D01*
X96437Y-46523D01*
X96596Y-46416D01*
X96702Y-46257D01*
X96740Y-46070D01*
X96740Y-45779D01*
X96702Y-45592D01*
X96659Y-45527D01*
X96840Y-45527D01*
X96797Y-45592D01*
X96760Y-45779D01*
X96760Y-46070D01*
X96797Y-46257D01*
X96903Y-46416D01*
X96968Y-46460D01*
X96922Y-46460D01*
X96827Y-46460D01*
X96739Y-46496D01*
X96671Y-46564D01*
X96635Y-46652D01*
X96635Y-46755D01*
X96695Y-46815D01*
X97090Y-46815D01*
X97090Y-46807D01*
X97110Y-46807D01*
X97110Y-46815D01*
X97505Y-46815D01*
X97565Y-46755D01*
X97565Y-46652D01*
X97528Y-46564D01*
X97467Y-46503D01*
X97596Y-46416D01*
X97702Y-46257D01*
X97740Y-46070D01*
X97740Y-45779D01*
X97702Y-45592D01*
X97659Y-45527D01*
X97840Y-45527D01*
X97797Y-45592D01*
X97760Y-45779D01*
X97760Y-46070D01*
X97797Y-46257D01*
X97903Y-46416D01*
X97971Y-46462D01*
X97889Y-46496D01*
X97821Y-46564D01*
X97785Y-46652D01*
X97785Y-46755D01*
X97845Y-46815D01*
X98240Y-46815D01*
X98240Y-46807D01*
X98260Y-46807D01*
X98260Y-46815D01*
X98655Y-46815D01*
X98715Y-46755D01*
X98715Y-46652D01*
X98678Y-46564D01*
X98610Y-46496D01*
X98528Y-46462D01*
X98596Y-46416D01*
X98702Y-46257D01*
X98740Y-46070D01*
X98740Y-45779D01*
X98702Y-45592D01*
X98659Y-45527D01*
X98840Y-45527D01*
X98797Y-45592D01*
X98760Y-45779D01*
X98760Y-46070D01*
X98797Y-46257D01*
X98903Y-46416D01*
X99062Y-46523D01*
X99250Y-46560D01*
X99427Y-46525D01*
X99427Y-46525D01*
G37*
G54D32*
X99427Y-46525D02*
X99377Y-46575D01*
X99310Y-46737D01*
X99309Y-46912D01*
X99313Y-46921D01*
X99050Y-47185D01*
X98628Y-47185D01*
X98601Y-47157D01*
X98610Y-47153D01*
X98678Y-47086D01*
X98715Y-46997D01*
X98715Y-46895D01*
X98655Y-46835D01*
X98260Y-46835D01*
X98260Y-46843D01*
X98240Y-46843D01*
X98240Y-46835D01*
X97845Y-46835D01*
X97785Y-46895D01*
X97785Y-46997D01*
X97821Y-47086D01*
X97889Y-47153D01*
X97898Y-47157D01*
X97871Y-47185D01*
X97824Y-47185D01*
X97733Y-47203D01*
X97655Y-47255D01*
X97603Y-47333D01*
X97584Y-47425D01*
X97584Y-47515D01*
X97565Y-47535D01*
X97513Y-47613D01*
X97494Y-47705D01*
X97494Y-47715D01*
X97490Y-47715D01*
X97423Y-47715D01*
X97432Y-47711D01*
X97486Y-47657D01*
X97515Y-47587D01*
X97515Y-47512D01*
X97515Y-47262D01*
X97486Y-47192D01*
X97451Y-47157D01*
X97460Y-47153D01*
X97528Y-47086D01*
X97565Y-46997D01*
X97565Y-46895D01*
X97505Y-46835D01*
X97110Y-46835D01*
X97110Y-46843D01*
X97090Y-46843D01*
X97090Y-46835D01*
X96695Y-46835D01*
X96635Y-46895D01*
X96635Y-46997D01*
X96668Y-47079D01*
X96369Y-46780D01*
X96291Y-46728D01*
X96200Y-46710D01*
X94072Y-46710D01*
X93406Y-46710D01*
X93404Y-46710D01*
X93376Y-46710D01*
X93365Y-46685D01*
X93312Y-46631D01*
X93242Y-46602D01*
X93167Y-46602D01*
X92773Y-46602D01*
X92703Y-46631D01*
X92649Y-46685D01*
X92620Y-46754D01*
X92620Y-46830D01*
X92620Y-47119D01*
X92614Y-47120D01*
X92537Y-47172D01*
X92528Y-47181D01*
X92528Y-47129D01*
X92499Y-47060D01*
X92446Y-47006D01*
X92376Y-46977D01*
X92301Y-46977D01*
X91907Y-46977D01*
X91837Y-47006D01*
X91783Y-47060D01*
X91773Y-47085D01*
X91744Y-47085D01*
X90863Y-47085D01*
X90853Y-47085D01*
X90853Y-46854D01*
X90824Y-46784D01*
X90770Y-46731D01*
X90700Y-46702D01*
X90625Y-46702D01*
X89995Y-46702D01*
X89925Y-46731D01*
X89871Y-46784D01*
X89843Y-46854D01*
X89843Y-46929D01*
X89843Y-47727D01*
X89357Y-47727D01*
X89357Y-47720D01*
X89357Y-46854D01*
X89328Y-46784D01*
X89274Y-46731D01*
X89204Y-46702D01*
X89129Y-46702D01*
X88499Y-46702D01*
X88429Y-46731D01*
X88412Y-46748D01*
X88260Y-46595D01*
X88260Y-46538D01*
X88344Y-46589D01*
X88447Y-46560D01*
X88624Y-46447D01*
X88745Y-46274D01*
X88774Y-46141D01*
X88797Y-46257D01*
X88903Y-46416D01*
X89062Y-46523D01*
X89250Y-46560D01*
X89437Y-46523D01*
X89596Y-46416D01*
X89702Y-46257D01*
X89740Y-46070D01*
X89740Y-45779D01*
X89702Y-45592D01*
X89659Y-45527D01*
X89840Y-45527D01*
X89797Y-45592D01*
X89760Y-45779D01*
X89760Y-46070D01*
X89797Y-46257D01*
X89903Y-46416D01*
X90062Y-46523D01*
X90250Y-46560D01*
X90437Y-46523D01*
X90596Y-46416D01*
X90702Y-46257D01*
X90740Y-46070D01*
X90740Y-45779D01*
X90702Y-45592D01*
X90659Y-45527D01*
X90840Y-45527D01*
X90797Y-45592D01*
X90760Y-45779D01*
X90760Y-46070D01*
X90797Y-46257D01*
X90903Y-46416D01*
X91062Y-46523D01*
X91250Y-46560D01*
X91437Y-46523D01*
X91596Y-46416D01*
X91702Y-46257D01*
X91740Y-46070D01*
X91740Y-45779D01*
X91702Y-45592D01*
X91659Y-45527D01*
X91840Y-45527D01*
X91797Y-45592D01*
X91760Y-45779D01*
X91760Y-46070D01*
X91797Y-46257D01*
X91903Y-46416D01*
X92062Y-46523D01*
X92250Y-46560D01*
X92437Y-46523D01*
X92596Y-46416D01*
X92702Y-46257D01*
X92740Y-46070D01*
X92740Y-45779D01*
X92702Y-45592D01*
X92659Y-45527D01*
X92840Y-45527D01*
X92797Y-45592D01*
X92760Y-45779D01*
X92760Y-46070D01*
X92797Y-46257D01*
X92903Y-46416D01*
X93062Y-46523D01*
X93250Y-46560D01*
X93437Y-46523D01*
X93596Y-46416D01*
X93702Y-46257D01*
X93740Y-46070D01*
X93740Y-45779D01*
X93702Y-45592D01*
X93659Y-45527D01*
X93840Y-45527D01*
X93797Y-45592D01*
X93760Y-45779D01*
X93760Y-46070D01*
X93797Y-46257D01*
X93903Y-46416D01*
X94062Y-46523D01*
X94250Y-46560D01*
X94437Y-46523D01*
X94596Y-46416D01*
X94702Y-46257D01*
X94740Y-46070D01*
X94740Y-45779D01*
X94702Y-45592D01*
X94659Y-45527D01*
X94840Y-45527D01*
X94797Y-45592D01*
X94760Y-45779D01*
X94760Y-46070D01*
X94797Y-46257D01*
X94903Y-46416D01*
X95062Y-46523D01*
X95250Y-46560D01*
X95437Y-46523D01*
X95596Y-46416D01*
X95702Y-46257D01*
X95740Y-46070D01*
X95740Y-45779D01*
X95702Y-45592D01*
X95659Y-45527D01*
X95840Y-45527D01*
X95797Y-45592D01*
X95760Y-45779D01*
X95760Y-46070D01*
X95797Y-46257D01*
X95903Y-46416D01*
X96062Y-46523D01*
X96250Y-46560D01*
X96437Y-46523D01*
X96596Y-46416D01*
X96702Y-46257D01*
X96740Y-46070D01*
X96740Y-45779D01*
X96702Y-45592D01*
X96659Y-45527D01*
X96840Y-45527D01*
X96797Y-45592D01*
X96760Y-45779D01*
X96760Y-46070D01*
X96797Y-46257D01*
X96903Y-46416D01*
X96968Y-46460D01*
X96922Y-46460D01*
X96827Y-46460D01*
X96739Y-46496D01*
X96671Y-46564D01*
X96635Y-46652D01*
X96635Y-46755D01*
X96695Y-46815D01*
X97090Y-46815D01*
X97090Y-46807D01*
X97110Y-46807D01*
X97110Y-46815D01*
X97505Y-46815D01*
X97565Y-46755D01*
X97565Y-46652D01*
X97528Y-46564D01*
X97467Y-46503D01*
X97596Y-46416D01*
X97702Y-46257D01*
X97740Y-46070D01*
X97740Y-45779D01*
X97702Y-45592D01*
X97659Y-45527D01*
X97840Y-45527D01*
X97797Y-45592D01*
X97760Y-45779D01*
X97760Y-46070D01*
X97797Y-46257D01*
X97903Y-46416D01*
X97971Y-46462D01*
X97889Y-46496D01*
X97821Y-46564D01*
X97785Y-46652D01*
X97785Y-46755D01*
X97845Y-46815D01*
X98240Y-46815D01*
X98240Y-46807D01*
X98260Y-46807D01*
X98260Y-46815D01*
X98655Y-46815D01*
X98715Y-46755D01*
X98715Y-46652D01*
X98678Y-46564D01*
X98610Y-46496D01*
X98528Y-46462D01*
X98596Y-46416D01*
X98702Y-46257D01*
X98740Y-46070D01*
X98740Y-45779D01*
X98702Y-45592D01*
X98659Y-45527D01*
X98840Y-45527D01*
X98797Y-45592D01*
X98760Y-45779D01*
X98760Y-46070D01*
X98797Y-46257D01*
X98903Y-46416D01*
X99062Y-46523D01*
X99250Y-46560D01*
X99427Y-46525D01*
G54D10*
G36*
X107380Y-54770D02*
X107262Y-54483D01*
X107042Y-54263D01*
X106755Y-54144D01*
X106445Y-54144D01*
X106158Y-54263D01*
X105938Y-54482D01*
X105819Y-54769D01*
X105819Y-55079D01*
X105937Y-55366D01*
X106157Y-55586D01*
X106443Y-55705D01*
X104740Y-55705D01*
X104740Y-55070D01*
X104740Y-54779D01*
X104702Y-54592D01*
X104596Y-54433D01*
X104437Y-54327D01*
X104250Y-54289D01*
X104062Y-54327D01*
X103903Y-54433D01*
X103797Y-54592D01*
X103760Y-54779D01*
X103760Y-55070D01*
X103797Y-55257D01*
X103903Y-55416D01*
X104062Y-55523D01*
X104250Y-55560D01*
X104437Y-55523D01*
X104596Y-55416D01*
X104702Y-55257D01*
X104740Y-55070D01*
X104740Y-55705D01*
X103740Y-55705D01*
X103740Y-55070D01*
X103740Y-54779D01*
X103702Y-54592D01*
X103596Y-54433D01*
X103437Y-54327D01*
X103250Y-54289D01*
X103062Y-54327D01*
X102903Y-54433D01*
X102797Y-54592D01*
X102760Y-54779D01*
X102760Y-55070D01*
X102797Y-55257D01*
X102903Y-55416D01*
X103062Y-55523D01*
X103250Y-55560D01*
X103437Y-55523D01*
X103596Y-55416D01*
X103702Y-55257D01*
X103740Y-55070D01*
X103740Y-55705D01*
X102740Y-55705D01*
X102740Y-55070D01*
X102740Y-54779D01*
X102702Y-54592D01*
X102596Y-54433D01*
X102437Y-54327D01*
X102250Y-54289D01*
X102062Y-54327D01*
X101903Y-54433D01*
X101797Y-54592D01*
X101760Y-54779D01*
X101760Y-55070D01*
X101797Y-55257D01*
X101903Y-55416D01*
X102062Y-55523D01*
X102250Y-55560D01*
X102437Y-55523D01*
X102596Y-55416D01*
X102702Y-55257D01*
X102740Y-55070D01*
X102740Y-55705D01*
X85055Y-55705D01*
X85341Y-55587D01*
X85561Y-55367D01*
X85680Y-55081D01*
X85680Y-54770D01*
X85562Y-54483D01*
X85342Y-54263D01*
X85055Y-54144D01*
X84854Y-54144D01*
X84885Y-54113D01*
X84922Y-54024D01*
X84922Y-53890D01*
X84862Y-53830D01*
X84535Y-53830D01*
X84535Y-54157D01*
X84587Y-54209D01*
X84515Y-54239D01*
X84515Y-54157D01*
X84515Y-53830D01*
X84188Y-53830D01*
X84128Y-53890D01*
X84128Y-54024D01*
X84164Y-54113D01*
X84232Y-54180D01*
X84320Y-54217D01*
X84415Y-54217D01*
X84455Y-54217D01*
X84515Y-54157D01*
X84515Y-54239D01*
X84458Y-54263D01*
X84238Y-54482D01*
X84119Y-54769D01*
X84119Y-54893D01*
X84119Y-52915D01*
X84144Y-52940D01*
X84201Y-52978D01*
X84178Y-53035D01*
X84178Y-53110D01*
X84178Y-53424D01*
X84204Y-53487D01*
X84164Y-53527D01*
X84128Y-53615D01*
X84128Y-53750D01*
X84188Y-53810D01*
X84515Y-53810D01*
X84515Y-53802D01*
X84535Y-53802D01*
X84535Y-53810D01*
X84862Y-53810D01*
X84922Y-53750D01*
X84922Y-53615D01*
X84885Y-53527D01*
X84846Y-53487D01*
X84853Y-53470D01*
X84882Y-53470D01*
X84907Y-53465D01*
X85721Y-53465D01*
X85767Y-53511D01*
X85800Y-53525D01*
X85767Y-53539D01*
X85713Y-53592D01*
X85685Y-53662D01*
X85685Y-53737D01*
X85685Y-53987D01*
X85713Y-54057D01*
X85767Y-54111D01*
X85837Y-54140D01*
X85912Y-54140D01*
X86362Y-54140D01*
X86432Y-54111D01*
X86478Y-54065D01*
X86525Y-54065D01*
X86616Y-54046D01*
X86694Y-53994D01*
X86746Y-53917D01*
X86765Y-53825D01*
X86765Y-53005D01*
X86746Y-52913D01*
X86694Y-52835D01*
X86694Y-52835D01*
X86619Y-52760D01*
X86829Y-52760D01*
X86829Y-52770D01*
X86847Y-52862D01*
X86899Y-52940D01*
X86977Y-52992D01*
X87034Y-53003D01*
X87010Y-53062D01*
X87010Y-53137D01*
X87010Y-53387D01*
X87039Y-53457D01*
X87073Y-53492D01*
X87064Y-53496D01*
X86996Y-53564D01*
X86960Y-53652D01*
X86960Y-53755D01*
X87020Y-53815D01*
X87415Y-53815D01*
X87415Y-53807D01*
X87435Y-53807D01*
X87435Y-53815D01*
X87830Y-53815D01*
X87890Y-53755D01*
X87890Y-53652D01*
X87853Y-53564D01*
X87786Y-53496D01*
X87776Y-53492D01*
X87811Y-53457D01*
X87840Y-53387D01*
X87840Y-53312D01*
X87840Y-53062D01*
X87811Y-52992D01*
X87801Y-52982D01*
X87801Y-51201D01*
X87801Y-51125D01*
X87741Y-51065D01*
X87118Y-51065D01*
X87118Y-51333D01*
X87178Y-51393D01*
X87608Y-51393D01*
X87696Y-51357D01*
X87764Y-51289D01*
X87801Y-51201D01*
X87801Y-52982D01*
X87757Y-52939D01*
X87687Y-52910D01*
X87665Y-52910D01*
X87665Y-52900D01*
X87646Y-52808D01*
X87611Y-52755D01*
X87668Y-52731D01*
X87722Y-52678D01*
X87751Y-52608D01*
X87751Y-52532D01*
X87751Y-51745D01*
X87722Y-51676D01*
X87668Y-51622D01*
X87598Y-51593D01*
X87523Y-51593D01*
X87098Y-51593D01*
X87098Y-51333D01*
X87098Y-51065D01*
X86475Y-51065D01*
X86415Y-51125D01*
X86415Y-51128D01*
X86396Y-51083D01*
X86293Y-50980D01*
X86158Y-50924D01*
X86012Y-50924D01*
X85877Y-50979D01*
X85774Y-51083D01*
X85718Y-51217D01*
X85717Y-51363D01*
X85773Y-51498D01*
X85876Y-51602D01*
X86011Y-51658D01*
X86157Y-51658D01*
X86292Y-51602D01*
X86395Y-51499D01*
X86451Y-51364D01*
X86452Y-51290D01*
X86519Y-51357D01*
X86607Y-51393D01*
X87038Y-51393D01*
X87098Y-51333D01*
X87098Y-51593D01*
X86539Y-51593D01*
X86469Y-51622D01*
X86415Y-51676D01*
X86387Y-51745D01*
X86387Y-51821D01*
X86387Y-51937D01*
X86376Y-51937D01*
X85586Y-51937D01*
X85586Y-51745D01*
X85557Y-51676D01*
X85503Y-51622D01*
X85433Y-51593D01*
X85358Y-51593D01*
X85144Y-51593D01*
X85144Y-49266D01*
X85144Y-49256D01*
X85433Y-49256D01*
X85503Y-49227D01*
X85505Y-49225D01*
X85486Y-49254D01*
X85467Y-49346D01*
X85467Y-49743D01*
X85486Y-49835D01*
X85538Y-49913D01*
X86219Y-50594D01*
X86297Y-50646D01*
X86389Y-50665D01*
X86465Y-50665D01*
X86465Y-50679D01*
X86465Y-50807D01*
X86451Y-50820D01*
X86415Y-50908D01*
X86415Y-50985D01*
X86475Y-51045D01*
X87098Y-51045D01*
X87098Y-51037D01*
X87118Y-51037D01*
X87118Y-51045D01*
X87741Y-51045D01*
X87801Y-50985D01*
X87801Y-50908D01*
X87764Y-50820D01*
X87751Y-50807D01*
X87751Y-50800D01*
X87751Y-50603D01*
X87742Y-50582D01*
X87745Y-50574D01*
X87827Y-50608D01*
X87972Y-50608D01*
X88049Y-50576D01*
X88049Y-50614D01*
X88049Y-52110D01*
X88078Y-52180D01*
X88131Y-52234D01*
X88201Y-52263D01*
X88277Y-52263D01*
X88986Y-52263D01*
X89055Y-52234D01*
X89109Y-52180D01*
X89138Y-52110D01*
X89138Y-52035D01*
X89138Y-50539D01*
X89120Y-50495D01*
X89143Y-50518D01*
X89143Y-52852D01*
X88922Y-52852D01*
X88862Y-52912D01*
X88862Y-53515D01*
X88869Y-53515D01*
X88869Y-53535D01*
X88862Y-53535D01*
X88862Y-53543D01*
X88842Y-53543D01*
X88842Y-53535D01*
X88842Y-53515D01*
X88842Y-52912D01*
X88782Y-52852D01*
X88489Y-52852D01*
X88401Y-52888D01*
X88333Y-52956D01*
X88297Y-53044D01*
X88297Y-53139D01*
X88297Y-53455D01*
X88357Y-53515D01*
X88842Y-53515D01*
X88842Y-53535D01*
X88357Y-53535D01*
X88297Y-53595D01*
X88297Y-53910D01*
X88297Y-53921D01*
X88013Y-53921D01*
X87921Y-53940D01*
X87890Y-53961D01*
X87890Y-53895D01*
X87830Y-53835D01*
X87435Y-53835D01*
X87435Y-54130D01*
X87495Y-54190D01*
X87602Y-54190D01*
X87645Y-54190D01*
X87480Y-54355D01*
X87437Y-54327D01*
X87415Y-54322D01*
X87415Y-54130D01*
X87415Y-53835D01*
X87020Y-53835D01*
X86960Y-53895D01*
X86960Y-53997D01*
X86996Y-54086D01*
X87064Y-54153D01*
X87152Y-54190D01*
X87247Y-54190D01*
X87355Y-54190D01*
X87415Y-54130D01*
X87415Y-54322D01*
X87250Y-54289D01*
X87062Y-54327D01*
X86903Y-54433D01*
X86797Y-54592D01*
X86760Y-54779D01*
X86760Y-55070D01*
X86797Y-55257D01*
X86903Y-55416D01*
X87062Y-55523D01*
X87250Y-55560D01*
X87437Y-55523D01*
X87596Y-55416D01*
X87702Y-55257D01*
X87725Y-55141D01*
X87754Y-55274D01*
X87875Y-55447D01*
X88052Y-55560D01*
X88155Y-55589D01*
X88240Y-55538D01*
X88240Y-54935D01*
X88232Y-54935D01*
X88232Y-54915D01*
X88240Y-54915D01*
X88240Y-54907D01*
X88260Y-54907D01*
X88260Y-54915D01*
X88267Y-54915D01*
X88267Y-54935D01*
X88260Y-54935D01*
X88260Y-55538D01*
X88344Y-55589D01*
X88447Y-55560D01*
X88624Y-55447D01*
X88745Y-55274D01*
X88774Y-55141D01*
X88797Y-55257D01*
X88903Y-55416D01*
X89062Y-55523D01*
X89250Y-55560D01*
X89437Y-55523D01*
X89596Y-55416D01*
X89702Y-55257D01*
X89740Y-55070D01*
X89740Y-54779D01*
X89702Y-54592D01*
X89596Y-54433D01*
X89437Y-54327D01*
X89429Y-54325D01*
X89553Y-54201D01*
X89553Y-54201D01*
X89605Y-54123D01*
X89623Y-54031D01*
X89623Y-54031D01*
X89623Y-50659D01*
X90411Y-50659D01*
X90411Y-50712D01*
X90440Y-50782D01*
X90493Y-50836D01*
X90563Y-50865D01*
X90639Y-50865D01*
X91145Y-50865D01*
X91131Y-50879D01*
X90563Y-50879D01*
X90493Y-50908D01*
X90440Y-50961D01*
X90411Y-51031D01*
X90411Y-51106D01*
X90411Y-51618D01*
X90440Y-51688D01*
X90493Y-51742D01*
X90563Y-51771D01*
X90639Y-51771D01*
X91270Y-51771D01*
X91270Y-51785D01*
X90563Y-51785D01*
X90493Y-51814D01*
X90440Y-51867D01*
X90411Y-51937D01*
X90411Y-52012D01*
X90411Y-52524D01*
X90440Y-52594D01*
X90493Y-52648D01*
X90502Y-52652D01*
X90347Y-52652D01*
X90256Y-52670D01*
X90178Y-52722D01*
X90126Y-52800D01*
X90107Y-52892D01*
X90107Y-52902D01*
X89995Y-52902D01*
X89925Y-52931D01*
X89871Y-52984D01*
X89843Y-53054D01*
X89843Y-53129D01*
X89843Y-53995D01*
X89871Y-54065D01*
X89925Y-54119D01*
X89995Y-54148D01*
X90070Y-54148D01*
X90687Y-54148D01*
X90480Y-54355D01*
X90437Y-54327D01*
X90250Y-54289D01*
X90062Y-54327D01*
X89903Y-54433D01*
X89797Y-54592D01*
X89760Y-54779D01*
X89760Y-55070D01*
X89797Y-55257D01*
X89903Y-55416D01*
X90062Y-55523D01*
X90250Y-55560D01*
X90437Y-55523D01*
X90596Y-55416D01*
X90702Y-55257D01*
X90740Y-55070D01*
X90740Y-54779D01*
X90739Y-54775D01*
X90766Y-54748D01*
X90760Y-54779D01*
X90760Y-55070D01*
X90797Y-55257D01*
X90903Y-55416D01*
X91062Y-55523D01*
X91250Y-55560D01*
X91437Y-55523D01*
X91596Y-55416D01*
X91702Y-55257D01*
X91740Y-55070D01*
X91740Y-54779D01*
X91702Y-54592D01*
X91596Y-54433D01*
X91556Y-54406D01*
X91573Y-54406D01*
X91664Y-54388D01*
X91742Y-54336D01*
X93448Y-52631D01*
X93500Y-52553D01*
X93514Y-52480D01*
X93514Y-53321D01*
X92480Y-54355D01*
X92437Y-54327D01*
X92250Y-54289D01*
X92062Y-54327D01*
X91903Y-54433D01*
X91797Y-54592D01*
X91760Y-54779D01*
X91760Y-55070D01*
X91797Y-55257D01*
X91903Y-55416D01*
X92062Y-55523D01*
X92250Y-55560D01*
X92437Y-55523D01*
X92596Y-55416D01*
X92702Y-55257D01*
X92740Y-55070D01*
X92740Y-54779D01*
X92739Y-54775D01*
X92766Y-54748D01*
X92760Y-54779D01*
X92760Y-55070D01*
X92797Y-55257D01*
X92903Y-55416D01*
X93062Y-55523D01*
X93250Y-55560D01*
X93437Y-55523D01*
X93596Y-55416D01*
X93702Y-55257D01*
X93740Y-55070D01*
X93740Y-54779D01*
X93739Y-54775D01*
X93766Y-54748D01*
X93760Y-54779D01*
X93760Y-55070D01*
X93797Y-55257D01*
X93903Y-55416D01*
X94062Y-55523D01*
X94250Y-55560D01*
X94437Y-55523D01*
X94596Y-55416D01*
X94702Y-55257D01*
X94740Y-55070D01*
X94740Y-54779D01*
X94739Y-54775D01*
X94766Y-54748D01*
X94760Y-54779D01*
X94760Y-55070D01*
X94797Y-55257D01*
X94903Y-55416D01*
X95062Y-55523D01*
X95250Y-55560D01*
X95437Y-55523D01*
X95596Y-55416D01*
X95702Y-55257D01*
X95740Y-55070D01*
X95740Y-54779D01*
X95739Y-54775D01*
X95766Y-54748D01*
X95760Y-54779D01*
X95760Y-55070D01*
X95797Y-55257D01*
X95903Y-55416D01*
X96062Y-55523D01*
X96250Y-55560D01*
X96437Y-55523D01*
X96596Y-55416D01*
X96702Y-55257D01*
X96740Y-55070D01*
X96740Y-54779D01*
X96702Y-54592D01*
X96596Y-54433D01*
X96507Y-54374D01*
X96615Y-54266D01*
X96615Y-54266D01*
X96667Y-54188D01*
X96683Y-54107D01*
X96766Y-54142D01*
X96911Y-54142D01*
X97010Y-54101D01*
X97010Y-54292D01*
X97010Y-54362D01*
X96903Y-54433D01*
X96797Y-54592D01*
X96760Y-54779D01*
X96760Y-55070D01*
X96797Y-55257D01*
X96903Y-55416D01*
X97062Y-55523D01*
X97250Y-55560D01*
X97437Y-55523D01*
X97596Y-55416D01*
X97702Y-55257D01*
X97740Y-55070D01*
X97740Y-54779D01*
X97702Y-54592D01*
X97596Y-54433D01*
X97490Y-54362D01*
X97490Y-54292D01*
X97490Y-53871D01*
X97992Y-54374D01*
X97903Y-54433D01*
X97797Y-54592D01*
X97760Y-54779D01*
X97760Y-55070D01*
X97797Y-55257D01*
X97903Y-55416D01*
X98062Y-55523D01*
X98250Y-55560D01*
X98437Y-55523D01*
X98596Y-55416D01*
X98702Y-55257D01*
X98740Y-55070D01*
X98740Y-54779D01*
X98733Y-54748D01*
X98760Y-54775D01*
X98760Y-54779D01*
X98760Y-55070D01*
X98797Y-55257D01*
X98903Y-55416D01*
X99062Y-55523D01*
X99250Y-55560D01*
X99437Y-55523D01*
X99596Y-55416D01*
X99702Y-55257D01*
X99740Y-55070D01*
X99740Y-54779D01*
X99733Y-54748D01*
X99760Y-54775D01*
X99760Y-54779D01*
X99760Y-55070D01*
X99797Y-55257D01*
X99903Y-55416D01*
X100062Y-55523D01*
X100250Y-55560D01*
X100437Y-55523D01*
X100596Y-55416D01*
X100702Y-55257D01*
X100740Y-55070D01*
X100740Y-54779D01*
X100733Y-54748D01*
X100760Y-54775D01*
X100760Y-54779D01*
X100760Y-55070D01*
X100797Y-55257D01*
X100903Y-55416D01*
X101062Y-55523D01*
X101250Y-55560D01*
X101437Y-55523D01*
X101596Y-55416D01*
X101702Y-55257D01*
X101740Y-55070D01*
X101740Y-54779D01*
X101702Y-54592D01*
X101596Y-54433D01*
X101437Y-54327D01*
X101250Y-54289D01*
X101062Y-54327D01*
X101019Y-54355D01*
X100538Y-53874D01*
X100460Y-53822D01*
X100369Y-53804D01*
X100231Y-53804D01*
X99853Y-53425D01*
X99924Y-53440D01*
X99946Y-53440D01*
X99963Y-53482D01*
X100017Y-53536D01*
X100087Y-53565D01*
X100162Y-53565D01*
X100712Y-53565D01*
X100782Y-53536D01*
X100836Y-53482D01*
X100865Y-53412D01*
X100865Y-53337D01*
X100865Y-52987D01*
X100836Y-52917D01*
X100782Y-52864D01*
X100753Y-52852D01*
X100810Y-52828D01*
X100878Y-52761D01*
X100915Y-52672D01*
X100915Y-52520D01*
X100915Y-52380D01*
X100915Y-52227D01*
X100878Y-52139D01*
X100810Y-52071D01*
X100722Y-52035D01*
X100627Y-52035D01*
X100470Y-52035D01*
X100410Y-52095D01*
X100410Y-52440D01*
X100855Y-52440D01*
X100915Y-52380D01*
X100915Y-52520D01*
X100855Y-52460D01*
X100410Y-52460D01*
X100410Y-52468D01*
X100390Y-52468D01*
X100390Y-52460D01*
X100382Y-52460D01*
X100382Y-52440D01*
X100390Y-52440D01*
X100390Y-52095D01*
X100330Y-52035D01*
X100172Y-52035D01*
X100077Y-52035D01*
X99989Y-52071D01*
X99921Y-52139D01*
X99885Y-52227D01*
X99885Y-52350D01*
X99481Y-51946D01*
X99508Y-51946D01*
X99642Y-51891D01*
X99744Y-51788D01*
X99799Y-51656D01*
X99865Y-51684D01*
X100010Y-51684D01*
X100144Y-51628D01*
X100247Y-51526D01*
X100292Y-51418D01*
X100337Y-51529D01*
X100440Y-51632D01*
X100574Y-51687D01*
X100719Y-51687D01*
X100854Y-51632D01*
X100956Y-51529D01*
X101012Y-51395D01*
X101012Y-51250D01*
X100957Y-51116D01*
X100854Y-51013D01*
X100720Y-50957D01*
X100621Y-50957D01*
X100554Y-50889D01*
X100662Y-50889D01*
X100732Y-50860D01*
X100786Y-50807D01*
X100815Y-50737D01*
X100815Y-50662D01*
X100815Y-50412D01*
X100786Y-50342D01*
X100751Y-50307D01*
X100760Y-50303D01*
X100828Y-50235D01*
X100865Y-50147D01*
X100865Y-50044D01*
X100865Y-49904D01*
X100865Y-49802D01*
X100828Y-49713D01*
X100764Y-49650D01*
X100828Y-49586D01*
X100865Y-49497D01*
X100865Y-49395D01*
X100805Y-49335D01*
X100410Y-49335D01*
X100410Y-49630D01*
X100429Y-49650D01*
X100410Y-49669D01*
X100410Y-49964D01*
X100805Y-49964D01*
X100865Y-49904D01*
X100865Y-50044D01*
X100805Y-49984D01*
X100410Y-49984D01*
X100410Y-49992D01*
X100390Y-49992D01*
X100390Y-49984D01*
X99995Y-49984D01*
X99935Y-50044D01*
X99935Y-50147D01*
X99971Y-50235D01*
X100037Y-50301D01*
X99970Y-50256D01*
X99878Y-50238D01*
X99308Y-50238D01*
X99256Y-50203D01*
X99234Y-50199D01*
X99234Y-50180D01*
X99174Y-50120D01*
X98748Y-50120D01*
X98748Y-50126D01*
X98728Y-50126D01*
X98728Y-50120D01*
X98302Y-50120D01*
X98280Y-50142D01*
X98255Y-50117D01*
X98121Y-50061D01*
X97976Y-50061D01*
X97842Y-50117D01*
X97739Y-50219D01*
X97683Y-50353D01*
X97683Y-50452D01*
X97635Y-50500D01*
X94706Y-50500D01*
X94706Y-50495D01*
X94646Y-50435D01*
X94220Y-50435D01*
X94220Y-50441D01*
X94200Y-50441D01*
X94200Y-50435D01*
X94192Y-50435D01*
X94192Y-50415D01*
X94200Y-50415D01*
X94200Y-50408D01*
X94220Y-50408D01*
X94220Y-50415D01*
X94646Y-50415D01*
X94670Y-50391D01*
X94760Y-50428D01*
X94905Y-50428D01*
X95039Y-50373D01*
X95142Y-50270D01*
X95197Y-50136D01*
X95198Y-49991D01*
X95142Y-49857D01*
X95040Y-49754D01*
X94905Y-49698D01*
X94763Y-49698D01*
X94803Y-49671D01*
X94875Y-49671D01*
X95010Y-49616D01*
X95112Y-49513D01*
X95144Y-49437D01*
X95397Y-49690D01*
X95397Y-49690D01*
X95475Y-49742D01*
X95567Y-49760D01*
X96400Y-49760D01*
X96469Y-49829D01*
X96603Y-49885D01*
X96749Y-49885D01*
X96883Y-49830D01*
X96986Y-49727D01*
X97041Y-49593D01*
X97041Y-49448D01*
X97012Y-49375D01*
X97374Y-49375D01*
X97443Y-49444D01*
X97577Y-49500D01*
X97722Y-49500D01*
X97856Y-49445D01*
X97959Y-49342D01*
X98015Y-49208D01*
X98015Y-49092D01*
X98062Y-49112D01*
X98207Y-49112D01*
X98292Y-49077D01*
X98292Y-49094D01*
X98292Y-49311D01*
X98297Y-49322D01*
X98292Y-49333D01*
X98292Y-49409D01*
X98292Y-49626D01*
X98297Y-49637D01*
X98292Y-49648D01*
X98292Y-49724D01*
X98292Y-49852D01*
X98279Y-49865D01*
X98242Y-49953D01*
X98242Y-50040D01*
X98302Y-50100D01*
X98728Y-50100D01*
X98728Y-50093D01*
X98748Y-50093D01*
X98748Y-50100D01*
X99174Y-50100D01*
X99234Y-50040D01*
X99234Y-50035D01*
X99337Y-50035D01*
X99406Y-50104D01*
X99540Y-50160D01*
X99685Y-50160D01*
X99819Y-50104D01*
X99922Y-50002D01*
X99954Y-49924D01*
X99995Y-49964D01*
X100390Y-49964D01*
X100390Y-49669D01*
X100370Y-49650D01*
X100390Y-49630D01*
X100390Y-49335D01*
X100382Y-49335D01*
X100382Y-49315D01*
X100390Y-49315D01*
X100390Y-49307D01*
X100410Y-49307D01*
X100410Y-49315D01*
X100805Y-49315D01*
X100865Y-49255D01*
X100865Y-49152D01*
X100828Y-49064D01*
X100760Y-48996D01*
X100751Y-48992D01*
X100786Y-48957D01*
X100815Y-48887D01*
X100815Y-48812D01*
X100815Y-48808D01*
X100890Y-48884D01*
X101024Y-48940D01*
X101169Y-48940D01*
X101241Y-48910D01*
X101241Y-49695D01*
X101270Y-49765D01*
X101324Y-49818D01*
X101393Y-49847D01*
X101469Y-49847D01*
X102256Y-49847D01*
X102326Y-49818D01*
X102379Y-49765D01*
X102408Y-49695D01*
X102408Y-49619D01*
X102408Y-48815D01*
X102849Y-48815D01*
X102851Y-48814D01*
X102896Y-48814D01*
X102923Y-48842D01*
X102913Y-48846D01*
X102846Y-48913D01*
X102809Y-49002D01*
X102809Y-49104D01*
X102869Y-49164D01*
X103264Y-49164D01*
X103264Y-49156D01*
X103284Y-49156D01*
X103284Y-49164D01*
X103292Y-49164D01*
X103292Y-49184D01*
X103284Y-49184D01*
X103284Y-49479D01*
X103344Y-49539D01*
X103452Y-49539D01*
X103547Y-49539D01*
X103635Y-49503D01*
X103703Y-49435D01*
X103739Y-49347D01*
X103739Y-49244D01*
X103679Y-49184D01*
X103725Y-49184D01*
X103783Y-49271D01*
X103942Y-49377D01*
X104129Y-49415D01*
X104420Y-49415D01*
X104607Y-49377D01*
X104766Y-49271D01*
X104872Y-49112D01*
X104910Y-48925D01*
X104896Y-48856D01*
X104973Y-48856D01*
X105107Y-48800D01*
X105177Y-48731D01*
X105833Y-48731D01*
X105925Y-48712D01*
X106003Y-48660D01*
X106154Y-48509D01*
X106163Y-48532D01*
X106217Y-48586D01*
X106287Y-48615D01*
X106362Y-48615D01*
X106605Y-48615D01*
X106598Y-48621D01*
X106515Y-48621D01*
X106445Y-48650D01*
X106391Y-48703D01*
X106363Y-48773D01*
X106363Y-48848D01*
X106363Y-49242D01*
X106391Y-49312D01*
X106445Y-49366D01*
X106515Y-49395D01*
X106590Y-49395D01*
X106907Y-49395D01*
X106907Y-51405D01*
X106899Y-51405D01*
X106820Y-51405D01*
X106760Y-51465D01*
X106760Y-51832D01*
X106767Y-51832D01*
X106767Y-51852D01*
X106760Y-51852D01*
X106760Y-52219D01*
X106810Y-52269D01*
X106810Y-52271D01*
X106763Y-52317D01*
X106750Y-52350D01*
X106736Y-52317D01*
X106688Y-52270D01*
X106740Y-52219D01*
X106740Y-51852D01*
X106740Y-51832D01*
X106740Y-51465D01*
X106680Y-51405D01*
X106600Y-51405D01*
X106505Y-51405D01*
X106417Y-51441D01*
X106349Y-51509D01*
X106313Y-51597D01*
X106313Y-51772D01*
X106373Y-51832D01*
X106740Y-51832D01*
X106740Y-51852D01*
X106373Y-51852D01*
X106313Y-51912D01*
X106313Y-52086D01*
X106349Y-52175D01*
X106409Y-52235D01*
X106287Y-52235D01*
X106217Y-52263D01*
X106163Y-52317D01*
X106135Y-52387D01*
X106135Y-52410D01*
X106124Y-52410D01*
X106033Y-52428D01*
X105955Y-52480D01*
X105750Y-52685D01*
X104939Y-52685D01*
X104939Y-51019D01*
X104939Y-50830D01*
X104910Y-50727D01*
X104796Y-50550D01*
X104623Y-50430D01*
X104490Y-50401D01*
X104607Y-50377D01*
X104766Y-50271D01*
X104872Y-50112D01*
X104910Y-49925D01*
X104872Y-49737D01*
X104766Y-49578D01*
X104607Y-49472D01*
X104420Y-49435D01*
X104129Y-49435D01*
X103942Y-49472D01*
X103783Y-49578D01*
X103739Y-49643D01*
X103676Y-49737D01*
X103639Y-49925D01*
X103676Y-50112D01*
X103783Y-50271D01*
X103942Y-50377D01*
X104058Y-50401D01*
X103925Y-50430D01*
X103752Y-50550D01*
X103639Y-50727D01*
X103610Y-50830D01*
X103661Y-50915D01*
X104264Y-50915D01*
X104264Y-50907D01*
X104284Y-50907D01*
X104284Y-50915D01*
X104887Y-50915D01*
X104939Y-50830D01*
X104939Y-51019D01*
X104887Y-50935D01*
X104284Y-50935D01*
X104284Y-50943D01*
X104264Y-50943D01*
X104264Y-50935D01*
X103661Y-50935D01*
X103610Y-51019D01*
X103639Y-51122D01*
X103752Y-51299D01*
X103925Y-51420D01*
X104058Y-51449D01*
X103942Y-51472D01*
X103783Y-51578D01*
X103739Y-51643D01*
X103725Y-51664D01*
X103679Y-51664D01*
X103739Y-51604D01*
X103739Y-51502D01*
X103703Y-51413D01*
X103635Y-51346D01*
X103547Y-51309D01*
X103452Y-51309D01*
X103344Y-51309D01*
X103284Y-51369D01*
X103284Y-51664D01*
X103292Y-51664D01*
X103292Y-51684D01*
X103284Y-51684D01*
X103284Y-51692D01*
X103264Y-51692D01*
X103264Y-51684D01*
X103264Y-51664D01*
X103264Y-51369D01*
X103264Y-49479D01*
X103264Y-49184D01*
X102869Y-49184D01*
X102809Y-49244D01*
X102809Y-49347D01*
X102846Y-49435D01*
X102913Y-49503D01*
X103002Y-49539D01*
X103097Y-49539D01*
X103204Y-49539D01*
X103264Y-49479D01*
X103264Y-51369D01*
X103204Y-51309D01*
X103097Y-51309D01*
X103002Y-51309D01*
X102913Y-51346D01*
X102846Y-51413D01*
X102809Y-51502D01*
X102809Y-51604D01*
X102869Y-51664D01*
X103264Y-51664D01*
X103264Y-51684D01*
X102869Y-51684D01*
X102809Y-51744D01*
X102809Y-51847D01*
X102846Y-51935D01*
X102913Y-52003D01*
X102923Y-52007D01*
X102896Y-52034D01*
X102849Y-52034D01*
X102847Y-52035D01*
X102408Y-52035D01*
X102408Y-51154D01*
X102379Y-51085D01*
X102326Y-51031D01*
X102256Y-51002D01*
X102180Y-51002D01*
X101393Y-51002D01*
X101324Y-51031D01*
X101270Y-51085D01*
X101241Y-51154D01*
X101241Y-51230D01*
X101241Y-53395D01*
X101270Y-53465D01*
X101324Y-53518D01*
X101393Y-53547D01*
X101469Y-53547D01*
X102256Y-53547D01*
X102326Y-53518D01*
X102379Y-53465D01*
X102408Y-53395D01*
X102408Y-53319D01*
X102408Y-52515D01*
X102849Y-52515D01*
X102851Y-52514D01*
X102896Y-52514D01*
X102942Y-52560D01*
X102950Y-52564D01*
X102909Y-52661D01*
X102909Y-52806D01*
X102965Y-52941D01*
X103067Y-53043D01*
X103201Y-53099D01*
X103347Y-53099D01*
X103481Y-53044D01*
X103584Y-52941D01*
X103639Y-52807D01*
X103639Y-52662D01*
X103599Y-52564D01*
X103607Y-52560D01*
X103660Y-52507D01*
X103689Y-52437D01*
X103689Y-52362D01*
X103689Y-52132D01*
X103783Y-52271D01*
X103942Y-52377D01*
X104129Y-52415D01*
X104420Y-52415D01*
X104607Y-52377D01*
X104766Y-52271D01*
X104872Y-52112D01*
X104910Y-51925D01*
X104872Y-51737D01*
X104766Y-51578D01*
X104607Y-51472D01*
X104490Y-51449D01*
X104623Y-51420D01*
X104796Y-51299D01*
X104910Y-51122D01*
X104939Y-51019D01*
X104939Y-52685D01*
X104897Y-52685D01*
X104897Y-52587D01*
X104868Y-52517D01*
X104815Y-52464D01*
X104745Y-52435D01*
X104670Y-52435D01*
X103804Y-52435D01*
X103734Y-52464D01*
X103680Y-52517D01*
X103651Y-52587D01*
X103651Y-52662D01*
X103651Y-53262D01*
X103680Y-53332D01*
X103734Y-53386D01*
X103804Y-53415D01*
X103879Y-53415D01*
X104745Y-53415D01*
X104815Y-53386D01*
X104868Y-53332D01*
X104897Y-53262D01*
X104897Y-53187D01*
X104897Y-53165D01*
X105849Y-53165D01*
X105941Y-53146D01*
X106019Y-53094D01*
X106154Y-52959D01*
X106163Y-52982D01*
X106217Y-53036D01*
X106287Y-53065D01*
X106362Y-53065D01*
X106612Y-53065D01*
X106682Y-53036D01*
X106736Y-52982D01*
X106749Y-52949D01*
X106763Y-52982D01*
X106817Y-53036D01*
X106887Y-53065D01*
X106962Y-53065D01*
X107212Y-53065D01*
X107282Y-53036D01*
X107336Y-52982D01*
X107365Y-52912D01*
X107365Y-52837D01*
X107365Y-52387D01*
X107336Y-52317D01*
X107316Y-52297D01*
X107316Y-52297D01*
X107368Y-52219D01*
X107380Y-52161D01*
X107380Y-54770D01*
X107380Y-54770D01*
G37*
G54D32*
X107380Y-54770D02*
X107262Y-54483D01*
X107042Y-54263D01*
X106755Y-54144D01*
X106445Y-54144D01*
X106158Y-54263D01*
X105938Y-54482D01*
X105819Y-54769D01*
X105819Y-55079D01*
X105937Y-55366D01*
X106157Y-55586D01*
X106443Y-55705D01*
X104740Y-55705D01*
X104740Y-55070D01*
X104740Y-54779D01*
X104702Y-54592D01*
X104596Y-54433D01*
X104437Y-54327D01*
X104250Y-54289D01*
X104062Y-54327D01*
X103903Y-54433D01*
X103797Y-54592D01*
X103760Y-54779D01*
X103760Y-55070D01*
X103797Y-55257D01*
X103903Y-55416D01*
X104062Y-55523D01*
X104250Y-55560D01*
X104437Y-55523D01*
X104596Y-55416D01*
X104702Y-55257D01*
X104740Y-55070D01*
X104740Y-55705D01*
X103740Y-55705D01*
X103740Y-55070D01*
X103740Y-54779D01*
X103702Y-54592D01*
X103596Y-54433D01*
X103437Y-54327D01*
X103250Y-54289D01*
X103062Y-54327D01*
X102903Y-54433D01*
X102797Y-54592D01*
X102760Y-54779D01*
X102760Y-55070D01*
X102797Y-55257D01*
X102903Y-55416D01*
X103062Y-55523D01*
X103250Y-55560D01*
X103437Y-55523D01*
X103596Y-55416D01*
X103702Y-55257D01*
X103740Y-55070D01*
X103740Y-55705D01*
X102740Y-55705D01*
X102740Y-55070D01*
X102740Y-54779D01*
X102702Y-54592D01*
X102596Y-54433D01*
X102437Y-54327D01*
X102250Y-54289D01*
X102062Y-54327D01*
X101903Y-54433D01*
X101797Y-54592D01*
X101760Y-54779D01*
X101760Y-55070D01*
X101797Y-55257D01*
X101903Y-55416D01*
X102062Y-55523D01*
X102250Y-55560D01*
X102437Y-55523D01*
X102596Y-55416D01*
X102702Y-55257D01*
X102740Y-55070D01*
X102740Y-55705D01*
X85055Y-55705D01*
X85341Y-55587D01*
X85561Y-55367D01*
X85680Y-55081D01*
X85680Y-54770D01*
X85562Y-54483D01*
X85342Y-54263D01*
X85055Y-54144D01*
X84854Y-54144D01*
X84885Y-54113D01*
X84922Y-54024D01*
X84922Y-53890D01*
X84862Y-53830D01*
X84535Y-53830D01*
X84535Y-54157D01*
X84587Y-54209D01*
X84515Y-54239D01*
X84515Y-54157D01*
X84515Y-53830D01*
X84188Y-53830D01*
X84128Y-53890D01*
X84128Y-54024D01*
X84164Y-54113D01*
X84232Y-54180D01*
X84320Y-54217D01*
X84415Y-54217D01*
X84455Y-54217D01*
X84515Y-54157D01*
X84515Y-54239D01*
X84458Y-54263D01*
X84238Y-54482D01*
X84119Y-54769D01*
X84119Y-54893D01*
X84119Y-52915D01*
X84144Y-52940D01*
X84201Y-52978D01*
X84178Y-53035D01*
X84178Y-53110D01*
X84178Y-53424D01*
X84204Y-53487D01*
X84164Y-53527D01*
X84128Y-53615D01*
X84128Y-53750D01*
X84188Y-53810D01*
X84515Y-53810D01*
X84515Y-53802D01*
X84535Y-53802D01*
X84535Y-53810D01*
X84862Y-53810D01*
X84922Y-53750D01*
X84922Y-53615D01*
X84885Y-53527D01*
X84846Y-53487D01*
X84853Y-53470D01*
X84882Y-53470D01*
X84907Y-53465D01*
X85721Y-53465D01*
X85767Y-53511D01*
X85800Y-53525D01*
X85767Y-53539D01*
X85713Y-53592D01*
X85685Y-53662D01*
X85685Y-53737D01*
X85685Y-53987D01*
X85713Y-54057D01*
X85767Y-54111D01*
X85837Y-54140D01*
X85912Y-54140D01*
X86362Y-54140D01*
X86432Y-54111D01*
X86478Y-54065D01*
X86525Y-54065D01*
X86616Y-54046D01*
X86694Y-53994D01*
X86746Y-53917D01*
X86765Y-53825D01*
X86765Y-53005D01*
X86746Y-52913D01*
X86694Y-52835D01*
X86694Y-52835D01*
X86619Y-52760D01*
X86829Y-52760D01*
X86829Y-52770D01*
X86847Y-52862D01*
X86899Y-52940D01*
X86977Y-52992D01*
X87034Y-53003D01*
X87010Y-53062D01*
X87010Y-53137D01*
X87010Y-53387D01*
X87039Y-53457D01*
X87073Y-53492D01*
X87064Y-53496D01*
X86996Y-53564D01*
X86960Y-53652D01*
X86960Y-53755D01*
X87020Y-53815D01*
X87415Y-53815D01*
X87415Y-53807D01*
X87435Y-53807D01*
X87435Y-53815D01*
X87830Y-53815D01*
X87890Y-53755D01*
X87890Y-53652D01*
X87853Y-53564D01*
X87786Y-53496D01*
X87776Y-53492D01*
X87811Y-53457D01*
X87840Y-53387D01*
X87840Y-53312D01*
X87840Y-53062D01*
X87811Y-52992D01*
X87801Y-52982D01*
X87801Y-51201D01*
X87801Y-51125D01*
X87741Y-51065D01*
X87118Y-51065D01*
X87118Y-51333D01*
X87178Y-51393D01*
X87608Y-51393D01*
X87696Y-51357D01*
X87764Y-51289D01*
X87801Y-51201D01*
X87801Y-52982D01*
X87757Y-52939D01*
X87687Y-52910D01*
X87665Y-52910D01*
X87665Y-52900D01*
X87646Y-52808D01*
X87611Y-52755D01*
X87668Y-52731D01*
X87722Y-52678D01*
X87751Y-52608D01*
X87751Y-52532D01*
X87751Y-51745D01*
X87722Y-51676D01*
X87668Y-51622D01*
X87598Y-51593D01*
X87523Y-51593D01*
X87098Y-51593D01*
X87098Y-51333D01*
X87098Y-51065D01*
X86475Y-51065D01*
X86415Y-51125D01*
X86415Y-51128D01*
X86396Y-51083D01*
X86293Y-50980D01*
X86158Y-50924D01*
X86012Y-50924D01*
X85877Y-50979D01*
X85774Y-51083D01*
X85718Y-51217D01*
X85717Y-51363D01*
X85773Y-51498D01*
X85876Y-51602D01*
X86011Y-51658D01*
X86157Y-51658D01*
X86292Y-51602D01*
X86395Y-51499D01*
X86451Y-51364D01*
X86452Y-51290D01*
X86519Y-51357D01*
X86607Y-51393D01*
X87038Y-51393D01*
X87098Y-51333D01*
X87098Y-51593D01*
X86539Y-51593D01*
X86469Y-51622D01*
X86415Y-51676D01*
X86387Y-51745D01*
X86387Y-51821D01*
X86387Y-51937D01*
X86376Y-51937D01*
X85586Y-51937D01*
X85586Y-51745D01*
X85557Y-51676D01*
X85503Y-51622D01*
X85433Y-51593D01*
X85358Y-51593D01*
X85144Y-51593D01*
X85144Y-49266D01*
X85144Y-49256D01*
X85433Y-49256D01*
X85503Y-49227D01*
X85505Y-49225D01*
X85486Y-49254D01*
X85467Y-49346D01*
X85467Y-49743D01*
X85486Y-49835D01*
X85538Y-49913D01*
X86219Y-50594D01*
X86297Y-50646D01*
X86389Y-50665D01*
X86465Y-50665D01*
X86465Y-50679D01*
X86465Y-50807D01*
X86451Y-50820D01*
X86415Y-50908D01*
X86415Y-50985D01*
X86475Y-51045D01*
X87098Y-51045D01*
X87098Y-51037D01*
X87118Y-51037D01*
X87118Y-51045D01*
X87741Y-51045D01*
X87801Y-50985D01*
X87801Y-50908D01*
X87764Y-50820D01*
X87751Y-50807D01*
X87751Y-50800D01*
X87751Y-50603D01*
X87742Y-50582D01*
X87745Y-50574D01*
X87827Y-50608D01*
X87972Y-50608D01*
X88049Y-50576D01*
X88049Y-50614D01*
X88049Y-52110D01*
X88078Y-52180D01*
X88131Y-52234D01*
X88201Y-52263D01*
X88277Y-52263D01*
X88986Y-52263D01*
X89055Y-52234D01*
X89109Y-52180D01*
X89138Y-52110D01*
X89138Y-52035D01*
X89138Y-50539D01*
X89120Y-50495D01*
X89143Y-50518D01*
X89143Y-52852D01*
X88922Y-52852D01*
X88862Y-52912D01*
X88862Y-53515D01*
X88869Y-53515D01*
X88869Y-53535D01*
X88862Y-53535D01*
X88862Y-53543D01*
X88842Y-53543D01*
X88842Y-53535D01*
X88842Y-53515D01*
X88842Y-52912D01*
X88782Y-52852D01*
X88489Y-52852D01*
X88401Y-52888D01*
X88333Y-52956D01*
X88297Y-53044D01*
X88297Y-53139D01*
X88297Y-53455D01*
X88357Y-53515D01*
X88842Y-53515D01*
X88842Y-53535D01*
X88357Y-53535D01*
X88297Y-53595D01*
X88297Y-53910D01*
X88297Y-53921D01*
X88013Y-53921D01*
X87921Y-53940D01*
X87890Y-53961D01*
X87890Y-53895D01*
X87830Y-53835D01*
X87435Y-53835D01*
X87435Y-54130D01*
X87495Y-54190D01*
X87602Y-54190D01*
X87645Y-54190D01*
X87480Y-54355D01*
X87437Y-54327D01*
X87415Y-54322D01*
X87415Y-54130D01*
X87415Y-53835D01*
X87020Y-53835D01*
X86960Y-53895D01*
X86960Y-53997D01*
X86996Y-54086D01*
X87064Y-54153D01*
X87152Y-54190D01*
X87247Y-54190D01*
X87355Y-54190D01*
X87415Y-54130D01*
X87415Y-54322D01*
X87250Y-54289D01*
X87062Y-54327D01*
X86903Y-54433D01*
X86797Y-54592D01*
X86760Y-54779D01*
X86760Y-55070D01*
X86797Y-55257D01*
X86903Y-55416D01*
X87062Y-55523D01*
X87250Y-55560D01*
X87437Y-55523D01*
X87596Y-55416D01*
X87702Y-55257D01*
X87725Y-55141D01*
X87754Y-55274D01*
X87875Y-55447D01*
X88052Y-55560D01*
X88155Y-55589D01*
X88240Y-55538D01*
X88240Y-54935D01*
X88232Y-54935D01*
X88232Y-54915D01*
X88240Y-54915D01*
X88240Y-54907D01*
X88260Y-54907D01*
X88260Y-54915D01*
X88267Y-54915D01*
X88267Y-54935D01*
X88260Y-54935D01*
X88260Y-55538D01*
X88344Y-55589D01*
X88447Y-55560D01*
X88624Y-55447D01*
X88745Y-55274D01*
X88774Y-55141D01*
X88797Y-55257D01*
X88903Y-55416D01*
X89062Y-55523D01*
X89250Y-55560D01*
X89437Y-55523D01*
X89596Y-55416D01*
X89702Y-55257D01*
X89740Y-55070D01*
X89740Y-54779D01*
X89702Y-54592D01*
X89596Y-54433D01*
X89437Y-54327D01*
X89429Y-54325D01*
X89553Y-54201D01*
X89553Y-54201D01*
X89605Y-54123D01*
X89623Y-54031D01*
X89623Y-54031D01*
X89623Y-50659D01*
X90411Y-50659D01*
X90411Y-50712D01*
X90440Y-50782D01*
X90493Y-50836D01*
X90563Y-50865D01*
X90639Y-50865D01*
X91145Y-50865D01*
X91131Y-50879D01*
X90563Y-50879D01*
X90493Y-50908D01*
X90440Y-50961D01*
X90411Y-51031D01*
X90411Y-51106D01*
X90411Y-51618D01*
X90440Y-51688D01*
X90493Y-51742D01*
X90563Y-51771D01*
X90639Y-51771D01*
X91270Y-51771D01*
X91270Y-51785D01*
X90563Y-51785D01*
X90493Y-51814D01*
X90440Y-51867D01*
X90411Y-51937D01*
X90411Y-52012D01*
X90411Y-52524D01*
X90440Y-52594D01*
X90493Y-52648D01*
X90502Y-52652D01*
X90347Y-52652D01*
X90256Y-52670D01*
X90178Y-52722D01*
X90126Y-52800D01*
X90107Y-52892D01*
X90107Y-52902D01*
X89995Y-52902D01*
X89925Y-52931D01*
X89871Y-52984D01*
X89843Y-53054D01*
X89843Y-53129D01*
X89843Y-53995D01*
X89871Y-54065D01*
X89925Y-54119D01*
X89995Y-54148D01*
X90070Y-54148D01*
X90687Y-54148D01*
X90480Y-54355D01*
X90437Y-54327D01*
X90250Y-54289D01*
X90062Y-54327D01*
X89903Y-54433D01*
X89797Y-54592D01*
X89760Y-54779D01*
X89760Y-55070D01*
X89797Y-55257D01*
X89903Y-55416D01*
X90062Y-55523D01*
X90250Y-55560D01*
X90437Y-55523D01*
X90596Y-55416D01*
X90702Y-55257D01*
X90740Y-55070D01*
X90740Y-54779D01*
X90739Y-54775D01*
X90766Y-54748D01*
X90760Y-54779D01*
X90760Y-55070D01*
X90797Y-55257D01*
X90903Y-55416D01*
X91062Y-55523D01*
X91250Y-55560D01*
X91437Y-55523D01*
X91596Y-55416D01*
X91702Y-55257D01*
X91740Y-55070D01*
X91740Y-54779D01*
X91702Y-54592D01*
X91596Y-54433D01*
X91556Y-54406D01*
X91573Y-54406D01*
X91664Y-54388D01*
X91742Y-54336D01*
X93448Y-52631D01*
X93500Y-52553D01*
X93514Y-52480D01*
X93514Y-53321D01*
X92480Y-54355D01*
X92437Y-54327D01*
X92250Y-54289D01*
X92062Y-54327D01*
X91903Y-54433D01*
X91797Y-54592D01*
X91760Y-54779D01*
X91760Y-55070D01*
X91797Y-55257D01*
X91903Y-55416D01*
X92062Y-55523D01*
X92250Y-55560D01*
X92437Y-55523D01*
X92596Y-55416D01*
X92702Y-55257D01*
X92740Y-55070D01*
X92740Y-54779D01*
X92739Y-54775D01*
X92766Y-54748D01*
X92760Y-54779D01*
X92760Y-55070D01*
X92797Y-55257D01*
X92903Y-55416D01*
X93062Y-55523D01*
X93250Y-55560D01*
X93437Y-55523D01*
X93596Y-55416D01*
X93702Y-55257D01*
X93740Y-55070D01*
X93740Y-54779D01*
X93739Y-54775D01*
X93766Y-54748D01*
X93760Y-54779D01*
X93760Y-55070D01*
X93797Y-55257D01*
X93903Y-55416D01*
X94062Y-55523D01*
X94250Y-55560D01*
X94437Y-55523D01*
X94596Y-55416D01*
X94702Y-55257D01*
X94740Y-55070D01*
X94740Y-54779D01*
X94739Y-54775D01*
X94766Y-54748D01*
X94760Y-54779D01*
X94760Y-55070D01*
X94797Y-55257D01*
X94903Y-55416D01*
X95062Y-55523D01*
X95250Y-55560D01*
X95437Y-55523D01*
X95596Y-55416D01*
X95702Y-55257D01*
X95740Y-55070D01*
X95740Y-54779D01*
X95739Y-54775D01*
X95766Y-54748D01*
X95760Y-54779D01*
X95760Y-55070D01*
X95797Y-55257D01*
X95903Y-55416D01*
X96062Y-55523D01*
X96250Y-55560D01*
X96437Y-55523D01*
X96596Y-55416D01*
X96702Y-55257D01*
X96740Y-55070D01*
X96740Y-54779D01*
X96702Y-54592D01*
X96596Y-54433D01*
X96507Y-54374D01*
X96615Y-54266D01*
X96615Y-54266D01*
X96667Y-54188D01*
X96683Y-54107D01*
X96766Y-54142D01*
X96911Y-54142D01*
X97010Y-54101D01*
X97010Y-54292D01*
X97010Y-54362D01*
X96903Y-54433D01*
X96797Y-54592D01*
X96760Y-54779D01*
X96760Y-55070D01*
X96797Y-55257D01*
X96903Y-55416D01*
X97062Y-55523D01*
X97250Y-55560D01*
X97437Y-55523D01*
X97596Y-55416D01*
X97702Y-55257D01*
X97740Y-55070D01*
X97740Y-54779D01*
X97702Y-54592D01*
X97596Y-54433D01*
X97490Y-54362D01*
X97490Y-54292D01*
X97490Y-53871D01*
X97992Y-54374D01*
X97903Y-54433D01*
X97797Y-54592D01*
X97760Y-54779D01*
X97760Y-55070D01*
X97797Y-55257D01*
X97903Y-55416D01*
X98062Y-55523D01*
X98250Y-55560D01*
X98437Y-55523D01*
X98596Y-55416D01*
X98702Y-55257D01*
X98740Y-55070D01*
X98740Y-54779D01*
X98733Y-54748D01*
X98760Y-54775D01*
X98760Y-54779D01*
X98760Y-55070D01*
X98797Y-55257D01*
X98903Y-55416D01*
X99062Y-55523D01*
X99250Y-55560D01*
X99437Y-55523D01*
X99596Y-55416D01*
X99702Y-55257D01*
X99740Y-55070D01*
X99740Y-54779D01*
X99733Y-54748D01*
X99760Y-54775D01*
X99760Y-54779D01*
X99760Y-55070D01*
X99797Y-55257D01*
X99903Y-55416D01*
X100062Y-55523D01*
X100250Y-55560D01*
X100437Y-55523D01*
X100596Y-55416D01*
X100702Y-55257D01*
X100740Y-55070D01*
X100740Y-54779D01*
X100733Y-54748D01*
X100760Y-54775D01*
X100760Y-54779D01*
X100760Y-55070D01*
X100797Y-55257D01*
X100903Y-55416D01*
X101062Y-55523D01*
X101250Y-55560D01*
X101437Y-55523D01*
X101596Y-55416D01*
X101702Y-55257D01*
X101740Y-55070D01*
X101740Y-54779D01*
X101702Y-54592D01*
X101596Y-54433D01*
X101437Y-54327D01*
X101250Y-54289D01*
X101062Y-54327D01*
X101019Y-54355D01*
X100538Y-53874D01*
X100460Y-53822D01*
X100369Y-53804D01*
X100231Y-53804D01*
X99853Y-53425D01*
X99924Y-53440D01*
X99946Y-53440D01*
X99963Y-53482D01*
X100017Y-53536D01*
X100087Y-53565D01*
X100162Y-53565D01*
X100712Y-53565D01*
X100782Y-53536D01*
X100836Y-53482D01*
X100865Y-53412D01*
X100865Y-53337D01*
X100865Y-52987D01*
X100836Y-52917D01*
X100782Y-52864D01*
X100753Y-52852D01*
X100810Y-52828D01*
X100878Y-52761D01*
X100915Y-52672D01*
X100915Y-52520D01*
X100915Y-52380D01*
X100915Y-52227D01*
X100878Y-52139D01*
X100810Y-52071D01*
X100722Y-52035D01*
X100627Y-52035D01*
X100470Y-52035D01*
X100410Y-52095D01*
X100410Y-52440D01*
X100855Y-52440D01*
X100915Y-52380D01*
X100915Y-52520D01*
X100855Y-52460D01*
X100410Y-52460D01*
X100410Y-52468D01*
X100390Y-52468D01*
X100390Y-52460D01*
X100382Y-52460D01*
X100382Y-52440D01*
X100390Y-52440D01*
X100390Y-52095D01*
X100330Y-52035D01*
X100172Y-52035D01*
X100077Y-52035D01*
X99989Y-52071D01*
X99921Y-52139D01*
X99885Y-52227D01*
X99885Y-52350D01*
X99481Y-51946D01*
X99508Y-51946D01*
X99642Y-51891D01*
X99744Y-51788D01*
X99799Y-51656D01*
X99865Y-51684D01*
X100010Y-51684D01*
X100144Y-51628D01*
X100247Y-51526D01*
X100292Y-51418D01*
X100337Y-51529D01*
X100440Y-51632D01*
X100574Y-51687D01*
X100719Y-51687D01*
X100854Y-51632D01*
X100956Y-51529D01*
X101012Y-51395D01*
X101012Y-51250D01*
X100957Y-51116D01*
X100854Y-51013D01*
X100720Y-50957D01*
X100621Y-50957D01*
X100554Y-50889D01*
X100662Y-50889D01*
X100732Y-50860D01*
X100786Y-50807D01*
X100815Y-50737D01*
X100815Y-50662D01*
X100815Y-50412D01*
X100786Y-50342D01*
X100751Y-50307D01*
X100760Y-50303D01*
X100828Y-50235D01*
X100865Y-50147D01*
X100865Y-50044D01*
X100865Y-49904D01*
X100865Y-49802D01*
X100828Y-49713D01*
X100764Y-49650D01*
X100828Y-49586D01*
X100865Y-49497D01*
X100865Y-49395D01*
X100805Y-49335D01*
X100410Y-49335D01*
X100410Y-49630D01*
X100429Y-49650D01*
X100410Y-49669D01*
X100410Y-49964D01*
X100805Y-49964D01*
X100865Y-49904D01*
X100865Y-50044D01*
X100805Y-49984D01*
X100410Y-49984D01*
X100410Y-49992D01*
X100390Y-49992D01*
X100390Y-49984D01*
X99995Y-49984D01*
X99935Y-50044D01*
X99935Y-50147D01*
X99971Y-50235D01*
X100037Y-50301D01*
X99970Y-50256D01*
X99878Y-50238D01*
X99308Y-50238D01*
X99256Y-50203D01*
X99234Y-50199D01*
X99234Y-50180D01*
X99174Y-50120D01*
X98748Y-50120D01*
X98748Y-50126D01*
X98728Y-50126D01*
X98728Y-50120D01*
X98302Y-50120D01*
X98280Y-50142D01*
X98255Y-50117D01*
X98121Y-50061D01*
X97976Y-50061D01*
X97842Y-50117D01*
X97739Y-50219D01*
X97683Y-50353D01*
X97683Y-50452D01*
X97635Y-50500D01*
X94706Y-50500D01*
X94706Y-50495D01*
X94646Y-50435D01*
X94220Y-50435D01*
X94220Y-50441D01*
X94200Y-50441D01*
X94200Y-50435D01*
X94192Y-50435D01*
X94192Y-50415D01*
X94200Y-50415D01*
X94200Y-50408D01*
X94220Y-50408D01*
X94220Y-50415D01*
X94646Y-50415D01*
X94670Y-50391D01*
X94760Y-50428D01*
X94905Y-50428D01*
X95039Y-50373D01*
X95142Y-50270D01*
X95197Y-50136D01*
X95198Y-49991D01*
X95142Y-49857D01*
X95040Y-49754D01*
X94905Y-49698D01*
X94763Y-49698D01*
X94803Y-49671D01*
X94875Y-49671D01*
X95010Y-49616D01*
X95112Y-49513D01*
X95144Y-49437D01*
X95397Y-49690D01*
X95397Y-49690D01*
X95475Y-49742D01*
X95567Y-49760D01*
X96400Y-49760D01*
X96469Y-49829D01*
X96603Y-49885D01*
X96749Y-49885D01*
X96883Y-49830D01*
X96986Y-49727D01*
X97041Y-49593D01*
X97041Y-49448D01*
X97012Y-49375D01*
X97374Y-49375D01*
X97443Y-49444D01*
X97577Y-49500D01*
X97722Y-49500D01*
X97856Y-49445D01*
X97959Y-49342D01*
X98015Y-49208D01*
X98015Y-49092D01*
X98062Y-49112D01*
X98207Y-49112D01*
X98292Y-49077D01*
X98292Y-49094D01*
X98292Y-49311D01*
X98297Y-49322D01*
X98292Y-49333D01*
X98292Y-49409D01*
X98292Y-49626D01*
X98297Y-49637D01*
X98292Y-49648D01*
X98292Y-49724D01*
X98292Y-49852D01*
X98279Y-49865D01*
X98242Y-49953D01*
X98242Y-50040D01*
X98302Y-50100D01*
X98728Y-50100D01*
X98728Y-50093D01*
X98748Y-50093D01*
X98748Y-50100D01*
X99174Y-50100D01*
X99234Y-50040D01*
X99234Y-50035D01*
X99337Y-50035D01*
X99406Y-50104D01*
X99540Y-50160D01*
X99685Y-50160D01*
X99819Y-50104D01*
X99922Y-50002D01*
X99954Y-49924D01*
X99995Y-49964D01*
X100390Y-49964D01*
X100390Y-49669D01*
X100370Y-49650D01*
X100390Y-49630D01*
X100390Y-49335D01*
X100382Y-49335D01*
X100382Y-49315D01*
X100390Y-49315D01*
X100390Y-49307D01*
X100410Y-49307D01*
X100410Y-49315D01*
X100805Y-49315D01*
X100865Y-49255D01*
X100865Y-49152D01*
X100828Y-49064D01*
X100760Y-48996D01*
X100751Y-48992D01*
X100786Y-48957D01*
X100815Y-48887D01*
X100815Y-48812D01*
X100815Y-48808D01*
X100890Y-48884D01*
X101024Y-48940D01*
X101169Y-48940D01*
X101241Y-48910D01*
X101241Y-49695D01*
X101270Y-49765D01*
X101324Y-49818D01*
X101393Y-49847D01*
X101469Y-49847D01*
X102256Y-49847D01*
X102326Y-49818D01*
X102379Y-49765D01*
X102408Y-49695D01*
X102408Y-49619D01*
X102408Y-48815D01*
X102849Y-48815D01*
X102851Y-48814D01*
X102896Y-48814D01*
X102923Y-48842D01*
X102913Y-48846D01*
X102846Y-48913D01*
X102809Y-49002D01*
X102809Y-49104D01*
X102869Y-49164D01*
X103264Y-49164D01*
X103264Y-49156D01*
X103284Y-49156D01*
X103284Y-49164D01*
X103292Y-49164D01*
X103292Y-49184D01*
X103284Y-49184D01*
X103284Y-49479D01*
X103344Y-49539D01*
X103452Y-49539D01*
X103547Y-49539D01*
X103635Y-49503D01*
X103703Y-49435D01*
X103739Y-49347D01*
X103739Y-49244D01*
X103679Y-49184D01*
X103725Y-49184D01*
X103783Y-49271D01*
X103942Y-49377D01*
X104129Y-49415D01*
X104420Y-49415D01*
X104607Y-49377D01*
X104766Y-49271D01*
X104872Y-49112D01*
X104910Y-48925D01*
X104896Y-48856D01*
X104973Y-48856D01*
X105107Y-48800D01*
X105177Y-48731D01*
X105833Y-48731D01*
X105925Y-48712D01*
X106003Y-48660D01*
X106154Y-48509D01*
X106163Y-48532D01*
X106217Y-48586D01*
X106287Y-48615D01*
X106362Y-48615D01*
X106605Y-48615D01*
X106598Y-48621D01*
X106515Y-48621D01*
X106445Y-48650D01*
X106391Y-48703D01*
X106363Y-48773D01*
X106363Y-48848D01*
X106363Y-49242D01*
X106391Y-49312D01*
X106445Y-49366D01*
X106515Y-49395D01*
X106590Y-49395D01*
X106907Y-49395D01*
X106907Y-51405D01*
X106899Y-51405D01*
X106820Y-51405D01*
X106760Y-51465D01*
X106760Y-51832D01*
X106767Y-51832D01*
X106767Y-51852D01*
X106760Y-51852D01*
X106760Y-52219D01*
X106810Y-52269D01*
X106810Y-52271D01*
X106763Y-52317D01*
X106750Y-52350D01*
X106736Y-52317D01*
X106688Y-52270D01*
X106740Y-52219D01*
X106740Y-51852D01*
X106740Y-51832D01*
X106740Y-51465D01*
X106680Y-51405D01*
X106600Y-51405D01*
X106505Y-51405D01*
X106417Y-51441D01*
X106349Y-51509D01*
X106313Y-51597D01*
X106313Y-51772D01*
X106373Y-51832D01*
X106740Y-51832D01*
X106740Y-51852D01*
X106373Y-51852D01*
X106313Y-51912D01*
X106313Y-52086D01*
X106349Y-52175D01*
X106409Y-52235D01*
X106287Y-52235D01*
X106217Y-52263D01*
X106163Y-52317D01*
X106135Y-52387D01*
X106135Y-52410D01*
X106124Y-52410D01*
X106033Y-52428D01*
X105955Y-52480D01*
X105750Y-52685D01*
X104939Y-52685D01*
X104939Y-51019D01*
X104939Y-50830D01*
X104910Y-50727D01*
X104796Y-50550D01*
X104623Y-50430D01*
X104490Y-50401D01*
X104607Y-50377D01*
X104766Y-50271D01*
X104872Y-50112D01*
X104910Y-49925D01*
X104872Y-49737D01*
X104766Y-49578D01*
X104607Y-49472D01*
X104420Y-49435D01*
X104129Y-49435D01*
X103942Y-49472D01*
X103783Y-49578D01*
X103739Y-49643D01*
X103676Y-49737D01*
X103639Y-49925D01*
X103676Y-50112D01*
X103783Y-50271D01*
X103942Y-50377D01*
X104058Y-50401D01*
X103925Y-50430D01*
X103752Y-50550D01*
X103639Y-50727D01*
X103610Y-50830D01*
X103661Y-50915D01*
X104264Y-50915D01*
X104264Y-50907D01*
X104284Y-50907D01*
X104284Y-50915D01*
X104887Y-50915D01*
X104939Y-50830D01*
X104939Y-51019D01*
X104887Y-50935D01*
X104284Y-50935D01*
X104284Y-50943D01*
X104264Y-50943D01*
X104264Y-50935D01*
X103661Y-50935D01*
X103610Y-51019D01*
X103639Y-51122D01*
X103752Y-51299D01*
X103925Y-51420D01*
X104058Y-51449D01*
X103942Y-51472D01*
X103783Y-51578D01*
X103739Y-51643D01*
X103725Y-51664D01*
X103679Y-51664D01*
X103739Y-51604D01*
X103739Y-51502D01*
X103703Y-51413D01*
X103635Y-51346D01*
X103547Y-51309D01*
X103452Y-51309D01*
X103344Y-51309D01*
X103284Y-51369D01*
X103284Y-51664D01*
X103292Y-51664D01*
X103292Y-51684D01*
X103284Y-51684D01*
X103284Y-51692D01*
X103264Y-51692D01*
X103264Y-51684D01*
X103264Y-51664D01*
X103264Y-51369D01*
X103264Y-49479D01*
X103264Y-49184D01*
X102869Y-49184D01*
X102809Y-49244D01*
X102809Y-49347D01*
X102846Y-49435D01*
X102913Y-49503D01*
X103002Y-49539D01*
X103097Y-49539D01*
X103204Y-49539D01*
X103264Y-49479D01*
X103264Y-51369D01*
X103204Y-51309D01*
X103097Y-51309D01*
X103002Y-51309D01*
X102913Y-51346D01*
X102846Y-51413D01*
X102809Y-51502D01*
X102809Y-51604D01*
X102869Y-51664D01*
X103264Y-51664D01*
X103264Y-51684D01*
X102869Y-51684D01*
X102809Y-51744D01*
X102809Y-51847D01*
X102846Y-51935D01*
X102913Y-52003D01*
X102923Y-52007D01*
X102896Y-52034D01*
X102849Y-52034D01*
X102847Y-52035D01*
X102408Y-52035D01*
X102408Y-51154D01*
X102379Y-51085D01*
X102326Y-51031D01*
X102256Y-51002D01*
X102180Y-51002D01*
X101393Y-51002D01*
X101324Y-51031D01*
X101270Y-51085D01*
X101241Y-51154D01*
X101241Y-51230D01*
X101241Y-53395D01*
X101270Y-53465D01*
X101324Y-53518D01*
X101393Y-53547D01*
X101469Y-53547D01*
X102256Y-53547D01*
X102326Y-53518D01*
X102379Y-53465D01*
X102408Y-53395D01*
X102408Y-53319D01*
X102408Y-52515D01*
X102849Y-52515D01*
X102851Y-52514D01*
X102896Y-52514D01*
X102942Y-52560D01*
X102950Y-52564D01*
X102909Y-52661D01*
X102909Y-52806D01*
X102965Y-52941D01*
X103067Y-53043D01*
X103201Y-53099D01*
X103347Y-53099D01*
X103481Y-53044D01*
X103584Y-52941D01*
X103639Y-52807D01*
X103639Y-52662D01*
X103599Y-52564D01*
X103607Y-52560D01*
X103660Y-52507D01*
X103689Y-52437D01*
X103689Y-52362D01*
X103689Y-52132D01*
X103783Y-52271D01*
X103942Y-52377D01*
X104129Y-52415D01*
X104420Y-52415D01*
X104607Y-52377D01*
X104766Y-52271D01*
X104872Y-52112D01*
X104910Y-51925D01*
X104872Y-51737D01*
X104766Y-51578D01*
X104607Y-51472D01*
X104490Y-51449D01*
X104623Y-51420D01*
X104796Y-51299D01*
X104910Y-51122D01*
X104939Y-51019D01*
X104939Y-52685D01*
X104897Y-52685D01*
X104897Y-52587D01*
X104868Y-52517D01*
X104815Y-52464D01*
X104745Y-52435D01*
X104670Y-52435D01*
X103804Y-52435D01*
X103734Y-52464D01*
X103680Y-52517D01*
X103651Y-52587D01*
X103651Y-52662D01*
X103651Y-53262D01*
X103680Y-53332D01*
X103734Y-53386D01*
X103804Y-53415D01*
X103879Y-53415D01*
X104745Y-53415D01*
X104815Y-53386D01*
X104868Y-53332D01*
X104897Y-53262D01*
X104897Y-53187D01*
X104897Y-53165D01*
X105849Y-53165D01*
X105941Y-53146D01*
X106019Y-53094D01*
X106154Y-52959D01*
X106163Y-52982D01*
X106217Y-53036D01*
X106287Y-53065D01*
X106362Y-53065D01*
X106612Y-53065D01*
X106682Y-53036D01*
X106736Y-52982D01*
X106749Y-52949D01*
X106763Y-52982D01*
X106817Y-53036D01*
X106887Y-53065D01*
X106962Y-53065D01*
X107212Y-53065D01*
X107282Y-53036D01*
X107336Y-52982D01*
X107365Y-52912D01*
X107365Y-52837D01*
X107365Y-52387D01*
X107336Y-52317D01*
X107316Y-52297D01*
X107316Y-52297D01*
X107368Y-52219D01*
X107380Y-52161D01*
X107380Y-54770D01*
M02*
