M48
;DRILL file {PCBnew (2010-03-14)-final} date jeu. 17 mars 2011 11:14:46 CET
;FORMAT={-.-/ absolute / metric / decimal}
R,T
VER,1
FMAT,2
METRIC,TZ
TCST,OFF
ICI,OFF
ATC,ON
T1C0.800
T2C1.001
T3C2.032
%
M47
G05
M71
T1
X133.985Y91.440
X133.985Y94.615
X137.795Y97.790
X137.795Y100.330
X141.605Y91.440
X141.605Y94.615
X143.510Y97.790
X143.510Y100.330
X146.050Y83.820
X146.050Y87.630
X146.050Y95.250
X148.590Y83.820
X148.590Y87.630
X148.590Y95.250
X148.590Y99.060
X151.130Y83.820
X151.130Y87.630
X151.130Y95.250
X151.130Y99.060
X153.670Y83.820
X153.670Y87.630
X153.670Y95.250
X153.670Y99.060
X156.210Y83.820
X156.210Y87.630
X156.210Y95.250
X156.210Y99.060
X158.750Y83.820
X158.750Y87.630
X158.750Y95.250
X158.750Y99.060
X161.290Y83.820
X161.290Y87.630
X161.290Y95.250
X161.290Y99.060
X163.830Y83.820
X163.830Y87.630
X163.830Y95.250
X166.370Y83.820
X166.370Y87.630
X166.370Y95.250
X166.370Y99.060
X166.370Y101.600
X168.910Y83.820
X168.910Y87.630
X168.910Y95.250
X168.910Y99.060
X168.910Y101.600
X170.180Y91.440
X171.450Y83.820
X171.450Y87.630
X171.450Y95.250
X171.450Y99.060
X173.990Y83.820
X173.990Y87.630
X173.990Y95.250
X173.990Y99.060
X175.260Y91.440
X176.530Y83.820
X176.530Y87.630
X176.530Y95.250
X176.530Y99.060
X179.070Y83.820
X179.070Y87.630
X179.070Y95.250
X179.705Y101.600
X184.785Y101.600
T2
X134.544Y83.475
X134.544Y87.975
X141.046Y83.475
X141.046Y87.975
X182.855Y90.830
X182.855Y93.320
X184.861Y90.830
X184.861Y93.320
T3
X187.579Y86.055
X187.579Y98.095
T0
M30
