M48
;DRILL file {Pcbnew (2012-09-11 BZR 3714)-testing} date mer. 12 sept. 2012 09:40:26 CEST
;FORMAT={3:3/ absolute / metric / suppress leading zeros}
FMAT,2
METRIC,TZ
T1C0.800
T2C0.813
T3C1.016
T4C2.032
%
G90
G05
M71
T1
X149860Y-115570
X154940Y-115570
T2
X140970Y-119380
X143510Y-119380
X146050Y-119380
X146050Y-123190
X148590Y-111760
X148590Y-123190
X153670Y-111760
X156210Y-111760
X158750Y-111760
X161290Y-111760
T3
X120650Y-109220
X120650Y-111760
X120650Y-119380
X120650Y-121920
X125730Y-111760
X125730Y-119380
X128270Y-109220
X128270Y-121920
X130810Y-109220
X130810Y-111760
X130810Y-119380
X130810Y-121920
X133350Y-109220
X133350Y-111760
X133350Y-119380
X133350Y-121920
X135890Y-109220
X135890Y-111760
X135890Y-119380
X135890Y-121920
X138430Y-109220
X138430Y-111760
X138430Y-119380
X138430Y-121920
X140970Y-109220
X140970Y-111760
X140970Y-121920
X143510Y-109220
X143510Y-111760
X143510Y-121920
X146050Y-109220
X146050Y-111760
X148590Y-109220
X148590Y-119380
X151130Y-109220
X151130Y-111760
X151130Y-119380
X151130Y-121920
X151130Y-124460
X153670Y-109220
X153670Y-119380
X153670Y-121920
X153670Y-124460
X156210Y-109220
X156210Y-119380
X156210Y-121920
X158750Y-109220
X158750Y-119380
X158750Y-121920
X161290Y-119380
X161290Y-121920
X163830Y-111760
X163830Y-119380
X163830Y-121920
X163830Y-124460
X166370Y-109220
X168910Y-109220
X168910Y-111760
X168910Y-119380
X171450Y-109220
X171450Y-111760
X171450Y-119380
X173990Y-111760
X173990Y-119380
X176530Y-107442
X176530Y-109982
X179680Y-114325
X179680Y-116815
X181686Y-114325
X181686Y-116815
T4
X184404Y-109550
X184404Y-121590
T0
M30
