G04 (created by PCBNEW (2012-09-11 BZR 3714)-testing) date mer. 12 sept. 2012 09:40:05 CEST*
%MOIN*%
G04 Gerber Fmt 3.4, Leading zero omitted, Abs format*
%FSLAX34Y34*%
G01*
G70*
G90*
G04 APERTURE LIST*
%ADD10C,0.006*%
%ADD11C,0.015*%
%ADD12R,0.08X0.08*%
%ADD13C,0.0787*%
%ADD14O,0.055X0.08*%
%ADD15C,0.1378*%
%ADD16R,0.055X0.055*%
%ADD17C,0.055*%
%ADD18C,0.0394*%
%ADD19C,0.0197*%
%ADD20C,0.01*%
G04 APERTURE END LIST*
G54D10*
G54D11*
X74000Y-41500D02*
X74000Y-50000D01*
X46500Y-41500D02*
X74000Y-41500D01*
X46500Y-50000D02*
X46500Y-41500D01*
X74000Y-50000D02*
X46500Y-50000D01*
G54D12*
X69500Y-43300D03*
X69500Y-42300D03*
G54D13*
X59000Y-45500D03*
X61000Y-45500D03*
G54D12*
X59500Y-43000D03*
X60500Y-43000D03*
X64500Y-48000D03*
X64500Y-49000D03*
X60500Y-48000D03*
X60500Y-49000D03*
X59500Y-48000D03*
X59500Y-49000D03*
X49500Y-47000D03*
X47500Y-47000D03*
X49500Y-44000D03*
X47500Y-44000D03*
X52500Y-47000D03*
X53500Y-47000D03*
X54500Y-47000D03*
G54D14*
X55500Y-47000D03*
X56500Y-47000D03*
X57500Y-47000D03*
G54D12*
X58500Y-47000D03*
X59500Y-47000D03*
X60500Y-47000D03*
X61500Y-47000D03*
X62500Y-47000D03*
X63500Y-47000D03*
X64500Y-47000D03*
X51500Y-47000D03*
X64500Y-44000D03*
G54D14*
X63500Y-44000D03*
X62500Y-44000D03*
X61500Y-44000D03*
X60500Y-44000D03*
G54D12*
X59500Y-44000D03*
G54D14*
X58500Y-44000D03*
G54D12*
X57500Y-44000D03*
X56500Y-44000D03*
X55500Y-44000D03*
X54500Y-44000D03*
X53500Y-44000D03*
X52500Y-44000D03*
X51500Y-44000D03*
G54D10*
G36*
X71803Y-45590D02*
X71803Y-46390D01*
X71257Y-46390D01*
X71257Y-45590D01*
X71803Y-45590D01*
X71803Y-45590D01*
G37*
G36*
X71803Y-44610D02*
X71803Y-45410D01*
X71257Y-45410D01*
X71257Y-44610D01*
X71803Y-44610D01*
X71803Y-44610D01*
G37*
G36*
X71013Y-44610D02*
X71013Y-45410D01*
X70467Y-45410D01*
X70467Y-44610D01*
X71013Y-44610D01*
X71013Y-44610D01*
G37*
G36*
X71013Y-45590D02*
X71013Y-46390D01*
X70467Y-46390D01*
X70467Y-45590D01*
X71013Y-45590D01*
X71013Y-45590D01*
G37*
G54D15*
X72600Y-47870D03*
X72600Y-43130D03*
G54D12*
X66500Y-47000D03*
X66500Y-44000D03*
X63500Y-48000D03*
X62500Y-48000D03*
X61500Y-48000D03*
X65500Y-43000D03*
X66500Y-43000D03*
X67500Y-43000D03*
X51500Y-43000D03*
X52500Y-43000D03*
X53500Y-43000D03*
X54500Y-43000D03*
X55500Y-43000D03*
X56500Y-43000D03*
X57500Y-43000D03*
X58500Y-43000D03*
X61500Y-43000D03*
X62500Y-43000D03*
X68500Y-44000D03*
X68500Y-47000D03*
X67500Y-44000D03*
X67500Y-47000D03*
X50500Y-43000D03*
X47500Y-43000D03*
X50500Y-48000D03*
X47500Y-48000D03*
X56500Y-48000D03*
X55500Y-48000D03*
X54500Y-48000D03*
X53500Y-48000D03*
X52500Y-48000D03*
X51500Y-48000D03*
G54D16*
X57500Y-48500D03*
G54D17*
X58500Y-48500D03*
G54D18*
X64500Y-47000D02*
X64500Y-48000D01*
X66500Y-47000D02*
X64500Y-47000D01*
X67500Y-47000D02*
X67500Y-47500D01*
X58500Y-45000D02*
X59500Y-44000D01*
X66500Y-47000D02*
X67500Y-47000D01*
X50500Y-43000D02*
X50500Y-44500D01*
X67700Y-47700D02*
X69050Y-47700D01*
X67500Y-47000D02*
X67500Y-47000D01*
X61000Y-44500D02*
X62000Y-45500D01*
X60500Y-45000D02*
X61000Y-44500D01*
X51000Y-45000D02*
X58500Y-45000D01*
X59500Y-44000D02*
X60500Y-45000D01*
G54D19*
X63000Y-43700D02*
X63000Y-44500D01*
G54D18*
X62050Y-45450D02*
X62000Y-45500D01*
G54D19*
X68749Y-45850D02*
X62349Y-45834D01*
G54D18*
X69200Y-47550D02*
X69200Y-46450D01*
G54D19*
X69200Y-46450D02*
X68749Y-45850D01*
G54D18*
X62349Y-45834D02*
X62050Y-45450D01*
X69050Y-47700D02*
X69200Y-47550D01*
X50500Y-44500D02*
X51000Y-45000D01*
X63000Y-44500D02*
X62050Y-45450D01*
X59500Y-43000D02*
X59500Y-44000D01*
G54D19*
X63700Y-43000D02*
X63000Y-43700D01*
G54D18*
X65500Y-43000D02*
X63700Y-43000D01*
X67500Y-47500D02*
X67700Y-47700D01*
X67746Y-44700D02*
X70430Y-44700D01*
X67500Y-44454D02*
X67746Y-44700D01*
X67500Y-43000D02*
X67500Y-44000D01*
X67500Y-44000D02*
X67500Y-44454D01*
X70430Y-44700D02*
X70740Y-45010D01*
G54D19*
X64201Y-45522D02*
X69074Y-45525D01*
X69074Y-45525D02*
X70600Y-47100D01*
G54D18*
X71530Y-46670D02*
X71530Y-45990D01*
G54D19*
X63500Y-44554D02*
X64201Y-45522D01*
G54D18*
X63500Y-44000D02*
X63500Y-44554D01*
X70600Y-47100D02*
X71100Y-47100D01*
X71100Y-47100D02*
X71530Y-46670D01*
X64500Y-44000D02*
X64500Y-44494D01*
G54D19*
X64500Y-44494D02*
X65206Y-45200D01*
X65206Y-45200D02*
X69550Y-45200D01*
G54D18*
X70340Y-45990D02*
X70740Y-45990D01*
X70340Y-45990D02*
X69550Y-45200D01*
X49500Y-42050D02*
X49500Y-42750D01*
X58500Y-49050D02*
X58500Y-49000D01*
X61750Y-49000D02*
X63250Y-49000D01*
X50000Y-45500D02*
X49500Y-45000D01*
X49500Y-48500D02*
X50200Y-49200D01*
X49500Y-45000D02*
X49500Y-44000D01*
X50000Y-45500D02*
X49500Y-46000D01*
X58350Y-49200D02*
X58500Y-49050D01*
X71530Y-44970D02*
X72600Y-43900D01*
X59500Y-49000D02*
X58500Y-49000D01*
X66500Y-42500D02*
X66500Y-43000D01*
X49500Y-42750D02*
X49500Y-44000D01*
X58500Y-49000D02*
X58500Y-48500D01*
X58500Y-46500D02*
X57500Y-45500D01*
X66000Y-42000D02*
X61000Y-42000D01*
X49500Y-46000D02*
X49500Y-47000D01*
X50200Y-49200D02*
X58350Y-49200D01*
X63250Y-49000D02*
X64500Y-49000D01*
X49500Y-47000D02*
X49500Y-48500D01*
X60500Y-49000D02*
X59500Y-49000D01*
X71850Y-42300D02*
X72600Y-43130D01*
X60500Y-42500D02*
X60500Y-43000D01*
X66500Y-43000D02*
X66500Y-44000D01*
X66500Y-42500D02*
X66000Y-42000D01*
X69500Y-42300D02*
X71850Y-42300D01*
X72600Y-47870D02*
X72600Y-43900D01*
X58500Y-47000D02*
X58500Y-48500D01*
X72600Y-43900D02*
X72600Y-43130D01*
X61000Y-42000D02*
X60500Y-42500D01*
X60000Y-42000D02*
X49500Y-42050D01*
X64500Y-49000D02*
X71500Y-49000D01*
X60500Y-43000D02*
X60500Y-44000D01*
X57500Y-45500D02*
X50000Y-45500D01*
X60500Y-49000D02*
X61750Y-49000D01*
X69500Y-42300D02*
X68500Y-42000D01*
X71530Y-45010D02*
X71530Y-44970D01*
X60500Y-42500D02*
X60000Y-42000D01*
X58500Y-47000D02*
X58500Y-46500D01*
X72600Y-47900D02*
X71500Y-49000D01*
X68500Y-42000D02*
X66000Y-42000D01*
X52500Y-43000D02*
X52500Y-44000D01*
X54500Y-43000D02*
X54500Y-44000D01*
X56500Y-43000D02*
X56500Y-44000D01*
X69500Y-43300D02*
X68500Y-43300D01*
X69500Y-43300D02*
X69500Y-43300D01*
X68500Y-43300D02*
X68500Y-44000D01*
G54D19*
X56500Y-47800D02*
X56000Y-47300D01*
X56000Y-47300D02*
X56000Y-46500D01*
X56500Y-48000D02*
X56500Y-47900D01*
G54D18*
X57000Y-46000D02*
X56500Y-46000D01*
X56500Y-46000D02*
X56000Y-46500D01*
X57500Y-46500D02*
X57500Y-47000D01*
G54D19*
X56500Y-48000D02*
X56500Y-47800D01*
G54D18*
X57500Y-46500D02*
X57000Y-46000D01*
X68000Y-46250D02*
X66000Y-46250D01*
X64000Y-46250D02*
X63500Y-46500D01*
X68500Y-46500D02*
X68000Y-46250D01*
X63500Y-46500D02*
X63500Y-47000D01*
X68500Y-47000D02*
X68500Y-46500D01*
X66000Y-46250D02*
X64000Y-46250D01*
X63500Y-47000D02*
X63500Y-48000D01*
X53500Y-43000D02*
X53500Y-44000D01*
X62500Y-43000D02*
X62500Y-44000D01*
X61500Y-43000D02*
X61500Y-44000D01*
X51500Y-43000D02*
X51500Y-44000D01*
X55500Y-43000D02*
X55500Y-44000D01*
X61000Y-45500D02*
X60500Y-46000D01*
X60500Y-47000D02*
X60500Y-48000D01*
X60500Y-46000D02*
X60500Y-47000D01*
X52500Y-47000D02*
X52500Y-48000D01*
X53500Y-47000D02*
X53500Y-48000D01*
X55500Y-47000D02*
X55500Y-48000D01*
X59500Y-46000D02*
X59500Y-47000D01*
X59000Y-45500D02*
X59500Y-46000D01*
X59500Y-47000D02*
X59500Y-48000D01*
X56500Y-47000D02*
X56700Y-47000D01*
X57500Y-47800D02*
X57500Y-48500D01*
G54D19*
X56700Y-47000D02*
X57500Y-47800D01*
G54D18*
X61500Y-47000D02*
X61500Y-48000D01*
X58500Y-43000D02*
X58500Y-44000D01*
X62500Y-47000D02*
X62500Y-48000D01*
X57500Y-43000D02*
X57500Y-44000D01*
X54500Y-47000D02*
X54500Y-48000D01*
X47500Y-47000D02*
X47500Y-48000D01*
X47500Y-47000D02*
X47500Y-44000D01*
X47500Y-43000D02*
X47500Y-44000D01*
X51500Y-47000D02*
X51500Y-48000D01*
X50500Y-47000D02*
X51500Y-47000D01*
X50500Y-48000D02*
X50500Y-47000D01*
G54D10*
G36*
X73675Y-49675D02*
X73540Y-49675D01*
X73540Y-48044D01*
X73540Y-43304D01*
X73536Y-42931D01*
X73402Y-42610D01*
X73267Y-42534D01*
X73196Y-42605D01*
X73196Y-42463D01*
X73120Y-42328D01*
X72774Y-42190D01*
X72401Y-42194D01*
X72080Y-42328D01*
X72004Y-42463D01*
X72600Y-43059D01*
X73196Y-42463D01*
X73196Y-42605D01*
X72671Y-43130D01*
X73267Y-43726D01*
X73402Y-43650D01*
X73540Y-43304D01*
X73540Y-48044D01*
X73536Y-47671D01*
X73402Y-47350D01*
X73267Y-47274D01*
X73196Y-47345D01*
X73196Y-47203D01*
X73196Y-43797D01*
X72600Y-43201D01*
X72529Y-43272D01*
X72529Y-43130D01*
X71933Y-42534D01*
X71798Y-42610D01*
X71660Y-42956D01*
X71664Y-43329D01*
X71798Y-43650D01*
X71933Y-43726D01*
X72529Y-43130D01*
X72529Y-43272D01*
X72004Y-43797D01*
X72080Y-43932D01*
X72426Y-44070D01*
X72799Y-44066D01*
X73120Y-43932D01*
X73196Y-43797D01*
X73196Y-47203D01*
X73120Y-47068D01*
X72774Y-46930D01*
X72401Y-46934D01*
X72080Y-47068D01*
X72052Y-47117D01*
X72052Y-46440D01*
X72052Y-46341D01*
X72052Y-45541D01*
X72035Y-45500D01*
X72052Y-45460D01*
X72052Y-45361D01*
X72052Y-44561D01*
X72014Y-44469D01*
X71944Y-44399D01*
X71853Y-44361D01*
X71754Y-44361D01*
X71208Y-44361D01*
X71135Y-44391D01*
X71063Y-44361D01*
X70964Y-44361D01*
X70711Y-44361D01*
X70601Y-44287D01*
X70430Y-44253D01*
X69149Y-44253D01*
X69149Y-43949D01*
X69949Y-43949D01*
X70041Y-43911D01*
X70111Y-43841D01*
X70149Y-43750D01*
X70149Y-43651D01*
X70149Y-42851D01*
X70128Y-42800D01*
X70149Y-42750D01*
X70149Y-42651D01*
X70150Y-42412D01*
X70088Y-42350D01*
X69600Y-42350D01*
X69550Y-42350D01*
X69450Y-42350D01*
X69400Y-42350D01*
X68912Y-42350D01*
X68850Y-42412D01*
X68851Y-42651D01*
X68851Y-42750D01*
X68871Y-42800D01*
X68851Y-42850D01*
X68851Y-42853D01*
X68500Y-42853D01*
X68329Y-42887D01*
X68184Y-42984D01*
X68149Y-43036D01*
X68149Y-42551D01*
X68111Y-42459D01*
X68041Y-42389D01*
X67950Y-42351D01*
X67851Y-42351D01*
X67051Y-42351D01*
X67000Y-42372D01*
X66949Y-42351D01*
X66612Y-42350D01*
X66550Y-42412D01*
X66550Y-42900D01*
X66550Y-42950D01*
X66550Y-43050D01*
X66550Y-43100D01*
X66550Y-43412D01*
X66550Y-43588D01*
X66550Y-43900D01*
X66550Y-43950D01*
X66550Y-44050D01*
X66550Y-44100D01*
X66550Y-44588D01*
X66612Y-44650D01*
X66949Y-44649D01*
X66999Y-44628D01*
X67050Y-44649D01*
X67103Y-44649D01*
X67184Y-44770D01*
X67266Y-44852D01*
X66450Y-44852D01*
X66450Y-44588D01*
X66450Y-44050D01*
X65912Y-44050D01*
X65850Y-44112D01*
X65851Y-44351D01*
X65851Y-44450D01*
X65889Y-44541D01*
X65959Y-44611D01*
X66051Y-44649D01*
X66388Y-44650D01*
X66450Y-44588D01*
X66450Y-44852D01*
X65350Y-44852D01*
X65075Y-44577D01*
X65111Y-44541D01*
X65149Y-44450D01*
X65149Y-44351D01*
X65149Y-43649D01*
X65851Y-43649D01*
X65850Y-43888D01*
X65912Y-43950D01*
X66450Y-43950D01*
X66450Y-43588D01*
X66450Y-43412D01*
X66450Y-43100D01*
X66450Y-43050D01*
X66450Y-42950D01*
X66450Y-42900D01*
X66450Y-42412D01*
X66388Y-42350D01*
X66051Y-42351D01*
X66000Y-42371D01*
X65950Y-42351D01*
X65851Y-42351D01*
X65051Y-42351D01*
X64959Y-42389D01*
X64889Y-42459D01*
X64851Y-42550D01*
X64851Y-42553D01*
X63700Y-42553D01*
X63529Y-42587D01*
X63384Y-42684D01*
X63287Y-42829D01*
X63264Y-42943D01*
X63149Y-43059D01*
X63149Y-42551D01*
X63111Y-42459D01*
X63041Y-42389D01*
X62950Y-42351D01*
X62851Y-42351D01*
X62051Y-42351D01*
X62000Y-42371D01*
X61950Y-42351D01*
X61851Y-42351D01*
X61051Y-42351D01*
X61000Y-42372D01*
X60949Y-42351D01*
X60612Y-42350D01*
X60550Y-42412D01*
X60550Y-42900D01*
X60550Y-42950D01*
X60550Y-43050D01*
X60550Y-43100D01*
X60550Y-43415D01*
X60550Y-43588D01*
X60550Y-43900D01*
X60550Y-43950D01*
X60550Y-44050D01*
X60450Y-44050D01*
X60450Y-43950D01*
X60450Y-43900D01*
X60450Y-43588D01*
X60450Y-43415D01*
X60450Y-43100D01*
X60450Y-43050D01*
X60450Y-42950D01*
X60450Y-42900D01*
X60450Y-42412D01*
X60388Y-42350D01*
X60051Y-42351D01*
X60000Y-42371D01*
X59950Y-42351D01*
X59851Y-42351D01*
X59051Y-42351D01*
X59000Y-42371D01*
X58950Y-42351D01*
X58851Y-42351D01*
X58051Y-42351D01*
X58000Y-42371D01*
X57950Y-42351D01*
X57851Y-42351D01*
X57051Y-42351D01*
X57000Y-42371D01*
X56950Y-42351D01*
X56851Y-42351D01*
X56051Y-42351D01*
X56000Y-42371D01*
X55950Y-42351D01*
X55851Y-42351D01*
X55051Y-42351D01*
X55000Y-42371D01*
X54950Y-42351D01*
X54851Y-42351D01*
X54051Y-42351D01*
X54000Y-42371D01*
X53950Y-42351D01*
X53851Y-42351D01*
X53051Y-42351D01*
X53000Y-42371D01*
X52950Y-42351D01*
X52851Y-42351D01*
X52051Y-42351D01*
X52000Y-42371D01*
X51950Y-42351D01*
X51851Y-42351D01*
X51051Y-42351D01*
X51000Y-42371D01*
X50950Y-42351D01*
X50851Y-42351D01*
X50051Y-42351D01*
X49959Y-42389D01*
X49889Y-42459D01*
X49851Y-42550D01*
X49851Y-42649D01*
X49851Y-43351D01*
X49612Y-43350D01*
X49550Y-43412D01*
X49550Y-43900D01*
X49550Y-43950D01*
X49550Y-44050D01*
X49550Y-44100D01*
X49550Y-44588D01*
X49612Y-44650D01*
X49851Y-44649D01*
X49950Y-44649D01*
X50041Y-44611D01*
X50069Y-44582D01*
X50087Y-44671D01*
X50184Y-44816D01*
X50684Y-45316D01*
X50829Y-45413D01*
X51000Y-45447D01*
X58357Y-45447D01*
X58357Y-45627D01*
X58455Y-45863D01*
X58636Y-46044D01*
X58872Y-46142D01*
X59010Y-46142D01*
X59053Y-46185D01*
X59053Y-46351D01*
X59051Y-46351D01*
X59000Y-46372D01*
X58949Y-46351D01*
X58612Y-46350D01*
X58550Y-46412D01*
X58550Y-46900D01*
X58550Y-46950D01*
X58550Y-47050D01*
X58550Y-47100D01*
X58550Y-47588D01*
X58612Y-47650D01*
X58851Y-47649D01*
X58851Y-48096D01*
X58807Y-48052D01*
X58782Y-48076D01*
X58772Y-48040D01*
X58576Y-47970D01*
X58450Y-47977D01*
X58450Y-47588D01*
X58450Y-47100D01*
X58450Y-47050D01*
X58450Y-46950D01*
X58450Y-46900D01*
X58450Y-46412D01*
X58388Y-46350D01*
X58051Y-46351D01*
X57959Y-46389D01*
X57930Y-46417D01*
X57913Y-46329D01*
X57816Y-46184D01*
X57316Y-45684D01*
X57171Y-45587D01*
X57000Y-45553D01*
X56500Y-45553D01*
X56329Y-45587D01*
X56184Y-45684D01*
X55684Y-46184D01*
X55587Y-46329D01*
X55581Y-46354D01*
X55500Y-46338D01*
X55299Y-46378D01*
X55129Y-46492D01*
X55126Y-46496D01*
X55111Y-46459D01*
X55041Y-46389D01*
X54950Y-46351D01*
X54851Y-46351D01*
X54051Y-46351D01*
X54000Y-46371D01*
X53950Y-46351D01*
X53851Y-46351D01*
X53051Y-46351D01*
X53000Y-46371D01*
X52950Y-46351D01*
X52851Y-46351D01*
X52051Y-46351D01*
X52000Y-46371D01*
X51950Y-46351D01*
X51851Y-46351D01*
X51051Y-46351D01*
X50959Y-46389D01*
X50889Y-46459D01*
X50851Y-46550D01*
X50851Y-46553D01*
X50500Y-46553D01*
X50329Y-46587D01*
X50184Y-46684D01*
X50149Y-46735D01*
X50149Y-46551D01*
X50111Y-46459D01*
X50041Y-46389D01*
X49950Y-46351D01*
X49851Y-46351D01*
X49612Y-46350D01*
X49550Y-46412D01*
X49550Y-46900D01*
X49550Y-46950D01*
X49550Y-47050D01*
X49550Y-47100D01*
X49550Y-47588D01*
X49612Y-47650D01*
X49851Y-47649D01*
X49851Y-48449D01*
X49889Y-48541D01*
X49959Y-48611D01*
X50050Y-48649D01*
X50149Y-48649D01*
X50949Y-48649D01*
X50999Y-48628D01*
X51050Y-48649D01*
X51149Y-48649D01*
X51949Y-48649D01*
X51999Y-48628D01*
X52050Y-48649D01*
X52149Y-48649D01*
X52949Y-48649D01*
X52999Y-48628D01*
X53050Y-48649D01*
X53149Y-48649D01*
X53949Y-48649D01*
X53999Y-48628D01*
X54050Y-48649D01*
X54149Y-48649D01*
X54949Y-48649D01*
X54999Y-48628D01*
X55050Y-48649D01*
X55149Y-48649D01*
X55949Y-48649D01*
X55999Y-48628D01*
X56050Y-48649D01*
X56149Y-48649D01*
X56949Y-48649D01*
X56976Y-48637D01*
X56976Y-48824D01*
X57014Y-48916D01*
X57084Y-48986D01*
X57175Y-49024D01*
X57274Y-49024D01*
X57824Y-49024D01*
X57916Y-48986D01*
X57986Y-48916D01*
X58024Y-48825D01*
X58024Y-48733D01*
X58040Y-48772D01*
X58132Y-48797D01*
X58429Y-48500D01*
X58132Y-48203D01*
X58040Y-48228D01*
X58024Y-48272D01*
X58024Y-48176D01*
X57986Y-48084D01*
X57947Y-48045D01*
X57947Y-47800D01*
X57913Y-47629D01*
X57844Y-47526D01*
X57871Y-47508D01*
X57873Y-47504D01*
X57889Y-47541D01*
X57959Y-47611D01*
X58051Y-47649D01*
X58388Y-47650D01*
X58450Y-47588D01*
X58450Y-47977D01*
X58368Y-47982D01*
X58228Y-48040D01*
X58203Y-48132D01*
X58465Y-48394D01*
X58500Y-48429D01*
X58571Y-48500D01*
X58500Y-48571D01*
X58465Y-48606D01*
X58203Y-48868D01*
X58228Y-48960D01*
X58424Y-49030D01*
X58632Y-49018D01*
X58772Y-48960D01*
X58782Y-48923D01*
X58797Y-48938D01*
X58807Y-48948D01*
X58858Y-48896D01*
X58912Y-48950D01*
X59400Y-48950D01*
X59450Y-48950D01*
X59550Y-48950D01*
X59600Y-48950D01*
X59912Y-48950D01*
X60088Y-48950D01*
X60400Y-48950D01*
X60450Y-48950D01*
X60550Y-48950D01*
X60600Y-48950D01*
X61088Y-48950D01*
X61150Y-48888D01*
X61149Y-48649D01*
X61949Y-48649D01*
X61999Y-48628D01*
X62050Y-48649D01*
X62149Y-48649D01*
X62949Y-48649D01*
X62999Y-48628D01*
X63050Y-48649D01*
X63149Y-48649D01*
X63850Y-48649D01*
X63850Y-48888D01*
X63912Y-48950D01*
X64400Y-48950D01*
X64450Y-48950D01*
X64550Y-48950D01*
X64600Y-48950D01*
X65088Y-48950D01*
X65150Y-48888D01*
X65149Y-48551D01*
X65128Y-48500D01*
X65149Y-48450D01*
X65149Y-48351D01*
X65149Y-47551D01*
X65128Y-47500D01*
X65149Y-47450D01*
X65149Y-47447D01*
X65851Y-47447D01*
X65851Y-47449D01*
X65889Y-47541D01*
X65959Y-47611D01*
X66050Y-47649D01*
X66149Y-47649D01*
X66949Y-47649D01*
X66999Y-47628D01*
X67050Y-47649D01*
X67082Y-47649D01*
X67087Y-47671D01*
X67184Y-47816D01*
X67383Y-48015D01*
X67384Y-48016D01*
X67528Y-48112D01*
X67529Y-48113D01*
X67699Y-48146D01*
X67700Y-48147D01*
X69050Y-48147D01*
X69221Y-48113D01*
X69366Y-48016D01*
X69516Y-47866D01*
X69613Y-47721D01*
X69647Y-47550D01*
X69647Y-46616D01*
X70162Y-47148D01*
X70187Y-47271D01*
X70284Y-47416D01*
X70429Y-47513D01*
X70600Y-47547D01*
X71100Y-47547D01*
X71271Y-47513D01*
X71416Y-47416D01*
X71846Y-46986D01*
X71943Y-46841D01*
X71977Y-46670D01*
X71977Y-46568D01*
X72014Y-46531D01*
X72052Y-46440D01*
X72052Y-47117D01*
X72004Y-47203D01*
X72600Y-47799D01*
X73196Y-47203D01*
X73196Y-47345D01*
X72671Y-47870D01*
X73267Y-48466D01*
X73402Y-48390D01*
X73540Y-48044D01*
X73540Y-49675D01*
X73196Y-49675D01*
X73196Y-48537D01*
X72600Y-47941D01*
X72529Y-48012D01*
X72529Y-47870D01*
X71933Y-47274D01*
X71798Y-47350D01*
X71660Y-47696D01*
X71664Y-48069D01*
X71798Y-48390D01*
X71933Y-48466D01*
X72529Y-47870D01*
X72529Y-48012D01*
X72004Y-48537D01*
X72080Y-48672D01*
X72426Y-48810D01*
X72799Y-48806D01*
X73120Y-48672D01*
X73196Y-48537D01*
X73196Y-49675D01*
X65150Y-49675D01*
X65150Y-49112D01*
X65088Y-49050D01*
X64550Y-49050D01*
X64550Y-49588D01*
X64612Y-49650D01*
X64851Y-49649D01*
X64950Y-49649D01*
X65041Y-49611D01*
X65111Y-49541D01*
X65149Y-49449D01*
X65150Y-49112D01*
X65150Y-49675D01*
X64450Y-49675D01*
X64450Y-49588D01*
X64450Y-49050D01*
X63912Y-49050D01*
X63850Y-49112D01*
X63851Y-49449D01*
X63889Y-49541D01*
X63959Y-49611D01*
X64050Y-49649D01*
X64149Y-49649D01*
X64388Y-49650D01*
X64450Y-49588D01*
X64450Y-49675D01*
X61150Y-49675D01*
X61150Y-49112D01*
X61088Y-49050D01*
X60550Y-49050D01*
X60550Y-49588D01*
X60612Y-49650D01*
X60851Y-49649D01*
X60950Y-49649D01*
X61041Y-49611D01*
X61111Y-49541D01*
X61149Y-49449D01*
X61150Y-49112D01*
X61150Y-49675D01*
X60450Y-49675D01*
X60450Y-49588D01*
X60450Y-49050D01*
X60088Y-49050D01*
X59912Y-49050D01*
X59550Y-49050D01*
X59550Y-49588D01*
X59612Y-49650D01*
X59851Y-49649D01*
X59950Y-49649D01*
X60000Y-49628D01*
X60050Y-49649D01*
X60149Y-49649D01*
X60388Y-49650D01*
X60450Y-49588D01*
X60450Y-49675D01*
X59450Y-49675D01*
X59450Y-49588D01*
X59450Y-49050D01*
X58912Y-49050D01*
X58850Y-49112D01*
X58851Y-49449D01*
X58889Y-49541D01*
X58959Y-49611D01*
X59050Y-49649D01*
X59149Y-49649D01*
X59388Y-49650D01*
X59450Y-49588D01*
X59450Y-49675D01*
X58797Y-49675D01*
X49450Y-49675D01*
X49450Y-47588D01*
X49450Y-47050D01*
X49450Y-46950D01*
X49450Y-46412D01*
X49450Y-44588D01*
X49450Y-44050D01*
X49450Y-43950D01*
X49450Y-43412D01*
X49388Y-43350D01*
X49149Y-43351D01*
X49050Y-43351D01*
X48959Y-43389D01*
X48889Y-43459D01*
X48851Y-43551D01*
X48850Y-43888D01*
X48912Y-43950D01*
X49450Y-43950D01*
X49450Y-44050D01*
X48912Y-44050D01*
X48850Y-44112D01*
X48851Y-44449D01*
X48889Y-44541D01*
X48959Y-44611D01*
X49050Y-44649D01*
X49149Y-44649D01*
X49388Y-44650D01*
X49450Y-44588D01*
X49450Y-46412D01*
X49388Y-46350D01*
X49149Y-46351D01*
X49050Y-46351D01*
X48959Y-46389D01*
X48889Y-46459D01*
X48851Y-46551D01*
X48850Y-46888D01*
X48912Y-46950D01*
X49450Y-46950D01*
X49450Y-47050D01*
X48912Y-47050D01*
X48850Y-47112D01*
X48851Y-47449D01*
X48889Y-47541D01*
X48959Y-47611D01*
X49050Y-47649D01*
X49149Y-47649D01*
X49388Y-47650D01*
X49450Y-47588D01*
X49450Y-49675D01*
X48149Y-49675D01*
X48149Y-48450D01*
X48149Y-48351D01*
X48149Y-47551D01*
X48128Y-47500D01*
X48149Y-47450D01*
X48149Y-47351D01*
X48149Y-46551D01*
X48111Y-46459D01*
X48041Y-46389D01*
X47950Y-46351D01*
X47947Y-46351D01*
X47947Y-44649D01*
X47949Y-44649D01*
X48041Y-44611D01*
X48111Y-44541D01*
X48149Y-44450D01*
X48149Y-44351D01*
X48149Y-43551D01*
X48128Y-43500D01*
X48149Y-43450D01*
X48149Y-43351D01*
X48149Y-42551D01*
X48111Y-42459D01*
X48041Y-42389D01*
X47950Y-42351D01*
X47851Y-42351D01*
X47051Y-42351D01*
X46959Y-42389D01*
X46889Y-42459D01*
X46851Y-42550D01*
X46851Y-42649D01*
X46851Y-43449D01*
X46871Y-43499D01*
X46851Y-43550D01*
X46851Y-43649D01*
X46851Y-44449D01*
X46889Y-44541D01*
X46959Y-44611D01*
X47050Y-44649D01*
X47053Y-44649D01*
X47053Y-46351D01*
X47051Y-46351D01*
X46959Y-46389D01*
X46889Y-46459D01*
X46851Y-46550D01*
X46851Y-46649D01*
X46851Y-47449D01*
X46871Y-47499D01*
X46851Y-47550D01*
X46851Y-47649D01*
X46851Y-48449D01*
X46889Y-48541D01*
X46959Y-48611D01*
X47050Y-48649D01*
X47149Y-48649D01*
X47949Y-48649D01*
X48041Y-48611D01*
X48111Y-48541D01*
X48149Y-48450D01*
X48149Y-49675D01*
X46825Y-49675D01*
X46825Y-41825D01*
X68861Y-41825D01*
X68851Y-41850D01*
X68851Y-41949D01*
X68850Y-42188D01*
X68912Y-42250D01*
X69400Y-42250D01*
X69450Y-42250D01*
X69550Y-42250D01*
X69600Y-42250D01*
X70088Y-42250D01*
X70150Y-42188D01*
X70149Y-41949D01*
X70149Y-41850D01*
X70138Y-41825D01*
X73675Y-41825D01*
X73675Y-49675D01*
X73675Y-49675D01*
G37*
G54D20*
X73675Y-49675D02*
X73540Y-49675D01*
X73540Y-48044D01*
X73540Y-43304D01*
X73536Y-42931D01*
X73402Y-42610D01*
X73267Y-42534D01*
X73196Y-42605D01*
X73196Y-42463D01*
X73120Y-42328D01*
X72774Y-42190D01*
X72401Y-42194D01*
X72080Y-42328D01*
X72004Y-42463D01*
X72600Y-43059D01*
X73196Y-42463D01*
X73196Y-42605D01*
X72671Y-43130D01*
X73267Y-43726D01*
X73402Y-43650D01*
X73540Y-43304D01*
X73540Y-48044D01*
X73536Y-47671D01*
X73402Y-47350D01*
X73267Y-47274D01*
X73196Y-47345D01*
X73196Y-47203D01*
X73196Y-43797D01*
X72600Y-43201D01*
X72529Y-43272D01*
X72529Y-43130D01*
X71933Y-42534D01*
X71798Y-42610D01*
X71660Y-42956D01*
X71664Y-43329D01*
X71798Y-43650D01*
X71933Y-43726D01*
X72529Y-43130D01*
X72529Y-43272D01*
X72004Y-43797D01*
X72080Y-43932D01*
X72426Y-44070D01*
X72799Y-44066D01*
X73120Y-43932D01*
X73196Y-43797D01*
X73196Y-47203D01*
X73120Y-47068D01*
X72774Y-46930D01*
X72401Y-46934D01*
X72080Y-47068D01*
X72052Y-47117D01*
X72052Y-46440D01*
X72052Y-46341D01*
X72052Y-45541D01*
X72035Y-45500D01*
X72052Y-45460D01*
X72052Y-45361D01*
X72052Y-44561D01*
X72014Y-44469D01*
X71944Y-44399D01*
X71853Y-44361D01*
X71754Y-44361D01*
X71208Y-44361D01*
X71135Y-44391D01*
X71063Y-44361D01*
X70964Y-44361D01*
X70711Y-44361D01*
X70601Y-44287D01*
X70430Y-44253D01*
X69149Y-44253D01*
X69149Y-43949D01*
X69949Y-43949D01*
X70041Y-43911D01*
X70111Y-43841D01*
X70149Y-43750D01*
X70149Y-43651D01*
X70149Y-42851D01*
X70128Y-42800D01*
X70149Y-42750D01*
X70149Y-42651D01*
X70150Y-42412D01*
X70088Y-42350D01*
X69600Y-42350D01*
X69550Y-42350D01*
X69450Y-42350D01*
X69400Y-42350D01*
X68912Y-42350D01*
X68850Y-42412D01*
X68851Y-42651D01*
X68851Y-42750D01*
X68871Y-42800D01*
X68851Y-42850D01*
X68851Y-42853D01*
X68500Y-42853D01*
X68329Y-42887D01*
X68184Y-42984D01*
X68149Y-43036D01*
X68149Y-42551D01*
X68111Y-42459D01*
X68041Y-42389D01*
X67950Y-42351D01*
X67851Y-42351D01*
X67051Y-42351D01*
X67000Y-42372D01*
X66949Y-42351D01*
X66612Y-42350D01*
X66550Y-42412D01*
X66550Y-42900D01*
X66550Y-42950D01*
X66550Y-43050D01*
X66550Y-43100D01*
X66550Y-43412D01*
X66550Y-43588D01*
X66550Y-43900D01*
X66550Y-43950D01*
X66550Y-44050D01*
X66550Y-44100D01*
X66550Y-44588D01*
X66612Y-44650D01*
X66949Y-44649D01*
X66999Y-44628D01*
X67050Y-44649D01*
X67103Y-44649D01*
X67184Y-44770D01*
X67266Y-44852D01*
X66450Y-44852D01*
X66450Y-44588D01*
X66450Y-44050D01*
X65912Y-44050D01*
X65850Y-44112D01*
X65851Y-44351D01*
X65851Y-44450D01*
X65889Y-44541D01*
X65959Y-44611D01*
X66051Y-44649D01*
X66388Y-44650D01*
X66450Y-44588D01*
X66450Y-44852D01*
X65350Y-44852D01*
X65075Y-44577D01*
X65111Y-44541D01*
X65149Y-44450D01*
X65149Y-44351D01*
X65149Y-43649D01*
X65851Y-43649D01*
X65850Y-43888D01*
X65912Y-43950D01*
X66450Y-43950D01*
X66450Y-43588D01*
X66450Y-43412D01*
X66450Y-43100D01*
X66450Y-43050D01*
X66450Y-42950D01*
X66450Y-42900D01*
X66450Y-42412D01*
X66388Y-42350D01*
X66051Y-42351D01*
X66000Y-42371D01*
X65950Y-42351D01*
X65851Y-42351D01*
X65051Y-42351D01*
X64959Y-42389D01*
X64889Y-42459D01*
X64851Y-42550D01*
X64851Y-42553D01*
X63700Y-42553D01*
X63529Y-42587D01*
X63384Y-42684D01*
X63287Y-42829D01*
X63264Y-42943D01*
X63149Y-43059D01*
X63149Y-42551D01*
X63111Y-42459D01*
X63041Y-42389D01*
X62950Y-42351D01*
X62851Y-42351D01*
X62051Y-42351D01*
X62000Y-42371D01*
X61950Y-42351D01*
X61851Y-42351D01*
X61051Y-42351D01*
X61000Y-42372D01*
X60949Y-42351D01*
X60612Y-42350D01*
X60550Y-42412D01*
X60550Y-42900D01*
X60550Y-42950D01*
X60550Y-43050D01*
X60550Y-43100D01*
X60550Y-43415D01*
X60550Y-43588D01*
X60550Y-43900D01*
X60550Y-43950D01*
X60550Y-44050D01*
X60450Y-44050D01*
X60450Y-43950D01*
X60450Y-43900D01*
X60450Y-43588D01*
X60450Y-43415D01*
X60450Y-43100D01*
X60450Y-43050D01*
X60450Y-42950D01*
X60450Y-42900D01*
X60450Y-42412D01*
X60388Y-42350D01*
X60051Y-42351D01*
X60000Y-42371D01*
X59950Y-42351D01*
X59851Y-42351D01*
X59051Y-42351D01*
X59000Y-42371D01*
X58950Y-42351D01*
X58851Y-42351D01*
X58051Y-42351D01*
X58000Y-42371D01*
X57950Y-42351D01*
X57851Y-42351D01*
X57051Y-42351D01*
X57000Y-42371D01*
X56950Y-42351D01*
X56851Y-42351D01*
X56051Y-42351D01*
X56000Y-42371D01*
X55950Y-42351D01*
X55851Y-42351D01*
X55051Y-42351D01*
X55000Y-42371D01*
X54950Y-42351D01*
X54851Y-42351D01*
X54051Y-42351D01*
X54000Y-42371D01*
X53950Y-42351D01*
X53851Y-42351D01*
X53051Y-42351D01*
X53000Y-42371D01*
X52950Y-42351D01*
X52851Y-42351D01*
X52051Y-42351D01*
X52000Y-42371D01*
X51950Y-42351D01*
X51851Y-42351D01*
X51051Y-42351D01*
X51000Y-42371D01*
X50950Y-42351D01*
X50851Y-42351D01*
X50051Y-42351D01*
X49959Y-42389D01*
X49889Y-42459D01*
X49851Y-42550D01*
X49851Y-42649D01*
X49851Y-43351D01*
X49612Y-43350D01*
X49550Y-43412D01*
X49550Y-43900D01*
X49550Y-43950D01*
X49550Y-44050D01*
X49550Y-44100D01*
X49550Y-44588D01*
X49612Y-44650D01*
X49851Y-44649D01*
X49950Y-44649D01*
X50041Y-44611D01*
X50069Y-44582D01*
X50087Y-44671D01*
X50184Y-44816D01*
X50684Y-45316D01*
X50829Y-45413D01*
X51000Y-45447D01*
X58357Y-45447D01*
X58357Y-45627D01*
X58455Y-45863D01*
X58636Y-46044D01*
X58872Y-46142D01*
X59010Y-46142D01*
X59053Y-46185D01*
X59053Y-46351D01*
X59051Y-46351D01*
X59000Y-46372D01*
X58949Y-46351D01*
X58612Y-46350D01*
X58550Y-46412D01*
X58550Y-46900D01*
X58550Y-46950D01*
X58550Y-47050D01*
X58550Y-47100D01*
X58550Y-47588D01*
X58612Y-47650D01*
X58851Y-47649D01*
X58851Y-48096D01*
X58807Y-48052D01*
X58782Y-48076D01*
X58772Y-48040D01*
X58576Y-47970D01*
X58450Y-47977D01*
X58450Y-47588D01*
X58450Y-47100D01*
X58450Y-47050D01*
X58450Y-46950D01*
X58450Y-46900D01*
X58450Y-46412D01*
X58388Y-46350D01*
X58051Y-46351D01*
X57959Y-46389D01*
X57930Y-46417D01*
X57913Y-46329D01*
X57816Y-46184D01*
X57316Y-45684D01*
X57171Y-45587D01*
X57000Y-45553D01*
X56500Y-45553D01*
X56329Y-45587D01*
X56184Y-45684D01*
X55684Y-46184D01*
X55587Y-46329D01*
X55581Y-46354D01*
X55500Y-46338D01*
X55299Y-46378D01*
X55129Y-46492D01*
X55126Y-46496D01*
X55111Y-46459D01*
X55041Y-46389D01*
X54950Y-46351D01*
X54851Y-46351D01*
X54051Y-46351D01*
X54000Y-46371D01*
X53950Y-46351D01*
X53851Y-46351D01*
X53051Y-46351D01*
X53000Y-46371D01*
X52950Y-46351D01*
X52851Y-46351D01*
X52051Y-46351D01*
X52000Y-46371D01*
X51950Y-46351D01*
X51851Y-46351D01*
X51051Y-46351D01*
X50959Y-46389D01*
X50889Y-46459D01*
X50851Y-46550D01*
X50851Y-46553D01*
X50500Y-46553D01*
X50329Y-46587D01*
X50184Y-46684D01*
X50149Y-46735D01*
X50149Y-46551D01*
X50111Y-46459D01*
X50041Y-46389D01*
X49950Y-46351D01*
X49851Y-46351D01*
X49612Y-46350D01*
X49550Y-46412D01*
X49550Y-46900D01*
X49550Y-46950D01*
X49550Y-47050D01*
X49550Y-47100D01*
X49550Y-47588D01*
X49612Y-47650D01*
X49851Y-47649D01*
X49851Y-48449D01*
X49889Y-48541D01*
X49959Y-48611D01*
X50050Y-48649D01*
X50149Y-48649D01*
X50949Y-48649D01*
X50999Y-48628D01*
X51050Y-48649D01*
X51149Y-48649D01*
X51949Y-48649D01*
X51999Y-48628D01*
X52050Y-48649D01*
X52149Y-48649D01*
X52949Y-48649D01*
X52999Y-48628D01*
X53050Y-48649D01*
X53149Y-48649D01*
X53949Y-48649D01*
X53999Y-48628D01*
X54050Y-48649D01*
X54149Y-48649D01*
X54949Y-48649D01*
X54999Y-48628D01*
X55050Y-48649D01*
X55149Y-48649D01*
X55949Y-48649D01*
X55999Y-48628D01*
X56050Y-48649D01*
X56149Y-48649D01*
X56949Y-48649D01*
X56976Y-48637D01*
X56976Y-48824D01*
X57014Y-48916D01*
X57084Y-48986D01*
X57175Y-49024D01*
X57274Y-49024D01*
X57824Y-49024D01*
X57916Y-48986D01*
X57986Y-48916D01*
X58024Y-48825D01*
X58024Y-48733D01*
X58040Y-48772D01*
X58132Y-48797D01*
X58429Y-48500D01*
X58132Y-48203D01*
X58040Y-48228D01*
X58024Y-48272D01*
X58024Y-48176D01*
X57986Y-48084D01*
X57947Y-48045D01*
X57947Y-47800D01*
X57913Y-47629D01*
X57844Y-47526D01*
X57871Y-47508D01*
X57873Y-47504D01*
X57889Y-47541D01*
X57959Y-47611D01*
X58051Y-47649D01*
X58388Y-47650D01*
X58450Y-47588D01*
X58450Y-47977D01*
X58368Y-47982D01*
X58228Y-48040D01*
X58203Y-48132D01*
X58465Y-48394D01*
X58500Y-48429D01*
X58571Y-48500D01*
X58500Y-48571D01*
X58465Y-48606D01*
X58203Y-48868D01*
X58228Y-48960D01*
X58424Y-49030D01*
X58632Y-49018D01*
X58772Y-48960D01*
X58782Y-48923D01*
X58797Y-48938D01*
X58807Y-48948D01*
X58858Y-48896D01*
X58912Y-48950D01*
X59400Y-48950D01*
X59450Y-48950D01*
X59550Y-48950D01*
X59600Y-48950D01*
X59912Y-48950D01*
X60088Y-48950D01*
X60400Y-48950D01*
X60450Y-48950D01*
X60550Y-48950D01*
X60600Y-48950D01*
X61088Y-48950D01*
X61150Y-48888D01*
X61149Y-48649D01*
X61949Y-48649D01*
X61999Y-48628D01*
X62050Y-48649D01*
X62149Y-48649D01*
X62949Y-48649D01*
X62999Y-48628D01*
X63050Y-48649D01*
X63149Y-48649D01*
X63850Y-48649D01*
X63850Y-48888D01*
X63912Y-48950D01*
X64400Y-48950D01*
X64450Y-48950D01*
X64550Y-48950D01*
X64600Y-48950D01*
X65088Y-48950D01*
X65150Y-48888D01*
X65149Y-48551D01*
X65128Y-48500D01*
X65149Y-48450D01*
X65149Y-48351D01*
X65149Y-47551D01*
X65128Y-47500D01*
X65149Y-47450D01*
X65149Y-47447D01*
X65851Y-47447D01*
X65851Y-47449D01*
X65889Y-47541D01*
X65959Y-47611D01*
X66050Y-47649D01*
X66149Y-47649D01*
X66949Y-47649D01*
X66999Y-47628D01*
X67050Y-47649D01*
X67082Y-47649D01*
X67087Y-47671D01*
X67184Y-47816D01*
X67383Y-48015D01*
X67384Y-48016D01*
X67528Y-48112D01*
X67529Y-48113D01*
X67699Y-48146D01*
X67700Y-48147D01*
X69050Y-48147D01*
X69221Y-48113D01*
X69366Y-48016D01*
X69516Y-47866D01*
X69613Y-47721D01*
X69647Y-47550D01*
X69647Y-46616D01*
X70162Y-47148D01*
X70187Y-47271D01*
X70284Y-47416D01*
X70429Y-47513D01*
X70600Y-47547D01*
X71100Y-47547D01*
X71271Y-47513D01*
X71416Y-47416D01*
X71846Y-46986D01*
X71943Y-46841D01*
X71977Y-46670D01*
X71977Y-46568D01*
X72014Y-46531D01*
X72052Y-46440D01*
X72052Y-47117D01*
X72004Y-47203D01*
X72600Y-47799D01*
X73196Y-47203D01*
X73196Y-47345D01*
X72671Y-47870D01*
X73267Y-48466D01*
X73402Y-48390D01*
X73540Y-48044D01*
X73540Y-49675D01*
X73196Y-49675D01*
X73196Y-48537D01*
X72600Y-47941D01*
X72529Y-48012D01*
X72529Y-47870D01*
X71933Y-47274D01*
X71798Y-47350D01*
X71660Y-47696D01*
X71664Y-48069D01*
X71798Y-48390D01*
X71933Y-48466D01*
X72529Y-47870D01*
X72529Y-48012D01*
X72004Y-48537D01*
X72080Y-48672D01*
X72426Y-48810D01*
X72799Y-48806D01*
X73120Y-48672D01*
X73196Y-48537D01*
X73196Y-49675D01*
X65150Y-49675D01*
X65150Y-49112D01*
X65088Y-49050D01*
X64550Y-49050D01*
X64550Y-49588D01*
X64612Y-49650D01*
X64851Y-49649D01*
X64950Y-49649D01*
X65041Y-49611D01*
X65111Y-49541D01*
X65149Y-49449D01*
X65150Y-49112D01*
X65150Y-49675D01*
X64450Y-49675D01*
X64450Y-49588D01*
X64450Y-49050D01*
X63912Y-49050D01*
X63850Y-49112D01*
X63851Y-49449D01*
X63889Y-49541D01*
X63959Y-49611D01*
X64050Y-49649D01*
X64149Y-49649D01*
X64388Y-49650D01*
X64450Y-49588D01*
X64450Y-49675D01*
X61150Y-49675D01*
X61150Y-49112D01*
X61088Y-49050D01*
X60550Y-49050D01*
X60550Y-49588D01*
X60612Y-49650D01*
X60851Y-49649D01*
X60950Y-49649D01*
X61041Y-49611D01*
X61111Y-49541D01*
X61149Y-49449D01*
X61150Y-49112D01*
X61150Y-49675D01*
X60450Y-49675D01*
X60450Y-49588D01*
X60450Y-49050D01*
X60088Y-49050D01*
X59912Y-49050D01*
X59550Y-49050D01*
X59550Y-49588D01*
X59612Y-49650D01*
X59851Y-49649D01*
X59950Y-49649D01*
X60000Y-49628D01*
X60050Y-49649D01*
X60149Y-49649D01*
X60388Y-49650D01*
X60450Y-49588D01*
X60450Y-49675D01*
X59450Y-49675D01*
X59450Y-49588D01*
X59450Y-49050D01*
X58912Y-49050D01*
X58850Y-49112D01*
X58851Y-49449D01*
X58889Y-49541D01*
X58959Y-49611D01*
X59050Y-49649D01*
X59149Y-49649D01*
X59388Y-49650D01*
X59450Y-49588D01*
X59450Y-49675D01*
X58797Y-49675D01*
X49450Y-49675D01*
X49450Y-47588D01*
X49450Y-47050D01*
X49450Y-46950D01*
X49450Y-46412D01*
X49450Y-44588D01*
X49450Y-44050D01*
X49450Y-43950D01*
X49450Y-43412D01*
X49388Y-43350D01*
X49149Y-43351D01*
X49050Y-43351D01*
X48959Y-43389D01*
X48889Y-43459D01*
X48851Y-43551D01*
X48850Y-43888D01*
X48912Y-43950D01*
X49450Y-43950D01*
X49450Y-44050D01*
X48912Y-44050D01*
X48850Y-44112D01*
X48851Y-44449D01*
X48889Y-44541D01*
X48959Y-44611D01*
X49050Y-44649D01*
X49149Y-44649D01*
X49388Y-44650D01*
X49450Y-44588D01*
X49450Y-46412D01*
X49388Y-46350D01*
X49149Y-46351D01*
X49050Y-46351D01*
X48959Y-46389D01*
X48889Y-46459D01*
X48851Y-46551D01*
X48850Y-46888D01*
X48912Y-46950D01*
X49450Y-46950D01*
X49450Y-47050D01*
X48912Y-47050D01*
X48850Y-47112D01*
X48851Y-47449D01*
X48889Y-47541D01*
X48959Y-47611D01*
X49050Y-47649D01*
X49149Y-47649D01*
X49388Y-47650D01*
X49450Y-47588D01*
X49450Y-49675D01*
X48149Y-49675D01*
X48149Y-48450D01*
X48149Y-48351D01*
X48149Y-47551D01*
X48128Y-47500D01*
X48149Y-47450D01*
X48149Y-47351D01*
X48149Y-46551D01*
X48111Y-46459D01*
X48041Y-46389D01*
X47950Y-46351D01*
X47947Y-46351D01*
X47947Y-44649D01*
X47949Y-44649D01*
X48041Y-44611D01*
X48111Y-44541D01*
X48149Y-44450D01*
X48149Y-44351D01*
X48149Y-43551D01*
X48128Y-43500D01*
X48149Y-43450D01*
X48149Y-43351D01*
X48149Y-42551D01*
X48111Y-42459D01*
X48041Y-42389D01*
X47950Y-42351D01*
X47851Y-42351D01*
X47051Y-42351D01*
X46959Y-42389D01*
X46889Y-42459D01*
X46851Y-42550D01*
X46851Y-42649D01*
X46851Y-43449D01*
X46871Y-43499D01*
X46851Y-43550D01*
X46851Y-43649D01*
X46851Y-44449D01*
X46889Y-44541D01*
X46959Y-44611D01*
X47050Y-44649D01*
X47053Y-44649D01*
X47053Y-46351D01*
X47051Y-46351D01*
X46959Y-46389D01*
X46889Y-46459D01*
X46851Y-46550D01*
X46851Y-46649D01*
X46851Y-47449D01*
X46871Y-47499D01*
X46851Y-47550D01*
X46851Y-47649D01*
X46851Y-48449D01*
X46889Y-48541D01*
X46959Y-48611D01*
X47050Y-48649D01*
X47149Y-48649D01*
X47949Y-48649D01*
X48041Y-48611D01*
X48111Y-48541D01*
X48149Y-48450D01*
X48149Y-49675D01*
X46825Y-49675D01*
X46825Y-41825D01*
X68861Y-41825D01*
X68851Y-41850D01*
X68851Y-41949D01*
X68850Y-42188D01*
X68912Y-42250D01*
X69400Y-42250D01*
X69450Y-42250D01*
X69550Y-42250D01*
X69600Y-42250D01*
X70088Y-42250D01*
X70150Y-42188D01*
X70149Y-41949D01*
X70149Y-41850D01*
X70138Y-41825D01*
X73675Y-41825D01*
X73675Y-49675D01*
M02*
