G04 (created by PCBNEW (2012-09-11 BZR 3714)-testing) date mer. 12 sept. 2012 09:40:05 CEST*
%MOIN*%
G04 Gerber Fmt 3.4, Leading zero omitted, Abs format*
%FSLAX34Y34*%
G01*
G70*
G90*
G04 APERTURE LIST*
%ADD10C,0.006*%
%ADD11C,0.015*%
%ADD12R,0.08X0.08*%
%ADD13C,0.0787*%
%ADD14O,0.055X0.08*%
%ADD15C,0.1378*%
%ADD16R,0.055X0.055*%
%ADD17C,0.055*%
G04 APERTURE END LIST*
G54D10*
G54D11*
X74000Y-41500D02*
X74000Y-50000D01*
X46500Y-41500D02*
X74000Y-41500D01*
X46500Y-50000D02*
X46500Y-41500D01*
X74000Y-50000D02*
X46500Y-50000D01*
G54D12*
X69500Y-43300D03*
X69500Y-42300D03*
G54D13*
X59000Y-45500D03*
X61000Y-45500D03*
G54D12*
X59500Y-43000D03*
X60500Y-43000D03*
X64500Y-48000D03*
X64500Y-49000D03*
X60500Y-48000D03*
X60500Y-49000D03*
X59500Y-48000D03*
X59500Y-49000D03*
X49500Y-47000D03*
X47500Y-47000D03*
X49500Y-44000D03*
X47500Y-44000D03*
X52500Y-47000D03*
X53500Y-47000D03*
X54500Y-47000D03*
G54D14*
X55500Y-47000D03*
X56500Y-47000D03*
X57500Y-47000D03*
G54D12*
X58500Y-47000D03*
X59500Y-47000D03*
X60500Y-47000D03*
X61500Y-47000D03*
X62500Y-47000D03*
X63500Y-47000D03*
X64500Y-47000D03*
X51500Y-47000D03*
X64500Y-44000D03*
G54D14*
X63500Y-44000D03*
X62500Y-44000D03*
X61500Y-44000D03*
X60500Y-44000D03*
G54D12*
X59500Y-44000D03*
G54D14*
X58500Y-44000D03*
G54D12*
X57500Y-44000D03*
X56500Y-44000D03*
X55500Y-44000D03*
X54500Y-44000D03*
X53500Y-44000D03*
X52500Y-44000D03*
X51500Y-44000D03*
G54D10*
G36*
X71803Y-45590D02*
X71803Y-46390D01*
X71257Y-46390D01*
X71257Y-45590D01*
X71803Y-45590D01*
X71803Y-45590D01*
G37*
G36*
X71803Y-44610D02*
X71803Y-45410D01*
X71257Y-45410D01*
X71257Y-44610D01*
X71803Y-44610D01*
X71803Y-44610D01*
G37*
G36*
X71013Y-44610D02*
X71013Y-45410D01*
X70467Y-45410D01*
X70467Y-44610D01*
X71013Y-44610D01*
X71013Y-44610D01*
G37*
G36*
X71013Y-45590D02*
X71013Y-46390D01*
X70467Y-46390D01*
X70467Y-45590D01*
X71013Y-45590D01*
X71013Y-45590D01*
G37*
G54D15*
X72600Y-47870D03*
X72600Y-43130D03*
G54D12*
X66500Y-47000D03*
X66500Y-44000D03*
X63500Y-48000D03*
X62500Y-48000D03*
X61500Y-48000D03*
X65500Y-43000D03*
X66500Y-43000D03*
X67500Y-43000D03*
X51500Y-43000D03*
X52500Y-43000D03*
X53500Y-43000D03*
X54500Y-43000D03*
X55500Y-43000D03*
X56500Y-43000D03*
X57500Y-43000D03*
X58500Y-43000D03*
X61500Y-43000D03*
X62500Y-43000D03*
X68500Y-44000D03*
X68500Y-47000D03*
X67500Y-44000D03*
X67500Y-47000D03*
X50500Y-43000D03*
X47500Y-43000D03*
X50500Y-48000D03*
X47500Y-48000D03*
X56500Y-48000D03*
X55500Y-48000D03*
X54500Y-48000D03*
X53500Y-48000D03*
X52500Y-48000D03*
X51500Y-48000D03*
G54D16*
X57500Y-48500D03*
G54D17*
X58500Y-48500D03*
M02*
