M48
METRIC,TZ
T1C0.635
T2C0.762
T3C0.800
T4C0.813
T5C1.250
T6C2.301
%
G90
G05
T1
X244090Y-138260
X245125Y-134907
X253839Y-150448
T2
X233680Y-149860
X238760Y-149860
T3
X214630Y-146050
X214630Y-153670
X217170Y-146050
X217170Y-153670
X219710Y-146050
X219710Y-153670
X222250Y-146050
X222250Y-153670
X224790Y-146050
X224790Y-153670
X227330Y-146050
X227330Y-153670
X229870Y-146050
X229870Y-153670
X232410Y-146050
X232410Y-153670
X234950Y-146050
X234950Y-153670
X237490Y-146050
X237490Y-153670
X240030Y-146050
X240030Y-153670
X242570Y-146050
X242570Y-153670
X245110Y-146050
X245110Y-153670
X247650Y-146050
X247650Y-153670
T4
X200787Y-135128
X200787Y-140208
X200787Y-143002
X200787Y-145288
X200787Y-147574
X200787Y-149860
X200787Y-152146
X200787Y-154432
X200787Y-156718
X200787Y-159512
X200787Y-164592
X208407Y-135128
X208407Y-140208
X208407Y-143002
X208407Y-145288
X208407Y-147574
X208407Y-149860
X208407Y-152146
X208407Y-154432
X208407Y-156718
X208407Y-159512
X208407Y-164592
X210947Y-146050
X210947Y-153670
X213360Y-136398
X213360Y-163322
X214630Y-140589
X214630Y-143129
X214630Y-156718
X214630Y-159258
X215900Y-136398
X215900Y-163322
X217170Y-140589
X217170Y-143129
X217170Y-156718
X217170Y-159258
X219710Y-135128
X219710Y-164592
X222250Y-135128
X222250Y-164592
X224790Y-135128
X224790Y-164592
X227330Y-135128
X227330Y-140589
X227330Y-143129
X227330Y-164592
X229870Y-135128
X229870Y-140589
X229870Y-143129
X229870Y-164592
X232410Y-135128
X232410Y-164592
X233680Y-140589
X233680Y-143129
X234950Y-135128
X234950Y-156591
X234950Y-159131
X234950Y-164592
X237490Y-135128
X237490Y-156591
X237490Y-159131
X237490Y-164592
X238760Y-140589
X238760Y-143129
X240030Y-135128
X240030Y-164592
X242570Y-135128
X242570Y-164592
X243840Y-140589
X243840Y-143129
X243840Y-156591
X243840Y-159131
X247650Y-135128
X247650Y-140589
X247650Y-143129
X247650Y-156591
X247650Y-159131
X247650Y-164592
X250190Y-135128
X250190Y-164592
X251841Y-146050
X251841Y-153670
X253111Y-135128
X253111Y-164592
X255651Y-148590
X255651Y-151130
X257650Y-148590
X257650Y-151130
X260731Y-135128
X260731Y-164592
T5
X253111Y-139319
X253111Y-160401
X256921Y-139319
X256921Y-160401
X260731Y-139319
X260731Y-160401
T6
X260350Y-143861
X260350Y-155859
T0
M30
