%FSLAX34Y34*%
G04 Gerber Fmt 3.4, Leading zero omitted, Abs format*
G04 (created by PCBNEW (2013-10-28 BZR 4418)-product) date jeu. 31 oct. 2013 10:30:57 CET*
%MOIN*%
G01*
G70*
G90*
G04 APERTURE LIST*
%ADD10C,0.005906*%
%ADD11R,0.078740X0.078740*%
%ADD12R,0.055000X0.078740*%
%ADD13R,0.078740X0.055000*%
%ADD14R,0.066929X0.078740*%
%ADD15R,0.106300X0.106300*%
%ADD16R,0.098400X0.098400*%
G04 APERTURE END LIST*
G54D10*
G54D11*
X84000Y-53700D03*
X85000Y-53700D03*
X84000Y-64300D03*
X85000Y-64300D03*
X95500Y-64800D03*
X94500Y-64800D03*
X93500Y-64800D03*
X92500Y-64800D03*
X91500Y-64800D03*
X90500Y-64800D03*
X89500Y-64800D03*
X88500Y-64800D03*
X87500Y-64800D03*
X86500Y-64800D03*
X86500Y-53200D03*
X87500Y-53200D03*
X88500Y-53200D03*
X89500Y-53200D03*
X90500Y-53200D03*
X91500Y-53200D03*
X92500Y-53200D03*
X93500Y-53200D03*
X94500Y-53200D03*
X95500Y-53200D03*
X89500Y-56350D03*
X89500Y-55350D03*
X92500Y-62650D03*
X92500Y-61650D03*
X93500Y-62650D03*
X93500Y-61650D03*
X85500Y-61700D03*
X85500Y-62700D03*
X84500Y-61700D03*
X84500Y-62700D03*
X97500Y-56350D03*
X97500Y-55350D03*
X99650Y-64800D03*
X102650Y-64800D03*
X99150Y-57500D03*
X99150Y-60500D03*
X98500Y-53200D03*
X97500Y-53200D03*
G54D12*
X83050Y-60500D03*
X83050Y-57500D03*
G54D13*
X82050Y-56300D03*
X79050Y-56300D03*
X79050Y-60800D03*
X82050Y-60800D03*
X79050Y-59000D03*
X82050Y-59000D03*
X79050Y-59900D03*
X82050Y-59900D03*
X79050Y-58100D03*
X82050Y-58100D03*
G54D11*
X82050Y-62800D03*
X82050Y-64800D03*
X79050Y-62800D03*
X79050Y-64800D03*
X79050Y-55200D03*
X79050Y-53200D03*
X82050Y-55200D03*
X82050Y-53200D03*
X94000Y-59000D03*
X92000Y-59000D03*
X96000Y-61650D03*
X96000Y-62650D03*
X97500Y-61650D03*
X97500Y-62650D03*
X94000Y-56350D03*
X94000Y-55350D03*
X84500Y-56350D03*
X84500Y-55350D03*
X92000Y-56350D03*
X92000Y-55350D03*
X90500Y-56350D03*
X90500Y-55350D03*
X85500Y-56350D03*
X85500Y-55350D03*
X96000Y-56350D03*
X96000Y-55350D03*
X99650Y-53200D03*
X102650Y-53200D03*
G54D13*
X79050Y-61700D03*
X82050Y-61700D03*
X82050Y-57200D03*
X79050Y-57200D03*
G54D14*
X100650Y-58500D03*
X100650Y-59500D03*
X101437Y-59500D03*
X101437Y-58500D03*
G54D15*
X102500Y-56638D03*
X102500Y-61362D03*
G54D16*
X99650Y-54850D03*
X101150Y-54850D03*
X102650Y-54850D03*
X102650Y-63150D03*
X101150Y-63150D03*
X99650Y-63150D03*
G54D11*
X84500Y-60500D03*
X85500Y-60500D03*
X86500Y-60500D03*
X87500Y-60500D03*
X88500Y-60500D03*
X89500Y-60500D03*
X90500Y-60500D03*
X91500Y-60500D03*
X92500Y-60500D03*
X93500Y-60500D03*
X94500Y-60500D03*
X95500Y-60500D03*
X96500Y-60500D03*
X97500Y-60500D03*
X97500Y-57500D03*
X96500Y-57500D03*
X95500Y-57500D03*
X94500Y-57500D03*
X93500Y-57500D03*
X92500Y-57500D03*
X91500Y-57500D03*
X90500Y-57500D03*
X89500Y-57500D03*
X88500Y-57500D03*
X87500Y-57500D03*
X86500Y-57500D03*
X85500Y-57500D03*
X84500Y-57500D03*
X98500Y-64800D03*
X97500Y-64800D03*
M02*
