%FSLAX34Y34*%
G04 Gerber Fmt 3.4, Leading zero omitted, Abs format*
G04 (created by PCBNEW (2013-10-28 BZR 4418)-product) date jeu. 31 oct. 2013 10:30:57 CET*
%MOIN*%
G01*
G70*
G90*
G04 APERTURE LIST*
%ADD10C,0.005906*%
%ADD11R,0.078740X0.078740*%
%ADD12R,0.055000X0.078740*%
%ADD13R,0.078740X0.055000*%
%ADD14R,0.066929X0.078740*%
%ADD15R,0.106300X0.106300*%
%ADD16R,0.098400X0.098400*%
%ADD17C,0.035000*%
%ADD18C,0.010000*%
%ADD19C,0.008000*%
G04 APERTURE END LIST*
G54D10*
G54D11*
X84000Y-53700D03*
X85000Y-53700D03*
X84000Y-64300D03*
X85000Y-64300D03*
X95500Y-64800D03*
X94500Y-64800D03*
X93500Y-64800D03*
X92500Y-64800D03*
X91500Y-64800D03*
X90500Y-64800D03*
X89500Y-64800D03*
X88500Y-64800D03*
X87500Y-64800D03*
X86500Y-64800D03*
X86500Y-53200D03*
X87500Y-53200D03*
X88500Y-53200D03*
X89500Y-53200D03*
X90500Y-53200D03*
X91500Y-53200D03*
X92500Y-53200D03*
X93500Y-53200D03*
X94500Y-53200D03*
X95500Y-53200D03*
X89500Y-56350D03*
X89500Y-55350D03*
X92500Y-62650D03*
X92500Y-61650D03*
X93500Y-62650D03*
X93500Y-61650D03*
X85500Y-61700D03*
X85500Y-62700D03*
X84500Y-61700D03*
X84500Y-62700D03*
X97500Y-56350D03*
X97500Y-55350D03*
X99650Y-64800D03*
X102650Y-64800D03*
X99150Y-57500D03*
X99150Y-60500D03*
X98500Y-53200D03*
X97500Y-53200D03*
G54D12*
X83050Y-60500D03*
X83050Y-57500D03*
G54D13*
X82050Y-56300D03*
X79050Y-56300D03*
X79050Y-60800D03*
X82050Y-60800D03*
X79050Y-59000D03*
X82050Y-59000D03*
X79050Y-59900D03*
X82050Y-59900D03*
X79050Y-58100D03*
X82050Y-58100D03*
G54D11*
X82050Y-62800D03*
X82050Y-64800D03*
X79050Y-62800D03*
X79050Y-64800D03*
X79050Y-55200D03*
X79050Y-53200D03*
X82050Y-55200D03*
X82050Y-53200D03*
X94000Y-59000D03*
X92000Y-59000D03*
X96000Y-61650D03*
X96000Y-62650D03*
X97500Y-61650D03*
X97500Y-62650D03*
X94000Y-56350D03*
X94000Y-55350D03*
X84500Y-56350D03*
X84500Y-55350D03*
X92000Y-56350D03*
X92000Y-55350D03*
X90500Y-56350D03*
X90500Y-55350D03*
X85500Y-56350D03*
X85500Y-55350D03*
X96000Y-56350D03*
X96000Y-55350D03*
X99650Y-53200D03*
X102650Y-53200D03*
G54D13*
X79050Y-61700D03*
X82050Y-61700D03*
X82050Y-57200D03*
X79050Y-57200D03*
G54D14*
X100650Y-58500D03*
X100650Y-59500D03*
X101437Y-59500D03*
X101437Y-58500D03*
G54D15*
X102500Y-56638D03*
X102500Y-61362D03*
G54D16*
X99650Y-54850D03*
X101150Y-54850D03*
X102650Y-54850D03*
X102650Y-63150D03*
X101150Y-63150D03*
X99650Y-63150D03*
G54D11*
X84500Y-60500D03*
X85500Y-60500D03*
X86500Y-60500D03*
X87500Y-60500D03*
X88500Y-60500D03*
X89500Y-60500D03*
X90500Y-60500D03*
X91500Y-60500D03*
X92500Y-60500D03*
X93500Y-60500D03*
X94500Y-60500D03*
X95500Y-60500D03*
X96500Y-60500D03*
X97500Y-60500D03*
X97500Y-57500D03*
X96500Y-57500D03*
X95500Y-57500D03*
X94500Y-57500D03*
X93500Y-57500D03*
X92500Y-57500D03*
X91500Y-57500D03*
X90500Y-57500D03*
X89500Y-57500D03*
X88500Y-57500D03*
X87500Y-57500D03*
X86500Y-57500D03*
X85500Y-57500D03*
X84500Y-57500D03*
X98500Y-64800D03*
X97500Y-64800D03*
G54D17*
X99936Y-59231D03*
X96098Y-54432D03*
X96505Y-53112D03*
G54D18*
X101437Y-59500D02*
X101437Y-60043D01*
X99936Y-59732D02*
X99936Y-59231D01*
X100248Y-60043D02*
X99936Y-59732D01*
X101437Y-60043D02*
X100248Y-60043D01*
X86500Y-57500D02*
X86500Y-53200D01*
X87500Y-57500D02*
X87500Y-53200D01*
X89500Y-62256D02*
X91500Y-64256D01*
X89500Y-60500D02*
X89500Y-62256D01*
X91500Y-64800D02*
X91500Y-64256D01*
X88500Y-62256D02*
X90500Y-64256D01*
X88500Y-60500D02*
X88500Y-62256D01*
X90500Y-64800D02*
X90500Y-64256D01*
X87500Y-62256D02*
X89500Y-64256D01*
X87500Y-60500D02*
X87500Y-62256D01*
X89500Y-64800D02*
X89500Y-64256D01*
X86500Y-63256D02*
X86500Y-61043D01*
X87500Y-64256D02*
X86500Y-63256D01*
X86500Y-60500D02*
X86500Y-61043D01*
X87500Y-64528D02*
X87500Y-64256D01*
X87500Y-64528D02*
X87500Y-64800D01*
X79375Y-62125D02*
X79050Y-62125D01*
X79606Y-62355D02*
X79375Y-62125D01*
X79606Y-63363D02*
X79606Y-62355D01*
X81586Y-65343D02*
X79606Y-63363D01*
X86956Y-65343D02*
X81586Y-65343D01*
X87500Y-64800D02*
X86956Y-65343D01*
X79050Y-61700D02*
X79050Y-62125D01*
X88500Y-57500D02*
X88500Y-53200D01*
X90944Y-54644D02*
X89500Y-53200D01*
X94312Y-54644D02*
X90944Y-54644D01*
X94543Y-54876D02*
X94312Y-54644D01*
X94543Y-56912D02*
X94543Y-54876D01*
X94500Y-56956D02*
X94543Y-56912D01*
X94500Y-57500D02*
X94500Y-56956D01*
X91216Y-53916D02*
X90500Y-53200D01*
X93874Y-53916D02*
X91216Y-53916D01*
X94956Y-54998D02*
X93874Y-53916D01*
X94956Y-56412D02*
X94956Y-54998D01*
X95500Y-56956D02*
X94956Y-56412D01*
X95500Y-57500D02*
X95500Y-56956D01*
X96500Y-57500D02*
X96500Y-56956D01*
X96543Y-54878D02*
X96098Y-54432D01*
X96543Y-56912D02*
X96543Y-54878D01*
X96500Y-56956D02*
X96543Y-56912D01*
X97500Y-60500D02*
X97500Y-59956D01*
X96505Y-53220D02*
X96505Y-53112D01*
X97188Y-53903D02*
X96505Y-53220D01*
X97376Y-53903D02*
X97188Y-53903D01*
X98261Y-54788D02*
X97376Y-53903D01*
X98261Y-59194D02*
X98261Y-54788D01*
X97500Y-59956D02*
X98261Y-59194D01*
X94043Y-52656D02*
X93500Y-53200D01*
X95957Y-52656D02*
X94043Y-52656D01*
X96043Y-52742D02*
X95957Y-52656D01*
X96043Y-53115D02*
X96043Y-52742D01*
X97355Y-54426D02*
X96043Y-53115D01*
X97605Y-54426D02*
X97355Y-54426D01*
X98061Y-54882D02*
X97605Y-54426D01*
X98061Y-57938D02*
X98061Y-54882D01*
X96043Y-59956D02*
X98061Y-57938D01*
X95500Y-59956D02*
X96043Y-59956D01*
X95500Y-60500D02*
X95500Y-59956D01*
X94043Y-63712D02*
X93500Y-64256D01*
X94043Y-61500D02*
X94043Y-63712D01*
X94500Y-61043D02*
X94043Y-61500D01*
X94500Y-60500D02*
X94500Y-61043D01*
X93500Y-64800D02*
X93500Y-64256D01*
X90500Y-62256D02*
X92500Y-64256D01*
X90500Y-60500D02*
X90500Y-62256D01*
X92500Y-64800D02*
X92500Y-64256D01*
X86500Y-64800D02*
X86500Y-64256D01*
X82050Y-57200D02*
X82050Y-57625D01*
X85043Y-61043D02*
X84500Y-60500D01*
X85849Y-61043D02*
X85043Y-61043D01*
X86268Y-61462D02*
X85849Y-61043D01*
X86268Y-64024D02*
X86268Y-61462D01*
X86500Y-64256D02*
X86268Y-64024D01*
X82475Y-57625D02*
X82050Y-57625D01*
X82624Y-57774D02*
X82475Y-57625D01*
X82624Y-58081D02*
X82624Y-57774D01*
X84500Y-59956D02*
X82624Y-58081D01*
X84500Y-60500D02*
X84500Y-59956D01*
X100614Y-55492D02*
X99150Y-56956D01*
X101150Y-55492D02*
X100614Y-55492D01*
X99150Y-57500D02*
X99150Y-56956D01*
X101150Y-54850D02*
X101150Y-55492D01*
X97500Y-56350D02*
X97500Y-57500D01*
X79050Y-58100D02*
X79050Y-59000D01*
X94500Y-62130D02*
X94500Y-64800D01*
X95586Y-61043D02*
X94500Y-62130D01*
X95956Y-61043D02*
X95586Y-61043D01*
X96500Y-60500D02*
X95956Y-61043D01*
X79050Y-59900D02*
X79050Y-59450D01*
X79050Y-59450D02*
X79050Y-59000D01*
X84126Y-61156D02*
X84500Y-61156D01*
X83956Y-60986D02*
X84126Y-61156D01*
X83956Y-60516D02*
X83956Y-60986D01*
X82890Y-59450D02*
X83956Y-60516D01*
X79050Y-59450D02*
X82890Y-59450D01*
X84500Y-61700D02*
X84500Y-61156D01*
X101150Y-63150D02*
X100507Y-63150D01*
X100507Y-62788D02*
X99369Y-61650D01*
X100507Y-63150D02*
X100507Y-62788D01*
X99369Y-61650D02*
X97500Y-61650D01*
X102650Y-53200D02*
X102650Y-54850D01*
X99693Y-61325D02*
X99369Y-61650D01*
X99693Y-59772D02*
X99693Y-61325D01*
X99607Y-59685D02*
X99693Y-59772D01*
X99607Y-58236D02*
X99607Y-59685D01*
X102350Y-55492D02*
X99607Y-58236D01*
X102650Y-55492D02*
X102350Y-55492D01*
X102650Y-54850D02*
X102650Y-55492D01*
X82050Y-61700D02*
X82050Y-61912D01*
X81624Y-60325D02*
X82050Y-60325D01*
X81506Y-60443D02*
X81624Y-60325D01*
X81506Y-61368D02*
X81506Y-60443D01*
X82050Y-61912D02*
X81506Y-61368D01*
X82050Y-59900D02*
X82050Y-60325D01*
X82050Y-64800D02*
X82050Y-64256D01*
X82389Y-63916D02*
X82608Y-63916D01*
X82050Y-64256D02*
X82389Y-63916D01*
X82608Y-62357D02*
X82608Y-63916D01*
X82163Y-61912D02*
X82608Y-62357D01*
X82050Y-61912D02*
X82163Y-61912D01*
X86043Y-62243D02*
X85500Y-61700D01*
X86043Y-63764D02*
X86043Y-62243D01*
X85543Y-64264D02*
X86043Y-63764D01*
X85543Y-64764D02*
X85543Y-64264D01*
X85464Y-64843D02*
X85543Y-64764D01*
X83535Y-64843D02*
X85464Y-64843D01*
X82608Y-63916D02*
X83535Y-64843D01*
X78624Y-56774D02*
X79050Y-56774D01*
X78506Y-56656D02*
X78624Y-56774D01*
X78506Y-54287D02*
X78506Y-56656D01*
X79050Y-53743D02*
X78506Y-54287D01*
X79050Y-53200D02*
X79050Y-53743D01*
X79050Y-57200D02*
X79050Y-56774D01*
X84500Y-57500D02*
X84500Y-56350D01*
X92062Y-56956D02*
X92000Y-56893D01*
X92500Y-56956D02*
X92062Y-56956D01*
X92000Y-56350D02*
X92000Y-56893D01*
X92500Y-57500D02*
X92500Y-56956D01*
X92500Y-60500D02*
X92500Y-61650D01*
X92412Y-59956D02*
X92500Y-59956D01*
X92000Y-59543D02*
X92412Y-59956D01*
X92000Y-59000D02*
X92000Y-59543D01*
X92500Y-60500D02*
X92500Y-59956D01*
X93500Y-61650D02*
X93500Y-60500D01*
X93587Y-59956D02*
X94000Y-59543D01*
X93500Y-59956D02*
X93587Y-59956D01*
X94000Y-59000D02*
X94000Y-59543D01*
X93500Y-60500D02*
X93500Y-59956D01*
X84000Y-54250D02*
X84000Y-53700D01*
X82375Y-55874D02*
X84000Y-54250D01*
X82050Y-55874D02*
X82375Y-55874D01*
X82050Y-56300D02*
X82050Y-55874D01*
X83762Y-63518D02*
X84000Y-63756D01*
X83762Y-62512D02*
X83762Y-63518D01*
X82475Y-61225D02*
X83762Y-62512D01*
X82050Y-61225D02*
X82475Y-61225D01*
X82050Y-60800D02*
X82050Y-61225D01*
X84000Y-64300D02*
X84000Y-63756D01*
X101580Y-64800D02*
X102650Y-64800D01*
X100292Y-63511D02*
X101580Y-64800D01*
X100292Y-63150D02*
X100292Y-63511D01*
X99650Y-63150D02*
X100292Y-63150D01*
X98606Y-59412D02*
X99150Y-59956D01*
X98606Y-54850D02*
X98606Y-59412D01*
X97500Y-53743D02*
X98606Y-54850D01*
X97500Y-53200D02*
X97500Y-53743D01*
X99150Y-60500D02*
X99150Y-59956D01*
X95500Y-63693D02*
X96000Y-63193D01*
X95500Y-64800D02*
X95500Y-63693D01*
X96000Y-62650D02*
X96000Y-63193D01*
X98500Y-64193D02*
X97500Y-63193D01*
X98500Y-64800D02*
X98500Y-64193D01*
X97500Y-62650D02*
X97500Y-63193D01*
X91500Y-61650D02*
X91500Y-60500D01*
X92500Y-62650D02*
X91500Y-61650D01*
X85000Y-54306D02*
X85000Y-53700D01*
X85500Y-54806D02*
X85000Y-54306D01*
X85500Y-55350D02*
X85500Y-54806D01*
X85000Y-63743D02*
X84500Y-63243D01*
X85000Y-64300D02*
X85000Y-63743D01*
X84500Y-62700D02*
X84500Y-63243D01*
X96000Y-55350D02*
X96000Y-54806D01*
X91453Y-59909D02*
X91500Y-59956D01*
X91453Y-58541D02*
X91453Y-59909D01*
X91809Y-58185D02*
X91453Y-58541D01*
X92814Y-58185D02*
X91809Y-58185D01*
X93500Y-57500D02*
X92814Y-58185D01*
X91500Y-60500D02*
X91500Y-59956D01*
X101921Y-60102D02*
X102500Y-60680D01*
X101921Y-58500D02*
X101921Y-60102D01*
X101437Y-58500D02*
X101921Y-58500D01*
X102500Y-61362D02*
X102500Y-60680D01*
X85500Y-57500D02*
X85500Y-56956D01*
X84500Y-55350D02*
X83956Y-55350D01*
X83050Y-57500D02*
X83050Y-56956D01*
X84500Y-55350D02*
X85043Y-55350D01*
X86043Y-55893D02*
X85500Y-55350D01*
X86043Y-56820D02*
X86043Y-55893D01*
X85907Y-56956D02*
X86043Y-56820D01*
X85500Y-56956D02*
X85907Y-56956D01*
X85500Y-55350D02*
X85043Y-55350D01*
X93500Y-57500D02*
X93500Y-56956D01*
X94000Y-55350D02*
X93456Y-55350D01*
X92888Y-55350D02*
X92000Y-55350D01*
X93422Y-55883D02*
X92888Y-55350D01*
X93456Y-55849D02*
X93422Y-55883D01*
X93456Y-55849D02*
X93456Y-55849D01*
X93456Y-55350D02*
X93456Y-55849D01*
X93422Y-56878D02*
X93500Y-56956D01*
X93422Y-55883D02*
X93422Y-56878D01*
X83050Y-56956D02*
X82703Y-56609D01*
X83956Y-55356D02*
X83956Y-55350D01*
X82703Y-56609D02*
X83956Y-55356D01*
X79050Y-55200D02*
X79593Y-55200D01*
X82050Y-55200D02*
X81506Y-55200D01*
X82569Y-56742D02*
X82703Y-56609D01*
X81602Y-56742D02*
X82569Y-56742D01*
X81506Y-56646D02*
X81602Y-56742D01*
X81506Y-55200D02*
X81506Y-56646D01*
X81506Y-55200D02*
X79593Y-55200D01*
X95500Y-54306D02*
X96000Y-54806D01*
X95500Y-53200D02*
X95500Y-54306D01*
G54D10*
G36*
X81354Y-65380D02*
X79583Y-65380D01*
X79583Y-65221D01*
X79583Y-65165D01*
X79583Y-64378D01*
X79562Y-64326D01*
X79523Y-64287D01*
X79471Y-64266D01*
X79415Y-64266D01*
X78628Y-64266D01*
X78576Y-64287D01*
X78537Y-64326D01*
X78516Y-64378D01*
X78516Y-64434D01*
X78516Y-65221D01*
X78537Y-65273D01*
X78576Y-65312D01*
X78628Y-65333D01*
X78684Y-65333D01*
X79471Y-65333D01*
X79523Y-65312D01*
X79562Y-65273D01*
X79583Y-65221D01*
X79583Y-65380D01*
X78469Y-65380D01*
X78469Y-63346D01*
X78520Y-63397D01*
X78608Y-63433D01*
X78980Y-63433D01*
X79040Y-63373D01*
X79040Y-62810D01*
X79032Y-62810D01*
X79032Y-62790D01*
X79040Y-62790D01*
X79040Y-62782D01*
X79060Y-62782D01*
X79060Y-62790D01*
X79067Y-62790D01*
X79067Y-62810D01*
X79060Y-62810D01*
X79060Y-63373D01*
X79120Y-63433D01*
X79430Y-63433D01*
X79430Y-63435D01*
X79471Y-63497D01*
X81354Y-65380D01*
X81354Y-65380D01*
G37*
G54D19*
X81354Y-65380D02*
X79583Y-65380D01*
X79583Y-65221D01*
X79583Y-65165D01*
X79583Y-64378D01*
X79562Y-64326D01*
X79523Y-64287D01*
X79471Y-64266D01*
X79415Y-64266D01*
X78628Y-64266D01*
X78576Y-64287D01*
X78537Y-64326D01*
X78516Y-64378D01*
X78516Y-64434D01*
X78516Y-65221D01*
X78537Y-65273D01*
X78576Y-65312D01*
X78628Y-65333D01*
X78684Y-65333D01*
X79471Y-65333D01*
X79523Y-65312D01*
X79562Y-65273D01*
X79583Y-65221D01*
X79583Y-65380D01*
X78469Y-65380D01*
X78469Y-63346D01*
X78520Y-63397D01*
X78608Y-63433D01*
X78980Y-63433D01*
X79040Y-63373D01*
X79040Y-62810D01*
X79032Y-62810D01*
X79032Y-62790D01*
X79040Y-62790D01*
X79040Y-62782D01*
X79060Y-62782D01*
X79060Y-62790D01*
X79067Y-62790D01*
X79067Y-62810D01*
X79060Y-62810D01*
X79060Y-63373D01*
X79120Y-63433D01*
X79430Y-63433D01*
X79430Y-63435D01*
X79471Y-63497D01*
X81354Y-65380D01*
G54D10*
G36*
X85853Y-63685D02*
X85633Y-63905D01*
X85633Y-63858D01*
X85597Y-63770D01*
X85529Y-63702D01*
X85490Y-63686D01*
X85490Y-63273D01*
X85490Y-62710D01*
X85073Y-62710D01*
X84926Y-62710D01*
X84510Y-62710D01*
X84510Y-63273D01*
X84570Y-63333D01*
X84845Y-63333D01*
X84941Y-63333D01*
X85000Y-63309D01*
X85058Y-63333D01*
X85154Y-63333D01*
X85430Y-63333D01*
X85490Y-63273D01*
X85490Y-63686D01*
X85441Y-63666D01*
X85070Y-63666D01*
X85010Y-63726D01*
X85010Y-64290D01*
X85017Y-64290D01*
X85017Y-64310D01*
X85010Y-64310D01*
X85010Y-64317D01*
X84990Y-64317D01*
X84990Y-64310D01*
X84982Y-64310D01*
X84982Y-64290D01*
X84990Y-64290D01*
X84990Y-63726D01*
X84930Y-63666D01*
X84558Y-63666D01*
X84470Y-63702D01*
X84406Y-63766D01*
X84365Y-63766D01*
X84190Y-63766D01*
X84190Y-63756D01*
X84175Y-63683D01*
X84134Y-63621D01*
X83952Y-63439D01*
X83952Y-63278D01*
X83970Y-63297D01*
X84058Y-63333D01*
X84154Y-63333D01*
X84430Y-63333D01*
X84490Y-63273D01*
X84490Y-62710D01*
X84482Y-62710D01*
X84482Y-62690D01*
X84490Y-62690D01*
X84490Y-62682D01*
X84510Y-62682D01*
X84510Y-62690D01*
X84926Y-62690D01*
X85073Y-62690D01*
X85490Y-62690D01*
X85490Y-62682D01*
X85510Y-62682D01*
X85510Y-62690D01*
X85517Y-62690D01*
X85517Y-62710D01*
X85510Y-62710D01*
X85510Y-63273D01*
X85570Y-63333D01*
X85845Y-63333D01*
X85853Y-63333D01*
X85853Y-63685D01*
X85853Y-63685D01*
G37*
G54D19*
X85853Y-63685D02*
X85633Y-63905D01*
X85633Y-63858D01*
X85597Y-63770D01*
X85529Y-63702D01*
X85490Y-63686D01*
X85490Y-63273D01*
X85490Y-62710D01*
X85073Y-62710D01*
X84926Y-62710D01*
X84510Y-62710D01*
X84510Y-63273D01*
X84570Y-63333D01*
X84845Y-63333D01*
X84941Y-63333D01*
X85000Y-63309D01*
X85058Y-63333D01*
X85154Y-63333D01*
X85430Y-63333D01*
X85490Y-63273D01*
X85490Y-63686D01*
X85441Y-63666D01*
X85070Y-63666D01*
X85010Y-63726D01*
X85010Y-64290D01*
X85017Y-64290D01*
X85017Y-64310D01*
X85010Y-64310D01*
X85010Y-64317D01*
X84990Y-64317D01*
X84990Y-64310D01*
X84982Y-64310D01*
X84982Y-64290D01*
X84990Y-64290D01*
X84990Y-63726D01*
X84930Y-63666D01*
X84558Y-63666D01*
X84470Y-63702D01*
X84406Y-63766D01*
X84365Y-63766D01*
X84190Y-63766D01*
X84190Y-63756D01*
X84175Y-63683D01*
X84134Y-63621D01*
X83952Y-63439D01*
X83952Y-63278D01*
X83970Y-63297D01*
X84058Y-63333D01*
X84154Y-63333D01*
X84430Y-63333D01*
X84490Y-63273D01*
X84490Y-62710D01*
X84482Y-62710D01*
X84482Y-62690D01*
X84490Y-62690D01*
X84490Y-62682D01*
X84510Y-62682D01*
X84510Y-62690D01*
X84926Y-62690D01*
X85073Y-62690D01*
X85490Y-62690D01*
X85490Y-62682D01*
X85510Y-62682D01*
X85510Y-62690D01*
X85517Y-62690D01*
X85517Y-62710D01*
X85510Y-62710D01*
X85510Y-63273D01*
X85570Y-63333D01*
X85845Y-63333D01*
X85853Y-63333D01*
X85853Y-63685D01*
G54D10*
G36*
X97626Y-54716D02*
X97570Y-54716D01*
X97510Y-54776D01*
X97510Y-55340D01*
X97517Y-55340D01*
X97517Y-55360D01*
X97510Y-55360D01*
X97510Y-55367D01*
X97490Y-55367D01*
X97490Y-55360D01*
X97490Y-55340D01*
X97490Y-54776D01*
X97430Y-54716D01*
X97154Y-54716D01*
X97058Y-54716D01*
X96970Y-54752D01*
X96902Y-54820D01*
X96866Y-54908D01*
X96866Y-55280D01*
X96926Y-55340D01*
X97490Y-55340D01*
X97490Y-55360D01*
X96926Y-55360D01*
X96866Y-55420D01*
X96866Y-55791D01*
X96902Y-55879D01*
X96966Y-55943D01*
X96966Y-55984D01*
X96966Y-56771D01*
X96987Y-56823D01*
X97026Y-56862D01*
X97078Y-56883D01*
X97134Y-56883D01*
X97310Y-56883D01*
X97310Y-56966D01*
X97078Y-56966D01*
X97026Y-56987D01*
X97000Y-57014D01*
X96973Y-56987D01*
X96921Y-56966D01*
X96865Y-56966D01*
X96723Y-56966D01*
X96733Y-56912D01*
X96733Y-54878D01*
X96719Y-54805D01*
X96678Y-54743D01*
X96413Y-54479D01*
X96413Y-54370D01*
X96365Y-54254D01*
X96277Y-54166D01*
X96161Y-54118D01*
X96036Y-54117D01*
X95920Y-54165D01*
X95831Y-54254D01*
X95783Y-54370D01*
X95783Y-54495D01*
X95831Y-54611D01*
X95919Y-54699D01*
X95989Y-54728D01*
X95989Y-54776D01*
X95930Y-54716D01*
X95654Y-54716D01*
X95558Y-54716D01*
X95470Y-54752D01*
X95402Y-54820D01*
X95366Y-54908D01*
X95366Y-55280D01*
X95426Y-55340D01*
X95990Y-55340D01*
X95990Y-55332D01*
X96010Y-55332D01*
X96010Y-55340D01*
X96017Y-55340D01*
X96017Y-55360D01*
X96010Y-55360D01*
X96010Y-55367D01*
X95990Y-55367D01*
X95990Y-55360D01*
X95426Y-55360D01*
X95366Y-55420D01*
X95366Y-55791D01*
X95402Y-55879D01*
X95466Y-55943D01*
X95466Y-55984D01*
X95466Y-56653D01*
X95146Y-56333D01*
X95146Y-54998D01*
X95131Y-54925D01*
X95090Y-54863D01*
X94009Y-53782D01*
X93947Y-53741D01*
X93908Y-53733D01*
X93921Y-53733D01*
X93973Y-53712D01*
X94000Y-53685D01*
X94026Y-53712D01*
X94078Y-53733D01*
X94134Y-53733D01*
X94906Y-53733D01*
X94970Y-53797D01*
X95058Y-53833D01*
X95430Y-53833D01*
X95490Y-53773D01*
X95490Y-53210D01*
X95482Y-53210D01*
X95482Y-53190D01*
X95490Y-53190D01*
X95490Y-53182D01*
X95510Y-53182D01*
X95510Y-53190D01*
X95517Y-53190D01*
X95517Y-53210D01*
X95510Y-53210D01*
X95510Y-53773D01*
X95570Y-53833D01*
X95941Y-53833D01*
X96029Y-53797D01*
X96097Y-53729D01*
X96133Y-53641D01*
X96133Y-53545D01*
X96133Y-53473D01*
X97221Y-54561D01*
X97221Y-54561D01*
X97221Y-54561D01*
X97282Y-54602D01*
X97355Y-54616D01*
X97355Y-54616D01*
X97355Y-54616D01*
X97527Y-54616D01*
X97626Y-54716D01*
X97626Y-54716D01*
G37*
G54D19*
X97626Y-54716D02*
X97570Y-54716D01*
X97510Y-54776D01*
X97510Y-55340D01*
X97517Y-55340D01*
X97517Y-55360D01*
X97510Y-55360D01*
X97510Y-55367D01*
X97490Y-55367D01*
X97490Y-55360D01*
X97490Y-55340D01*
X97490Y-54776D01*
X97430Y-54716D01*
X97154Y-54716D01*
X97058Y-54716D01*
X96970Y-54752D01*
X96902Y-54820D01*
X96866Y-54908D01*
X96866Y-55280D01*
X96926Y-55340D01*
X97490Y-55340D01*
X97490Y-55360D01*
X96926Y-55360D01*
X96866Y-55420D01*
X96866Y-55791D01*
X96902Y-55879D01*
X96966Y-55943D01*
X96966Y-55984D01*
X96966Y-56771D01*
X96987Y-56823D01*
X97026Y-56862D01*
X97078Y-56883D01*
X97134Y-56883D01*
X97310Y-56883D01*
X97310Y-56966D01*
X97078Y-56966D01*
X97026Y-56987D01*
X97000Y-57014D01*
X96973Y-56987D01*
X96921Y-56966D01*
X96865Y-56966D01*
X96723Y-56966D01*
X96733Y-56912D01*
X96733Y-54878D01*
X96719Y-54805D01*
X96678Y-54743D01*
X96413Y-54479D01*
X96413Y-54370D01*
X96365Y-54254D01*
X96277Y-54166D01*
X96161Y-54118D01*
X96036Y-54117D01*
X95920Y-54165D01*
X95831Y-54254D01*
X95783Y-54370D01*
X95783Y-54495D01*
X95831Y-54611D01*
X95919Y-54699D01*
X95989Y-54728D01*
X95989Y-54776D01*
X95930Y-54716D01*
X95654Y-54716D01*
X95558Y-54716D01*
X95470Y-54752D01*
X95402Y-54820D01*
X95366Y-54908D01*
X95366Y-55280D01*
X95426Y-55340D01*
X95990Y-55340D01*
X95990Y-55332D01*
X96010Y-55332D01*
X96010Y-55340D01*
X96017Y-55340D01*
X96017Y-55360D01*
X96010Y-55360D01*
X96010Y-55367D01*
X95990Y-55367D01*
X95990Y-55360D01*
X95426Y-55360D01*
X95366Y-55420D01*
X95366Y-55791D01*
X95402Y-55879D01*
X95466Y-55943D01*
X95466Y-55984D01*
X95466Y-56653D01*
X95146Y-56333D01*
X95146Y-54998D01*
X95131Y-54925D01*
X95090Y-54863D01*
X94009Y-53782D01*
X93947Y-53741D01*
X93908Y-53733D01*
X93921Y-53733D01*
X93973Y-53712D01*
X94000Y-53685D01*
X94026Y-53712D01*
X94078Y-53733D01*
X94134Y-53733D01*
X94906Y-53733D01*
X94970Y-53797D01*
X95058Y-53833D01*
X95430Y-53833D01*
X95490Y-53773D01*
X95490Y-53210D01*
X95482Y-53210D01*
X95482Y-53190D01*
X95490Y-53190D01*
X95490Y-53182D01*
X95510Y-53182D01*
X95510Y-53190D01*
X95517Y-53190D01*
X95517Y-53210D01*
X95510Y-53210D01*
X95510Y-53773D01*
X95570Y-53833D01*
X95941Y-53833D01*
X96029Y-53797D01*
X96097Y-53729D01*
X96133Y-53641D01*
X96133Y-53545D01*
X96133Y-53473D01*
X97221Y-54561D01*
X97221Y-54561D01*
X97221Y-54561D01*
X97282Y-54602D01*
X97355Y-54616D01*
X97355Y-54616D01*
X97355Y-54616D01*
X97527Y-54616D01*
X97626Y-54716D01*
G54D10*
G36*
X97697Y-58033D02*
X95965Y-59766D01*
X95500Y-59766D01*
X95427Y-59780D01*
X95365Y-59821D01*
X95324Y-59883D01*
X95310Y-59956D01*
X95310Y-59966D01*
X95078Y-59966D01*
X95026Y-59987D01*
X95000Y-60014D01*
X94973Y-59987D01*
X94921Y-59966D01*
X94865Y-59966D01*
X94078Y-59966D01*
X94026Y-59987D01*
X94000Y-60014D01*
X93973Y-59987D01*
X93921Y-59966D01*
X93865Y-59966D01*
X93846Y-59966D01*
X94134Y-59678D01*
X94175Y-59616D01*
X94190Y-59543D01*
X94190Y-59533D01*
X94421Y-59533D01*
X94473Y-59512D01*
X94512Y-59473D01*
X94533Y-59421D01*
X94533Y-59365D01*
X94533Y-58578D01*
X94512Y-58526D01*
X94473Y-58487D01*
X94421Y-58466D01*
X94365Y-58466D01*
X93578Y-58466D01*
X93526Y-58487D01*
X93487Y-58526D01*
X93466Y-58578D01*
X93466Y-58634D01*
X93466Y-59421D01*
X93487Y-59473D01*
X93526Y-59512D01*
X93578Y-59533D01*
X93634Y-59533D01*
X93741Y-59533D01*
X93508Y-59766D01*
X93500Y-59766D01*
X93427Y-59780D01*
X93365Y-59821D01*
X93324Y-59883D01*
X93310Y-59956D01*
X93310Y-59966D01*
X93078Y-59966D01*
X93026Y-59987D01*
X93000Y-60014D01*
X92973Y-59987D01*
X92921Y-59966D01*
X92865Y-59966D01*
X92690Y-59966D01*
X92690Y-59956D01*
X92675Y-59883D01*
X92634Y-59821D01*
X92572Y-59780D01*
X92500Y-59766D01*
X92491Y-59766D01*
X92258Y-59533D01*
X92421Y-59533D01*
X92473Y-59512D01*
X92512Y-59473D01*
X92533Y-59421D01*
X92533Y-59365D01*
X92533Y-58578D01*
X92512Y-58526D01*
X92473Y-58487D01*
X92421Y-58466D01*
X92365Y-58466D01*
X91578Y-58466D01*
X91526Y-58487D01*
X91487Y-58526D01*
X91466Y-58578D01*
X91466Y-58634D01*
X91466Y-59421D01*
X91487Y-59473D01*
X91526Y-59512D01*
X91578Y-59533D01*
X91634Y-59533D01*
X91810Y-59533D01*
X91810Y-59543D01*
X91824Y-59616D01*
X91865Y-59678D01*
X92153Y-59966D01*
X92093Y-59966D01*
X92029Y-59902D01*
X91941Y-59866D01*
X91570Y-59866D01*
X91510Y-59926D01*
X91510Y-60490D01*
X91517Y-60490D01*
X91517Y-60510D01*
X91510Y-60510D01*
X91510Y-61073D01*
X91570Y-61133D01*
X91941Y-61133D01*
X92029Y-61097D01*
X92093Y-61033D01*
X92134Y-61033D01*
X92310Y-61033D01*
X92310Y-61116D01*
X92078Y-61116D01*
X92026Y-61137D01*
X91987Y-61176D01*
X91966Y-61228D01*
X91966Y-61284D01*
X91966Y-62056D01*
X91902Y-62120D01*
X91866Y-62208D01*
X91866Y-62580D01*
X91926Y-62640D01*
X92490Y-62640D01*
X92490Y-62632D01*
X92510Y-62632D01*
X92510Y-62640D01*
X92926Y-62640D01*
X93073Y-62640D01*
X93490Y-62640D01*
X93490Y-62632D01*
X93510Y-62632D01*
X93510Y-62640D01*
X93517Y-62640D01*
X93517Y-62660D01*
X93510Y-62660D01*
X93510Y-63223D01*
X93570Y-63283D01*
X93845Y-63283D01*
X93853Y-63283D01*
X93853Y-63633D01*
X93490Y-63997D01*
X93490Y-63223D01*
X93490Y-62660D01*
X93073Y-62660D01*
X92926Y-62660D01*
X92510Y-62660D01*
X92510Y-63223D01*
X92570Y-63283D01*
X92845Y-63283D01*
X92941Y-63283D01*
X93000Y-63259D01*
X93058Y-63283D01*
X93154Y-63283D01*
X93430Y-63283D01*
X93490Y-63223D01*
X93490Y-63997D01*
X93365Y-64121D01*
X93324Y-64183D01*
X93310Y-64256D01*
X93310Y-64266D01*
X93078Y-64266D01*
X93026Y-64287D01*
X93000Y-64314D01*
X92973Y-64287D01*
X92921Y-64266D01*
X92865Y-64266D01*
X92690Y-64266D01*
X92690Y-64256D01*
X92675Y-64183D01*
X92634Y-64121D01*
X92490Y-63977D01*
X92490Y-63223D01*
X92490Y-62660D01*
X91926Y-62660D01*
X91866Y-62720D01*
X91866Y-63091D01*
X91902Y-63179D01*
X91970Y-63247D01*
X92058Y-63283D01*
X92154Y-63283D01*
X92430Y-63283D01*
X92490Y-63223D01*
X92490Y-63977D01*
X90690Y-62177D01*
X90690Y-61033D01*
X90906Y-61033D01*
X90970Y-61097D01*
X91058Y-61133D01*
X91430Y-61133D01*
X91490Y-61073D01*
X91490Y-60510D01*
X91482Y-60510D01*
X91482Y-60490D01*
X91490Y-60490D01*
X91490Y-59926D01*
X91430Y-59866D01*
X91058Y-59866D01*
X90970Y-59902D01*
X90906Y-59966D01*
X90865Y-59966D01*
X90078Y-59966D01*
X90026Y-59987D01*
X90000Y-60014D01*
X89973Y-59987D01*
X89921Y-59966D01*
X89865Y-59966D01*
X89078Y-59966D01*
X89026Y-59987D01*
X89000Y-60014D01*
X88973Y-59987D01*
X88921Y-59966D01*
X88865Y-59966D01*
X88078Y-59966D01*
X88026Y-59987D01*
X88000Y-60014D01*
X87973Y-59987D01*
X87921Y-59966D01*
X87865Y-59966D01*
X87078Y-59966D01*
X87026Y-59987D01*
X87000Y-60014D01*
X86973Y-59987D01*
X86921Y-59966D01*
X86865Y-59966D01*
X86078Y-59966D01*
X86026Y-59987D01*
X86000Y-60014D01*
X85973Y-59987D01*
X85921Y-59966D01*
X85865Y-59966D01*
X85078Y-59966D01*
X85026Y-59987D01*
X85000Y-60014D01*
X84973Y-59987D01*
X84921Y-59966D01*
X84865Y-59966D01*
X84690Y-59966D01*
X84690Y-59956D01*
X84690Y-59956D01*
X84690Y-59956D01*
X84675Y-59883D01*
X84634Y-59821D01*
X83565Y-58752D01*
X83565Y-57941D01*
X83565Y-57570D01*
X83565Y-57430D01*
X83565Y-57058D01*
X83528Y-56970D01*
X83460Y-56902D01*
X83372Y-56866D01*
X83277Y-56866D01*
X83120Y-56866D01*
X83060Y-56926D01*
X83060Y-57490D01*
X83505Y-57490D01*
X83565Y-57430D01*
X83565Y-57570D01*
X83505Y-57510D01*
X83060Y-57510D01*
X83060Y-58073D01*
X83120Y-58133D01*
X83277Y-58133D01*
X83372Y-58133D01*
X83460Y-58097D01*
X83528Y-58029D01*
X83565Y-57941D01*
X83565Y-58752D01*
X82946Y-58133D01*
X82980Y-58133D01*
X83040Y-58073D01*
X83040Y-57510D01*
X83032Y-57510D01*
X83032Y-57490D01*
X83040Y-57490D01*
X83040Y-56926D01*
X82980Y-56866D01*
X82822Y-56866D01*
X82727Y-56866D01*
X82639Y-56902D01*
X82583Y-56958D01*
X82583Y-56897D01*
X82562Y-56845D01*
X82523Y-56806D01*
X82471Y-56785D01*
X82415Y-56785D01*
X81628Y-56785D01*
X81576Y-56806D01*
X81537Y-56845D01*
X81516Y-56897D01*
X81516Y-56952D01*
X81516Y-57502D01*
X81537Y-57554D01*
X81576Y-57593D01*
X81628Y-57615D01*
X81684Y-57615D01*
X81860Y-57615D01*
X81860Y-57625D01*
X81871Y-57685D01*
X81628Y-57685D01*
X81576Y-57706D01*
X81537Y-57745D01*
X81516Y-57797D01*
X81516Y-57852D01*
X81516Y-58402D01*
X81537Y-58454D01*
X81576Y-58493D01*
X81628Y-58515D01*
X81684Y-58515D01*
X82471Y-58515D01*
X82523Y-58493D01*
X82562Y-58454D01*
X82583Y-58402D01*
X82583Y-58347D01*
X82583Y-58308D01*
X84241Y-59966D01*
X84078Y-59966D01*
X84026Y-59987D01*
X83987Y-60026D01*
X83966Y-60078D01*
X83966Y-60134D01*
X83966Y-60257D01*
X83024Y-59315D01*
X82962Y-59274D01*
X82890Y-59260D01*
X82583Y-59260D01*
X82583Y-59247D01*
X82583Y-58697D01*
X82562Y-58645D01*
X82523Y-58606D01*
X82471Y-58585D01*
X82415Y-58585D01*
X81628Y-58585D01*
X81576Y-58606D01*
X81537Y-58645D01*
X81516Y-58697D01*
X81516Y-58752D01*
X81516Y-59260D01*
X79683Y-59260D01*
X79683Y-55641D01*
X79683Y-55545D01*
X79683Y-55270D01*
X79683Y-55130D01*
X79683Y-54854D01*
X79683Y-54758D01*
X79647Y-54670D01*
X79579Y-54602D01*
X79491Y-54566D01*
X79120Y-54566D01*
X79060Y-54626D01*
X79060Y-55190D01*
X79623Y-55190D01*
X79683Y-55130D01*
X79683Y-55270D01*
X79623Y-55210D01*
X79060Y-55210D01*
X79060Y-55773D01*
X79120Y-55833D01*
X79491Y-55833D01*
X79579Y-55797D01*
X79647Y-55729D01*
X79683Y-55641D01*
X79683Y-59260D01*
X79583Y-59260D01*
X79583Y-59247D01*
X79583Y-58697D01*
X79562Y-58645D01*
X79523Y-58606D01*
X79471Y-58585D01*
X79415Y-58585D01*
X79240Y-58585D01*
X79240Y-58515D01*
X79471Y-58515D01*
X79523Y-58493D01*
X79562Y-58454D01*
X79583Y-58402D01*
X79583Y-58347D01*
X79583Y-57797D01*
X79562Y-57745D01*
X79523Y-57706D01*
X79471Y-57685D01*
X79415Y-57685D01*
X78628Y-57685D01*
X78576Y-57706D01*
X78537Y-57745D01*
X78516Y-57797D01*
X78516Y-57852D01*
X78516Y-58402D01*
X78537Y-58454D01*
X78576Y-58493D01*
X78628Y-58515D01*
X78684Y-58515D01*
X78860Y-58515D01*
X78860Y-58585D01*
X78628Y-58585D01*
X78576Y-58606D01*
X78537Y-58645D01*
X78516Y-58697D01*
X78516Y-58752D01*
X78516Y-59302D01*
X78537Y-59354D01*
X78576Y-59393D01*
X78628Y-59415D01*
X78684Y-59415D01*
X78860Y-59415D01*
X78860Y-59450D01*
X78860Y-59485D01*
X78628Y-59485D01*
X78576Y-59506D01*
X78537Y-59545D01*
X78516Y-59597D01*
X78516Y-59652D01*
X78516Y-60202D01*
X78537Y-60254D01*
X78576Y-60293D01*
X78628Y-60315D01*
X78684Y-60315D01*
X79471Y-60315D01*
X79523Y-60293D01*
X79562Y-60254D01*
X79583Y-60202D01*
X79583Y-60147D01*
X79583Y-59640D01*
X81516Y-59640D01*
X81516Y-59652D01*
X81516Y-60173D01*
X81490Y-60190D01*
X81371Y-60309D01*
X81330Y-60371D01*
X81316Y-60443D01*
X81316Y-61368D01*
X81330Y-61441D01*
X81371Y-61503D01*
X81516Y-61647D01*
X81516Y-62002D01*
X81537Y-62054D01*
X81576Y-62093D01*
X81628Y-62115D01*
X81684Y-62115D01*
X82097Y-62115D01*
X82148Y-62166D01*
X82120Y-62166D01*
X82060Y-62226D01*
X82060Y-62790D01*
X82067Y-62790D01*
X82067Y-62810D01*
X82060Y-62810D01*
X82060Y-63373D01*
X82120Y-63433D01*
X82418Y-63433D01*
X82418Y-63726D01*
X82389Y-63726D01*
X82316Y-63740D01*
X82255Y-63782D01*
X82040Y-63997D01*
X82040Y-63373D01*
X82040Y-62810D01*
X82040Y-62790D01*
X82040Y-62226D01*
X81980Y-62166D01*
X81608Y-62166D01*
X81520Y-62202D01*
X81452Y-62270D01*
X81416Y-62358D01*
X81416Y-62454D01*
X81416Y-62730D01*
X81476Y-62790D01*
X82040Y-62790D01*
X82040Y-62810D01*
X81476Y-62810D01*
X81416Y-62870D01*
X81416Y-63145D01*
X81416Y-63241D01*
X81452Y-63329D01*
X81520Y-63397D01*
X81608Y-63433D01*
X81980Y-63433D01*
X82040Y-63373D01*
X82040Y-63997D01*
X81915Y-64121D01*
X81874Y-64183D01*
X81860Y-64256D01*
X81860Y-64266D01*
X81628Y-64266D01*
X81576Y-64287D01*
X81537Y-64326D01*
X81516Y-64378D01*
X81516Y-64434D01*
X81516Y-65004D01*
X79796Y-63284D01*
X79796Y-62355D01*
X79796Y-62355D01*
X79796Y-62355D01*
X79781Y-62283D01*
X79740Y-62221D01*
X79565Y-62046D01*
X79583Y-62002D01*
X79583Y-61947D01*
X79583Y-61397D01*
X79583Y-61102D01*
X79583Y-61047D01*
X79583Y-60497D01*
X79562Y-60445D01*
X79523Y-60406D01*
X79471Y-60385D01*
X79415Y-60385D01*
X78628Y-60385D01*
X78576Y-60406D01*
X78537Y-60445D01*
X78516Y-60497D01*
X78516Y-60552D01*
X78516Y-61102D01*
X78537Y-61154D01*
X78576Y-61193D01*
X78628Y-61215D01*
X78684Y-61215D01*
X79471Y-61215D01*
X79523Y-61193D01*
X79562Y-61154D01*
X79583Y-61102D01*
X79583Y-61397D01*
X79562Y-61345D01*
X79523Y-61306D01*
X79471Y-61285D01*
X79415Y-61285D01*
X78628Y-61285D01*
X78576Y-61306D01*
X78537Y-61345D01*
X78516Y-61397D01*
X78516Y-61452D01*
X78516Y-62002D01*
X78537Y-62054D01*
X78576Y-62093D01*
X78628Y-62115D01*
X78684Y-62115D01*
X78860Y-62115D01*
X78860Y-62125D01*
X78868Y-62166D01*
X78608Y-62166D01*
X78520Y-62202D01*
X78469Y-62253D01*
X78469Y-56888D01*
X78490Y-56909D01*
X78516Y-56926D01*
X78516Y-56952D01*
X78516Y-57502D01*
X78537Y-57554D01*
X78576Y-57593D01*
X78628Y-57615D01*
X78684Y-57615D01*
X79471Y-57615D01*
X79523Y-57593D01*
X79562Y-57554D01*
X79583Y-57502D01*
X79583Y-57447D01*
X79583Y-56897D01*
X79562Y-56845D01*
X79523Y-56806D01*
X79471Y-56785D01*
X79415Y-56785D01*
X79240Y-56785D01*
X79240Y-56774D01*
X79228Y-56715D01*
X79471Y-56715D01*
X79523Y-56693D01*
X79562Y-56654D01*
X79583Y-56602D01*
X79583Y-56547D01*
X79583Y-55997D01*
X79562Y-55945D01*
X79523Y-55906D01*
X79471Y-55885D01*
X79415Y-55885D01*
X78696Y-55885D01*
X78696Y-55833D01*
X78980Y-55833D01*
X79040Y-55773D01*
X79040Y-55210D01*
X79032Y-55210D01*
X79032Y-55190D01*
X79040Y-55190D01*
X79040Y-54626D01*
X78980Y-54566D01*
X78696Y-54566D01*
X78696Y-54366D01*
X79184Y-53878D01*
X79184Y-53878D01*
X79184Y-53878D01*
X79225Y-53816D01*
X79240Y-53743D01*
X79240Y-53743D01*
X79240Y-53743D01*
X79240Y-53733D01*
X79471Y-53733D01*
X79523Y-53712D01*
X79562Y-53673D01*
X79583Y-53621D01*
X79583Y-53565D01*
X79583Y-52778D01*
X79562Y-52726D01*
X79523Y-52687D01*
X79471Y-52666D01*
X79415Y-52666D01*
X78628Y-52666D01*
X78576Y-52687D01*
X78537Y-52726D01*
X78516Y-52778D01*
X78516Y-52834D01*
X78516Y-53621D01*
X78537Y-53673D01*
X78576Y-53712D01*
X78628Y-53733D01*
X78684Y-53733D01*
X78791Y-53733D01*
X78469Y-54055D01*
X78469Y-52569D01*
X93861Y-52569D01*
X93765Y-52666D01*
X93078Y-52666D01*
X93026Y-52687D01*
X93000Y-52714D01*
X92973Y-52687D01*
X92921Y-52666D01*
X92865Y-52666D01*
X92078Y-52666D01*
X92026Y-52687D01*
X92000Y-52714D01*
X91973Y-52687D01*
X91921Y-52666D01*
X91865Y-52666D01*
X91078Y-52666D01*
X91026Y-52687D01*
X91000Y-52714D01*
X90973Y-52687D01*
X90921Y-52666D01*
X90865Y-52666D01*
X90078Y-52666D01*
X90026Y-52687D01*
X90000Y-52714D01*
X89973Y-52687D01*
X89921Y-52666D01*
X89865Y-52666D01*
X89078Y-52666D01*
X89026Y-52687D01*
X89000Y-52714D01*
X88973Y-52687D01*
X88921Y-52666D01*
X88865Y-52666D01*
X88078Y-52666D01*
X88026Y-52687D01*
X88000Y-52714D01*
X87973Y-52687D01*
X87921Y-52666D01*
X87865Y-52666D01*
X87078Y-52666D01*
X87026Y-52687D01*
X87000Y-52714D01*
X86973Y-52687D01*
X86921Y-52666D01*
X86865Y-52666D01*
X86078Y-52666D01*
X86026Y-52687D01*
X85987Y-52726D01*
X85966Y-52778D01*
X85966Y-52834D01*
X85966Y-53621D01*
X85987Y-53673D01*
X86026Y-53712D01*
X86078Y-53733D01*
X86134Y-53733D01*
X86310Y-53733D01*
X86310Y-56966D01*
X86093Y-56966D01*
X86029Y-56902D01*
X85952Y-56870D01*
X85973Y-56862D01*
X86012Y-56823D01*
X86033Y-56771D01*
X86033Y-56715D01*
X86033Y-55943D01*
X86097Y-55879D01*
X86133Y-55791D01*
X86133Y-55420D01*
X86133Y-55280D01*
X86133Y-54908D01*
X86097Y-54820D01*
X86029Y-54752D01*
X85941Y-54716D01*
X85845Y-54716D01*
X85633Y-54716D01*
X85633Y-54141D01*
X85633Y-54045D01*
X85633Y-53770D01*
X85633Y-53630D01*
X85633Y-53354D01*
X85633Y-53258D01*
X85597Y-53170D01*
X85529Y-53102D01*
X85441Y-53066D01*
X85070Y-53066D01*
X85010Y-53126D01*
X85010Y-53690D01*
X85573Y-53690D01*
X85633Y-53630D01*
X85633Y-53770D01*
X85573Y-53710D01*
X85010Y-53710D01*
X85010Y-54273D01*
X85070Y-54333D01*
X85441Y-54333D01*
X85529Y-54297D01*
X85597Y-54229D01*
X85633Y-54141D01*
X85633Y-54716D01*
X85570Y-54716D01*
X85510Y-54776D01*
X85510Y-55340D01*
X86073Y-55340D01*
X86133Y-55280D01*
X86133Y-55420D01*
X86073Y-55360D01*
X85510Y-55360D01*
X85510Y-55367D01*
X85490Y-55367D01*
X85490Y-55360D01*
X85490Y-55340D01*
X85490Y-54776D01*
X85430Y-54716D01*
X85154Y-54716D01*
X85058Y-54716D01*
X85000Y-54740D01*
X84990Y-54736D01*
X84990Y-54273D01*
X84990Y-53710D01*
X84982Y-53710D01*
X84982Y-53690D01*
X84990Y-53690D01*
X84990Y-53126D01*
X84930Y-53066D01*
X84558Y-53066D01*
X84470Y-53102D01*
X84406Y-53166D01*
X84365Y-53166D01*
X83578Y-53166D01*
X83526Y-53187D01*
X83487Y-53226D01*
X83466Y-53278D01*
X83466Y-53334D01*
X83466Y-54121D01*
X83487Y-54173D01*
X83526Y-54212D01*
X83578Y-54233D01*
X83634Y-54233D01*
X83747Y-54233D01*
X82683Y-55297D01*
X82683Y-55270D01*
X82683Y-55130D01*
X82683Y-54854D01*
X82683Y-54758D01*
X82647Y-54670D01*
X82583Y-54606D01*
X82583Y-53621D01*
X82583Y-53565D01*
X82583Y-52778D01*
X82562Y-52726D01*
X82523Y-52687D01*
X82471Y-52666D01*
X82415Y-52666D01*
X81628Y-52666D01*
X81576Y-52687D01*
X81537Y-52726D01*
X81516Y-52778D01*
X81516Y-52834D01*
X81516Y-53621D01*
X81537Y-53673D01*
X81576Y-53712D01*
X81628Y-53733D01*
X81684Y-53733D01*
X82471Y-53733D01*
X82523Y-53712D01*
X82562Y-53673D01*
X82583Y-53621D01*
X82583Y-54606D01*
X82579Y-54602D01*
X82491Y-54566D01*
X82120Y-54566D01*
X82060Y-54626D01*
X82060Y-55190D01*
X82623Y-55190D01*
X82683Y-55130D01*
X82683Y-55270D01*
X82623Y-55210D01*
X82060Y-55210D01*
X82060Y-55217D01*
X82040Y-55217D01*
X82040Y-55210D01*
X82040Y-55190D01*
X82040Y-54626D01*
X81980Y-54566D01*
X81608Y-54566D01*
X81520Y-54602D01*
X81452Y-54670D01*
X81416Y-54758D01*
X81416Y-54854D01*
X81416Y-55130D01*
X81476Y-55190D01*
X82040Y-55190D01*
X82040Y-55210D01*
X81476Y-55210D01*
X81416Y-55270D01*
X81416Y-55545D01*
X81416Y-55641D01*
X81452Y-55729D01*
X81520Y-55797D01*
X81608Y-55833D01*
X81868Y-55833D01*
X81860Y-55874D01*
X81860Y-55885D01*
X81628Y-55885D01*
X81576Y-55906D01*
X81537Y-55945D01*
X81516Y-55997D01*
X81516Y-56052D01*
X81516Y-56602D01*
X81537Y-56654D01*
X81576Y-56693D01*
X81628Y-56715D01*
X81684Y-56715D01*
X82471Y-56715D01*
X82523Y-56693D01*
X82562Y-56654D01*
X82583Y-56602D01*
X82583Y-56547D01*
X82583Y-55997D01*
X82565Y-55953D01*
X84134Y-54384D01*
X84134Y-54384D01*
X84134Y-54384D01*
X84175Y-54323D01*
X84190Y-54250D01*
X84190Y-54233D01*
X84406Y-54233D01*
X84470Y-54297D01*
X84558Y-54333D01*
X84930Y-54333D01*
X84990Y-54273D01*
X84990Y-54736D01*
X84941Y-54716D01*
X84845Y-54716D01*
X84570Y-54716D01*
X84510Y-54776D01*
X84510Y-55340D01*
X84926Y-55340D01*
X85073Y-55340D01*
X85490Y-55340D01*
X85490Y-55360D01*
X85073Y-55360D01*
X84926Y-55360D01*
X84510Y-55360D01*
X84510Y-55367D01*
X84490Y-55367D01*
X84490Y-55360D01*
X84490Y-55340D01*
X84490Y-54776D01*
X84430Y-54716D01*
X84154Y-54716D01*
X84058Y-54716D01*
X83970Y-54752D01*
X83902Y-54820D01*
X83866Y-54908D01*
X83866Y-55280D01*
X83926Y-55340D01*
X84490Y-55340D01*
X84490Y-55360D01*
X83926Y-55360D01*
X83866Y-55420D01*
X83866Y-55791D01*
X83902Y-55879D01*
X83966Y-55943D01*
X83966Y-55984D01*
X83966Y-56771D01*
X83987Y-56823D01*
X84026Y-56862D01*
X84078Y-56883D01*
X84134Y-56883D01*
X84310Y-56883D01*
X84310Y-56966D01*
X84078Y-56966D01*
X84026Y-56987D01*
X83987Y-57026D01*
X83966Y-57078D01*
X83966Y-57134D01*
X83966Y-57921D01*
X83987Y-57973D01*
X84026Y-58012D01*
X84078Y-58033D01*
X84134Y-58033D01*
X84906Y-58033D01*
X84970Y-58097D01*
X85058Y-58133D01*
X85430Y-58133D01*
X85490Y-58073D01*
X85490Y-57510D01*
X85482Y-57510D01*
X85482Y-57490D01*
X85490Y-57490D01*
X85490Y-57482D01*
X85510Y-57482D01*
X85510Y-57490D01*
X85517Y-57490D01*
X85517Y-57510D01*
X85510Y-57510D01*
X85510Y-58073D01*
X85570Y-58133D01*
X85941Y-58133D01*
X86029Y-58097D01*
X86093Y-58033D01*
X86134Y-58033D01*
X86921Y-58033D01*
X86973Y-58012D01*
X87000Y-57985D01*
X87026Y-58012D01*
X87078Y-58033D01*
X87134Y-58033D01*
X87921Y-58033D01*
X87973Y-58012D01*
X88000Y-57985D01*
X88026Y-58012D01*
X88078Y-58033D01*
X88134Y-58033D01*
X88921Y-58033D01*
X88973Y-58012D01*
X89000Y-57985D01*
X89026Y-58012D01*
X89078Y-58033D01*
X89134Y-58033D01*
X89921Y-58033D01*
X89973Y-58012D01*
X90000Y-57985D01*
X90026Y-58012D01*
X90078Y-58033D01*
X90134Y-58033D01*
X90921Y-58033D01*
X90973Y-58012D01*
X91000Y-57985D01*
X91026Y-58012D01*
X91078Y-58033D01*
X91134Y-58033D01*
X91921Y-58033D01*
X91973Y-58012D01*
X92000Y-57985D01*
X92026Y-58012D01*
X92078Y-58033D01*
X92134Y-58033D01*
X92906Y-58033D01*
X92970Y-58097D01*
X93058Y-58133D01*
X93430Y-58133D01*
X93490Y-58073D01*
X93490Y-57510D01*
X93482Y-57510D01*
X93482Y-57490D01*
X93490Y-57490D01*
X93490Y-56926D01*
X93430Y-56866D01*
X93058Y-56866D01*
X92970Y-56902D01*
X92906Y-56966D01*
X92865Y-56966D01*
X92690Y-56966D01*
X92690Y-56956D01*
X92675Y-56883D01*
X92634Y-56821D01*
X92572Y-56780D01*
X92533Y-56772D01*
X92533Y-56771D01*
X92533Y-56715D01*
X92533Y-55943D01*
X92597Y-55879D01*
X92633Y-55791D01*
X92633Y-55420D01*
X92573Y-55360D01*
X92010Y-55360D01*
X92010Y-55367D01*
X91990Y-55367D01*
X91990Y-55360D01*
X91426Y-55360D01*
X91366Y-55420D01*
X91366Y-55791D01*
X91402Y-55879D01*
X91466Y-55943D01*
X91466Y-55984D01*
X91466Y-56771D01*
X91487Y-56823D01*
X91526Y-56862D01*
X91578Y-56883D01*
X91634Y-56883D01*
X91810Y-56883D01*
X91810Y-56893D01*
X91824Y-56966D01*
X91133Y-56966D01*
X91133Y-55791D01*
X91133Y-55420D01*
X91073Y-55360D01*
X90510Y-55360D01*
X90510Y-55367D01*
X90490Y-55367D01*
X90490Y-55360D01*
X90490Y-55340D01*
X90490Y-54776D01*
X90430Y-54716D01*
X90154Y-54716D01*
X90058Y-54716D01*
X90000Y-54740D01*
X89941Y-54716D01*
X89845Y-54716D01*
X89570Y-54716D01*
X89510Y-54776D01*
X89510Y-55340D01*
X89926Y-55340D01*
X90073Y-55340D01*
X90490Y-55340D01*
X90490Y-55360D01*
X90073Y-55360D01*
X89926Y-55360D01*
X89510Y-55360D01*
X89510Y-55367D01*
X89490Y-55367D01*
X89490Y-55360D01*
X89490Y-55340D01*
X89490Y-54776D01*
X89430Y-54716D01*
X89154Y-54716D01*
X89058Y-54716D01*
X88970Y-54752D01*
X88902Y-54820D01*
X88866Y-54908D01*
X88866Y-55280D01*
X88926Y-55340D01*
X89490Y-55340D01*
X89490Y-55360D01*
X88926Y-55360D01*
X88866Y-55420D01*
X88866Y-55791D01*
X88902Y-55879D01*
X88966Y-55943D01*
X88966Y-55984D01*
X88966Y-56771D01*
X88987Y-56823D01*
X89026Y-56862D01*
X89078Y-56883D01*
X89134Y-56883D01*
X89921Y-56883D01*
X89973Y-56862D01*
X90000Y-56835D01*
X90026Y-56862D01*
X90078Y-56883D01*
X90134Y-56883D01*
X90921Y-56883D01*
X90973Y-56862D01*
X91012Y-56823D01*
X91033Y-56771D01*
X91033Y-56715D01*
X91033Y-55943D01*
X91097Y-55879D01*
X91133Y-55791D01*
X91133Y-56966D01*
X91078Y-56966D01*
X91026Y-56987D01*
X91000Y-57014D01*
X90973Y-56987D01*
X90921Y-56966D01*
X90865Y-56966D01*
X90078Y-56966D01*
X90026Y-56987D01*
X90000Y-57014D01*
X89973Y-56987D01*
X89921Y-56966D01*
X89865Y-56966D01*
X89078Y-56966D01*
X89026Y-56987D01*
X89000Y-57014D01*
X88973Y-56987D01*
X88921Y-56966D01*
X88865Y-56966D01*
X88690Y-56966D01*
X88690Y-53733D01*
X88921Y-53733D01*
X88973Y-53712D01*
X89000Y-53685D01*
X89026Y-53712D01*
X89078Y-53733D01*
X89134Y-53733D01*
X89765Y-53733D01*
X90747Y-54716D01*
X90570Y-54716D01*
X90510Y-54776D01*
X90510Y-55340D01*
X91073Y-55340D01*
X91133Y-55280D01*
X91133Y-54908D01*
X91103Y-54834D01*
X91396Y-54834D01*
X91366Y-54908D01*
X91366Y-55280D01*
X91426Y-55340D01*
X91990Y-55340D01*
X91990Y-55332D01*
X92010Y-55332D01*
X92010Y-55340D01*
X92573Y-55340D01*
X92633Y-55280D01*
X92633Y-54908D01*
X92603Y-54834D01*
X93396Y-54834D01*
X93366Y-54908D01*
X93366Y-55280D01*
X93426Y-55340D01*
X93990Y-55340D01*
X93990Y-55332D01*
X94010Y-55332D01*
X94010Y-55340D01*
X94017Y-55340D01*
X94017Y-55360D01*
X94010Y-55360D01*
X94010Y-55367D01*
X93990Y-55367D01*
X93990Y-55360D01*
X93426Y-55360D01*
X93366Y-55420D01*
X93366Y-55791D01*
X93402Y-55879D01*
X93466Y-55943D01*
X93466Y-55984D01*
X93466Y-56771D01*
X93487Y-56823D01*
X93526Y-56862D01*
X93560Y-56876D01*
X93510Y-56926D01*
X93510Y-57490D01*
X93517Y-57490D01*
X93517Y-57510D01*
X93510Y-57510D01*
X93510Y-58073D01*
X93570Y-58133D01*
X93941Y-58133D01*
X94029Y-58097D01*
X94093Y-58033D01*
X94134Y-58033D01*
X94921Y-58033D01*
X94973Y-58012D01*
X95000Y-57985D01*
X95026Y-58012D01*
X95078Y-58033D01*
X95134Y-58033D01*
X95921Y-58033D01*
X95973Y-58012D01*
X96000Y-57985D01*
X96026Y-58012D01*
X96078Y-58033D01*
X96134Y-58033D01*
X96921Y-58033D01*
X96973Y-58012D01*
X97000Y-57985D01*
X97026Y-58012D01*
X97078Y-58033D01*
X97134Y-58033D01*
X97697Y-58033D01*
X97697Y-58033D01*
G37*
G54D19*
X97697Y-58033D02*
X95965Y-59766D01*
X95500Y-59766D01*
X95427Y-59780D01*
X95365Y-59821D01*
X95324Y-59883D01*
X95310Y-59956D01*
X95310Y-59966D01*
X95078Y-59966D01*
X95026Y-59987D01*
X95000Y-60014D01*
X94973Y-59987D01*
X94921Y-59966D01*
X94865Y-59966D01*
X94078Y-59966D01*
X94026Y-59987D01*
X94000Y-60014D01*
X93973Y-59987D01*
X93921Y-59966D01*
X93865Y-59966D01*
X93846Y-59966D01*
X94134Y-59678D01*
X94175Y-59616D01*
X94190Y-59543D01*
X94190Y-59533D01*
X94421Y-59533D01*
X94473Y-59512D01*
X94512Y-59473D01*
X94533Y-59421D01*
X94533Y-59365D01*
X94533Y-58578D01*
X94512Y-58526D01*
X94473Y-58487D01*
X94421Y-58466D01*
X94365Y-58466D01*
X93578Y-58466D01*
X93526Y-58487D01*
X93487Y-58526D01*
X93466Y-58578D01*
X93466Y-58634D01*
X93466Y-59421D01*
X93487Y-59473D01*
X93526Y-59512D01*
X93578Y-59533D01*
X93634Y-59533D01*
X93741Y-59533D01*
X93508Y-59766D01*
X93500Y-59766D01*
X93427Y-59780D01*
X93365Y-59821D01*
X93324Y-59883D01*
X93310Y-59956D01*
X93310Y-59966D01*
X93078Y-59966D01*
X93026Y-59987D01*
X93000Y-60014D01*
X92973Y-59987D01*
X92921Y-59966D01*
X92865Y-59966D01*
X92690Y-59966D01*
X92690Y-59956D01*
X92675Y-59883D01*
X92634Y-59821D01*
X92572Y-59780D01*
X92500Y-59766D01*
X92491Y-59766D01*
X92258Y-59533D01*
X92421Y-59533D01*
X92473Y-59512D01*
X92512Y-59473D01*
X92533Y-59421D01*
X92533Y-59365D01*
X92533Y-58578D01*
X92512Y-58526D01*
X92473Y-58487D01*
X92421Y-58466D01*
X92365Y-58466D01*
X91578Y-58466D01*
X91526Y-58487D01*
X91487Y-58526D01*
X91466Y-58578D01*
X91466Y-58634D01*
X91466Y-59421D01*
X91487Y-59473D01*
X91526Y-59512D01*
X91578Y-59533D01*
X91634Y-59533D01*
X91810Y-59533D01*
X91810Y-59543D01*
X91824Y-59616D01*
X91865Y-59678D01*
X92153Y-59966D01*
X92093Y-59966D01*
X92029Y-59902D01*
X91941Y-59866D01*
X91570Y-59866D01*
X91510Y-59926D01*
X91510Y-60490D01*
X91517Y-60490D01*
X91517Y-60510D01*
X91510Y-60510D01*
X91510Y-61073D01*
X91570Y-61133D01*
X91941Y-61133D01*
X92029Y-61097D01*
X92093Y-61033D01*
X92134Y-61033D01*
X92310Y-61033D01*
X92310Y-61116D01*
X92078Y-61116D01*
X92026Y-61137D01*
X91987Y-61176D01*
X91966Y-61228D01*
X91966Y-61284D01*
X91966Y-62056D01*
X91902Y-62120D01*
X91866Y-62208D01*
X91866Y-62580D01*
X91926Y-62640D01*
X92490Y-62640D01*
X92490Y-62632D01*
X92510Y-62632D01*
X92510Y-62640D01*
X92926Y-62640D01*
X93073Y-62640D01*
X93490Y-62640D01*
X93490Y-62632D01*
X93510Y-62632D01*
X93510Y-62640D01*
X93517Y-62640D01*
X93517Y-62660D01*
X93510Y-62660D01*
X93510Y-63223D01*
X93570Y-63283D01*
X93845Y-63283D01*
X93853Y-63283D01*
X93853Y-63633D01*
X93490Y-63997D01*
X93490Y-63223D01*
X93490Y-62660D01*
X93073Y-62660D01*
X92926Y-62660D01*
X92510Y-62660D01*
X92510Y-63223D01*
X92570Y-63283D01*
X92845Y-63283D01*
X92941Y-63283D01*
X93000Y-63259D01*
X93058Y-63283D01*
X93154Y-63283D01*
X93430Y-63283D01*
X93490Y-63223D01*
X93490Y-63997D01*
X93365Y-64121D01*
X93324Y-64183D01*
X93310Y-64256D01*
X93310Y-64266D01*
X93078Y-64266D01*
X93026Y-64287D01*
X93000Y-64314D01*
X92973Y-64287D01*
X92921Y-64266D01*
X92865Y-64266D01*
X92690Y-64266D01*
X92690Y-64256D01*
X92675Y-64183D01*
X92634Y-64121D01*
X92490Y-63977D01*
X92490Y-63223D01*
X92490Y-62660D01*
X91926Y-62660D01*
X91866Y-62720D01*
X91866Y-63091D01*
X91902Y-63179D01*
X91970Y-63247D01*
X92058Y-63283D01*
X92154Y-63283D01*
X92430Y-63283D01*
X92490Y-63223D01*
X92490Y-63977D01*
X90690Y-62177D01*
X90690Y-61033D01*
X90906Y-61033D01*
X90970Y-61097D01*
X91058Y-61133D01*
X91430Y-61133D01*
X91490Y-61073D01*
X91490Y-60510D01*
X91482Y-60510D01*
X91482Y-60490D01*
X91490Y-60490D01*
X91490Y-59926D01*
X91430Y-59866D01*
X91058Y-59866D01*
X90970Y-59902D01*
X90906Y-59966D01*
X90865Y-59966D01*
X90078Y-59966D01*
X90026Y-59987D01*
X90000Y-60014D01*
X89973Y-59987D01*
X89921Y-59966D01*
X89865Y-59966D01*
X89078Y-59966D01*
X89026Y-59987D01*
X89000Y-60014D01*
X88973Y-59987D01*
X88921Y-59966D01*
X88865Y-59966D01*
X88078Y-59966D01*
X88026Y-59987D01*
X88000Y-60014D01*
X87973Y-59987D01*
X87921Y-59966D01*
X87865Y-59966D01*
X87078Y-59966D01*
X87026Y-59987D01*
X87000Y-60014D01*
X86973Y-59987D01*
X86921Y-59966D01*
X86865Y-59966D01*
X86078Y-59966D01*
X86026Y-59987D01*
X86000Y-60014D01*
X85973Y-59987D01*
X85921Y-59966D01*
X85865Y-59966D01*
X85078Y-59966D01*
X85026Y-59987D01*
X85000Y-60014D01*
X84973Y-59987D01*
X84921Y-59966D01*
X84865Y-59966D01*
X84690Y-59966D01*
X84690Y-59956D01*
X84690Y-59956D01*
X84690Y-59956D01*
X84675Y-59883D01*
X84634Y-59821D01*
X83565Y-58752D01*
X83565Y-57941D01*
X83565Y-57570D01*
X83565Y-57430D01*
X83565Y-57058D01*
X83528Y-56970D01*
X83460Y-56902D01*
X83372Y-56866D01*
X83277Y-56866D01*
X83120Y-56866D01*
X83060Y-56926D01*
X83060Y-57490D01*
X83505Y-57490D01*
X83565Y-57430D01*
X83565Y-57570D01*
X83505Y-57510D01*
X83060Y-57510D01*
X83060Y-58073D01*
X83120Y-58133D01*
X83277Y-58133D01*
X83372Y-58133D01*
X83460Y-58097D01*
X83528Y-58029D01*
X83565Y-57941D01*
X83565Y-58752D01*
X82946Y-58133D01*
X82980Y-58133D01*
X83040Y-58073D01*
X83040Y-57510D01*
X83032Y-57510D01*
X83032Y-57490D01*
X83040Y-57490D01*
X83040Y-56926D01*
X82980Y-56866D01*
X82822Y-56866D01*
X82727Y-56866D01*
X82639Y-56902D01*
X82583Y-56958D01*
X82583Y-56897D01*
X82562Y-56845D01*
X82523Y-56806D01*
X82471Y-56785D01*
X82415Y-56785D01*
X81628Y-56785D01*
X81576Y-56806D01*
X81537Y-56845D01*
X81516Y-56897D01*
X81516Y-56952D01*
X81516Y-57502D01*
X81537Y-57554D01*
X81576Y-57593D01*
X81628Y-57615D01*
X81684Y-57615D01*
X81860Y-57615D01*
X81860Y-57625D01*
X81871Y-57685D01*
X81628Y-57685D01*
X81576Y-57706D01*
X81537Y-57745D01*
X81516Y-57797D01*
X81516Y-57852D01*
X81516Y-58402D01*
X81537Y-58454D01*
X81576Y-58493D01*
X81628Y-58515D01*
X81684Y-58515D01*
X82471Y-58515D01*
X82523Y-58493D01*
X82562Y-58454D01*
X82583Y-58402D01*
X82583Y-58347D01*
X82583Y-58308D01*
X84241Y-59966D01*
X84078Y-59966D01*
X84026Y-59987D01*
X83987Y-60026D01*
X83966Y-60078D01*
X83966Y-60134D01*
X83966Y-60257D01*
X83024Y-59315D01*
X82962Y-59274D01*
X82890Y-59260D01*
X82583Y-59260D01*
X82583Y-59247D01*
X82583Y-58697D01*
X82562Y-58645D01*
X82523Y-58606D01*
X82471Y-58585D01*
X82415Y-58585D01*
X81628Y-58585D01*
X81576Y-58606D01*
X81537Y-58645D01*
X81516Y-58697D01*
X81516Y-58752D01*
X81516Y-59260D01*
X79683Y-59260D01*
X79683Y-55641D01*
X79683Y-55545D01*
X79683Y-55270D01*
X79683Y-55130D01*
X79683Y-54854D01*
X79683Y-54758D01*
X79647Y-54670D01*
X79579Y-54602D01*
X79491Y-54566D01*
X79120Y-54566D01*
X79060Y-54626D01*
X79060Y-55190D01*
X79623Y-55190D01*
X79683Y-55130D01*
X79683Y-55270D01*
X79623Y-55210D01*
X79060Y-55210D01*
X79060Y-55773D01*
X79120Y-55833D01*
X79491Y-55833D01*
X79579Y-55797D01*
X79647Y-55729D01*
X79683Y-55641D01*
X79683Y-59260D01*
X79583Y-59260D01*
X79583Y-59247D01*
X79583Y-58697D01*
X79562Y-58645D01*
X79523Y-58606D01*
X79471Y-58585D01*
X79415Y-58585D01*
X79240Y-58585D01*
X79240Y-58515D01*
X79471Y-58515D01*
X79523Y-58493D01*
X79562Y-58454D01*
X79583Y-58402D01*
X79583Y-58347D01*
X79583Y-57797D01*
X79562Y-57745D01*
X79523Y-57706D01*
X79471Y-57685D01*
X79415Y-57685D01*
X78628Y-57685D01*
X78576Y-57706D01*
X78537Y-57745D01*
X78516Y-57797D01*
X78516Y-57852D01*
X78516Y-58402D01*
X78537Y-58454D01*
X78576Y-58493D01*
X78628Y-58515D01*
X78684Y-58515D01*
X78860Y-58515D01*
X78860Y-58585D01*
X78628Y-58585D01*
X78576Y-58606D01*
X78537Y-58645D01*
X78516Y-58697D01*
X78516Y-58752D01*
X78516Y-59302D01*
X78537Y-59354D01*
X78576Y-59393D01*
X78628Y-59415D01*
X78684Y-59415D01*
X78860Y-59415D01*
X78860Y-59450D01*
X78860Y-59485D01*
X78628Y-59485D01*
X78576Y-59506D01*
X78537Y-59545D01*
X78516Y-59597D01*
X78516Y-59652D01*
X78516Y-60202D01*
X78537Y-60254D01*
X78576Y-60293D01*
X78628Y-60315D01*
X78684Y-60315D01*
X79471Y-60315D01*
X79523Y-60293D01*
X79562Y-60254D01*
X79583Y-60202D01*
X79583Y-60147D01*
X79583Y-59640D01*
X81516Y-59640D01*
X81516Y-59652D01*
X81516Y-60173D01*
X81490Y-60190D01*
X81371Y-60309D01*
X81330Y-60371D01*
X81316Y-60443D01*
X81316Y-61368D01*
X81330Y-61441D01*
X81371Y-61503D01*
X81516Y-61647D01*
X81516Y-62002D01*
X81537Y-62054D01*
X81576Y-62093D01*
X81628Y-62115D01*
X81684Y-62115D01*
X82097Y-62115D01*
X82148Y-62166D01*
X82120Y-62166D01*
X82060Y-62226D01*
X82060Y-62790D01*
X82067Y-62790D01*
X82067Y-62810D01*
X82060Y-62810D01*
X82060Y-63373D01*
X82120Y-63433D01*
X82418Y-63433D01*
X82418Y-63726D01*
X82389Y-63726D01*
X82316Y-63740D01*
X82255Y-63782D01*
X82040Y-63997D01*
X82040Y-63373D01*
X82040Y-62810D01*
X82040Y-62790D01*
X82040Y-62226D01*
X81980Y-62166D01*
X81608Y-62166D01*
X81520Y-62202D01*
X81452Y-62270D01*
X81416Y-62358D01*
X81416Y-62454D01*
X81416Y-62730D01*
X81476Y-62790D01*
X82040Y-62790D01*
X82040Y-62810D01*
X81476Y-62810D01*
X81416Y-62870D01*
X81416Y-63145D01*
X81416Y-63241D01*
X81452Y-63329D01*
X81520Y-63397D01*
X81608Y-63433D01*
X81980Y-63433D01*
X82040Y-63373D01*
X82040Y-63997D01*
X81915Y-64121D01*
X81874Y-64183D01*
X81860Y-64256D01*
X81860Y-64266D01*
X81628Y-64266D01*
X81576Y-64287D01*
X81537Y-64326D01*
X81516Y-64378D01*
X81516Y-64434D01*
X81516Y-65004D01*
X79796Y-63284D01*
X79796Y-62355D01*
X79796Y-62355D01*
X79796Y-62355D01*
X79781Y-62283D01*
X79740Y-62221D01*
X79565Y-62046D01*
X79583Y-62002D01*
X79583Y-61947D01*
X79583Y-61397D01*
X79583Y-61102D01*
X79583Y-61047D01*
X79583Y-60497D01*
X79562Y-60445D01*
X79523Y-60406D01*
X79471Y-60385D01*
X79415Y-60385D01*
X78628Y-60385D01*
X78576Y-60406D01*
X78537Y-60445D01*
X78516Y-60497D01*
X78516Y-60552D01*
X78516Y-61102D01*
X78537Y-61154D01*
X78576Y-61193D01*
X78628Y-61215D01*
X78684Y-61215D01*
X79471Y-61215D01*
X79523Y-61193D01*
X79562Y-61154D01*
X79583Y-61102D01*
X79583Y-61397D01*
X79562Y-61345D01*
X79523Y-61306D01*
X79471Y-61285D01*
X79415Y-61285D01*
X78628Y-61285D01*
X78576Y-61306D01*
X78537Y-61345D01*
X78516Y-61397D01*
X78516Y-61452D01*
X78516Y-62002D01*
X78537Y-62054D01*
X78576Y-62093D01*
X78628Y-62115D01*
X78684Y-62115D01*
X78860Y-62115D01*
X78860Y-62125D01*
X78868Y-62166D01*
X78608Y-62166D01*
X78520Y-62202D01*
X78469Y-62253D01*
X78469Y-56888D01*
X78490Y-56909D01*
X78516Y-56926D01*
X78516Y-56952D01*
X78516Y-57502D01*
X78537Y-57554D01*
X78576Y-57593D01*
X78628Y-57615D01*
X78684Y-57615D01*
X79471Y-57615D01*
X79523Y-57593D01*
X79562Y-57554D01*
X79583Y-57502D01*
X79583Y-57447D01*
X79583Y-56897D01*
X79562Y-56845D01*
X79523Y-56806D01*
X79471Y-56785D01*
X79415Y-56785D01*
X79240Y-56785D01*
X79240Y-56774D01*
X79228Y-56715D01*
X79471Y-56715D01*
X79523Y-56693D01*
X79562Y-56654D01*
X79583Y-56602D01*
X79583Y-56547D01*
X79583Y-55997D01*
X79562Y-55945D01*
X79523Y-55906D01*
X79471Y-55885D01*
X79415Y-55885D01*
X78696Y-55885D01*
X78696Y-55833D01*
X78980Y-55833D01*
X79040Y-55773D01*
X79040Y-55210D01*
X79032Y-55210D01*
X79032Y-55190D01*
X79040Y-55190D01*
X79040Y-54626D01*
X78980Y-54566D01*
X78696Y-54566D01*
X78696Y-54366D01*
X79184Y-53878D01*
X79184Y-53878D01*
X79184Y-53878D01*
X79225Y-53816D01*
X79240Y-53743D01*
X79240Y-53743D01*
X79240Y-53743D01*
X79240Y-53733D01*
X79471Y-53733D01*
X79523Y-53712D01*
X79562Y-53673D01*
X79583Y-53621D01*
X79583Y-53565D01*
X79583Y-52778D01*
X79562Y-52726D01*
X79523Y-52687D01*
X79471Y-52666D01*
X79415Y-52666D01*
X78628Y-52666D01*
X78576Y-52687D01*
X78537Y-52726D01*
X78516Y-52778D01*
X78516Y-52834D01*
X78516Y-53621D01*
X78537Y-53673D01*
X78576Y-53712D01*
X78628Y-53733D01*
X78684Y-53733D01*
X78791Y-53733D01*
X78469Y-54055D01*
X78469Y-52569D01*
X93861Y-52569D01*
X93765Y-52666D01*
X93078Y-52666D01*
X93026Y-52687D01*
X93000Y-52714D01*
X92973Y-52687D01*
X92921Y-52666D01*
X92865Y-52666D01*
X92078Y-52666D01*
X92026Y-52687D01*
X92000Y-52714D01*
X91973Y-52687D01*
X91921Y-52666D01*
X91865Y-52666D01*
X91078Y-52666D01*
X91026Y-52687D01*
X91000Y-52714D01*
X90973Y-52687D01*
X90921Y-52666D01*
X90865Y-52666D01*
X90078Y-52666D01*
X90026Y-52687D01*
X90000Y-52714D01*
X89973Y-52687D01*
X89921Y-52666D01*
X89865Y-52666D01*
X89078Y-52666D01*
X89026Y-52687D01*
X89000Y-52714D01*
X88973Y-52687D01*
X88921Y-52666D01*
X88865Y-52666D01*
X88078Y-52666D01*
X88026Y-52687D01*
X88000Y-52714D01*
X87973Y-52687D01*
X87921Y-52666D01*
X87865Y-52666D01*
X87078Y-52666D01*
X87026Y-52687D01*
X87000Y-52714D01*
X86973Y-52687D01*
X86921Y-52666D01*
X86865Y-52666D01*
X86078Y-52666D01*
X86026Y-52687D01*
X85987Y-52726D01*
X85966Y-52778D01*
X85966Y-52834D01*
X85966Y-53621D01*
X85987Y-53673D01*
X86026Y-53712D01*
X86078Y-53733D01*
X86134Y-53733D01*
X86310Y-53733D01*
X86310Y-56966D01*
X86093Y-56966D01*
X86029Y-56902D01*
X85952Y-56870D01*
X85973Y-56862D01*
X86012Y-56823D01*
X86033Y-56771D01*
X86033Y-56715D01*
X86033Y-55943D01*
X86097Y-55879D01*
X86133Y-55791D01*
X86133Y-55420D01*
X86133Y-55280D01*
X86133Y-54908D01*
X86097Y-54820D01*
X86029Y-54752D01*
X85941Y-54716D01*
X85845Y-54716D01*
X85633Y-54716D01*
X85633Y-54141D01*
X85633Y-54045D01*
X85633Y-53770D01*
X85633Y-53630D01*
X85633Y-53354D01*
X85633Y-53258D01*
X85597Y-53170D01*
X85529Y-53102D01*
X85441Y-53066D01*
X85070Y-53066D01*
X85010Y-53126D01*
X85010Y-53690D01*
X85573Y-53690D01*
X85633Y-53630D01*
X85633Y-53770D01*
X85573Y-53710D01*
X85010Y-53710D01*
X85010Y-54273D01*
X85070Y-54333D01*
X85441Y-54333D01*
X85529Y-54297D01*
X85597Y-54229D01*
X85633Y-54141D01*
X85633Y-54716D01*
X85570Y-54716D01*
X85510Y-54776D01*
X85510Y-55340D01*
X86073Y-55340D01*
X86133Y-55280D01*
X86133Y-55420D01*
X86073Y-55360D01*
X85510Y-55360D01*
X85510Y-55367D01*
X85490Y-55367D01*
X85490Y-55360D01*
X85490Y-55340D01*
X85490Y-54776D01*
X85430Y-54716D01*
X85154Y-54716D01*
X85058Y-54716D01*
X85000Y-54740D01*
X84990Y-54736D01*
X84990Y-54273D01*
X84990Y-53710D01*
X84982Y-53710D01*
X84982Y-53690D01*
X84990Y-53690D01*
X84990Y-53126D01*
X84930Y-53066D01*
X84558Y-53066D01*
X84470Y-53102D01*
X84406Y-53166D01*
X84365Y-53166D01*
X83578Y-53166D01*
X83526Y-53187D01*
X83487Y-53226D01*
X83466Y-53278D01*
X83466Y-53334D01*
X83466Y-54121D01*
X83487Y-54173D01*
X83526Y-54212D01*
X83578Y-54233D01*
X83634Y-54233D01*
X83747Y-54233D01*
X82683Y-55297D01*
X82683Y-55270D01*
X82683Y-55130D01*
X82683Y-54854D01*
X82683Y-54758D01*
X82647Y-54670D01*
X82583Y-54606D01*
X82583Y-53621D01*
X82583Y-53565D01*
X82583Y-52778D01*
X82562Y-52726D01*
X82523Y-52687D01*
X82471Y-52666D01*
X82415Y-52666D01*
X81628Y-52666D01*
X81576Y-52687D01*
X81537Y-52726D01*
X81516Y-52778D01*
X81516Y-52834D01*
X81516Y-53621D01*
X81537Y-53673D01*
X81576Y-53712D01*
X81628Y-53733D01*
X81684Y-53733D01*
X82471Y-53733D01*
X82523Y-53712D01*
X82562Y-53673D01*
X82583Y-53621D01*
X82583Y-54606D01*
X82579Y-54602D01*
X82491Y-54566D01*
X82120Y-54566D01*
X82060Y-54626D01*
X82060Y-55190D01*
X82623Y-55190D01*
X82683Y-55130D01*
X82683Y-55270D01*
X82623Y-55210D01*
X82060Y-55210D01*
X82060Y-55217D01*
X82040Y-55217D01*
X82040Y-55210D01*
X82040Y-55190D01*
X82040Y-54626D01*
X81980Y-54566D01*
X81608Y-54566D01*
X81520Y-54602D01*
X81452Y-54670D01*
X81416Y-54758D01*
X81416Y-54854D01*
X81416Y-55130D01*
X81476Y-55190D01*
X82040Y-55190D01*
X82040Y-55210D01*
X81476Y-55210D01*
X81416Y-55270D01*
X81416Y-55545D01*
X81416Y-55641D01*
X81452Y-55729D01*
X81520Y-55797D01*
X81608Y-55833D01*
X81868Y-55833D01*
X81860Y-55874D01*
X81860Y-55885D01*
X81628Y-55885D01*
X81576Y-55906D01*
X81537Y-55945D01*
X81516Y-55997D01*
X81516Y-56052D01*
X81516Y-56602D01*
X81537Y-56654D01*
X81576Y-56693D01*
X81628Y-56715D01*
X81684Y-56715D01*
X82471Y-56715D01*
X82523Y-56693D01*
X82562Y-56654D01*
X82583Y-56602D01*
X82583Y-56547D01*
X82583Y-55997D01*
X82565Y-55953D01*
X84134Y-54384D01*
X84134Y-54384D01*
X84134Y-54384D01*
X84175Y-54323D01*
X84190Y-54250D01*
X84190Y-54233D01*
X84406Y-54233D01*
X84470Y-54297D01*
X84558Y-54333D01*
X84930Y-54333D01*
X84990Y-54273D01*
X84990Y-54736D01*
X84941Y-54716D01*
X84845Y-54716D01*
X84570Y-54716D01*
X84510Y-54776D01*
X84510Y-55340D01*
X84926Y-55340D01*
X85073Y-55340D01*
X85490Y-55340D01*
X85490Y-55360D01*
X85073Y-55360D01*
X84926Y-55360D01*
X84510Y-55360D01*
X84510Y-55367D01*
X84490Y-55367D01*
X84490Y-55360D01*
X84490Y-55340D01*
X84490Y-54776D01*
X84430Y-54716D01*
X84154Y-54716D01*
X84058Y-54716D01*
X83970Y-54752D01*
X83902Y-54820D01*
X83866Y-54908D01*
X83866Y-55280D01*
X83926Y-55340D01*
X84490Y-55340D01*
X84490Y-55360D01*
X83926Y-55360D01*
X83866Y-55420D01*
X83866Y-55791D01*
X83902Y-55879D01*
X83966Y-55943D01*
X83966Y-55984D01*
X83966Y-56771D01*
X83987Y-56823D01*
X84026Y-56862D01*
X84078Y-56883D01*
X84134Y-56883D01*
X84310Y-56883D01*
X84310Y-56966D01*
X84078Y-56966D01*
X84026Y-56987D01*
X83987Y-57026D01*
X83966Y-57078D01*
X83966Y-57134D01*
X83966Y-57921D01*
X83987Y-57973D01*
X84026Y-58012D01*
X84078Y-58033D01*
X84134Y-58033D01*
X84906Y-58033D01*
X84970Y-58097D01*
X85058Y-58133D01*
X85430Y-58133D01*
X85490Y-58073D01*
X85490Y-57510D01*
X85482Y-57510D01*
X85482Y-57490D01*
X85490Y-57490D01*
X85490Y-57482D01*
X85510Y-57482D01*
X85510Y-57490D01*
X85517Y-57490D01*
X85517Y-57510D01*
X85510Y-57510D01*
X85510Y-58073D01*
X85570Y-58133D01*
X85941Y-58133D01*
X86029Y-58097D01*
X86093Y-58033D01*
X86134Y-58033D01*
X86921Y-58033D01*
X86973Y-58012D01*
X87000Y-57985D01*
X87026Y-58012D01*
X87078Y-58033D01*
X87134Y-58033D01*
X87921Y-58033D01*
X87973Y-58012D01*
X88000Y-57985D01*
X88026Y-58012D01*
X88078Y-58033D01*
X88134Y-58033D01*
X88921Y-58033D01*
X88973Y-58012D01*
X89000Y-57985D01*
X89026Y-58012D01*
X89078Y-58033D01*
X89134Y-58033D01*
X89921Y-58033D01*
X89973Y-58012D01*
X90000Y-57985D01*
X90026Y-58012D01*
X90078Y-58033D01*
X90134Y-58033D01*
X90921Y-58033D01*
X90973Y-58012D01*
X91000Y-57985D01*
X91026Y-58012D01*
X91078Y-58033D01*
X91134Y-58033D01*
X91921Y-58033D01*
X91973Y-58012D01*
X92000Y-57985D01*
X92026Y-58012D01*
X92078Y-58033D01*
X92134Y-58033D01*
X92906Y-58033D01*
X92970Y-58097D01*
X93058Y-58133D01*
X93430Y-58133D01*
X93490Y-58073D01*
X93490Y-57510D01*
X93482Y-57510D01*
X93482Y-57490D01*
X93490Y-57490D01*
X93490Y-56926D01*
X93430Y-56866D01*
X93058Y-56866D01*
X92970Y-56902D01*
X92906Y-56966D01*
X92865Y-56966D01*
X92690Y-56966D01*
X92690Y-56956D01*
X92675Y-56883D01*
X92634Y-56821D01*
X92572Y-56780D01*
X92533Y-56772D01*
X92533Y-56771D01*
X92533Y-56715D01*
X92533Y-55943D01*
X92597Y-55879D01*
X92633Y-55791D01*
X92633Y-55420D01*
X92573Y-55360D01*
X92010Y-55360D01*
X92010Y-55367D01*
X91990Y-55367D01*
X91990Y-55360D01*
X91426Y-55360D01*
X91366Y-55420D01*
X91366Y-55791D01*
X91402Y-55879D01*
X91466Y-55943D01*
X91466Y-55984D01*
X91466Y-56771D01*
X91487Y-56823D01*
X91526Y-56862D01*
X91578Y-56883D01*
X91634Y-56883D01*
X91810Y-56883D01*
X91810Y-56893D01*
X91824Y-56966D01*
X91133Y-56966D01*
X91133Y-55791D01*
X91133Y-55420D01*
X91073Y-55360D01*
X90510Y-55360D01*
X90510Y-55367D01*
X90490Y-55367D01*
X90490Y-55360D01*
X90490Y-55340D01*
X90490Y-54776D01*
X90430Y-54716D01*
X90154Y-54716D01*
X90058Y-54716D01*
X90000Y-54740D01*
X89941Y-54716D01*
X89845Y-54716D01*
X89570Y-54716D01*
X89510Y-54776D01*
X89510Y-55340D01*
X89926Y-55340D01*
X90073Y-55340D01*
X90490Y-55340D01*
X90490Y-55360D01*
X90073Y-55360D01*
X89926Y-55360D01*
X89510Y-55360D01*
X89510Y-55367D01*
X89490Y-55367D01*
X89490Y-55360D01*
X89490Y-55340D01*
X89490Y-54776D01*
X89430Y-54716D01*
X89154Y-54716D01*
X89058Y-54716D01*
X88970Y-54752D01*
X88902Y-54820D01*
X88866Y-54908D01*
X88866Y-55280D01*
X88926Y-55340D01*
X89490Y-55340D01*
X89490Y-55360D01*
X88926Y-55360D01*
X88866Y-55420D01*
X88866Y-55791D01*
X88902Y-55879D01*
X88966Y-55943D01*
X88966Y-55984D01*
X88966Y-56771D01*
X88987Y-56823D01*
X89026Y-56862D01*
X89078Y-56883D01*
X89134Y-56883D01*
X89921Y-56883D01*
X89973Y-56862D01*
X90000Y-56835D01*
X90026Y-56862D01*
X90078Y-56883D01*
X90134Y-56883D01*
X90921Y-56883D01*
X90973Y-56862D01*
X91012Y-56823D01*
X91033Y-56771D01*
X91033Y-56715D01*
X91033Y-55943D01*
X91097Y-55879D01*
X91133Y-55791D01*
X91133Y-56966D01*
X91078Y-56966D01*
X91026Y-56987D01*
X91000Y-57014D01*
X90973Y-56987D01*
X90921Y-56966D01*
X90865Y-56966D01*
X90078Y-56966D01*
X90026Y-56987D01*
X90000Y-57014D01*
X89973Y-56987D01*
X89921Y-56966D01*
X89865Y-56966D01*
X89078Y-56966D01*
X89026Y-56987D01*
X89000Y-57014D01*
X88973Y-56987D01*
X88921Y-56966D01*
X88865Y-56966D01*
X88690Y-56966D01*
X88690Y-53733D01*
X88921Y-53733D01*
X88973Y-53712D01*
X89000Y-53685D01*
X89026Y-53712D01*
X89078Y-53733D01*
X89134Y-53733D01*
X89765Y-53733D01*
X90747Y-54716D01*
X90570Y-54716D01*
X90510Y-54776D01*
X90510Y-55340D01*
X91073Y-55340D01*
X91133Y-55280D01*
X91133Y-54908D01*
X91103Y-54834D01*
X91396Y-54834D01*
X91366Y-54908D01*
X91366Y-55280D01*
X91426Y-55340D01*
X91990Y-55340D01*
X91990Y-55332D01*
X92010Y-55332D01*
X92010Y-55340D01*
X92573Y-55340D01*
X92633Y-55280D01*
X92633Y-54908D01*
X92603Y-54834D01*
X93396Y-54834D01*
X93366Y-54908D01*
X93366Y-55280D01*
X93426Y-55340D01*
X93990Y-55340D01*
X93990Y-55332D01*
X94010Y-55332D01*
X94010Y-55340D01*
X94017Y-55340D01*
X94017Y-55360D01*
X94010Y-55360D01*
X94010Y-55367D01*
X93990Y-55367D01*
X93990Y-55360D01*
X93426Y-55360D01*
X93366Y-55420D01*
X93366Y-55791D01*
X93402Y-55879D01*
X93466Y-55943D01*
X93466Y-55984D01*
X93466Y-56771D01*
X93487Y-56823D01*
X93526Y-56862D01*
X93560Y-56876D01*
X93510Y-56926D01*
X93510Y-57490D01*
X93517Y-57490D01*
X93517Y-57510D01*
X93510Y-57510D01*
X93510Y-58073D01*
X93570Y-58133D01*
X93941Y-58133D01*
X94029Y-58097D01*
X94093Y-58033D01*
X94134Y-58033D01*
X94921Y-58033D01*
X94973Y-58012D01*
X95000Y-57985D01*
X95026Y-58012D01*
X95078Y-58033D01*
X95134Y-58033D01*
X95921Y-58033D01*
X95973Y-58012D01*
X96000Y-57985D01*
X96026Y-58012D01*
X96078Y-58033D01*
X96134Y-58033D01*
X96921Y-58033D01*
X96973Y-58012D01*
X97000Y-57985D01*
X97026Y-58012D01*
X97078Y-58033D01*
X97134Y-58033D01*
X97697Y-58033D01*
G54D10*
G36*
X103380Y-65380D02*
X103282Y-65380D01*
X103282Y-63669D01*
X103282Y-63614D01*
X103282Y-62630D01*
X103271Y-62604D01*
X103271Y-61941D01*
X103271Y-61432D01*
X103271Y-61292D01*
X103271Y-60782D01*
X103271Y-57217D01*
X103271Y-56708D01*
X103271Y-56568D01*
X103271Y-56058D01*
X103234Y-55970D01*
X103167Y-55903D01*
X103079Y-55866D01*
X102983Y-55866D01*
X102570Y-55866D01*
X102510Y-55926D01*
X102510Y-56628D01*
X103211Y-56628D01*
X103271Y-56568D01*
X103271Y-56708D01*
X103211Y-56648D01*
X102510Y-56648D01*
X102510Y-57349D01*
X102570Y-57409D01*
X102983Y-57409D01*
X103079Y-57409D01*
X103167Y-57372D01*
X103234Y-57305D01*
X103271Y-57217D01*
X103271Y-60782D01*
X103234Y-60694D01*
X103167Y-60627D01*
X103079Y-60590D01*
X102983Y-60590D01*
X102570Y-60590D01*
X102510Y-60650D01*
X102510Y-61352D01*
X103211Y-61352D01*
X103271Y-61292D01*
X103271Y-61432D01*
X103211Y-61372D01*
X102510Y-61372D01*
X102510Y-62073D01*
X102570Y-62133D01*
X102983Y-62133D01*
X103079Y-62133D01*
X103167Y-62096D01*
X103234Y-62029D01*
X103271Y-61941D01*
X103271Y-62604D01*
X103260Y-62578D01*
X103221Y-62539D01*
X103169Y-62518D01*
X103114Y-62518D01*
X102490Y-62518D01*
X102490Y-62073D01*
X102490Y-61372D01*
X102490Y-61352D01*
X102490Y-60650D01*
X102490Y-57349D01*
X102490Y-56648D01*
X101788Y-56648D01*
X101728Y-56708D01*
X101728Y-57217D01*
X101765Y-57305D01*
X101832Y-57372D01*
X101920Y-57409D01*
X102016Y-57409D01*
X102430Y-57409D01*
X102490Y-57349D01*
X102490Y-60650D01*
X102430Y-60590D01*
X102016Y-60590D01*
X101920Y-60590D01*
X101832Y-60627D01*
X101765Y-60694D01*
X101728Y-60782D01*
X101728Y-61292D01*
X101788Y-61352D01*
X102490Y-61352D01*
X102490Y-61372D01*
X101788Y-61372D01*
X101728Y-61432D01*
X101728Y-61941D01*
X101765Y-62029D01*
X101832Y-62096D01*
X101920Y-62133D01*
X102016Y-62133D01*
X102430Y-62133D01*
X102490Y-62073D01*
X102490Y-62518D01*
X102130Y-62518D01*
X102078Y-62539D01*
X102039Y-62578D01*
X102018Y-62630D01*
X102018Y-62685D01*
X102018Y-63669D01*
X102039Y-63721D01*
X102078Y-63760D01*
X102130Y-63782D01*
X102185Y-63782D01*
X103169Y-63782D01*
X103221Y-63760D01*
X103260Y-63721D01*
X103282Y-63669D01*
X103282Y-65380D01*
X100196Y-65380D01*
X100247Y-65329D01*
X100283Y-65241D01*
X100283Y-65145D01*
X100283Y-64870D01*
X100283Y-64730D01*
X100283Y-64454D01*
X100283Y-64358D01*
X100247Y-64270D01*
X100179Y-64202D01*
X100091Y-64166D01*
X99720Y-64166D01*
X99660Y-64226D01*
X99660Y-64790D01*
X100223Y-64790D01*
X100283Y-64730D01*
X100283Y-64870D01*
X100223Y-64810D01*
X99660Y-64810D01*
X99660Y-64817D01*
X99640Y-64817D01*
X99640Y-64810D01*
X99640Y-64790D01*
X99640Y-64226D01*
X99580Y-64166D01*
X99208Y-64166D01*
X99120Y-64202D01*
X99075Y-64248D01*
X99029Y-64202D01*
X98941Y-64166D01*
X98570Y-64166D01*
X98510Y-64226D01*
X98510Y-64790D01*
X99073Y-64790D01*
X99075Y-64788D01*
X99076Y-64790D01*
X99640Y-64790D01*
X99640Y-64810D01*
X99076Y-64810D01*
X99075Y-64811D01*
X99073Y-64810D01*
X98510Y-64810D01*
X98510Y-64817D01*
X98490Y-64817D01*
X98490Y-64810D01*
X98482Y-64810D01*
X98482Y-64790D01*
X98490Y-64790D01*
X98490Y-64226D01*
X98430Y-64166D01*
X98133Y-64166D01*
X98133Y-63091D01*
X98133Y-62720D01*
X98073Y-62660D01*
X97510Y-62660D01*
X97510Y-63223D01*
X97570Y-63283D01*
X97845Y-63283D01*
X97941Y-63283D01*
X98029Y-63247D01*
X98097Y-63179D01*
X98133Y-63091D01*
X98133Y-64166D01*
X98058Y-64166D01*
X97970Y-64202D01*
X97906Y-64266D01*
X97865Y-64266D01*
X97490Y-64266D01*
X97490Y-63223D01*
X97490Y-62660D01*
X96926Y-62660D01*
X96866Y-62720D01*
X96866Y-63091D01*
X96902Y-63179D01*
X96970Y-63247D01*
X97058Y-63283D01*
X97154Y-63283D01*
X97430Y-63283D01*
X97490Y-63223D01*
X97490Y-64266D01*
X97078Y-64266D01*
X97026Y-64287D01*
X96987Y-64326D01*
X96966Y-64378D01*
X96966Y-64434D01*
X96966Y-65221D01*
X96987Y-65273D01*
X97026Y-65312D01*
X97078Y-65333D01*
X97134Y-65333D01*
X97906Y-65333D01*
X97953Y-65380D01*
X96633Y-65380D01*
X96633Y-63091D01*
X96633Y-62720D01*
X96573Y-62660D01*
X96010Y-62660D01*
X96010Y-63223D01*
X96070Y-63283D01*
X96345Y-63283D01*
X96441Y-63283D01*
X96529Y-63247D01*
X96597Y-63179D01*
X96633Y-63091D01*
X96633Y-65380D01*
X96046Y-65380D01*
X96097Y-65329D01*
X96133Y-65241D01*
X96133Y-65145D01*
X96133Y-64870D01*
X96133Y-64730D01*
X96133Y-64454D01*
X96133Y-64358D01*
X96097Y-64270D01*
X96029Y-64202D01*
X95990Y-64186D01*
X95990Y-63223D01*
X95990Y-62660D01*
X95426Y-62660D01*
X95366Y-62720D01*
X95366Y-63091D01*
X95402Y-63179D01*
X95470Y-63247D01*
X95558Y-63283D01*
X95654Y-63283D01*
X95930Y-63283D01*
X95990Y-63223D01*
X95990Y-64186D01*
X95941Y-64166D01*
X95570Y-64166D01*
X95510Y-64226D01*
X95510Y-64790D01*
X96073Y-64790D01*
X96133Y-64730D01*
X96133Y-64870D01*
X96073Y-64810D01*
X95510Y-64810D01*
X95510Y-64817D01*
X95490Y-64817D01*
X95490Y-64810D01*
X95482Y-64810D01*
X95482Y-64790D01*
X95490Y-64790D01*
X95490Y-64226D01*
X95430Y-64166D01*
X95058Y-64166D01*
X94970Y-64202D01*
X94906Y-64266D01*
X94865Y-64266D01*
X94690Y-64266D01*
X94690Y-62209D01*
X95466Y-61433D01*
X95466Y-62056D01*
X95402Y-62120D01*
X95366Y-62208D01*
X95366Y-62580D01*
X95426Y-62640D01*
X95990Y-62640D01*
X95990Y-62632D01*
X96010Y-62632D01*
X96010Y-62640D01*
X96573Y-62640D01*
X96633Y-62580D01*
X96633Y-62208D01*
X96597Y-62120D01*
X96533Y-62056D01*
X96533Y-62015D01*
X96533Y-61228D01*
X96512Y-61176D01*
X96473Y-61137D01*
X96421Y-61116D01*
X96365Y-61116D01*
X96152Y-61116D01*
X96234Y-61033D01*
X96921Y-61033D01*
X96973Y-61012D01*
X97000Y-60985D01*
X97026Y-61012D01*
X97078Y-61033D01*
X97134Y-61033D01*
X97921Y-61033D01*
X97973Y-61012D01*
X98012Y-60973D01*
X98033Y-60921D01*
X98033Y-60865D01*
X98033Y-60078D01*
X98012Y-60026D01*
X97973Y-59987D01*
X97921Y-59966D01*
X97865Y-59966D01*
X97758Y-59966D01*
X98396Y-59328D01*
X98396Y-59328D01*
X98396Y-59328D01*
X98416Y-59298D01*
X98416Y-59412D01*
X98430Y-59485D01*
X98471Y-59546D01*
X98891Y-59966D01*
X98728Y-59966D01*
X98676Y-59987D01*
X98637Y-60026D01*
X98616Y-60078D01*
X98616Y-60134D01*
X98616Y-60921D01*
X98637Y-60973D01*
X98676Y-61012D01*
X98728Y-61033D01*
X98784Y-61033D01*
X99503Y-61033D01*
X99503Y-61246D01*
X99290Y-61460D01*
X98033Y-61460D01*
X98033Y-61228D01*
X98012Y-61176D01*
X97973Y-61137D01*
X97921Y-61116D01*
X97865Y-61116D01*
X97078Y-61116D01*
X97026Y-61137D01*
X96987Y-61176D01*
X96966Y-61228D01*
X96966Y-61284D01*
X96966Y-62056D01*
X96902Y-62120D01*
X96866Y-62208D01*
X96866Y-62580D01*
X96926Y-62640D01*
X97490Y-62640D01*
X97490Y-62632D01*
X97510Y-62632D01*
X97510Y-62640D01*
X98073Y-62640D01*
X98133Y-62580D01*
X98133Y-62208D01*
X98097Y-62120D01*
X98033Y-62056D01*
X98033Y-62015D01*
X98033Y-61840D01*
X99290Y-61840D01*
X99968Y-62518D01*
X99130Y-62518D01*
X99078Y-62539D01*
X99039Y-62578D01*
X99018Y-62630D01*
X99018Y-62685D01*
X99018Y-63669D01*
X99039Y-63721D01*
X99078Y-63760D01*
X99130Y-63782D01*
X99185Y-63782D01*
X100169Y-63782D01*
X100221Y-63760D01*
X100247Y-63734D01*
X101446Y-64934D01*
X101446Y-64934D01*
X101446Y-64934D01*
X101508Y-64975D01*
X101580Y-64990D01*
X101580Y-64990D01*
X101580Y-64990D01*
X102116Y-64990D01*
X102116Y-65221D01*
X102137Y-65273D01*
X102176Y-65312D01*
X102228Y-65333D01*
X102284Y-65333D01*
X103071Y-65333D01*
X103123Y-65312D01*
X103162Y-65273D01*
X103183Y-65221D01*
X103183Y-65165D01*
X103183Y-64378D01*
X103162Y-64326D01*
X103123Y-64287D01*
X103071Y-64266D01*
X103015Y-64266D01*
X102228Y-64266D01*
X102176Y-64287D01*
X102137Y-64326D01*
X102116Y-64378D01*
X102116Y-64434D01*
X102116Y-64610D01*
X101659Y-64610D01*
X100831Y-63782D01*
X101669Y-63782D01*
X101721Y-63760D01*
X101760Y-63721D01*
X101782Y-63669D01*
X101782Y-63614D01*
X101782Y-62630D01*
X101760Y-62578D01*
X101721Y-62539D01*
X101669Y-62518D01*
X101614Y-62518D01*
X100630Y-62518D01*
X100578Y-62539D01*
X100552Y-62565D01*
X99637Y-61650D01*
X99828Y-61459D01*
X99869Y-61397D01*
X99883Y-61325D01*
X99883Y-59948D01*
X100113Y-60178D01*
X100175Y-60219D01*
X100248Y-60233D01*
X101437Y-60233D01*
X101509Y-60219D01*
X101571Y-60178D01*
X101612Y-60116D01*
X101627Y-60043D01*
X101627Y-60033D01*
X101799Y-60033D01*
X101850Y-60012D01*
X101890Y-59973D01*
X101911Y-59921D01*
X101911Y-59865D01*
X101911Y-59093D01*
X101975Y-59029D01*
X102011Y-58941D01*
X102011Y-58570D01*
X102011Y-58430D01*
X102011Y-58058D01*
X101975Y-57970D01*
X101907Y-57902D01*
X101819Y-57866D01*
X101723Y-57866D01*
X101507Y-57866D01*
X101447Y-57926D01*
X101447Y-58490D01*
X101951Y-58490D01*
X102011Y-58430D01*
X102011Y-58570D01*
X101951Y-58510D01*
X101447Y-58510D01*
X101447Y-58517D01*
X101427Y-58517D01*
X101427Y-58510D01*
X101419Y-58510D01*
X101419Y-58490D01*
X101427Y-58490D01*
X101427Y-57926D01*
X101367Y-57866D01*
X101150Y-57866D01*
X101054Y-57866D01*
X100966Y-57902D01*
X100902Y-57966D01*
X100287Y-57966D01*
X100236Y-57987D01*
X100196Y-58026D01*
X100175Y-58078D01*
X100175Y-58134D01*
X100175Y-58921D01*
X100196Y-58973D01*
X100223Y-59000D01*
X100196Y-59026D01*
X100191Y-59040D01*
X100115Y-58964D01*
X99999Y-58916D01*
X99874Y-58916D01*
X99797Y-58948D01*
X99797Y-58314D01*
X101728Y-56383D01*
X101728Y-56568D01*
X101788Y-56628D01*
X102490Y-56628D01*
X102490Y-55926D01*
X102430Y-55866D01*
X102245Y-55866D01*
X102429Y-55682D01*
X102650Y-55682D01*
X102722Y-55667D01*
X102784Y-55626D01*
X102825Y-55564D01*
X102840Y-55492D01*
X102840Y-55482D01*
X103169Y-55482D01*
X103221Y-55460D01*
X103260Y-55421D01*
X103282Y-55369D01*
X103282Y-55314D01*
X103282Y-54330D01*
X103260Y-54278D01*
X103221Y-54239D01*
X103169Y-54218D01*
X103114Y-54218D01*
X102840Y-54218D01*
X102840Y-53733D01*
X103071Y-53733D01*
X103123Y-53712D01*
X103162Y-53673D01*
X103183Y-53621D01*
X103183Y-53565D01*
X103183Y-52778D01*
X103162Y-52726D01*
X103123Y-52687D01*
X103071Y-52666D01*
X103015Y-52666D01*
X102228Y-52666D01*
X102176Y-52687D01*
X102137Y-52726D01*
X102116Y-52778D01*
X102116Y-52834D01*
X102116Y-53621D01*
X102137Y-53673D01*
X102176Y-53712D01*
X102228Y-53733D01*
X102284Y-53733D01*
X102460Y-53733D01*
X102460Y-54218D01*
X102130Y-54218D01*
X102078Y-54239D01*
X102039Y-54278D01*
X102018Y-54330D01*
X102018Y-54385D01*
X102018Y-55369D01*
X102039Y-55421D01*
X102078Y-55460D01*
X102103Y-55470D01*
X99683Y-57890D01*
X99683Y-57865D01*
X99683Y-57078D01*
X99662Y-57026D01*
X99623Y-56987D01*
X99571Y-56966D01*
X99515Y-56966D01*
X99408Y-56966D01*
X100692Y-55682D01*
X101150Y-55682D01*
X101222Y-55667D01*
X101284Y-55626D01*
X101325Y-55564D01*
X101340Y-55492D01*
X101340Y-55482D01*
X101669Y-55482D01*
X101721Y-55460D01*
X101760Y-55421D01*
X101782Y-55369D01*
X101782Y-55314D01*
X101782Y-54330D01*
X101760Y-54278D01*
X101721Y-54239D01*
X101669Y-54218D01*
X101614Y-54218D01*
X100630Y-54218D01*
X100578Y-54239D01*
X100539Y-54278D01*
X100518Y-54330D01*
X100518Y-54385D01*
X100518Y-55332D01*
X100479Y-55357D01*
X100282Y-55555D01*
X100282Y-55369D01*
X100282Y-55314D01*
X100282Y-54330D01*
X100260Y-54278D01*
X100221Y-54239D01*
X100169Y-54218D01*
X100114Y-54218D01*
X99130Y-54218D01*
X99078Y-54239D01*
X99039Y-54278D01*
X99018Y-54330D01*
X99018Y-54385D01*
X99018Y-55369D01*
X99039Y-55421D01*
X99078Y-55460D01*
X99130Y-55482D01*
X99185Y-55482D01*
X100169Y-55482D01*
X100221Y-55460D01*
X100260Y-55421D01*
X100282Y-55369D01*
X100282Y-55555D01*
X99015Y-56821D01*
X98974Y-56883D01*
X98960Y-56956D01*
X98960Y-56966D01*
X98796Y-56966D01*
X98796Y-54850D01*
X98781Y-54777D01*
X98740Y-54715D01*
X97758Y-53733D01*
X97906Y-53733D01*
X97970Y-53797D01*
X98058Y-53833D01*
X98430Y-53833D01*
X98490Y-53773D01*
X98490Y-53210D01*
X98482Y-53210D01*
X98482Y-53190D01*
X98490Y-53190D01*
X98490Y-53182D01*
X98510Y-53182D01*
X98510Y-53190D01*
X98517Y-53190D01*
X98517Y-53210D01*
X98510Y-53210D01*
X98510Y-53773D01*
X98570Y-53833D01*
X98941Y-53833D01*
X99029Y-53797D01*
X99097Y-53729D01*
X99129Y-53652D01*
X99137Y-53673D01*
X99176Y-53712D01*
X99228Y-53733D01*
X99284Y-53733D01*
X100071Y-53733D01*
X100123Y-53712D01*
X100162Y-53673D01*
X100183Y-53621D01*
X100183Y-53565D01*
X100183Y-52778D01*
X100162Y-52726D01*
X100123Y-52687D01*
X100071Y-52666D01*
X100015Y-52666D01*
X99228Y-52666D01*
X99176Y-52687D01*
X99137Y-52726D01*
X99129Y-52747D01*
X99097Y-52670D01*
X99029Y-52602D01*
X98949Y-52569D01*
X103380Y-52569D01*
X103380Y-65380D01*
X103380Y-65380D01*
G37*
G54D19*
X103380Y-65380D02*
X103282Y-65380D01*
X103282Y-63669D01*
X103282Y-63614D01*
X103282Y-62630D01*
X103271Y-62604D01*
X103271Y-61941D01*
X103271Y-61432D01*
X103271Y-61292D01*
X103271Y-60782D01*
X103271Y-57217D01*
X103271Y-56708D01*
X103271Y-56568D01*
X103271Y-56058D01*
X103234Y-55970D01*
X103167Y-55903D01*
X103079Y-55866D01*
X102983Y-55866D01*
X102570Y-55866D01*
X102510Y-55926D01*
X102510Y-56628D01*
X103211Y-56628D01*
X103271Y-56568D01*
X103271Y-56708D01*
X103211Y-56648D01*
X102510Y-56648D01*
X102510Y-57349D01*
X102570Y-57409D01*
X102983Y-57409D01*
X103079Y-57409D01*
X103167Y-57372D01*
X103234Y-57305D01*
X103271Y-57217D01*
X103271Y-60782D01*
X103234Y-60694D01*
X103167Y-60627D01*
X103079Y-60590D01*
X102983Y-60590D01*
X102570Y-60590D01*
X102510Y-60650D01*
X102510Y-61352D01*
X103211Y-61352D01*
X103271Y-61292D01*
X103271Y-61432D01*
X103211Y-61372D01*
X102510Y-61372D01*
X102510Y-62073D01*
X102570Y-62133D01*
X102983Y-62133D01*
X103079Y-62133D01*
X103167Y-62096D01*
X103234Y-62029D01*
X103271Y-61941D01*
X103271Y-62604D01*
X103260Y-62578D01*
X103221Y-62539D01*
X103169Y-62518D01*
X103114Y-62518D01*
X102490Y-62518D01*
X102490Y-62073D01*
X102490Y-61372D01*
X102490Y-61352D01*
X102490Y-60650D01*
X102490Y-57349D01*
X102490Y-56648D01*
X101788Y-56648D01*
X101728Y-56708D01*
X101728Y-57217D01*
X101765Y-57305D01*
X101832Y-57372D01*
X101920Y-57409D01*
X102016Y-57409D01*
X102430Y-57409D01*
X102490Y-57349D01*
X102490Y-60650D01*
X102430Y-60590D01*
X102016Y-60590D01*
X101920Y-60590D01*
X101832Y-60627D01*
X101765Y-60694D01*
X101728Y-60782D01*
X101728Y-61292D01*
X101788Y-61352D01*
X102490Y-61352D01*
X102490Y-61372D01*
X101788Y-61372D01*
X101728Y-61432D01*
X101728Y-61941D01*
X101765Y-62029D01*
X101832Y-62096D01*
X101920Y-62133D01*
X102016Y-62133D01*
X102430Y-62133D01*
X102490Y-62073D01*
X102490Y-62518D01*
X102130Y-62518D01*
X102078Y-62539D01*
X102039Y-62578D01*
X102018Y-62630D01*
X102018Y-62685D01*
X102018Y-63669D01*
X102039Y-63721D01*
X102078Y-63760D01*
X102130Y-63782D01*
X102185Y-63782D01*
X103169Y-63782D01*
X103221Y-63760D01*
X103260Y-63721D01*
X103282Y-63669D01*
X103282Y-65380D01*
X100196Y-65380D01*
X100247Y-65329D01*
X100283Y-65241D01*
X100283Y-65145D01*
X100283Y-64870D01*
X100283Y-64730D01*
X100283Y-64454D01*
X100283Y-64358D01*
X100247Y-64270D01*
X100179Y-64202D01*
X100091Y-64166D01*
X99720Y-64166D01*
X99660Y-64226D01*
X99660Y-64790D01*
X100223Y-64790D01*
X100283Y-64730D01*
X100283Y-64870D01*
X100223Y-64810D01*
X99660Y-64810D01*
X99660Y-64817D01*
X99640Y-64817D01*
X99640Y-64810D01*
X99640Y-64790D01*
X99640Y-64226D01*
X99580Y-64166D01*
X99208Y-64166D01*
X99120Y-64202D01*
X99075Y-64248D01*
X99029Y-64202D01*
X98941Y-64166D01*
X98570Y-64166D01*
X98510Y-64226D01*
X98510Y-64790D01*
X99073Y-64790D01*
X99075Y-64788D01*
X99076Y-64790D01*
X99640Y-64790D01*
X99640Y-64810D01*
X99076Y-64810D01*
X99075Y-64811D01*
X99073Y-64810D01*
X98510Y-64810D01*
X98510Y-64817D01*
X98490Y-64817D01*
X98490Y-64810D01*
X98482Y-64810D01*
X98482Y-64790D01*
X98490Y-64790D01*
X98490Y-64226D01*
X98430Y-64166D01*
X98133Y-64166D01*
X98133Y-63091D01*
X98133Y-62720D01*
X98073Y-62660D01*
X97510Y-62660D01*
X97510Y-63223D01*
X97570Y-63283D01*
X97845Y-63283D01*
X97941Y-63283D01*
X98029Y-63247D01*
X98097Y-63179D01*
X98133Y-63091D01*
X98133Y-64166D01*
X98058Y-64166D01*
X97970Y-64202D01*
X97906Y-64266D01*
X97865Y-64266D01*
X97490Y-64266D01*
X97490Y-63223D01*
X97490Y-62660D01*
X96926Y-62660D01*
X96866Y-62720D01*
X96866Y-63091D01*
X96902Y-63179D01*
X96970Y-63247D01*
X97058Y-63283D01*
X97154Y-63283D01*
X97430Y-63283D01*
X97490Y-63223D01*
X97490Y-64266D01*
X97078Y-64266D01*
X97026Y-64287D01*
X96987Y-64326D01*
X96966Y-64378D01*
X96966Y-64434D01*
X96966Y-65221D01*
X96987Y-65273D01*
X97026Y-65312D01*
X97078Y-65333D01*
X97134Y-65333D01*
X97906Y-65333D01*
X97953Y-65380D01*
X96633Y-65380D01*
X96633Y-63091D01*
X96633Y-62720D01*
X96573Y-62660D01*
X96010Y-62660D01*
X96010Y-63223D01*
X96070Y-63283D01*
X96345Y-63283D01*
X96441Y-63283D01*
X96529Y-63247D01*
X96597Y-63179D01*
X96633Y-63091D01*
X96633Y-65380D01*
X96046Y-65380D01*
X96097Y-65329D01*
X96133Y-65241D01*
X96133Y-65145D01*
X96133Y-64870D01*
X96133Y-64730D01*
X96133Y-64454D01*
X96133Y-64358D01*
X96097Y-64270D01*
X96029Y-64202D01*
X95990Y-64186D01*
X95990Y-63223D01*
X95990Y-62660D01*
X95426Y-62660D01*
X95366Y-62720D01*
X95366Y-63091D01*
X95402Y-63179D01*
X95470Y-63247D01*
X95558Y-63283D01*
X95654Y-63283D01*
X95930Y-63283D01*
X95990Y-63223D01*
X95990Y-64186D01*
X95941Y-64166D01*
X95570Y-64166D01*
X95510Y-64226D01*
X95510Y-64790D01*
X96073Y-64790D01*
X96133Y-64730D01*
X96133Y-64870D01*
X96073Y-64810D01*
X95510Y-64810D01*
X95510Y-64817D01*
X95490Y-64817D01*
X95490Y-64810D01*
X95482Y-64810D01*
X95482Y-64790D01*
X95490Y-64790D01*
X95490Y-64226D01*
X95430Y-64166D01*
X95058Y-64166D01*
X94970Y-64202D01*
X94906Y-64266D01*
X94865Y-64266D01*
X94690Y-64266D01*
X94690Y-62209D01*
X95466Y-61433D01*
X95466Y-62056D01*
X95402Y-62120D01*
X95366Y-62208D01*
X95366Y-62580D01*
X95426Y-62640D01*
X95990Y-62640D01*
X95990Y-62632D01*
X96010Y-62632D01*
X96010Y-62640D01*
X96573Y-62640D01*
X96633Y-62580D01*
X96633Y-62208D01*
X96597Y-62120D01*
X96533Y-62056D01*
X96533Y-62015D01*
X96533Y-61228D01*
X96512Y-61176D01*
X96473Y-61137D01*
X96421Y-61116D01*
X96365Y-61116D01*
X96152Y-61116D01*
X96234Y-61033D01*
X96921Y-61033D01*
X96973Y-61012D01*
X97000Y-60985D01*
X97026Y-61012D01*
X97078Y-61033D01*
X97134Y-61033D01*
X97921Y-61033D01*
X97973Y-61012D01*
X98012Y-60973D01*
X98033Y-60921D01*
X98033Y-60865D01*
X98033Y-60078D01*
X98012Y-60026D01*
X97973Y-59987D01*
X97921Y-59966D01*
X97865Y-59966D01*
X97758Y-59966D01*
X98396Y-59328D01*
X98396Y-59328D01*
X98396Y-59328D01*
X98416Y-59298D01*
X98416Y-59412D01*
X98430Y-59485D01*
X98471Y-59546D01*
X98891Y-59966D01*
X98728Y-59966D01*
X98676Y-59987D01*
X98637Y-60026D01*
X98616Y-60078D01*
X98616Y-60134D01*
X98616Y-60921D01*
X98637Y-60973D01*
X98676Y-61012D01*
X98728Y-61033D01*
X98784Y-61033D01*
X99503Y-61033D01*
X99503Y-61246D01*
X99290Y-61460D01*
X98033Y-61460D01*
X98033Y-61228D01*
X98012Y-61176D01*
X97973Y-61137D01*
X97921Y-61116D01*
X97865Y-61116D01*
X97078Y-61116D01*
X97026Y-61137D01*
X96987Y-61176D01*
X96966Y-61228D01*
X96966Y-61284D01*
X96966Y-62056D01*
X96902Y-62120D01*
X96866Y-62208D01*
X96866Y-62580D01*
X96926Y-62640D01*
X97490Y-62640D01*
X97490Y-62632D01*
X97510Y-62632D01*
X97510Y-62640D01*
X98073Y-62640D01*
X98133Y-62580D01*
X98133Y-62208D01*
X98097Y-62120D01*
X98033Y-62056D01*
X98033Y-62015D01*
X98033Y-61840D01*
X99290Y-61840D01*
X99968Y-62518D01*
X99130Y-62518D01*
X99078Y-62539D01*
X99039Y-62578D01*
X99018Y-62630D01*
X99018Y-62685D01*
X99018Y-63669D01*
X99039Y-63721D01*
X99078Y-63760D01*
X99130Y-63782D01*
X99185Y-63782D01*
X100169Y-63782D01*
X100221Y-63760D01*
X100247Y-63734D01*
X101446Y-64934D01*
X101446Y-64934D01*
X101446Y-64934D01*
X101508Y-64975D01*
X101580Y-64990D01*
X101580Y-64990D01*
X101580Y-64990D01*
X102116Y-64990D01*
X102116Y-65221D01*
X102137Y-65273D01*
X102176Y-65312D01*
X102228Y-65333D01*
X102284Y-65333D01*
X103071Y-65333D01*
X103123Y-65312D01*
X103162Y-65273D01*
X103183Y-65221D01*
X103183Y-65165D01*
X103183Y-64378D01*
X103162Y-64326D01*
X103123Y-64287D01*
X103071Y-64266D01*
X103015Y-64266D01*
X102228Y-64266D01*
X102176Y-64287D01*
X102137Y-64326D01*
X102116Y-64378D01*
X102116Y-64434D01*
X102116Y-64610D01*
X101659Y-64610D01*
X100831Y-63782D01*
X101669Y-63782D01*
X101721Y-63760D01*
X101760Y-63721D01*
X101782Y-63669D01*
X101782Y-63614D01*
X101782Y-62630D01*
X101760Y-62578D01*
X101721Y-62539D01*
X101669Y-62518D01*
X101614Y-62518D01*
X100630Y-62518D01*
X100578Y-62539D01*
X100552Y-62565D01*
X99637Y-61650D01*
X99828Y-61459D01*
X99869Y-61397D01*
X99883Y-61325D01*
X99883Y-59948D01*
X100113Y-60178D01*
X100175Y-60219D01*
X100248Y-60233D01*
X101437Y-60233D01*
X101509Y-60219D01*
X101571Y-60178D01*
X101612Y-60116D01*
X101627Y-60043D01*
X101627Y-60033D01*
X101799Y-60033D01*
X101850Y-60012D01*
X101890Y-59973D01*
X101911Y-59921D01*
X101911Y-59865D01*
X101911Y-59093D01*
X101975Y-59029D01*
X102011Y-58941D01*
X102011Y-58570D01*
X102011Y-58430D01*
X102011Y-58058D01*
X101975Y-57970D01*
X101907Y-57902D01*
X101819Y-57866D01*
X101723Y-57866D01*
X101507Y-57866D01*
X101447Y-57926D01*
X101447Y-58490D01*
X101951Y-58490D01*
X102011Y-58430D01*
X102011Y-58570D01*
X101951Y-58510D01*
X101447Y-58510D01*
X101447Y-58517D01*
X101427Y-58517D01*
X101427Y-58510D01*
X101419Y-58510D01*
X101419Y-58490D01*
X101427Y-58490D01*
X101427Y-57926D01*
X101367Y-57866D01*
X101150Y-57866D01*
X101054Y-57866D01*
X100966Y-57902D01*
X100902Y-57966D01*
X100287Y-57966D01*
X100236Y-57987D01*
X100196Y-58026D01*
X100175Y-58078D01*
X100175Y-58134D01*
X100175Y-58921D01*
X100196Y-58973D01*
X100223Y-59000D01*
X100196Y-59026D01*
X100191Y-59040D01*
X100115Y-58964D01*
X99999Y-58916D01*
X99874Y-58916D01*
X99797Y-58948D01*
X99797Y-58314D01*
X101728Y-56383D01*
X101728Y-56568D01*
X101788Y-56628D01*
X102490Y-56628D01*
X102490Y-55926D01*
X102430Y-55866D01*
X102245Y-55866D01*
X102429Y-55682D01*
X102650Y-55682D01*
X102722Y-55667D01*
X102784Y-55626D01*
X102825Y-55564D01*
X102840Y-55492D01*
X102840Y-55482D01*
X103169Y-55482D01*
X103221Y-55460D01*
X103260Y-55421D01*
X103282Y-55369D01*
X103282Y-55314D01*
X103282Y-54330D01*
X103260Y-54278D01*
X103221Y-54239D01*
X103169Y-54218D01*
X103114Y-54218D01*
X102840Y-54218D01*
X102840Y-53733D01*
X103071Y-53733D01*
X103123Y-53712D01*
X103162Y-53673D01*
X103183Y-53621D01*
X103183Y-53565D01*
X103183Y-52778D01*
X103162Y-52726D01*
X103123Y-52687D01*
X103071Y-52666D01*
X103015Y-52666D01*
X102228Y-52666D01*
X102176Y-52687D01*
X102137Y-52726D01*
X102116Y-52778D01*
X102116Y-52834D01*
X102116Y-53621D01*
X102137Y-53673D01*
X102176Y-53712D01*
X102228Y-53733D01*
X102284Y-53733D01*
X102460Y-53733D01*
X102460Y-54218D01*
X102130Y-54218D01*
X102078Y-54239D01*
X102039Y-54278D01*
X102018Y-54330D01*
X102018Y-54385D01*
X102018Y-55369D01*
X102039Y-55421D01*
X102078Y-55460D01*
X102103Y-55470D01*
X99683Y-57890D01*
X99683Y-57865D01*
X99683Y-57078D01*
X99662Y-57026D01*
X99623Y-56987D01*
X99571Y-56966D01*
X99515Y-56966D01*
X99408Y-56966D01*
X100692Y-55682D01*
X101150Y-55682D01*
X101222Y-55667D01*
X101284Y-55626D01*
X101325Y-55564D01*
X101340Y-55492D01*
X101340Y-55482D01*
X101669Y-55482D01*
X101721Y-55460D01*
X101760Y-55421D01*
X101782Y-55369D01*
X101782Y-55314D01*
X101782Y-54330D01*
X101760Y-54278D01*
X101721Y-54239D01*
X101669Y-54218D01*
X101614Y-54218D01*
X100630Y-54218D01*
X100578Y-54239D01*
X100539Y-54278D01*
X100518Y-54330D01*
X100518Y-54385D01*
X100518Y-55332D01*
X100479Y-55357D01*
X100282Y-55555D01*
X100282Y-55369D01*
X100282Y-55314D01*
X100282Y-54330D01*
X100260Y-54278D01*
X100221Y-54239D01*
X100169Y-54218D01*
X100114Y-54218D01*
X99130Y-54218D01*
X99078Y-54239D01*
X99039Y-54278D01*
X99018Y-54330D01*
X99018Y-54385D01*
X99018Y-55369D01*
X99039Y-55421D01*
X99078Y-55460D01*
X99130Y-55482D01*
X99185Y-55482D01*
X100169Y-55482D01*
X100221Y-55460D01*
X100260Y-55421D01*
X100282Y-55369D01*
X100282Y-55555D01*
X99015Y-56821D01*
X98974Y-56883D01*
X98960Y-56956D01*
X98960Y-56966D01*
X98796Y-56966D01*
X98796Y-54850D01*
X98781Y-54777D01*
X98740Y-54715D01*
X97758Y-53733D01*
X97906Y-53733D01*
X97970Y-53797D01*
X98058Y-53833D01*
X98430Y-53833D01*
X98490Y-53773D01*
X98490Y-53210D01*
X98482Y-53210D01*
X98482Y-53190D01*
X98490Y-53190D01*
X98490Y-53182D01*
X98510Y-53182D01*
X98510Y-53190D01*
X98517Y-53190D01*
X98517Y-53210D01*
X98510Y-53210D01*
X98510Y-53773D01*
X98570Y-53833D01*
X98941Y-53833D01*
X99029Y-53797D01*
X99097Y-53729D01*
X99129Y-53652D01*
X99137Y-53673D01*
X99176Y-53712D01*
X99228Y-53733D01*
X99284Y-53733D01*
X100071Y-53733D01*
X100123Y-53712D01*
X100162Y-53673D01*
X100183Y-53621D01*
X100183Y-53565D01*
X100183Y-52778D01*
X100162Y-52726D01*
X100123Y-52687D01*
X100071Y-52666D01*
X100015Y-52666D01*
X99228Y-52666D01*
X99176Y-52687D01*
X99137Y-52726D01*
X99129Y-52747D01*
X99097Y-52670D01*
X99029Y-52602D01*
X98949Y-52569D01*
X103380Y-52569D01*
X103380Y-65380D01*
M02*
