%FSLAX34Y34*%
G04 Gerber Fmt 3.4, Leading zero omitted, Abs format*
G04 (created by PCBNEW (2013-10-28 BZR 4418)-product) date jeu. 31 oct. 2013 10:30:57 CET*
%MOIN*%
G01*
G70*
G90*
G04 APERTURE LIST*
%ADD10C,0.005906*%
%ADD11R,0.078740X0.078740*%
%ADD12R,0.055000X0.078740*%
%ADD13R,0.078740X0.055000*%
%ADD14R,0.066929X0.078740*%
%ADD15R,0.106300X0.106300*%
%ADD16R,0.098400X0.098400*%
%ADD17C,0.035000*%
%ADD18C,0.010000*%
%ADD19C,0.008000*%
G04 APERTURE END LIST*
G54D10*
G54D11*
X84000Y-53700D03*
X85000Y-53700D03*
X84000Y-64300D03*
X85000Y-64300D03*
X95500Y-64800D03*
X94500Y-64800D03*
X93500Y-64800D03*
X92500Y-64800D03*
X91500Y-64800D03*
X90500Y-64800D03*
X89500Y-64800D03*
X88500Y-64800D03*
X87500Y-64800D03*
X86500Y-64800D03*
X86500Y-53200D03*
X87500Y-53200D03*
X88500Y-53200D03*
X89500Y-53200D03*
X90500Y-53200D03*
X91500Y-53200D03*
X92500Y-53200D03*
X93500Y-53200D03*
X94500Y-53200D03*
X95500Y-53200D03*
X89500Y-56350D03*
X89500Y-55350D03*
X92500Y-62650D03*
X92500Y-61650D03*
X93500Y-62650D03*
X93500Y-61650D03*
X85500Y-61700D03*
X85500Y-62700D03*
X84500Y-61700D03*
X84500Y-62700D03*
X97500Y-56350D03*
X97500Y-55350D03*
X99650Y-64800D03*
X102650Y-64800D03*
X99150Y-57500D03*
X99150Y-60500D03*
X98500Y-53200D03*
X97500Y-53200D03*
G54D12*
X83050Y-60500D03*
X83050Y-57500D03*
G54D13*
X82050Y-56300D03*
X79050Y-56300D03*
X79050Y-60800D03*
X82050Y-60800D03*
X79050Y-59000D03*
X82050Y-59000D03*
X79050Y-59900D03*
X82050Y-59900D03*
X79050Y-58100D03*
X82050Y-58100D03*
G54D11*
X82050Y-62800D03*
X82050Y-64800D03*
X79050Y-62800D03*
X79050Y-64800D03*
X79050Y-55200D03*
X79050Y-53200D03*
X82050Y-55200D03*
X82050Y-53200D03*
X94000Y-59000D03*
X92000Y-59000D03*
X96000Y-61650D03*
X96000Y-62650D03*
X97500Y-61650D03*
X97500Y-62650D03*
X94000Y-56350D03*
X94000Y-55350D03*
X84500Y-56350D03*
X84500Y-55350D03*
X92000Y-56350D03*
X92000Y-55350D03*
X90500Y-56350D03*
X90500Y-55350D03*
X85500Y-56350D03*
X85500Y-55350D03*
X96000Y-56350D03*
X96000Y-55350D03*
X99650Y-53200D03*
X102650Y-53200D03*
G54D13*
X79050Y-61700D03*
X82050Y-61700D03*
X82050Y-57200D03*
X79050Y-57200D03*
G54D14*
X100650Y-58500D03*
X100650Y-59500D03*
X101437Y-59500D03*
X101437Y-58500D03*
G54D15*
X102500Y-56638D03*
X102500Y-61362D03*
G54D16*
X99650Y-54850D03*
X101150Y-54850D03*
X102650Y-54850D03*
X102650Y-63150D03*
X101150Y-63150D03*
X99650Y-63150D03*
G54D11*
X84500Y-60500D03*
X85500Y-60500D03*
X86500Y-60500D03*
X87500Y-60500D03*
X88500Y-60500D03*
X89500Y-60500D03*
X90500Y-60500D03*
X91500Y-60500D03*
X92500Y-60500D03*
X93500Y-60500D03*
X94500Y-60500D03*
X95500Y-60500D03*
X96500Y-60500D03*
X97500Y-60500D03*
X97500Y-57500D03*
X96500Y-57500D03*
X95500Y-57500D03*
X94500Y-57500D03*
X93500Y-57500D03*
X92500Y-57500D03*
X91500Y-57500D03*
X90500Y-57500D03*
X89500Y-57500D03*
X88500Y-57500D03*
X87500Y-57500D03*
X86500Y-57500D03*
X85500Y-57500D03*
X84500Y-57500D03*
X98500Y-64800D03*
X97500Y-64800D03*
G54D17*
X99936Y-59231D03*
X96098Y-54432D03*
X96505Y-53112D03*
G54D18*
X99444Y-59231D02*
X99936Y-59231D01*
X98257Y-58043D02*
X99444Y-59231D01*
X92043Y-58043D02*
X98257Y-58043D01*
X91500Y-57500D02*
X92043Y-58043D01*
X100650Y-59500D02*
X100165Y-59500D01*
X100108Y-59556D02*
X100165Y-59500D01*
X99486Y-59556D02*
X100108Y-59556D01*
X98174Y-58243D02*
X99486Y-59556D01*
X91243Y-58243D02*
X98174Y-58243D01*
X90500Y-57500D02*
X91243Y-58243D01*
X79050Y-60800D02*
X79050Y-60587D01*
X78506Y-61131D02*
X79050Y-60587D01*
X78506Y-63273D02*
X78506Y-61131D01*
X78776Y-63543D02*
X78506Y-63273D01*
X87243Y-63543D02*
X78776Y-63543D01*
X88500Y-64800D02*
X87243Y-63543D01*
X79312Y-60325D02*
X79050Y-60587D01*
X82511Y-60325D02*
X79312Y-60325D01*
X82624Y-60212D02*
X82511Y-60325D01*
X82624Y-60023D02*
X82624Y-60212D01*
X82692Y-59956D02*
X82624Y-60023D01*
X84956Y-59956D02*
X82692Y-59956D01*
X85500Y-60500D02*
X84956Y-59956D01*
X92732Y-54432D02*
X96098Y-54432D01*
X91500Y-53200D02*
X92732Y-54432D01*
X96049Y-52656D02*
X96505Y-53112D01*
X93043Y-52656D02*
X96049Y-52656D01*
X92500Y-53200D02*
X93043Y-52656D01*
X99043Y-58500D02*
X98043Y-57500D01*
X100165Y-58500D02*
X99043Y-58500D01*
X97500Y-57500D02*
X98043Y-57500D01*
X102007Y-63511D02*
X102007Y-63150D01*
X101726Y-63792D02*
X102007Y-63511D01*
X98507Y-63792D02*
X101726Y-63792D01*
X97500Y-64800D02*
X98507Y-63792D01*
X102650Y-63150D02*
X102007Y-63150D01*
X100650Y-58500D02*
X100407Y-58500D01*
X100407Y-58500D02*
X100165Y-58500D01*
X103181Y-61976D02*
X102650Y-62507D01*
X103181Y-59285D02*
X103181Y-61976D01*
X101846Y-57950D02*
X103181Y-59285D01*
X100956Y-57950D02*
X101846Y-57950D01*
X100407Y-58500D02*
X100956Y-57950D01*
X102650Y-63150D02*
X102650Y-62507D01*
X96000Y-56350D02*
X97500Y-56350D01*
X79050Y-56300D02*
X79050Y-55874D01*
X98048Y-55801D02*
X97500Y-56350D01*
X98048Y-54890D02*
X98048Y-55801D01*
X97964Y-54806D02*
X98048Y-54890D01*
X84013Y-54806D02*
X97964Y-54806D01*
X82944Y-55874D02*
X84013Y-54806D01*
X79050Y-55874D02*
X82944Y-55874D01*
X89500Y-56350D02*
X89500Y-56893D01*
X99650Y-53200D02*
X99650Y-53743D01*
X89500Y-57500D02*
X89500Y-58043D01*
X79050Y-59900D02*
X79050Y-59474D01*
X95944Y-59944D02*
X96500Y-60500D01*
X91400Y-59944D02*
X95944Y-59944D01*
X89500Y-58043D02*
X91400Y-59944D01*
X88068Y-59474D02*
X79050Y-59474D01*
X89500Y-58043D02*
X88068Y-59474D01*
X99096Y-54296D02*
X99096Y-54296D01*
X99650Y-54850D02*
X99096Y-54296D01*
X99650Y-53743D02*
X99096Y-54296D01*
X98248Y-56893D02*
X99650Y-55492D01*
X95087Y-56893D02*
X98248Y-56893D01*
X94543Y-56350D02*
X95087Y-56893D01*
X94000Y-56350D02*
X94543Y-56350D01*
X99650Y-54850D02*
X99650Y-55492D01*
X89500Y-57500D02*
X89500Y-56893D01*
X94000Y-56350D02*
X93456Y-56350D01*
X92912Y-56893D02*
X93456Y-56350D01*
X89500Y-56893D02*
X92912Y-56893D01*
X95407Y-54107D02*
X94500Y-53200D01*
X98907Y-54107D02*
X95407Y-54107D01*
X99096Y-54296D02*
X98907Y-54107D01*
X83050Y-60500D02*
X83475Y-60500D01*
X97500Y-61650D02*
X96000Y-61650D01*
X84081Y-61106D02*
X83475Y-60500D01*
X94912Y-61106D02*
X84081Y-61106D01*
X95456Y-61650D02*
X94912Y-61106D01*
X96000Y-61650D02*
X95456Y-61650D01*
X79050Y-64800D02*
X82050Y-64800D01*
X82050Y-53200D02*
X79050Y-53200D01*
X82050Y-58100D02*
X82050Y-57887D01*
X84893Y-56956D02*
X85500Y-56350D01*
X82704Y-56956D02*
X84893Y-56956D01*
X82593Y-57067D02*
X82704Y-56956D01*
X82593Y-57547D02*
X82593Y-57067D01*
X82253Y-57887D02*
X82593Y-57547D01*
X82050Y-57887D02*
X82253Y-57887D01*
X81787Y-57625D02*
X82050Y-57887D01*
X79050Y-57625D02*
X81787Y-57625D01*
X79050Y-57200D02*
X79050Y-57625D01*
X82593Y-58862D02*
X83956Y-57500D01*
X82593Y-59000D02*
X82593Y-58862D01*
X84500Y-57500D02*
X83956Y-57500D01*
X82050Y-59000D02*
X82593Y-59000D01*
X92000Y-56350D02*
X90500Y-56350D01*
X97500Y-62650D02*
X98043Y-62650D01*
X96000Y-55350D02*
X97500Y-55350D01*
X79050Y-62800D02*
X82050Y-62800D01*
X98500Y-64800D02*
X99650Y-64800D01*
X95500Y-53200D02*
X96043Y-53200D01*
X96587Y-53743D02*
X96043Y-53200D01*
X97956Y-53743D02*
X96587Y-53743D01*
X98500Y-53200D02*
X97956Y-53743D01*
X92000Y-55350D02*
X90500Y-55350D01*
X90500Y-55350D02*
X89500Y-55350D01*
X97500Y-62650D02*
X96000Y-62650D01*
X84240Y-62700D02*
X83956Y-62700D01*
X84240Y-62700D02*
X84500Y-62700D01*
X84500Y-62700D02*
X85500Y-62700D01*
X96000Y-62650D02*
X93500Y-62650D01*
X82693Y-62700D02*
X82593Y-62800D01*
X83956Y-62700D02*
X82693Y-62700D01*
X82050Y-62800D02*
X82593Y-62800D01*
X85500Y-55350D02*
X89500Y-55350D01*
X93500Y-62650D02*
X92500Y-62650D01*
X86093Y-62650D02*
X86043Y-62700D01*
X92500Y-62650D02*
X86093Y-62650D01*
X85500Y-62700D02*
X86043Y-62700D01*
X99331Y-61362D02*
X102500Y-61362D01*
X98043Y-62650D02*
X99331Y-61362D01*
X96000Y-55350D02*
X95456Y-55350D01*
X94000Y-55350D02*
X94543Y-55350D01*
X95456Y-55350D02*
X94543Y-55350D01*
G54D10*
G36*
X89241Y-58033D02*
X87990Y-59284D01*
X82583Y-59284D01*
X82583Y-59247D01*
X82583Y-59190D01*
X82593Y-59190D01*
X82666Y-59175D01*
X82728Y-59134D01*
X82769Y-59072D01*
X82783Y-59000D01*
X82783Y-58941D01*
X83966Y-57758D01*
X83966Y-57921D01*
X83987Y-57973D01*
X84026Y-58012D01*
X84078Y-58033D01*
X84134Y-58033D01*
X84906Y-58033D01*
X84970Y-58097D01*
X85058Y-58133D01*
X85430Y-58133D01*
X85490Y-58073D01*
X85490Y-57510D01*
X85482Y-57510D01*
X85482Y-57490D01*
X85490Y-57490D01*
X85490Y-57482D01*
X85510Y-57482D01*
X85510Y-57490D01*
X85517Y-57490D01*
X85517Y-57510D01*
X85510Y-57510D01*
X85510Y-58073D01*
X85570Y-58133D01*
X85941Y-58133D01*
X86029Y-58097D01*
X86093Y-58033D01*
X86134Y-58033D01*
X86921Y-58033D01*
X86973Y-58012D01*
X87000Y-57985D01*
X87026Y-58012D01*
X87078Y-58033D01*
X87134Y-58033D01*
X87921Y-58033D01*
X87973Y-58012D01*
X88000Y-57985D01*
X88026Y-58012D01*
X88078Y-58033D01*
X88134Y-58033D01*
X88921Y-58033D01*
X88973Y-58012D01*
X89000Y-57985D01*
X89026Y-58012D01*
X89078Y-58033D01*
X89134Y-58033D01*
X89241Y-58033D01*
X89241Y-58033D01*
G37*
G54D19*
X89241Y-58033D02*
X87990Y-59284D01*
X82583Y-59284D01*
X82583Y-59247D01*
X82583Y-59190D01*
X82593Y-59190D01*
X82666Y-59175D01*
X82728Y-59134D01*
X82769Y-59072D01*
X82783Y-59000D01*
X82783Y-58941D01*
X83966Y-57758D01*
X83966Y-57921D01*
X83987Y-57973D01*
X84026Y-58012D01*
X84078Y-58033D01*
X84134Y-58033D01*
X84906Y-58033D01*
X84970Y-58097D01*
X85058Y-58133D01*
X85430Y-58133D01*
X85490Y-58073D01*
X85490Y-57510D01*
X85482Y-57510D01*
X85482Y-57490D01*
X85490Y-57490D01*
X85490Y-57482D01*
X85510Y-57482D01*
X85510Y-57490D01*
X85517Y-57490D01*
X85517Y-57510D01*
X85510Y-57510D01*
X85510Y-58073D01*
X85570Y-58133D01*
X85941Y-58133D01*
X86029Y-58097D01*
X86093Y-58033D01*
X86134Y-58033D01*
X86921Y-58033D01*
X86973Y-58012D01*
X87000Y-57985D01*
X87026Y-58012D01*
X87078Y-58033D01*
X87134Y-58033D01*
X87921Y-58033D01*
X87973Y-58012D01*
X88000Y-57985D01*
X88026Y-58012D01*
X88078Y-58033D01*
X88134Y-58033D01*
X88921Y-58033D01*
X88973Y-58012D01*
X89000Y-57985D01*
X89026Y-58012D01*
X89078Y-58033D01*
X89134Y-58033D01*
X89241Y-58033D01*
G54D10*
G36*
X91517Y-60510D02*
X91510Y-60510D01*
X91510Y-60517D01*
X91490Y-60517D01*
X91490Y-60510D01*
X91482Y-60510D01*
X91482Y-60490D01*
X91490Y-60490D01*
X91490Y-60482D01*
X91510Y-60482D01*
X91510Y-60490D01*
X91517Y-60490D01*
X91517Y-60510D01*
X91517Y-60510D01*
G37*
G54D19*
X91517Y-60510D02*
X91510Y-60510D01*
X91510Y-60517D01*
X91490Y-60517D01*
X91490Y-60510D01*
X91482Y-60510D01*
X91482Y-60490D01*
X91490Y-60490D01*
X91490Y-60482D01*
X91510Y-60482D01*
X91510Y-60490D01*
X91517Y-60490D01*
X91517Y-60510D01*
G54D10*
G36*
X92861Y-52569D02*
X92765Y-52666D01*
X92078Y-52666D01*
X92026Y-52687D01*
X92000Y-52714D01*
X91973Y-52687D01*
X91921Y-52666D01*
X91865Y-52666D01*
X91078Y-52666D01*
X91026Y-52687D01*
X91000Y-52714D01*
X90973Y-52687D01*
X90921Y-52666D01*
X90865Y-52666D01*
X90078Y-52666D01*
X90026Y-52687D01*
X90000Y-52714D01*
X89973Y-52687D01*
X89921Y-52666D01*
X89865Y-52666D01*
X89078Y-52666D01*
X89026Y-52687D01*
X89000Y-52714D01*
X88973Y-52687D01*
X88921Y-52666D01*
X88865Y-52666D01*
X88078Y-52666D01*
X88026Y-52687D01*
X88000Y-52714D01*
X87973Y-52687D01*
X87921Y-52666D01*
X87865Y-52666D01*
X87078Y-52666D01*
X87026Y-52687D01*
X87000Y-52714D01*
X86973Y-52687D01*
X86921Y-52666D01*
X86865Y-52666D01*
X86078Y-52666D01*
X86026Y-52687D01*
X85987Y-52726D01*
X85966Y-52778D01*
X85966Y-52834D01*
X85966Y-53621D01*
X85987Y-53673D01*
X86026Y-53712D01*
X86078Y-53733D01*
X86134Y-53733D01*
X86921Y-53733D01*
X86973Y-53712D01*
X87000Y-53685D01*
X87026Y-53712D01*
X87078Y-53733D01*
X87134Y-53733D01*
X87921Y-53733D01*
X87973Y-53712D01*
X88000Y-53685D01*
X88026Y-53712D01*
X88078Y-53733D01*
X88134Y-53733D01*
X88921Y-53733D01*
X88973Y-53712D01*
X89000Y-53685D01*
X89026Y-53712D01*
X89078Y-53733D01*
X89134Y-53733D01*
X89921Y-53733D01*
X89973Y-53712D01*
X90000Y-53685D01*
X90026Y-53712D01*
X90078Y-53733D01*
X90134Y-53733D01*
X90921Y-53733D01*
X90973Y-53712D01*
X91000Y-53685D01*
X91026Y-53712D01*
X91078Y-53733D01*
X91134Y-53733D01*
X91765Y-53733D01*
X92598Y-54567D01*
X92660Y-54608D01*
X92698Y-54616D01*
X85633Y-54616D01*
X85633Y-54141D01*
X85633Y-54045D01*
X85633Y-53770D01*
X85633Y-53630D01*
X85633Y-53354D01*
X85633Y-53258D01*
X85597Y-53170D01*
X85529Y-53102D01*
X85441Y-53066D01*
X85070Y-53066D01*
X85010Y-53126D01*
X85010Y-53690D01*
X85573Y-53690D01*
X85633Y-53630D01*
X85633Y-53770D01*
X85573Y-53710D01*
X85010Y-53710D01*
X85010Y-54273D01*
X85070Y-54333D01*
X85441Y-54333D01*
X85529Y-54297D01*
X85597Y-54229D01*
X85633Y-54141D01*
X85633Y-54616D01*
X84990Y-54616D01*
X84990Y-54273D01*
X84990Y-53710D01*
X84982Y-53710D01*
X84982Y-53690D01*
X84990Y-53690D01*
X84990Y-53126D01*
X84930Y-53066D01*
X84558Y-53066D01*
X84470Y-53102D01*
X84406Y-53166D01*
X84365Y-53166D01*
X83578Y-53166D01*
X83526Y-53187D01*
X83487Y-53226D01*
X83466Y-53278D01*
X83466Y-53334D01*
X83466Y-54121D01*
X83487Y-54173D01*
X83526Y-54212D01*
X83578Y-54233D01*
X83634Y-54233D01*
X84406Y-54233D01*
X84470Y-54297D01*
X84558Y-54333D01*
X84930Y-54333D01*
X84990Y-54273D01*
X84990Y-54616D01*
X84013Y-54616D01*
X84013Y-54616D01*
X83940Y-54630D01*
X83879Y-54671D01*
X82866Y-55684D01*
X82665Y-55684D01*
X82683Y-55641D01*
X82683Y-55545D01*
X82683Y-55270D01*
X82683Y-55130D01*
X82683Y-54854D01*
X82683Y-54758D01*
X82647Y-54670D01*
X82583Y-54606D01*
X82583Y-53621D01*
X82583Y-53565D01*
X82583Y-52778D01*
X82562Y-52726D01*
X82523Y-52687D01*
X82471Y-52666D01*
X82415Y-52666D01*
X81628Y-52666D01*
X81576Y-52687D01*
X81537Y-52726D01*
X81516Y-52778D01*
X81516Y-52834D01*
X81516Y-53010D01*
X79583Y-53010D01*
X79583Y-52778D01*
X79562Y-52726D01*
X79523Y-52687D01*
X79471Y-52666D01*
X79415Y-52666D01*
X78628Y-52666D01*
X78576Y-52687D01*
X78537Y-52726D01*
X78516Y-52778D01*
X78516Y-52834D01*
X78516Y-53621D01*
X78537Y-53673D01*
X78576Y-53712D01*
X78628Y-53733D01*
X78684Y-53733D01*
X79471Y-53733D01*
X79523Y-53712D01*
X79562Y-53673D01*
X79583Y-53621D01*
X79583Y-53565D01*
X79583Y-53390D01*
X81516Y-53390D01*
X81516Y-53621D01*
X81537Y-53673D01*
X81576Y-53712D01*
X81628Y-53733D01*
X81684Y-53733D01*
X82471Y-53733D01*
X82523Y-53712D01*
X82562Y-53673D01*
X82583Y-53621D01*
X82583Y-54606D01*
X82579Y-54602D01*
X82491Y-54566D01*
X82120Y-54566D01*
X82060Y-54626D01*
X82060Y-55190D01*
X82623Y-55190D01*
X82683Y-55130D01*
X82683Y-55270D01*
X82623Y-55210D01*
X82060Y-55210D01*
X82060Y-55217D01*
X82040Y-55217D01*
X82040Y-55210D01*
X82040Y-55190D01*
X82040Y-54626D01*
X81980Y-54566D01*
X81608Y-54566D01*
X81520Y-54602D01*
X81452Y-54670D01*
X81416Y-54758D01*
X81416Y-54854D01*
X81416Y-55130D01*
X81476Y-55190D01*
X82040Y-55190D01*
X82040Y-55210D01*
X81476Y-55210D01*
X81416Y-55270D01*
X81416Y-55545D01*
X81416Y-55641D01*
X81434Y-55684D01*
X79665Y-55684D01*
X79683Y-55641D01*
X79683Y-55545D01*
X79683Y-55270D01*
X79683Y-55130D01*
X79683Y-54854D01*
X79683Y-54758D01*
X79647Y-54670D01*
X79579Y-54602D01*
X79491Y-54566D01*
X79120Y-54566D01*
X79060Y-54626D01*
X79060Y-55190D01*
X79623Y-55190D01*
X79683Y-55130D01*
X79683Y-55270D01*
X79623Y-55210D01*
X79060Y-55210D01*
X79060Y-55217D01*
X79040Y-55217D01*
X79040Y-55210D01*
X79032Y-55210D01*
X79032Y-55190D01*
X79040Y-55190D01*
X79040Y-54626D01*
X78980Y-54566D01*
X78608Y-54566D01*
X78520Y-54602D01*
X78469Y-54653D01*
X78469Y-52569D01*
X92861Y-52569D01*
X92861Y-52569D01*
G37*
G54D19*
X92861Y-52569D02*
X92765Y-52666D01*
X92078Y-52666D01*
X92026Y-52687D01*
X92000Y-52714D01*
X91973Y-52687D01*
X91921Y-52666D01*
X91865Y-52666D01*
X91078Y-52666D01*
X91026Y-52687D01*
X91000Y-52714D01*
X90973Y-52687D01*
X90921Y-52666D01*
X90865Y-52666D01*
X90078Y-52666D01*
X90026Y-52687D01*
X90000Y-52714D01*
X89973Y-52687D01*
X89921Y-52666D01*
X89865Y-52666D01*
X89078Y-52666D01*
X89026Y-52687D01*
X89000Y-52714D01*
X88973Y-52687D01*
X88921Y-52666D01*
X88865Y-52666D01*
X88078Y-52666D01*
X88026Y-52687D01*
X88000Y-52714D01*
X87973Y-52687D01*
X87921Y-52666D01*
X87865Y-52666D01*
X87078Y-52666D01*
X87026Y-52687D01*
X87000Y-52714D01*
X86973Y-52687D01*
X86921Y-52666D01*
X86865Y-52666D01*
X86078Y-52666D01*
X86026Y-52687D01*
X85987Y-52726D01*
X85966Y-52778D01*
X85966Y-52834D01*
X85966Y-53621D01*
X85987Y-53673D01*
X86026Y-53712D01*
X86078Y-53733D01*
X86134Y-53733D01*
X86921Y-53733D01*
X86973Y-53712D01*
X87000Y-53685D01*
X87026Y-53712D01*
X87078Y-53733D01*
X87134Y-53733D01*
X87921Y-53733D01*
X87973Y-53712D01*
X88000Y-53685D01*
X88026Y-53712D01*
X88078Y-53733D01*
X88134Y-53733D01*
X88921Y-53733D01*
X88973Y-53712D01*
X89000Y-53685D01*
X89026Y-53712D01*
X89078Y-53733D01*
X89134Y-53733D01*
X89921Y-53733D01*
X89973Y-53712D01*
X90000Y-53685D01*
X90026Y-53712D01*
X90078Y-53733D01*
X90134Y-53733D01*
X90921Y-53733D01*
X90973Y-53712D01*
X91000Y-53685D01*
X91026Y-53712D01*
X91078Y-53733D01*
X91134Y-53733D01*
X91765Y-53733D01*
X92598Y-54567D01*
X92660Y-54608D01*
X92698Y-54616D01*
X85633Y-54616D01*
X85633Y-54141D01*
X85633Y-54045D01*
X85633Y-53770D01*
X85633Y-53630D01*
X85633Y-53354D01*
X85633Y-53258D01*
X85597Y-53170D01*
X85529Y-53102D01*
X85441Y-53066D01*
X85070Y-53066D01*
X85010Y-53126D01*
X85010Y-53690D01*
X85573Y-53690D01*
X85633Y-53630D01*
X85633Y-53770D01*
X85573Y-53710D01*
X85010Y-53710D01*
X85010Y-54273D01*
X85070Y-54333D01*
X85441Y-54333D01*
X85529Y-54297D01*
X85597Y-54229D01*
X85633Y-54141D01*
X85633Y-54616D01*
X84990Y-54616D01*
X84990Y-54273D01*
X84990Y-53710D01*
X84982Y-53710D01*
X84982Y-53690D01*
X84990Y-53690D01*
X84990Y-53126D01*
X84930Y-53066D01*
X84558Y-53066D01*
X84470Y-53102D01*
X84406Y-53166D01*
X84365Y-53166D01*
X83578Y-53166D01*
X83526Y-53187D01*
X83487Y-53226D01*
X83466Y-53278D01*
X83466Y-53334D01*
X83466Y-54121D01*
X83487Y-54173D01*
X83526Y-54212D01*
X83578Y-54233D01*
X83634Y-54233D01*
X84406Y-54233D01*
X84470Y-54297D01*
X84558Y-54333D01*
X84930Y-54333D01*
X84990Y-54273D01*
X84990Y-54616D01*
X84013Y-54616D01*
X84013Y-54616D01*
X83940Y-54630D01*
X83879Y-54671D01*
X82866Y-55684D01*
X82665Y-55684D01*
X82683Y-55641D01*
X82683Y-55545D01*
X82683Y-55270D01*
X82683Y-55130D01*
X82683Y-54854D01*
X82683Y-54758D01*
X82647Y-54670D01*
X82583Y-54606D01*
X82583Y-53621D01*
X82583Y-53565D01*
X82583Y-52778D01*
X82562Y-52726D01*
X82523Y-52687D01*
X82471Y-52666D01*
X82415Y-52666D01*
X81628Y-52666D01*
X81576Y-52687D01*
X81537Y-52726D01*
X81516Y-52778D01*
X81516Y-52834D01*
X81516Y-53010D01*
X79583Y-53010D01*
X79583Y-52778D01*
X79562Y-52726D01*
X79523Y-52687D01*
X79471Y-52666D01*
X79415Y-52666D01*
X78628Y-52666D01*
X78576Y-52687D01*
X78537Y-52726D01*
X78516Y-52778D01*
X78516Y-52834D01*
X78516Y-53621D01*
X78537Y-53673D01*
X78576Y-53712D01*
X78628Y-53733D01*
X78684Y-53733D01*
X79471Y-53733D01*
X79523Y-53712D01*
X79562Y-53673D01*
X79583Y-53621D01*
X79583Y-53565D01*
X79583Y-53390D01*
X81516Y-53390D01*
X81516Y-53621D01*
X81537Y-53673D01*
X81576Y-53712D01*
X81628Y-53733D01*
X81684Y-53733D01*
X82471Y-53733D01*
X82523Y-53712D01*
X82562Y-53673D01*
X82583Y-53621D01*
X82583Y-54606D01*
X82579Y-54602D01*
X82491Y-54566D01*
X82120Y-54566D01*
X82060Y-54626D01*
X82060Y-55190D01*
X82623Y-55190D01*
X82683Y-55130D01*
X82683Y-55270D01*
X82623Y-55210D01*
X82060Y-55210D01*
X82060Y-55217D01*
X82040Y-55217D01*
X82040Y-55210D01*
X82040Y-55190D01*
X82040Y-54626D01*
X81980Y-54566D01*
X81608Y-54566D01*
X81520Y-54602D01*
X81452Y-54670D01*
X81416Y-54758D01*
X81416Y-54854D01*
X81416Y-55130D01*
X81476Y-55190D01*
X82040Y-55190D01*
X82040Y-55210D01*
X81476Y-55210D01*
X81416Y-55270D01*
X81416Y-55545D01*
X81416Y-55641D01*
X81434Y-55684D01*
X79665Y-55684D01*
X79683Y-55641D01*
X79683Y-55545D01*
X79683Y-55270D01*
X79683Y-55130D01*
X79683Y-54854D01*
X79683Y-54758D01*
X79647Y-54670D01*
X79579Y-54602D01*
X79491Y-54566D01*
X79120Y-54566D01*
X79060Y-54626D01*
X79060Y-55190D01*
X79623Y-55190D01*
X79683Y-55130D01*
X79683Y-55270D01*
X79623Y-55210D01*
X79060Y-55210D01*
X79060Y-55217D01*
X79040Y-55217D01*
X79040Y-55210D01*
X79032Y-55210D01*
X79032Y-55190D01*
X79040Y-55190D01*
X79040Y-54626D01*
X78980Y-54566D01*
X78608Y-54566D01*
X78520Y-54602D01*
X78469Y-54653D01*
X78469Y-52569D01*
X92861Y-52569D01*
G54D10*
G36*
X93560Y-56876D02*
X93510Y-56926D01*
X93510Y-57490D01*
X93517Y-57490D01*
X93517Y-57510D01*
X93510Y-57510D01*
X93510Y-57517D01*
X93490Y-57517D01*
X93490Y-57510D01*
X93482Y-57510D01*
X93482Y-57490D01*
X93490Y-57490D01*
X93490Y-56926D01*
X93430Y-56866D01*
X93208Y-56866D01*
X93466Y-56608D01*
X93466Y-56771D01*
X93487Y-56823D01*
X93526Y-56862D01*
X93560Y-56876D01*
X93560Y-56876D01*
G37*
G54D19*
X93560Y-56876D02*
X93510Y-56926D01*
X93510Y-57490D01*
X93517Y-57490D01*
X93517Y-57510D01*
X93510Y-57510D01*
X93510Y-57517D01*
X93490Y-57517D01*
X93490Y-57510D01*
X93482Y-57510D01*
X93482Y-57490D01*
X93490Y-57490D01*
X93490Y-56926D01*
X93430Y-56866D01*
X93208Y-56866D01*
X93466Y-56608D01*
X93466Y-56771D01*
X93487Y-56823D01*
X93526Y-56862D01*
X93560Y-56876D01*
G54D10*
G36*
X94953Y-65380D02*
X85633Y-65380D01*
X85633Y-64741D01*
X85633Y-64645D01*
X85633Y-64370D01*
X85573Y-64310D01*
X85010Y-64310D01*
X85010Y-64873D01*
X85070Y-64933D01*
X85441Y-64933D01*
X85529Y-64897D01*
X85597Y-64829D01*
X85633Y-64741D01*
X85633Y-65380D01*
X82583Y-65380D01*
X82583Y-65221D01*
X82583Y-65165D01*
X82583Y-64378D01*
X82562Y-64326D01*
X82523Y-64287D01*
X82471Y-64266D01*
X82415Y-64266D01*
X81628Y-64266D01*
X81576Y-64287D01*
X81537Y-64326D01*
X81516Y-64378D01*
X81516Y-64434D01*
X81516Y-64610D01*
X79583Y-64610D01*
X79583Y-64378D01*
X79562Y-64326D01*
X79523Y-64287D01*
X79471Y-64266D01*
X79415Y-64266D01*
X78628Y-64266D01*
X78576Y-64287D01*
X78537Y-64326D01*
X78516Y-64378D01*
X78516Y-64434D01*
X78516Y-65221D01*
X78537Y-65273D01*
X78576Y-65312D01*
X78628Y-65333D01*
X78684Y-65333D01*
X79471Y-65333D01*
X79523Y-65312D01*
X79562Y-65273D01*
X79583Y-65221D01*
X79583Y-65165D01*
X79583Y-64990D01*
X81516Y-64990D01*
X81516Y-65221D01*
X81537Y-65273D01*
X81576Y-65312D01*
X81628Y-65333D01*
X81684Y-65333D01*
X82471Y-65333D01*
X82523Y-65312D01*
X82562Y-65273D01*
X82583Y-65221D01*
X82583Y-65380D01*
X78469Y-65380D01*
X78469Y-63505D01*
X78642Y-63678D01*
X78703Y-63719D01*
X78776Y-63733D01*
X84439Y-63733D01*
X84406Y-63766D01*
X84365Y-63766D01*
X83578Y-63766D01*
X83526Y-63787D01*
X83487Y-63826D01*
X83466Y-63878D01*
X83466Y-63934D01*
X83466Y-64721D01*
X83487Y-64773D01*
X83526Y-64812D01*
X83578Y-64833D01*
X83634Y-64833D01*
X84406Y-64833D01*
X84470Y-64897D01*
X84558Y-64933D01*
X84930Y-64933D01*
X84990Y-64873D01*
X84990Y-64310D01*
X84982Y-64310D01*
X84982Y-64290D01*
X84990Y-64290D01*
X84990Y-64282D01*
X85010Y-64282D01*
X85010Y-64290D01*
X85573Y-64290D01*
X85633Y-64230D01*
X85633Y-63954D01*
X85633Y-63858D01*
X85597Y-63770D01*
X85560Y-63733D01*
X87165Y-63733D01*
X87697Y-64266D01*
X87078Y-64266D01*
X87026Y-64287D01*
X87000Y-64314D01*
X86973Y-64287D01*
X86921Y-64266D01*
X86865Y-64266D01*
X86078Y-64266D01*
X86026Y-64287D01*
X85987Y-64326D01*
X85966Y-64378D01*
X85966Y-64434D01*
X85966Y-65221D01*
X85987Y-65273D01*
X86026Y-65312D01*
X86078Y-65333D01*
X86134Y-65333D01*
X86921Y-65333D01*
X86973Y-65312D01*
X87000Y-65285D01*
X87026Y-65312D01*
X87078Y-65333D01*
X87134Y-65333D01*
X87921Y-65333D01*
X87973Y-65312D01*
X88000Y-65285D01*
X88026Y-65312D01*
X88078Y-65333D01*
X88134Y-65333D01*
X88921Y-65333D01*
X88973Y-65312D01*
X89000Y-65285D01*
X89026Y-65312D01*
X89078Y-65333D01*
X89134Y-65333D01*
X89921Y-65333D01*
X89973Y-65312D01*
X90000Y-65285D01*
X90026Y-65312D01*
X90078Y-65333D01*
X90134Y-65333D01*
X90921Y-65333D01*
X90973Y-65312D01*
X91000Y-65285D01*
X91026Y-65312D01*
X91078Y-65333D01*
X91134Y-65333D01*
X91921Y-65333D01*
X91973Y-65312D01*
X92000Y-65285D01*
X92026Y-65312D01*
X92078Y-65333D01*
X92134Y-65333D01*
X92921Y-65333D01*
X92973Y-65312D01*
X93000Y-65285D01*
X93026Y-65312D01*
X93078Y-65333D01*
X93134Y-65333D01*
X93921Y-65333D01*
X93973Y-65312D01*
X94000Y-65285D01*
X94026Y-65312D01*
X94078Y-65333D01*
X94134Y-65333D01*
X94906Y-65333D01*
X94953Y-65380D01*
X94953Y-65380D01*
G37*
G54D19*
X94953Y-65380D02*
X85633Y-65380D01*
X85633Y-64741D01*
X85633Y-64645D01*
X85633Y-64370D01*
X85573Y-64310D01*
X85010Y-64310D01*
X85010Y-64873D01*
X85070Y-64933D01*
X85441Y-64933D01*
X85529Y-64897D01*
X85597Y-64829D01*
X85633Y-64741D01*
X85633Y-65380D01*
X82583Y-65380D01*
X82583Y-65221D01*
X82583Y-65165D01*
X82583Y-64378D01*
X82562Y-64326D01*
X82523Y-64287D01*
X82471Y-64266D01*
X82415Y-64266D01*
X81628Y-64266D01*
X81576Y-64287D01*
X81537Y-64326D01*
X81516Y-64378D01*
X81516Y-64434D01*
X81516Y-64610D01*
X79583Y-64610D01*
X79583Y-64378D01*
X79562Y-64326D01*
X79523Y-64287D01*
X79471Y-64266D01*
X79415Y-64266D01*
X78628Y-64266D01*
X78576Y-64287D01*
X78537Y-64326D01*
X78516Y-64378D01*
X78516Y-64434D01*
X78516Y-65221D01*
X78537Y-65273D01*
X78576Y-65312D01*
X78628Y-65333D01*
X78684Y-65333D01*
X79471Y-65333D01*
X79523Y-65312D01*
X79562Y-65273D01*
X79583Y-65221D01*
X79583Y-65165D01*
X79583Y-64990D01*
X81516Y-64990D01*
X81516Y-65221D01*
X81537Y-65273D01*
X81576Y-65312D01*
X81628Y-65333D01*
X81684Y-65333D01*
X82471Y-65333D01*
X82523Y-65312D01*
X82562Y-65273D01*
X82583Y-65221D01*
X82583Y-65380D01*
X78469Y-65380D01*
X78469Y-63505D01*
X78642Y-63678D01*
X78703Y-63719D01*
X78776Y-63733D01*
X84439Y-63733D01*
X84406Y-63766D01*
X84365Y-63766D01*
X83578Y-63766D01*
X83526Y-63787D01*
X83487Y-63826D01*
X83466Y-63878D01*
X83466Y-63934D01*
X83466Y-64721D01*
X83487Y-64773D01*
X83526Y-64812D01*
X83578Y-64833D01*
X83634Y-64833D01*
X84406Y-64833D01*
X84470Y-64897D01*
X84558Y-64933D01*
X84930Y-64933D01*
X84990Y-64873D01*
X84990Y-64310D01*
X84982Y-64310D01*
X84982Y-64290D01*
X84990Y-64290D01*
X84990Y-64282D01*
X85010Y-64282D01*
X85010Y-64290D01*
X85573Y-64290D01*
X85633Y-64230D01*
X85633Y-63954D01*
X85633Y-63858D01*
X85597Y-63770D01*
X85560Y-63733D01*
X87165Y-63733D01*
X87697Y-64266D01*
X87078Y-64266D01*
X87026Y-64287D01*
X87000Y-64314D01*
X86973Y-64287D01*
X86921Y-64266D01*
X86865Y-64266D01*
X86078Y-64266D01*
X86026Y-64287D01*
X85987Y-64326D01*
X85966Y-64378D01*
X85966Y-64434D01*
X85966Y-65221D01*
X85987Y-65273D01*
X86026Y-65312D01*
X86078Y-65333D01*
X86134Y-65333D01*
X86921Y-65333D01*
X86973Y-65312D01*
X87000Y-65285D01*
X87026Y-65312D01*
X87078Y-65333D01*
X87134Y-65333D01*
X87921Y-65333D01*
X87973Y-65312D01*
X88000Y-65285D01*
X88026Y-65312D01*
X88078Y-65333D01*
X88134Y-65333D01*
X88921Y-65333D01*
X88973Y-65312D01*
X89000Y-65285D01*
X89026Y-65312D01*
X89078Y-65333D01*
X89134Y-65333D01*
X89921Y-65333D01*
X89973Y-65312D01*
X90000Y-65285D01*
X90026Y-65312D01*
X90078Y-65333D01*
X90134Y-65333D01*
X90921Y-65333D01*
X90973Y-65312D01*
X91000Y-65285D01*
X91026Y-65312D01*
X91078Y-65333D01*
X91134Y-65333D01*
X91921Y-65333D01*
X91973Y-65312D01*
X92000Y-65285D01*
X92026Y-65312D01*
X92078Y-65333D01*
X92134Y-65333D01*
X92921Y-65333D01*
X92973Y-65312D01*
X93000Y-65285D01*
X93026Y-65312D01*
X93078Y-65333D01*
X93134Y-65333D01*
X93921Y-65333D01*
X93973Y-65312D01*
X94000Y-65285D01*
X94026Y-65312D01*
X94078Y-65333D01*
X94134Y-65333D01*
X94906Y-65333D01*
X94953Y-65380D01*
G54D10*
G36*
X97517Y-55360D02*
X97510Y-55360D01*
X97510Y-55367D01*
X97490Y-55367D01*
X97490Y-55360D01*
X96926Y-55360D01*
X96866Y-55420D01*
X96866Y-55791D01*
X96902Y-55879D01*
X96966Y-55943D01*
X96966Y-55984D01*
X96966Y-56160D01*
X96533Y-56160D01*
X96533Y-55943D01*
X96597Y-55879D01*
X96633Y-55791D01*
X96633Y-55420D01*
X96573Y-55360D01*
X96010Y-55360D01*
X96010Y-55367D01*
X95990Y-55367D01*
X95990Y-55360D01*
X95426Y-55360D01*
X95366Y-55420D01*
X95366Y-55791D01*
X95402Y-55879D01*
X95466Y-55943D01*
X95466Y-55984D01*
X95466Y-56703D01*
X95166Y-56703D01*
X94678Y-56215D01*
X94616Y-56174D01*
X94543Y-56160D01*
X94533Y-56160D01*
X94533Y-55943D01*
X94597Y-55879D01*
X94633Y-55791D01*
X94633Y-55420D01*
X94573Y-55360D01*
X94010Y-55360D01*
X94010Y-55367D01*
X93990Y-55367D01*
X93990Y-55360D01*
X93426Y-55360D01*
X93366Y-55420D01*
X93366Y-55791D01*
X93402Y-55879D01*
X93466Y-55943D01*
X93466Y-55984D01*
X93466Y-56160D01*
X93456Y-56160D01*
X93383Y-56174D01*
X93321Y-56215D01*
X92833Y-56703D01*
X92533Y-56703D01*
X92533Y-55943D01*
X92597Y-55879D01*
X92633Y-55791D01*
X92633Y-55420D01*
X92573Y-55360D01*
X92010Y-55360D01*
X92010Y-55367D01*
X91990Y-55367D01*
X91990Y-55360D01*
X91426Y-55360D01*
X91366Y-55420D01*
X91366Y-55791D01*
X91402Y-55879D01*
X91466Y-55943D01*
X91466Y-55984D01*
X91466Y-56160D01*
X91033Y-56160D01*
X91033Y-55943D01*
X91097Y-55879D01*
X91133Y-55791D01*
X91133Y-55420D01*
X91073Y-55360D01*
X90510Y-55360D01*
X90510Y-55367D01*
X90490Y-55367D01*
X90490Y-55360D01*
X90073Y-55360D01*
X89926Y-55360D01*
X89510Y-55360D01*
X89510Y-55367D01*
X89490Y-55367D01*
X89490Y-55360D01*
X88926Y-55360D01*
X88866Y-55420D01*
X88866Y-55791D01*
X88902Y-55879D01*
X88966Y-55943D01*
X88966Y-55984D01*
X88966Y-56771D01*
X88987Y-56823D01*
X89026Y-56862D01*
X89078Y-56883D01*
X89134Y-56883D01*
X89310Y-56883D01*
X89310Y-56893D01*
X89310Y-56966D01*
X89078Y-56966D01*
X89026Y-56987D01*
X89000Y-57014D01*
X88973Y-56987D01*
X88921Y-56966D01*
X88865Y-56966D01*
X88078Y-56966D01*
X88026Y-56987D01*
X88000Y-57014D01*
X87973Y-56987D01*
X87921Y-56966D01*
X87865Y-56966D01*
X87078Y-56966D01*
X87026Y-56987D01*
X87000Y-57014D01*
X86973Y-56987D01*
X86921Y-56966D01*
X86865Y-56966D01*
X86093Y-56966D01*
X86029Y-56902D01*
X85952Y-56870D01*
X85973Y-56862D01*
X86012Y-56823D01*
X86033Y-56771D01*
X86033Y-56715D01*
X86033Y-55943D01*
X86097Y-55879D01*
X86133Y-55791D01*
X86133Y-55420D01*
X86073Y-55360D01*
X85510Y-55360D01*
X85510Y-55367D01*
X85490Y-55367D01*
X85490Y-55360D01*
X85073Y-55360D01*
X84926Y-55360D01*
X84510Y-55360D01*
X84510Y-55367D01*
X84490Y-55367D01*
X84490Y-55360D01*
X83926Y-55360D01*
X83866Y-55420D01*
X83866Y-55791D01*
X83902Y-55879D01*
X83966Y-55943D01*
X83966Y-55984D01*
X83966Y-56766D01*
X82704Y-56766D01*
X82704Y-56766D01*
X82632Y-56780D01*
X82570Y-56821D01*
X82570Y-56821D01*
X82554Y-56837D01*
X82523Y-56806D01*
X82471Y-56785D01*
X82415Y-56785D01*
X81628Y-56785D01*
X81576Y-56806D01*
X81537Y-56845D01*
X81516Y-56897D01*
X81516Y-56952D01*
X81516Y-57435D01*
X79583Y-57435D01*
X79583Y-56897D01*
X79562Y-56845D01*
X79523Y-56806D01*
X79471Y-56785D01*
X79415Y-56785D01*
X78628Y-56785D01*
X78576Y-56806D01*
X78537Y-56845D01*
X78516Y-56897D01*
X78516Y-56952D01*
X78516Y-57502D01*
X78537Y-57554D01*
X78576Y-57593D01*
X78628Y-57615D01*
X78684Y-57615D01*
X78860Y-57615D01*
X78860Y-57625D01*
X78871Y-57685D01*
X78628Y-57685D01*
X78576Y-57706D01*
X78537Y-57745D01*
X78516Y-57797D01*
X78516Y-57852D01*
X78516Y-58402D01*
X78537Y-58454D01*
X78576Y-58493D01*
X78628Y-58515D01*
X78684Y-58515D01*
X79471Y-58515D01*
X79523Y-58493D01*
X79562Y-58454D01*
X79583Y-58402D01*
X79583Y-58347D01*
X79583Y-57815D01*
X81516Y-57815D01*
X81516Y-57852D01*
X81516Y-58402D01*
X81537Y-58454D01*
X81576Y-58493D01*
X81628Y-58515D01*
X81684Y-58515D01*
X82471Y-58515D01*
X82523Y-58493D01*
X82562Y-58454D01*
X82583Y-58402D01*
X82583Y-58347D01*
X82583Y-58041D01*
X82639Y-58097D01*
X82727Y-58133D01*
X82822Y-58133D01*
X82980Y-58133D01*
X83040Y-58073D01*
X83040Y-57510D01*
X83032Y-57510D01*
X83032Y-57490D01*
X83040Y-57490D01*
X83040Y-57482D01*
X83060Y-57482D01*
X83060Y-57490D01*
X83505Y-57490D01*
X83565Y-57430D01*
X83565Y-57146D01*
X83966Y-57146D01*
X83966Y-57310D01*
X83956Y-57310D01*
X83956Y-57309D01*
X83883Y-57324D01*
X83821Y-57365D01*
X83821Y-57365D01*
X83565Y-57622D01*
X83565Y-57570D01*
X83505Y-57510D01*
X83060Y-57510D01*
X83060Y-58073D01*
X83086Y-58100D01*
X82552Y-58635D01*
X82523Y-58606D01*
X82471Y-58585D01*
X82415Y-58585D01*
X81628Y-58585D01*
X81576Y-58606D01*
X81537Y-58645D01*
X81516Y-58697D01*
X81516Y-58752D01*
X81516Y-59284D01*
X79583Y-59284D01*
X79583Y-59247D01*
X79583Y-58697D01*
X79562Y-58645D01*
X79523Y-58606D01*
X79471Y-58585D01*
X79415Y-58585D01*
X78628Y-58585D01*
X78576Y-58606D01*
X78537Y-58645D01*
X78516Y-58697D01*
X78516Y-58752D01*
X78516Y-59302D01*
X78537Y-59354D01*
X78576Y-59393D01*
X78628Y-59415D01*
X78684Y-59415D01*
X78871Y-59415D01*
X78860Y-59474D01*
X78860Y-59485D01*
X78628Y-59485D01*
X78576Y-59506D01*
X78537Y-59545D01*
X78516Y-59597D01*
X78516Y-59652D01*
X78516Y-60202D01*
X78537Y-60254D01*
X78576Y-60293D01*
X78628Y-60315D01*
X78684Y-60315D01*
X79053Y-60315D01*
X78983Y-60385D01*
X78628Y-60385D01*
X78576Y-60406D01*
X78537Y-60445D01*
X78516Y-60497D01*
X78516Y-60552D01*
X78516Y-60852D01*
X78469Y-60899D01*
X78469Y-55746D01*
X78520Y-55797D01*
X78608Y-55833D01*
X78868Y-55833D01*
X78860Y-55874D01*
X78860Y-55885D01*
X78628Y-55885D01*
X78576Y-55906D01*
X78537Y-55945D01*
X78516Y-55997D01*
X78516Y-56052D01*
X78516Y-56602D01*
X78537Y-56654D01*
X78576Y-56693D01*
X78628Y-56715D01*
X78684Y-56715D01*
X79471Y-56715D01*
X79523Y-56693D01*
X79562Y-56654D01*
X79583Y-56602D01*
X79583Y-56547D01*
X79583Y-56064D01*
X81516Y-56064D01*
X81516Y-56602D01*
X81537Y-56654D01*
X81576Y-56693D01*
X81628Y-56715D01*
X81684Y-56715D01*
X82471Y-56715D01*
X82523Y-56693D01*
X82562Y-56654D01*
X82583Y-56602D01*
X82583Y-56547D01*
X82583Y-56064D01*
X82944Y-56064D01*
X83017Y-56050D01*
X83079Y-56009D01*
X83866Y-55222D01*
X83866Y-55280D01*
X83926Y-55340D01*
X84490Y-55340D01*
X84490Y-55332D01*
X84510Y-55332D01*
X84510Y-55340D01*
X84926Y-55340D01*
X85073Y-55340D01*
X85490Y-55340D01*
X85490Y-55332D01*
X85510Y-55332D01*
X85510Y-55340D01*
X86073Y-55340D01*
X86133Y-55280D01*
X86133Y-54996D01*
X88866Y-54996D01*
X88866Y-55280D01*
X88926Y-55340D01*
X89490Y-55340D01*
X89490Y-55332D01*
X89510Y-55332D01*
X89510Y-55340D01*
X89926Y-55340D01*
X90073Y-55340D01*
X90490Y-55340D01*
X90490Y-55332D01*
X90510Y-55332D01*
X90510Y-55340D01*
X91073Y-55340D01*
X91133Y-55280D01*
X91133Y-54996D01*
X91366Y-54996D01*
X91366Y-55280D01*
X91426Y-55340D01*
X91990Y-55340D01*
X91990Y-55332D01*
X92010Y-55332D01*
X92010Y-55340D01*
X92573Y-55340D01*
X92633Y-55280D01*
X92633Y-54996D01*
X93366Y-54996D01*
X93366Y-55280D01*
X93426Y-55340D01*
X93990Y-55340D01*
X93990Y-55332D01*
X94010Y-55332D01*
X94010Y-55340D01*
X94573Y-55340D01*
X94633Y-55280D01*
X94633Y-54996D01*
X95366Y-54996D01*
X95366Y-55280D01*
X95426Y-55340D01*
X95990Y-55340D01*
X95990Y-55332D01*
X96010Y-55332D01*
X96010Y-55340D01*
X96573Y-55340D01*
X96633Y-55280D01*
X96633Y-54996D01*
X96866Y-54996D01*
X96866Y-55280D01*
X96926Y-55340D01*
X97490Y-55340D01*
X97490Y-55332D01*
X97510Y-55332D01*
X97510Y-55340D01*
X97517Y-55340D01*
X97517Y-55360D01*
X97517Y-55360D01*
G37*
G54D19*
X97517Y-55360D02*
X97510Y-55360D01*
X97510Y-55367D01*
X97490Y-55367D01*
X97490Y-55360D01*
X96926Y-55360D01*
X96866Y-55420D01*
X96866Y-55791D01*
X96902Y-55879D01*
X96966Y-55943D01*
X96966Y-55984D01*
X96966Y-56160D01*
X96533Y-56160D01*
X96533Y-55943D01*
X96597Y-55879D01*
X96633Y-55791D01*
X96633Y-55420D01*
X96573Y-55360D01*
X96010Y-55360D01*
X96010Y-55367D01*
X95990Y-55367D01*
X95990Y-55360D01*
X95426Y-55360D01*
X95366Y-55420D01*
X95366Y-55791D01*
X95402Y-55879D01*
X95466Y-55943D01*
X95466Y-55984D01*
X95466Y-56703D01*
X95166Y-56703D01*
X94678Y-56215D01*
X94616Y-56174D01*
X94543Y-56160D01*
X94533Y-56160D01*
X94533Y-55943D01*
X94597Y-55879D01*
X94633Y-55791D01*
X94633Y-55420D01*
X94573Y-55360D01*
X94010Y-55360D01*
X94010Y-55367D01*
X93990Y-55367D01*
X93990Y-55360D01*
X93426Y-55360D01*
X93366Y-55420D01*
X93366Y-55791D01*
X93402Y-55879D01*
X93466Y-55943D01*
X93466Y-55984D01*
X93466Y-56160D01*
X93456Y-56160D01*
X93383Y-56174D01*
X93321Y-56215D01*
X92833Y-56703D01*
X92533Y-56703D01*
X92533Y-55943D01*
X92597Y-55879D01*
X92633Y-55791D01*
X92633Y-55420D01*
X92573Y-55360D01*
X92010Y-55360D01*
X92010Y-55367D01*
X91990Y-55367D01*
X91990Y-55360D01*
X91426Y-55360D01*
X91366Y-55420D01*
X91366Y-55791D01*
X91402Y-55879D01*
X91466Y-55943D01*
X91466Y-55984D01*
X91466Y-56160D01*
X91033Y-56160D01*
X91033Y-55943D01*
X91097Y-55879D01*
X91133Y-55791D01*
X91133Y-55420D01*
X91073Y-55360D01*
X90510Y-55360D01*
X90510Y-55367D01*
X90490Y-55367D01*
X90490Y-55360D01*
X90073Y-55360D01*
X89926Y-55360D01*
X89510Y-55360D01*
X89510Y-55367D01*
X89490Y-55367D01*
X89490Y-55360D01*
X88926Y-55360D01*
X88866Y-55420D01*
X88866Y-55791D01*
X88902Y-55879D01*
X88966Y-55943D01*
X88966Y-55984D01*
X88966Y-56771D01*
X88987Y-56823D01*
X89026Y-56862D01*
X89078Y-56883D01*
X89134Y-56883D01*
X89310Y-56883D01*
X89310Y-56893D01*
X89310Y-56966D01*
X89078Y-56966D01*
X89026Y-56987D01*
X89000Y-57014D01*
X88973Y-56987D01*
X88921Y-56966D01*
X88865Y-56966D01*
X88078Y-56966D01*
X88026Y-56987D01*
X88000Y-57014D01*
X87973Y-56987D01*
X87921Y-56966D01*
X87865Y-56966D01*
X87078Y-56966D01*
X87026Y-56987D01*
X87000Y-57014D01*
X86973Y-56987D01*
X86921Y-56966D01*
X86865Y-56966D01*
X86093Y-56966D01*
X86029Y-56902D01*
X85952Y-56870D01*
X85973Y-56862D01*
X86012Y-56823D01*
X86033Y-56771D01*
X86033Y-56715D01*
X86033Y-55943D01*
X86097Y-55879D01*
X86133Y-55791D01*
X86133Y-55420D01*
X86073Y-55360D01*
X85510Y-55360D01*
X85510Y-55367D01*
X85490Y-55367D01*
X85490Y-55360D01*
X85073Y-55360D01*
X84926Y-55360D01*
X84510Y-55360D01*
X84510Y-55367D01*
X84490Y-55367D01*
X84490Y-55360D01*
X83926Y-55360D01*
X83866Y-55420D01*
X83866Y-55791D01*
X83902Y-55879D01*
X83966Y-55943D01*
X83966Y-55984D01*
X83966Y-56766D01*
X82704Y-56766D01*
X82704Y-56766D01*
X82632Y-56780D01*
X82570Y-56821D01*
X82570Y-56821D01*
X82554Y-56837D01*
X82523Y-56806D01*
X82471Y-56785D01*
X82415Y-56785D01*
X81628Y-56785D01*
X81576Y-56806D01*
X81537Y-56845D01*
X81516Y-56897D01*
X81516Y-56952D01*
X81516Y-57435D01*
X79583Y-57435D01*
X79583Y-56897D01*
X79562Y-56845D01*
X79523Y-56806D01*
X79471Y-56785D01*
X79415Y-56785D01*
X78628Y-56785D01*
X78576Y-56806D01*
X78537Y-56845D01*
X78516Y-56897D01*
X78516Y-56952D01*
X78516Y-57502D01*
X78537Y-57554D01*
X78576Y-57593D01*
X78628Y-57615D01*
X78684Y-57615D01*
X78860Y-57615D01*
X78860Y-57625D01*
X78871Y-57685D01*
X78628Y-57685D01*
X78576Y-57706D01*
X78537Y-57745D01*
X78516Y-57797D01*
X78516Y-57852D01*
X78516Y-58402D01*
X78537Y-58454D01*
X78576Y-58493D01*
X78628Y-58515D01*
X78684Y-58515D01*
X79471Y-58515D01*
X79523Y-58493D01*
X79562Y-58454D01*
X79583Y-58402D01*
X79583Y-58347D01*
X79583Y-57815D01*
X81516Y-57815D01*
X81516Y-57852D01*
X81516Y-58402D01*
X81537Y-58454D01*
X81576Y-58493D01*
X81628Y-58515D01*
X81684Y-58515D01*
X82471Y-58515D01*
X82523Y-58493D01*
X82562Y-58454D01*
X82583Y-58402D01*
X82583Y-58347D01*
X82583Y-58041D01*
X82639Y-58097D01*
X82727Y-58133D01*
X82822Y-58133D01*
X82980Y-58133D01*
X83040Y-58073D01*
X83040Y-57510D01*
X83032Y-57510D01*
X83032Y-57490D01*
X83040Y-57490D01*
X83040Y-57482D01*
X83060Y-57482D01*
X83060Y-57490D01*
X83505Y-57490D01*
X83565Y-57430D01*
X83565Y-57146D01*
X83966Y-57146D01*
X83966Y-57310D01*
X83956Y-57310D01*
X83956Y-57309D01*
X83883Y-57324D01*
X83821Y-57365D01*
X83821Y-57365D01*
X83565Y-57622D01*
X83565Y-57570D01*
X83505Y-57510D01*
X83060Y-57510D01*
X83060Y-58073D01*
X83086Y-58100D01*
X82552Y-58635D01*
X82523Y-58606D01*
X82471Y-58585D01*
X82415Y-58585D01*
X81628Y-58585D01*
X81576Y-58606D01*
X81537Y-58645D01*
X81516Y-58697D01*
X81516Y-58752D01*
X81516Y-59284D01*
X79583Y-59284D01*
X79583Y-59247D01*
X79583Y-58697D01*
X79562Y-58645D01*
X79523Y-58606D01*
X79471Y-58585D01*
X79415Y-58585D01*
X78628Y-58585D01*
X78576Y-58606D01*
X78537Y-58645D01*
X78516Y-58697D01*
X78516Y-58752D01*
X78516Y-59302D01*
X78537Y-59354D01*
X78576Y-59393D01*
X78628Y-59415D01*
X78684Y-59415D01*
X78871Y-59415D01*
X78860Y-59474D01*
X78860Y-59485D01*
X78628Y-59485D01*
X78576Y-59506D01*
X78537Y-59545D01*
X78516Y-59597D01*
X78516Y-59652D01*
X78516Y-60202D01*
X78537Y-60254D01*
X78576Y-60293D01*
X78628Y-60315D01*
X78684Y-60315D01*
X79053Y-60315D01*
X78983Y-60385D01*
X78628Y-60385D01*
X78576Y-60406D01*
X78537Y-60445D01*
X78516Y-60497D01*
X78516Y-60552D01*
X78516Y-60852D01*
X78469Y-60899D01*
X78469Y-55746D01*
X78520Y-55797D01*
X78608Y-55833D01*
X78868Y-55833D01*
X78860Y-55874D01*
X78860Y-55885D01*
X78628Y-55885D01*
X78576Y-55906D01*
X78537Y-55945D01*
X78516Y-55997D01*
X78516Y-56052D01*
X78516Y-56602D01*
X78537Y-56654D01*
X78576Y-56693D01*
X78628Y-56715D01*
X78684Y-56715D01*
X79471Y-56715D01*
X79523Y-56693D01*
X79562Y-56654D01*
X79583Y-56602D01*
X79583Y-56547D01*
X79583Y-56064D01*
X81516Y-56064D01*
X81516Y-56602D01*
X81537Y-56654D01*
X81576Y-56693D01*
X81628Y-56715D01*
X81684Y-56715D01*
X82471Y-56715D01*
X82523Y-56693D01*
X82562Y-56654D01*
X82583Y-56602D01*
X82583Y-56547D01*
X82583Y-56064D01*
X82944Y-56064D01*
X83017Y-56050D01*
X83079Y-56009D01*
X83866Y-55222D01*
X83866Y-55280D01*
X83926Y-55340D01*
X84490Y-55340D01*
X84490Y-55332D01*
X84510Y-55332D01*
X84510Y-55340D01*
X84926Y-55340D01*
X85073Y-55340D01*
X85490Y-55340D01*
X85490Y-55332D01*
X85510Y-55332D01*
X85510Y-55340D01*
X86073Y-55340D01*
X86133Y-55280D01*
X86133Y-54996D01*
X88866Y-54996D01*
X88866Y-55280D01*
X88926Y-55340D01*
X89490Y-55340D01*
X89490Y-55332D01*
X89510Y-55332D01*
X89510Y-55340D01*
X89926Y-55340D01*
X90073Y-55340D01*
X90490Y-55340D01*
X90490Y-55332D01*
X90510Y-55332D01*
X90510Y-55340D01*
X91073Y-55340D01*
X91133Y-55280D01*
X91133Y-54996D01*
X91366Y-54996D01*
X91366Y-55280D01*
X91426Y-55340D01*
X91990Y-55340D01*
X91990Y-55332D01*
X92010Y-55332D01*
X92010Y-55340D01*
X92573Y-55340D01*
X92633Y-55280D01*
X92633Y-54996D01*
X93366Y-54996D01*
X93366Y-55280D01*
X93426Y-55340D01*
X93990Y-55340D01*
X93990Y-55332D01*
X94010Y-55332D01*
X94010Y-55340D01*
X94573Y-55340D01*
X94633Y-55280D01*
X94633Y-54996D01*
X95366Y-54996D01*
X95366Y-55280D01*
X95426Y-55340D01*
X95990Y-55340D01*
X95990Y-55332D01*
X96010Y-55332D01*
X96010Y-55340D01*
X96573Y-55340D01*
X96633Y-55280D01*
X96633Y-54996D01*
X96866Y-54996D01*
X96866Y-55280D01*
X96926Y-55340D01*
X97490Y-55340D01*
X97490Y-55332D01*
X97510Y-55332D01*
X97510Y-55340D01*
X97517Y-55340D01*
X97517Y-55360D01*
G54D10*
G36*
X99391Y-53733D02*
X99096Y-54028D01*
X99042Y-53973D01*
X98980Y-53932D01*
X98907Y-53917D01*
X96133Y-53917D01*
X96133Y-53641D01*
X96133Y-53545D01*
X96133Y-53270D01*
X96073Y-53210D01*
X95510Y-53210D01*
X95510Y-53773D01*
X95570Y-53833D01*
X95941Y-53833D01*
X96029Y-53797D01*
X96097Y-53729D01*
X96133Y-53641D01*
X96133Y-53917D01*
X95486Y-53917D01*
X95402Y-53833D01*
X95430Y-53833D01*
X95490Y-53773D01*
X95490Y-53210D01*
X95482Y-53210D01*
X95482Y-53190D01*
X95490Y-53190D01*
X95490Y-53182D01*
X95510Y-53182D01*
X95510Y-53190D01*
X96073Y-53190D01*
X96133Y-53130D01*
X96133Y-53009D01*
X96190Y-53066D01*
X96190Y-53175D01*
X96238Y-53291D01*
X96327Y-53379D01*
X96442Y-53427D01*
X96568Y-53427D01*
X96684Y-53380D01*
X96772Y-53291D01*
X96820Y-53175D01*
X96820Y-53050D01*
X96773Y-52934D01*
X96684Y-52845D01*
X96568Y-52797D01*
X96459Y-52797D01*
X96231Y-52569D01*
X98050Y-52569D01*
X97970Y-52602D01*
X97906Y-52666D01*
X97865Y-52666D01*
X97078Y-52666D01*
X97026Y-52687D01*
X96987Y-52726D01*
X96966Y-52778D01*
X96966Y-52834D01*
X96966Y-53621D01*
X96987Y-53673D01*
X97026Y-53712D01*
X97078Y-53733D01*
X97134Y-53733D01*
X97906Y-53733D01*
X97970Y-53797D01*
X98058Y-53833D01*
X98430Y-53833D01*
X98490Y-53773D01*
X98490Y-53210D01*
X98482Y-53210D01*
X98482Y-53190D01*
X98490Y-53190D01*
X98490Y-53182D01*
X98510Y-53182D01*
X98510Y-53190D01*
X98517Y-53190D01*
X98517Y-53210D01*
X98510Y-53210D01*
X98510Y-53773D01*
X98570Y-53833D01*
X98941Y-53833D01*
X99029Y-53797D01*
X99097Y-53729D01*
X99129Y-53652D01*
X99137Y-53673D01*
X99176Y-53712D01*
X99228Y-53733D01*
X99284Y-53733D01*
X99391Y-53733D01*
X99391Y-53733D01*
G37*
G54D19*
X99391Y-53733D02*
X99096Y-54028D01*
X99042Y-53973D01*
X98980Y-53932D01*
X98907Y-53917D01*
X96133Y-53917D01*
X96133Y-53641D01*
X96133Y-53545D01*
X96133Y-53270D01*
X96073Y-53210D01*
X95510Y-53210D01*
X95510Y-53773D01*
X95570Y-53833D01*
X95941Y-53833D01*
X96029Y-53797D01*
X96097Y-53729D01*
X96133Y-53641D01*
X96133Y-53917D01*
X95486Y-53917D01*
X95402Y-53833D01*
X95430Y-53833D01*
X95490Y-53773D01*
X95490Y-53210D01*
X95482Y-53210D01*
X95482Y-53190D01*
X95490Y-53190D01*
X95490Y-53182D01*
X95510Y-53182D01*
X95510Y-53190D01*
X96073Y-53190D01*
X96133Y-53130D01*
X96133Y-53009D01*
X96190Y-53066D01*
X96190Y-53175D01*
X96238Y-53291D01*
X96327Y-53379D01*
X96442Y-53427D01*
X96568Y-53427D01*
X96684Y-53380D01*
X96772Y-53291D01*
X96820Y-53175D01*
X96820Y-53050D01*
X96773Y-52934D01*
X96684Y-52845D01*
X96568Y-52797D01*
X96459Y-52797D01*
X96231Y-52569D01*
X98050Y-52569D01*
X97970Y-52602D01*
X97906Y-52666D01*
X97865Y-52666D01*
X97078Y-52666D01*
X97026Y-52687D01*
X96987Y-52726D01*
X96966Y-52778D01*
X96966Y-52834D01*
X96966Y-53621D01*
X96987Y-53673D01*
X97026Y-53712D01*
X97078Y-53733D01*
X97134Y-53733D01*
X97906Y-53733D01*
X97970Y-53797D01*
X98058Y-53833D01*
X98430Y-53833D01*
X98490Y-53773D01*
X98490Y-53210D01*
X98482Y-53210D01*
X98482Y-53190D01*
X98490Y-53190D01*
X98490Y-53182D01*
X98510Y-53182D01*
X98510Y-53190D01*
X98517Y-53190D01*
X98517Y-53210D01*
X98510Y-53210D01*
X98510Y-53773D01*
X98570Y-53833D01*
X98941Y-53833D01*
X99029Y-53797D01*
X99097Y-53729D01*
X99129Y-53652D01*
X99137Y-53673D01*
X99176Y-53712D01*
X99228Y-53733D01*
X99284Y-53733D01*
X99391Y-53733D01*
G54D10*
G36*
X102991Y-60590D02*
X102983Y-60590D01*
X102570Y-60590D01*
X102510Y-60650D01*
X102510Y-61352D01*
X102517Y-61352D01*
X102517Y-61372D01*
X102510Y-61372D01*
X102510Y-62073D01*
X102570Y-62133D01*
X102755Y-62133D01*
X102515Y-62373D01*
X102490Y-62411D01*
X102490Y-62073D01*
X102490Y-61372D01*
X102490Y-61352D01*
X102490Y-60650D01*
X102430Y-60590D01*
X102016Y-60590D01*
X101920Y-60590D01*
X101832Y-60627D01*
X101765Y-60694D01*
X101728Y-60782D01*
X101728Y-61292D01*
X101788Y-61352D01*
X102490Y-61352D01*
X102490Y-61372D01*
X101788Y-61372D01*
X101728Y-61432D01*
X101728Y-61941D01*
X101765Y-62029D01*
X101832Y-62096D01*
X101920Y-62133D01*
X102016Y-62133D01*
X102430Y-62133D01*
X102490Y-62073D01*
X102490Y-62411D01*
X102474Y-62435D01*
X102460Y-62507D01*
X102460Y-62518D01*
X102130Y-62518D01*
X102078Y-62539D01*
X102039Y-62578D01*
X102018Y-62630D01*
X102018Y-62685D01*
X102018Y-62960D01*
X102007Y-62960D01*
X101935Y-62974D01*
X101873Y-63015D01*
X101832Y-63077D01*
X101817Y-63150D01*
X101817Y-63432D01*
X101782Y-63468D01*
X101782Y-62630D01*
X101760Y-62578D01*
X101721Y-62539D01*
X101669Y-62518D01*
X101614Y-62518D01*
X100630Y-62518D01*
X100578Y-62539D01*
X100539Y-62578D01*
X100518Y-62630D01*
X100518Y-62685D01*
X100518Y-63602D01*
X100282Y-63602D01*
X100282Y-62630D01*
X100260Y-62578D01*
X100221Y-62539D01*
X100169Y-62518D01*
X100114Y-62518D01*
X99683Y-62518D01*
X99683Y-60921D01*
X99683Y-60865D01*
X99683Y-60078D01*
X99662Y-60026D01*
X99623Y-59987D01*
X99571Y-59966D01*
X99515Y-59966D01*
X98728Y-59966D01*
X98676Y-59987D01*
X98637Y-60026D01*
X98616Y-60078D01*
X98616Y-60134D01*
X98616Y-60921D01*
X98637Y-60973D01*
X98676Y-61012D01*
X98728Y-61033D01*
X98784Y-61033D01*
X99571Y-61033D01*
X99623Y-61012D01*
X99662Y-60973D01*
X99683Y-60921D01*
X99683Y-62518D01*
X99130Y-62518D01*
X99078Y-62539D01*
X99039Y-62578D01*
X99018Y-62630D01*
X99018Y-62685D01*
X99018Y-63602D01*
X98507Y-63602D01*
X98507Y-63602D01*
X98435Y-63616D01*
X98373Y-63657D01*
X98133Y-63897D01*
X98133Y-63091D01*
X98133Y-62720D01*
X98073Y-62660D01*
X97510Y-62660D01*
X97510Y-63223D01*
X97570Y-63283D01*
X97845Y-63283D01*
X97941Y-63283D01*
X98029Y-63247D01*
X98097Y-63179D01*
X98133Y-63091D01*
X98133Y-63897D01*
X97765Y-64266D01*
X97490Y-64266D01*
X97490Y-63223D01*
X97490Y-62660D01*
X96926Y-62660D01*
X96866Y-62720D01*
X96866Y-63091D01*
X96902Y-63179D01*
X96970Y-63247D01*
X97058Y-63283D01*
X97154Y-63283D01*
X97430Y-63283D01*
X97490Y-63223D01*
X97490Y-64266D01*
X97078Y-64266D01*
X97026Y-64287D01*
X96987Y-64326D01*
X96966Y-64378D01*
X96966Y-64434D01*
X96966Y-65221D01*
X96987Y-65273D01*
X97026Y-65312D01*
X97078Y-65333D01*
X97134Y-65333D01*
X97906Y-65333D01*
X97953Y-65380D01*
X96633Y-65380D01*
X96633Y-63091D01*
X96633Y-62720D01*
X96573Y-62660D01*
X96010Y-62660D01*
X96010Y-63223D01*
X96070Y-63283D01*
X96345Y-63283D01*
X96441Y-63283D01*
X96529Y-63247D01*
X96597Y-63179D01*
X96633Y-63091D01*
X96633Y-65380D01*
X96046Y-65380D01*
X96097Y-65329D01*
X96133Y-65241D01*
X96133Y-65145D01*
X96133Y-64870D01*
X96133Y-64730D01*
X96133Y-64454D01*
X96133Y-64358D01*
X96097Y-64270D01*
X96029Y-64202D01*
X95990Y-64186D01*
X95990Y-63223D01*
X95990Y-62660D01*
X95426Y-62660D01*
X95366Y-62720D01*
X95366Y-63091D01*
X95402Y-63179D01*
X95470Y-63247D01*
X95558Y-63283D01*
X95654Y-63283D01*
X95930Y-63283D01*
X95990Y-63223D01*
X95990Y-64186D01*
X95941Y-64166D01*
X95570Y-64166D01*
X95510Y-64226D01*
X95510Y-64790D01*
X96073Y-64790D01*
X96133Y-64730D01*
X96133Y-64870D01*
X96073Y-64810D01*
X95510Y-64810D01*
X95510Y-64817D01*
X95490Y-64817D01*
X95490Y-64810D01*
X95482Y-64810D01*
X95482Y-64790D01*
X95490Y-64790D01*
X95490Y-64226D01*
X95430Y-64166D01*
X95058Y-64166D01*
X94970Y-64202D01*
X94906Y-64266D01*
X94865Y-64266D01*
X94133Y-64266D01*
X94133Y-63091D01*
X94133Y-62720D01*
X94073Y-62660D01*
X93510Y-62660D01*
X93510Y-63223D01*
X93570Y-63283D01*
X93845Y-63283D01*
X93941Y-63283D01*
X94029Y-63247D01*
X94097Y-63179D01*
X94133Y-63091D01*
X94133Y-64266D01*
X94078Y-64266D01*
X94026Y-64287D01*
X94000Y-64314D01*
X93973Y-64287D01*
X93921Y-64266D01*
X93865Y-64266D01*
X93490Y-64266D01*
X93490Y-63223D01*
X93490Y-62660D01*
X93073Y-62660D01*
X92926Y-62660D01*
X92510Y-62660D01*
X92510Y-63223D01*
X92570Y-63283D01*
X92845Y-63283D01*
X92941Y-63283D01*
X93000Y-63259D01*
X93058Y-63283D01*
X93154Y-63283D01*
X93430Y-63283D01*
X93490Y-63223D01*
X93490Y-64266D01*
X93078Y-64266D01*
X93026Y-64287D01*
X93000Y-64314D01*
X92973Y-64287D01*
X92921Y-64266D01*
X92865Y-64266D01*
X92490Y-64266D01*
X92490Y-63223D01*
X92490Y-62660D01*
X91926Y-62660D01*
X91866Y-62720D01*
X91866Y-63091D01*
X91902Y-63179D01*
X91970Y-63247D01*
X92058Y-63283D01*
X92154Y-63283D01*
X92430Y-63283D01*
X92490Y-63223D01*
X92490Y-64266D01*
X92078Y-64266D01*
X92026Y-64287D01*
X92000Y-64314D01*
X91973Y-64287D01*
X91921Y-64266D01*
X91865Y-64266D01*
X91078Y-64266D01*
X91026Y-64287D01*
X91000Y-64314D01*
X90973Y-64287D01*
X90921Y-64266D01*
X90865Y-64266D01*
X90078Y-64266D01*
X90026Y-64287D01*
X90000Y-64314D01*
X89973Y-64287D01*
X89921Y-64266D01*
X89865Y-64266D01*
X89078Y-64266D01*
X89026Y-64287D01*
X89000Y-64314D01*
X88973Y-64287D01*
X88921Y-64266D01*
X88865Y-64266D01*
X88234Y-64266D01*
X87378Y-63409D01*
X87316Y-63368D01*
X87243Y-63353D01*
X86133Y-63353D01*
X86133Y-63141D01*
X86133Y-62770D01*
X86073Y-62710D01*
X85510Y-62710D01*
X85510Y-63273D01*
X85570Y-63333D01*
X85845Y-63333D01*
X85941Y-63333D01*
X86029Y-63297D01*
X86097Y-63229D01*
X86133Y-63141D01*
X86133Y-63353D01*
X85490Y-63353D01*
X85490Y-63273D01*
X85490Y-62710D01*
X85073Y-62710D01*
X84926Y-62710D01*
X84510Y-62710D01*
X84510Y-63273D01*
X84570Y-63333D01*
X84845Y-63333D01*
X84941Y-63333D01*
X85000Y-63309D01*
X85058Y-63333D01*
X85154Y-63333D01*
X85430Y-63333D01*
X85490Y-63273D01*
X85490Y-63353D01*
X84490Y-63353D01*
X84490Y-63273D01*
X84490Y-62710D01*
X83926Y-62710D01*
X83866Y-62770D01*
X83866Y-63141D01*
X83902Y-63229D01*
X83970Y-63297D01*
X84058Y-63333D01*
X84154Y-63333D01*
X84430Y-63333D01*
X84490Y-63273D01*
X84490Y-63353D01*
X82622Y-63353D01*
X82647Y-63329D01*
X82683Y-63241D01*
X82683Y-63145D01*
X82683Y-62870D01*
X82683Y-62730D01*
X82683Y-62454D01*
X82683Y-62358D01*
X82647Y-62270D01*
X82583Y-62206D01*
X82583Y-62002D01*
X82583Y-61947D01*
X82583Y-61397D01*
X82562Y-61345D01*
X82523Y-61306D01*
X82471Y-61285D01*
X82415Y-61285D01*
X81628Y-61285D01*
X81576Y-61306D01*
X81537Y-61345D01*
X81516Y-61397D01*
X81516Y-61452D01*
X81516Y-62002D01*
X81537Y-62054D01*
X81576Y-62093D01*
X81628Y-62115D01*
X81684Y-62115D01*
X82471Y-62115D01*
X82523Y-62093D01*
X82562Y-62054D01*
X82583Y-62002D01*
X82583Y-62206D01*
X82579Y-62202D01*
X82491Y-62166D01*
X82120Y-62166D01*
X82060Y-62226D01*
X82060Y-62790D01*
X82623Y-62790D01*
X82683Y-62730D01*
X82683Y-62870D01*
X82623Y-62810D01*
X82060Y-62810D01*
X82060Y-62817D01*
X82040Y-62817D01*
X82040Y-62810D01*
X82040Y-62790D01*
X82040Y-62226D01*
X81980Y-62166D01*
X81608Y-62166D01*
X81520Y-62202D01*
X81452Y-62270D01*
X81416Y-62358D01*
X81416Y-62454D01*
X81416Y-62730D01*
X81476Y-62790D01*
X82040Y-62790D01*
X82040Y-62810D01*
X81476Y-62810D01*
X81416Y-62870D01*
X81416Y-63145D01*
X81416Y-63241D01*
X81452Y-63329D01*
X81477Y-63353D01*
X79622Y-63353D01*
X79647Y-63329D01*
X79683Y-63241D01*
X79683Y-63145D01*
X79683Y-62870D01*
X79683Y-62730D01*
X79683Y-62454D01*
X79683Y-62358D01*
X79647Y-62270D01*
X79579Y-62202D01*
X79491Y-62166D01*
X79120Y-62166D01*
X79060Y-62226D01*
X79060Y-62790D01*
X79623Y-62790D01*
X79683Y-62730D01*
X79683Y-62870D01*
X79623Y-62810D01*
X79060Y-62810D01*
X79060Y-62817D01*
X79040Y-62817D01*
X79040Y-62810D01*
X79032Y-62810D01*
X79032Y-62790D01*
X79040Y-62790D01*
X79040Y-62226D01*
X78980Y-62166D01*
X78696Y-62166D01*
X78696Y-62115D01*
X79471Y-62115D01*
X79523Y-62093D01*
X79562Y-62054D01*
X79583Y-62002D01*
X79583Y-61947D01*
X79583Y-61397D01*
X79562Y-61345D01*
X79523Y-61306D01*
X79471Y-61285D01*
X79415Y-61285D01*
X78696Y-61285D01*
X78696Y-61215D01*
X79471Y-61215D01*
X79523Y-61193D01*
X79562Y-61154D01*
X79583Y-61102D01*
X79583Y-61047D01*
X79583Y-60515D01*
X81516Y-60515D01*
X81516Y-60552D01*
X81516Y-61102D01*
X81537Y-61154D01*
X81576Y-61193D01*
X81628Y-61215D01*
X81684Y-61215D01*
X82471Y-61215D01*
X82523Y-61193D01*
X82562Y-61154D01*
X82583Y-61102D01*
X82583Y-61047D01*
X82583Y-60500D01*
X82584Y-60500D01*
X82635Y-60466D01*
X82635Y-60921D01*
X82656Y-60973D01*
X82695Y-61012D01*
X82747Y-61033D01*
X82802Y-61033D01*
X83352Y-61033D01*
X83404Y-61012D01*
X83443Y-60973D01*
X83465Y-60921D01*
X83465Y-60865D01*
X83465Y-60758D01*
X83946Y-61240D01*
X83946Y-61240D01*
X83946Y-61240D01*
X83974Y-61258D01*
X83966Y-61278D01*
X83966Y-61334D01*
X83966Y-62106D01*
X83902Y-62170D01*
X83866Y-62258D01*
X83866Y-62630D01*
X83926Y-62690D01*
X84490Y-62690D01*
X84490Y-62682D01*
X84510Y-62682D01*
X84510Y-62690D01*
X84926Y-62690D01*
X85073Y-62690D01*
X85490Y-62690D01*
X85490Y-62682D01*
X85510Y-62682D01*
X85510Y-62690D01*
X86073Y-62690D01*
X86133Y-62630D01*
X86133Y-62258D01*
X86097Y-62170D01*
X86033Y-62106D01*
X86033Y-62065D01*
X86033Y-61296D01*
X91966Y-61296D01*
X91966Y-62056D01*
X91902Y-62120D01*
X91866Y-62208D01*
X91866Y-62580D01*
X91926Y-62640D01*
X92490Y-62640D01*
X92490Y-62632D01*
X92510Y-62632D01*
X92510Y-62640D01*
X92926Y-62640D01*
X93073Y-62640D01*
X93490Y-62640D01*
X93490Y-62632D01*
X93510Y-62632D01*
X93510Y-62640D01*
X94073Y-62640D01*
X94133Y-62580D01*
X94133Y-62208D01*
X94097Y-62120D01*
X94033Y-62056D01*
X94033Y-62015D01*
X94033Y-61296D01*
X94833Y-61296D01*
X95321Y-61784D01*
X95383Y-61825D01*
X95456Y-61840D01*
X95466Y-61840D01*
X95466Y-62056D01*
X95402Y-62120D01*
X95366Y-62208D01*
X95366Y-62580D01*
X95426Y-62640D01*
X95990Y-62640D01*
X95990Y-62632D01*
X96010Y-62632D01*
X96010Y-62640D01*
X96573Y-62640D01*
X96633Y-62580D01*
X96633Y-62208D01*
X96597Y-62120D01*
X96533Y-62056D01*
X96533Y-62015D01*
X96533Y-61840D01*
X96966Y-61840D01*
X96966Y-62056D01*
X96902Y-62120D01*
X96866Y-62208D01*
X96866Y-62580D01*
X96926Y-62640D01*
X97490Y-62640D01*
X97490Y-62632D01*
X97510Y-62632D01*
X97510Y-62640D01*
X98073Y-62640D01*
X98133Y-62580D01*
X98133Y-62208D01*
X98097Y-62120D01*
X98033Y-62056D01*
X98033Y-62015D01*
X98033Y-61228D01*
X98012Y-61176D01*
X97973Y-61137D01*
X97921Y-61116D01*
X97865Y-61116D01*
X97078Y-61116D01*
X97026Y-61137D01*
X96987Y-61176D01*
X96966Y-61228D01*
X96966Y-61284D01*
X96966Y-61460D01*
X96533Y-61460D01*
X96533Y-61228D01*
X96512Y-61176D01*
X96473Y-61137D01*
X96421Y-61116D01*
X96365Y-61116D01*
X95578Y-61116D01*
X95526Y-61137D01*
X95487Y-61176D01*
X95466Y-61228D01*
X95466Y-61284D01*
X95466Y-61391D01*
X95108Y-61033D01*
X95134Y-61033D01*
X95921Y-61033D01*
X95973Y-61012D01*
X96000Y-60985D01*
X96026Y-61012D01*
X96078Y-61033D01*
X96134Y-61033D01*
X96921Y-61033D01*
X96973Y-61012D01*
X97000Y-60985D01*
X97026Y-61012D01*
X97078Y-61033D01*
X97134Y-61033D01*
X97921Y-61033D01*
X97973Y-61012D01*
X98012Y-60973D01*
X98033Y-60921D01*
X98033Y-60865D01*
X98033Y-60078D01*
X98012Y-60026D01*
X97973Y-59987D01*
X97921Y-59966D01*
X97865Y-59966D01*
X97078Y-59966D01*
X97026Y-59987D01*
X97000Y-60014D01*
X96973Y-59987D01*
X96921Y-59966D01*
X96865Y-59966D01*
X96234Y-59966D01*
X96078Y-59809D01*
X96016Y-59768D01*
X95944Y-59754D01*
X94533Y-59754D01*
X94533Y-59421D01*
X94533Y-59365D01*
X94533Y-58578D01*
X94512Y-58526D01*
X94473Y-58487D01*
X94421Y-58466D01*
X94365Y-58466D01*
X93578Y-58466D01*
X93526Y-58487D01*
X93487Y-58526D01*
X93466Y-58578D01*
X93466Y-58634D01*
X93466Y-59421D01*
X93487Y-59473D01*
X93526Y-59512D01*
X93578Y-59533D01*
X93634Y-59533D01*
X94421Y-59533D01*
X94473Y-59512D01*
X94512Y-59473D01*
X94533Y-59421D01*
X94533Y-59754D01*
X92533Y-59754D01*
X92533Y-59421D01*
X92533Y-59365D01*
X92533Y-58578D01*
X92512Y-58526D01*
X92473Y-58487D01*
X92421Y-58466D01*
X92365Y-58466D01*
X91578Y-58466D01*
X91526Y-58487D01*
X91487Y-58526D01*
X91466Y-58578D01*
X91466Y-58634D01*
X91466Y-59421D01*
X91487Y-59473D01*
X91526Y-59512D01*
X91578Y-59533D01*
X91634Y-59533D01*
X92421Y-59533D01*
X92473Y-59512D01*
X92512Y-59473D01*
X92533Y-59421D01*
X92533Y-59754D01*
X91478Y-59754D01*
X89758Y-58033D01*
X89921Y-58033D01*
X89973Y-58012D01*
X90000Y-57985D01*
X90026Y-58012D01*
X90078Y-58033D01*
X90134Y-58033D01*
X90765Y-58033D01*
X91109Y-58378D01*
X91109Y-58378D01*
X91171Y-58419D01*
X91243Y-58433D01*
X98095Y-58433D01*
X99352Y-59690D01*
X99352Y-59690D01*
X99413Y-59731D01*
X99486Y-59746D01*
X100108Y-59746D01*
X100175Y-59733D01*
X100175Y-59921D01*
X100196Y-59973D01*
X100236Y-60012D01*
X100287Y-60033D01*
X100343Y-60033D01*
X101012Y-60033D01*
X101043Y-60020D01*
X101074Y-60033D01*
X101130Y-60033D01*
X101799Y-60033D01*
X101850Y-60012D01*
X101890Y-59973D01*
X101911Y-59921D01*
X101911Y-59865D01*
X101911Y-59093D01*
X101975Y-59029D01*
X102011Y-58941D01*
X102011Y-58570D01*
X101951Y-58510D01*
X101447Y-58510D01*
X101447Y-58517D01*
X101427Y-58517D01*
X101427Y-58510D01*
X101419Y-58510D01*
X101419Y-58490D01*
X101427Y-58490D01*
X101427Y-58482D01*
X101447Y-58482D01*
X101447Y-58490D01*
X101951Y-58490D01*
X102011Y-58430D01*
X102011Y-58384D01*
X102991Y-59364D01*
X102991Y-60590D01*
X102991Y-60590D01*
G37*
G54D19*
X102991Y-60590D02*
X102983Y-60590D01*
X102570Y-60590D01*
X102510Y-60650D01*
X102510Y-61352D01*
X102517Y-61352D01*
X102517Y-61372D01*
X102510Y-61372D01*
X102510Y-62073D01*
X102570Y-62133D01*
X102755Y-62133D01*
X102515Y-62373D01*
X102490Y-62411D01*
X102490Y-62073D01*
X102490Y-61372D01*
X102490Y-61352D01*
X102490Y-60650D01*
X102430Y-60590D01*
X102016Y-60590D01*
X101920Y-60590D01*
X101832Y-60627D01*
X101765Y-60694D01*
X101728Y-60782D01*
X101728Y-61292D01*
X101788Y-61352D01*
X102490Y-61352D01*
X102490Y-61372D01*
X101788Y-61372D01*
X101728Y-61432D01*
X101728Y-61941D01*
X101765Y-62029D01*
X101832Y-62096D01*
X101920Y-62133D01*
X102016Y-62133D01*
X102430Y-62133D01*
X102490Y-62073D01*
X102490Y-62411D01*
X102474Y-62435D01*
X102460Y-62507D01*
X102460Y-62518D01*
X102130Y-62518D01*
X102078Y-62539D01*
X102039Y-62578D01*
X102018Y-62630D01*
X102018Y-62685D01*
X102018Y-62960D01*
X102007Y-62960D01*
X101935Y-62974D01*
X101873Y-63015D01*
X101832Y-63077D01*
X101817Y-63150D01*
X101817Y-63432D01*
X101782Y-63468D01*
X101782Y-62630D01*
X101760Y-62578D01*
X101721Y-62539D01*
X101669Y-62518D01*
X101614Y-62518D01*
X100630Y-62518D01*
X100578Y-62539D01*
X100539Y-62578D01*
X100518Y-62630D01*
X100518Y-62685D01*
X100518Y-63602D01*
X100282Y-63602D01*
X100282Y-62630D01*
X100260Y-62578D01*
X100221Y-62539D01*
X100169Y-62518D01*
X100114Y-62518D01*
X99683Y-62518D01*
X99683Y-60921D01*
X99683Y-60865D01*
X99683Y-60078D01*
X99662Y-60026D01*
X99623Y-59987D01*
X99571Y-59966D01*
X99515Y-59966D01*
X98728Y-59966D01*
X98676Y-59987D01*
X98637Y-60026D01*
X98616Y-60078D01*
X98616Y-60134D01*
X98616Y-60921D01*
X98637Y-60973D01*
X98676Y-61012D01*
X98728Y-61033D01*
X98784Y-61033D01*
X99571Y-61033D01*
X99623Y-61012D01*
X99662Y-60973D01*
X99683Y-60921D01*
X99683Y-62518D01*
X99130Y-62518D01*
X99078Y-62539D01*
X99039Y-62578D01*
X99018Y-62630D01*
X99018Y-62685D01*
X99018Y-63602D01*
X98507Y-63602D01*
X98507Y-63602D01*
X98435Y-63616D01*
X98373Y-63657D01*
X98133Y-63897D01*
X98133Y-63091D01*
X98133Y-62720D01*
X98073Y-62660D01*
X97510Y-62660D01*
X97510Y-63223D01*
X97570Y-63283D01*
X97845Y-63283D01*
X97941Y-63283D01*
X98029Y-63247D01*
X98097Y-63179D01*
X98133Y-63091D01*
X98133Y-63897D01*
X97765Y-64266D01*
X97490Y-64266D01*
X97490Y-63223D01*
X97490Y-62660D01*
X96926Y-62660D01*
X96866Y-62720D01*
X96866Y-63091D01*
X96902Y-63179D01*
X96970Y-63247D01*
X97058Y-63283D01*
X97154Y-63283D01*
X97430Y-63283D01*
X97490Y-63223D01*
X97490Y-64266D01*
X97078Y-64266D01*
X97026Y-64287D01*
X96987Y-64326D01*
X96966Y-64378D01*
X96966Y-64434D01*
X96966Y-65221D01*
X96987Y-65273D01*
X97026Y-65312D01*
X97078Y-65333D01*
X97134Y-65333D01*
X97906Y-65333D01*
X97953Y-65380D01*
X96633Y-65380D01*
X96633Y-63091D01*
X96633Y-62720D01*
X96573Y-62660D01*
X96010Y-62660D01*
X96010Y-63223D01*
X96070Y-63283D01*
X96345Y-63283D01*
X96441Y-63283D01*
X96529Y-63247D01*
X96597Y-63179D01*
X96633Y-63091D01*
X96633Y-65380D01*
X96046Y-65380D01*
X96097Y-65329D01*
X96133Y-65241D01*
X96133Y-65145D01*
X96133Y-64870D01*
X96133Y-64730D01*
X96133Y-64454D01*
X96133Y-64358D01*
X96097Y-64270D01*
X96029Y-64202D01*
X95990Y-64186D01*
X95990Y-63223D01*
X95990Y-62660D01*
X95426Y-62660D01*
X95366Y-62720D01*
X95366Y-63091D01*
X95402Y-63179D01*
X95470Y-63247D01*
X95558Y-63283D01*
X95654Y-63283D01*
X95930Y-63283D01*
X95990Y-63223D01*
X95990Y-64186D01*
X95941Y-64166D01*
X95570Y-64166D01*
X95510Y-64226D01*
X95510Y-64790D01*
X96073Y-64790D01*
X96133Y-64730D01*
X96133Y-64870D01*
X96073Y-64810D01*
X95510Y-64810D01*
X95510Y-64817D01*
X95490Y-64817D01*
X95490Y-64810D01*
X95482Y-64810D01*
X95482Y-64790D01*
X95490Y-64790D01*
X95490Y-64226D01*
X95430Y-64166D01*
X95058Y-64166D01*
X94970Y-64202D01*
X94906Y-64266D01*
X94865Y-64266D01*
X94133Y-64266D01*
X94133Y-63091D01*
X94133Y-62720D01*
X94073Y-62660D01*
X93510Y-62660D01*
X93510Y-63223D01*
X93570Y-63283D01*
X93845Y-63283D01*
X93941Y-63283D01*
X94029Y-63247D01*
X94097Y-63179D01*
X94133Y-63091D01*
X94133Y-64266D01*
X94078Y-64266D01*
X94026Y-64287D01*
X94000Y-64314D01*
X93973Y-64287D01*
X93921Y-64266D01*
X93865Y-64266D01*
X93490Y-64266D01*
X93490Y-63223D01*
X93490Y-62660D01*
X93073Y-62660D01*
X92926Y-62660D01*
X92510Y-62660D01*
X92510Y-63223D01*
X92570Y-63283D01*
X92845Y-63283D01*
X92941Y-63283D01*
X93000Y-63259D01*
X93058Y-63283D01*
X93154Y-63283D01*
X93430Y-63283D01*
X93490Y-63223D01*
X93490Y-64266D01*
X93078Y-64266D01*
X93026Y-64287D01*
X93000Y-64314D01*
X92973Y-64287D01*
X92921Y-64266D01*
X92865Y-64266D01*
X92490Y-64266D01*
X92490Y-63223D01*
X92490Y-62660D01*
X91926Y-62660D01*
X91866Y-62720D01*
X91866Y-63091D01*
X91902Y-63179D01*
X91970Y-63247D01*
X92058Y-63283D01*
X92154Y-63283D01*
X92430Y-63283D01*
X92490Y-63223D01*
X92490Y-64266D01*
X92078Y-64266D01*
X92026Y-64287D01*
X92000Y-64314D01*
X91973Y-64287D01*
X91921Y-64266D01*
X91865Y-64266D01*
X91078Y-64266D01*
X91026Y-64287D01*
X91000Y-64314D01*
X90973Y-64287D01*
X90921Y-64266D01*
X90865Y-64266D01*
X90078Y-64266D01*
X90026Y-64287D01*
X90000Y-64314D01*
X89973Y-64287D01*
X89921Y-64266D01*
X89865Y-64266D01*
X89078Y-64266D01*
X89026Y-64287D01*
X89000Y-64314D01*
X88973Y-64287D01*
X88921Y-64266D01*
X88865Y-64266D01*
X88234Y-64266D01*
X87378Y-63409D01*
X87316Y-63368D01*
X87243Y-63353D01*
X86133Y-63353D01*
X86133Y-63141D01*
X86133Y-62770D01*
X86073Y-62710D01*
X85510Y-62710D01*
X85510Y-63273D01*
X85570Y-63333D01*
X85845Y-63333D01*
X85941Y-63333D01*
X86029Y-63297D01*
X86097Y-63229D01*
X86133Y-63141D01*
X86133Y-63353D01*
X85490Y-63353D01*
X85490Y-63273D01*
X85490Y-62710D01*
X85073Y-62710D01*
X84926Y-62710D01*
X84510Y-62710D01*
X84510Y-63273D01*
X84570Y-63333D01*
X84845Y-63333D01*
X84941Y-63333D01*
X85000Y-63309D01*
X85058Y-63333D01*
X85154Y-63333D01*
X85430Y-63333D01*
X85490Y-63273D01*
X85490Y-63353D01*
X84490Y-63353D01*
X84490Y-63273D01*
X84490Y-62710D01*
X83926Y-62710D01*
X83866Y-62770D01*
X83866Y-63141D01*
X83902Y-63229D01*
X83970Y-63297D01*
X84058Y-63333D01*
X84154Y-63333D01*
X84430Y-63333D01*
X84490Y-63273D01*
X84490Y-63353D01*
X82622Y-63353D01*
X82647Y-63329D01*
X82683Y-63241D01*
X82683Y-63145D01*
X82683Y-62870D01*
X82683Y-62730D01*
X82683Y-62454D01*
X82683Y-62358D01*
X82647Y-62270D01*
X82583Y-62206D01*
X82583Y-62002D01*
X82583Y-61947D01*
X82583Y-61397D01*
X82562Y-61345D01*
X82523Y-61306D01*
X82471Y-61285D01*
X82415Y-61285D01*
X81628Y-61285D01*
X81576Y-61306D01*
X81537Y-61345D01*
X81516Y-61397D01*
X81516Y-61452D01*
X81516Y-62002D01*
X81537Y-62054D01*
X81576Y-62093D01*
X81628Y-62115D01*
X81684Y-62115D01*
X82471Y-62115D01*
X82523Y-62093D01*
X82562Y-62054D01*
X82583Y-62002D01*
X82583Y-62206D01*
X82579Y-62202D01*
X82491Y-62166D01*
X82120Y-62166D01*
X82060Y-62226D01*
X82060Y-62790D01*
X82623Y-62790D01*
X82683Y-62730D01*
X82683Y-62870D01*
X82623Y-62810D01*
X82060Y-62810D01*
X82060Y-62817D01*
X82040Y-62817D01*
X82040Y-62810D01*
X82040Y-62790D01*
X82040Y-62226D01*
X81980Y-62166D01*
X81608Y-62166D01*
X81520Y-62202D01*
X81452Y-62270D01*
X81416Y-62358D01*
X81416Y-62454D01*
X81416Y-62730D01*
X81476Y-62790D01*
X82040Y-62790D01*
X82040Y-62810D01*
X81476Y-62810D01*
X81416Y-62870D01*
X81416Y-63145D01*
X81416Y-63241D01*
X81452Y-63329D01*
X81477Y-63353D01*
X79622Y-63353D01*
X79647Y-63329D01*
X79683Y-63241D01*
X79683Y-63145D01*
X79683Y-62870D01*
X79683Y-62730D01*
X79683Y-62454D01*
X79683Y-62358D01*
X79647Y-62270D01*
X79579Y-62202D01*
X79491Y-62166D01*
X79120Y-62166D01*
X79060Y-62226D01*
X79060Y-62790D01*
X79623Y-62790D01*
X79683Y-62730D01*
X79683Y-62870D01*
X79623Y-62810D01*
X79060Y-62810D01*
X79060Y-62817D01*
X79040Y-62817D01*
X79040Y-62810D01*
X79032Y-62810D01*
X79032Y-62790D01*
X79040Y-62790D01*
X79040Y-62226D01*
X78980Y-62166D01*
X78696Y-62166D01*
X78696Y-62115D01*
X79471Y-62115D01*
X79523Y-62093D01*
X79562Y-62054D01*
X79583Y-62002D01*
X79583Y-61947D01*
X79583Y-61397D01*
X79562Y-61345D01*
X79523Y-61306D01*
X79471Y-61285D01*
X79415Y-61285D01*
X78696Y-61285D01*
X78696Y-61215D01*
X79471Y-61215D01*
X79523Y-61193D01*
X79562Y-61154D01*
X79583Y-61102D01*
X79583Y-61047D01*
X79583Y-60515D01*
X81516Y-60515D01*
X81516Y-60552D01*
X81516Y-61102D01*
X81537Y-61154D01*
X81576Y-61193D01*
X81628Y-61215D01*
X81684Y-61215D01*
X82471Y-61215D01*
X82523Y-61193D01*
X82562Y-61154D01*
X82583Y-61102D01*
X82583Y-61047D01*
X82583Y-60500D01*
X82584Y-60500D01*
X82635Y-60466D01*
X82635Y-60921D01*
X82656Y-60973D01*
X82695Y-61012D01*
X82747Y-61033D01*
X82802Y-61033D01*
X83352Y-61033D01*
X83404Y-61012D01*
X83443Y-60973D01*
X83465Y-60921D01*
X83465Y-60865D01*
X83465Y-60758D01*
X83946Y-61240D01*
X83946Y-61240D01*
X83946Y-61240D01*
X83974Y-61258D01*
X83966Y-61278D01*
X83966Y-61334D01*
X83966Y-62106D01*
X83902Y-62170D01*
X83866Y-62258D01*
X83866Y-62630D01*
X83926Y-62690D01*
X84490Y-62690D01*
X84490Y-62682D01*
X84510Y-62682D01*
X84510Y-62690D01*
X84926Y-62690D01*
X85073Y-62690D01*
X85490Y-62690D01*
X85490Y-62682D01*
X85510Y-62682D01*
X85510Y-62690D01*
X86073Y-62690D01*
X86133Y-62630D01*
X86133Y-62258D01*
X86097Y-62170D01*
X86033Y-62106D01*
X86033Y-62065D01*
X86033Y-61296D01*
X91966Y-61296D01*
X91966Y-62056D01*
X91902Y-62120D01*
X91866Y-62208D01*
X91866Y-62580D01*
X91926Y-62640D01*
X92490Y-62640D01*
X92490Y-62632D01*
X92510Y-62632D01*
X92510Y-62640D01*
X92926Y-62640D01*
X93073Y-62640D01*
X93490Y-62640D01*
X93490Y-62632D01*
X93510Y-62632D01*
X93510Y-62640D01*
X94073Y-62640D01*
X94133Y-62580D01*
X94133Y-62208D01*
X94097Y-62120D01*
X94033Y-62056D01*
X94033Y-62015D01*
X94033Y-61296D01*
X94833Y-61296D01*
X95321Y-61784D01*
X95383Y-61825D01*
X95456Y-61840D01*
X95466Y-61840D01*
X95466Y-62056D01*
X95402Y-62120D01*
X95366Y-62208D01*
X95366Y-62580D01*
X95426Y-62640D01*
X95990Y-62640D01*
X95990Y-62632D01*
X96010Y-62632D01*
X96010Y-62640D01*
X96573Y-62640D01*
X96633Y-62580D01*
X96633Y-62208D01*
X96597Y-62120D01*
X96533Y-62056D01*
X96533Y-62015D01*
X96533Y-61840D01*
X96966Y-61840D01*
X96966Y-62056D01*
X96902Y-62120D01*
X96866Y-62208D01*
X96866Y-62580D01*
X96926Y-62640D01*
X97490Y-62640D01*
X97490Y-62632D01*
X97510Y-62632D01*
X97510Y-62640D01*
X98073Y-62640D01*
X98133Y-62580D01*
X98133Y-62208D01*
X98097Y-62120D01*
X98033Y-62056D01*
X98033Y-62015D01*
X98033Y-61228D01*
X98012Y-61176D01*
X97973Y-61137D01*
X97921Y-61116D01*
X97865Y-61116D01*
X97078Y-61116D01*
X97026Y-61137D01*
X96987Y-61176D01*
X96966Y-61228D01*
X96966Y-61284D01*
X96966Y-61460D01*
X96533Y-61460D01*
X96533Y-61228D01*
X96512Y-61176D01*
X96473Y-61137D01*
X96421Y-61116D01*
X96365Y-61116D01*
X95578Y-61116D01*
X95526Y-61137D01*
X95487Y-61176D01*
X95466Y-61228D01*
X95466Y-61284D01*
X95466Y-61391D01*
X95108Y-61033D01*
X95134Y-61033D01*
X95921Y-61033D01*
X95973Y-61012D01*
X96000Y-60985D01*
X96026Y-61012D01*
X96078Y-61033D01*
X96134Y-61033D01*
X96921Y-61033D01*
X96973Y-61012D01*
X97000Y-60985D01*
X97026Y-61012D01*
X97078Y-61033D01*
X97134Y-61033D01*
X97921Y-61033D01*
X97973Y-61012D01*
X98012Y-60973D01*
X98033Y-60921D01*
X98033Y-60865D01*
X98033Y-60078D01*
X98012Y-60026D01*
X97973Y-59987D01*
X97921Y-59966D01*
X97865Y-59966D01*
X97078Y-59966D01*
X97026Y-59987D01*
X97000Y-60014D01*
X96973Y-59987D01*
X96921Y-59966D01*
X96865Y-59966D01*
X96234Y-59966D01*
X96078Y-59809D01*
X96016Y-59768D01*
X95944Y-59754D01*
X94533Y-59754D01*
X94533Y-59421D01*
X94533Y-59365D01*
X94533Y-58578D01*
X94512Y-58526D01*
X94473Y-58487D01*
X94421Y-58466D01*
X94365Y-58466D01*
X93578Y-58466D01*
X93526Y-58487D01*
X93487Y-58526D01*
X93466Y-58578D01*
X93466Y-58634D01*
X93466Y-59421D01*
X93487Y-59473D01*
X93526Y-59512D01*
X93578Y-59533D01*
X93634Y-59533D01*
X94421Y-59533D01*
X94473Y-59512D01*
X94512Y-59473D01*
X94533Y-59421D01*
X94533Y-59754D01*
X92533Y-59754D01*
X92533Y-59421D01*
X92533Y-59365D01*
X92533Y-58578D01*
X92512Y-58526D01*
X92473Y-58487D01*
X92421Y-58466D01*
X92365Y-58466D01*
X91578Y-58466D01*
X91526Y-58487D01*
X91487Y-58526D01*
X91466Y-58578D01*
X91466Y-58634D01*
X91466Y-59421D01*
X91487Y-59473D01*
X91526Y-59512D01*
X91578Y-59533D01*
X91634Y-59533D01*
X92421Y-59533D01*
X92473Y-59512D01*
X92512Y-59473D01*
X92533Y-59421D01*
X92533Y-59754D01*
X91478Y-59754D01*
X89758Y-58033D01*
X89921Y-58033D01*
X89973Y-58012D01*
X90000Y-57985D01*
X90026Y-58012D01*
X90078Y-58033D01*
X90134Y-58033D01*
X90765Y-58033D01*
X91109Y-58378D01*
X91109Y-58378D01*
X91171Y-58419D01*
X91243Y-58433D01*
X98095Y-58433D01*
X99352Y-59690D01*
X99352Y-59690D01*
X99413Y-59731D01*
X99486Y-59746D01*
X100108Y-59746D01*
X100175Y-59733D01*
X100175Y-59921D01*
X100196Y-59973D01*
X100236Y-60012D01*
X100287Y-60033D01*
X100343Y-60033D01*
X101012Y-60033D01*
X101043Y-60020D01*
X101074Y-60033D01*
X101130Y-60033D01*
X101799Y-60033D01*
X101850Y-60012D01*
X101890Y-59973D01*
X101911Y-59921D01*
X101911Y-59865D01*
X101911Y-59093D01*
X101975Y-59029D01*
X102011Y-58941D01*
X102011Y-58570D01*
X101951Y-58510D01*
X101447Y-58510D01*
X101447Y-58517D01*
X101427Y-58517D01*
X101427Y-58510D01*
X101419Y-58510D01*
X101419Y-58490D01*
X101427Y-58490D01*
X101427Y-58482D01*
X101447Y-58482D01*
X101447Y-58490D01*
X101951Y-58490D01*
X102011Y-58430D01*
X102011Y-58384D01*
X102991Y-59364D01*
X102991Y-60590D01*
G54D10*
G36*
X103380Y-65380D02*
X103183Y-65380D01*
X103183Y-65221D01*
X103183Y-65165D01*
X103183Y-64378D01*
X103162Y-64326D01*
X103123Y-64287D01*
X103071Y-64266D01*
X103015Y-64266D01*
X102228Y-64266D01*
X102176Y-64287D01*
X102137Y-64326D01*
X102116Y-64378D01*
X102116Y-64434D01*
X102116Y-65221D01*
X102137Y-65273D01*
X102176Y-65312D01*
X102228Y-65333D01*
X102284Y-65333D01*
X103071Y-65333D01*
X103123Y-65312D01*
X103162Y-65273D01*
X103183Y-65221D01*
X103183Y-65380D01*
X100196Y-65380D01*
X100247Y-65329D01*
X100283Y-65241D01*
X100283Y-65145D01*
X100283Y-64870D01*
X100283Y-64730D01*
X100283Y-64454D01*
X100283Y-64358D01*
X100247Y-64270D01*
X100179Y-64202D01*
X100091Y-64166D01*
X99720Y-64166D01*
X99660Y-64226D01*
X99660Y-64790D01*
X100223Y-64790D01*
X100283Y-64730D01*
X100283Y-64870D01*
X100223Y-64810D01*
X99660Y-64810D01*
X99660Y-64817D01*
X99640Y-64817D01*
X99640Y-64810D01*
X99640Y-64790D01*
X99640Y-64226D01*
X99580Y-64166D01*
X99208Y-64166D01*
X99120Y-64202D01*
X99075Y-64248D01*
X99029Y-64202D01*
X98941Y-64166D01*
X98570Y-64166D01*
X98510Y-64226D01*
X98510Y-64790D01*
X99073Y-64790D01*
X99075Y-64788D01*
X99076Y-64790D01*
X99640Y-64790D01*
X99640Y-64810D01*
X99076Y-64810D01*
X99075Y-64811D01*
X99073Y-64810D01*
X98510Y-64810D01*
X98510Y-64817D01*
X98490Y-64817D01*
X98490Y-64810D01*
X98482Y-64810D01*
X98482Y-64790D01*
X98490Y-64790D01*
X98490Y-64226D01*
X98430Y-64166D01*
X98402Y-64166D01*
X98586Y-63982D01*
X101726Y-63982D01*
X101799Y-63967D01*
X101861Y-63926D01*
X102052Y-63734D01*
X102078Y-63760D01*
X102130Y-63782D01*
X102185Y-63782D01*
X103169Y-63782D01*
X103221Y-63760D01*
X103260Y-63721D01*
X103282Y-63669D01*
X103282Y-63614D01*
X103282Y-62630D01*
X103260Y-62578D01*
X103221Y-62539D01*
X103169Y-62518D01*
X103114Y-62518D01*
X102908Y-62518D01*
X103316Y-62110D01*
X103357Y-62048D01*
X103371Y-61976D01*
X103371Y-59285D01*
X103357Y-59212D01*
X103316Y-59151D01*
X103282Y-59117D01*
X103282Y-55369D01*
X103282Y-55314D01*
X103282Y-54330D01*
X103260Y-54278D01*
X103221Y-54239D01*
X103183Y-54223D01*
X103183Y-53621D01*
X103183Y-53565D01*
X103183Y-52778D01*
X103162Y-52726D01*
X103123Y-52687D01*
X103071Y-52666D01*
X103015Y-52666D01*
X102228Y-52666D01*
X102176Y-52687D01*
X102137Y-52726D01*
X102116Y-52778D01*
X102116Y-52834D01*
X102116Y-53621D01*
X102137Y-53673D01*
X102176Y-53712D01*
X102228Y-53733D01*
X102284Y-53733D01*
X103071Y-53733D01*
X103123Y-53712D01*
X103162Y-53673D01*
X103183Y-53621D01*
X103183Y-54223D01*
X103169Y-54218D01*
X103114Y-54218D01*
X102130Y-54218D01*
X102078Y-54239D01*
X102039Y-54278D01*
X102018Y-54330D01*
X102018Y-54385D01*
X102018Y-55369D01*
X102039Y-55421D01*
X102078Y-55460D01*
X102130Y-55482D01*
X102185Y-55482D01*
X103169Y-55482D01*
X103221Y-55460D01*
X103260Y-55421D01*
X103282Y-55369D01*
X103282Y-59117D01*
X103271Y-59106D01*
X103271Y-57217D01*
X103271Y-56708D01*
X103271Y-56568D01*
X103271Y-56058D01*
X103234Y-55970D01*
X103167Y-55903D01*
X103079Y-55866D01*
X102983Y-55866D01*
X102570Y-55866D01*
X102510Y-55926D01*
X102510Y-56628D01*
X103211Y-56628D01*
X103271Y-56568D01*
X103271Y-56708D01*
X103211Y-56648D01*
X102510Y-56648D01*
X102510Y-57349D01*
X102570Y-57409D01*
X102983Y-57409D01*
X103079Y-57409D01*
X103167Y-57372D01*
X103234Y-57305D01*
X103271Y-57217D01*
X103271Y-59106D01*
X102490Y-58325D01*
X102490Y-57349D01*
X102490Y-56648D01*
X102490Y-56628D01*
X102490Y-55926D01*
X102430Y-55866D01*
X102016Y-55866D01*
X101920Y-55866D01*
X101832Y-55903D01*
X101782Y-55953D01*
X101782Y-55369D01*
X101782Y-55314D01*
X101782Y-54330D01*
X101760Y-54278D01*
X101721Y-54239D01*
X101669Y-54218D01*
X101614Y-54218D01*
X100630Y-54218D01*
X100578Y-54239D01*
X100539Y-54278D01*
X100518Y-54330D01*
X100518Y-54385D01*
X100518Y-55369D01*
X100539Y-55421D01*
X100578Y-55460D01*
X100630Y-55482D01*
X100685Y-55482D01*
X101669Y-55482D01*
X101721Y-55460D01*
X101760Y-55421D01*
X101782Y-55369D01*
X101782Y-55953D01*
X101765Y-55970D01*
X101728Y-56058D01*
X101728Y-56568D01*
X101788Y-56628D01*
X102490Y-56628D01*
X102490Y-56648D01*
X101788Y-56648D01*
X101728Y-56708D01*
X101728Y-57217D01*
X101765Y-57305D01*
X101832Y-57372D01*
X101920Y-57409D01*
X102016Y-57409D01*
X102430Y-57409D01*
X102490Y-57349D01*
X102490Y-58325D01*
X101981Y-57816D01*
X101919Y-57775D01*
X101846Y-57760D01*
X100956Y-57760D01*
X100884Y-57775D01*
X100822Y-57816D01*
X100672Y-57966D01*
X100287Y-57966D01*
X100236Y-57987D01*
X100196Y-58026D01*
X100175Y-58078D01*
X100175Y-58134D01*
X100175Y-58310D01*
X100165Y-58310D01*
X99122Y-58310D01*
X98846Y-58033D01*
X99571Y-58033D01*
X99623Y-58012D01*
X99662Y-57973D01*
X99683Y-57921D01*
X99683Y-57865D01*
X99683Y-57078D01*
X99662Y-57026D01*
X99623Y-56987D01*
X99571Y-56966D01*
X99515Y-56966D01*
X98728Y-56966D01*
X98676Y-56987D01*
X98637Y-57026D01*
X98616Y-57078D01*
X98616Y-57134D01*
X98616Y-57803D01*
X98178Y-57365D01*
X98116Y-57324D01*
X98043Y-57310D01*
X98033Y-57310D01*
X98033Y-57083D01*
X98248Y-57083D01*
X98320Y-57069D01*
X98382Y-57028D01*
X99784Y-55626D01*
X99825Y-55564D01*
X99840Y-55492D01*
X99840Y-55482D01*
X100169Y-55482D01*
X100221Y-55460D01*
X100260Y-55421D01*
X100282Y-55369D01*
X100282Y-55314D01*
X100282Y-54330D01*
X100260Y-54278D01*
X100221Y-54239D01*
X100169Y-54218D01*
X100114Y-54218D01*
X99444Y-54218D01*
X99784Y-53878D01*
X99825Y-53816D01*
X99840Y-53743D01*
X99840Y-53733D01*
X100071Y-53733D01*
X100123Y-53712D01*
X100162Y-53673D01*
X100183Y-53621D01*
X100183Y-53565D01*
X100183Y-52778D01*
X100162Y-52726D01*
X100123Y-52687D01*
X100071Y-52666D01*
X100015Y-52666D01*
X99228Y-52666D01*
X99176Y-52687D01*
X99137Y-52726D01*
X99129Y-52747D01*
X99097Y-52670D01*
X99029Y-52602D01*
X98949Y-52569D01*
X103380Y-52569D01*
X103380Y-65380D01*
X103380Y-65380D01*
G37*
G54D19*
X103380Y-65380D02*
X103183Y-65380D01*
X103183Y-65221D01*
X103183Y-65165D01*
X103183Y-64378D01*
X103162Y-64326D01*
X103123Y-64287D01*
X103071Y-64266D01*
X103015Y-64266D01*
X102228Y-64266D01*
X102176Y-64287D01*
X102137Y-64326D01*
X102116Y-64378D01*
X102116Y-64434D01*
X102116Y-65221D01*
X102137Y-65273D01*
X102176Y-65312D01*
X102228Y-65333D01*
X102284Y-65333D01*
X103071Y-65333D01*
X103123Y-65312D01*
X103162Y-65273D01*
X103183Y-65221D01*
X103183Y-65380D01*
X100196Y-65380D01*
X100247Y-65329D01*
X100283Y-65241D01*
X100283Y-65145D01*
X100283Y-64870D01*
X100283Y-64730D01*
X100283Y-64454D01*
X100283Y-64358D01*
X100247Y-64270D01*
X100179Y-64202D01*
X100091Y-64166D01*
X99720Y-64166D01*
X99660Y-64226D01*
X99660Y-64790D01*
X100223Y-64790D01*
X100283Y-64730D01*
X100283Y-64870D01*
X100223Y-64810D01*
X99660Y-64810D01*
X99660Y-64817D01*
X99640Y-64817D01*
X99640Y-64810D01*
X99640Y-64790D01*
X99640Y-64226D01*
X99580Y-64166D01*
X99208Y-64166D01*
X99120Y-64202D01*
X99075Y-64248D01*
X99029Y-64202D01*
X98941Y-64166D01*
X98570Y-64166D01*
X98510Y-64226D01*
X98510Y-64790D01*
X99073Y-64790D01*
X99075Y-64788D01*
X99076Y-64790D01*
X99640Y-64790D01*
X99640Y-64810D01*
X99076Y-64810D01*
X99075Y-64811D01*
X99073Y-64810D01*
X98510Y-64810D01*
X98510Y-64817D01*
X98490Y-64817D01*
X98490Y-64810D01*
X98482Y-64810D01*
X98482Y-64790D01*
X98490Y-64790D01*
X98490Y-64226D01*
X98430Y-64166D01*
X98402Y-64166D01*
X98586Y-63982D01*
X101726Y-63982D01*
X101799Y-63967D01*
X101861Y-63926D01*
X102052Y-63734D01*
X102078Y-63760D01*
X102130Y-63782D01*
X102185Y-63782D01*
X103169Y-63782D01*
X103221Y-63760D01*
X103260Y-63721D01*
X103282Y-63669D01*
X103282Y-63614D01*
X103282Y-62630D01*
X103260Y-62578D01*
X103221Y-62539D01*
X103169Y-62518D01*
X103114Y-62518D01*
X102908Y-62518D01*
X103316Y-62110D01*
X103357Y-62048D01*
X103371Y-61976D01*
X103371Y-59285D01*
X103357Y-59212D01*
X103316Y-59151D01*
X103282Y-59117D01*
X103282Y-55369D01*
X103282Y-55314D01*
X103282Y-54330D01*
X103260Y-54278D01*
X103221Y-54239D01*
X103183Y-54223D01*
X103183Y-53621D01*
X103183Y-53565D01*
X103183Y-52778D01*
X103162Y-52726D01*
X103123Y-52687D01*
X103071Y-52666D01*
X103015Y-52666D01*
X102228Y-52666D01*
X102176Y-52687D01*
X102137Y-52726D01*
X102116Y-52778D01*
X102116Y-52834D01*
X102116Y-53621D01*
X102137Y-53673D01*
X102176Y-53712D01*
X102228Y-53733D01*
X102284Y-53733D01*
X103071Y-53733D01*
X103123Y-53712D01*
X103162Y-53673D01*
X103183Y-53621D01*
X103183Y-54223D01*
X103169Y-54218D01*
X103114Y-54218D01*
X102130Y-54218D01*
X102078Y-54239D01*
X102039Y-54278D01*
X102018Y-54330D01*
X102018Y-54385D01*
X102018Y-55369D01*
X102039Y-55421D01*
X102078Y-55460D01*
X102130Y-55482D01*
X102185Y-55482D01*
X103169Y-55482D01*
X103221Y-55460D01*
X103260Y-55421D01*
X103282Y-55369D01*
X103282Y-59117D01*
X103271Y-59106D01*
X103271Y-57217D01*
X103271Y-56708D01*
X103271Y-56568D01*
X103271Y-56058D01*
X103234Y-55970D01*
X103167Y-55903D01*
X103079Y-55866D01*
X102983Y-55866D01*
X102570Y-55866D01*
X102510Y-55926D01*
X102510Y-56628D01*
X103211Y-56628D01*
X103271Y-56568D01*
X103271Y-56708D01*
X103211Y-56648D01*
X102510Y-56648D01*
X102510Y-57349D01*
X102570Y-57409D01*
X102983Y-57409D01*
X103079Y-57409D01*
X103167Y-57372D01*
X103234Y-57305D01*
X103271Y-57217D01*
X103271Y-59106D01*
X102490Y-58325D01*
X102490Y-57349D01*
X102490Y-56648D01*
X102490Y-56628D01*
X102490Y-55926D01*
X102430Y-55866D01*
X102016Y-55866D01*
X101920Y-55866D01*
X101832Y-55903D01*
X101782Y-55953D01*
X101782Y-55369D01*
X101782Y-55314D01*
X101782Y-54330D01*
X101760Y-54278D01*
X101721Y-54239D01*
X101669Y-54218D01*
X101614Y-54218D01*
X100630Y-54218D01*
X100578Y-54239D01*
X100539Y-54278D01*
X100518Y-54330D01*
X100518Y-54385D01*
X100518Y-55369D01*
X100539Y-55421D01*
X100578Y-55460D01*
X100630Y-55482D01*
X100685Y-55482D01*
X101669Y-55482D01*
X101721Y-55460D01*
X101760Y-55421D01*
X101782Y-55369D01*
X101782Y-55953D01*
X101765Y-55970D01*
X101728Y-56058D01*
X101728Y-56568D01*
X101788Y-56628D01*
X102490Y-56628D01*
X102490Y-56648D01*
X101788Y-56648D01*
X101728Y-56708D01*
X101728Y-57217D01*
X101765Y-57305D01*
X101832Y-57372D01*
X101920Y-57409D01*
X102016Y-57409D01*
X102430Y-57409D01*
X102490Y-57349D01*
X102490Y-58325D01*
X101981Y-57816D01*
X101919Y-57775D01*
X101846Y-57760D01*
X100956Y-57760D01*
X100884Y-57775D01*
X100822Y-57816D01*
X100672Y-57966D01*
X100287Y-57966D01*
X100236Y-57987D01*
X100196Y-58026D01*
X100175Y-58078D01*
X100175Y-58134D01*
X100175Y-58310D01*
X100165Y-58310D01*
X99122Y-58310D01*
X98846Y-58033D01*
X99571Y-58033D01*
X99623Y-58012D01*
X99662Y-57973D01*
X99683Y-57921D01*
X99683Y-57865D01*
X99683Y-57078D01*
X99662Y-57026D01*
X99623Y-56987D01*
X99571Y-56966D01*
X99515Y-56966D01*
X98728Y-56966D01*
X98676Y-56987D01*
X98637Y-57026D01*
X98616Y-57078D01*
X98616Y-57134D01*
X98616Y-57803D01*
X98178Y-57365D01*
X98116Y-57324D01*
X98043Y-57310D01*
X98033Y-57310D01*
X98033Y-57083D01*
X98248Y-57083D01*
X98320Y-57069D01*
X98382Y-57028D01*
X99784Y-55626D01*
X99825Y-55564D01*
X99840Y-55492D01*
X99840Y-55482D01*
X100169Y-55482D01*
X100221Y-55460D01*
X100260Y-55421D01*
X100282Y-55369D01*
X100282Y-55314D01*
X100282Y-54330D01*
X100260Y-54278D01*
X100221Y-54239D01*
X100169Y-54218D01*
X100114Y-54218D01*
X99444Y-54218D01*
X99784Y-53878D01*
X99825Y-53816D01*
X99840Y-53743D01*
X99840Y-53733D01*
X100071Y-53733D01*
X100123Y-53712D01*
X100162Y-53673D01*
X100183Y-53621D01*
X100183Y-53565D01*
X100183Y-52778D01*
X100162Y-52726D01*
X100123Y-52687D01*
X100071Y-52666D01*
X100015Y-52666D01*
X99228Y-52666D01*
X99176Y-52687D01*
X99137Y-52726D01*
X99129Y-52747D01*
X99097Y-52670D01*
X99029Y-52602D01*
X98949Y-52569D01*
X103380Y-52569D01*
X103380Y-65380D01*
M02*
