%FSLAX34Y34*%
G04 Gerber Fmt 3.4, Leading zero omitted, Abs format*
G04 (created by PCBNEW (2013-10-28 BZR 4418)-product) date jeu. 31 oct. 2013 10:30:57 CET*
%MOIN*%
G01*
G70*
G90*
G04 APERTURE LIST*
%ADD10C,0.005906*%
%ADD11C,0.009843*%
%ADD12C,0.007874*%
%ADD13C,0.002953*%
%ADD14C,0.000100*%
%ADD15C,0.001700*%
%ADD16C,0.000700*%
G04 APERTURE END LIST*
G54D10*
G54D11*
X96715Y-53846D02*
X96321Y-53715D01*
X96715Y-53584D01*
X96528Y-53321D02*
X96509Y-53265D01*
X96490Y-53246D01*
X96453Y-53228D01*
X96396Y-53228D01*
X96359Y-53246D01*
X96340Y-53265D01*
X96321Y-53303D01*
X96321Y-53453D01*
X96715Y-53453D01*
X96715Y-53321D01*
X96696Y-53284D01*
X96678Y-53265D01*
X96640Y-53246D01*
X96603Y-53246D01*
X96565Y-53265D01*
X96546Y-53284D01*
X96528Y-53321D01*
X96528Y-53453D01*
X96434Y-53078D02*
X96434Y-52890D01*
X96321Y-53115D02*
X96715Y-52984D01*
X96321Y-52853D01*
X96715Y-52778D02*
X96715Y-52553D01*
X96321Y-52665D02*
X96715Y-52665D01*
X97715Y-64231D02*
X97321Y-64099D01*
X97715Y-63968D01*
X97321Y-63837D02*
X97715Y-63837D01*
X97321Y-63650D02*
X97715Y-63650D01*
X97321Y-63425D01*
X97715Y-63425D01*
X98696Y-63949D02*
X98715Y-63987D01*
X98715Y-64043D01*
X98696Y-64099D01*
X98659Y-64137D01*
X98621Y-64156D01*
X98546Y-64174D01*
X98490Y-64174D01*
X98415Y-64156D01*
X98378Y-64137D01*
X98340Y-64099D01*
X98321Y-64043D01*
X98321Y-64006D01*
X98340Y-63949D01*
X98359Y-63931D01*
X98490Y-63931D01*
X98490Y-64006D01*
X98321Y-63762D02*
X98715Y-63762D01*
X98321Y-63537D01*
X98715Y-63537D01*
X98321Y-63350D02*
X98715Y-63350D01*
X98715Y-63256D01*
X98696Y-63200D01*
X98659Y-63162D01*
X98621Y-63143D01*
X98546Y-63125D01*
X98490Y-63125D01*
X98415Y-63143D01*
X98378Y-63162D01*
X98340Y-63200D01*
X98321Y-63256D01*
X98321Y-63350D01*
X91262Y-58084D02*
X91131Y-58478D01*
X91000Y-58084D01*
X90868Y-58478D02*
X90868Y-58084D01*
X90775Y-58084D01*
X90718Y-58103D01*
X90681Y-58140D01*
X90662Y-58178D01*
X90643Y-58253D01*
X90643Y-58309D01*
X90662Y-58384D01*
X90681Y-58421D01*
X90718Y-58459D01*
X90775Y-58478D01*
X90868Y-58478D01*
X90475Y-58478D02*
X90475Y-58084D01*
X90381Y-58084D01*
X90325Y-58103D01*
X90287Y-58140D01*
X90268Y-58178D01*
X90250Y-58253D01*
X90250Y-58309D01*
X90268Y-58384D01*
X90287Y-58421D01*
X90325Y-58459D01*
X90381Y-58478D01*
X90475Y-58478D01*
X89781Y-58271D02*
X89481Y-58271D01*
X89481Y-58384D02*
X89781Y-58384D01*
X89050Y-58084D02*
X88919Y-58478D01*
X88787Y-58084D01*
X88525Y-58271D02*
X88469Y-58290D01*
X88450Y-58309D01*
X88431Y-58346D01*
X88431Y-58403D01*
X88450Y-58440D01*
X88469Y-58459D01*
X88506Y-58478D01*
X88656Y-58478D01*
X88656Y-58084D01*
X88525Y-58084D01*
X88487Y-58103D01*
X88469Y-58121D01*
X88450Y-58159D01*
X88450Y-58196D01*
X88469Y-58234D01*
X88487Y-58253D01*
X88525Y-58271D01*
X88656Y-58271D01*
X88281Y-58365D02*
X88094Y-58365D01*
X88319Y-58478D02*
X88187Y-58084D01*
X88056Y-58478D01*
X87981Y-58084D02*
X87756Y-58084D01*
X87869Y-58478D02*
X87869Y-58084D01*
X87269Y-58478D02*
X87306Y-58459D01*
X87325Y-58440D01*
X87344Y-58403D01*
X87344Y-58290D01*
X87325Y-58253D01*
X87306Y-58234D01*
X87269Y-58215D01*
X87213Y-58215D01*
X87175Y-58234D01*
X87156Y-58253D01*
X87138Y-58290D01*
X87138Y-58403D01*
X87156Y-58440D01*
X87175Y-58459D01*
X87213Y-58478D01*
X87269Y-58478D01*
X86969Y-58478D02*
X86969Y-58215D01*
X86969Y-58290D02*
X86950Y-58253D01*
X86931Y-58234D01*
X86894Y-58215D01*
X86856Y-58215D01*
X86200Y-58478D02*
X86331Y-58290D01*
X86425Y-58478D02*
X86425Y-58084D01*
X86275Y-58084D01*
X86238Y-58103D01*
X86219Y-58121D01*
X86200Y-58159D01*
X86200Y-58215D01*
X86219Y-58253D01*
X86238Y-58271D01*
X86275Y-58290D01*
X86425Y-58290D01*
X85881Y-58459D02*
X85919Y-58478D01*
X85994Y-58478D01*
X86031Y-58459D01*
X86050Y-58421D01*
X86050Y-58271D01*
X86031Y-58234D01*
X85994Y-58215D01*
X85919Y-58215D01*
X85881Y-58234D01*
X85863Y-58271D01*
X85863Y-58309D01*
X86050Y-58346D01*
X85525Y-58215D02*
X85525Y-58534D01*
X85544Y-58571D01*
X85563Y-58590D01*
X85600Y-58609D01*
X85656Y-58609D01*
X85694Y-58590D01*
X85525Y-58459D02*
X85563Y-58478D01*
X85638Y-58478D01*
X85675Y-58459D01*
X85694Y-58440D01*
X85713Y-58403D01*
X85713Y-58290D01*
X85694Y-58253D01*
X85675Y-58234D01*
X85638Y-58215D01*
X85563Y-58215D01*
X85525Y-58234D01*
X85338Y-58440D02*
X85319Y-58459D01*
X85338Y-58478D01*
X85356Y-58459D01*
X85338Y-58440D01*
X85338Y-58478D01*
X84888Y-58084D02*
X84644Y-58084D01*
X84775Y-58234D01*
X84719Y-58234D01*
X84682Y-58253D01*
X84663Y-58271D01*
X84644Y-58309D01*
X84644Y-58403D01*
X84663Y-58440D01*
X84682Y-58459D01*
X84719Y-58478D01*
X84832Y-58478D01*
X84869Y-58459D01*
X84888Y-58440D01*
X84475Y-58440D02*
X84457Y-58459D01*
X84475Y-58478D01*
X84494Y-58459D01*
X84475Y-58440D01*
X84475Y-58478D01*
X84325Y-58084D02*
X84082Y-58084D01*
X84213Y-58234D01*
X84157Y-58234D01*
X84119Y-58253D01*
X84100Y-58271D01*
X84082Y-58309D01*
X84082Y-58403D01*
X84100Y-58440D01*
X84119Y-58459D01*
X84157Y-58478D01*
X84269Y-58478D01*
X84307Y-58459D01*
X84325Y-58440D01*
X83969Y-58084D02*
X83838Y-58478D01*
X83707Y-58084D01*
X91262Y-58734D02*
X91131Y-59127D01*
X91000Y-58734D01*
X90737Y-58921D02*
X90681Y-58940D01*
X90662Y-58958D01*
X90643Y-58996D01*
X90643Y-59052D01*
X90662Y-59090D01*
X90681Y-59108D01*
X90718Y-59127D01*
X90868Y-59127D01*
X90868Y-58734D01*
X90737Y-58734D01*
X90700Y-58752D01*
X90681Y-58771D01*
X90662Y-58808D01*
X90662Y-58846D01*
X90681Y-58883D01*
X90700Y-58902D01*
X90737Y-58921D01*
X90868Y-58921D01*
X90475Y-58734D02*
X90475Y-59052D01*
X90456Y-59090D01*
X90437Y-59108D01*
X90400Y-59127D01*
X90325Y-59127D01*
X90287Y-59108D01*
X90268Y-59090D01*
X90250Y-59052D01*
X90250Y-58734D01*
X90081Y-59108D02*
X90025Y-59127D01*
X89931Y-59127D01*
X89893Y-59108D01*
X89875Y-59090D01*
X89856Y-59052D01*
X89856Y-59015D01*
X89875Y-58977D01*
X89893Y-58958D01*
X89931Y-58940D01*
X90006Y-58921D01*
X90043Y-58902D01*
X90062Y-58883D01*
X90081Y-58846D01*
X90081Y-58808D01*
X90062Y-58771D01*
X90043Y-58752D01*
X90006Y-58734D01*
X89912Y-58734D01*
X89856Y-58752D01*
X89331Y-59127D02*
X89368Y-59108D01*
X89387Y-59090D01*
X89406Y-59052D01*
X89406Y-58940D01*
X89387Y-58902D01*
X89368Y-58883D01*
X89331Y-58865D01*
X89275Y-58865D01*
X89237Y-58883D01*
X89219Y-58902D01*
X89200Y-58940D01*
X89200Y-59052D01*
X89219Y-59090D01*
X89237Y-59108D01*
X89275Y-59127D01*
X89331Y-59127D01*
X89031Y-59127D02*
X89031Y-58865D01*
X89031Y-58940D02*
X89012Y-58902D01*
X88994Y-58883D01*
X88956Y-58865D01*
X88919Y-58865D01*
X88544Y-58734D02*
X88412Y-59127D01*
X88281Y-58734D01*
X88150Y-59127D02*
X88150Y-58734D01*
X87962Y-59127D02*
X87962Y-58734D01*
X87737Y-59127D01*
X87737Y-58734D01*
X87250Y-58977D02*
X86950Y-58977D01*
X86763Y-58865D02*
X86463Y-58977D01*
X86763Y-59090D01*
X85750Y-59127D02*
X85881Y-58940D01*
X85975Y-59127D02*
X85975Y-58734D01*
X85825Y-58734D01*
X85788Y-58752D01*
X85769Y-58771D01*
X85750Y-58808D01*
X85750Y-58865D01*
X85769Y-58902D01*
X85788Y-58921D01*
X85825Y-58940D01*
X85975Y-58940D01*
X85431Y-59108D02*
X85469Y-59127D01*
X85544Y-59127D01*
X85581Y-59108D01*
X85600Y-59071D01*
X85600Y-58921D01*
X85581Y-58883D01*
X85544Y-58865D01*
X85469Y-58865D01*
X85431Y-58883D01*
X85413Y-58921D01*
X85413Y-58958D01*
X85600Y-58996D01*
X85075Y-58865D02*
X85075Y-59183D01*
X85094Y-59221D01*
X85113Y-59240D01*
X85150Y-59258D01*
X85207Y-59258D01*
X85244Y-59240D01*
X85075Y-59108D02*
X85113Y-59127D01*
X85188Y-59127D01*
X85225Y-59108D01*
X85244Y-59090D01*
X85263Y-59052D01*
X85263Y-58940D01*
X85244Y-58902D01*
X85225Y-58883D01*
X85188Y-58865D01*
X85113Y-58865D01*
X85075Y-58883D01*
X84888Y-59090D02*
X84869Y-59108D01*
X84888Y-59127D01*
X84907Y-59108D01*
X84888Y-59090D01*
X84888Y-59127D01*
X84438Y-58734D02*
X84194Y-58734D01*
X84325Y-58883D01*
X84269Y-58883D01*
X84232Y-58902D01*
X84213Y-58921D01*
X84194Y-58958D01*
X84194Y-59052D01*
X84213Y-59090D01*
X84232Y-59108D01*
X84269Y-59127D01*
X84382Y-59127D01*
X84419Y-59108D01*
X84438Y-59090D01*
X84025Y-59090D02*
X84007Y-59108D01*
X84025Y-59127D01*
X84044Y-59108D01*
X84025Y-59090D01*
X84025Y-59127D01*
X83875Y-58734D02*
X83632Y-58734D01*
X83763Y-58883D01*
X83707Y-58883D01*
X83669Y-58902D01*
X83650Y-58921D01*
X83632Y-58958D01*
X83632Y-59052D01*
X83650Y-59090D01*
X83669Y-59108D01*
X83707Y-59127D01*
X83819Y-59127D01*
X83857Y-59108D01*
X83875Y-59090D01*
X83519Y-58734D02*
X83388Y-59127D01*
X83257Y-58734D01*
X91037Y-59514D02*
X91037Y-59777D01*
X91131Y-59364D02*
X91225Y-59646D01*
X90981Y-59646D01*
X90831Y-59739D02*
X90812Y-59758D01*
X90831Y-59777D01*
X90850Y-59758D01*
X90831Y-59739D01*
X90831Y-59777D01*
X90681Y-59383D02*
X90418Y-59383D01*
X90587Y-59777D01*
X90081Y-59383D02*
X90268Y-59383D01*
X90287Y-59571D01*
X90268Y-59552D01*
X90231Y-59533D01*
X90137Y-59533D01*
X90100Y-59552D01*
X90081Y-59571D01*
X90062Y-59608D01*
X90062Y-59702D01*
X90081Y-59739D01*
X90100Y-59758D01*
X90137Y-59777D01*
X90231Y-59777D01*
X90268Y-59758D01*
X90287Y-59739D01*
X89950Y-59383D02*
X89818Y-59777D01*
X89687Y-59383D01*
X88956Y-59514D02*
X89256Y-59627D01*
X88956Y-59739D01*
X88525Y-59383D02*
X88394Y-59777D01*
X88262Y-59383D01*
X88131Y-59777D02*
X88131Y-59383D01*
X87944Y-59777D02*
X87944Y-59383D01*
X87719Y-59777D01*
X87719Y-59383D01*
X86931Y-59514D02*
X87231Y-59627D01*
X86931Y-59739D01*
X86256Y-59383D02*
X86444Y-59383D01*
X86463Y-59571D01*
X86444Y-59552D01*
X86406Y-59533D01*
X86313Y-59533D01*
X86275Y-59552D01*
X86256Y-59571D01*
X86238Y-59608D01*
X86238Y-59702D01*
X86256Y-59739D01*
X86275Y-59758D01*
X86313Y-59777D01*
X86406Y-59777D01*
X86444Y-59758D01*
X86463Y-59739D01*
X86069Y-59739D02*
X86050Y-59758D01*
X86069Y-59777D01*
X86088Y-59758D01*
X86069Y-59739D01*
X86069Y-59777D01*
X85900Y-59421D02*
X85881Y-59402D01*
X85844Y-59383D01*
X85750Y-59383D01*
X85713Y-59402D01*
X85694Y-59421D01*
X85675Y-59458D01*
X85675Y-59496D01*
X85694Y-59552D01*
X85919Y-59777D01*
X85675Y-59777D01*
X85319Y-59383D02*
X85506Y-59383D01*
X85525Y-59571D01*
X85506Y-59552D01*
X85469Y-59533D01*
X85375Y-59533D01*
X85338Y-59552D01*
X85319Y-59571D01*
X85300Y-59608D01*
X85300Y-59702D01*
X85319Y-59739D01*
X85338Y-59758D01*
X85375Y-59777D01*
X85469Y-59777D01*
X85506Y-59758D01*
X85525Y-59739D01*
X85188Y-59383D02*
X85057Y-59777D01*
X84925Y-59383D01*
X95696Y-54699D02*
X95715Y-54737D01*
X95715Y-54793D01*
X95696Y-54849D01*
X95659Y-54887D01*
X95621Y-54906D01*
X95546Y-54924D01*
X95490Y-54924D01*
X95415Y-54906D01*
X95378Y-54887D01*
X95340Y-54849D01*
X95321Y-54793D01*
X95321Y-54756D01*
X95340Y-54699D01*
X95359Y-54681D01*
X95490Y-54681D01*
X95490Y-54756D01*
X95321Y-54512D02*
X95715Y-54512D01*
X95321Y-54287D01*
X95715Y-54287D01*
X95321Y-54100D02*
X95715Y-54100D01*
X95715Y-54006D01*
X95696Y-53950D01*
X95659Y-53912D01*
X95621Y-53893D01*
X95546Y-53875D01*
X95490Y-53875D01*
X95415Y-53893D01*
X95378Y-53912D01*
X95340Y-53950D01*
X95321Y-54006D01*
X95321Y-54100D01*
X94715Y-54924D02*
X94321Y-54793D01*
X94715Y-54662D01*
X94321Y-54531D02*
X94715Y-54531D01*
X94715Y-54437D01*
X94696Y-54381D01*
X94659Y-54343D01*
X94621Y-54325D01*
X94546Y-54306D01*
X94490Y-54306D01*
X94415Y-54325D01*
X94378Y-54343D01*
X94340Y-54381D01*
X94321Y-54437D01*
X94321Y-54531D01*
X94321Y-54137D02*
X94715Y-54137D01*
X94715Y-54043D01*
X94696Y-53987D01*
X94659Y-53950D01*
X94621Y-53931D01*
X94546Y-53912D01*
X94490Y-53912D01*
X94415Y-53931D01*
X94378Y-53950D01*
X94340Y-53987D01*
X94321Y-54043D01*
X94321Y-54137D01*
X93321Y-54534D02*
X93509Y-54665D01*
X93321Y-54759D02*
X93715Y-54759D01*
X93715Y-54609D01*
X93696Y-54571D01*
X93678Y-54553D01*
X93640Y-54534D01*
X93584Y-54534D01*
X93546Y-54553D01*
X93528Y-54571D01*
X93509Y-54609D01*
X93509Y-54759D01*
X93434Y-54384D02*
X93434Y-54196D01*
X93321Y-54421D02*
X93715Y-54290D01*
X93321Y-54159D01*
X93584Y-53859D02*
X93321Y-53859D01*
X93734Y-53953D02*
X93453Y-54046D01*
X93453Y-53803D01*
X92321Y-54612D02*
X92509Y-54743D01*
X92321Y-54837D02*
X92715Y-54837D01*
X92715Y-54687D01*
X92696Y-54649D01*
X92678Y-54631D01*
X92640Y-54612D01*
X92584Y-54612D01*
X92546Y-54631D01*
X92528Y-54649D01*
X92509Y-54687D01*
X92509Y-54837D01*
X92528Y-54312D02*
X92509Y-54256D01*
X92490Y-54237D01*
X92453Y-54218D01*
X92396Y-54218D01*
X92359Y-54237D01*
X92340Y-54256D01*
X92321Y-54293D01*
X92321Y-54443D01*
X92715Y-54443D01*
X92715Y-54312D01*
X92696Y-54275D01*
X92678Y-54256D01*
X92640Y-54237D01*
X92603Y-54237D01*
X92565Y-54256D01*
X92546Y-54275D01*
X92528Y-54312D01*
X92528Y-54443D01*
X92715Y-53862D02*
X92715Y-54050D01*
X92528Y-54068D01*
X92546Y-54050D01*
X92565Y-54012D01*
X92565Y-53918D01*
X92546Y-53881D01*
X92528Y-53862D01*
X92490Y-53843D01*
X92396Y-53843D01*
X92359Y-53862D01*
X92340Y-53881D01*
X92321Y-53918D01*
X92321Y-54012D01*
X92340Y-54050D01*
X92359Y-54068D01*
X91321Y-54612D02*
X91509Y-54743D01*
X91321Y-54837D02*
X91715Y-54837D01*
X91715Y-54687D01*
X91696Y-54649D01*
X91678Y-54631D01*
X91640Y-54612D01*
X91584Y-54612D01*
X91546Y-54631D01*
X91528Y-54649D01*
X91509Y-54687D01*
X91509Y-54837D01*
X91528Y-54312D02*
X91509Y-54256D01*
X91490Y-54237D01*
X91453Y-54218D01*
X91396Y-54218D01*
X91359Y-54237D01*
X91340Y-54256D01*
X91321Y-54293D01*
X91321Y-54443D01*
X91715Y-54443D01*
X91715Y-54312D01*
X91696Y-54275D01*
X91678Y-54256D01*
X91640Y-54237D01*
X91603Y-54237D01*
X91565Y-54256D01*
X91546Y-54275D01*
X91528Y-54312D01*
X91528Y-54443D01*
X91715Y-54087D02*
X91715Y-53825D01*
X91321Y-53993D01*
X90321Y-54612D02*
X90509Y-54743D01*
X90321Y-54837D02*
X90715Y-54837D01*
X90715Y-54687D01*
X90696Y-54649D01*
X90678Y-54631D01*
X90640Y-54612D01*
X90584Y-54612D01*
X90546Y-54631D01*
X90528Y-54649D01*
X90509Y-54687D01*
X90509Y-54837D01*
X90528Y-54312D02*
X90509Y-54256D01*
X90490Y-54237D01*
X90453Y-54218D01*
X90396Y-54218D01*
X90359Y-54237D01*
X90340Y-54256D01*
X90321Y-54293D01*
X90321Y-54443D01*
X90715Y-54443D01*
X90715Y-54312D01*
X90696Y-54275D01*
X90678Y-54256D01*
X90640Y-54237D01*
X90603Y-54237D01*
X90565Y-54256D01*
X90546Y-54275D01*
X90528Y-54312D01*
X90528Y-54443D01*
X90546Y-53993D02*
X90565Y-54031D01*
X90584Y-54050D01*
X90621Y-54068D01*
X90640Y-54068D01*
X90678Y-54050D01*
X90696Y-54031D01*
X90715Y-53993D01*
X90715Y-53918D01*
X90696Y-53881D01*
X90678Y-53862D01*
X90640Y-53843D01*
X90621Y-53843D01*
X90584Y-53862D01*
X90565Y-53881D01*
X90546Y-53918D01*
X90546Y-53993D01*
X90528Y-54031D01*
X90509Y-54050D01*
X90471Y-54068D01*
X90396Y-54068D01*
X90359Y-54050D01*
X90340Y-54031D01*
X90321Y-53993D01*
X90321Y-53918D01*
X90340Y-53881D01*
X90359Y-53862D01*
X90396Y-53843D01*
X90471Y-53843D01*
X90509Y-53862D01*
X90528Y-53881D01*
X90546Y-53918D01*
X89321Y-54612D02*
X89509Y-54743D01*
X89321Y-54837D02*
X89715Y-54837D01*
X89715Y-54687D01*
X89696Y-54649D01*
X89678Y-54631D01*
X89640Y-54612D01*
X89584Y-54612D01*
X89546Y-54631D01*
X89528Y-54649D01*
X89509Y-54687D01*
X89509Y-54837D01*
X89528Y-54312D02*
X89509Y-54256D01*
X89490Y-54237D01*
X89453Y-54218D01*
X89396Y-54218D01*
X89359Y-54237D01*
X89340Y-54256D01*
X89321Y-54293D01*
X89321Y-54443D01*
X89715Y-54443D01*
X89715Y-54312D01*
X89696Y-54275D01*
X89678Y-54256D01*
X89640Y-54237D01*
X89603Y-54237D01*
X89565Y-54256D01*
X89546Y-54275D01*
X89528Y-54312D01*
X89528Y-54443D01*
X89321Y-54031D02*
X89321Y-53956D01*
X89340Y-53918D01*
X89359Y-53900D01*
X89415Y-53862D01*
X89490Y-53843D01*
X89640Y-53843D01*
X89678Y-53862D01*
X89696Y-53881D01*
X89715Y-53918D01*
X89715Y-53993D01*
X89696Y-54031D01*
X89678Y-54050D01*
X89640Y-54068D01*
X89546Y-54068D01*
X89509Y-54050D01*
X89490Y-54031D01*
X89471Y-53993D01*
X89471Y-53918D01*
X89490Y-53881D01*
X89509Y-53862D01*
X89546Y-53843D01*
X88321Y-54999D02*
X88509Y-55131D01*
X88321Y-55224D02*
X88715Y-55224D01*
X88715Y-55074D01*
X88696Y-55037D01*
X88678Y-55018D01*
X88640Y-54999D01*
X88584Y-54999D01*
X88546Y-55018D01*
X88528Y-55037D01*
X88509Y-55074D01*
X88509Y-55224D01*
X88528Y-54699D02*
X88509Y-54643D01*
X88490Y-54624D01*
X88453Y-54606D01*
X88396Y-54606D01*
X88359Y-54624D01*
X88340Y-54643D01*
X88321Y-54681D01*
X88321Y-54831D01*
X88715Y-54831D01*
X88715Y-54699D01*
X88696Y-54662D01*
X88678Y-54643D01*
X88640Y-54624D01*
X88603Y-54624D01*
X88565Y-54643D01*
X88546Y-54662D01*
X88528Y-54699D01*
X88528Y-54831D01*
X88321Y-54231D02*
X88321Y-54456D01*
X88321Y-54343D02*
X88715Y-54343D01*
X88659Y-54381D01*
X88621Y-54418D01*
X88603Y-54456D01*
X88715Y-54100D02*
X88715Y-53856D01*
X88565Y-53987D01*
X88565Y-53931D01*
X88546Y-53893D01*
X88528Y-53875D01*
X88490Y-53856D01*
X88396Y-53856D01*
X88359Y-53875D01*
X88340Y-53893D01*
X88321Y-53931D01*
X88321Y-54043D01*
X88340Y-54081D01*
X88359Y-54100D01*
X87321Y-54999D02*
X87509Y-55131D01*
X87321Y-55224D02*
X87715Y-55224D01*
X87715Y-55074D01*
X87696Y-55037D01*
X87678Y-55018D01*
X87640Y-54999D01*
X87584Y-54999D01*
X87546Y-55018D01*
X87528Y-55037D01*
X87509Y-55074D01*
X87509Y-55224D01*
X87528Y-54699D02*
X87509Y-54643D01*
X87490Y-54624D01*
X87453Y-54606D01*
X87396Y-54606D01*
X87359Y-54624D01*
X87340Y-54643D01*
X87321Y-54681D01*
X87321Y-54831D01*
X87715Y-54831D01*
X87715Y-54699D01*
X87696Y-54662D01*
X87678Y-54643D01*
X87640Y-54624D01*
X87603Y-54624D01*
X87565Y-54643D01*
X87546Y-54662D01*
X87528Y-54699D01*
X87528Y-54831D01*
X87321Y-54231D02*
X87321Y-54456D01*
X87321Y-54343D02*
X87715Y-54343D01*
X87659Y-54381D01*
X87621Y-54418D01*
X87603Y-54456D01*
X87584Y-53893D02*
X87321Y-53893D01*
X87734Y-53987D02*
X87453Y-54081D01*
X87453Y-53837D01*
X86321Y-54999D02*
X86509Y-55131D01*
X86321Y-55224D02*
X86715Y-55224D01*
X86715Y-55074D01*
X86696Y-55037D01*
X86678Y-55018D01*
X86640Y-54999D01*
X86584Y-54999D01*
X86546Y-55018D01*
X86528Y-55037D01*
X86509Y-55074D01*
X86509Y-55224D01*
X86528Y-54699D02*
X86509Y-54643D01*
X86490Y-54624D01*
X86453Y-54606D01*
X86396Y-54606D01*
X86359Y-54624D01*
X86340Y-54643D01*
X86321Y-54681D01*
X86321Y-54831D01*
X86715Y-54831D01*
X86715Y-54699D01*
X86696Y-54662D01*
X86678Y-54643D01*
X86640Y-54624D01*
X86603Y-54624D01*
X86565Y-54643D01*
X86546Y-54662D01*
X86528Y-54699D01*
X86528Y-54831D01*
X86321Y-54231D02*
X86321Y-54456D01*
X86321Y-54343D02*
X86715Y-54343D01*
X86659Y-54381D01*
X86621Y-54418D01*
X86603Y-54456D01*
X86715Y-53875D02*
X86715Y-54062D01*
X86528Y-54081D01*
X86546Y-54062D01*
X86565Y-54025D01*
X86565Y-53931D01*
X86546Y-53893D01*
X86528Y-53875D01*
X86490Y-53856D01*
X86396Y-53856D01*
X86359Y-53875D01*
X86340Y-53893D01*
X86321Y-53931D01*
X86321Y-54025D01*
X86340Y-54062D01*
X86359Y-54081D01*
X95696Y-63949D02*
X95715Y-63987D01*
X95715Y-64043D01*
X95696Y-64099D01*
X95659Y-64137D01*
X95621Y-64156D01*
X95546Y-64174D01*
X95490Y-64174D01*
X95415Y-64156D01*
X95378Y-64137D01*
X95340Y-64099D01*
X95321Y-64043D01*
X95321Y-64006D01*
X95340Y-63949D01*
X95359Y-63931D01*
X95490Y-63931D01*
X95490Y-64006D01*
X95321Y-63762D02*
X95715Y-63762D01*
X95321Y-63537D01*
X95715Y-63537D01*
X95321Y-63350D02*
X95715Y-63350D01*
X95715Y-63256D01*
X95696Y-63200D01*
X95659Y-63162D01*
X95621Y-63143D01*
X95546Y-63125D01*
X95490Y-63125D01*
X95415Y-63143D01*
X95378Y-63162D01*
X95340Y-63200D01*
X95321Y-63256D01*
X95321Y-63350D01*
X94715Y-64174D02*
X94321Y-64043D01*
X94715Y-63912D01*
X94321Y-63781D02*
X94715Y-63781D01*
X94715Y-63687D01*
X94696Y-63631D01*
X94659Y-63593D01*
X94621Y-63575D01*
X94546Y-63556D01*
X94490Y-63556D01*
X94415Y-63575D01*
X94378Y-63593D01*
X94340Y-63631D01*
X94321Y-63687D01*
X94321Y-63781D01*
X94321Y-63387D02*
X94715Y-63387D01*
X94715Y-63293D01*
X94696Y-63237D01*
X94659Y-63200D01*
X94621Y-63181D01*
X94546Y-63162D01*
X94490Y-63162D01*
X94415Y-63181D01*
X94378Y-63200D01*
X94340Y-63237D01*
X94321Y-63293D01*
X94321Y-63387D01*
X93321Y-63912D02*
X93509Y-64043D01*
X93321Y-64137D02*
X93715Y-64137D01*
X93715Y-63987D01*
X93696Y-63949D01*
X93678Y-63931D01*
X93640Y-63912D01*
X93584Y-63912D01*
X93546Y-63931D01*
X93528Y-63949D01*
X93509Y-63987D01*
X93509Y-64137D01*
X93528Y-63612D02*
X93509Y-63556D01*
X93490Y-63537D01*
X93453Y-63518D01*
X93396Y-63518D01*
X93359Y-63537D01*
X93340Y-63556D01*
X93321Y-63593D01*
X93321Y-63743D01*
X93715Y-63743D01*
X93715Y-63612D01*
X93696Y-63575D01*
X93678Y-63556D01*
X93640Y-63537D01*
X93603Y-63537D01*
X93565Y-63556D01*
X93546Y-63575D01*
X93528Y-63612D01*
X93528Y-63743D01*
X93584Y-63181D02*
X93321Y-63181D01*
X93734Y-63275D02*
X93453Y-63368D01*
X93453Y-63125D01*
X92321Y-63912D02*
X92509Y-64043D01*
X92321Y-64137D02*
X92715Y-64137D01*
X92715Y-63987D01*
X92696Y-63949D01*
X92678Y-63931D01*
X92640Y-63912D01*
X92584Y-63912D01*
X92546Y-63931D01*
X92528Y-63949D01*
X92509Y-63987D01*
X92509Y-64137D01*
X92528Y-63612D02*
X92509Y-63556D01*
X92490Y-63537D01*
X92453Y-63518D01*
X92396Y-63518D01*
X92359Y-63537D01*
X92340Y-63556D01*
X92321Y-63593D01*
X92321Y-63743D01*
X92715Y-63743D01*
X92715Y-63612D01*
X92696Y-63575D01*
X92678Y-63556D01*
X92640Y-63537D01*
X92603Y-63537D01*
X92565Y-63556D01*
X92546Y-63575D01*
X92528Y-63612D01*
X92528Y-63743D01*
X92715Y-63387D02*
X92715Y-63143D01*
X92565Y-63275D01*
X92565Y-63218D01*
X92546Y-63181D01*
X92528Y-63162D01*
X92490Y-63143D01*
X92396Y-63143D01*
X92359Y-63162D01*
X92340Y-63181D01*
X92321Y-63218D01*
X92321Y-63331D01*
X92340Y-63368D01*
X92359Y-63387D01*
X91321Y-63912D02*
X91509Y-64043D01*
X91321Y-64137D02*
X91715Y-64137D01*
X91715Y-63987D01*
X91696Y-63949D01*
X91678Y-63931D01*
X91640Y-63912D01*
X91584Y-63912D01*
X91546Y-63931D01*
X91528Y-63949D01*
X91509Y-63987D01*
X91509Y-64137D01*
X91528Y-63612D02*
X91509Y-63556D01*
X91490Y-63537D01*
X91453Y-63518D01*
X91396Y-63518D01*
X91359Y-63537D01*
X91340Y-63556D01*
X91321Y-63593D01*
X91321Y-63743D01*
X91715Y-63743D01*
X91715Y-63612D01*
X91696Y-63575D01*
X91678Y-63556D01*
X91640Y-63537D01*
X91603Y-63537D01*
X91565Y-63556D01*
X91546Y-63575D01*
X91528Y-63612D01*
X91528Y-63743D01*
X91678Y-63368D02*
X91696Y-63350D01*
X91715Y-63312D01*
X91715Y-63218D01*
X91696Y-63181D01*
X91678Y-63162D01*
X91640Y-63143D01*
X91603Y-63143D01*
X91546Y-63162D01*
X91321Y-63387D01*
X91321Y-63143D01*
X90321Y-63912D02*
X90509Y-64043D01*
X90321Y-64137D02*
X90715Y-64137D01*
X90715Y-63987D01*
X90696Y-63949D01*
X90678Y-63931D01*
X90640Y-63912D01*
X90584Y-63912D01*
X90546Y-63931D01*
X90528Y-63949D01*
X90509Y-63987D01*
X90509Y-64137D01*
X90528Y-63612D02*
X90509Y-63556D01*
X90490Y-63537D01*
X90453Y-63518D01*
X90396Y-63518D01*
X90359Y-63537D01*
X90340Y-63556D01*
X90321Y-63593D01*
X90321Y-63743D01*
X90715Y-63743D01*
X90715Y-63612D01*
X90696Y-63575D01*
X90678Y-63556D01*
X90640Y-63537D01*
X90603Y-63537D01*
X90565Y-63556D01*
X90546Y-63575D01*
X90528Y-63612D01*
X90528Y-63743D01*
X90321Y-63143D02*
X90321Y-63368D01*
X90321Y-63256D02*
X90715Y-63256D01*
X90659Y-63293D01*
X90621Y-63331D01*
X90603Y-63368D01*
X89321Y-63912D02*
X89509Y-64043D01*
X89321Y-64137D02*
X89715Y-64137D01*
X89715Y-63987D01*
X89696Y-63949D01*
X89678Y-63931D01*
X89640Y-63912D01*
X89584Y-63912D01*
X89546Y-63931D01*
X89528Y-63949D01*
X89509Y-63987D01*
X89509Y-64137D01*
X89528Y-63612D02*
X89509Y-63556D01*
X89490Y-63537D01*
X89453Y-63518D01*
X89396Y-63518D01*
X89359Y-63537D01*
X89340Y-63556D01*
X89321Y-63593D01*
X89321Y-63743D01*
X89715Y-63743D01*
X89715Y-63612D01*
X89696Y-63575D01*
X89678Y-63556D01*
X89640Y-63537D01*
X89603Y-63537D01*
X89565Y-63556D01*
X89546Y-63575D01*
X89528Y-63612D01*
X89528Y-63743D01*
X89715Y-63275D02*
X89715Y-63237D01*
X89696Y-63200D01*
X89678Y-63181D01*
X89640Y-63162D01*
X89565Y-63143D01*
X89471Y-63143D01*
X89396Y-63162D01*
X89359Y-63181D01*
X89340Y-63200D01*
X89321Y-63237D01*
X89321Y-63275D01*
X89340Y-63312D01*
X89359Y-63331D01*
X89396Y-63350D01*
X89471Y-63368D01*
X89565Y-63368D01*
X89640Y-63350D01*
X89678Y-63331D01*
X89696Y-63312D01*
X89715Y-63275D01*
X88321Y-63934D02*
X88509Y-64065D01*
X88321Y-64159D02*
X88715Y-64159D01*
X88715Y-64009D01*
X88696Y-63971D01*
X88678Y-63953D01*
X88640Y-63934D01*
X88584Y-63934D01*
X88546Y-63953D01*
X88528Y-63971D01*
X88509Y-64009D01*
X88509Y-64159D01*
X88434Y-63784D02*
X88434Y-63596D01*
X88321Y-63821D02*
X88715Y-63690D01*
X88321Y-63559D01*
X88715Y-63353D02*
X88715Y-63315D01*
X88696Y-63278D01*
X88678Y-63259D01*
X88640Y-63240D01*
X88565Y-63221D01*
X88471Y-63221D01*
X88396Y-63240D01*
X88359Y-63259D01*
X88340Y-63278D01*
X88321Y-63315D01*
X88321Y-63353D01*
X88340Y-63390D01*
X88359Y-63409D01*
X88396Y-63428D01*
X88471Y-63446D01*
X88565Y-63446D01*
X88640Y-63428D01*
X88678Y-63409D01*
X88696Y-63390D01*
X88715Y-63353D01*
X87321Y-63934D02*
X87509Y-64065D01*
X87321Y-64159D02*
X87715Y-64159D01*
X87715Y-64009D01*
X87696Y-63971D01*
X87678Y-63953D01*
X87640Y-63934D01*
X87584Y-63934D01*
X87546Y-63953D01*
X87528Y-63971D01*
X87509Y-64009D01*
X87509Y-64159D01*
X87434Y-63784D02*
X87434Y-63596D01*
X87321Y-63821D02*
X87715Y-63690D01*
X87321Y-63559D01*
X87321Y-63221D02*
X87321Y-63446D01*
X87321Y-63334D02*
X87715Y-63334D01*
X87659Y-63371D01*
X87621Y-63409D01*
X87603Y-63446D01*
X86321Y-64184D02*
X86715Y-64184D01*
X86434Y-64053D01*
X86715Y-63921D01*
X86321Y-63921D01*
X86359Y-63509D02*
X86340Y-63528D01*
X86321Y-63584D01*
X86321Y-63621D01*
X86340Y-63678D01*
X86378Y-63715D01*
X86415Y-63734D01*
X86490Y-63753D01*
X86546Y-63753D01*
X86621Y-63734D01*
X86659Y-63715D01*
X86696Y-63678D01*
X86715Y-63621D01*
X86715Y-63584D01*
X86696Y-63528D01*
X86678Y-63509D01*
X86321Y-63153D02*
X86321Y-63340D01*
X86715Y-63340D01*
X86321Y-62796D02*
X86509Y-62928D01*
X86321Y-63021D02*
X86715Y-63021D01*
X86715Y-62871D01*
X86696Y-62834D01*
X86678Y-62815D01*
X86640Y-62796D01*
X86584Y-62796D01*
X86546Y-62815D01*
X86528Y-62834D01*
X86509Y-62871D01*
X86509Y-63021D01*
G54D12*
X81415Y-63161D02*
X81021Y-63068D01*
X81303Y-62993D01*
X81021Y-62918D01*
X81415Y-62824D01*
X81415Y-62712D02*
X81021Y-62618D01*
X81303Y-62543D01*
X81021Y-62468D01*
X81415Y-62374D01*
X81415Y-62262D02*
X81021Y-62168D01*
X81303Y-62093D01*
X81021Y-62018D01*
X81415Y-61924D01*
X81059Y-61774D02*
X81040Y-61755D01*
X81021Y-61774D01*
X81040Y-61793D01*
X81059Y-61774D01*
X81021Y-61774D01*
X81021Y-61587D02*
X81415Y-61587D01*
X81415Y-61437D01*
X81396Y-61399D01*
X81378Y-61380D01*
X81340Y-61362D01*
X81284Y-61362D01*
X81246Y-61380D01*
X81228Y-61399D01*
X81209Y-61437D01*
X81209Y-61587D01*
X81021Y-61193D02*
X81415Y-61193D01*
X81021Y-61005D02*
X81415Y-61005D01*
X81021Y-60781D01*
X81415Y-60781D01*
X81396Y-60387D02*
X81415Y-60424D01*
X81415Y-60481D01*
X81396Y-60537D01*
X81359Y-60574D01*
X81321Y-60593D01*
X81246Y-60612D01*
X81190Y-60612D01*
X81115Y-60593D01*
X81078Y-60574D01*
X81040Y-60537D01*
X81021Y-60481D01*
X81021Y-60443D01*
X81040Y-60387D01*
X81059Y-60368D01*
X81190Y-60368D01*
X81190Y-60443D01*
X81415Y-60199D02*
X81096Y-60199D01*
X81059Y-60181D01*
X81040Y-60162D01*
X81021Y-60124D01*
X81021Y-60049D01*
X81040Y-60012D01*
X81059Y-59993D01*
X81096Y-59974D01*
X81415Y-59974D01*
X81021Y-59787D02*
X81415Y-59787D01*
X81021Y-59599D02*
X81415Y-59599D01*
X81021Y-59374D01*
X81415Y-59374D01*
X81415Y-59112D02*
X81415Y-59037D01*
X81396Y-59000D01*
X81359Y-58962D01*
X81284Y-58943D01*
X81153Y-58943D01*
X81078Y-58962D01*
X81040Y-59000D01*
X81021Y-59037D01*
X81021Y-59112D01*
X81040Y-59149D01*
X81078Y-59187D01*
X81153Y-59206D01*
X81284Y-59206D01*
X81359Y-59187D01*
X81396Y-59149D01*
X81415Y-59112D01*
X81059Y-58775D02*
X81040Y-58756D01*
X81021Y-58775D01*
X81040Y-58793D01*
X81059Y-58775D01*
X81021Y-58775D01*
X81059Y-58362D02*
X81040Y-58381D01*
X81021Y-58437D01*
X81021Y-58475D01*
X81040Y-58531D01*
X81078Y-58568D01*
X81115Y-58587D01*
X81190Y-58606D01*
X81246Y-58606D01*
X81321Y-58587D01*
X81359Y-58568D01*
X81396Y-58531D01*
X81415Y-58475D01*
X81415Y-58437D01*
X81396Y-58381D01*
X81378Y-58362D01*
X81059Y-57968D02*
X81040Y-57987D01*
X81021Y-58043D01*
X81021Y-58081D01*
X81040Y-58137D01*
X81078Y-58175D01*
X81115Y-58193D01*
X81190Y-58212D01*
X81246Y-58212D01*
X81321Y-58193D01*
X81359Y-58175D01*
X81396Y-58137D01*
X81415Y-58081D01*
X81415Y-58043D01*
X81396Y-57987D01*
X81378Y-57968D01*
X81434Y-57518D02*
X80928Y-57856D01*
X81415Y-57425D02*
X81415Y-57181D01*
X81265Y-57312D01*
X81265Y-57256D01*
X81246Y-57218D01*
X81228Y-57200D01*
X81190Y-57181D01*
X81096Y-57181D01*
X81059Y-57200D01*
X81040Y-57218D01*
X81021Y-57256D01*
X81021Y-57368D01*
X81040Y-57406D01*
X81059Y-57425D01*
X81378Y-57031D02*
X81396Y-57012D01*
X81415Y-56975D01*
X81415Y-56881D01*
X81396Y-56844D01*
X81378Y-56825D01*
X81340Y-56806D01*
X81303Y-56806D01*
X81246Y-56825D01*
X81021Y-57050D01*
X81021Y-56806D01*
X81021Y-56637D02*
X81415Y-56637D01*
X81134Y-56506D01*
X81415Y-56375D01*
X81021Y-56375D01*
X81415Y-56225D02*
X81021Y-55962D01*
X81415Y-55962D02*
X81021Y-56225D01*
X81378Y-55831D02*
X81396Y-55812D01*
X81415Y-55775D01*
X81415Y-55681D01*
X81396Y-55644D01*
X81378Y-55625D01*
X81340Y-55606D01*
X81303Y-55606D01*
X81246Y-55625D01*
X81021Y-55850D01*
X81021Y-55606D01*
X81415Y-55250D02*
X81415Y-55437D01*
X81228Y-55456D01*
X81246Y-55437D01*
X81265Y-55400D01*
X81265Y-55306D01*
X81246Y-55269D01*
X81228Y-55250D01*
X81190Y-55231D01*
X81096Y-55231D01*
X81059Y-55250D01*
X81040Y-55269D01*
X81021Y-55306D01*
X81021Y-55400D01*
X81040Y-55437D01*
X81059Y-55456D01*
X81415Y-54988D02*
X81415Y-54950D01*
X81396Y-54913D01*
X81378Y-54894D01*
X81340Y-54875D01*
X81265Y-54856D01*
X81171Y-54856D01*
X81096Y-54875D01*
X81059Y-54894D01*
X81040Y-54913D01*
X81021Y-54950D01*
X81021Y-54988D01*
X81040Y-55025D01*
X81059Y-55044D01*
X81096Y-55062D01*
X81171Y-55081D01*
X81265Y-55081D01*
X81340Y-55062D01*
X81378Y-55044D01*
X81396Y-55025D01*
X81415Y-54988D01*
X80785Y-64586D02*
X80785Y-64511D01*
X80766Y-64474D01*
X80729Y-64436D01*
X80654Y-64418D01*
X80523Y-64418D01*
X80448Y-64436D01*
X80410Y-64474D01*
X80391Y-64511D01*
X80391Y-64586D01*
X80410Y-64624D01*
X80448Y-64661D01*
X80523Y-64680D01*
X80654Y-64680D01*
X80729Y-64661D01*
X80766Y-64624D01*
X80785Y-64586D01*
X80654Y-64249D02*
X80260Y-64249D01*
X80635Y-64249D02*
X80654Y-64211D01*
X80654Y-64136D01*
X80635Y-64099D01*
X80616Y-64080D01*
X80579Y-64061D01*
X80466Y-64061D01*
X80429Y-64080D01*
X80410Y-64099D01*
X80391Y-64136D01*
X80391Y-64211D01*
X80410Y-64249D01*
X80410Y-63743D02*
X80391Y-63780D01*
X80391Y-63855D01*
X80410Y-63893D01*
X80448Y-63911D01*
X80598Y-63911D01*
X80635Y-63893D01*
X80654Y-63855D01*
X80654Y-63780D01*
X80635Y-63743D01*
X80598Y-63724D01*
X80560Y-63724D01*
X80523Y-63911D01*
X80654Y-63555D02*
X80391Y-63555D01*
X80616Y-63555D02*
X80635Y-63536D01*
X80654Y-63499D01*
X80654Y-63443D01*
X80635Y-63405D01*
X80598Y-63386D01*
X80391Y-63386D01*
X80598Y-62899D02*
X80598Y-62768D01*
X80391Y-62712D02*
X80391Y-62899D01*
X80785Y-62899D01*
X80785Y-62712D01*
X80391Y-62487D02*
X80410Y-62524D01*
X80448Y-62543D01*
X80785Y-62543D01*
X80410Y-62187D02*
X80391Y-62224D01*
X80391Y-62299D01*
X80410Y-62337D01*
X80448Y-62355D01*
X80598Y-62355D01*
X80635Y-62337D01*
X80654Y-62299D01*
X80654Y-62224D01*
X80635Y-62187D01*
X80598Y-62168D01*
X80560Y-62168D01*
X80523Y-62355D01*
X80410Y-61830D02*
X80391Y-61868D01*
X80391Y-61943D01*
X80410Y-61980D01*
X80429Y-61999D01*
X80466Y-62018D01*
X80579Y-62018D01*
X80616Y-61999D01*
X80635Y-61980D01*
X80654Y-61943D01*
X80654Y-61868D01*
X80635Y-61830D01*
X80654Y-61718D02*
X80654Y-61568D01*
X80785Y-61662D02*
X80448Y-61662D01*
X80410Y-61643D01*
X80391Y-61605D01*
X80391Y-61568D01*
X80391Y-61437D02*
X80654Y-61437D01*
X80579Y-61437D02*
X80616Y-61418D01*
X80635Y-61399D01*
X80654Y-61362D01*
X80654Y-61324D01*
X80391Y-61137D02*
X80410Y-61174D01*
X80429Y-61193D01*
X80466Y-61212D01*
X80579Y-61212D01*
X80616Y-61193D01*
X80635Y-61174D01*
X80654Y-61137D01*
X80654Y-61080D01*
X80635Y-61043D01*
X80616Y-61024D01*
X80579Y-61005D01*
X80466Y-61005D01*
X80429Y-61024D01*
X80410Y-61043D01*
X80391Y-61080D01*
X80391Y-61137D01*
X80654Y-60837D02*
X80391Y-60837D01*
X80616Y-60837D02*
X80635Y-60818D01*
X80654Y-60781D01*
X80654Y-60724D01*
X80635Y-60687D01*
X80598Y-60668D01*
X80391Y-60668D01*
X80391Y-60481D02*
X80654Y-60481D01*
X80785Y-60481D02*
X80766Y-60499D01*
X80748Y-60481D01*
X80766Y-60462D01*
X80785Y-60481D01*
X80748Y-60481D01*
X80410Y-60124D02*
X80391Y-60162D01*
X80391Y-60237D01*
X80410Y-60274D01*
X80429Y-60293D01*
X80466Y-60312D01*
X80579Y-60312D01*
X80616Y-60293D01*
X80635Y-60274D01*
X80654Y-60237D01*
X80654Y-60162D01*
X80635Y-60124D01*
X80410Y-59974D02*
X80391Y-59937D01*
X80391Y-59862D01*
X80410Y-59824D01*
X80448Y-59806D01*
X80466Y-59806D01*
X80504Y-59824D01*
X80523Y-59862D01*
X80523Y-59918D01*
X80541Y-59956D01*
X80579Y-59974D01*
X80598Y-59974D01*
X80635Y-59956D01*
X80654Y-59918D01*
X80654Y-59862D01*
X80635Y-59824D01*
X80391Y-59337D02*
X80785Y-59337D01*
X80785Y-59187D01*
X80766Y-59149D01*
X80748Y-59131D01*
X80710Y-59112D01*
X80654Y-59112D01*
X80616Y-59131D01*
X80598Y-59149D01*
X80579Y-59187D01*
X80579Y-59337D01*
X80391Y-58943D02*
X80654Y-58943D01*
X80579Y-58943D02*
X80616Y-58925D01*
X80635Y-58906D01*
X80654Y-58868D01*
X80654Y-58831D01*
X80391Y-58643D02*
X80410Y-58681D01*
X80429Y-58700D01*
X80466Y-58718D01*
X80579Y-58718D01*
X80616Y-58700D01*
X80635Y-58681D01*
X80654Y-58643D01*
X80654Y-58587D01*
X80635Y-58550D01*
X80616Y-58531D01*
X80579Y-58512D01*
X80466Y-58512D01*
X80429Y-58531D01*
X80410Y-58550D01*
X80391Y-58587D01*
X80391Y-58643D01*
X80654Y-58400D02*
X80654Y-58250D01*
X80785Y-58343D02*
X80448Y-58343D01*
X80410Y-58325D01*
X80391Y-58287D01*
X80391Y-58250D01*
X80391Y-58062D02*
X80410Y-58100D01*
X80429Y-58118D01*
X80466Y-58137D01*
X80579Y-58137D01*
X80616Y-58118D01*
X80635Y-58100D01*
X80654Y-58062D01*
X80654Y-58006D01*
X80635Y-57968D01*
X80616Y-57950D01*
X80579Y-57931D01*
X80466Y-57931D01*
X80429Y-57950D01*
X80410Y-57968D01*
X80391Y-58006D01*
X80391Y-58062D01*
X80654Y-57818D02*
X80654Y-57668D01*
X80785Y-57762D02*
X80448Y-57762D01*
X80410Y-57743D01*
X80391Y-57706D01*
X80391Y-57668D01*
X80654Y-57575D02*
X80391Y-57481D01*
X80654Y-57387D02*
X80391Y-57481D01*
X80298Y-57518D01*
X80279Y-57537D01*
X80260Y-57575D01*
X80654Y-57237D02*
X80260Y-57237D01*
X80635Y-57237D02*
X80654Y-57200D01*
X80654Y-57125D01*
X80635Y-57087D01*
X80616Y-57068D01*
X80579Y-57050D01*
X80466Y-57050D01*
X80429Y-57068D01*
X80410Y-57087D01*
X80391Y-57125D01*
X80391Y-57200D01*
X80410Y-57237D01*
X80391Y-56881D02*
X80654Y-56881D01*
X80785Y-56881D02*
X80766Y-56900D01*
X80748Y-56881D01*
X80766Y-56862D01*
X80785Y-56881D01*
X80748Y-56881D01*
X80654Y-56694D02*
X80391Y-56694D01*
X80616Y-56694D02*
X80635Y-56675D01*
X80654Y-56637D01*
X80654Y-56581D01*
X80635Y-56544D01*
X80598Y-56525D01*
X80391Y-56525D01*
X80654Y-56169D02*
X80335Y-56169D01*
X80298Y-56187D01*
X80279Y-56206D01*
X80260Y-56244D01*
X80260Y-56300D01*
X80279Y-56337D01*
X80410Y-56169D02*
X80391Y-56206D01*
X80391Y-56281D01*
X80410Y-56319D01*
X80429Y-56337D01*
X80466Y-56356D01*
X80579Y-56356D01*
X80616Y-56337D01*
X80635Y-56319D01*
X80654Y-56281D01*
X80654Y-56206D01*
X80635Y-56169D01*
X80391Y-55681D02*
X80785Y-55681D01*
X80785Y-55531D01*
X80766Y-55494D01*
X80748Y-55475D01*
X80710Y-55456D01*
X80654Y-55456D01*
X80616Y-55475D01*
X80598Y-55494D01*
X80579Y-55531D01*
X80579Y-55681D01*
X80391Y-55231D02*
X80410Y-55269D01*
X80448Y-55287D01*
X80785Y-55287D01*
X80391Y-54913D02*
X80598Y-54913D01*
X80635Y-54931D01*
X80654Y-54969D01*
X80654Y-55044D01*
X80635Y-55081D01*
X80410Y-54913D02*
X80391Y-54950D01*
X80391Y-55044D01*
X80410Y-55081D01*
X80448Y-55100D01*
X80485Y-55100D01*
X80523Y-55081D01*
X80541Y-55044D01*
X80541Y-54950D01*
X80560Y-54913D01*
X80654Y-54781D02*
X80654Y-54631D01*
X80785Y-54725D02*
X80448Y-54725D01*
X80410Y-54706D01*
X80391Y-54669D01*
X80391Y-54631D01*
X80654Y-54556D02*
X80654Y-54406D01*
X80391Y-54500D02*
X80729Y-54500D01*
X80766Y-54481D01*
X80785Y-54444D01*
X80785Y-54406D01*
X80391Y-54219D02*
X80410Y-54256D01*
X80429Y-54275D01*
X80466Y-54294D01*
X80579Y-54294D01*
X80616Y-54275D01*
X80635Y-54256D01*
X80654Y-54219D01*
X80654Y-54163D01*
X80635Y-54125D01*
X80616Y-54106D01*
X80579Y-54088D01*
X80466Y-54088D01*
X80429Y-54106D01*
X80410Y-54125D01*
X80391Y-54163D01*
X80391Y-54219D01*
X80391Y-53919D02*
X80654Y-53919D01*
X80579Y-53919D02*
X80616Y-53900D01*
X80635Y-53881D01*
X80654Y-53844D01*
X80654Y-53806D01*
X80391Y-53675D02*
X80654Y-53675D01*
X80616Y-53675D02*
X80635Y-53656D01*
X80654Y-53619D01*
X80654Y-53563D01*
X80635Y-53525D01*
X80598Y-53506D01*
X80391Y-53506D01*
X80598Y-53506D02*
X80635Y-53488D01*
X80654Y-53450D01*
X80654Y-53394D01*
X80635Y-53356D01*
X80598Y-53338D01*
X80391Y-53338D01*
X79762Y-63040D02*
X80155Y-63040D01*
X80155Y-62946D01*
X80137Y-62890D01*
X80099Y-62852D01*
X80062Y-62833D01*
X79987Y-62815D01*
X79930Y-62815D01*
X79855Y-62833D01*
X79818Y-62852D01*
X79780Y-62890D01*
X79762Y-62946D01*
X79762Y-63040D01*
X79780Y-62496D02*
X79762Y-62533D01*
X79762Y-62608D01*
X79780Y-62646D01*
X79818Y-62665D01*
X79968Y-62665D01*
X80005Y-62646D01*
X80024Y-62608D01*
X80024Y-62533D01*
X80005Y-62496D01*
X79968Y-62477D01*
X79930Y-62477D01*
X79893Y-62665D01*
X79780Y-62327D02*
X79762Y-62290D01*
X79762Y-62215D01*
X79780Y-62177D01*
X79818Y-62158D01*
X79837Y-62158D01*
X79874Y-62177D01*
X79893Y-62215D01*
X79893Y-62271D01*
X79912Y-62308D01*
X79949Y-62327D01*
X79968Y-62327D01*
X80005Y-62308D01*
X80024Y-62271D01*
X80024Y-62215D01*
X80005Y-62177D01*
X79762Y-61990D02*
X80024Y-61990D01*
X80155Y-61990D02*
X80137Y-62008D01*
X80118Y-61990D01*
X80137Y-61971D01*
X80155Y-61990D01*
X80118Y-61990D01*
X80024Y-61634D02*
X79705Y-61634D01*
X79668Y-61652D01*
X79649Y-61671D01*
X79630Y-61709D01*
X79630Y-61765D01*
X79649Y-61802D01*
X79780Y-61634D02*
X79762Y-61671D01*
X79762Y-61746D01*
X79780Y-61784D01*
X79799Y-61802D01*
X79837Y-61821D01*
X79949Y-61821D01*
X79987Y-61802D01*
X80005Y-61784D01*
X80024Y-61746D01*
X80024Y-61671D01*
X80005Y-61634D01*
X80024Y-61446D02*
X79762Y-61446D01*
X79987Y-61446D02*
X80005Y-61427D01*
X80024Y-61390D01*
X80024Y-61334D01*
X80005Y-61296D01*
X79968Y-61277D01*
X79762Y-61277D01*
X79780Y-60940D02*
X79762Y-60977D01*
X79762Y-61052D01*
X79780Y-61090D01*
X79818Y-61109D01*
X79968Y-61109D01*
X80005Y-61090D01*
X80024Y-61052D01*
X80024Y-60977D01*
X80005Y-60940D01*
X79968Y-60921D01*
X79930Y-60921D01*
X79893Y-61109D01*
X79762Y-60584D02*
X80155Y-60584D01*
X79780Y-60584D02*
X79762Y-60621D01*
X79762Y-60696D01*
X79780Y-60734D01*
X79799Y-60752D01*
X79837Y-60771D01*
X79949Y-60771D01*
X79987Y-60752D01*
X80005Y-60734D01*
X80024Y-60696D01*
X80024Y-60621D01*
X80005Y-60584D01*
X79762Y-60096D02*
X80155Y-60096D01*
X80005Y-60096D02*
X80024Y-60059D01*
X80024Y-59984D01*
X80005Y-59946D01*
X79987Y-59928D01*
X79949Y-59909D01*
X79837Y-59909D01*
X79799Y-59928D01*
X79780Y-59946D01*
X79762Y-59984D01*
X79762Y-60059D01*
X79780Y-60096D01*
X80024Y-59778D02*
X79762Y-59684D01*
X80024Y-59590D02*
X79762Y-59684D01*
X79668Y-59721D01*
X79649Y-59740D01*
X79630Y-59778D01*
X79780Y-59159D02*
X79762Y-59103D01*
X79762Y-59009D01*
X79780Y-58971D01*
X79799Y-58953D01*
X79837Y-58934D01*
X79874Y-58934D01*
X79912Y-58953D01*
X79930Y-58971D01*
X79949Y-59009D01*
X79968Y-59084D01*
X79987Y-59121D01*
X80005Y-59140D01*
X80043Y-59159D01*
X80080Y-59159D01*
X80118Y-59140D01*
X80137Y-59121D01*
X80155Y-59084D01*
X80155Y-58990D01*
X80137Y-58934D01*
X79780Y-58615D02*
X79762Y-58653D01*
X79762Y-58728D01*
X79780Y-58765D01*
X79818Y-58784D01*
X79968Y-58784D01*
X80005Y-58765D01*
X80024Y-58728D01*
X80024Y-58653D01*
X80005Y-58615D01*
X79968Y-58596D01*
X79930Y-58596D01*
X79893Y-58784D01*
X79762Y-58259D02*
X79968Y-58259D01*
X80005Y-58278D01*
X80024Y-58315D01*
X80024Y-58390D01*
X80005Y-58428D01*
X79780Y-58259D02*
X79762Y-58296D01*
X79762Y-58390D01*
X79780Y-58428D01*
X79818Y-58446D01*
X79855Y-58446D01*
X79893Y-58428D01*
X79912Y-58390D01*
X79912Y-58296D01*
X79930Y-58259D01*
X79762Y-58071D02*
X80155Y-58071D01*
X79780Y-57715D02*
X79762Y-57753D01*
X79762Y-57828D01*
X79780Y-57865D01*
X79799Y-57884D01*
X79837Y-57903D01*
X79949Y-57903D01*
X79987Y-57884D01*
X80005Y-57865D01*
X80024Y-57828D01*
X80024Y-57753D01*
X80005Y-57715D01*
X79780Y-57397D02*
X79762Y-57434D01*
X79762Y-57509D01*
X79780Y-57547D01*
X79818Y-57565D01*
X79968Y-57565D01*
X80005Y-57547D01*
X80024Y-57509D01*
X80024Y-57434D01*
X80005Y-57397D01*
X79968Y-57378D01*
X79930Y-57378D01*
X79893Y-57565D01*
X79762Y-57022D02*
X79762Y-57209D01*
X80155Y-57209D01*
X79762Y-56722D02*
X79968Y-56722D01*
X80005Y-56740D01*
X80024Y-56778D01*
X80024Y-56853D01*
X80005Y-56890D01*
X79780Y-56722D02*
X79762Y-56759D01*
X79762Y-56853D01*
X79780Y-56890D01*
X79818Y-56909D01*
X79855Y-56909D01*
X79893Y-56890D01*
X79912Y-56853D01*
X79912Y-56759D01*
X79930Y-56722D01*
X79762Y-56534D02*
X80155Y-56534D01*
X80005Y-56534D02*
X80024Y-56497D01*
X80024Y-56422D01*
X80005Y-56384D01*
X79987Y-56365D01*
X79949Y-56347D01*
X79837Y-56347D01*
X79799Y-56365D01*
X79780Y-56384D01*
X79762Y-56422D01*
X79762Y-56497D01*
X79780Y-56534D01*
X79799Y-56178D02*
X79780Y-56159D01*
X79762Y-56178D01*
X79780Y-56197D01*
X79799Y-56178D01*
X79762Y-56178D01*
X79780Y-55822D02*
X79762Y-55859D01*
X79762Y-55934D01*
X79780Y-55972D01*
X79799Y-55991D01*
X79837Y-56009D01*
X79949Y-56009D01*
X79987Y-55991D01*
X80005Y-55972D01*
X80024Y-55934D01*
X80024Y-55859D01*
X80005Y-55822D01*
X79762Y-55597D02*
X79780Y-55634D01*
X79799Y-55653D01*
X79837Y-55672D01*
X79949Y-55672D01*
X79987Y-55653D01*
X80005Y-55634D01*
X80024Y-55597D01*
X80024Y-55541D01*
X80005Y-55503D01*
X79987Y-55484D01*
X79949Y-55466D01*
X79837Y-55466D01*
X79799Y-55484D01*
X79780Y-55503D01*
X79762Y-55541D01*
X79762Y-55597D01*
X79762Y-55297D02*
X80024Y-55297D01*
X79987Y-55297D02*
X80005Y-55278D01*
X80024Y-55241D01*
X80024Y-55184D01*
X80005Y-55147D01*
X79968Y-55128D01*
X79762Y-55128D01*
X79968Y-55128D02*
X80005Y-55109D01*
X80024Y-55072D01*
X80024Y-55016D01*
X80005Y-54978D01*
X79968Y-54959D01*
X79762Y-54959D01*
G54D13*
X97949Y-59831D02*
X97949Y-60012D01*
X97914Y-59831D02*
X97894Y-59831D01*
X97933Y-59843D02*
X97914Y-59831D01*
X97941Y-59851D02*
X97933Y-59843D01*
X97949Y-59878D02*
X97941Y-59851D01*
X97776Y-60012D02*
X97756Y-60000D01*
X97815Y-60012D02*
X97776Y-60012D01*
X97831Y-60000D02*
X97815Y-60012D01*
X97839Y-59973D02*
X97831Y-60000D01*
X97839Y-59866D02*
X97839Y-59973D01*
X97827Y-59843D02*
X97839Y-59866D01*
X97811Y-59831D02*
X97827Y-59843D01*
X97772Y-59831D02*
X97811Y-59831D01*
X97756Y-59847D02*
X97772Y-59831D01*
X97748Y-59874D02*
X97756Y-59847D01*
X97748Y-59922D02*
X97748Y-59874D01*
X97748Y-59922D02*
X97839Y-59922D01*
X98044Y-59866D02*
X98044Y-60012D01*
X98055Y-59843D02*
X98044Y-59866D01*
X98071Y-59831D02*
X98055Y-59843D01*
X98111Y-59831D02*
X98071Y-59831D01*
X98130Y-59843D02*
X98111Y-59831D01*
X98107Y-59906D02*
X98126Y-59918D01*
X98059Y-59906D02*
X98107Y-59906D01*
X98044Y-59894D02*
X98059Y-59906D01*
X98063Y-60012D02*
X98044Y-59996D01*
X98111Y-60012D02*
X98063Y-60012D01*
X98130Y-59996D02*
X98111Y-60012D01*
X98138Y-59973D02*
X98130Y-59996D01*
X98138Y-59945D02*
X98138Y-59973D01*
X98126Y-59918D02*
X98138Y-59945D01*
X98355Y-59831D02*
X98315Y-60012D01*
X98315Y-60012D02*
X98280Y-59878D01*
X98280Y-59878D02*
X98240Y-60012D01*
X98240Y-60012D02*
X98201Y-59831D01*
X98429Y-60000D02*
X98445Y-60012D01*
X98445Y-60012D02*
X98488Y-60012D01*
X98488Y-60012D02*
X98504Y-60000D01*
X98504Y-60000D02*
X98512Y-59988D01*
X98512Y-59988D02*
X98524Y-59961D01*
X98524Y-59961D02*
X98524Y-59882D01*
X98524Y-59882D02*
X98512Y-59855D01*
X98512Y-59855D02*
X98504Y-59843D01*
X98504Y-59843D02*
X98481Y-59827D01*
X98481Y-59827D02*
X98453Y-59827D01*
X98453Y-59827D02*
X98429Y-59843D01*
X98429Y-59737D02*
X98429Y-60012D01*
X98634Y-59878D02*
X98626Y-59851D01*
X98626Y-59851D02*
X98618Y-59843D01*
X98618Y-59843D02*
X98599Y-59831D01*
X98599Y-59831D02*
X98579Y-59831D01*
X98634Y-59831D02*
X98634Y-60012D01*
X98811Y-59918D02*
X98823Y-59945D01*
X98823Y-59945D02*
X98823Y-59973D01*
X98823Y-59973D02*
X98815Y-59996D01*
X98815Y-59996D02*
X98796Y-60012D01*
X98796Y-60012D02*
X98748Y-60012D01*
X98748Y-60012D02*
X98729Y-59996D01*
X98729Y-59894D02*
X98744Y-59906D01*
X98744Y-59906D02*
X98792Y-59906D01*
X98792Y-59906D02*
X98811Y-59918D01*
X98815Y-59843D02*
X98796Y-59831D01*
X98796Y-59831D02*
X98756Y-59831D01*
X98756Y-59831D02*
X98740Y-59843D01*
X98740Y-59843D02*
X98729Y-59866D01*
X98729Y-59866D02*
X98729Y-60012D01*
X98992Y-59859D02*
X98985Y-59843D01*
X98985Y-59843D02*
X98965Y-59831D01*
X98965Y-59831D02*
X98933Y-59831D01*
X98933Y-59831D02*
X98918Y-59843D01*
X98918Y-59843D02*
X98910Y-59866D01*
X98910Y-59866D02*
X98910Y-60012D01*
X98992Y-59737D02*
X98992Y-60012D01*
X99406Y-59922D02*
X99496Y-59922D01*
X99319Y-59855D02*
X99311Y-59843D01*
X99311Y-59843D02*
X99296Y-59831D01*
X99296Y-59831D02*
X99260Y-59831D01*
X99260Y-59831D02*
X99244Y-59843D01*
X99244Y-59843D02*
X99237Y-59866D01*
X99237Y-59866D02*
X99237Y-60012D01*
X99319Y-59831D02*
X99319Y-60012D01*
X99406Y-59922D02*
X99406Y-59874D01*
X99406Y-59874D02*
X99414Y-59847D01*
X99414Y-59847D02*
X99429Y-59831D01*
X99429Y-59831D02*
X99469Y-59831D01*
X99469Y-59831D02*
X99485Y-59843D01*
X99485Y-59843D02*
X99496Y-59866D01*
X99496Y-59866D02*
X99496Y-59973D01*
X99496Y-59973D02*
X99488Y-60000D01*
X99488Y-60000D02*
X99473Y-60012D01*
X99473Y-60012D02*
X99433Y-60012D01*
X99433Y-60012D02*
X99414Y-60000D01*
X99666Y-59843D02*
X99650Y-59831D01*
X99650Y-59831D02*
X99611Y-59831D01*
X99611Y-59831D02*
X99595Y-59843D01*
X99595Y-59843D02*
X99583Y-59855D01*
X99583Y-59855D02*
X99575Y-59878D01*
X99575Y-59878D02*
X99575Y-59965D01*
X99575Y-59965D02*
X99583Y-59988D01*
X99583Y-59988D02*
X99591Y-60000D01*
X99591Y-60000D02*
X99607Y-60012D01*
X99607Y-60012D02*
X99646Y-60012D01*
X99646Y-60012D02*
X99666Y-60000D01*
X99666Y-60107D02*
X99666Y-59831D01*
X99788Y-59831D02*
X99819Y-59831D01*
X99819Y-59831D02*
X99835Y-59843D01*
X99835Y-59843D02*
X99843Y-59855D01*
X99843Y-59855D02*
X99855Y-59882D01*
X99819Y-60012D02*
X99788Y-60012D01*
X99788Y-60012D02*
X99768Y-60000D01*
X99768Y-60000D02*
X99760Y-59988D01*
X99760Y-59988D02*
X99752Y-59961D01*
X99752Y-59961D02*
X99752Y-59882D01*
X99752Y-59882D02*
X99760Y-59859D01*
X99760Y-59859D02*
X99768Y-59847D01*
X99768Y-59847D02*
X99788Y-59831D01*
X99855Y-59882D02*
X99855Y-59961D01*
X99855Y-59961D02*
X99847Y-59985D01*
X99847Y-59985D02*
X99839Y-59996D01*
X99839Y-59996D02*
X99819Y-60012D01*
G54D14*
G36*
X99396Y-57916D02*
X99386Y-57922D01*
X99363Y-57936D01*
X99330Y-57958D01*
X99291Y-57984D01*
X99252Y-58010D01*
X99220Y-58031D01*
X99198Y-58046D01*
X99188Y-58051D01*
X99183Y-58049D01*
X99165Y-58040D01*
X99138Y-58026D01*
X99122Y-58018D01*
X99098Y-58008D01*
X99085Y-58005D01*
X99083Y-58009D01*
X99074Y-58028D01*
X99060Y-58060D01*
X99042Y-58103D01*
X99020Y-58153D01*
X98998Y-58206D01*
X98975Y-58261D01*
X98953Y-58314D01*
X98934Y-58361D01*
X98918Y-58399D01*
X98908Y-58426D01*
X98904Y-58437D01*
X98905Y-58440D01*
X98918Y-58452D01*
X98939Y-58468D01*
X98986Y-58506D01*
X99032Y-58563D01*
X99060Y-58628D01*
X99069Y-58701D01*
X99061Y-58768D01*
X99035Y-58832D01*
X98990Y-58890D01*
X98935Y-58933D01*
X98871Y-58960D01*
X98800Y-58969D01*
X98732Y-58961D01*
X98666Y-58935D01*
X98608Y-58891D01*
X98583Y-58863D01*
X98549Y-58804D01*
X98530Y-58742D01*
X98528Y-58726D01*
X98531Y-58657D01*
X98551Y-58590D01*
X98588Y-58531D01*
X98639Y-58482D01*
X98645Y-58478D01*
X98668Y-58460D01*
X98684Y-58448D01*
X98696Y-58438D01*
X98608Y-58226D01*
X98594Y-58193D01*
X98570Y-58135D01*
X98549Y-58085D01*
X98532Y-58045D01*
X98520Y-58019D01*
X98515Y-58008D01*
X98515Y-58007D01*
X98507Y-58006D01*
X98491Y-58012D01*
X98461Y-58026D01*
X98442Y-58036D01*
X98419Y-58047D01*
X98409Y-58051D01*
X98400Y-58046D01*
X98379Y-58032D01*
X98347Y-58011D01*
X98309Y-57986D01*
X98273Y-57961D01*
X98240Y-57939D01*
X98216Y-57924D01*
X98204Y-57917D01*
X98202Y-57917D01*
X98192Y-57923D01*
X98173Y-57939D01*
X98144Y-57966D01*
X98103Y-58007D01*
X98097Y-58013D01*
X98063Y-58047D01*
X98036Y-58076D01*
X98018Y-58096D01*
X98011Y-58105D01*
X98011Y-58105D01*
X98017Y-58117D01*
X98032Y-58141D01*
X98054Y-58175D01*
X98081Y-58214D01*
X98151Y-58316D01*
X98113Y-58412D01*
X98101Y-58442D01*
X98086Y-58477D01*
X98075Y-58503D01*
X98069Y-58514D01*
X98059Y-58518D01*
X98032Y-58524D01*
X97994Y-58532D01*
X97949Y-58540D01*
X97905Y-58548D01*
X97866Y-58556D01*
X97838Y-58561D01*
X97825Y-58564D01*
X97822Y-58566D01*
X97819Y-58572D01*
X97818Y-58585D01*
X97817Y-58609D01*
X97816Y-58646D01*
X97816Y-58701D01*
X97816Y-58707D01*
X97817Y-58758D01*
X97818Y-58800D01*
X97819Y-58826D01*
X97821Y-58837D01*
X97821Y-58837D01*
X97833Y-58840D01*
X97861Y-58846D01*
X97900Y-58853D01*
X97947Y-58862D01*
X97950Y-58863D01*
X97996Y-58872D01*
X98035Y-58880D01*
X98063Y-58886D01*
X98074Y-58890D01*
X98077Y-58893D01*
X98086Y-58911D01*
X98099Y-58940D01*
X98115Y-58975D01*
X98130Y-59012D01*
X98143Y-59045D01*
X98152Y-59069D01*
X98155Y-59080D01*
X98154Y-59081D01*
X98147Y-59092D01*
X98131Y-59116D01*
X98109Y-59149D01*
X98082Y-59189D01*
X98080Y-59192D01*
X98053Y-59231D01*
X98031Y-59265D01*
X98017Y-59288D01*
X98011Y-59299D01*
X98011Y-59300D01*
X98020Y-59312D01*
X98040Y-59334D01*
X98069Y-59364D01*
X98103Y-59399D01*
X98114Y-59409D01*
X98153Y-59447D01*
X98179Y-59471D01*
X98196Y-59484D01*
X98204Y-59487D01*
X98204Y-59487D01*
X98216Y-59480D01*
X98241Y-59464D01*
X98274Y-59441D01*
X98314Y-59414D01*
X98317Y-59412D01*
X98356Y-59385D01*
X98389Y-59363D01*
X98412Y-59347D01*
X98423Y-59341D01*
X98424Y-59341D01*
X98440Y-59346D01*
X98468Y-59356D01*
X98503Y-59369D01*
X98539Y-59384D01*
X98572Y-59398D01*
X98597Y-59409D01*
X98609Y-59416D01*
X98609Y-59416D01*
X98613Y-59430D01*
X98620Y-59460D01*
X98628Y-59500D01*
X98638Y-59548D01*
X98639Y-59556D01*
X98648Y-59603D01*
X98655Y-59642D01*
X98661Y-59669D01*
X98664Y-59680D01*
X98670Y-59681D01*
X98693Y-59683D01*
X98728Y-59684D01*
X98771Y-59684D01*
X98815Y-59684D01*
X98858Y-59683D01*
X98895Y-59682D01*
X98922Y-59680D01*
X98933Y-59678D01*
X98933Y-59677D01*
X98937Y-59662D01*
X98944Y-59633D01*
X98952Y-59592D01*
X98961Y-59544D01*
X98963Y-59535D01*
X98972Y-59489D01*
X98980Y-59450D01*
X98985Y-59424D01*
X98988Y-59413D01*
X98993Y-59411D01*
X99012Y-59403D01*
X99043Y-59390D01*
X99082Y-59374D01*
X99172Y-59338D01*
X99283Y-59413D01*
X99293Y-59420D01*
X99333Y-59447D01*
X99365Y-59469D01*
X99388Y-59484D01*
X99397Y-59489D01*
X99398Y-59489D01*
X99409Y-59479D01*
X99431Y-59458D01*
X99461Y-59429D01*
X99496Y-59395D01*
X99521Y-59369D01*
X99552Y-59338D01*
X99571Y-59317D01*
X99582Y-59304D01*
X99585Y-59296D01*
X99584Y-59290D01*
X99577Y-59279D01*
X99561Y-59255D01*
X99538Y-59221D01*
X99511Y-59182D01*
X99489Y-59149D01*
X99465Y-59112D01*
X99450Y-59086D01*
X99444Y-59073D01*
X99446Y-59068D01*
X99453Y-59046D01*
X99467Y-59013D01*
X99483Y-58974D01*
X99522Y-58887D01*
X99579Y-58876D01*
X99614Y-58869D01*
X99662Y-58860D01*
X99709Y-58851D01*
X99781Y-58837D01*
X99784Y-58571D01*
X99773Y-58566D01*
X99762Y-58563D01*
X99735Y-58557D01*
X99697Y-58549D01*
X99651Y-58541D01*
X99613Y-58534D01*
X99574Y-58526D01*
X99546Y-58521D01*
X99534Y-58518D01*
X99530Y-58514D01*
X99521Y-58495D01*
X99507Y-58465D01*
X99491Y-58429D01*
X99476Y-58392D01*
X99462Y-58357D01*
X99453Y-58331D01*
X99449Y-58318D01*
X99454Y-58307D01*
X99469Y-58284D01*
X99490Y-58252D01*
X99517Y-58213D01*
X99543Y-58175D01*
X99566Y-58142D01*
X99581Y-58118D01*
X99588Y-58107D01*
X99584Y-58100D01*
X99569Y-58081D01*
X99540Y-58051D01*
X99496Y-58008D01*
X99489Y-58001D01*
X99455Y-57968D01*
X99426Y-57941D01*
X99405Y-57923D01*
X99396Y-57916D01*
X99396Y-57916D01*
G37*
G36*
X90434Y-52392D02*
X96980Y-52396D01*
X103526Y-52400D01*
X103525Y-55251D01*
X103525Y-55602D01*
X103525Y-55923D01*
X103525Y-56216D01*
X103524Y-56480D01*
X103524Y-56719D01*
X103524Y-56933D01*
X103523Y-57123D01*
X103523Y-57290D01*
X103522Y-57437D01*
X103522Y-57564D01*
X103521Y-57673D01*
X103520Y-57764D01*
X103518Y-57840D01*
X103517Y-57901D01*
X103515Y-57949D01*
X103514Y-57984D01*
X103512Y-58010D01*
X103509Y-58026D01*
X103507Y-58034D01*
X103504Y-58036D01*
X103501Y-58032D01*
X103498Y-58024D01*
X103497Y-58021D01*
X103474Y-57961D01*
X103446Y-57902D01*
X103412Y-57843D01*
X103369Y-57783D01*
X103315Y-57717D01*
X103250Y-57647D01*
X103171Y-57568D01*
X103076Y-57481D01*
X102964Y-57382D01*
X102833Y-57270D01*
X102681Y-57144D01*
X102507Y-57001D01*
X102429Y-56939D01*
X102224Y-56765D01*
X102046Y-56601D01*
X101897Y-56445D01*
X101775Y-56297D01*
X101679Y-56156D01*
X101610Y-56023D01*
X101577Y-55943D01*
X101552Y-55867D01*
X101532Y-55788D01*
X101518Y-55700D01*
X101507Y-55595D01*
X101498Y-55466D01*
X101497Y-55451D01*
X101476Y-55176D01*
X101446Y-54926D01*
X101405Y-54698D01*
X101352Y-54488D01*
X101284Y-54289D01*
X101201Y-54098D01*
X101100Y-53911D01*
X100980Y-53723D01*
X100840Y-53529D01*
X100745Y-53408D01*
X100578Y-53225D01*
X100384Y-53056D01*
X100165Y-52901D01*
X99922Y-52762D01*
X99657Y-52641D01*
X99632Y-52631D01*
X99489Y-52578D01*
X99354Y-52539D01*
X99219Y-52511D01*
X99074Y-52493D01*
X98908Y-52484D01*
X98884Y-52483D01*
X98685Y-52483D01*
X98505Y-52495D01*
X98336Y-52522D01*
X98170Y-52564D01*
X97998Y-52624D01*
X97814Y-52705D01*
X97774Y-52724D01*
X97624Y-52797D01*
X97497Y-52866D01*
X97385Y-52935D01*
X97279Y-53009D01*
X97174Y-53092D01*
X97084Y-53168D01*
X97001Y-53251D01*
X96913Y-53360D01*
X96821Y-53489D01*
X96729Y-53636D01*
X96640Y-53794D01*
X96558Y-53960D01*
X96548Y-53981D01*
X96500Y-54090D01*
X96455Y-54204D01*
X96411Y-54325D01*
X96368Y-54458D01*
X96324Y-54604D01*
X96281Y-54767D01*
X96234Y-54951D01*
X96186Y-55158D01*
X96133Y-55391D01*
X96103Y-55530D01*
X96077Y-55650D01*
X96050Y-55763D01*
X96026Y-55867D01*
X96003Y-55955D01*
X95985Y-56023D01*
X95972Y-56066D01*
X95970Y-56069D01*
X95927Y-56164D01*
X95875Y-56257D01*
X95812Y-56348D01*
X95734Y-56441D01*
X95640Y-56538D01*
X95528Y-56642D01*
X95395Y-56754D01*
X95238Y-56878D01*
X95102Y-56981D01*
X94909Y-57129D01*
X94741Y-57263D01*
X94597Y-57387D01*
X94474Y-57500D01*
X94371Y-57608D01*
X94285Y-57710D01*
X94216Y-57810D01*
X94161Y-57909D01*
X94118Y-58010D01*
X94085Y-58115D01*
X94082Y-58125D01*
X94068Y-58201D01*
X94061Y-58284D01*
X94061Y-58367D01*
X94067Y-58441D01*
X94080Y-58499D01*
X94096Y-58530D01*
X94128Y-58559D01*
X94165Y-58575D01*
X94208Y-58577D01*
X94261Y-58566D01*
X94327Y-58538D01*
X94408Y-58495D01*
X94506Y-58435D01*
X94625Y-58356D01*
X94697Y-58306D01*
X94850Y-58202D01*
X94982Y-58118D01*
X95098Y-58048D01*
X95202Y-57993D01*
X95296Y-57951D01*
X95385Y-57918D01*
X95433Y-57904D01*
X95490Y-57889D01*
X95535Y-57879D01*
X95558Y-57876D01*
X95561Y-57876D01*
X95563Y-57892D01*
X95567Y-57935D01*
X95572Y-58000D01*
X95578Y-58080D01*
X95583Y-58164D01*
X95601Y-58380D01*
X95626Y-58597D01*
X95658Y-58808D01*
X95695Y-59007D01*
X95736Y-59189D01*
X95780Y-59347D01*
X95797Y-59397D01*
X95837Y-59500D01*
X95890Y-59622D01*
X95952Y-59754D01*
X96020Y-59890D01*
X96090Y-60021D01*
X96146Y-60118D01*
X96146Y-58644D01*
X96164Y-58334D01*
X96212Y-58030D01*
X96290Y-57733D01*
X96397Y-57445D01*
X96532Y-57169D01*
X96693Y-56908D01*
X96872Y-56673D01*
X96895Y-56648D01*
X96895Y-55161D01*
X96902Y-55109D01*
X96942Y-54961D01*
X97011Y-54825D01*
X97107Y-54703D01*
X97226Y-54597D01*
X97368Y-54507D01*
X97531Y-54438D01*
X97566Y-54427D01*
X97623Y-54410D01*
X97677Y-54400D01*
X97737Y-54394D01*
X97812Y-54391D01*
X97888Y-54391D01*
X97978Y-54392D01*
X98045Y-54395D01*
X98100Y-54402D01*
X98150Y-54413D01*
X98205Y-54431D01*
X98219Y-54435D01*
X98379Y-54503D01*
X98519Y-54589D01*
X98637Y-54690D01*
X98730Y-54804D01*
X98787Y-54912D01*
X98812Y-54970D01*
X98749Y-54914D01*
X98679Y-54864D01*
X98611Y-54842D01*
X98553Y-54847D01*
X98486Y-54882D01*
X98425Y-54942D01*
X98383Y-55007D01*
X98364Y-55048D01*
X98353Y-55090D01*
X98346Y-55140D01*
X98345Y-55210D01*
X98345Y-55231D01*
X98348Y-55330D01*
X98363Y-55407D01*
X98389Y-55470D01*
X98404Y-55490D01*
X98404Y-55079D01*
X98407Y-55062D01*
X98439Y-54992D01*
X98496Y-54932D01*
X98565Y-54892D01*
X98607Y-54877D01*
X98636Y-54871D01*
X98642Y-54871D01*
X98642Y-54889D01*
X98636Y-54925D01*
X98624Y-54969D01*
X98612Y-55009D01*
X98601Y-55034D01*
X98599Y-55036D01*
X98592Y-55058D01*
X98589Y-55097D01*
X98588Y-55098D01*
X98586Y-55140D01*
X98574Y-55162D01*
X98548Y-55165D01*
X98503Y-55150D01*
X98470Y-55137D01*
X98427Y-55116D01*
X98407Y-55100D01*
X98404Y-55079D01*
X98404Y-55490D01*
X98431Y-55528D01*
X98456Y-55554D01*
X98522Y-55601D01*
X98593Y-55618D01*
X98666Y-55604D01*
X98739Y-55560D01*
X98752Y-55549D01*
X98798Y-55506D01*
X98768Y-55559D01*
X98720Y-55616D01*
X98648Y-55667D01*
X98562Y-55708D01*
X98469Y-55732D01*
X98451Y-55735D01*
X98371Y-55749D01*
X98296Y-55768D01*
X98234Y-55792D01*
X98193Y-55816D01*
X98187Y-55822D01*
X98168Y-55838D01*
X98129Y-55867D01*
X98076Y-55902D01*
X98047Y-55921D01*
X97923Y-56002D01*
X97717Y-56001D01*
X97627Y-56001D01*
X97561Y-55997D01*
X97512Y-55992D01*
X97470Y-55982D01*
X97430Y-55968D01*
X97424Y-55965D01*
X97287Y-55894D01*
X97167Y-55802D01*
X97066Y-55693D01*
X96985Y-55570D01*
X96929Y-55439D01*
X96898Y-55301D01*
X96895Y-55161D01*
X96895Y-56648D01*
X97034Y-56496D01*
X97205Y-56341D01*
X97396Y-56199D01*
X97425Y-56179D01*
X97500Y-56129D01*
X97556Y-56095D01*
X97600Y-56073D01*
X97640Y-56062D01*
X97682Y-56059D01*
X97733Y-56062D01*
X97777Y-56066D01*
X97840Y-56073D01*
X97890Y-56080D01*
X97920Y-56086D01*
X97925Y-56088D01*
X97926Y-56107D01*
X97919Y-56143D01*
X97915Y-56157D01*
X97900Y-56224D01*
X97900Y-56286D01*
X97917Y-56349D01*
X97953Y-56419D01*
X97984Y-56464D01*
X97984Y-56212D01*
X97985Y-56145D01*
X98014Y-56072D01*
X98069Y-55998D01*
X98106Y-55960D01*
X98162Y-55915D01*
X98219Y-55878D01*
X98285Y-55847D01*
X98368Y-55818D01*
X98474Y-55787D01*
X98478Y-55786D01*
X98542Y-55770D01*
X98596Y-55759D01*
X98648Y-55753D01*
X98708Y-55751D01*
X98784Y-55752D01*
X98848Y-55754D01*
X98904Y-55756D01*
X98904Y-54970D01*
X98911Y-54879D01*
X98934Y-54773D01*
X98968Y-54663D01*
X99012Y-54557D01*
X99024Y-54534D01*
X99064Y-54467D01*
X99116Y-54398D01*
X99184Y-54320D01*
X99241Y-54262D01*
X99339Y-54168D01*
X99426Y-54098D01*
X99508Y-54048D01*
X99591Y-54016D01*
X99681Y-53997D01*
X99747Y-53992D01*
X99822Y-53990D01*
X99888Y-53996D01*
X99951Y-54012D01*
X100019Y-54040D01*
X100100Y-54082D01*
X100175Y-54125D01*
X100303Y-54209D01*
X100404Y-54295D01*
X100486Y-54387D01*
X100551Y-54492D01*
X100567Y-54524D01*
X100636Y-54698D01*
X100679Y-54880D01*
X100699Y-55066D01*
X100695Y-55252D01*
X100666Y-55434D01*
X100616Y-55608D01*
X100543Y-55768D01*
X100448Y-55913D01*
X100375Y-55995D01*
X100323Y-56047D01*
X100284Y-56081D01*
X100252Y-56102D01*
X100217Y-56115D01*
X100171Y-56124D01*
X100161Y-56126D01*
X100089Y-56140D01*
X100007Y-56159D01*
X99949Y-56173D01*
X99861Y-56190D01*
X99794Y-56189D01*
X99742Y-56169D01*
X99728Y-56158D01*
X99709Y-56134D01*
X99684Y-56093D01*
X99673Y-56071D01*
X99633Y-56010D01*
X99576Y-55955D01*
X99498Y-55906D01*
X99395Y-55859D01*
X99294Y-55822D01*
X99210Y-55788D01*
X99129Y-55744D01*
X99060Y-55695D01*
X99009Y-55648D01*
X98993Y-55625D01*
X98972Y-55578D01*
X98959Y-55538D01*
X98948Y-55491D01*
X98953Y-55495D01*
X98953Y-55080D01*
X98955Y-55044D01*
X98981Y-54993D01*
X98990Y-54979D01*
X99038Y-54925D01*
X99101Y-54886D01*
X99167Y-54870D01*
X99174Y-54869D01*
X99196Y-54876D01*
X99194Y-54897D01*
X99184Y-54932D01*
X99174Y-54976D01*
X99165Y-55014D01*
X99153Y-55035D01*
X99152Y-55036D01*
X99143Y-55056D01*
X99139Y-55093D01*
X99139Y-55098D01*
X99136Y-55132D01*
X99124Y-55148D01*
X99098Y-55150D01*
X99051Y-55136D01*
X99024Y-55127D01*
X98975Y-55106D01*
X98953Y-55080D01*
X98953Y-55495D01*
X99010Y-55551D01*
X99080Y-55602D01*
X99152Y-55622D01*
X99223Y-55611D01*
X99293Y-55570D01*
X99351Y-55508D01*
X99396Y-55435D01*
X99424Y-55355D01*
X99435Y-55259D01*
X99436Y-55216D01*
X99426Y-55098D01*
X99392Y-54999D01*
X99335Y-54916D01*
X99331Y-54911D01*
X99260Y-54853D01*
X99189Y-54825D01*
X99118Y-54830D01*
X99047Y-54865D01*
X98990Y-54916D01*
X98955Y-54957D01*
X98928Y-54999D01*
X98924Y-55008D01*
X98913Y-55030D01*
X98907Y-55032D01*
X98905Y-55008D01*
X98904Y-54970D01*
X98904Y-55756D01*
X98939Y-55758D01*
X99006Y-55762D01*
X99059Y-55769D01*
X99106Y-55780D01*
X99156Y-55797D01*
X99207Y-55816D01*
X99271Y-55843D01*
X99327Y-55869D01*
X99366Y-55890D01*
X99376Y-55897D01*
X99407Y-55917D01*
X99427Y-55923D01*
X99456Y-55933D01*
X99500Y-55957D01*
X99550Y-55992D01*
X99598Y-56029D01*
X99633Y-56061D01*
X99667Y-56111D01*
X99683Y-56172D01*
X99684Y-56186D01*
X99686Y-56228D01*
X99680Y-56264D01*
X99662Y-56302D01*
X99629Y-56355D01*
X99626Y-56359D01*
X99554Y-56458D01*
X99464Y-56567D01*
X99361Y-56680D01*
X99251Y-56792D01*
X99141Y-56897D01*
X99035Y-56987D01*
X98940Y-57059D01*
X98927Y-57068D01*
X98869Y-57106D01*
X98822Y-57132D01*
X98782Y-57147D01*
X98745Y-57147D01*
X98706Y-57132D01*
X98662Y-57099D01*
X98607Y-57049D01*
X98538Y-56979D01*
X98472Y-56910D01*
X98400Y-56833D01*
X98332Y-56760D01*
X98271Y-56694D01*
X98223Y-56640D01*
X98193Y-56604D01*
X98189Y-56599D01*
X98153Y-56547D01*
X98112Y-56479D01*
X98070Y-56405D01*
X98033Y-56331D01*
X98003Y-56266D01*
X97986Y-56218D01*
X97984Y-56212D01*
X97984Y-56464D01*
X98009Y-56502D01*
X98028Y-56528D01*
X98075Y-56587D01*
X98134Y-56657D01*
X98203Y-56737D01*
X98278Y-56820D01*
X98356Y-56905D01*
X98433Y-56986D01*
X98505Y-57061D01*
X98570Y-57126D01*
X98623Y-57177D01*
X98662Y-57210D01*
X98678Y-57221D01*
X98736Y-57239D01*
X98795Y-57236D01*
X98863Y-57211D01*
X98944Y-57163D01*
X98948Y-57160D01*
X99040Y-57093D01*
X99139Y-57010D01*
X99242Y-56916D01*
X99345Y-56815D01*
X99442Y-56713D01*
X99529Y-56613D01*
X99602Y-56521D01*
X99657Y-56440D01*
X99673Y-56412D01*
X99699Y-56367D01*
X99727Y-56337D01*
X99765Y-56318D01*
X99821Y-56305D01*
X99873Y-56299D01*
X100004Y-56271D01*
X100092Y-56237D01*
X100142Y-56213D01*
X100181Y-56197D01*
X100200Y-56190D01*
X100225Y-56201D01*
X100267Y-56229D01*
X100323Y-56273D01*
X100387Y-56327D01*
X100455Y-56388D01*
X100523Y-56452D01*
X100579Y-56509D01*
X100716Y-56660D01*
X100832Y-56812D01*
X100936Y-56973D01*
X101021Y-57130D01*
X101125Y-57361D01*
X101208Y-57598D01*
X101270Y-57846D01*
X101311Y-58111D01*
X101334Y-58397D01*
X101335Y-58416D01*
X101338Y-58626D01*
X101324Y-58816D01*
X101293Y-58993D01*
X101244Y-59163D01*
X101174Y-59333D01*
X101127Y-59430D01*
X101020Y-59621D01*
X100904Y-59792D01*
X100773Y-59956D01*
X100633Y-60106D01*
X100510Y-60227D01*
X100397Y-60329D01*
X100285Y-60421D01*
X100164Y-60510D01*
X100035Y-60598D01*
X99715Y-60796D01*
X99390Y-60976D01*
X99051Y-61139D01*
X98691Y-61291D01*
X98598Y-61327D01*
X98521Y-61354D01*
X98418Y-61387D01*
X98296Y-61422D01*
X98161Y-61461D01*
X98016Y-61500D01*
X97870Y-61538D01*
X97726Y-61574D01*
X97590Y-61606D01*
X97469Y-61634D01*
X97368Y-61654D01*
X97330Y-61661D01*
X97253Y-61670D01*
X97162Y-61675D01*
X97066Y-61677D01*
X96973Y-61675D01*
X96892Y-61669D01*
X96832Y-61659D01*
X96821Y-61656D01*
X96735Y-61620D01*
X96665Y-61569D01*
X96616Y-61507D01*
X96592Y-61441D01*
X96591Y-61420D01*
X96593Y-61398D01*
X96601Y-61370D01*
X96617Y-61331D01*
X96642Y-61278D01*
X96679Y-61206D01*
X96728Y-61111D01*
X96736Y-61097D01*
X96775Y-61017D01*
X96801Y-60949D01*
X96818Y-60876D01*
X96827Y-60823D01*
X96839Y-60664D01*
X96829Y-60515D01*
X96804Y-60401D01*
X96783Y-60346D01*
X96749Y-60268D01*
X96704Y-60174D01*
X96650Y-60066D01*
X96590Y-59952D01*
X96584Y-59941D01*
X96558Y-59893D01*
X96521Y-59825D01*
X96478Y-59745D01*
X96432Y-59661D01*
X96413Y-59627D01*
X96330Y-59465D01*
X96264Y-59322D01*
X96215Y-59188D01*
X96181Y-59059D01*
X96159Y-58927D01*
X96148Y-58785D01*
X96146Y-58644D01*
X96146Y-60118D01*
X96158Y-60140D01*
X96219Y-60239D01*
X96231Y-60257D01*
X96278Y-60329D01*
X96323Y-60403D01*
X96361Y-60468D01*
X96381Y-60508D01*
X96418Y-60622D01*
X96424Y-60736D01*
X96400Y-60848D01*
X96347Y-60956D01*
X96265Y-61060D01*
X96155Y-61157D01*
X96041Y-61233D01*
X95962Y-61273D01*
X95863Y-61315D01*
X95758Y-61353D01*
X95657Y-61383D01*
X95571Y-61402D01*
X95569Y-61403D01*
X95514Y-61411D01*
X95262Y-61079D01*
X95192Y-60988D01*
X95126Y-60903D01*
X95066Y-60827D01*
X95016Y-60767D01*
X94979Y-60723D01*
X94960Y-60703D01*
X94911Y-60672D01*
X94836Y-60639D01*
X94737Y-60604D01*
X94618Y-60570D01*
X94484Y-60537D01*
X94452Y-60531D01*
X94360Y-60510D01*
X94293Y-60491D01*
X94244Y-60470D01*
X94207Y-60444D01*
X94176Y-60409D01*
X94148Y-60369D01*
X94061Y-60255D01*
X93965Y-60169D01*
X93857Y-60111D01*
X93736Y-60079D01*
X93716Y-60076D01*
X93601Y-60070D01*
X93494Y-60086D01*
X93384Y-60125D01*
X93360Y-60135D01*
X93253Y-60201D01*
X93162Y-60288D01*
X93094Y-60390D01*
X93086Y-60405D01*
X93055Y-60506D01*
X93045Y-60619D01*
X93059Y-60735D01*
X93083Y-60818D01*
X93138Y-60921D01*
X93217Y-61015D01*
X93312Y-61090D01*
X93315Y-61091D01*
X93315Y-60352D01*
X93318Y-60318D01*
X93346Y-60280D01*
X93396Y-60241D01*
X93419Y-60228D01*
X93488Y-60204D01*
X93575Y-60192D01*
X93669Y-60191D01*
X93759Y-60202D01*
X93833Y-60225D01*
X93840Y-60228D01*
X93893Y-60261D01*
X93930Y-60299D01*
X93946Y-60334D01*
X93942Y-60356D01*
X93922Y-60363D01*
X93871Y-60368D01*
X93789Y-60372D01*
X93675Y-60374D01*
X93627Y-60374D01*
X93519Y-60373D01*
X93437Y-60372D01*
X93380Y-60369D01*
X93343Y-60365D01*
X93322Y-60359D01*
X93315Y-60352D01*
X93315Y-61091D01*
X93371Y-61122D01*
X93422Y-61145D01*
X93468Y-61158D01*
X93518Y-61165D01*
X93584Y-61168D01*
X93619Y-61168D01*
X93722Y-61162D01*
X93810Y-61145D01*
X93891Y-61110D01*
X93975Y-61056D01*
X94036Y-61008D01*
X94130Y-60929D01*
X94295Y-60972D01*
X94425Y-61008D01*
X94530Y-61044D01*
X94614Y-61081D01*
X94684Y-61124D01*
X94742Y-61178D01*
X94797Y-61244D01*
X94852Y-61328D01*
X94878Y-61371D01*
X94915Y-61434D01*
X94945Y-61487D01*
X94965Y-61525D01*
X94971Y-61541D01*
X94957Y-61546D01*
X94918Y-61548D01*
X94864Y-61546D01*
X94849Y-61545D01*
X94594Y-61522D01*
X94323Y-61491D01*
X94033Y-61452D01*
X93722Y-61404D01*
X93389Y-61347D01*
X93031Y-61281D01*
X92646Y-61204D01*
X92542Y-61183D01*
X92416Y-61157D01*
X92295Y-61133D01*
X92184Y-61111D01*
X92087Y-61091D01*
X92010Y-61076D01*
X91957Y-61066D01*
X91944Y-61064D01*
X91885Y-61053D01*
X91835Y-61041D01*
X91807Y-61032D01*
X91806Y-61031D01*
X91787Y-61006D01*
X91779Y-60956D01*
X91785Y-60880D01*
X91803Y-60777D01*
X91810Y-60742D01*
X91827Y-60666D01*
X91836Y-60615D01*
X91838Y-60584D01*
X91832Y-60568D01*
X91819Y-60563D01*
X91798Y-60562D01*
X91765Y-60567D01*
X91708Y-60578D01*
X91631Y-60597D01*
X91537Y-60621D01*
X91430Y-60650D01*
X91313Y-60682D01*
X91191Y-60717D01*
X91066Y-60752D01*
X90944Y-60788D01*
X90826Y-60823D01*
X90718Y-60856D01*
X90622Y-60886D01*
X90544Y-60912D01*
X90485Y-60934D01*
X90450Y-60948D01*
X90442Y-60954D01*
X90453Y-60971D01*
X90487Y-61006D01*
X90539Y-61058D01*
X90609Y-61123D01*
X90654Y-61165D01*
X90654Y-61007D01*
X90671Y-60988D01*
X90681Y-60982D01*
X90706Y-60971D01*
X90757Y-60953D01*
X90829Y-60930D01*
X90918Y-60903D01*
X91018Y-60874D01*
X91124Y-60844D01*
X91233Y-60812D01*
X91339Y-60783D01*
X91437Y-60757D01*
X91523Y-60734D01*
X91592Y-60717D01*
X91640Y-60706D01*
X91658Y-60704D01*
X91691Y-60711D01*
X91698Y-60729D01*
X91681Y-60754D01*
X91642Y-60782D01*
X91622Y-60793D01*
X91588Y-60806D01*
X91528Y-60827D01*
X91449Y-60853D01*
X91355Y-60884D01*
X91251Y-60917D01*
X91142Y-60950D01*
X91034Y-60983D01*
X90931Y-61013D01*
X90867Y-61031D01*
X90801Y-61045D01*
X90739Y-61048D01*
X90690Y-61041D01*
X90663Y-61027D01*
X90654Y-61007D01*
X90654Y-61165D01*
X90694Y-61202D01*
X90791Y-61290D01*
X90899Y-61388D01*
X91015Y-61490D01*
X91137Y-61598D01*
X91263Y-61708D01*
X91390Y-61818D01*
X91498Y-61911D01*
X91516Y-61922D01*
X91527Y-61914D01*
X91539Y-61883D01*
X91543Y-61866D01*
X91557Y-61819D01*
X91579Y-61754D01*
X91603Y-61684D01*
X91609Y-61668D01*
X91632Y-61605D01*
X91649Y-61566D01*
X91665Y-61546D01*
X91683Y-61538D01*
X91701Y-61538D01*
X91734Y-61540D01*
X91791Y-61550D01*
X91873Y-61565D01*
X91982Y-61588D01*
X92117Y-61617D01*
X92280Y-61654D01*
X92472Y-61698D01*
X92596Y-61726D01*
X92727Y-61756D01*
X92881Y-61791D01*
X93045Y-61827D01*
X93212Y-61864D01*
X93372Y-61898D01*
X93491Y-61923D01*
X93610Y-61948D01*
X93719Y-61973D01*
X93814Y-61994D01*
X93892Y-62013D01*
X93949Y-62027D01*
X93981Y-62037D01*
X93985Y-62039D01*
X93979Y-62053D01*
X93950Y-62080D01*
X93903Y-62115D01*
X93842Y-62158D01*
X93772Y-62204D01*
X93697Y-62249D01*
X93622Y-62293D01*
X93552Y-62331D01*
X93541Y-62336D01*
X93486Y-62362D01*
X93437Y-62380D01*
X93388Y-62390D01*
X93334Y-62391D01*
X93267Y-62386D01*
X93182Y-62373D01*
X93079Y-62355D01*
X92877Y-62318D01*
X92889Y-62223D01*
X92897Y-62143D01*
X92898Y-62090D01*
X92893Y-62065D01*
X92892Y-62065D01*
X92876Y-62060D01*
X92833Y-62051D01*
X92768Y-62038D01*
X92686Y-62022D01*
X92593Y-62003D01*
X92491Y-61983D01*
X92385Y-61963D01*
X92282Y-61944D01*
X92184Y-61925D01*
X92098Y-61909D01*
X92027Y-61896D01*
X91975Y-61888D01*
X91949Y-61883D01*
X91947Y-61883D01*
X91920Y-61898D01*
X91893Y-61942D01*
X91890Y-61950D01*
X91877Y-61986D01*
X91860Y-62046D01*
X91840Y-62124D01*
X91817Y-62214D01*
X91794Y-62312D01*
X91771Y-62413D01*
X91749Y-62510D01*
X91731Y-62599D01*
X91715Y-62675D01*
X91706Y-62731D01*
X91703Y-62764D01*
X91703Y-62767D01*
X91716Y-62793D01*
X91750Y-62816D01*
X91785Y-62831D01*
X91824Y-62843D01*
X91887Y-62861D01*
X91968Y-62882D01*
X91983Y-62885D01*
X91983Y-62061D01*
X91992Y-62029D01*
X92006Y-62015D01*
X92030Y-62015D01*
X92079Y-62021D01*
X92147Y-62032D01*
X92230Y-62048D01*
X92322Y-62065D01*
X92418Y-62085D01*
X92512Y-62106D01*
X92599Y-62125D01*
X92673Y-62144D01*
X92729Y-62159D01*
X92762Y-62170D01*
X92768Y-62174D01*
X92782Y-62197D01*
X92777Y-62226D01*
X92772Y-62239D01*
X92756Y-62265D01*
X92736Y-62275D01*
X92697Y-62273D01*
X92686Y-62272D01*
X92650Y-62265D01*
X92588Y-62253D01*
X92510Y-62237D01*
X92419Y-62217D01*
X92343Y-62200D01*
X92229Y-62173D01*
X92141Y-62151D01*
X92077Y-62134D01*
X92033Y-62118D01*
X92005Y-62104D01*
X91990Y-62089D01*
X91984Y-62072D01*
X91983Y-62061D01*
X91983Y-62885D01*
X92061Y-62905D01*
X92162Y-62930D01*
X92265Y-62954D01*
X92365Y-62977D01*
X92457Y-62997D01*
X92535Y-63014D01*
X92594Y-63026D01*
X92630Y-63031D01*
X92634Y-63031D01*
X92658Y-63028D01*
X92677Y-63016D01*
X92693Y-62989D01*
X92710Y-62942D01*
X92731Y-62870D01*
X92751Y-62814D01*
X92769Y-62784D01*
X92779Y-62780D01*
X92802Y-62782D01*
X92850Y-62789D01*
X92917Y-62799D01*
X92998Y-62811D01*
X93057Y-62821D01*
X93211Y-62842D01*
X93340Y-62853D01*
X93449Y-62853D01*
X93543Y-62842D01*
X93626Y-62821D01*
X93650Y-62812D01*
X93685Y-62796D01*
X93743Y-62767D01*
X93821Y-62728D01*
X93915Y-62679D01*
X94020Y-62624D01*
X94133Y-62565D01*
X94207Y-62525D01*
X94677Y-62273D01*
X95017Y-62259D01*
X95148Y-62255D01*
X95297Y-62251D01*
X95451Y-62248D01*
X95596Y-62246D01*
X95695Y-62246D01*
X96111Y-62240D01*
X96502Y-62224D01*
X96874Y-62197D01*
X97230Y-62159D01*
X97577Y-62110D01*
X97918Y-62048D01*
X98259Y-61973D01*
X98572Y-61892D01*
X98987Y-61769D01*
X99374Y-61630D01*
X99734Y-61474D01*
X100067Y-61304D01*
X100373Y-61116D01*
X100654Y-60913D01*
X100908Y-60694D01*
X101136Y-60458D01*
X101338Y-60206D01*
X101439Y-60059D01*
X101530Y-59909D01*
X101620Y-59741D01*
X101708Y-59562D01*
X101788Y-59380D01*
X101858Y-59202D01*
X101914Y-59036D01*
X101944Y-58927D01*
X101978Y-58782D01*
X102003Y-58651D01*
X102021Y-58521D01*
X102034Y-58384D01*
X102042Y-58227D01*
X102043Y-58190D01*
X102053Y-57902D01*
X102094Y-57912D01*
X102129Y-57925D01*
X102188Y-57950D01*
X102265Y-57985D01*
X102355Y-58029D01*
X102453Y-58078D01*
X102555Y-58130D01*
X102657Y-58183D01*
X102752Y-58234D01*
X102837Y-58280D01*
X102906Y-58320D01*
X102921Y-58330D01*
X103036Y-58400D01*
X103129Y-58453D01*
X103203Y-58494D01*
X103263Y-58521D01*
X103311Y-58538D01*
X103353Y-58547D01*
X103384Y-58549D01*
X103440Y-58545D01*
X103477Y-58528D01*
X103489Y-58516D01*
X103493Y-58512D01*
X103497Y-58511D01*
X103500Y-58513D01*
X103503Y-58521D01*
X103505Y-58536D01*
X103508Y-58559D01*
X103510Y-58592D01*
X103512Y-58636D01*
X103514Y-58694D01*
X103515Y-58765D01*
X103516Y-58853D01*
X103518Y-58957D01*
X103519Y-59081D01*
X103520Y-59225D01*
X103521Y-59390D01*
X103522Y-59579D01*
X103523Y-59793D01*
X103524Y-60033D01*
X103525Y-60300D01*
X103526Y-60597D01*
X103526Y-60761D01*
X103527Y-60953D01*
X103528Y-61118D01*
X103528Y-61253D01*
X103529Y-61360D01*
X103530Y-61438D01*
X103530Y-61488D01*
X103531Y-61508D01*
X103531Y-61499D01*
X103532Y-61461D01*
X103532Y-61393D01*
X103533Y-61296D01*
X103533Y-61169D01*
X103534Y-61012D01*
X103534Y-60825D01*
X103535Y-60608D01*
X103535Y-60360D01*
X103536Y-60083D01*
X103536Y-59774D01*
X103537Y-59435D01*
X103537Y-59065D01*
X103537Y-58664D01*
X103538Y-58232D01*
X103538Y-57768D01*
X103538Y-57712D01*
X103542Y-52385D01*
X96988Y-52389D01*
X90434Y-52392D01*
X90434Y-52392D01*
X90434Y-52392D01*
G37*
G36*
X83842Y-63173D02*
X83250Y-63173D01*
X82658Y-63173D01*
X82658Y-63024D01*
X82658Y-62876D01*
X83250Y-62876D01*
X83842Y-62876D01*
X83842Y-63024D01*
X83842Y-63173D01*
X83842Y-63173D01*
X83842Y-63173D01*
G37*
G36*
X83942Y-61233D02*
X83941Y-61235D01*
X83937Y-61240D01*
X83930Y-61246D01*
X83922Y-61255D01*
X83913Y-61265D01*
X83902Y-61275D01*
X83899Y-61279D01*
X83887Y-61291D01*
X83874Y-61304D01*
X83862Y-61317D01*
X83850Y-61329D01*
X83841Y-61339D01*
X83833Y-61346D01*
X83827Y-61353D01*
X83818Y-61362D01*
X83807Y-61374D01*
X83794Y-61386D01*
X83781Y-61400D01*
X83767Y-61414D01*
X83754Y-61428D01*
X83738Y-61444D01*
X83724Y-61458D01*
X83714Y-61469D01*
X83705Y-61478D01*
X83698Y-61485D01*
X83693Y-61490D01*
X83689Y-61494D01*
X83687Y-61497D01*
X83686Y-61498D01*
X83685Y-61500D01*
X83685Y-61500D01*
X83685Y-61500D01*
X83685Y-61500D01*
X83688Y-61501D01*
X83693Y-61502D01*
X83695Y-61502D01*
X83704Y-61503D01*
X83705Y-61576D01*
X83705Y-61649D01*
X83662Y-61649D01*
X83662Y-61610D01*
X83662Y-61576D01*
X83661Y-61541D01*
X83652Y-61541D01*
X83649Y-61540D01*
X83649Y-61474D01*
X83649Y-61473D01*
X83647Y-61472D01*
X83641Y-61471D01*
X83635Y-61471D01*
X83628Y-61471D01*
X83622Y-61472D01*
X83620Y-61472D01*
X83619Y-61475D01*
X83618Y-61480D01*
X83617Y-61487D01*
X83617Y-61493D01*
X83617Y-61499D01*
X83617Y-61500D01*
X83619Y-61502D01*
X83623Y-61500D01*
X83629Y-61496D01*
X83636Y-61490D01*
X83638Y-61488D01*
X83643Y-61482D01*
X83647Y-61477D01*
X83649Y-61474D01*
X83649Y-61540D01*
X83643Y-61540D01*
X83620Y-61564D01*
X83597Y-61587D01*
X83597Y-61599D01*
X83597Y-61610D01*
X83630Y-61610D01*
X83662Y-61610D01*
X83662Y-61649D01*
X83655Y-61649D01*
X83604Y-61650D01*
X83603Y-61663D01*
X83602Y-61670D01*
X83601Y-61681D01*
X83600Y-61692D01*
X83599Y-61704D01*
X83599Y-61705D01*
X83598Y-61716D01*
X83597Y-61727D01*
X83597Y-61737D01*
X83596Y-61743D01*
X83596Y-61744D01*
X83595Y-61750D01*
X83595Y-61760D01*
X83594Y-61772D01*
X83593Y-61785D01*
X83592Y-61798D01*
X83591Y-61809D01*
X83590Y-61819D01*
X83590Y-61819D01*
X83589Y-61826D01*
X83589Y-61835D01*
X83588Y-61847D01*
X83587Y-61859D01*
X83587Y-61862D01*
X83586Y-61873D01*
X83585Y-61882D01*
X83585Y-61889D01*
X83584Y-61891D01*
X83584Y-61397D01*
X83584Y-61393D01*
X83581Y-61389D01*
X83576Y-61384D01*
X83575Y-61383D01*
X83568Y-61378D01*
X83561Y-61374D01*
X83557Y-61371D01*
X83549Y-61368D01*
X83542Y-61365D01*
X83541Y-61364D01*
X83522Y-61357D01*
X83502Y-61350D01*
X83478Y-61344D01*
X83451Y-61339D01*
X83435Y-61336D01*
X83426Y-61334D01*
X83418Y-61333D01*
X83413Y-61332D01*
X83411Y-61332D01*
X83409Y-61332D01*
X83408Y-61335D01*
X83407Y-61341D01*
X83407Y-61343D01*
X83407Y-61354D01*
X83368Y-61354D01*
X83368Y-61303D01*
X83306Y-61303D01*
X83244Y-61303D01*
X83244Y-61310D01*
X83244Y-61317D01*
X83305Y-61317D01*
X83367Y-61316D01*
X83368Y-61310D01*
X83368Y-61303D01*
X83368Y-61354D01*
X83303Y-61354D01*
X83201Y-61353D01*
X83201Y-61340D01*
X83200Y-61327D01*
X83192Y-61327D01*
X83184Y-61327D01*
X83174Y-61328D01*
X83164Y-61329D01*
X83155Y-61330D01*
X83148Y-61330D01*
X83143Y-61331D01*
X83141Y-61332D01*
X83138Y-61333D01*
X83132Y-61334D01*
X83127Y-61335D01*
X83119Y-61336D01*
X83111Y-61337D01*
X83108Y-61337D01*
X83101Y-61338D01*
X83101Y-61371D01*
X83101Y-61403D01*
X83342Y-61403D01*
X83584Y-61402D01*
X83584Y-61397D01*
X83584Y-61891D01*
X83584Y-61893D01*
X83584Y-61894D01*
X83583Y-61896D01*
X83583Y-61902D01*
X83583Y-61909D01*
X83582Y-61912D01*
X83582Y-61921D01*
X83582Y-61925D01*
X83582Y-61479D01*
X83581Y-61474D01*
X83580Y-61472D01*
X83578Y-61472D01*
X83572Y-61472D01*
X83562Y-61472D01*
X83549Y-61472D01*
X83533Y-61471D01*
X83514Y-61471D01*
X83493Y-61471D01*
X83470Y-61471D01*
X83445Y-61471D01*
X83418Y-61471D01*
X83390Y-61471D01*
X83361Y-61471D01*
X83332Y-61471D01*
X83301Y-61471D01*
X83271Y-61471D01*
X83241Y-61471D01*
X83211Y-61471D01*
X83182Y-61471D01*
X83153Y-61471D01*
X83126Y-61471D01*
X83100Y-61471D01*
X83076Y-61471D01*
X83058Y-61471D01*
X83058Y-61344D01*
X83058Y-61334D01*
X83058Y-61327D01*
X83057Y-61323D01*
X83056Y-61322D01*
X83055Y-61322D01*
X83054Y-61322D01*
X83053Y-61325D01*
X83052Y-61329D01*
X83052Y-61337D01*
X83052Y-61344D01*
X83052Y-61353D01*
X83053Y-61360D01*
X83053Y-61365D01*
X83053Y-61367D01*
X83055Y-61368D01*
X83057Y-61366D01*
X83058Y-61360D01*
X83058Y-61351D01*
X83058Y-61344D01*
X83058Y-61471D01*
X83053Y-61471D01*
X83033Y-61472D01*
X83016Y-61472D01*
X83009Y-61472D01*
X83009Y-61403D01*
X83009Y-61385D01*
X83009Y-61377D01*
X83009Y-61371D01*
X83008Y-61367D01*
X83008Y-61366D01*
X83004Y-61368D01*
X82998Y-61371D01*
X82990Y-61375D01*
X82983Y-61380D01*
X82976Y-61385D01*
X82975Y-61387D01*
X82968Y-61393D01*
X82965Y-61398D01*
X82965Y-61401D01*
X82968Y-61402D01*
X82974Y-61403D01*
X82985Y-61403D01*
X82987Y-61403D01*
X83009Y-61403D01*
X83009Y-61472D01*
X83001Y-61472D01*
X82989Y-61472D01*
X82981Y-61472D01*
X82976Y-61473D01*
X82976Y-61473D01*
X82975Y-61475D01*
X82975Y-61481D01*
X82976Y-61490D01*
X82977Y-61501D01*
X82977Y-61510D01*
X82978Y-61523D01*
X82980Y-61535D01*
X82980Y-61545D01*
X82981Y-61553D01*
X82981Y-61557D01*
X82983Y-61570D01*
X82984Y-61581D01*
X82985Y-61588D01*
X82986Y-61594D01*
X82987Y-61598D01*
X82989Y-61601D01*
X82991Y-61603D01*
X82994Y-61606D01*
X82999Y-61612D01*
X83006Y-61620D01*
X83016Y-61630D01*
X83027Y-61641D01*
X83039Y-61654D01*
X83052Y-61668D01*
X83066Y-61682D01*
X83080Y-61696D01*
X83094Y-61711D01*
X83107Y-61725D01*
X83114Y-61731D01*
X83123Y-61741D01*
X83133Y-61751D01*
X83142Y-61761D01*
X83150Y-61769D01*
X83155Y-61774D01*
X83164Y-61783D01*
X83175Y-61794D01*
X83186Y-61806D01*
X83197Y-61817D01*
X83208Y-61829D01*
X83219Y-61841D01*
X83229Y-61851D01*
X83238Y-61860D01*
X83245Y-61868D01*
X83250Y-61873D01*
X83253Y-61876D01*
X83253Y-61877D01*
X83256Y-61879D01*
X83256Y-61880D01*
X83258Y-61878D01*
X83262Y-61874D01*
X83268Y-61869D01*
X83275Y-61862D01*
X83278Y-61858D01*
X83286Y-61850D01*
X83296Y-61840D01*
X83307Y-61828D01*
X83319Y-61816D01*
X83331Y-61804D01*
X83339Y-61796D01*
X83349Y-61786D01*
X83358Y-61776D01*
X83366Y-61768D01*
X83372Y-61761D01*
X83376Y-61757D01*
X83378Y-61755D01*
X83378Y-61755D01*
X83376Y-61754D01*
X83370Y-61754D01*
X83361Y-61754D01*
X83348Y-61753D01*
X83332Y-61753D01*
X83313Y-61753D01*
X83291Y-61752D01*
X83287Y-61752D01*
X83196Y-61752D01*
X83196Y-61710D01*
X83196Y-61668D01*
X83330Y-61667D01*
X83464Y-61667D01*
X83479Y-61652D01*
X83485Y-61646D01*
X83493Y-61638D01*
X83503Y-61628D01*
X83513Y-61617D01*
X83524Y-61607D01*
X83526Y-61604D01*
X83558Y-61572D01*
X83558Y-61538D01*
X83558Y-61525D01*
X83558Y-61516D01*
X83559Y-61510D01*
X83559Y-61506D01*
X83560Y-61504D01*
X83561Y-61503D01*
X83563Y-61502D01*
X83563Y-61502D01*
X83567Y-61502D01*
X83569Y-61502D01*
X83575Y-61502D01*
X83578Y-61501D01*
X83580Y-61497D01*
X83581Y-61490D01*
X83581Y-61488D01*
X83582Y-61479D01*
X83582Y-61925D01*
X83581Y-61931D01*
X83581Y-61939D01*
X83581Y-61939D01*
X83580Y-61947D01*
X83579Y-61956D01*
X83578Y-61966D01*
X83578Y-61966D01*
X83577Y-61975D01*
X83576Y-61983D01*
X83576Y-61988D01*
X83576Y-61989D01*
X83575Y-61994D01*
X83574Y-62001D01*
X83574Y-62010D01*
X83573Y-62017D01*
X83573Y-62026D01*
X83572Y-62035D01*
X83572Y-62042D01*
X83571Y-62044D01*
X83571Y-62049D01*
X83570Y-62057D01*
X83570Y-62064D01*
X83569Y-62069D01*
X83568Y-62078D01*
X83568Y-62090D01*
X83566Y-62103D01*
X83566Y-62109D01*
X83566Y-61654D01*
X83566Y-61651D01*
X83565Y-61650D01*
X83564Y-61649D01*
X83562Y-61649D01*
X83560Y-61648D01*
X83559Y-61646D01*
X83558Y-61641D01*
X83558Y-61639D01*
X83558Y-61634D01*
X83557Y-61631D01*
X83556Y-61630D01*
X83554Y-61632D01*
X83550Y-61636D01*
X83544Y-61642D01*
X83536Y-61650D01*
X83527Y-61659D01*
X83517Y-61669D01*
X83507Y-61679D01*
X83497Y-61689D01*
X83488Y-61699D01*
X83480Y-61708D01*
X83473Y-61716D01*
X83467Y-61722D01*
X83464Y-61726D01*
X83463Y-61727D01*
X83463Y-61732D01*
X83463Y-61738D01*
X83463Y-61740D01*
X83463Y-61745D01*
X83463Y-61750D01*
X83462Y-61750D01*
X83460Y-61752D01*
X83454Y-61753D01*
X83448Y-61753D01*
X83434Y-61754D01*
X83419Y-61770D01*
X83419Y-61711D01*
X83418Y-61711D01*
X83415Y-61710D01*
X83409Y-61710D01*
X83402Y-61709D01*
X83391Y-61709D01*
X83377Y-61709D01*
X83360Y-61709D01*
X83340Y-61708D01*
X83328Y-61708D01*
X83309Y-61708D01*
X83292Y-61708D01*
X83276Y-61708D01*
X83262Y-61708D01*
X83250Y-61708D01*
X83243Y-61709D01*
X83238Y-61709D01*
X83237Y-61709D01*
X83235Y-61711D01*
X83235Y-61712D01*
X83237Y-61712D01*
X83243Y-61713D01*
X83251Y-61713D01*
X83263Y-61714D01*
X83276Y-61714D01*
X83291Y-61714D01*
X83307Y-61714D01*
X83324Y-61714D01*
X83340Y-61714D01*
X83357Y-61714D01*
X83372Y-61714D01*
X83386Y-61713D01*
X83398Y-61713D01*
X83408Y-61713D01*
X83415Y-61712D01*
X83418Y-61712D01*
X83419Y-61711D01*
X83419Y-61770D01*
X83361Y-61829D01*
X83347Y-61844D01*
X83333Y-61858D01*
X83321Y-61870D01*
X83310Y-61882D01*
X83301Y-61891D01*
X83294Y-61899D01*
X83289Y-61905D01*
X83287Y-61908D01*
X83287Y-61908D01*
X83288Y-61911D01*
X83292Y-61916D01*
X83297Y-61922D01*
X83304Y-61930D01*
X83306Y-61932D01*
X83313Y-61939D01*
X83322Y-61948D01*
X83333Y-61960D01*
X83344Y-61972D01*
X83356Y-61984D01*
X83368Y-61996D01*
X83379Y-62008D01*
X83390Y-62019D01*
X83400Y-62030D01*
X83409Y-62039D01*
X83416Y-62046D01*
X83421Y-62051D01*
X83421Y-62051D01*
X83426Y-62056D01*
X83432Y-62063D01*
X83441Y-62071D01*
X83451Y-62082D01*
X83462Y-62093D01*
X83473Y-62105D01*
X83476Y-62108D01*
X83487Y-62119D01*
X83497Y-62130D01*
X83506Y-62138D01*
X83513Y-62146D01*
X83518Y-62151D01*
X83521Y-62153D01*
X83521Y-62154D01*
X83522Y-62152D01*
X83523Y-62147D01*
X83524Y-62142D01*
X83525Y-62131D01*
X83527Y-62117D01*
X83528Y-62103D01*
X83530Y-62089D01*
X83530Y-62077D01*
X83531Y-62068D01*
X83532Y-62057D01*
X83533Y-62046D01*
X83534Y-62041D01*
X83535Y-62030D01*
X83536Y-62019D01*
X83536Y-62010D01*
X83537Y-62006D01*
X83537Y-62000D01*
X83538Y-61990D01*
X83539Y-61978D01*
X83540Y-61966D01*
X83541Y-61958D01*
X83542Y-61946D01*
X83543Y-61933D01*
X83544Y-61922D01*
X83545Y-61914D01*
X83545Y-61910D01*
X83546Y-61901D01*
X83546Y-61893D01*
X83547Y-61888D01*
X83548Y-61882D01*
X83548Y-61874D01*
X83549Y-61863D01*
X83550Y-61852D01*
X83550Y-61852D01*
X83552Y-61832D01*
X83553Y-61810D01*
X83555Y-61786D01*
X83557Y-61763D01*
X83559Y-61740D01*
X83561Y-61720D01*
X83562Y-61708D01*
X83564Y-61691D01*
X83565Y-61677D01*
X83566Y-61667D01*
X83566Y-61660D01*
X83566Y-61654D01*
X83566Y-62109D01*
X83565Y-62119D01*
X83564Y-62134D01*
X83564Y-62135D01*
X83560Y-62192D01*
X83566Y-62200D01*
X83569Y-62202D01*
X83575Y-62208D01*
X83583Y-62216D01*
X83592Y-62226D01*
X83602Y-62236D01*
X83613Y-62247D01*
X83613Y-62248D01*
X83624Y-62259D01*
X83636Y-62271D01*
X83646Y-62282D01*
X83656Y-62292D01*
X83664Y-62300D01*
X83668Y-62305D01*
X83674Y-62311D01*
X83682Y-62319D01*
X83692Y-62329D01*
X83703Y-62340D01*
X83714Y-62352D01*
X83721Y-62359D01*
X83732Y-62370D01*
X83743Y-62382D01*
X83754Y-62393D01*
X83763Y-62403D01*
X83770Y-62411D01*
X83774Y-62414D01*
X83780Y-62420D01*
X83788Y-62429D01*
X83798Y-62439D01*
X83809Y-62451D01*
X83820Y-62463D01*
X83829Y-62472D01*
X83848Y-62491D01*
X83864Y-62508D01*
X83877Y-62522D01*
X83887Y-62533D01*
X83895Y-62541D01*
X83900Y-62547D01*
X83903Y-62550D01*
X83903Y-62550D01*
X83902Y-62553D01*
X83899Y-62557D01*
X83894Y-62562D01*
X83888Y-62567D01*
X83883Y-62572D01*
X83878Y-62576D01*
X83875Y-62578D01*
X83875Y-62578D01*
X83873Y-62576D01*
X83869Y-62573D01*
X83864Y-62567D01*
X83861Y-62564D01*
X83855Y-62558D01*
X83848Y-62551D01*
X83839Y-62541D01*
X83829Y-62531D01*
X83818Y-62520D01*
X83811Y-62512D01*
X83799Y-62501D01*
X83788Y-62489D01*
X83777Y-62477D01*
X83767Y-62467D01*
X83759Y-62459D01*
X83756Y-62455D01*
X83749Y-62448D01*
X83740Y-62439D01*
X83729Y-62427D01*
X83716Y-62414D01*
X83702Y-62399D01*
X83687Y-62384D01*
X83672Y-62368D01*
X83656Y-62352D01*
X83641Y-62336D01*
X83626Y-62321D01*
X83613Y-62307D01*
X83608Y-62302D01*
X83598Y-62292D01*
X83589Y-62282D01*
X83581Y-62274D01*
X83574Y-62266D01*
X83569Y-62261D01*
X83569Y-62261D01*
X83563Y-62255D01*
X83558Y-62251D01*
X83555Y-62251D01*
X83554Y-62255D01*
X83554Y-62257D01*
X83555Y-62262D01*
X83558Y-62265D01*
X83563Y-62269D01*
X83565Y-62270D01*
X83574Y-62276D01*
X83584Y-62285D01*
X83593Y-62294D01*
X83602Y-62304D01*
X83608Y-62313D01*
X83610Y-62316D01*
X83616Y-62328D01*
X83620Y-62338D01*
X83623Y-62346D01*
X83625Y-62355D01*
X83625Y-62365D01*
X83626Y-62378D01*
X83626Y-62379D01*
X83625Y-62398D01*
X83623Y-62413D01*
X83619Y-62426D01*
X83614Y-62437D01*
X83613Y-62439D01*
X83610Y-62445D01*
X83608Y-62449D01*
X83604Y-62456D01*
X83597Y-62463D01*
X83589Y-62472D01*
X83580Y-62480D01*
X83570Y-62488D01*
X83561Y-62495D01*
X83558Y-62496D01*
X83558Y-62382D01*
X83558Y-62375D01*
X83557Y-62368D01*
X83556Y-62365D01*
X83554Y-62359D01*
X83553Y-62355D01*
X83551Y-62351D01*
X83547Y-62345D01*
X83541Y-62338D01*
X83534Y-62332D01*
X83528Y-62327D01*
X83524Y-62325D01*
X83520Y-62323D01*
X83519Y-62323D01*
X83519Y-62213D01*
X83519Y-62212D01*
X83519Y-62210D01*
X83517Y-62209D01*
X83515Y-62206D01*
X83513Y-62203D01*
X83509Y-62199D01*
X83503Y-62193D01*
X83497Y-62186D01*
X83488Y-62177D01*
X83478Y-62167D01*
X83466Y-62154D01*
X83452Y-62139D01*
X83435Y-62122D01*
X83416Y-62102D01*
X83395Y-62080D01*
X83380Y-62065D01*
X83365Y-62049D01*
X83348Y-62032D01*
X83332Y-62015D01*
X83317Y-62000D01*
X83304Y-61986D01*
X83302Y-61983D01*
X83291Y-61972D01*
X83281Y-61962D01*
X83272Y-61953D01*
X83265Y-61946D01*
X83260Y-61941D01*
X83257Y-61939D01*
X83256Y-61939D01*
X83255Y-61940D01*
X83250Y-61944D01*
X83245Y-61951D01*
X83236Y-61959D01*
X83227Y-61968D01*
X83227Y-61908D01*
X83226Y-61906D01*
X83222Y-61901D01*
X83215Y-61894D01*
X83207Y-61885D01*
X83197Y-61874D01*
X83185Y-61862D01*
X83176Y-61852D01*
X83151Y-61826D01*
X83129Y-61803D01*
X83110Y-61783D01*
X83092Y-61765D01*
X83076Y-61749D01*
X83062Y-61734D01*
X83050Y-61721D01*
X83042Y-61713D01*
X83029Y-61699D01*
X83018Y-61688D01*
X83010Y-61680D01*
X83003Y-61673D01*
X82999Y-61669D01*
X82996Y-61666D01*
X82994Y-61664D01*
X82993Y-61663D01*
X82992Y-61663D01*
X82992Y-61665D01*
X82992Y-61671D01*
X82993Y-61679D01*
X82993Y-61688D01*
X82993Y-61688D01*
X82995Y-61708D01*
X82996Y-61724D01*
X82997Y-61737D01*
X82998Y-61748D01*
X82998Y-61755D01*
X82999Y-61761D01*
X82999Y-61766D01*
X83000Y-61770D01*
X83000Y-61771D01*
X83000Y-61777D01*
X83001Y-61785D01*
X83002Y-61796D01*
X83003Y-61807D01*
X83003Y-61808D01*
X83004Y-61820D01*
X83005Y-61831D01*
X83006Y-61841D01*
X83006Y-61848D01*
X83006Y-61848D01*
X83007Y-61863D01*
X83009Y-61877D01*
X83010Y-61890D01*
X83011Y-61901D01*
X83012Y-61910D01*
X83012Y-61915D01*
X83012Y-61916D01*
X83013Y-61920D01*
X83014Y-61929D01*
X83015Y-61940D01*
X83016Y-61952D01*
X83017Y-61967D01*
X83018Y-61981D01*
X83019Y-61989D01*
X83019Y-61997D01*
X83020Y-62005D01*
X83021Y-62009D01*
X83021Y-62014D01*
X83022Y-62022D01*
X83023Y-62031D01*
X83023Y-62034D01*
X83023Y-62044D01*
X83024Y-62055D01*
X83026Y-62065D01*
X83026Y-62066D01*
X83027Y-62076D01*
X83027Y-62087D01*
X83028Y-62094D01*
X83028Y-62102D01*
X83029Y-62108D01*
X83030Y-62110D01*
X83032Y-62111D01*
X83033Y-62109D01*
X83038Y-62105D01*
X83044Y-62099D01*
X83053Y-62090D01*
X83063Y-62080D01*
X83074Y-62069D01*
X83086Y-62056D01*
X83092Y-62050D01*
X83107Y-62035D01*
X83122Y-62019D01*
X83138Y-62003D01*
X83153Y-61987D01*
X83167Y-61973D01*
X83180Y-61960D01*
X83189Y-61951D01*
X83200Y-61940D01*
X83209Y-61930D01*
X83217Y-61921D01*
X83223Y-61915D01*
X83226Y-61910D01*
X83227Y-61908D01*
X83227Y-61968D01*
X83226Y-61969D01*
X83214Y-61981D01*
X83202Y-61994D01*
X83191Y-62005D01*
X83176Y-62020D01*
X83160Y-62036D01*
X83145Y-62052D01*
X83129Y-62068D01*
X83115Y-62083D01*
X83103Y-62095D01*
X83092Y-62106D01*
X83090Y-62109D01*
X83076Y-62123D01*
X83064Y-62135D01*
X83055Y-62144D01*
X83048Y-62152D01*
X83043Y-62157D01*
X83039Y-62162D01*
X83037Y-62165D01*
X83035Y-62168D01*
X83035Y-62170D01*
X83035Y-62173D01*
X83035Y-62175D01*
X83035Y-62176D01*
X83035Y-62181D01*
X83036Y-62190D01*
X83037Y-62200D01*
X83038Y-62211D01*
X83038Y-62212D01*
X83040Y-62237D01*
X83042Y-62263D01*
X83045Y-62291D01*
X83046Y-62306D01*
X83047Y-62316D01*
X83048Y-62327D01*
X83049Y-62336D01*
X83049Y-62340D01*
X83050Y-62348D01*
X83051Y-62359D01*
X83051Y-62367D01*
X83052Y-62375D01*
X83053Y-62382D01*
X83053Y-62386D01*
X83053Y-62386D01*
X83054Y-62387D01*
X83055Y-62387D01*
X83056Y-62388D01*
X83059Y-62388D01*
X83063Y-62389D01*
X83069Y-62389D01*
X83076Y-62389D01*
X83086Y-62389D01*
X83098Y-62389D01*
X83113Y-62389D01*
X83131Y-62390D01*
X83152Y-62390D01*
X83176Y-62390D01*
X83204Y-62390D01*
X83210Y-62390D01*
X83364Y-62390D01*
X83364Y-62371D01*
X83364Y-62362D01*
X83365Y-62355D01*
X83365Y-62351D01*
X83366Y-62350D01*
X83367Y-62347D01*
X83370Y-62341D01*
X83372Y-62335D01*
X83376Y-62325D01*
X83383Y-62314D01*
X83390Y-62303D01*
X83397Y-62294D01*
X83401Y-62289D01*
X83408Y-62283D01*
X83416Y-62277D01*
X83423Y-62272D01*
X83428Y-62268D01*
X83432Y-62265D01*
X83433Y-62265D01*
X83437Y-62264D01*
X83439Y-62263D01*
X83446Y-62260D01*
X83454Y-62257D01*
X83457Y-62256D01*
X83460Y-62255D01*
X83467Y-62254D01*
X83476Y-62253D01*
X83486Y-62253D01*
X83487Y-62253D01*
X83514Y-62252D01*
X83517Y-62234D01*
X83518Y-62226D01*
X83519Y-62218D01*
X83519Y-62213D01*
X83519Y-62213D01*
X83519Y-62323D01*
X83512Y-62321D01*
X83504Y-62320D01*
X83503Y-62320D01*
X83494Y-62320D01*
X83487Y-62320D01*
X83480Y-62322D01*
X83475Y-62323D01*
X83468Y-62326D01*
X83460Y-62330D01*
X83453Y-62335D01*
X83448Y-62339D01*
X83446Y-62343D01*
X83446Y-62343D01*
X83444Y-62346D01*
X83441Y-62350D01*
X83440Y-62352D01*
X83436Y-62357D01*
X83433Y-62365D01*
X83431Y-62373D01*
X83429Y-62380D01*
X83429Y-62387D01*
X83431Y-62390D01*
X83431Y-62391D01*
X83433Y-62394D01*
X83433Y-62396D01*
X83435Y-62399D01*
X83437Y-62405D01*
X83441Y-62412D01*
X83442Y-62413D01*
X83448Y-62422D01*
X83454Y-62428D01*
X83461Y-62433D01*
X83474Y-62439D01*
X83486Y-62442D01*
X83498Y-62442D01*
X83512Y-62439D01*
X83527Y-62433D01*
X83539Y-62425D01*
X83549Y-62414D01*
X83555Y-62401D01*
X83558Y-62386D01*
X83558Y-62382D01*
X83558Y-62496D01*
X83554Y-62498D01*
X83545Y-62503D01*
X83537Y-62506D01*
X83531Y-62508D01*
X83524Y-62509D01*
X83515Y-62510D01*
X83504Y-62510D01*
X83496Y-62510D01*
X83484Y-62510D01*
X83475Y-62510D01*
X83467Y-62509D01*
X83461Y-62508D01*
X83454Y-62506D01*
X83445Y-62503D01*
X83435Y-62499D01*
X83428Y-62495D01*
X83421Y-62490D01*
X83418Y-62487D01*
X83413Y-62483D01*
X83409Y-62480D01*
X83407Y-62480D01*
X83405Y-62478D01*
X83401Y-62474D01*
X83400Y-62473D01*
X83396Y-62468D01*
X83391Y-62461D01*
X83389Y-62460D01*
X83384Y-62453D01*
X83379Y-62445D01*
X83378Y-62443D01*
X83375Y-62437D01*
X83370Y-62434D01*
X83370Y-62434D01*
X83367Y-62433D01*
X83360Y-62433D01*
X83350Y-62433D01*
X83337Y-62433D01*
X83322Y-62433D01*
X83304Y-62433D01*
X83285Y-62433D01*
X83264Y-62433D01*
X83242Y-62433D01*
X83119Y-62434D01*
X83118Y-62477D01*
X83117Y-62519D01*
X83079Y-62519D01*
X83079Y-62455D01*
X83079Y-62446D01*
X83078Y-62439D01*
X83077Y-62435D01*
X83077Y-62435D01*
X83076Y-62437D01*
X83075Y-62442D01*
X83075Y-62450D01*
X83075Y-62455D01*
X83075Y-62465D01*
X83075Y-62471D01*
X83076Y-62475D01*
X83077Y-62475D01*
X83078Y-62473D01*
X83078Y-62468D01*
X83079Y-62460D01*
X83079Y-62455D01*
X83079Y-62519D01*
X83077Y-62519D01*
X83037Y-62519D01*
X83036Y-62476D01*
X83035Y-62433D01*
X83027Y-62426D01*
X83022Y-62422D01*
X83020Y-62418D01*
X83020Y-62414D01*
X83020Y-62413D01*
X83020Y-62409D01*
X83020Y-62402D01*
X83019Y-62392D01*
X83019Y-62380D01*
X83017Y-62366D01*
X83016Y-62351D01*
X83015Y-62336D01*
X83014Y-62321D01*
X83012Y-62307D01*
X83011Y-62300D01*
X83010Y-62290D01*
X83009Y-62277D01*
X83008Y-62264D01*
X83007Y-62254D01*
X83006Y-62236D01*
X83005Y-62222D01*
X83003Y-62211D01*
X83003Y-62205D01*
X83002Y-62202D01*
X83002Y-62202D01*
X83001Y-62202D01*
X82998Y-62205D01*
X82993Y-62209D01*
X82986Y-62216D01*
X82977Y-62225D01*
X82966Y-62236D01*
X82953Y-62250D01*
X82937Y-62266D01*
X82918Y-62285D01*
X82900Y-62304D01*
X82863Y-62341D01*
X82829Y-62376D01*
X82798Y-62409D01*
X82769Y-62438D01*
X82743Y-62465D01*
X82720Y-62489D01*
X82699Y-62510D01*
X82681Y-62528D01*
X82666Y-62544D01*
X82653Y-62556D01*
X82644Y-62566D01*
X82637Y-62573D01*
X82633Y-62577D01*
X82631Y-62578D01*
X82629Y-62576D01*
X82625Y-62573D01*
X82619Y-62568D01*
X82617Y-62566D01*
X82611Y-62560D01*
X82607Y-62555D01*
X82605Y-62551D01*
X82604Y-62551D01*
X82606Y-62548D01*
X82610Y-62543D01*
X82617Y-62535D01*
X82627Y-62525D01*
X82639Y-62512D01*
X82654Y-62497D01*
X82671Y-62479D01*
X82691Y-62459D01*
X82713Y-62437D01*
X82718Y-62432D01*
X82725Y-62425D01*
X82734Y-62415D01*
X82744Y-62405D01*
X82754Y-62394D01*
X82761Y-62387D01*
X82769Y-62379D01*
X82780Y-62367D01*
X82793Y-62354D01*
X82808Y-62338D01*
X82824Y-62322D01*
X82842Y-62304D01*
X82859Y-62286D01*
X82877Y-62268D01*
X82895Y-62249D01*
X82912Y-62232D01*
X82928Y-62215D01*
X82943Y-62200D01*
X82956Y-62188D01*
X82961Y-62183D01*
X82997Y-62146D01*
X82996Y-62125D01*
X82995Y-62113D01*
X82994Y-62100D01*
X82993Y-62089D01*
X82993Y-62085D01*
X82992Y-62079D01*
X82991Y-62069D01*
X82990Y-62056D01*
X82989Y-62041D01*
X82987Y-62025D01*
X82986Y-62007D01*
X82984Y-61989D01*
X82983Y-61971D01*
X82981Y-61954D01*
X82980Y-61938D01*
X82979Y-61925D01*
X82978Y-61914D01*
X82977Y-61906D01*
X82977Y-61898D01*
X82976Y-61890D01*
X82975Y-61885D01*
X82975Y-61885D01*
X82975Y-61880D01*
X82974Y-61871D01*
X82973Y-61860D01*
X82972Y-61848D01*
X82970Y-61835D01*
X82969Y-61821D01*
X82969Y-61820D01*
X82969Y-61811D01*
X82968Y-61803D01*
X82967Y-61797D01*
X82966Y-61790D01*
X82966Y-61782D01*
X82965Y-61774D01*
X82965Y-61767D01*
X82964Y-61758D01*
X82963Y-61747D01*
X82962Y-61734D01*
X82960Y-61718D01*
X82958Y-61698D01*
X82958Y-61695D01*
X82957Y-61684D01*
X82956Y-61671D01*
X82955Y-61657D01*
X82954Y-61649D01*
X82953Y-61639D01*
X82952Y-61630D01*
X82951Y-61624D01*
X82950Y-61621D01*
X82950Y-61621D01*
X82948Y-61618D01*
X82944Y-61614D01*
X82937Y-61606D01*
X82929Y-61597D01*
X82918Y-61586D01*
X82906Y-61574D01*
X82893Y-61560D01*
X82880Y-61546D01*
X82866Y-61531D01*
X82851Y-61516D01*
X82839Y-61503D01*
X82827Y-61492D01*
X82816Y-61480D01*
X82806Y-61470D01*
X82797Y-61461D01*
X82791Y-61454D01*
X82786Y-61449D01*
X82785Y-61448D01*
X82781Y-61444D01*
X82775Y-61437D01*
X82766Y-61428D01*
X82756Y-61418D01*
X82746Y-61407D01*
X82734Y-61395D01*
X82733Y-61394D01*
X82720Y-61381D01*
X82706Y-61366D01*
X82692Y-61352D01*
X82679Y-61338D01*
X82667Y-61325D01*
X82659Y-61317D01*
X82649Y-61306D01*
X82638Y-61295D01*
X82628Y-61284D01*
X82618Y-61275D01*
X82611Y-61268D01*
X82610Y-61266D01*
X82602Y-61259D01*
X82595Y-61251D01*
X82588Y-61244D01*
X82585Y-61240D01*
X82577Y-61231D01*
X82591Y-61218D01*
X82597Y-61212D01*
X82602Y-61208D01*
X82605Y-61205D01*
X82606Y-61205D01*
X82608Y-61206D01*
X82612Y-61210D01*
X82619Y-61217D01*
X82627Y-61225D01*
X82636Y-61234D01*
X82644Y-61242D01*
X82656Y-61255D01*
X82669Y-61269D01*
X82684Y-61284D01*
X82699Y-61299D01*
X82713Y-61314D01*
X82719Y-61320D01*
X82730Y-61332D01*
X82742Y-61343D01*
X82752Y-61354D01*
X82761Y-61364D01*
X82769Y-61372D01*
X82773Y-61377D01*
X82779Y-61382D01*
X82786Y-61390D01*
X82796Y-61400D01*
X82806Y-61411D01*
X82817Y-61422D01*
X82827Y-61433D01*
X82839Y-61444D01*
X82850Y-61456D01*
X82860Y-61466D01*
X82869Y-61476D01*
X82876Y-61483D01*
X82881Y-61488D01*
X82894Y-61502D01*
X82905Y-61514D01*
X82916Y-61525D01*
X82926Y-61535D01*
X82934Y-61543D01*
X82940Y-61549D01*
X82943Y-61552D01*
X82944Y-61553D01*
X82945Y-61551D01*
X82945Y-61546D01*
X82945Y-61545D01*
X82945Y-61540D01*
X82944Y-61532D01*
X82943Y-61522D01*
X82943Y-61514D01*
X82942Y-61504D01*
X82941Y-61496D01*
X82940Y-61490D01*
X82939Y-61488D01*
X82938Y-61484D01*
X82939Y-61482D01*
X82939Y-61478D01*
X82938Y-61475D01*
X82937Y-61473D01*
X82935Y-61472D01*
X82932Y-61471D01*
X82927Y-61471D01*
X82919Y-61471D01*
X82908Y-61471D01*
X82906Y-61471D01*
X82876Y-61471D01*
X82876Y-61437D01*
X82876Y-61403D01*
X82900Y-61403D01*
X82924Y-61402D01*
X82926Y-61393D01*
X82927Y-61386D01*
X82929Y-61380D01*
X82929Y-61379D01*
X82933Y-61374D01*
X82939Y-61367D01*
X82946Y-61360D01*
X82954Y-61354D01*
X82961Y-61348D01*
X82968Y-61343D01*
X82973Y-61340D01*
X82975Y-61340D01*
X82979Y-61339D01*
X82982Y-61336D01*
X82986Y-61333D01*
X82989Y-61332D01*
X82993Y-61331D01*
X82999Y-61329D01*
X83001Y-61328D01*
X83009Y-61324D01*
X83009Y-61303D01*
X83009Y-61283D01*
X83055Y-61283D01*
X83101Y-61283D01*
X83101Y-61291D01*
X83101Y-61300D01*
X83114Y-61298D01*
X83122Y-61297D01*
X83129Y-61296D01*
X83133Y-61295D01*
X83137Y-61294D01*
X83145Y-61293D01*
X83154Y-61292D01*
X83165Y-61291D01*
X83168Y-61291D01*
X83178Y-61290D01*
X83187Y-61289D01*
X83194Y-61287D01*
X83198Y-61286D01*
X83199Y-61286D01*
X83201Y-61282D01*
X83201Y-61275D01*
X83201Y-61273D01*
X83200Y-61261D01*
X83303Y-61261D01*
X83406Y-61261D01*
X83407Y-61276D01*
X83408Y-61291D01*
X83417Y-61294D01*
X83423Y-61296D01*
X83432Y-61297D01*
X83441Y-61299D01*
X83443Y-61299D01*
X83454Y-61301D01*
X83466Y-61303D01*
X83479Y-61306D01*
X83493Y-61309D01*
X83506Y-61312D01*
X83518Y-61315D01*
X83527Y-61318D01*
X83534Y-61321D01*
X83536Y-61322D01*
X83541Y-61323D01*
X83543Y-61324D01*
X83547Y-61324D01*
X83552Y-61327D01*
X83555Y-61328D01*
X83560Y-61330D01*
X83565Y-61332D01*
X83566Y-61332D01*
X83570Y-61333D01*
X83573Y-61336D01*
X83577Y-61339D01*
X83579Y-61340D01*
X83582Y-61341D01*
X83586Y-61344D01*
X83590Y-61346D01*
X83599Y-61352D01*
X83613Y-61346D01*
X83628Y-61340D01*
X83642Y-61338D01*
X83656Y-61340D01*
X83663Y-61342D01*
X83675Y-61349D01*
X83684Y-61357D01*
X83691Y-61367D01*
X83693Y-61370D01*
X83697Y-61380D01*
X83699Y-61389D01*
X83698Y-61399D01*
X83695Y-61410D01*
X83693Y-61415D01*
X83689Y-61424D01*
X83686Y-61429D01*
X83682Y-61433D01*
X83677Y-61437D01*
X83677Y-61437D01*
X83670Y-61442D01*
X83667Y-61447D01*
X83667Y-61453D01*
X83667Y-61454D01*
X83669Y-61454D01*
X83671Y-61452D01*
X83676Y-61448D01*
X83683Y-61442D01*
X83692Y-61432D01*
X83693Y-61432D01*
X83699Y-61424D01*
X83709Y-61415D01*
X83720Y-61403D01*
X83733Y-61390D01*
X83746Y-61376D01*
X83760Y-61362D01*
X83774Y-61348D01*
X83788Y-61334D01*
X83802Y-61320D01*
X83815Y-61306D01*
X83828Y-61293D01*
X83839Y-61281D01*
X83849Y-61272D01*
X83856Y-61264D01*
X83870Y-61249D01*
X83883Y-61236D01*
X83894Y-61224D01*
X83903Y-61216D01*
X83910Y-61209D01*
X83914Y-61206D01*
X83915Y-61205D01*
X83918Y-61206D01*
X83922Y-61210D01*
X83927Y-61215D01*
X83932Y-61221D01*
X83937Y-61226D01*
X83941Y-61231D01*
X83942Y-61233D01*
X83942Y-61233D01*
X83942Y-61233D01*
X83942Y-61233D01*
G37*
G36*
X83538Y-62380D02*
X83537Y-62387D01*
X83536Y-62393D01*
X83534Y-62398D01*
X83530Y-62405D01*
X83524Y-62414D01*
X83518Y-62418D01*
X83515Y-62420D01*
X83509Y-62421D01*
X83501Y-62422D01*
X83498Y-62422D01*
X83498Y-62380D01*
X83496Y-62378D01*
X83493Y-62378D01*
X83492Y-62379D01*
X83491Y-62382D01*
X83493Y-62385D01*
X83495Y-62386D01*
X83497Y-62384D01*
X83498Y-62383D01*
X83498Y-62380D01*
X83498Y-62422D01*
X83492Y-62422D01*
X83483Y-62422D01*
X83477Y-62421D01*
X83468Y-62417D01*
X83461Y-62409D01*
X83457Y-62399D01*
X83454Y-62386D01*
X83454Y-62380D01*
X83454Y-62372D01*
X83455Y-62366D01*
X83457Y-62361D01*
X83461Y-62356D01*
X83469Y-62346D01*
X83478Y-62341D01*
X83490Y-62338D01*
X83496Y-62338D01*
X83507Y-62339D01*
X83516Y-62342D01*
X83524Y-62348D01*
X83530Y-62356D01*
X83534Y-62362D01*
X83537Y-62367D01*
X83537Y-62372D01*
X83538Y-62380D01*
X83538Y-62380D01*
X83538Y-62380D01*
G37*
G54D15*
X99269Y-58255D02*
X99277Y-58251D01*
X99290Y-58251D01*
X99302Y-58255D01*
X99311Y-58263D01*
X99315Y-58272D01*
X99319Y-58289D01*
X99319Y-58302D01*
X99315Y-58319D01*
X99311Y-58327D01*
X99302Y-58336D01*
X99290Y-58340D01*
X99281Y-58340D01*
X99269Y-58336D01*
X99264Y-58331D01*
X99264Y-58302D01*
X99281Y-58302D01*
X99230Y-58259D02*
X99226Y-58255D01*
X99218Y-58251D01*
X99197Y-58251D01*
X99188Y-58255D01*
X99184Y-58259D01*
X99180Y-58268D01*
X99180Y-58276D01*
X99184Y-58289D01*
X99235Y-58340D01*
X99180Y-58340D01*
G54D16*
X83281Y-62142D02*
X83285Y-62140D01*
X83290Y-62140D01*
X83295Y-62142D01*
X83298Y-62146D01*
X83300Y-62149D01*
X83302Y-62156D01*
X83302Y-62161D01*
X83300Y-62168D01*
X83298Y-62171D01*
X83295Y-62175D01*
X83290Y-62176D01*
X83286Y-62176D01*
X83281Y-62175D01*
X83280Y-62173D01*
X83280Y-62161D01*
X83286Y-62161D01*
X83259Y-62140D02*
X83259Y-62149D01*
X83268Y-62146D02*
X83259Y-62149D01*
X83250Y-62146D01*
X83264Y-62156D02*
X83259Y-62149D01*
X83254Y-62156D01*
X83232Y-62140D02*
X83232Y-62149D01*
X83240Y-62146D02*
X83232Y-62149D01*
X83223Y-62146D01*
X83237Y-62156D02*
X83232Y-62149D01*
X83226Y-62156D01*
X83204Y-62140D02*
X83204Y-62149D01*
X83213Y-62146D02*
X83204Y-62149D01*
X83195Y-62146D01*
X83209Y-62156D02*
X83204Y-62149D01*
X83199Y-62156D01*
M02*
