%FSLAX34Y34*%
G04 Gerber Fmt 3.4, Leading zero omitted, Abs format*
G04 (created by PCBNEW (2013-10-28 BZR 4418)-product) date jeu. 31 oct. 2013 10:30:57 CET*
%MOIN*%
G01*
G70*
G90*
G04 APERTURE LIST*
%ADD10C,0.005906*%
%ADD11C,0.009843*%
%ADD12C,0.017717*%
%ADD13C,0.010000*%
%ADD14C,0.012000*%
%ADD15C,0.008000*%
%ADD16C,0.005000*%
%ADD17C,0.012500*%
%ADD18C,0.015000*%
%ADD19C,0.007500*%
%ADD20C,0.007874*%
%ADD21C,0.011250*%
%ADD22C,0.011300*%
%ADD23C,0.001250*%
G04 APERTURE END LIST*
G54D10*
G54D11*
X98696Y-63300D02*
X98715Y-63262D01*
X98715Y-63206D01*
X98696Y-63150D01*
X98659Y-63112D01*
X98621Y-63093D01*
X98546Y-63075D01*
X98490Y-63075D01*
X98415Y-63093D01*
X98378Y-63112D01*
X98340Y-63150D01*
X98321Y-63206D01*
X98321Y-63243D01*
X98340Y-63300D01*
X98359Y-63318D01*
X98490Y-63318D01*
X98490Y-63243D01*
X98321Y-63487D02*
X98715Y-63487D01*
X98321Y-63712D01*
X98715Y-63712D01*
X98321Y-63899D02*
X98715Y-63899D01*
X98715Y-63993D01*
X98696Y-64049D01*
X98659Y-64087D01*
X98621Y-64106D01*
X98546Y-64124D01*
X98490Y-64124D01*
X98415Y-64106D01*
X98378Y-64087D01*
X98340Y-64049D01*
X98321Y-63993D01*
X98321Y-63899D01*
X97715Y-63318D02*
X97321Y-63450D01*
X97715Y-63581D01*
X97321Y-63712D02*
X97715Y-63712D01*
X97321Y-63899D02*
X97715Y-63899D01*
X97321Y-64124D01*
X97715Y-64124D01*
X82871Y-53628D02*
X83059Y-53496D01*
X82871Y-53403D02*
X83265Y-53403D01*
X83265Y-53553D01*
X83246Y-53590D01*
X83228Y-53609D01*
X83190Y-53628D01*
X83134Y-53628D01*
X83096Y-53609D01*
X83078Y-53590D01*
X83059Y-53553D01*
X83059Y-53403D01*
X83078Y-53796D02*
X83078Y-53928D01*
X82871Y-53984D02*
X82871Y-53796D01*
X83265Y-53796D01*
X83265Y-53984D01*
X82890Y-54134D02*
X82871Y-54190D01*
X82871Y-54284D01*
X82890Y-54321D01*
X82909Y-54340D01*
X82946Y-54359D01*
X82984Y-54359D01*
X83021Y-54340D01*
X83040Y-54321D01*
X83059Y-54284D01*
X83078Y-54209D01*
X83096Y-54171D01*
X83115Y-54153D01*
X83153Y-54134D01*
X83190Y-54134D01*
X83228Y-54153D01*
X83246Y-54171D01*
X83265Y-54209D01*
X83265Y-54303D01*
X83246Y-54359D01*
X83078Y-54528D02*
X83078Y-54659D01*
X82871Y-54715D02*
X82871Y-54528D01*
X83265Y-54528D01*
X83265Y-54715D01*
X83265Y-54828D02*
X83265Y-55053D01*
X82871Y-54940D02*
X83265Y-54940D01*
X83265Y-63125D02*
X82946Y-63125D01*
X82909Y-63143D01*
X82890Y-63162D01*
X82871Y-63200D01*
X82871Y-63275D01*
X82890Y-63312D01*
X82909Y-63331D01*
X82946Y-63350D01*
X83265Y-63350D01*
X82890Y-63518D02*
X82871Y-63575D01*
X82871Y-63668D01*
X82890Y-63706D01*
X82909Y-63725D01*
X82946Y-63743D01*
X82984Y-63743D01*
X83021Y-63725D01*
X83040Y-63706D01*
X83059Y-63668D01*
X83078Y-63593D01*
X83096Y-63556D01*
X83115Y-63537D01*
X83153Y-63518D01*
X83190Y-63518D01*
X83228Y-63537D01*
X83246Y-63556D01*
X83265Y-63593D01*
X83265Y-63687D01*
X83246Y-63743D01*
X83078Y-63912D02*
X83078Y-64043D01*
X82871Y-64099D02*
X82871Y-63912D01*
X83265Y-63912D01*
X83265Y-64099D01*
X82871Y-64493D02*
X83059Y-64362D01*
X82871Y-64268D02*
X83265Y-64268D01*
X83265Y-64418D01*
X83246Y-64456D01*
X83228Y-64474D01*
X83190Y-64493D01*
X83134Y-64493D01*
X83096Y-64474D01*
X83078Y-64456D01*
X83059Y-64418D01*
X83059Y-64268D01*
G54D12*
X86356Y-56206D02*
X86356Y-55418D01*
X86806Y-56206D02*
X86468Y-55756D01*
X86806Y-55418D02*
X86356Y-55868D01*
X87556Y-56206D02*
X87106Y-56206D01*
X87331Y-56206D02*
X87331Y-55418D01*
X87256Y-55531D01*
X87181Y-55606D01*
X87106Y-55643D01*
X87893Y-56131D02*
X87931Y-56168D01*
X87893Y-56206D01*
X87856Y-56168D01*
X87893Y-56131D01*
X87893Y-56206D01*
X88681Y-56206D02*
X88231Y-56206D01*
X88456Y-56206D02*
X88456Y-55418D01*
X88381Y-55531D01*
X88306Y-55606D01*
X88231Y-55643D01*
X86412Y-61718D02*
X86900Y-61718D01*
X86637Y-62018D01*
X86750Y-62018D01*
X86825Y-62056D01*
X86862Y-62093D01*
X86900Y-62168D01*
X86900Y-62356D01*
X86862Y-62431D01*
X86825Y-62468D01*
X86750Y-62506D01*
X86525Y-62506D01*
X86450Y-62468D01*
X86412Y-62431D01*
X87200Y-61793D02*
X87237Y-61756D01*
X87312Y-61718D01*
X87500Y-61718D01*
X87575Y-61756D01*
X87612Y-61793D01*
X87650Y-61868D01*
X87650Y-61943D01*
X87612Y-62056D01*
X87162Y-62506D01*
X87650Y-62506D01*
X87987Y-62506D02*
X87987Y-61718D01*
X88250Y-62281D01*
X88512Y-61718D01*
X88512Y-62506D01*
X88812Y-61718D02*
X89337Y-62506D01*
X89337Y-61718D02*
X88812Y-62506D01*
X89599Y-61793D02*
X89637Y-61756D01*
X89712Y-61718D01*
X89899Y-61718D01*
X89974Y-61756D01*
X90012Y-61793D01*
X90049Y-61868D01*
X90049Y-61943D01*
X90012Y-62056D01*
X89562Y-62506D01*
X90049Y-62506D01*
X90762Y-61718D02*
X90387Y-61718D01*
X90349Y-62093D01*
X90387Y-62056D01*
X90462Y-62018D01*
X90649Y-62018D01*
X90724Y-62056D01*
X90762Y-62093D01*
X90799Y-62168D01*
X90799Y-62356D01*
X90762Y-62431D01*
X90724Y-62468D01*
X90649Y-62506D01*
X90462Y-62506D01*
X90387Y-62468D01*
X90349Y-62431D01*
X91287Y-61718D02*
X91362Y-61718D01*
X91437Y-61756D01*
X91474Y-61793D01*
X91512Y-61868D01*
X91549Y-62018D01*
X91549Y-62206D01*
X91512Y-62356D01*
X91474Y-62431D01*
X91437Y-62468D01*
X91362Y-62506D01*
X91287Y-62506D01*
X91212Y-62468D01*
X91174Y-62431D01*
X91137Y-62356D01*
X91099Y-62206D01*
X91099Y-62018D01*
X91137Y-61868D01*
X91174Y-61793D01*
X91212Y-61756D01*
X91287Y-61718D01*
G54D11*
X96853Y-53884D02*
X96984Y-54278D01*
X97115Y-53884D01*
X97378Y-54071D02*
X97434Y-54090D01*
X97453Y-54109D01*
X97471Y-54146D01*
X97471Y-54203D01*
X97453Y-54240D01*
X97434Y-54259D01*
X97396Y-54278D01*
X97246Y-54278D01*
X97246Y-53884D01*
X97378Y-53884D01*
X97415Y-53903D01*
X97434Y-53921D01*
X97453Y-53959D01*
X97453Y-53996D01*
X97434Y-54034D01*
X97415Y-54053D01*
X97378Y-54071D01*
X97246Y-54071D01*
X97621Y-54165D02*
X97809Y-54165D01*
X97584Y-54278D02*
X97715Y-53884D01*
X97846Y-54278D01*
X97921Y-53884D02*
X98146Y-53884D01*
X98034Y-54278D02*
X98034Y-53884D01*
X98696Y-54100D02*
X98715Y-54062D01*
X98715Y-54006D01*
X98696Y-53950D01*
X98659Y-53912D01*
X98621Y-53893D01*
X98546Y-53875D01*
X98490Y-53875D01*
X98415Y-53893D01*
X98378Y-53912D01*
X98340Y-53950D01*
X98321Y-54006D01*
X98321Y-54043D01*
X98340Y-54100D01*
X98359Y-54118D01*
X98490Y-54118D01*
X98490Y-54043D01*
X98321Y-54287D02*
X98715Y-54287D01*
X98321Y-54512D01*
X98715Y-54512D01*
X98321Y-54699D02*
X98715Y-54699D01*
X98715Y-54793D01*
X98696Y-54849D01*
X98659Y-54887D01*
X98621Y-54906D01*
X98546Y-54924D01*
X98490Y-54924D01*
X98415Y-54906D01*
X98378Y-54887D01*
X98340Y-54849D01*
X98321Y-54793D01*
X98321Y-54699D01*
X95696Y-54100D02*
X95715Y-54062D01*
X95715Y-54006D01*
X95696Y-53950D01*
X95659Y-53912D01*
X95621Y-53893D01*
X95546Y-53875D01*
X95490Y-53875D01*
X95415Y-53893D01*
X95378Y-53912D01*
X95340Y-53950D01*
X95321Y-54006D01*
X95321Y-54043D01*
X95340Y-54100D01*
X95359Y-54118D01*
X95490Y-54118D01*
X95490Y-54043D01*
X95321Y-54287D02*
X95715Y-54287D01*
X95321Y-54512D01*
X95715Y-54512D01*
X95321Y-54699D02*
X95715Y-54699D01*
X95715Y-54793D01*
X95696Y-54849D01*
X95659Y-54887D01*
X95621Y-54906D01*
X95546Y-54924D01*
X95490Y-54924D01*
X95415Y-54906D01*
X95378Y-54887D01*
X95340Y-54849D01*
X95321Y-54793D01*
X95321Y-54699D01*
X94715Y-53825D02*
X94321Y-53956D01*
X94715Y-54087D01*
X94321Y-54218D02*
X94715Y-54218D01*
X94715Y-54312D01*
X94696Y-54368D01*
X94659Y-54406D01*
X94621Y-54424D01*
X94546Y-54443D01*
X94490Y-54443D01*
X94415Y-54424D01*
X94378Y-54406D01*
X94340Y-54368D01*
X94321Y-54312D01*
X94321Y-54218D01*
X94321Y-54612D02*
X94715Y-54612D01*
X94715Y-54706D01*
X94696Y-54762D01*
X94659Y-54799D01*
X94621Y-54818D01*
X94546Y-54837D01*
X94490Y-54837D01*
X94415Y-54818D01*
X94378Y-54799D01*
X94340Y-54762D01*
X94321Y-54706D01*
X94321Y-54612D01*
X93321Y-53859D02*
X93715Y-53859D01*
X93715Y-53953D01*
X93696Y-54009D01*
X93659Y-54046D01*
X93621Y-54065D01*
X93546Y-54084D01*
X93490Y-54084D01*
X93415Y-54065D01*
X93378Y-54046D01*
X93340Y-54009D01*
X93321Y-53953D01*
X93321Y-53859D01*
X93715Y-54215D02*
X93715Y-54478D01*
X93321Y-54309D01*
X92321Y-53859D02*
X92715Y-53859D01*
X92715Y-53953D01*
X92696Y-54009D01*
X92659Y-54046D01*
X92621Y-54065D01*
X92546Y-54084D01*
X92490Y-54084D01*
X92415Y-54065D01*
X92378Y-54046D01*
X92340Y-54009D01*
X92321Y-53953D01*
X92321Y-53859D01*
X92715Y-54421D02*
X92715Y-54346D01*
X92696Y-54309D01*
X92678Y-54290D01*
X92621Y-54253D01*
X92546Y-54234D01*
X92396Y-54234D01*
X92359Y-54253D01*
X92340Y-54271D01*
X92321Y-54309D01*
X92321Y-54384D01*
X92340Y-54421D01*
X92359Y-54440D01*
X92396Y-54459D01*
X92490Y-54459D01*
X92528Y-54440D01*
X92546Y-54421D01*
X92565Y-54384D01*
X92565Y-54309D01*
X92546Y-54271D01*
X92528Y-54253D01*
X92490Y-54234D01*
X91321Y-53859D02*
X91715Y-53859D01*
X91715Y-53953D01*
X91696Y-54009D01*
X91659Y-54046D01*
X91621Y-54065D01*
X91546Y-54084D01*
X91490Y-54084D01*
X91415Y-54065D01*
X91378Y-54046D01*
X91340Y-54009D01*
X91321Y-53953D01*
X91321Y-53859D01*
X91715Y-54440D02*
X91715Y-54253D01*
X91528Y-54234D01*
X91546Y-54253D01*
X91565Y-54290D01*
X91565Y-54384D01*
X91546Y-54421D01*
X91528Y-54440D01*
X91490Y-54459D01*
X91396Y-54459D01*
X91359Y-54440D01*
X91340Y-54421D01*
X91321Y-54384D01*
X91321Y-54290D01*
X91340Y-54253D01*
X91359Y-54234D01*
X90321Y-53859D02*
X90715Y-53859D01*
X90715Y-53953D01*
X90696Y-54009D01*
X90659Y-54046D01*
X90621Y-54065D01*
X90546Y-54084D01*
X90490Y-54084D01*
X90415Y-54065D01*
X90378Y-54046D01*
X90340Y-54009D01*
X90321Y-53953D01*
X90321Y-53859D01*
X90584Y-54421D02*
X90321Y-54421D01*
X90734Y-54328D02*
X90453Y-54234D01*
X90453Y-54478D01*
X89321Y-53859D02*
X89715Y-53859D01*
X89715Y-53953D01*
X89696Y-54009D01*
X89659Y-54046D01*
X89621Y-54065D01*
X89546Y-54084D01*
X89490Y-54084D01*
X89415Y-54065D01*
X89378Y-54046D01*
X89340Y-54009D01*
X89321Y-53953D01*
X89321Y-53859D01*
X89715Y-54215D02*
X89715Y-54459D01*
X89565Y-54328D01*
X89565Y-54384D01*
X89546Y-54421D01*
X89528Y-54440D01*
X89490Y-54459D01*
X89396Y-54459D01*
X89359Y-54440D01*
X89340Y-54421D01*
X89321Y-54384D01*
X89321Y-54271D01*
X89340Y-54234D01*
X89359Y-54215D01*
X88321Y-53859D02*
X88715Y-53859D01*
X88715Y-53953D01*
X88696Y-54009D01*
X88659Y-54046D01*
X88621Y-54065D01*
X88546Y-54084D01*
X88490Y-54084D01*
X88415Y-54065D01*
X88378Y-54046D01*
X88340Y-54009D01*
X88321Y-53953D01*
X88321Y-53859D01*
X88678Y-54234D02*
X88696Y-54253D01*
X88715Y-54290D01*
X88715Y-54384D01*
X88696Y-54421D01*
X88678Y-54440D01*
X88640Y-54459D01*
X88603Y-54459D01*
X88546Y-54440D01*
X88321Y-54215D01*
X88321Y-54459D01*
X87321Y-53859D02*
X87715Y-53859D01*
X87715Y-53953D01*
X87696Y-54009D01*
X87659Y-54046D01*
X87621Y-54065D01*
X87546Y-54084D01*
X87490Y-54084D01*
X87415Y-54065D01*
X87378Y-54046D01*
X87340Y-54009D01*
X87321Y-53953D01*
X87321Y-53859D01*
X87321Y-54459D02*
X87321Y-54234D01*
X87321Y-54346D02*
X87715Y-54346D01*
X87659Y-54309D01*
X87621Y-54271D01*
X87603Y-54234D01*
X86321Y-53859D02*
X86715Y-53859D01*
X86715Y-53953D01*
X86696Y-54009D01*
X86659Y-54046D01*
X86621Y-54065D01*
X86546Y-54084D01*
X86490Y-54084D01*
X86415Y-54065D01*
X86378Y-54046D01*
X86340Y-54009D01*
X86321Y-53953D01*
X86321Y-53859D01*
X86715Y-54328D02*
X86715Y-54365D01*
X86696Y-54403D01*
X86678Y-54421D01*
X86640Y-54440D01*
X86565Y-54459D01*
X86471Y-54459D01*
X86396Y-54440D01*
X86359Y-54421D01*
X86340Y-54403D01*
X86321Y-54365D01*
X86321Y-54328D01*
X86340Y-54290D01*
X86359Y-54271D01*
X86396Y-54253D01*
X86471Y-54234D01*
X86565Y-54234D01*
X86640Y-54253D01*
X86678Y-54271D01*
X86696Y-54290D01*
X86715Y-54328D01*
X95696Y-63350D02*
X95715Y-63312D01*
X95715Y-63256D01*
X95696Y-63200D01*
X95659Y-63162D01*
X95621Y-63143D01*
X95546Y-63125D01*
X95490Y-63125D01*
X95415Y-63143D01*
X95378Y-63162D01*
X95340Y-63200D01*
X95321Y-63256D01*
X95321Y-63293D01*
X95340Y-63350D01*
X95359Y-63368D01*
X95490Y-63368D01*
X95490Y-63293D01*
X95321Y-63537D02*
X95715Y-63537D01*
X95321Y-63762D01*
X95715Y-63762D01*
X95321Y-63949D02*
X95715Y-63949D01*
X95715Y-64043D01*
X95696Y-64099D01*
X95659Y-64137D01*
X95621Y-64156D01*
X95546Y-64174D01*
X95490Y-64174D01*
X95415Y-64156D01*
X95378Y-64137D01*
X95340Y-64099D01*
X95321Y-64043D01*
X95321Y-63949D01*
X94715Y-63125D02*
X94321Y-63256D01*
X94715Y-63387D01*
X94321Y-63518D02*
X94715Y-63518D01*
X94715Y-63612D01*
X94696Y-63668D01*
X94659Y-63706D01*
X94621Y-63724D01*
X94546Y-63743D01*
X94490Y-63743D01*
X94415Y-63724D01*
X94378Y-63706D01*
X94340Y-63668D01*
X94321Y-63612D01*
X94321Y-63518D01*
X94321Y-63912D02*
X94715Y-63912D01*
X94715Y-64006D01*
X94696Y-64062D01*
X94659Y-64099D01*
X94621Y-64118D01*
X94546Y-64137D01*
X94490Y-64137D01*
X94415Y-64118D01*
X94378Y-64099D01*
X94340Y-64062D01*
X94321Y-64006D01*
X94321Y-63912D01*
X93321Y-63559D02*
X93715Y-63559D01*
X93715Y-63653D01*
X93696Y-63709D01*
X93659Y-63746D01*
X93621Y-63765D01*
X93546Y-63784D01*
X93490Y-63784D01*
X93415Y-63765D01*
X93378Y-63746D01*
X93340Y-63709D01*
X93321Y-63653D01*
X93321Y-63559D01*
X93546Y-64009D02*
X93565Y-63971D01*
X93584Y-63953D01*
X93621Y-63934D01*
X93640Y-63934D01*
X93678Y-63953D01*
X93696Y-63971D01*
X93715Y-64009D01*
X93715Y-64084D01*
X93696Y-64121D01*
X93678Y-64140D01*
X93640Y-64159D01*
X93621Y-64159D01*
X93584Y-64140D01*
X93565Y-64121D01*
X93546Y-64084D01*
X93546Y-64009D01*
X93528Y-63971D01*
X93509Y-63953D01*
X93471Y-63934D01*
X93396Y-63934D01*
X93359Y-63953D01*
X93340Y-63971D01*
X93321Y-64009D01*
X93321Y-64084D01*
X93340Y-64121D01*
X93359Y-64140D01*
X93396Y-64159D01*
X93471Y-64159D01*
X93509Y-64140D01*
X93528Y-64121D01*
X93546Y-64084D01*
X92321Y-63559D02*
X92715Y-63559D01*
X92715Y-63653D01*
X92696Y-63709D01*
X92659Y-63746D01*
X92621Y-63765D01*
X92546Y-63784D01*
X92490Y-63784D01*
X92415Y-63765D01*
X92378Y-63746D01*
X92340Y-63709D01*
X92321Y-63653D01*
X92321Y-63559D01*
X92321Y-63971D02*
X92321Y-64046D01*
X92340Y-64084D01*
X92359Y-64103D01*
X92415Y-64140D01*
X92490Y-64159D01*
X92640Y-64159D01*
X92678Y-64140D01*
X92696Y-64121D01*
X92715Y-64084D01*
X92715Y-64009D01*
X92696Y-63971D01*
X92678Y-63953D01*
X92640Y-63934D01*
X92546Y-63934D01*
X92509Y-63953D01*
X92490Y-63971D01*
X92471Y-64009D01*
X92471Y-64084D01*
X92490Y-64121D01*
X92509Y-64140D01*
X92546Y-64159D01*
X91321Y-63171D02*
X91715Y-63171D01*
X91715Y-63265D01*
X91696Y-63321D01*
X91659Y-63359D01*
X91621Y-63378D01*
X91546Y-63396D01*
X91490Y-63396D01*
X91415Y-63378D01*
X91378Y-63359D01*
X91340Y-63321D01*
X91321Y-63265D01*
X91321Y-63171D01*
X91321Y-63771D02*
X91321Y-63546D01*
X91321Y-63659D02*
X91715Y-63659D01*
X91659Y-63621D01*
X91621Y-63584D01*
X91603Y-63546D01*
X91715Y-64015D02*
X91715Y-64053D01*
X91696Y-64090D01*
X91678Y-64109D01*
X91640Y-64128D01*
X91565Y-64146D01*
X91471Y-64146D01*
X91396Y-64128D01*
X91359Y-64109D01*
X91340Y-64090D01*
X91321Y-64053D01*
X91321Y-64015D01*
X91340Y-63978D01*
X91359Y-63959D01*
X91396Y-63940D01*
X91471Y-63921D01*
X91565Y-63921D01*
X91640Y-63940D01*
X91678Y-63959D01*
X91696Y-63978D01*
X91715Y-64015D01*
X90321Y-63171D02*
X90715Y-63171D01*
X90715Y-63265D01*
X90696Y-63321D01*
X90659Y-63359D01*
X90621Y-63378D01*
X90546Y-63396D01*
X90490Y-63396D01*
X90415Y-63378D01*
X90378Y-63359D01*
X90340Y-63321D01*
X90321Y-63265D01*
X90321Y-63171D01*
X90321Y-63771D02*
X90321Y-63546D01*
X90321Y-63659D02*
X90715Y-63659D01*
X90659Y-63621D01*
X90621Y-63584D01*
X90603Y-63546D01*
X90321Y-64146D02*
X90321Y-63921D01*
X90321Y-64034D02*
X90715Y-64034D01*
X90659Y-63996D01*
X90621Y-63959D01*
X90603Y-63921D01*
X89321Y-63171D02*
X89715Y-63171D01*
X89715Y-63265D01*
X89696Y-63321D01*
X89659Y-63359D01*
X89621Y-63378D01*
X89546Y-63396D01*
X89490Y-63396D01*
X89415Y-63378D01*
X89378Y-63359D01*
X89340Y-63321D01*
X89321Y-63265D01*
X89321Y-63171D01*
X89321Y-63771D02*
X89321Y-63546D01*
X89321Y-63659D02*
X89715Y-63659D01*
X89659Y-63621D01*
X89621Y-63584D01*
X89603Y-63546D01*
X89678Y-63921D02*
X89696Y-63940D01*
X89715Y-63978D01*
X89715Y-64071D01*
X89696Y-64109D01*
X89678Y-64128D01*
X89640Y-64146D01*
X89603Y-64146D01*
X89546Y-64128D01*
X89321Y-63903D01*
X89321Y-64146D01*
X88321Y-63171D02*
X88715Y-63171D01*
X88715Y-63265D01*
X88696Y-63321D01*
X88659Y-63359D01*
X88621Y-63378D01*
X88546Y-63396D01*
X88490Y-63396D01*
X88415Y-63378D01*
X88378Y-63359D01*
X88340Y-63321D01*
X88321Y-63265D01*
X88321Y-63171D01*
X88321Y-63771D02*
X88321Y-63546D01*
X88321Y-63659D02*
X88715Y-63659D01*
X88659Y-63621D01*
X88621Y-63584D01*
X88603Y-63546D01*
X88715Y-63903D02*
X88715Y-64146D01*
X88565Y-64015D01*
X88565Y-64071D01*
X88546Y-64109D01*
X88528Y-64128D01*
X88490Y-64146D01*
X88396Y-64146D01*
X88359Y-64128D01*
X88340Y-64109D01*
X88321Y-64071D01*
X88321Y-63959D01*
X88340Y-63921D01*
X88359Y-63903D01*
X87321Y-63171D02*
X87715Y-63171D01*
X87715Y-63265D01*
X87696Y-63321D01*
X87659Y-63359D01*
X87621Y-63378D01*
X87546Y-63396D01*
X87490Y-63396D01*
X87415Y-63378D01*
X87378Y-63359D01*
X87340Y-63321D01*
X87321Y-63265D01*
X87321Y-63171D01*
X87321Y-63771D02*
X87321Y-63546D01*
X87321Y-63659D02*
X87715Y-63659D01*
X87659Y-63621D01*
X87621Y-63584D01*
X87603Y-63546D01*
X87584Y-64109D02*
X87321Y-64109D01*
X87734Y-64015D02*
X87453Y-63921D01*
X87453Y-64165D01*
X86321Y-63484D02*
X86509Y-63353D01*
X86321Y-63259D02*
X86715Y-63259D01*
X86715Y-63409D01*
X86696Y-63446D01*
X86678Y-63465D01*
X86640Y-63484D01*
X86584Y-63484D01*
X86546Y-63465D01*
X86528Y-63446D01*
X86509Y-63409D01*
X86509Y-63259D01*
X86340Y-63634D02*
X86321Y-63690D01*
X86321Y-63784D01*
X86340Y-63821D01*
X86359Y-63840D01*
X86396Y-63859D01*
X86434Y-63859D01*
X86471Y-63840D01*
X86490Y-63821D01*
X86509Y-63784D01*
X86528Y-63709D01*
X86546Y-63671D01*
X86565Y-63653D01*
X86603Y-63634D01*
X86640Y-63634D01*
X86678Y-63653D01*
X86696Y-63671D01*
X86715Y-63709D01*
X86715Y-63803D01*
X86696Y-63859D01*
X86715Y-63971D02*
X86715Y-64196D01*
X86321Y-64084D02*
X86715Y-64084D01*
G54D13*
X85220Y-54200D02*
X85220Y-53200D01*
X85213Y-53186D02*
G75*
G03X84600Y-52900I-613J-513D01*
G74*
G01*
X84599Y-52901D02*
G75*
G03X83895Y-53324I0J-799D01*
G74*
G01*
X84601Y-54498D02*
G75*
G03X85210Y-54216I-1J798D01*
G74*
G01*
X83905Y-54097D02*
G75*
G03X84600Y-54500I694J397D01*
G74*
G01*
X83895Y-53320D02*
G75*
G03X83800Y-53700I704J-379D01*
G74*
G01*
X83800Y-53700D02*
G75*
G03X83919Y-54119I799J0D01*
G74*
G01*
X85220Y-64800D02*
X85220Y-63800D01*
X85213Y-63786D02*
G75*
G03X84600Y-63500I-613J-513D01*
G74*
G01*
X84599Y-63501D02*
G75*
G03X83895Y-63924I0J-799D01*
G74*
G01*
X84601Y-65098D02*
G75*
G03X85210Y-64816I-1J798D01*
G74*
G01*
X83905Y-64697D02*
G75*
G03X84600Y-65100I694J397D01*
G74*
G01*
X83895Y-63920D02*
G75*
G03X83800Y-64300I704J-379D01*
G74*
G01*
X83800Y-64300D02*
G75*
G03X83919Y-64719I799J0D01*
G74*
G01*
G54D14*
X96000Y-64300D02*
X96000Y-65300D01*
X96000Y-65300D02*
X86000Y-65300D01*
X86000Y-65300D02*
X86000Y-64300D01*
X86000Y-64300D02*
X96000Y-64300D01*
X86000Y-53700D02*
X86000Y-52700D01*
X86000Y-52700D02*
X96000Y-52700D01*
X96000Y-52700D02*
X96000Y-53700D01*
X96000Y-53700D02*
X86000Y-53700D01*
X89000Y-56830D02*
X89000Y-54850D01*
X89000Y-54850D02*
X90000Y-54850D01*
X90000Y-54850D02*
X90000Y-56850D01*
X90000Y-56850D02*
X89000Y-56850D01*
X89250Y-56850D02*
X89000Y-56600D01*
X92000Y-63130D02*
X92000Y-61150D01*
X92000Y-61150D02*
X93000Y-61150D01*
X93000Y-61150D02*
X93000Y-63150D01*
X93000Y-63150D02*
X92000Y-63150D01*
X92250Y-63150D02*
X92000Y-62900D01*
X93000Y-63130D02*
X93000Y-61150D01*
X93000Y-61150D02*
X94000Y-61150D01*
X94000Y-61150D02*
X94000Y-63150D01*
X94000Y-63150D02*
X93000Y-63150D01*
X93250Y-63150D02*
X93000Y-62900D01*
X86000Y-61220D02*
X86000Y-63200D01*
X86000Y-63200D02*
X85000Y-63200D01*
X85000Y-63200D02*
X85000Y-61200D01*
X85000Y-61200D02*
X86000Y-61200D01*
X85750Y-61200D02*
X86000Y-61450D01*
X85000Y-61220D02*
X85000Y-63200D01*
X85000Y-63200D02*
X84000Y-63200D01*
X84000Y-63200D02*
X84000Y-61200D01*
X84000Y-61200D02*
X85000Y-61200D01*
X84750Y-61200D02*
X85000Y-61450D01*
X97000Y-56830D02*
X97000Y-54850D01*
X97000Y-54850D02*
X98000Y-54850D01*
X98000Y-54850D02*
X98000Y-56850D01*
X98000Y-56850D02*
X97000Y-56850D01*
X97250Y-56850D02*
X97000Y-56600D01*
X99650Y-64800D02*
X99950Y-64800D01*
X99950Y-64800D02*
X99950Y-65200D01*
X99950Y-65200D02*
X102350Y-65200D01*
X102350Y-65200D02*
X102350Y-64800D01*
X102350Y-64800D02*
X102650Y-64800D01*
X102350Y-64800D02*
X102350Y-64400D01*
X102350Y-64400D02*
X99950Y-64400D01*
X99950Y-64400D02*
X99950Y-64800D01*
X100150Y-65200D02*
X100150Y-64400D01*
X100250Y-64400D02*
X100250Y-65200D01*
X99150Y-57500D02*
X99150Y-57800D01*
X99150Y-57800D02*
X98750Y-57800D01*
X98750Y-57800D02*
X98750Y-60200D01*
X98750Y-60200D02*
X99150Y-60200D01*
X99150Y-60200D02*
X99150Y-60500D01*
X99150Y-60200D02*
X99550Y-60200D01*
X99550Y-60200D02*
X99550Y-57800D01*
X99550Y-57800D02*
X99150Y-57800D01*
X98750Y-58000D02*
X99550Y-58000D01*
X99550Y-58100D02*
X98750Y-58100D01*
X99000Y-52700D02*
X99000Y-53700D01*
X99000Y-53700D02*
X97000Y-53700D01*
X97000Y-53700D02*
X97000Y-52700D01*
X97000Y-52700D02*
X99000Y-52700D01*
G54D15*
X83050Y-60500D02*
X83050Y-60300D01*
X83050Y-57500D02*
X83050Y-57700D01*
X83050Y-57700D02*
X82650Y-57700D01*
X82650Y-57700D02*
X82650Y-60300D01*
X82650Y-60300D02*
X83450Y-60300D01*
X83450Y-60300D02*
X83450Y-57700D01*
X83450Y-57700D02*
X83050Y-57700D01*
X82850Y-60300D02*
X82650Y-60100D01*
X82050Y-56300D02*
X81850Y-56300D01*
X79050Y-56300D02*
X79250Y-56300D01*
X79250Y-56300D02*
X79250Y-56700D01*
X79250Y-56700D02*
X81850Y-56700D01*
X81850Y-56700D02*
X81850Y-55900D01*
X81850Y-55900D02*
X79250Y-55900D01*
X79250Y-55900D02*
X79250Y-56300D01*
X81850Y-56500D02*
X81650Y-56700D01*
X79050Y-60800D02*
X79250Y-60800D01*
X82050Y-60800D02*
X81850Y-60800D01*
X81850Y-60800D02*
X81850Y-60400D01*
X81850Y-60400D02*
X79250Y-60400D01*
X79250Y-60400D02*
X79250Y-61200D01*
X79250Y-61200D02*
X81850Y-61200D01*
X81850Y-61200D02*
X81850Y-60800D01*
X79250Y-60600D02*
X79450Y-60400D01*
X79050Y-59000D02*
X79250Y-59000D01*
X82050Y-59000D02*
X81850Y-59000D01*
X81850Y-59000D02*
X81850Y-58600D01*
X81850Y-58600D02*
X79250Y-58600D01*
X79250Y-58600D02*
X79250Y-59400D01*
X79250Y-59400D02*
X81850Y-59400D01*
X81850Y-59400D02*
X81850Y-59000D01*
X79250Y-58800D02*
X79450Y-58600D01*
X79050Y-59900D02*
X79250Y-59900D01*
X82050Y-59900D02*
X81850Y-59900D01*
X81850Y-59900D02*
X81850Y-59500D01*
X81850Y-59500D02*
X79250Y-59500D01*
X79250Y-59500D02*
X79250Y-60300D01*
X79250Y-60300D02*
X81850Y-60300D01*
X81850Y-60300D02*
X81850Y-59900D01*
X79250Y-59700D02*
X79450Y-59500D01*
X79050Y-58100D02*
X79250Y-58100D01*
X82050Y-58100D02*
X81850Y-58100D01*
X81850Y-58100D02*
X81850Y-57700D01*
X81850Y-57700D02*
X79250Y-57700D01*
X79250Y-57700D02*
X79250Y-58500D01*
X79250Y-58500D02*
X81850Y-58500D01*
X81850Y-58500D02*
X81850Y-58100D01*
X79250Y-57900D02*
X79450Y-57700D01*
G54D16*
X81550Y-63800D02*
G75*
G03X81550Y-63800I-1000J0D01*
G74*
G01*
X79050Y-62300D02*
X82050Y-62300D01*
X82050Y-62300D02*
X82050Y-65300D01*
X82050Y-65300D02*
X79050Y-65300D01*
X79050Y-62300D02*
X79050Y-65300D01*
X81550Y-54200D02*
G75*
G03X81550Y-54200I-1000J0D01*
G74*
G01*
X82050Y-55700D02*
X79050Y-55700D01*
X79050Y-55700D02*
X79050Y-52700D01*
X79050Y-52700D02*
X82050Y-52700D01*
X82050Y-55700D02*
X82050Y-52700D01*
G54D17*
X94250Y-58000D02*
X91750Y-58000D01*
X94250Y-60000D02*
X91750Y-60000D01*
X90750Y-59000D02*
G75*
G03X91750Y-60000I1000J0D01*
G74*
G01*
X91750Y-58000D02*
G75*
G03X90750Y-59000I0J-1000D01*
G74*
G01*
X94250Y-60000D02*
G75*
G03X95250Y-59000I0J1000D01*
G74*
G01*
X95250Y-59000D02*
G75*
G03X94250Y-58000I-1000J0D01*
G74*
G01*
G54D16*
X97001Y-62150D02*
G75*
G03X97001Y-62150I-1001J0D01*
G74*
G01*
G54D14*
X98000Y-61170D02*
X98000Y-63150D01*
X98000Y-63150D02*
X97000Y-63150D01*
X97000Y-63150D02*
X97000Y-61150D01*
X97000Y-61150D02*
X98000Y-61150D01*
X97750Y-61150D02*
X98000Y-61400D01*
G54D16*
X95001Y-55850D02*
G75*
G03X95001Y-55850I-1001J0D01*
G74*
G01*
G54D14*
X84000Y-56830D02*
X84000Y-54850D01*
X84000Y-54850D02*
X85000Y-54850D01*
X85000Y-54850D02*
X85000Y-56850D01*
X85000Y-56850D02*
X84000Y-56850D01*
X84250Y-56850D02*
X84000Y-56600D01*
G54D16*
X93001Y-55850D02*
G75*
G03X93001Y-55850I-1001J0D01*
G74*
G01*
G54D14*
X90000Y-56830D02*
X90000Y-54850D01*
X90000Y-54850D02*
X91000Y-54850D01*
X91000Y-54850D02*
X91000Y-56850D01*
X91000Y-56850D02*
X90000Y-56850D01*
X90250Y-56850D02*
X90000Y-56600D01*
X85000Y-56830D02*
X85000Y-54850D01*
X85000Y-54850D02*
X86000Y-54850D01*
X86000Y-54850D02*
X86000Y-56850D01*
X86000Y-56850D02*
X85000Y-56850D01*
X85250Y-56850D02*
X85000Y-56600D01*
G54D16*
X97001Y-55850D02*
G75*
G03X97001Y-55850I-1001J0D01*
G74*
G01*
G54D14*
X99650Y-53200D02*
X99950Y-53200D01*
X99950Y-53200D02*
X99950Y-53600D01*
X99950Y-53600D02*
X102350Y-53600D01*
X102350Y-53600D02*
X102350Y-53200D01*
X102350Y-53200D02*
X102650Y-53200D01*
X102350Y-53200D02*
X102350Y-52800D01*
X102350Y-52800D02*
X99950Y-52800D01*
X99950Y-52800D02*
X99950Y-53200D01*
X100150Y-53600D02*
X100150Y-52800D01*
X100250Y-52800D02*
X100250Y-53600D01*
G54D15*
X79050Y-61700D02*
X79250Y-61700D01*
X82050Y-61700D02*
X81850Y-61700D01*
X81850Y-61700D02*
X81850Y-61300D01*
X81850Y-61300D02*
X79250Y-61300D01*
X79250Y-61300D02*
X79250Y-62100D01*
X79250Y-62100D02*
X81850Y-62100D01*
X81850Y-62100D02*
X81850Y-61700D01*
X79250Y-61500D02*
X79450Y-61300D01*
X82050Y-57200D02*
X81850Y-57200D01*
X79050Y-57200D02*
X79250Y-57200D01*
X79250Y-57200D02*
X79250Y-57600D01*
X79250Y-57600D02*
X81850Y-57600D01*
X81850Y-57600D02*
X81850Y-56800D01*
X81850Y-56800D02*
X79250Y-56800D01*
X79250Y-56800D02*
X79250Y-57200D01*
X81850Y-57400D02*
X81650Y-57600D01*
G54D16*
X106550Y-61400D02*
X106550Y-56600D01*
X106550Y-56600D02*
X99850Y-56600D01*
X99850Y-56600D02*
X99850Y-61400D01*
X99850Y-61400D02*
X106550Y-61400D01*
G54D13*
X103150Y-55650D02*
X99150Y-55650D01*
X103150Y-55350D02*
X103150Y-53850D01*
X103150Y-53850D02*
X99150Y-53850D01*
X99150Y-53850D02*
X99150Y-55850D01*
X99150Y-55850D02*
X103150Y-55850D01*
X103150Y-55850D02*
X103150Y-55350D01*
X99150Y-62350D02*
X103150Y-62350D01*
X99150Y-62650D02*
X99150Y-64150D01*
X99150Y-64150D02*
X103150Y-64150D01*
X103150Y-64150D02*
X103150Y-62150D01*
X103150Y-62150D02*
X99150Y-62150D01*
X99150Y-62150D02*
X99150Y-62650D01*
G54D18*
X98400Y-57700D02*
X83600Y-57700D01*
X98400Y-60300D02*
X83600Y-60300D01*
X84000Y-58500D02*
X84000Y-59500D01*
X84000Y-59500D02*
X83600Y-59500D01*
X84000Y-58500D02*
X83600Y-58500D01*
X98400Y-57700D02*
X98400Y-60300D01*
X83600Y-60300D02*
X83600Y-57700D01*
G54D14*
X99000Y-64300D02*
X99000Y-65300D01*
X99000Y-65300D02*
X97000Y-65300D01*
X97000Y-65300D02*
X97000Y-64300D01*
X97000Y-64300D02*
X99000Y-64300D01*
G54D15*
X84130Y-53926D02*
X84130Y-53426D01*
X84250Y-53426D01*
X84321Y-53450D01*
X84369Y-53497D01*
X84392Y-53545D01*
X84416Y-53640D01*
X84416Y-53711D01*
X84392Y-53807D01*
X84369Y-53854D01*
X84321Y-53902D01*
X84250Y-53926D01*
X84130Y-53926D01*
X84607Y-53473D02*
X84630Y-53450D01*
X84678Y-53426D01*
X84797Y-53426D01*
X84845Y-53450D01*
X84869Y-53473D01*
X84892Y-53521D01*
X84892Y-53569D01*
X84869Y-53640D01*
X84583Y-53926D01*
X84892Y-53926D01*
X84130Y-64526D02*
X84130Y-64026D01*
X84250Y-64026D01*
X84321Y-64050D01*
X84369Y-64097D01*
X84392Y-64145D01*
X84416Y-64240D01*
X84416Y-64311D01*
X84392Y-64407D01*
X84369Y-64454D01*
X84321Y-64502D01*
X84250Y-64526D01*
X84130Y-64526D01*
X84583Y-64026D02*
X84892Y-64026D01*
X84726Y-64216D01*
X84797Y-64216D01*
X84845Y-64240D01*
X84869Y-64264D01*
X84892Y-64311D01*
X84892Y-64430D01*
X84869Y-64478D01*
X84845Y-64502D01*
X84797Y-64526D01*
X84654Y-64526D01*
X84607Y-64502D01*
X84583Y-64478D01*
X90630Y-65026D02*
X90630Y-64526D01*
X90821Y-64526D01*
X90869Y-64550D01*
X90892Y-64573D01*
X90916Y-64621D01*
X90916Y-64692D01*
X90892Y-64740D01*
X90869Y-64764D01*
X90821Y-64788D01*
X90630Y-64788D01*
X91107Y-64573D02*
X91130Y-64550D01*
X91178Y-64526D01*
X91297Y-64526D01*
X91345Y-64550D01*
X91369Y-64573D01*
X91392Y-64621D01*
X91392Y-64669D01*
X91369Y-64740D01*
X91083Y-65026D01*
X91392Y-65026D01*
X90630Y-53426D02*
X90630Y-52926D01*
X90821Y-52926D01*
X90869Y-52950D01*
X90892Y-52973D01*
X90916Y-53021D01*
X90916Y-53092D01*
X90892Y-53140D01*
X90869Y-53164D01*
X90821Y-53188D01*
X90630Y-53188D01*
X91392Y-53426D02*
X91107Y-53426D01*
X91250Y-53426D02*
X91250Y-52926D01*
X91202Y-52997D01*
X91154Y-53045D01*
X91107Y-53069D01*
X89678Y-55933D02*
X89702Y-55957D01*
X89726Y-56028D01*
X89726Y-56076D01*
X89702Y-56147D01*
X89654Y-56195D01*
X89607Y-56219D01*
X89511Y-56242D01*
X89440Y-56242D01*
X89345Y-56219D01*
X89297Y-56195D01*
X89250Y-56147D01*
X89226Y-56076D01*
X89226Y-56028D01*
X89250Y-55957D01*
X89273Y-55933D01*
X89226Y-55766D02*
X89226Y-55433D01*
X89726Y-55647D01*
X92678Y-62233D02*
X92702Y-62257D01*
X92726Y-62328D01*
X92726Y-62376D01*
X92702Y-62447D01*
X92654Y-62495D01*
X92607Y-62519D01*
X92511Y-62542D01*
X92440Y-62542D01*
X92345Y-62519D01*
X92297Y-62495D01*
X92250Y-62447D01*
X92226Y-62376D01*
X92226Y-62328D01*
X92250Y-62257D01*
X92273Y-62233D01*
X92440Y-61947D02*
X92416Y-61995D01*
X92392Y-62019D01*
X92345Y-62042D01*
X92321Y-62042D01*
X92273Y-62019D01*
X92250Y-61995D01*
X92226Y-61947D01*
X92226Y-61852D01*
X92250Y-61804D01*
X92273Y-61780D01*
X92321Y-61757D01*
X92345Y-61757D01*
X92392Y-61780D01*
X92416Y-61804D01*
X92440Y-61852D01*
X92440Y-61947D01*
X92464Y-61995D01*
X92488Y-62019D01*
X92535Y-62042D01*
X92630Y-62042D01*
X92678Y-62019D01*
X92702Y-61995D01*
X92726Y-61947D01*
X92726Y-61852D01*
X92702Y-61804D01*
X92678Y-61780D01*
X92630Y-61757D01*
X92535Y-61757D01*
X92488Y-61780D01*
X92464Y-61804D01*
X92440Y-61852D01*
X93678Y-62233D02*
X93702Y-62257D01*
X93726Y-62328D01*
X93726Y-62376D01*
X93702Y-62447D01*
X93654Y-62495D01*
X93607Y-62519D01*
X93511Y-62542D01*
X93440Y-62542D01*
X93345Y-62519D01*
X93297Y-62495D01*
X93250Y-62447D01*
X93226Y-62376D01*
X93226Y-62328D01*
X93250Y-62257D01*
X93273Y-62233D01*
X93726Y-61995D02*
X93726Y-61900D01*
X93702Y-61852D01*
X93678Y-61828D01*
X93607Y-61780D01*
X93511Y-61757D01*
X93321Y-61757D01*
X93273Y-61780D01*
X93250Y-61804D01*
X93226Y-61852D01*
X93226Y-61947D01*
X93250Y-61995D01*
X93273Y-62019D01*
X93321Y-62042D01*
X93440Y-62042D01*
X93488Y-62019D01*
X93511Y-61995D01*
X93535Y-61947D01*
X93535Y-61852D01*
X93511Y-61804D01*
X93488Y-61780D01*
X93440Y-61757D01*
X85678Y-62521D02*
X85702Y-62545D01*
X85726Y-62616D01*
X85726Y-62664D01*
X85702Y-62735D01*
X85654Y-62783D01*
X85607Y-62807D01*
X85511Y-62830D01*
X85440Y-62830D01*
X85345Y-62807D01*
X85297Y-62783D01*
X85250Y-62735D01*
X85226Y-62664D01*
X85226Y-62616D01*
X85250Y-62545D01*
X85273Y-62521D01*
X85726Y-62045D02*
X85726Y-62330D01*
X85726Y-62188D02*
X85226Y-62188D01*
X85297Y-62235D01*
X85345Y-62283D01*
X85369Y-62330D01*
X85226Y-61735D02*
X85226Y-61688D01*
X85250Y-61640D01*
X85273Y-61616D01*
X85321Y-61592D01*
X85416Y-61569D01*
X85535Y-61569D01*
X85630Y-61592D01*
X85678Y-61616D01*
X85702Y-61640D01*
X85726Y-61688D01*
X85726Y-61735D01*
X85702Y-61783D01*
X85678Y-61807D01*
X85630Y-61830D01*
X85535Y-61854D01*
X85416Y-61854D01*
X85321Y-61830D01*
X85273Y-61807D01*
X85250Y-61783D01*
X85226Y-61735D01*
X84678Y-62521D02*
X84702Y-62545D01*
X84726Y-62616D01*
X84726Y-62664D01*
X84702Y-62735D01*
X84654Y-62783D01*
X84607Y-62807D01*
X84511Y-62830D01*
X84440Y-62830D01*
X84345Y-62807D01*
X84297Y-62783D01*
X84250Y-62735D01*
X84226Y-62664D01*
X84226Y-62616D01*
X84250Y-62545D01*
X84273Y-62521D01*
X84726Y-62045D02*
X84726Y-62330D01*
X84726Y-62188D02*
X84226Y-62188D01*
X84297Y-62235D01*
X84345Y-62283D01*
X84369Y-62330D01*
X84273Y-61854D02*
X84250Y-61830D01*
X84226Y-61783D01*
X84226Y-61664D01*
X84250Y-61616D01*
X84273Y-61592D01*
X84321Y-61569D01*
X84369Y-61569D01*
X84440Y-61592D01*
X84726Y-61878D01*
X84726Y-61569D01*
X97678Y-56221D02*
X97702Y-56245D01*
X97726Y-56316D01*
X97726Y-56364D01*
X97702Y-56435D01*
X97654Y-56483D01*
X97607Y-56507D01*
X97511Y-56530D01*
X97440Y-56530D01*
X97345Y-56507D01*
X97297Y-56483D01*
X97250Y-56435D01*
X97226Y-56364D01*
X97226Y-56316D01*
X97250Y-56245D01*
X97273Y-56221D01*
X97726Y-55745D02*
X97726Y-56030D01*
X97726Y-55888D02*
X97226Y-55888D01*
X97297Y-55935D01*
X97345Y-55983D01*
X97369Y-56030D01*
X97226Y-55578D02*
X97226Y-55269D01*
X97416Y-55435D01*
X97416Y-55364D01*
X97440Y-55316D01*
X97464Y-55292D01*
X97511Y-55269D01*
X97630Y-55269D01*
X97678Y-55292D01*
X97702Y-55316D01*
X97726Y-55364D01*
X97726Y-55507D01*
X97702Y-55554D01*
X97678Y-55578D01*
X100780Y-65026D02*
X100780Y-64526D01*
X100900Y-64526D01*
X100971Y-64550D01*
X101019Y-64597D01*
X101042Y-64645D01*
X101066Y-64740D01*
X101066Y-64811D01*
X101042Y-64907D01*
X101019Y-64954D01*
X100971Y-65002D01*
X100900Y-65026D01*
X100780Y-65026D01*
X101495Y-64692D02*
X101495Y-65026D01*
X101376Y-64502D02*
X101257Y-64859D01*
X101566Y-64859D01*
X99376Y-59369D02*
X98876Y-59369D01*
X98876Y-59250D01*
X98900Y-59178D01*
X98947Y-59130D01*
X98995Y-59107D01*
X99090Y-59083D01*
X99161Y-59083D01*
X99257Y-59107D01*
X99304Y-59130D01*
X99352Y-59178D01*
X99376Y-59250D01*
X99376Y-59369D01*
X98876Y-58630D02*
X98876Y-58869D01*
X99114Y-58892D01*
X99090Y-58869D01*
X99066Y-58821D01*
X99066Y-58702D01*
X99090Y-58654D01*
X99114Y-58630D01*
X99161Y-58607D01*
X99280Y-58607D01*
X99328Y-58630D01*
X99352Y-58654D01*
X99376Y-58702D01*
X99376Y-58821D01*
X99352Y-58869D01*
X99328Y-58892D01*
X97630Y-53426D02*
X97630Y-52926D01*
X97821Y-52926D01*
X97869Y-52950D01*
X97892Y-52973D01*
X97916Y-53021D01*
X97916Y-53092D01*
X97892Y-53140D01*
X97869Y-53164D01*
X97821Y-53188D01*
X97630Y-53188D01*
X98083Y-52926D02*
X98392Y-52926D01*
X98226Y-53116D01*
X98297Y-53116D01*
X98345Y-53140D01*
X98369Y-53164D01*
X98392Y-53211D01*
X98392Y-53330D01*
X98369Y-53378D01*
X98345Y-53402D01*
X98297Y-53426D01*
X98154Y-53426D01*
X98107Y-53402D01*
X98083Y-53378D01*
X83326Y-59083D02*
X83088Y-59250D01*
X83326Y-59369D02*
X82826Y-59369D01*
X82826Y-59178D01*
X82850Y-59130D01*
X82873Y-59107D01*
X82921Y-59083D01*
X82992Y-59083D01*
X83040Y-59107D01*
X83064Y-59130D01*
X83088Y-59178D01*
X83088Y-59369D01*
X83326Y-58607D02*
X83326Y-58892D01*
X83326Y-58750D02*
X82826Y-58750D01*
X82897Y-58797D01*
X82945Y-58845D01*
X82969Y-58892D01*
X80466Y-56526D02*
X80300Y-56288D01*
X80180Y-56526D02*
X80180Y-56026D01*
X80371Y-56026D01*
X80419Y-56050D01*
X80442Y-56073D01*
X80466Y-56121D01*
X80466Y-56192D01*
X80442Y-56240D01*
X80419Y-56264D01*
X80371Y-56288D01*
X80180Y-56288D01*
X80657Y-56073D02*
X80680Y-56050D01*
X80728Y-56026D01*
X80847Y-56026D01*
X80895Y-56050D01*
X80919Y-56073D01*
X80942Y-56121D01*
X80942Y-56169D01*
X80919Y-56240D01*
X80633Y-56526D01*
X80942Y-56526D01*
X80466Y-61076D02*
X80300Y-60838D01*
X80180Y-61076D02*
X80180Y-60576D01*
X80371Y-60576D01*
X80419Y-60600D01*
X80442Y-60623D01*
X80466Y-60671D01*
X80466Y-60742D01*
X80442Y-60790D01*
X80419Y-60814D01*
X80371Y-60838D01*
X80180Y-60838D01*
X80633Y-60576D02*
X80942Y-60576D01*
X80776Y-60766D01*
X80847Y-60766D01*
X80895Y-60790D01*
X80919Y-60814D01*
X80942Y-60861D01*
X80942Y-60980D01*
X80919Y-61028D01*
X80895Y-61052D01*
X80847Y-61076D01*
X80704Y-61076D01*
X80657Y-61052D01*
X80633Y-61028D01*
X80466Y-59226D02*
X80300Y-58988D01*
X80180Y-59226D02*
X80180Y-58726D01*
X80371Y-58726D01*
X80419Y-58750D01*
X80442Y-58773D01*
X80466Y-58821D01*
X80466Y-58892D01*
X80442Y-58940D01*
X80419Y-58964D01*
X80371Y-58988D01*
X80180Y-58988D01*
X80895Y-58892D02*
X80895Y-59226D01*
X80776Y-58702D02*
X80657Y-59059D01*
X80966Y-59059D01*
X80466Y-60176D02*
X80300Y-59938D01*
X80180Y-60176D02*
X80180Y-59676D01*
X80371Y-59676D01*
X80419Y-59700D01*
X80442Y-59723D01*
X80466Y-59771D01*
X80466Y-59842D01*
X80442Y-59890D01*
X80419Y-59914D01*
X80371Y-59938D01*
X80180Y-59938D01*
X80919Y-59676D02*
X80680Y-59676D01*
X80657Y-59914D01*
X80680Y-59890D01*
X80728Y-59866D01*
X80847Y-59866D01*
X80895Y-59890D01*
X80919Y-59914D01*
X80942Y-59961D01*
X80942Y-60080D01*
X80919Y-60128D01*
X80895Y-60152D01*
X80847Y-60176D01*
X80728Y-60176D01*
X80680Y-60152D01*
X80657Y-60128D01*
X80466Y-58326D02*
X80300Y-58088D01*
X80180Y-58326D02*
X80180Y-57826D01*
X80371Y-57826D01*
X80419Y-57850D01*
X80442Y-57873D01*
X80466Y-57921D01*
X80466Y-57992D01*
X80442Y-58040D01*
X80419Y-58064D01*
X80371Y-58088D01*
X80180Y-58088D01*
X80895Y-57826D02*
X80800Y-57826D01*
X80752Y-57850D01*
X80728Y-57873D01*
X80680Y-57945D01*
X80657Y-58040D01*
X80657Y-58230D01*
X80680Y-58278D01*
X80704Y-58302D01*
X80752Y-58326D01*
X80847Y-58326D01*
X80895Y-58302D01*
X80919Y-58278D01*
X80942Y-58230D01*
X80942Y-58111D01*
X80919Y-58064D01*
X80895Y-58040D01*
X80847Y-58016D01*
X80752Y-58016D01*
X80704Y-58040D01*
X80680Y-58064D01*
X80657Y-58111D01*
X79883Y-64002D02*
X79954Y-64026D01*
X80073Y-64026D01*
X80121Y-64002D01*
X80145Y-63978D01*
X80169Y-63930D01*
X80169Y-63883D01*
X80145Y-63835D01*
X80121Y-63811D01*
X80073Y-63788D01*
X79978Y-63764D01*
X79930Y-63740D01*
X79907Y-63716D01*
X79883Y-63669D01*
X79883Y-63621D01*
X79907Y-63573D01*
X79930Y-63550D01*
X79978Y-63526D01*
X80097Y-63526D01*
X80169Y-63550D01*
X80335Y-63526D02*
X80454Y-64026D01*
X80550Y-63669D01*
X80645Y-64026D01*
X80764Y-63526D01*
X81216Y-64026D02*
X80930Y-64026D01*
X81073Y-64026D02*
X81073Y-63526D01*
X81026Y-63597D01*
X80978Y-63645D01*
X80930Y-63669D01*
X79883Y-54402D02*
X79954Y-54426D01*
X80073Y-54426D01*
X80121Y-54402D01*
X80145Y-54378D01*
X80169Y-54330D01*
X80169Y-54283D01*
X80145Y-54235D01*
X80121Y-54211D01*
X80073Y-54188D01*
X79978Y-54164D01*
X79930Y-54140D01*
X79907Y-54116D01*
X79883Y-54069D01*
X79883Y-54021D01*
X79907Y-53973D01*
X79930Y-53950D01*
X79978Y-53926D01*
X80097Y-53926D01*
X80169Y-53950D01*
X80335Y-53926D02*
X80454Y-54426D01*
X80550Y-54069D01*
X80645Y-54426D01*
X80764Y-53926D01*
X80930Y-53973D02*
X80954Y-53950D01*
X81002Y-53926D01*
X81121Y-53926D01*
X81169Y-53950D01*
X81192Y-53973D01*
X81216Y-54021D01*
X81216Y-54069D01*
X81192Y-54140D01*
X80907Y-54426D01*
X81216Y-54426D01*
G54D14*
X92514Y-58671D02*
X92914Y-59271D01*
X92914Y-58671D02*
X92514Y-59271D01*
X93457Y-59271D02*
X93114Y-59271D01*
X93285Y-59271D02*
X93285Y-58671D01*
X93228Y-58757D01*
X93171Y-58814D01*
X93114Y-58842D01*
G54D15*
X95916Y-62328D02*
X95892Y-62352D01*
X95821Y-62376D01*
X95773Y-62376D01*
X95702Y-62352D01*
X95654Y-62304D01*
X95630Y-62257D01*
X95607Y-62161D01*
X95607Y-62090D01*
X95630Y-61995D01*
X95654Y-61947D01*
X95702Y-61900D01*
X95773Y-61876D01*
X95821Y-61876D01*
X95892Y-61900D01*
X95916Y-61923D01*
X96392Y-62376D02*
X96107Y-62376D01*
X96250Y-62376D02*
X96250Y-61876D01*
X96202Y-61947D01*
X96154Y-61995D01*
X96107Y-62019D01*
G54D19*
X96021Y-61764D02*
X96021Y-61535D01*
X96135Y-61650D02*
X95907Y-61650D01*
G54D15*
X97678Y-62233D02*
X97702Y-62257D01*
X97726Y-62328D01*
X97726Y-62376D01*
X97702Y-62447D01*
X97654Y-62495D01*
X97607Y-62519D01*
X97511Y-62542D01*
X97440Y-62542D01*
X97345Y-62519D01*
X97297Y-62495D01*
X97250Y-62447D01*
X97226Y-62376D01*
X97226Y-62328D01*
X97250Y-62257D01*
X97273Y-62233D01*
X97273Y-62042D02*
X97250Y-62019D01*
X97226Y-61971D01*
X97226Y-61852D01*
X97250Y-61804D01*
X97273Y-61780D01*
X97321Y-61757D01*
X97369Y-61757D01*
X97440Y-61780D01*
X97726Y-62066D01*
X97726Y-61757D01*
X93916Y-56028D02*
X93892Y-56052D01*
X93821Y-56076D01*
X93773Y-56076D01*
X93702Y-56052D01*
X93654Y-56004D01*
X93630Y-55957D01*
X93607Y-55861D01*
X93607Y-55790D01*
X93630Y-55695D01*
X93654Y-55647D01*
X93702Y-55600D01*
X93773Y-55576D01*
X93821Y-55576D01*
X93892Y-55600D01*
X93916Y-55623D01*
X94083Y-55576D02*
X94392Y-55576D01*
X94226Y-55766D01*
X94297Y-55766D01*
X94345Y-55790D01*
X94369Y-55814D01*
X94392Y-55861D01*
X94392Y-55980D01*
X94369Y-56028D01*
X94345Y-56052D01*
X94297Y-56076D01*
X94154Y-56076D01*
X94107Y-56052D01*
X94083Y-56028D01*
G54D19*
X94021Y-56464D02*
X94021Y-56235D01*
X94135Y-56350D02*
X93907Y-56350D01*
G54D15*
X84678Y-55933D02*
X84702Y-55957D01*
X84726Y-56028D01*
X84726Y-56076D01*
X84702Y-56147D01*
X84654Y-56195D01*
X84607Y-56219D01*
X84511Y-56242D01*
X84440Y-56242D01*
X84345Y-56219D01*
X84297Y-56195D01*
X84250Y-56147D01*
X84226Y-56076D01*
X84226Y-56028D01*
X84250Y-55957D01*
X84273Y-55933D01*
X84392Y-55504D02*
X84726Y-55504D01*
X84202Y-55623D02*
X84559Y-55742D01*
X84559Y-55433D01*
X91916Y-56028D02*
X91892Y-56052D01*
X91821Y-56076D01*
X91773Y-56076D01*
X91702Y-56052D01*
X91654Y-56004D01*
X91630Y-55957D01*
X91607Y-55861D01*
X91607Y-55790D01*
X91630Y-55695D01*
X91654Y-55647D01*
X91702Y-55600D01*
X91773Y-55576D01*
X91821Y-55576D01*
X91892Y-55600D01*
X91916Y-55623D01*
X92369Y-55576D02*
X92130Y-55576D01*
X92107Y-55814D01*
X92130Y-55790D01*
X92178Y-55766D01*
X92297Y-55766D01*
X92345Y-55790D01*
X92369Y-55814D01*
X92392Y-55861D01*
X92392Y-55980D01*
X92369Y-56028D01*
X92345Y-56052D01*
X92297Y-56076D01*
X92178Y-56076D01*
X92130Y-56052D01*
X92107Y-56028D01*
G54D19*
X92021Y-56464D02*
X92021Y-56235D01*
X92135Y-56350D02*
X91907Y-56350D01*
G54D15*
X90678Y-55933D02*
X90702Y-55957D01*
X90726Y-56028D01*
X90726Y-56076D01*
X90702Y-56147D01*
X90654Y-56195D01*
X90607Y-56219D01*
X90511Y-56242D01*
X90440Y-56242D01*
X90345Y-56219D01*
X90297Y-56195D01*
X90250Y-56147D01*
X90226Y-56076D01*
X90226Y-56028D01*
X90250Y-55957D01*
X90273Y-55933D01*
X90226Y-55504D02*
X90226Y-55600D01*
X90250Y-55647D01*
X90273Y-55671D01*
X90345Y-55719D01*
X90440Y-55742D01*
X90630Y-55742D01*
X90678Y-55719D01*
X90702Y-55695D01*
X90726Y-55647D01*
X90726Y-55552D01*
X90702Y-55504D01*
X90678Y-55480D01*
X90630Y-55457D01*
X90511Y-55457D01*
X90464Y-55480D01*
X90440Y-55504D01*
X90416Y-55552D01*
X90416Y-55647D01*
X90440Y-55695D01*
X90464Y-55719D01*
X90511Y-55742D01*
X85678Y-56171D02*
X85702Y-56195D01*
X85726Y-56266D01*
X85726Y-56314D01*
X85702Y-56385D01*
X85654Y-56433D01*
X85607Y-56457D01*
X85511Y-56480D01*
X85440Y-56480D01*
X85345Y-56457D01*
X85297Y-56433D01*
X85250Y-56385D01*
X85226Y-56314D01*
X85226Y-56266D01*
X85250Y-56195D01*
X85273Y-56171D01*
X85726Y-55695D02*
X85726Y-55980D01*
X85726Y-55838D02*
X85226Y-55838D01*
X85297Y-55885D01*
X85345Y-55933D01*
X85369Y-55980D01*
X85726Y-55219D02*
X85726Y-55504D01*
X85726Y-55361D02*
X85226Y-55361D01*
X85297Y-55409D01*
X85345Y-55457D01*
X85369Y-55504D01*
X95678Y-56028D02*
X95654Y-56052D01*
X95583Y-56076D01*
X95535Y-56076D01*
X95464Y-56052D01*
X95416Y-56004D01*
X95392Y-55957D01*
X95369Y-55861D01*
X95369Y-55790D01*
X95392Y-55695D01*
X95416Y-55647D01*
X95464Y-55600D01*
X95535Y-55576D01*
X95583Y-55576D01*
X95654Y-55600D01*
X95678Y-55623D01*
X96154Y-56076D02*
X95869Y-56076D01*
X96011Y-56076D02*
X96011Y-55576D01*
X95964Y-55647D01*
X95916Y-55695D01*
X95869Y-55719D01*
X96583Y-55742D02*
X96583Y-56076D01*
X96464Y-55552D02*
X96345Y-55909D01*
X96654Y-55909D01*
G54D19*
X96021Y-56464D02*
X96021Y-56235D01*
X96135Y-56350D02*
X95907Y-56350D01*
G54D15*
X100780Y-53426D02*
X100780Y-52926D01*
X100900Y-52926D01*
X100971Y-52950D01*
X101019Y-52997D01*
X101042Y-53045D01*
X101066Y-53140D01*
X101066Y-53211D01*
X101042Y-53307D01*
X101019Y-53354D01*
X100971Y-53402D01*
X100900Y-53426D01*
X100780Y-53426D01*
X101542Y-53426D02*
X101257Y-53426D01*
X101400Y-53426D02*
X101400Y-52926D01*
X101352Y-52997D01*
X101304Y-53045D01*
X101257Y-53069D01*
X80466Y-61926D02*
X80300Y-61688D01*
X80180Y-61926D02*
X80180Y-61426D01*
X80371Y-61426D01*
X80419Y-61450D01*
X80442Y-61473D01*
X80466Y-61521D01*
X80466Y-61592D01*
X80442Y-61640D01*
X80419Y-61664D01*
X80371Y-61688D01*
X80180Y-61688D01*
X80633Y-61426D02*
X80966Y-61426D01*
X80752Y-61926D01*
X80466Y-57426D02*
X80300Y-57188D01*
X80180Y-57426D02*
X80180Y-56926D01*
X80371Y-56926D01*
X80419Y-56950D01*
X80442Y-56973D01*
X80466Y-57021D01*
X80466Y-57092D01*
X80442Y-57140D01*
X80419Y-57164D01*
X80371Y-57188D01*
X80180Y-57188D01*
X80752Y-57140D02*
X80704Y-57116D01*
X80680Y-57092D01*
X80657Y-57045D01*
X80657Y-57021D01*
X80680Y-56973D01*
X80704Y-56950D01*
X80752Y-56926D01*
X80847Y-56926D01*
X80895Y-56950D01*
X80919Y-56973D01*
X80942Y-57021D01*
X80942Y-57045D01*
X80919Y-57092D01*
X80895Y-57116D01*
X80847Y-57140D01*
X80752Y-57140D01*
X80704Y-57164D01*
X80680Y-57188D01*
X80657Y-57235D01*
X80657Y-57330D01*
X80680Y-57378D01*
X80704Y-57402D01*
X80752Y-57426D01*
X80847Y-57426D01*
X80895Y-57402D01*
X80919Y-57378D01*
X80942Y-57330D01*
X80942Y-57235D01*
X80919Y-57188D01*
X80895Y-57164D01*
X80847Y-57140D01*
G54D20*
X102384Y-59131D02*
X102665Y-59131D01*
X102721Y-59149D01*
X102759Y-59187D01*
X102778Y-59243D01*
X102778Y-59281D01*
X102778Y-58737D02*
X102778Y-58962D01*
X102778Y-58850D02*
X102384Y-58850D01*
X102440Y-58887D01*
X102478Y-58925D01*
X102496Y-58962D01*
X101112Y-55065D02*
X101075Y-55046D01*
X101037Y-55009D01*
X100981Y-54953D01*
X100943Y-54934D01*
X100906Y-54934D01*
X100925Y-55028D02*
X100887Y-55009D01*
X100850Y-54971D01*
X100831Y-54896D01*
X100831Y-54765D01*
X100850Y-54690D01*
X100887Y-54653D01*
X100925Y-54634D01*
X101000Y-54634D01*
X101037Y-54653D01*
X101075Y-54690D01*
X101093Y-54765D01*
X101093Y-54896D01*
X101075Y-54971D01*
X101037Y-55009D01*
X101000Y-55028D01*
X100925Y-55028D01*
X101468Y-55028D02*
X101243Y-55028D01*
X101356Y-55028D02*
X101356Y-54634D01*
X101318Y-54690D01*
X101281Y-54728D01*
X101243Y-54746D01*
X100850Y-62934D02*
X100850Y-63253D01*
X100868Y-63290D01*
X100887Y-63309D01*
X100925Y-63328D01*
X101000Y-63328D01*
X101037Y-63309D01*
X101056Y-63290D01*
X101075Y-63253D01*
X101075Y-62934D01*
X101468Y-63328D02*
X101243Y-63328D01*
X101356Y-63328D02*
X101356Y-62934D01*
X101318Y-62990D01*
X101281Y-63028D01*
X101243Y-63046D01*
G54D21*
X87157Y-58671D02*
X87157Y-59157D01*
X87178Y-59214D01*
X87200Y-59242D01*
X87242Y-59271D01*
X87328Y-59271D01*
X87371Y-59242D01*
X87392Y-59214D01*
X87414Y-59157D01*
X87414Y-58671D01*
X87607Y-58728D02*
X87628Y-58700D01*
X87671Y-58671D01*
X87778Y-58671D01*
X87821Y-58700D01*
X87842Y-58728D01*
X87864Y-58785D01*
X87864Y-58842D01*
X87842Y-58928D01*
X87585Y-59271D01*
X87864Y-59271D01*
G54D22*
G54D23*
X98141Y-57672D02*
X98158Y-57722D01*
X98175Y-57672D01*
X98189Y-57708D02*
X98213Y-57708D01*
X98184Y-57722D02*
X98201Y-57672D01*
X98217Y-57722D01*
X98258Y-57722D02*
X98234Y-57722D01*
X98234Y-57672D01*
G54D15*
X97630Y-65026D02*
X97630Y-64526D01*
X97821Y-64526D01*
X97869Y-64550D01*
X97892Y-64573D01*
X97916Y-64621D01*
X97916Y-64692D01*
X97892Y-64740D01*
X97869Y-64764D01*
X97821Y-64788D01*
X97630Y-64788D01*
X98345Y-64692D02*
X98345Y-65026D01*
X98226Y-64502D02*
X98107Y-64859D01*
X98416Y-64859D01*
M02*
