%FSLAX34Y34*%
G04 Gerber Fmt 3.4, Leading zero omitted, Abs format*
G04 (created by PCBNEW (2014-04-11 BZR 4798)-product) date mar. 20 mai 2014 10:15:50 CEST*
%MOIN*%
G01*
G70*
G90*
G04 APERTURE LIST*
%ADD10C,0.003937*%
%ADD11R,0.062000X0.090000*%
%ADD12R,0.090000X0.090000*%
%ADD13R,0.068000X0.068000*%
%ADD14R,0.118110X0.118110*%
%ADD15R,0.080000X0.080000*%
%ADD16R,0.068000X0.080000*%
%ADD17C,0.070000*%
%ADD18R,0.070000X0.070000*%
%ADD19C,0.035000*%
%ADD20C,0.039370*%
%ADD21C,0.010000*%
G04 APERTURE END LIST*
G54D10*
G54D11*
X73750Y-51250D03*
X74750Y-51250D03*
X75750Y-51250D03*
X76750Y-51250D03*
X77750Y-51250D03*
X78750Y-51250D03*
X79750Y-51250D03*
X80750Y-51250D03*
X81750Y-51250D03*
X82750Y-51250D03*
X83750Y-51250D03*
X84750Y-51250D03*
X85750Y-51250D03*
X86750Y-51250D03*
X87750Y-51250D03*
X88750Y-51250D03*
X89750Y-51250D03*
X90750Y-51250D03*
X91750Y-51250D03*
X92750Y-51250D03*
G54D12*
X97050Y-51250D03*
X97050Y-53250D03*
G54D11*
X73750Y-59250D03*
X74750Y-59250D03*
X75750Y-59250D03*
X76750Y-59250D03*
X77750Y-59250D03*
X78750Y-59250D03*
X79750Y-59250D03*
X80750Y-59250D03*
X81750Y-59250D03*
X82750Y-59250D03*
X83750Y-59250D03*
X84750Y-59250D03*
X85750Y-59250D03*
X86750Y-59250D03*
X87750Y-59250D03*
X88750Y-59250D03*
X89750Y-59250D03*
X90750Y-59250D03*
X91750Y-59250D03*
X92750Y-59250D03*
X94450Y-51250D03*
X95450Y-51250D03*
X94450Y-53250D03*
X95450Y-53250D03*
X84750Y-57250D03*
X83750Y-57250D03*
X89750Y-57250D03*
X90750Y-57250D03*
X82750Y-53250D03*
X81750Y-53250D03*
X85750Y-56250D03*
X86750Y-56250D03*
X88750Y-56250D03*
X87750Y-56250D03*
G54D13*
X94550Y-56450D03*
X94550Y-57450D03*
X95337Y-57450D03*
X95337Y-56450D03*
G54D14*
X96400Y-54588D03*
X96400Y-59312D03*
G54D15*
X79800Y-53750D03*
X76800Y-53750D03*
X79800Y-54750D03*
X76800Y-54750D03*
X76800Y-55750D03*
X79800Y-55750D03*
X76800Y-56750D03*
X79800Y-56750D03*
G54D11*
X73750Y-58250D03*
X74750Y-58250D03*
X75750Y-58250D03*
X76750Y-58250D03*
X77750Y-58250D03*
X78750Y-58250D03*
X79750Y-58250D03*
X80750Y-58250D03*
X81750Y-58250D03*
X82750Y-58250D03*
X83750Y-58250D03*
X84750Y-58250D03*
X85750Y-58250D03*
X86750Y-58250D03*
X87750Y-58250D03*
X88750Y-58250D03*
X89750Y-58250D03*
X90750Y-58250D03*
X91750Y-58250D03*
X92750Y-58250D03*
X92750Y-52250D03*
X91750Y-52250D03*
X90750Y-52250D03*
X89750Y-52250D03*
X88750Y-52250D03*
X87750Y-52250D03*
X86750Y-52250D03*
X85750Y-52250D03*
X84750Y-52250D03*
X83750Y-52250D03*
X82750Y-52250D03*
X81750Y-52250D03*
X80750Y-52250D03*
X79750Y-52250D03*
X78750Y-52250D03*
X77750Y-52250D03*
X76750Y-52250D03*
X75750Y-52250D03*
X74750Y-52250D03*
X73750Y-52250D03*
G54D16*
X88250Y-54250D03*
X86250Y-54250D03*
G54D15*
X73750Y-56750D03*
X73750Y-55750D03*
X73750Y-54750D03*
X73750Y-53750D03*
X72250Y-57750D03*
X72250Y-58750D03*
X72250Y-59750D03*
X72250Y-52250D03*
X72250Y-51250D03*
G54D17*
X71750Y-56250D03*
G54D18*
X71750Y-55250D03*
G54D17*
X71750Y-54250D03*
G54D19*
X76050Y-56250D03*
X81300Y-54750D03*
X91250Y-53500D03*
X97550Y-55050D03*
X81500Y-56000D03*
X91250Y-53000D03*
X80850Y-53750D03*
G54D20*
X79750Y-58250D02*
X79750Y-59250D01*
X89750Y-51250D02*
X89750Y-52250D01*
X95337Y-58350D02*
X95337Y-57450D01*
X93700Y-57900D02*
X93700Y-58350D01*
X93200Y-57400D02*
X93700Y-57900D01*
X92500Y-57400D02*
X93200Y-57400D01*
X91500Y-56400D02*
X92500Y-57400D01*
X90700Y-56400D02*
X91500Y-56400D01*
X89750Y-55450D02*
X90700Y-56400D01*
X89750Y-52250D02*
X89750Y-55450D01*
X95337Y-58350D02*
X93700Y-58350D01*
X90750Y-51250D02*
X90750Y-52250D01*
X90750Y-55100D02*
X91250Y-55600D01*
X91250Y-55600D02*
X91900Y-55600D01*
X91900Y-55600D02*
X93100Y-56800D01*
X93100Y-56800D02*
X93500Y-56800D01*
X93500Y-56800D02*
X94150Y-57450D01*
X94150Y-57450D02*
X94550Y-57450D01*
X90750Y-52250D02*
X90750Y-55100D01*
X73750Y-58250D02*
X73750Y-59250D01*
X74150Y-57450D02*
X74500Y-57450D01*
X74500Y-57450D02*
X75200Y-56750D01*
X75200Y-56750D02*
X76800Y-56750D01*
X73750Y-57850D02*
X74150Y-57450D01*
X73750Y-58250D02*
X73750Y-57850D01*
X85750Y-58250D02*
X85750Y-59250D01*
X85749Y-57549D02*
X85750Y-58250D01*
X86750Y-56950D02*
X85749Y-57549D01*
X86750Y-56250D02*
X86750Y-56950D01*
X86750Y-54750D02*
X86250Y-54250D01*
X86750Y-56250D02*
X86750Y-54750D01*
X86750Y-58250D02*
X86750Y-59250D01*
X86750Y-57750D02*
X86750Y-58250D01*
X87750Y-57100D02*
X86750Y-57750D01*
X87750Y-56250D02*
X87750Y-57100D01*
X87750Y-54750D02*
X88250Y-54250D01*
X87750Y-56250D02*
X87750Y-54750D01*
X74750Y-51250D02*
X74750Y-52250D01*
X73750Y-51250D02*
X73750Y-52250D01*
X75750Y-51250D02*
X75750Y-52250D01*
X78750Y-58250D02*
X78750Y-59250D01*
X77950Y-53750D02*
X78750Y-54550D01*
X78750Y-54550D02*
X78750Y-58250D01*
X76800Y-53750D02*
X77950Y-53750D01*
X80750Y-51250D02*
X80750Y-52250D01*
X79750Y-51250D02*
X79750Y-52250D01*
X78750Y-51250D02*
X78750Y-52250D01*
X77750Y-51250D02*
X77750Y-52250D01*
X76750Y-51250D02*
X76750Y-52250D01*
X81750Y-51250D02*
X81750Y-50750D01*
X81400Y-50400D02*
X73150Y-50400D01*
X81750Y-50750D02*
X81400Y-50400D01*
X81750Y-51250D02*
X81750Y-50800D01*
X83750Y-59250D02*
X83750Y-58250D01*
X83750Y-58250D02*
X83750Y-57250D01*
X81750Y-51250D02*
X81750Y-52250D01*
X81750Y-52250D02*
X81750Y-53250D01*
X81750Y-54350D02*
X83750Y-56350D01*
X83750Y-56350D02*
X83750Y-57250D01*
X81750Y-53250D02*
X81750Y-54350D01*
X76800Y-55750D02*
X76800Y-54750D01*
X74700Y-53050D02*
X73000Y-53050D01*
X75650Y-54750D02*
X74700Y-53050D01*
X73000Y-53050D02*
X73000Y-50900D01*
X76800Y-54750D02*
X75650Y-54750D01*
X73000Y-50900D02*
X73150Y-50400D01*
X83350Y-60100D02*
X73350Y-60100D01*
X73350Y-60100D02*
X73050Y-59800D01*
X73050Y-59800D02*
X73050Y-59150D01*
X73050Y-59150D02*
X72650Y-58750D01*
X72650Y-58750D02*
X72250Y-58750D01*
X83750Y-59700D02*
X83350Y-60100D01*
X83750Y-59250D02*
X83750Y-59700D01*
X84750Y-59750D02*
X85100Y-60100D01*
X95612Y-60100D02*
X96400Y-59312D01*
X85100Y-60100D02*
X95612Y-60100D01*
X84750Y-59750D02*
X84750Y-59250D01*
X88350Y-53250D02*
X89150Y-53750D01*
X82750Y-53250D02*
X88350Y-53250D01*
X89150Y-53750D02*
X89150Y-55250D01*
X89750Y-57250D02*
X88750Y-57250D01*
X88750Y-57250D02*
X88750Y-56250D01*
X84750Y-59250D02*
X84750Y-58250D01*
X84750Y-58250D02*
X84750Y-57250D01*
X85758Y-56721D02*
X85750Y-56250D01*
X84750Y-57250D02*
X85758Y-56721D01*
X96400Y-59312D02*
X96400Y-59300D01*
X96400Y-59300D02*
X97400Y-58300D01*
X97400Y-58300D02*
X97400Y-56250D01*
X97400Y-56250D02*
X96400Y-55250D01*
X96400Y-54588D02*
X96400Y-55250D01*
X96400Y-55250D02*
X96400Y-55387D01*
X96400Y-55387D02*
X95337Y-56450D01*
X82750Y-51250D02*
X82750Y-52250D01*
X82750Y-52250D02*
X82750Y-53250D01*
X89150Y-55850D02*
X88750Y-56250D01*
X89150Y-55250D02*
X89150Y-55850D01*
X82750Y-54300D02*
X84750Y-56300D01*
X84750Y-56300D02*
X84750Y-57250D01*
X82750Y-53250D02*
X82750Y-54300D01*
X95488Y-54588D02*
X96400Y-54588D01*
X95450Y-54550D02*
X95488Y-54588D01*
X95450Y-53250D02*
X95450Y-54550D01*
X95450Y-51250D02*
X95450Y-53250D01*
X97050Y-51250D02*
X95450Y-51250D01*
X73000Y-55250D02*
X71750Y-55250D01*
X73500Y-54750D02*
X73000Y-55250D01*
X73750Y-54750D02*
X73500Y-54750D01*
X73000Y-55350D02*
X73400Y-55750D01*
X73400Y-55750D02*
X73750Y-55750D01*
X73000Y-55250D02*
X73000Y-55350D01*
X76050Y-56250D02*
X75200Y-55750D01*
X75200Y-55750D02*
X73750Y-55750D01*
X90750Y-57250D02*
X90750Y-58250D01*
X81300Y-54750D02*
X79800Y-54750D01*
X93900Y-53500D02*
X91250Y-53500D01*
X94150Y-53250D02*
X93900Y-53500D01*
X94450Y-53250D02*
X94150Y-53250D01*
X79800Y-56750D02*
X79800Y-55750D01*
X97950Y-54150D02*
X97550Y-55050D01*
X81500Y-56000D02*
X80700Y-56750D01*
X80700Y-56750D02*
X79800Y-56750D01*
X97050Y-53250D02*
X97950Y-54150D01*
X94000Y-51250D02*
X93500Y-51750D01*
X93500Y-51750D02*
X93500Y-53000D01*
X93500Y-53000D02*
X93150Y-53000D01*
X93150Y-53000D02*
X91250Y-53000D01*
X80850Y-53750D02*
X79800Y-53750D01*
X94450Y-51250D02*
X94000Y-51250D01*
X74750Y-58250D02*
X74750Y-59250D01*
X75750Y-58250D02*
X75750Y-59250D01*
X76750Y-58250D02*
X76750Y-59250D01*
X77750Y-58250D02*
X77750Y-59250D01*
X80750Y-58250D02*
X80750Y-59250D01*
X81750Y-58250D02*
X81750Y-59250D01*
X82750Y-58250D02*
X82750Y-59250D01*
X87750Y-58250D02*
X87750Y-59250D01*
X88750Y-58250D02*
X88750Y-59250D01*
X89750Y-58250D02*
X89750Y-59250D01*
X91750Y-58250D02*
X91750Y-59250D01*
X92750Y-58250D02*
X92750Y-59250D01*
X83750Y-51250D02*
X83750Y-52250D01*
X84750Y-51250D02*
X84750Y-52250D01*
X85750Y-51250D02*
X85750Y-52250D01*
X86750Y-51250D02*
X86750Y-52250D01*
X87750Y-51250D02*
X87750Y-52250D01*
X88750Y-51250D02*
X88750Y-52250D01*
X91750Y-51250D02*
X91750Y-52250D01*
X92750Y-51250D02*
X92750Y-52250D01*
X72650Y-56750D02*
X71750Y-56250D01*
X73750Y-56750D02*
X72650Y-56750D01*
X72650Y-53750D02*
X71750Y-54250D01*
X73750Y-53750D02*
X72650Y-53750D01*
G54D10*
G36*
X76170Y-56249D02*
X76150Y-56300D01*
X76150Y-56303D01*
X75200Y-56303D01*
X75028Y-56337D01*
X74884Y-56434D01*
X74400Y-56918D01*
X74400Y-56522D01*
X74523Y-56399D01*
X74590Y-56237D01*
X74590Y-56005D01*
X74590Y-55495D01*
X74590Y-55262D01*
X74584Y-55250D01*
X74590Y-55237D01*
X74590Y-55005D01*
X74480Y-54895D01*
X73895Y-54895D01*
X73895Y-55020D01*
X73895Y-55480D01*
X73895Y-55605D01*
X74480Y-55605D01*
X74590Y-55495D01*
X74590Y-56005D01*
X74480Y-55895D01*
X73895Y-55895D01*
X73895Y-55902D01*
X73605Y-55902D01*
X73605Y-55895D01*
X73605Y-55605D01*
X73605Y-55480D01*
X73605Y-55020D01*
X73605Y-54895D01*
X73020Y-54895D01*
X72910Y-55005D01*
X72910Y-55237D01*
X72915Y-55250D01*
X72910Y-55262D01*
X72910Y-55495D01*
X73020Y-55605D01*
X73605Y-55605D01*
X73605Y-55895D01*
X73020Y-55895D01*
X72910Y-56005D01*
X72910Y-56237D01*
X72937Y-56303D01*
X72765Y-56303D01*
X72318Y-56054D01*
X72294Y-55995D01*
X72349Y-55973D01*
X72473Y-55849D01*
X72540Y-55687D01*
X72540Y-55512D01*
X72540Y-55505D01*
X72430Y-55395D01*
X71895Y-55395D01*
X71895Y-55402D01*
X71605Y-55402D01*
X71605Y-55395D01*
X71070Y-55395D01*
X70960Y-55505D01*
X70960Y-55512D01*
X70960Y-55687D01*
X71026Y-55849D01*
X71150Y-55973D01*
X71205Y-55995D01*
X71150Y-56130D01*
X71149Y-56368D01*
X71241Y-56589D01*
X71409Y-56758D01*
X71630Y-56849D01*
X71868Y-56850D01*
X71892Y-56840D01*
X72359Y-57100D01*
X71800Y-57100D01*
X71708Y-57138D01*
X71638Y-57208D01*
X71600Y-57300D01*
X71600Y-57399D01*
X71600Y-58199D01*
X71620Y-58249D01*
X71600Y-58300D01*
X71600Y-58399D01*
X71600Y-59199D01*
X71620Y-59249D01*
X71600Y-59300D01*
X71600Y-59399D01*
X71600Y-60170D01*
X70929Y-60170D01*
X70929Y-50379D01*
X72689Y-50379D01*
X72680Y-50410D01*
X72562Y-50410D01*
X72505Y-50410D01*
X72395Y-50520D01*
X72395Y-51105D01*
X72402Y-51105D01*
X72402Y-51395D01*
X72395Y-51395D01*
X72395Y-51402D01*
X72105Y-51402D01*
X72105Y-51395D01*
X72105Y-51105D01*
X72105Y-50520D01*
X71995Y-50410D01*
X71937Y-50410D01*
X71762Y-50410D01*
X71600Y-50476D01*
X71476Y-50600D01*
X71410Y-50762D01*
X71410Y-50995D01*
X71520Y-51105D01*
X72105Y-51105D01*
X72105Y-51395D01*
X71520Y-51395D01*
X71410Y-51505D01*
X71410Y-51737D01*
X71476Y-51899D01*
X71600Y-52022D01*
X71600Y-52699D01*
X71638Y-52791D01*
X71708Y-52861D01*
X71800Y-52900D01*
X71899Y-52900D01*
X72553Y-52900D01*
X72553Y-53050D01*
X72587Y-53221D01*
X72642Y-53304D01*
X72624Y-53308D01*
X72598Y-53306D01*
X72539Y-53325D01*
X72478Y-53337D01*
X72457Y-53351D01*
X72432Y-53359D01*
X71892Y-53659D01*
X71869Y-53650D01*
X71631Y-53649D01*
X71410Y-53741D01*
X71241Y-53909D01*
X71150Y-54130D01*
X71149Y-54368D01*
X71205Y-54504D01*
X71150Y-54526D01*
X71026Y-54650D01*
X70960Y-54812D01*
X70960Y-54987D01*
X70960Y-54995D01*
X71070Y-55105D01*
X71605Y-55105D01*
X71605Y-55097D01*
X71895Y-55097D01*
X71895Y-55105D01*
X72430Y-55105D01*
X72540Y-54995D01*
X72540Y-54987D01*
X72540Y-54812D01*
X72473Y-54650D01*
X72349Y-54526D01*
X72294Y-54504D01*
X72318Y-54445D01*
X72765Y-54196D01*
X72937Y-54196D01*
X72910Y-54262D01*
X72910Y-54495D01*
X73020Y-54605D01*
X73605Y-54605D01*
X73605Y-54597D01*
X73895Y-54597D01*
X73895Y-54605D01*
X74480Y-54605D01*
X74590Y-54495D01*
X74590Y-54262D01*
X74523Y-54100D01*
X74400Y-53977D01*
X74400Y-53496D01*
X74437Y-53496D01*
X75259Y-54967D01*
X75299Y-55014D01*
X75334Y-55065D01*
X75355Y-55080D01*
X75373Y-55100D01*
X75427Y-55128D01*
X75478Y-55162D01*
X75504Y-55167D01*
X75528Y-55179D01*
X75589Y-55184D01*
X75650Y-55196D01*
X76150Y-55196D01*
X76150Y-55199D01*
X76170Y-55249D01*
X76150Y-55300D01*
X76150Y-55399D01*
X76150Y-56199D01*
X76170Y-56249D01*
X76170Y-56249D01*
G37*
G54D21*
X76170Y-56249D02*
X76150Y-56300D01*
X76150Y-56303D01*
X75200Y-56303D01*
X75028Y-56337D01*
X74884Y-56434D01*
X74400Y-56918D01*
X74400Y-56522D01*
X74523Y-56399D01*
X74590Y-56237D01*
X74590Y-56005D01*
X74590Y-55495D01*
X74590Y-55262D01*
X74584Y-55250D01*
X74590Y-55237D01*
X74590Y-55005D01*
X74480Y-54895D01*
X73895Y-54895D01*
X73895Y-55020D01*
X73895Y-55480D01*
X73895Y-55605D01*
X74480Y-55605D01*
X74590Y-55495D01*
X74590Y-56005D01*
X74480Y-55895D01*
X73895Y-55895D01*
X73895Y-55902D01*
X73605Y-55902D01*
X73605Y-55895D01*
X73605Y-55605D01*
X73605Y-55480D01*
X73605Y-55020D01*
X73605Y-54895D01*
X73020Y-54895D01*
X72910Y-55005D01*
X72910Y-55237D01*
X72915Y-55250D01*
X72910Y-55262D01*
X72910Y-55495D01*
X73020Y-55605D01*
X73605Y-55605D01*
X73605Y-55895D01*
X73020Y-55895D01*
X72910Y-56005D01*
X72910Y-56237D01*
X72937Y-56303D01*
X72765Y-56303D01*
X72318Y-56054D01*
X72294Y-55995D01*
X72349Y-55973D01*
X72473Y-55849D01*
X72540Y-55687D01*
X72540Y-55512D01*
X72540Y-55505D01*
X72430Y-55395D01*
X71895Y-55395D01*
X71895Y-55402D01*
X71605Y-55402D01*
X71605Y-55395D01*
X71070Y-55395D01*
X70960Y-55505D01*
X70960Y-55512D01*
X70960Y-55687D01*
X71026Y-55849D01*
X71150Y-55973D01*
X71205Y-55995D01*
X71150Y-56130D01*
X71149Y-56368D01*
X71241Y-56589D01*
X71409Y-56758D01*
X71630Y-56849D01*
X71868Y-56850D01*
X71892Y-56840D01*
X72359Y-57100D01*
X71800Y-57100D01*
X71708Y-57138D01*
X71638Y-57208D01*
X71600Y-57300D01*
X71600Y-57399D01*
X71600Y-58199D01*
X71620Y-58249D01*
X71600Y-58300D01*
X71600Y-58399D01*
X71600Y-59199D01*
X71620Y-59249D01*
X71600Y-59300D01*
X71600Y-59399D01*
X71600Y-60170D01*
X70929Y-60170D01*
X70929Y-50379D01*
X72689Y-50379D01*
X72680Y-50410D01*
X72562Y-50410D01*
X72505Y-50410D01*
X72395Y-50520D01*
X72395Y-51105D01*
X72402Y-51105D01*
X72402Y-51395D01*
X72395Y-51395D01*
X72395Y-51402D01*
X72105Y-51402D01*
X72105Y-51395D01*
X72105Y-51105D01*
X72105Y-50520D01*
X71995Y-50410D01*
X71937Y-50410D01*
X71762Y-50410D01*
X71600Y-50476D01*
X71476Y-50600D01*
X71410Y-50762D01*
X71410Y-50995D01*
X71520Y-51105D01*
X72105Y-51105D01*
X72105Y-51395D01*
X71520Y-51395D01*
X71410Y-51505D01*
X71410Y-51737D01*
X71476Y-51899D01*
X71600Y-52022D01*
X71600Y-52699D01*
X71638Y-52791D01*
X71708Y-52861D01*
X71800Y-52900D01*
X71899Y-52900D01*
X72553Y-52900D01*
X72553Y-53050D01*
X72587Y-53221D01*
X72642Y-53304D01*
X72624Y-53308D01*
X72598Y-53306D01*
X72539Y-53325D01*
X72478Y-53337D01*
X72457Y-53351D01*
X72432Y-53359D01*
X71892Y-53659D01*
X71869Y-53650D01*
X71631Y-53649D01*
X71410Y-53741D01*
X71241Y-53909D01*
X71150Y-54130D01*
X71149Y-54368D01*
X71205Y-54504D01*
X71150Y-54526D01*
X71026Y-54650D01*
X70960Y-54812D01*
X70960Y-54987D01*
X70960Y-54995D01*
X71070Y-55105D01*
X71605Y-55105D01*
X71605Y-55097D01*
X71895Y-55097D01*
X71895Y-55105D01*
X72430Y-55105D01*
X72540Y-54995D01*
X72540Y-54987D01*
X72540Y-54812D01*
X72473Y-54650D01*
X72349Y-54526D01*
X72294Y-54504D01*
X72318Y-54445D01*
X72765Y-54196D01*
X72937Y-54196D01*
X72910Y-54262D01*
X72910Y-54495D01*
X73020Y-54605D01*
X73605Y-54605D01*
X73605Y-54597D01*
X73895Y-54597D01*
X73895Y-54605D01*
X74480Y-54605D01*
X74590Y-54495D01*
X74590Y-54262D01*
X74523Y-54100D01*
X74400Y-53977D01*
X74400Y-53496D01*
X74437Y-53496D01*
X75259Y-54967D01*
X75299Y-55014D01*
X75334Y-55065D01*
X75355Y-55080D01*
X75373Y-55100D01*
X75427Y-55128D01*
X75478Y-55162D01*
X75504Y-55167D01*
X75528Y-55179D01*
X75589Y-55184D01*
X75650Y-55196D01*
X76150Y-55196D01*
X76150Y-55199D01*
X76170Y-55249D01*
X76150Y-55300D01*
X76150Y-55399D01*
X76150Y-56199D01*
X76170Y-56249D01*
G54D10*
G36*
X98370Y-54009D02*
X98367Y-53989D01*
X98363Y-53984D01*
X98362Y-53978D01*
X98317Y-53911D01*
X98273Y-53842D01*
X98269Y-53838D01*
X98265Y-53834D01*
X97940Y-53508D01*
X97940Y-51787D01*
X97940Y-51612D01*
X97940Y-51505D01*
X97830Y-51395D01*
X97195Y-51395D01*
X97195Y-52030D01*
X97305Y-52140D01*
X97587Y-52140D01*
X97749Y-52073D01*
X97873Y-51949D01*
X97940Y-51787D01*
X97940Y-53508D01*
X97750Y-53318D01*
X97750Y-52750D01*
X97711Y-52658D01*
X97641Y-52588D01*
X97549Y-52550D01*
X97450Y-52550D01*
X96905Y-52550D01*
X96905Y-52030D01*
X96905Y-51395D01*
X96270Y-51395D01*
X96180Y-51485D01*
X96090Y-51395D01*
X95595Y-51395D01*
X95595Y-52030D01*
X95705Y-52140D01*
X95847Y-52140D01*
X96009Y-52073D01*
X96133Y-51949D01*
X96180Y-51835D01*
X96226Y-51949D01*
X96350Y-52073D01*
X96512Y-52140D01*
X96795Y-52140D01*
X96905Y-52030D01*
X96905Y-52550D01*
X96550Y-52550D01*
X96458Y-52588D01*
X96388Y-52658D01*
X96350Y-52750D01*
X96350Y-52849D01*
X96350Y-53557D01*
X96254Y-53557D01*
X96254Y-53667D01*
X96200Y-53612D01*
X96200Y-53505D01*
X96200Y-52995D01*
X96200Y-52887D01*
X96200Y-52712D01*
X96133Y-52550D01*
X96009Y-52426D01*
X95847Y-52360D01*
X95705Y-52360D01*
X95595Y-52470D01*
X95595Y-53105D01*
X96090Y-53105D01*
X96200Y-52995D01*
X96200Y-53505D01*
X96090Y-53395D01*
X95595Y-53395D01*
X95595Y-53402D01*
X95305Y-53402D01*
X95305Y-53395D01*
X95297Y-53395D01*
X95297Y-53105D01*
X95305Y-53105D01*
X95305Y-52470D01*
X95195Y-52360D01*
X95052Y-52360D01*
X94890Y-52426D01*
X94767Y-52550D01*
X94710Y-52550D01*
X94090Y-52550D01*
X93998Y-52588D01*
X93946Y-52639D01*
X93946Y-51935D01*
X93984Y-51897D01*
X93998Y-51911D01*
X94090Y-51950D01*
X94189Y-51950D01*
X94767Y-51950D01*
X94890Y-52073D01*
X95052Y-52140D01*
X95195Y-52140D01*
X95305Y-52030D01*
X95305Y-51395D01*
X95297Y-51395D01*
X95297Y-51105D01*
X95305Y-51105D01*
X95305Y-51097D01*
X95595Y-51097D01*
X95595Y-51105D01*
X96090Y-51105D01*
X96180Y-51015D01*
X96270Y-51105D01*
X96905Y-51105D01*
X96905Y-51097D01*
X97195Y-51097D01*
X97195Y-51105D01*
X97830Y-51105D01*
X97940Y-50995D01*
X97940Y-50887D01*
X97940Y-50712D01*
X97873Y-50550D01*
X97749Y-50426D01*
X97634Y-50379D01*
X98370Y-50379D01*
X98370Y-54009D01*
X98370Y-54009D01*
G37*
G54D21*
X98370Y-54009D02*
X98367Y-53989D01*
X98363Y-53984D01*
X98362Y-53978D01*
X98317Y-53911D01*
X98273Y-53842D01*
X98269Y-53838D01*
X98265Y-53834D01*
X97940Y-53508D01*
X97940Y-51787D01*
X97940Y-51612D01*
X97940Y-51505D01*
X97830Y-51395D01*
X97195Y-51395D01*
X97195Y-52030D01*
X97305Y-52140D01*
X97587Y-52140D01*
X97749Y-52073D01*
X97873Y-51949D01*
X97940Y-51787D01*
X97940Y-53508D01*
X97750Y-53318D01*
X97750Y-52750D01*
X97711Y-52658D01*
X97641Y-52588D01*
X97549Y-52550D01*
X97450Y-52550D01*
X96905Y-52550D01*
X96905Y-52030D01*
X96905Y-51395D01*
X96270Y-51395D01*
X96180Y-51485D01*
X96090Y-51395D01*
X95595Y-51395D01*
X95595Y-52030D01*
X95705Y-52140D01*
X95847Y-52140D01*
X96009Y-52073D01*
X96133Y-51949D01*
X96180Y-51835D01*
X96226Y-51949D01*
X96350Y-52073D01*
X96512Y-52140D01*
X96795Y-52140D01*
X96905Y-52030D01*
X96905Y-52550D01*
X96550Y-52550D01*
X96458Y-52588D01*
X96388Y-52658D01*
X96350Y-52750D01*
X96350Y-52849D01*
X96350Y-53557D01*
X96254Y-53557D01*
X96254Y-53667D01*
X96200Y-53612D01*
X96200Y-53505D01*
X96200Y-52995D01*
X96200Y-52887D01*
X96200Y-52712D01*
X96133Y-52550D01*
X96009Y-52426D01*
X95847Y-52360D01*
X95705Y-52360D01*
X95595Y-52470D01*
X95595Y-53105D01*
X96090Y-53105D01*
X96200Y-52995D01*
X96200Y-53505D01*
X96090Y-53395D01*
X95595Y-53395D01*
X95595Y-53402D01*
X95305Y-53402D01*
X95305Y-53395D01*
X95297Y-53395D01*
X95297Y-53105D01*
X95305Y-53105D01*
X95305Y-52470D01*
X95195Y-52360D01*
X95052Y-52360D01*
X94890Y-52426D01*
X94767Y-52550D01*
X94710Y-52550D01*
X94090Y-52550D01*
X93998Y-52588D01*
X93946Y-52639D01*
X93946Y-51935D01*
X93984Y-51897D01*
X93998Y-51911D01*
X94090Y-51950D01*
X94189Y-51950D01*
X94767Y-51950D01*
X94890Y-52073D01*
X95052Y-52140D01*
X95195Y-52140D01*
X95305Y-52030D01*
X95305Y-51395D01*
X95297Y-51395D01*
X95297Y-51105D01*
X95305Y-51105D01*
X95305Y-51097D01*
X95595Y-51097D01*
X95595Y-51105D01*
X96090Y-51105D01*
X96180Y-51015D01*
X96270Y-51105D01*
X96905Y-51105D01*
X96905Y-51097D01*
X97195Y-51097D01*
X97195Y-51105D01*
X97830Y-51105D01*
X97940Y-50995D01*
X97940Y-50887D01*
X97940Y-50712D01*
X97873Y-50550D01*
X97749Y-50426D01*
X97634Y-50379D01*
X98370Y-50379D01*
X98370Y-54009D01*
G54D10*
G36*
X98370Y-60170D02*
X97344Y-60170D01*
X97363Y-60151D01*
X97430Y-59990D01*
X97430Y-59567D01*
X97430Y-59057D01*
X97430Y-58633D01*
X97363Y-58472D01*
X97239Y-58348D01*
X97078Y-58281D01*
X96903Y-58281D01*
X96655Y-58281D01*
X96545Y-58391D01*
X96545Y-59167D01*
X97320Y-59167D01*
X97430Y-59057D01*
X97430Y-59567D01*
X97320Y-59457D01*
X96545Y-59457D01*
X96545Y-59464D01*
X96255Y-59464D01*
X96255Y-59457D01*
X95479Y-59457D01*
X95369Y-59567D01*
X95369Y-59990D01*
X95436Y-60151D01*
X95455Y-60170D01*
X83911Y-60170D01*
X84065Y-60015D01*
X84093Y-59975D01*
X84190Y-60073D01*
X84352Y-60140D01*
X84495Y-60140D01*
X84605Y-60030D01*
X84605Y-59395D01*
X84597Y-59395D01*
X84597Y-59105D01*
X84605Y-59105D01*
X84605Y-59030D01*
X84605Y-58470D01*
X84605Y-58395D01*
X84597Y-58395D01*
X84597Y-58105D01*
X84605Y-58105D01*
X84605Y-58030D01*
X84605Y-57470D01*
X84605Y-57395D01*
X84597Y-57395D01*
X84597Y-57105D01*
X84605Y-57105D01*
X84605Y-56470D01*
X84495Y-56360D01*
X84352Y-56360D01*
X84196Y-56424D01*
X84196Y-56350D01*
X84162Y-56178D01*
X84162Y-56178D01*
X84065Y-56034D01*
X83500Y-55468D01*
X83500Y-53787D01*
X83500Y-53612D01*
X83500Y-53505D01*
X83390Y-53395D01*
X82895Y-53395D01*
X82895Y-54030D01*
X83005Y-54140D01*
X83147Y-54140D01*
X83309Y-54073D01*
X83433Y-53949D01*
X83500Y-53787D01*
X83500Y-55468D01*
X82196Y-54164D01*
X82196Y-54075D01*
X82352Y-54140D01*
X82495Y-54140D01*
X82605Y-54030D01*
X82605Y-53395D01*
X82597Y-53395D01*
X82597Y-53105D01*
X82605Y-53105D01*
X82605Y-53030D01*
X82605Y-52470D01*
X82605Y-52395D01*
X82597Y-52395D01*
X82597Y-52105D01*
X82605Y-52105D01*
X82605Y-52030D01*
X82605Y-51470D01*
X82605Y-51395D01*
X82597Y-51395D01*
X82597Y-51105D01*
X82605Y-51105D01*
X82605Y-51097D01*
X82895Y-51097D01*
X82895Y-51105D01*
X82902Y-51105D01*
X82902Y-51395D01*
X82895Y-51395D01*
X82895Y-51470D01*
X82895Y-52030D01*
X82895Y-52105D01*
X82902Y-52105D01*
X82902Y-52395D01*
X82895Y-52395D01*
X82895Y-52470D01*
X82895Y-53030D01*
X82895Y-53105D01*
X82970Y-53105D01*
X83005Y-53140D01*
X83147Y-53140D01*
X83232Y-53105D01*
X83390Y-53105D01*
X83500Y-52995D01*
X83500Y-52950D01*
X84109Y-52950D01*
X84201Y-52911D01*
X84250Y-52863D01*
X84298Y-52911D01*
X84390Y-52950D01*
X84489Y-52950D01*
X85109Y-52950D01*
X85201Y-52911D01*
X85250Y-52863D01*
X85298Y-52911D01*
X85390Y-52950D01*
X85489Y-52950D01*
X86109Y-52950D01*
X86201Y-52911D01*
X86250Y-52863D01*
X86298Y-52911D01*
X86390Y-52950D01*
X86489Y-52950D01*
X87109Y-52950D01*
X87201Y-52911D01*
X87250Y-52863D01*
X87298Y-52911D01*
X87390Y-52950D01*
X87489Y-52950D01*
X88109Y-52950D01*
X88201Y-52911D01*
X88250Y-52863D01*
X88298Y-52911D01*
X88390Y-52950D01*
X88489Y-52950D01*
X89109Y-52950D01*
X89201Y-52911D01*
X89250Y-52863D01*
X89298Y-52911D01*
X89303Y-52913D01*
X89303Y-55424D01*
X89147Y-55360D01*
X89005Y-55360D01*
X88895Y-55470D01*
X88895Y-56105D01*
X89390Y-56105D01*
X89500Y-55995D01*
X89500Y-55887D01*
X89500Y-55831D01*
X90028Y-56360D01*
X90005Y-56360D01*
X89895Y-56470D01*
X89895Y-57105D01*
X89902Y-57105D01*
X89902Y-57395D01*
X89895Y-57395D01*
X89895Y-57402D01*
X89605Y-57402D01*
X89605Y-57395D01*
X89605Y-57105D01*
X89605Y-56470D01*
X89495Y-56360D01*
X89352Y-56360D01*
X89267Y-56395D01*
X88895Y-56395D01*
X88895Y-57030D01*
X89005Y-57140D01*
X89147Y-57140D01*
X89232Y-57105D01*
X89605Y-57105D01*
X89605Y-57395D01*
X89110Y-57395D01*
X89000Y-57505D01*
X89000Y-57550D01*
X88390Y-57550D01*
X88298Y-57588D01*
X88249Y-57636D01*
X88201Y-57588D01*
X88109Y-57550D01*
X88010Y-57550D01*
X87877Y-57550D01*
X87993Y-57474D01*
X88027Y-57441D01*
X88065Y-57415D01*
X88088Y-57381D01*
X88118Y-57352D01*
X88136Y-57309D01*
X88162Y-57271D01*
X88170Y-57230D01*
X88187Y-57192D01*
X88187Y-57145D01*
X88196Y-57100D01*
X88196Y-57075D01*
X88352Y-57140D01*
X88495Y-57140D01*
X88605Y-57030D01*
X88605Y-56395D01*
X88597Y-56395D01*
X88597Y-56105D01*
X88605Y-56105D01*
X88605Y-55470D01*
X88495Y-55360D01*
X88352Y-55360D01*
X88196Y-55424D01*
X88196Y-54935D01*
X88231Y-54900D01*
X88639Y-54900D01*
X88731Y-54861D01*
X88801Y-54791D01*
X88840Y-54699D01*
X88840Y-54600D01*
X88840Y-53800D01*
X88801Y-53708D01*
X88731Y-53638D01*
X88639Y-53600D01*
X88540Y-53600D01*
X87860Y-53600D01*
X87768Y-53638D01*
X87698Y-53708D01*
X87660Y-53800D01*
X87660Y-53899D01*
X87660Y-54208D01*
X87434Y-54434D01*
X87337Y-54578D01*
X87303Y-54750D01*
X87303Y-55586D01*
X87298Y-55588D01*
X87249Y-55636D01*
X87201Y-55588D01*
X87196Y-55586D01*
X87196Y-54750D01*
X87162Y-54578D01*
X87162Y-54578D01*
X87065Y-54434D01*
X86840Y-54208D01*
X86840Y-53800D01*
X86801Y-53708D01*
X86731Y-53638D01*
X86639Y-53600D01*
X86540Y-53600D01*
X85860Y-53600D01*
X85768Y-53638D01*
X85698Y-53708D01*
X85660Y-53800D01*
X85660Y-53899D01*
X85660Y-54699D01*
X85698Y-54791D01*
X85768Y-54861D01*
X85860Y-54900D01*
X85959Y-54900D01*
X86268Y-54900D01*
X86303Y-54935D01*
X86303Y-55424D01*
X86147Y-55360D01*
X86005Y-55360D01*
X85895Y-55470D01*
X85895Y-56105D01*
X85902Y-56105D01*
X85902Y-56395D01*
X85895Y-56395D01*
X85895Y-56402D01*
X85605Y-56402D01*
X85605Y-56395D01*
X85605Y-56105D01*
X85605Y-55470D01*
X85495Y-55360D01*
X85352Y-55360D01*
X85190Y-55426D01*
X85066Y-55550D01*
X85000Y-55712D01*
X85000Y-55887D01*
X85000Y-55995D01*
X85110Y-56105D01*
X85605Y-56105D01*
X85605Y-56395D01*
X85232Y-56395D01*
X85147Y-56360D01*
X85005Y-56360D01*
X84895Y-56470D01*
X84895Y-57105D01*
X84902Y-57105D01*
X84902Y-57395D01*
X84895Y-57395D01*
X84895Y-57470D01*
X84895Y-58030D01*
X84895Y-58105D01*
X84902Y-58105D01*
X84902Y-58395D01*
X84895Y-58395D01*
X84895Y-58470D01*
X84895Y-59030D01*
X84895Y-59105D01*
X84902Y-59105D01*
X84902Y-59395D01*
X84895Y-59395D01*
X84895Y-60030D01*
X85005Y-60140D01*
X85147Y-60140D01*
X85309Y-60073D01*
X85432Y-59950D01*
X85489Y-59950D01*
X86109Y-59950D01*
X86201Y-59911D01*
X86250Y-59863D01*
X86298Y-59911D01*
X86390Y-59950D01*
X86489Y-59950D01*
X87109Y-59950D01*
X87201Y-59911D01*
X87250Y-59863D01*
X87298Y-59911D01*
X87390Y-59950D01*
X87489Y-59950D01*
X88109Y-59950D01*
X88201Y-59911D01*
X88250Y-59863D01*
X88298Y-59911D01*
X88390Y-59950D01*
X88489Y-59950D01*
X89109Y-59950D01*
X89201Y-59911D01*
X89250Y-59863D01*
X89298Y-59911D01*
X89390Y-59950D01*
X89489Y-59950D01*
X90109Y-59950D01*
X90201Y-59911D01*
X90250Y-59863D01*
X90298Y-59911D01*
X90390Y-59950D01*
X90489Y-59950D01*
X91109Y-59950D01*
X91201Y-59911D01*
X91250Y-59863D01*
X91298Y-59911D01*
X91390Y-59950D01*
X91489Y-59950D01*
X92109Y-59950D01*
X92201Y-59911D01*
X92250Y-59863D01*
X92298Y-59911D01*
X92390Y-59950D01*
X92489Y-59950D01*
X93109Y-59950D01*
X93201Y-59911D01*
X93271Y-59841D01*
X93310Y-59749D01*
X93310Y-59650D01*
X93310Y-58750D01*
X93309Y-58750D01*
X93310Y-58749D01*
X93310Y-58650D01*
X93310Y-58555D01*
X93384Y-58665D01*
X93528Y-58762D01*
X93700Y-58796D01*
X95337Y-58796D01*
X95369Y-58790D01*
X95369Y-59057D01*
X95479Y-59167D01*
X96255Y-59167D01*
X96255Y-58391D01*
X96255Y-55508D01*
X96255Y-54733D01*
X95479Y-54733D01*
X95369Y-54843D01*
X95369Y-55266D01*
X95436Y-55427D01*
X95560Y-55551D01*
X95721Y-55618D01*
X95896Y-55618D01*
X96145Y-55618D01*
X96255Y-55508D01*
X96255Y-58391D01*
X96145Y-58281D01*
X95896Y-58281D01*
X95783Y-58281D01*
X95783Y-58016D01*
X95818Y-58001D01*
X95888Y-57931D01*
X95927Y-57839D01*
X95927Y-57740D01*
X95927Y-57162D01*
X96050Y-57039D01*
X96117Y-56877D01*
X96117Y-56705D01*
X96117Y-56195D01*
X96117Y-56022D01*
X96050Y-55860D01*
X95926Y-55736D01*
X95764Y-55670D01*
X95592Y-55670D01*
X95482Y-55780D01*
X95482Y-56305D01*
X96007Y-56305D01*
X96117Y-56195D01*
X96117Y-56705D01*
X96007Y-56595D01*
X95482Y-56595D01*
X95482Y-56602D01*
X95192Y-56602D01*
X95192Y-56595D01*
X95184Y-56595D01*
X95184Y-56305D01*
X95192Y-56305D01*
X95192Y-55780D01*
X95082Y-55670D01*
X94909Y-55670D01*
X94747Y-55736D01*
X94624Y-55860D01*
X94160Y-55860D01*
X94068Y-55898D01*
X93998Y-55968D01*
X93960Y-56060D01*
X93960Y-56159D01*
X93960Y-56628D01*
X93815Y-56484D01*
X93671Y-56387D01*
X93500Y-56353D01*
X93285Y-56353D01*
X92215Y-55284D01*
X92071Y-55187D01*
X91900Y-55153D01*
X91435Y-55153D01*
X91196Y-54914D01*
X91196Y-53936D01*
X91250Y-53946D01*
X93900Y-53946D01*
X94023Y-53922D01*
X94090Y-53950D01*
X94189Y-53950D01*
X94767Y-53950D01*
X94890Y-54073D01*
X95052Y-54140D01*
X95195Y-54140D01*
X95304Y-54030D01*
X95304Y-54140D01*
X95369Y-54140D01*
X95369Y-54333D01*
X95479Y-54443D01*
X96255Y-54443D01*
X96255Y-54435D01*
X96545Y-54435D01*
X96545Y-54443D01*
X96552Y-54443D01*
X96552Y-54733D01*
X96545Y-54733D01*
X96545Y-55508D01*
X96655Y-55618D01*
X96903Y-55618D01*
X97078Y-55618D01*
X97239Y-55551D01*
X97347Y-55443D01*
X97368Y-55458D01*
X97538Y-55496D01*
X97710Y-55467D01*
X97857Y-55373D01*
X97958Y-55231D01*
X98358Y-54331D01*
X98359Y-54325D01*
X98362Y-54321D01*
X98370Y-54282D01*
X98370Y-60170D01*
X98370Y-60170D01*
G37*
G54D21*
X98370Y-60170D02*
X97344Y-60170D01*
X97363Y-60151D01*
X97430Y-59990D01*
X97430Y-59567D01*
X97430Y-59057D01*
X97430Y-58633D01*
X97363Y-58472D01*
X97239Y-58348D01*
X97078Y-58281D01*
X96903Y-58281D01*
X96655Y-58281D01*
X96545Y-58391D01*
X96545Y-59167D01*
X97320Y-59167D01*
X97430Y-59057D01*
X97430Y-59567D01*
X97320Y-59457D01*
X96545Y-59457D01*
X96545Y-59464D01*
X96255Y-59464D01*
X96255Y-59457D01*
X95479Y-59457D01*
X95369Y-59567D01*
X95369Y-59990D01*
X95436Y-60151D01*
X95455Y-60170D01*
X83911Y-60170D01*
X84065Y-60015D01*
X84093Y-59975D01*
X84190Y-60073D01*
X84352Y-60140D01*
X84495Y-60140D01*
X84605Y-60030D01*
X84605Y-59395D01*
X84597Y-59395D01*
X84597Y-59105D01*
X84605Y-59105D01*
X84605Y-59030D01*
X84605Y-58470D01*
X84605Y-58395D01*
X84597Y-58395D01*
X84597Y-58105D01*
X84605Y-58105D01*
X84605Y-58030D01*
X84605Y-57470D01*
X84605Y-57395D01*
X84597Y-57395D01*
X84597Y-57105D01*
X84605Y-57105D01*
X84605Y-56470D01*
X84495Y-56360D01*
X84352Y-56360D01*
X84196Y-56424D01*
X84196Y-56350D01*
X84162Y-56178D01*
X84162Y-56178D01*
X84065Y-56034D01*
X83500Y-55468D01*
X83500Y-53787D01*
X83500Y-53612D01*
X83500Y-53505D01*
X83390Y-53395D01*
X82895Y-53395D01*
X82895Y-54030D01*
X83005Y-54140D01*
X83147Y-54140D01*
X83309Y-54073D01*
X83433Y-53949D01*
X83500Y-53787D01*
X83500Y-55468D01*
X82196Y-54164D01*
X82196Y-54075D01*
X82352Y-54140D01*
X82495Y-54140D01*
X82605Y-54030D01*
X82605Y-53395D01*
X82597Y-53395D01*
X82597Y-53105D01*
X82605Y-53105D01*
X82605Y-53030D01*
X82605Y-52470D01*
X82605Y-52395D01*
X82597Y-52395D01*
X82597Y-52105D01*
X82605Y-52105D01*
X82605Y-52030D01*
X82605Y-51470D01*
X82605Y-51395D01*
X82597Y-51395D01*
X82597Y-51105D01*
X82605Y-51105D01*
X82605Y-51097D01*
X82895Y-51097D01*
X82895Y-51105D01*
X82902Y-51105D01*
X82902Y-51395D01*
X82895Y-51395D01*
X82895Y-51470D01*
X82895Y-52030D01*
X82895Y-52105D01*
X82902Y-52105D01*
X82902Y-52395D01*
X82895Y-52395D01*
X82895Y-52470D01*
X82895Y-53030D01*
X82895Y-53105D01*
X82970Y-53105D01*
X83005Y-53140D01*
X83147Y-53140D01*
X83232Y-53105D01*
X83390Y-53105D01*
X83500Y-52995D01*
X83500Y-52950D01*
X84109Y-52950D01*
X84201Y-52911D01*
X84250Y-52863D01*
X84298Y-52911D01*
X84390Y-52950D01*
X84489Y-52950D01*
X85109Y-52950D01*
X85201Y-52911D01*
X85250Y-52863D01*
X85298Y-52911D01*
X85390Y-52950D01*
X85489Y-52950D01*
X86109Y-52950D01*
X86201Y-52911D01*
X86250Y-52863D01*
X86298Y-52911D01*
X86390Y-52950D01*
X86489Y-52950D01*
X87109Y-52950D01*
X87201Y-52911D01*
X87250Y-52863D01*
X87298Y-52911D01*
X87390Y-52950D01*
X87489Y-52950D01*
X88109Y-52950D01*
X88201Y-52911D01*
X88250Y-52863D01*
X88298Y-52911D01*
X88390Y-52950D01*
X88489Y-52950D01*
X89109Y-52950D01*
X89201Y-52911D01*
X89250Y-52863D01*
X89298Y-52911D01*
X89303Y-52913D01*
X89303Y-55424D01*
X89147Y-55360D01*
X89005Y-55360D01*
X88895Y-55470D01*
X88895Y-56105D01*
X89390Y-56105D01*
X89500Y-55995D01*
X89500Y-55887D01*
X89500Y-55831D01*
X90028Y-56360D01*
X90005Y-56360D01*
X89895Y-56470D01*
X89895Y-57105D01*
X89902Y-57105D01*
X89902Y-57395D01*
X89895Y-57395D01*
X89895Y-57402D01*
X89605Y-57402D01*
X89605Y-57395D01*
X89605Y-57105D01*
X89605Y-56470D01*
X89495Y-56360D01*
X89352Y-56360D01*
X89267Y-56395D01*
X88895Y-56395D01*
X88895Y-57030D01*
X89005Y-57140D01*
X89147Y-57140D01*
X89232Y-57105D01*
X89605Y-57105D01*
X89605Y-57395D01*
X89110Y-57395D01*
X89000Y-57505D01*
X89000Y-57550D01*
X88390Y-57550D01*
X88298Y-57588D01*
X88249Y-57636D01*
X88201Y-57588D01*
X88109Y-57550D01*
X88010Y-57550D01*
X87877Y-57550D01*
X87993Y-57474D01*
X88027Y-57441D01*
X88065Y-57415D01*
X88088Y-57381D01*
X88118Y-57352D01*
X88136Y-57309D01*
X88162Y-57271D01*
X88170Y-57230D01*
X88187Y-57192D01*
X88187Y-57145D01*
X88196Y-57100D01*
X88196Y-57075D01*
X88352Y-57140D01*
X88495Y-57140D01*
X88605Y-57030D01*
X88605Y-56395D01*
X88597Y-56395D01*
X88597Y-56105D01*
X88605Y-56105D01*
X88605Y-55470D01*
X88495Y-55360D01*
X88352Y-55360D01*
X88196Y-55424D01*
X88196Y-54935D01*
X88231Y-54900D01*
X88639Y-54900D01*
X88731Y-54861D01*
X88801Y-54791D01*
X88840Y-54699D01*
X88840Y-54600D01*
X88840Y-53800D01*
X88801Y-53708D01*
X88731Y-53638D01*
X88639Y-53600D01*
X88540Y-53600D01*
X87860Y-53600D01*
X87768Y-53638D01*
X87698Y-53708D01*
X87660Y-53800D01*
X87660Y-53899D01*
X87660Y-54208D01*
X87434Y-54434D01*
X87337Y-54578D01*
X87303Y-54750D01*
X87303Y-55586D01*
X87298Y-55588D01*
X87249Y-55636D01*
X87201Y-55588D01*
X87196Y-55586D01*
X87196Y-54750D01*
X87162Y-54578D01*
X87162Y-54578D01*
X87065Y-54434D01*
X86840Y-54208D01*
X86840Y-53800D01*
X86801Y-53708D01*
X86731Y-53638D01*
X86639Y-53600D01*
X86540Y-53600D01*
X85860Y-53600D01*
X85768Y-53638D01*
X85698Y-53708D01*
X85660Y-53800D01*
X85660Y-53899D01*
X85660Y-54699D01*
X85698Y-54791D01*
X85768Y-54861D01*
X85860Y-54900D01*
X85959Y-54900D01*
X86268Y-54900D01*
X86303Y-54935D01*
X86303Y-55424D01*
X86147Y-55360D01*
X86005Y-55360D01*
X85895Y-55470D01*
X85895Y-56105D01*
X85902Y-56105D01*
X85902Y-56395D01*
X85895Y-56395D01*
X85895Y-56402D01*
X85605Y-56402D01*
X85605Y-56395D01*
X85605Y-56105D01*
X85605Y-55470D01*
X85495Y-55360D01*
X85352Y-55360D01*
X85190Y-55426D01*
X85066Y-55550D01*
X85000Y-55712D01*
X85000Y-55887D01*
X85000Y-55995D01*
X85110Y-56105D01*
X85605Y-56105D01*
X85605Y-56395D01*
X85232Y-56395D01*
X85147Y-56360D01*
X85005Y-56360D01*
X84895Y-56470D01*
X84895Y-57105D01*
X84902Y-57105D01*
X84902Y-57395D01*
X84895Y-57395D01*
X84895Y-57470D01*
X84895Y-58030D01*
X84895Y-58105D01*
X84902Y-58105D01*
X84902Y-58395D01*
X84895Y-58395D01*
X84895Y-58470D01*
X84895Y-59030D01*
X84895Y-59105D01*
X84902Y-59105D01*
X84902Y-59395D01*
X84895Y-59395D01*
X84895Y-60030D01*
X85005Y-60140D01*
X85147Y-60140D01*
X85309Y-60073D01*
X85432Y-59950D01*
X85489Y-59950D01*
X86109Y-59950D01*
X86201Y-59911D01*
X86250Y-59863D01*
X86298Y-59911D01*
X86390Y-59950D01*
X86489Y-59950D01*
X87109Y-59950D01*
X87201Y-59911D01*
X87250Y-59863D01*
X87298Y-59911D01*
X87390Y-59950D01*
X87489Y-59950D01*
X88109Y-59950D01*
X88201Y-59911D01*
X88250Y-59863D01*
X88298Y-59911D01*
X88390Y-59950D01*
X88489Y-59950D01*
X89109Y-59950D01*
X89201Y-59911D01*
X89250Y-59863D01*
X89298Y-59911D01*
X89390Y-59950D01*
X89489Y-59950D01*
X90109Y-59950D01*
X90201Y-59911D01*
X90250Y-59863D01*
X90298Y-59911D01*
X90390Y-59950D01*
X90489Y-59950D01*
X91109Y-59950D01*
X91201Y-59911D01*
X91250Y-59863D01*
X91298Y-59911D01*
X91390Y-59950D01*
X91489Y-59950D01*
X92109Y-59950D01*
X92201Y-59911D01*
X92250Y-59863D01*
X92298Y-59911D01*
X92390Y-59950D01*
X92489Y-59950D01*
X93109Y-59950D01*
X93201Y-59911D01*
X93271Y-59841D01*
X93310Y-59749D01*
X93310Y-59650D01*
X93310Y-58750D01*
X93309Y-58750D01*
X93310Y-58749D01*
X93310Y-58650D01*
X93310Y-58555D01*
X93384Y-58665D01*
X93528Y-58762D01*
X93700Y-58796D01*
X95337Y-58796D01*
X95369Y-58790D01*
X95369Y-59057D01*
X95479Y-59167D01*
X96255Y-59167D01*
X96255Y-58391D01*
X96255Y-55508D01*
X96255Y-54733D01*
X95479Y-54733D01*
X95369Y-54843D01*
X95369Y-55266D01*
X95436Y-55427D01*
X95560Y-55551D01*
X95721Y-55618D01*
X95896Y-55618D01*
X96145Y-55618D01*
X96255Y-55508D01*
X96255Y-58391D01*
X96145Y-58281D01*
X95896Y-58281D01*
X95783Y-58281D01*
X95783Y-58016D01*
X95818Y-58001D01*
X95888Y-57931D01*
X95927Y-57839D01*
X95927Y-57740D01*
X95927Y-57162D01*
X96050Y-57039D01*
X96117Y-56877D01*
X96117Y-56705D01*
X96117Y-56195D01*
X96117Y-56022D01*
X96050Y-55860D01*
X95926Y-55736D01*
X95764Y-55670D01*
X95592Y-55670D01*
X95482Y-55780D01*
X95482Y-56305D01*
X96007Y-56305D01*
X96117Y-56195D01*
X96117Y-56705D01*
X96007Y-56595D01*
X95482Y-56595D01*
X95482Y-56602D01*
X95192Y-56602D01*
X95192Y-56595D01*
X95184Y-56595D01*
X95184Y-56305D01*
X95192Y-56305D01*
X95192Y-55780D01*
X95082Y-55670D01*
X94909Y-55670D01*
X94747Y-55736D01*
X94624Y-55860D01*
X94160Y-55860D01*
X94068Y-55898D01*
X93998Y-55968D01*
X93960Y-56060D01*
X93960Y-56159D01*
X93960Y-56628D01*
X93815Y-56484D01*
X93671Y-56387D01*
X93500Y-56353D01*
X93285Y-56353D01*
X92215Y-55284D01*
X92071Y-55187D01*
X91900Y-55153D01*
X91435Y-55153D01*
X91196Y-54914D01*
X91196Y-53936D01*
X91250Y-53946D01*
X93900Y-53946D01*
X94023Y-53922D01*
X94090Y-53950D01*
X94189Y-53950D01*
X94767Y-53950D01*
X94890Y-54073D01*
X95052Y-54140D01*
X95195Y-54140D01*
X95304Y-54030D01*
X95304Y-54140D01*
X95369Y-54140D01*
X95369Y-54333D01*
X95479Y-54443D01*
X96255Y-54443D01*
X96255Y-54435D01*
X96545Y-54435D01*
X96545Y-54443D01*
X96552Y-54443D01*
X96552Y-54733D01*
X96545Y-54733D01*
X96545Y-55508D01*
X96655Y-55618D01*
X96903Y-55618D01*
X97078Y-55618D01*
X97239Y-55551D01*
X97347Y-55443D01*
X97368Y-55458D01*
X97538Y-55496D01*
X97710Y-55467D01*
X97857Y-55373D01*
X97958Y-55231D01*
X98358Y-54331D01*
X98359Y-54325D01*
X98362Y-54321D01*
X98370Y-54282D01*
X98370Y-60170D01*
M02*
