M48
METRIC,TZ
T1C0.635
T2C0.813
T3C1.016
T4C1.143
T5C2.000
%
G90
G05
T1
X193167Y-142875
X205359Y-136525
X206502Y-139065
X207010Y-142240
X231775Y-134620
X231775Y-135890
X247777Y-139827
T2
X187325Y-130175
X187325Y-132715
X187325Y-147955
X187325Y-150495
X189865Y-130175
X189865Y-132715
X189865Y-147955
X189865Y-150495
X192405Y-130175
X192405Y-132715
X192405Y-147955
X192405Y-150495
X194945Y-130175
X194945Y-132715
X194945Y-147955
X194945Y-150495
X197485Y-130175
X197485Y-132715
X197485Y-147955
X197485Y-150495
X200025Y-130175
X200025Y-132715
X200025Y-147955
X200025Y-150495
X202565Y-130175
X202565Y-132715
X202565Y-147955
X202565Y-150495
X205105Y-130175
X205105Y-132715
X205105Y-147955
X205105Y-150495
X207645Y-130175
X207645Y-132715
X207645Y-135255
X207645Y-147955
X207645Y-150495
X210185Y-130175
X210185Y-132715
X210185Y-135255
X210185Y-147955
X210185Y-150495
X212725Y-130175
X212725Y-132715
X212725Y-145415
X212725Y-147955
X212725Y-150495
X215265Y-130175
X215265Y-132715
X215265Y-145415
X215265Y-147955
X215265Y-150495
X217805Y-130175
X217805Y-132715
X217805Y-142875
X217805Y-147955
X217805Y-150495
X220345Y-130175
X220345Y-132715
X220345Y-142875
X220345Y-147955
X220345Y-150495
X222885Y-130175
X222885Y-132715
X222885Y-142875
X222885Y-147955
X222885Y-150495
X225425Y-130175
X225425Y-132715
X225425Y-142875
X225425Y-147955
X225425Y-150495
X227965Y-130175
X227965Y-132715
X227965Y-145415
X227965Y-147955
X227965Y-150495
X230505Y-130175
X230505Y-132715
X230505Y-145415
X230505Y-147955
X230505Y-150495
X233045Y-130175
X233045Y-132715
X233045Y-147955
X233045Y-150495
X235585Y-130175
X235585Y-132715
X235585Y-147955
X235585Y-150495
X239903Y-130175
X239903Y-135255
X242443Y-130175
X242443Y-135255
T3
X183515Y-130175
X183515Y-132715
X183515Y-146685
X183515Y-149225
X183515Y-151765
X187325Y-136525
X187325Y-139065
X187325Y-141605
X187325Y-144145
X195072Y-136525
X195072Y-139065
X195072Y-141605
X195072Y-144145
X202692Y-136525
X202692Y-139065
X202692Y-141605
X202692Y-144145
X219075Y-137795
X224155Y-137795
X240157Y-143383
X240157Y-145923
X242156Y-143383
X242156Y-145923
X246507Y-130175
X246507Y-135255
T4
X182245Y-137795
X182245Y-140335
X182245Y-142875
T5
X244856Y-138654
X244856Y-150652
T0
M30
