%FSLAX34Y34*%
G04 Gerber Fmt 3.4, Leading zero omitted, Abs format*
G04 (created by PCBNEW (2014-04-11 BZR 4798)-product) date mar. 20 mai 2014 10:15:50 CEST*
%MOIN*%
G01*
G70*
G90*
G04 APERTURE LIST*
%ADD10C,0.003937*%
%ADD11C,0.009843*%
%ADD12C,0.005906*%
%ADD13C,0.005000*%
%ADD14C,0.010000*%
%ADD15C,0.012000*%
%ADD16C,0.008000*%
%ADD17C,0.015000*%
%ADD18C,0.012500*%
%ADD19C,0.003500*%
%ADD20C,0.007500*%
G04 APERTURE END LIST*
G54D10*
G54D11*
X90440Y-60278D02*
X90440Y-59884D01*
X90665Y-60278D01*
X90665Y-59884D01*
X91078Y-60240D02*
X91059Y-60259D01*
X91003Y-60278D01*
X90965Y-60278D01*
X90909Y-60259D01*
X90871Y-60221D01*
X90853Y-60184D01*
X90834Y-60109D01*
X90834Y-60053D01*
X90853Y-59978D01*
X90871Y-59940D01*
X90909Y-59903D01*
X90965Y-59884D01*
X91003Y-59884D01*
X91059Y-59903D01*
X91078Y-59921D01*
X87737Y-60278D02*
X87512Y-60278D01*
X87625Y-60278D02*
X87625Y-59884D01*
X87587Y-59940D01*
X87550Y-59978D01*
X87512Y-59996D01*
X88075Y-59884D02*
X88000Y-59884D01*
X87962Y-59903D01*
X87943Y-59921D01*
X87906Y-59978D01*
X87887Y-60053D01*
X87887Y-60203D01*
X87906Y-60240D01*
X87925Y-60259D01*
X87962Y-60278D01*
X88037Y-60278D01*
X88075Y-60259D01*
X88093Y-60240D01*
X88112Y-60203D01*
X88112Y-60109D01*
X88093Y-60071D01*
X88075Y-60053D01*
X88037Y-60034D01*
X87962Y-60034D01*
X87925Y-60053D01*
X87906Y-60071D01*
X87887Y-60109D01*
X88281Y-60240D02*
X88300Y-60259D01*
X88281Y-60278D01*
X88262Y-60259D01*
X88281Y-60240D01*
X88281Y-60278D01*
X88281Y-60034D02*
X88300Y-60053D01*
X88281Y-60071D01*
X88262Y-60053D01*
X88281Y-60034D01*
X88281Y-60071D01*
X88675Y-60278D02*
X88450Y-60278D01*
X88562Y-60278D02*
X88562Y-59884D01*
X88525Y-59940D01*
X88487Y-59978D01*
X88450Y-59996D01*
X88806Y-59884D02*
X89068Y-59884D01*
X88899Y-60278D01*
X89218Y-60240D02*
X89237Y-60259D01*
X89218Y-60278D01*
X89199Y-60259D01*
X89218Y-60240D01*
X89218Y-60278D01*
X89218Y-60034D02*
X89237Y-60053D01*
X89218Y-60071D01*
X89199Y-60053D01*
X89218Y-60034D01*
X89218Y-60071D01*
X89612Y-60278D02*
X89387Y-60278D01*
X89499Y-60278D02*
X89499Y-59884D01*
X89462Y-59940D01*
X89424Y-59978D01*
X89387Y-59996D01*
X89837Y-60053D02*
X89799Y-60034D01*
X89781Y-60015D01*
X89762Y-59978D01*
X89762Y-59959D01*
X89781Y-59921D01*
X89799Y-59903D01*
X89837Y-59884D01*
X89912Y-59884D01*
X89949Y-59903D01*
X89968Y-59921D01*
X89987Y-59959D01*
X89987Y-59978D01*
X89968Y-60015D01*
X89949Y-60034D01*
X89912Y-60053D01*
X89837Y-60053D01*
X89799Y-60071D01*
X89781Y-60090D01*
X89762Y-60128D01*
X89762Y-60203D01*
X89781Y-60240D01*
X89799Y-60259D01*
X89837Y-60278D01*
X89912Y-60278D01*
X89949Y-60259D01*
X89968Y-60240D01*
X89987Y-60203D01*
X89987Y-60128D01*
X89968Y-60090D01*
X89949Y-60071D01*
X89912Y-60053D01*
X78706Y-60278D02*
X78481Y-60278D01*
X78593Y-60278D02*
X78593Y-59884D01*
X78556Y-59940D01*
X78518Y-59978D01*
X78481Y-59996D01*
X78856Y-59921D02*
X78875Y-59903D01*
X78912Y-59884D01*
X79006Y-59884D01*
X79043Y-59903D01*
X79062Y-59921D01*
X79081Y-59959D01*
X79081Y-59996D01*
X79062Y-60053D01*
X78837Y-60278D01*
X79081Y-60278D01*
X79250Y-60240D02*
X79268Y-60259D01*
X79250Y-60278D01*
X79231Y-60259D01*
X79250Y-60240D01*
X79250Y-60278D01*
X79250Y-60034D02*
X79268Y-60053D01*
X79250Y-60071D01*
X79231Y-60053D01*
X79250Y-60034D01*
X79250Y-60071D01*
X79643Y-60278D02*
X79418Y-60278D01*
X79531Y-60278D02*
X79531Y-59884D01*
X79493Y-59940D01*
X79456Y-59978D01*
X79418Y-59996D01*
X79774Y-59884D02*
X80018Y-59884D01*
X79887Y-60034D01*
X79943Y-60034D01*
X79981Y-60053D01*
X79999Y-60071D01*
X80018Y-60109D01*
X80018Y-60203D01*
X79999Y-60240D01*
X79981Y-60259D01*
X79943Y-60278D01*
X79831Y-60278D01*
X79793Y-60259D01*
X79774Y-60240D01*
X76706Y-60278D02*
X76481Y-60278D01*
X76593Y-60278D02*
X76593Y-59884D01*
X76556Y-59940D01*
X76518Y-59978D01*
X76481Y-59996D01*
X76950Y-59884D02*
X76987Y-59884D01*
X77025Y-59903D01*
X77043Y-59921D01*
X77062Y-59959D01*
X77081Y-60034D01*
X77081Y-60128D01*
X77062Y-60203D01*
X77043Y-60240D01*
X77025Y-60259D01*
X76987Y-60278D01*
X76950Y-60278D01*
X76912Y-60259D01*
X76893Y-60240D01*
X76875Y-60203D01*
X76856Y-60128D01*
X76856Y-60034D01*
X76875Y-59959D01*
X76893Y-59921D01*
X76912Y-59903D01*
X76950Y-59884D01*
X77250Y-60240D02*
X77268Y-60259D01*
X77250Y-60278D01*
X77231Y-60259D01*
X77250Y-60240D01*
X77250Y-60278D01*
X77250Y-60034D02*
X77268Y-60053D01*
X77250Y-60071D01*
X77231Y-60053D01*
X77250Y-60034D01*
X77250Y-60071D01*
X77643Y-60278D02*
X77418Y-60278D01*
X77531Y-60278D02*
X77531Y-59884D01*
X77493Y-59940D01*
X77456Y-59978D01*
X77418Y-59996D01*
X78018Y-60278D02*
X77793Y-60278D01*
X77906Y-60278D02*
X77906Y-59884D01*
X77868Y-59940D01*
X77831Y-59978D01*
X77793Y-59996D01*
X74924Y-50615D02*
X74887Y-50615D01*
X74849Y-50596D01*
X74831Y-50578D01*
X74812Y-50540D01*
X74793Y-50465D01*
X74793Y-50371D01*
X74812Y-50296D01*
X74831Y-50259D01*
X74849Y-50240D01*
X74887Y-50221D01*
X74924Y-50221D01*
X74962Y-50240D01*
X74981Y-50259D01*
X74999Y-50296D01*
X75018Y-50371D01*
X75018Y-50465D01*
X74999Y-50540D01*
X74981Y-50578D01*
X74962Y-50596D01*
X74924Y-50615D01*
X74456Y-50615D02*
X74531Y-50615D01*
X74568Y-50596D01*
X74587Y-50578D01*
X74624Y-50521D01*
X74643Y-50446D01*
X74643Y-50296D01*
X74624Y-50259D01*
X74606Y-50240D01*
X74568Y-50221D01*
X74493Y-50221D01*
X74456Y-50240D01*
X74437Y-50259D01*
X74418Y-50296D01*
X74418Y-50390D01*
X74437Y-50428D01*
X74456Y-50446D01*
X74493Y-50465D01*
X74568Y-50465D01*
X74606Y-50446D01*
X74624Y-50428D01*
X74643Y-50390D01*
X74250Y-50259D02*
X74231Y-50240D01*
X74250Y-50221D01*
X74268Y-50240D01*
X74250Y-50259D01*
X74250Y-50221D01*
X74250Y-50465D02*
X74231Y-50446D01*
X74250Y-50428D01*
X74268Y-50446D01*
X74250Y-50465D01*
X74250Y-50428D01*
X73987Y-50615D02*
X73950Y-50615D01*
X73912Y-50596D01*
X73893Y-50578D01*
X73875Y-50540D01*
X73856Y-50465D01*
X73856Y-50371D01*
X73875Y-50296D01*
X73893Y-50259D01*
X73912Y-50240D01*
X73950Y-50221D01*
X73987Y-50221D01*
X74025Y-50240D01*
X74043Y-50259D01*
X74062Y-50296D01*
X74081Y-50371D01*
X74081Y-50465D01*
X74062Y-50540D01*
X74043Y-50578D01*
X74025Y-50596D01*
X73987Y-50615D01*
X73725Y-50615D02*
X73462Y-50615D01*
X73631Y-50221D01*
X76924Y-50615D02*
X76887Y-50615D01*
X76849Y-50596D01*
X76831Y-50578D01*
X76812Y-50540D01*
X76793Y-50465D01*
X76793Y-50371D01*
X76812Y-50296D01*
X76831Y-50259D01*
X76849Y-50240D01*
X76887Y-50221D01*
X76924Y-50221D01*
X76962Y-50240D01*
X76981Y-50259D01*
X76999Y-50296D01*
X77018Y-50371D01*
X77018Y-50465D01*
X76999Y-50540D01*
X76981Y-50578D01*
X76962Y-50596D01*
X76924Y-50615D01*
X76456Y-50484D02*
X76456Y-50221D01*
X76549Y-50634D02*
X76643Y-50353D01*
X76399Y-50353D01*
X76250Y-50259D02*
X76231Y-50240D01*
X76250Y-50221D01*
X76268Y-50240D01*
X76250Y-50259D01*
X76250Y-50221D01*
X76250Y-50465D02*
X76231Y-50446D01*
X76250Y-50428D01*
X76268Y-50446D01*
X76250Y-50465D01*
X76250Y-50428D01*
X75987Y-50615D02*
X75950Y-50615D01*
X75912Y-50596D01*
X75893Y-50578D01*
X75875Y-50540D01*
X75856Y-50465D01*
X75856Y-50371D01*
X75875Y-50296D01*
X75893Y-50259D01*
X75912Y-50240D01*
X75950Y-50221D01*
X75987Y-50221D01*
X76025Y-50240D01*
X76043Y-50259D01*
X76062Y-50296D01*
X76081Y-50371D01*
X76081Y-50465D01*
X76062Y-50540D01*
X76043Y-50578D01*
X76025Y-50596D01*
X75987Y-50615D01*
X75500Y-50615D02*
X75687Y-50615D01*
X75706Y-50428D01*
X75687Y-50446D01*
X75650Y-50465D01*
X75556Y-50465D01*
X75518Y-50446D01*
X75500Y-50428D01*
X75481Y-50390D01*
X75481Y-50296D01*
X75500Y-50259D01*
X75518Y-50240D01*
X75556Y-50221D01*
X75650Y-50221D01*
X75687Y-50240D01*
X75706Y-50259D01*
X78924Y-50615D02*
X78887Y-50615D01*
X78849Y-50596D01*
X78831Y-50578D01*
X78812Y-50540D01*
X78793Y-50465D01*
X78793Y-50371D01*
X78812Y-50296D01*
X78831Y-50259D01*
X78849Y-50240D01*
X78887Y-50221D01*
X78924Y-50221D01*
X78962Y-50240D01*
X78981Y-50259D01*
X78999Y-50296D01*
X79018Y-50371D01*
X79018Y-50465D01*
X78999Y-50540D01*
X78981Y-50578D01*
X78962Y-50596D01*
X78924Y-50615D01*
X78643Y-50578D02*
X78624Y-50596D01*
X78587Y-50615D01*
X78493Y-50615D01*
X78456Y-50596D01*
X78437Y-50578D01*
X78418Y-50540D01*
X78418Y-50503D01*
X78437Y-50446D01*
X78662Y-50221D01*
X78418Y-50221D01*
X78250Y-50259D02*
X78231Y-50240D01*
X78250Y-50221D01*
X78268Y-50240D01*
X78250Y-50259D01*
X78250Y-50221D01*
X78250Y-50465D02*
X78231Y-50446D01*
X78250Y-50428D01*
X78268Y-50446D01*
X78250Y-50465D01*
X78250Y-50428D01*
X77987Y-50615D02*
X77950Y-50615D01*
X77912Y-50596D01*
X77893Y-50578D01*
X77875Y-50540D01*
X77856Y-50465D01*
X77856Y-50371D01*
X77875Y-50296D01*
X77893Y-50259D01*
X77912Y-50240D01*
X77950Y-50221D01*
X77987Y-50221D01*
X78025Y-50240D01*
X78043Y-50259D01*
X78062Y-50296D01*
X78081Y-50371D01*
X78081Y-50465D01*
X78062Y-50540D01*
X78043Y-50578D01*
X78025Y-50596D01*
X77987Y-50615D01*
X77725Y-50615D02*
X77481Y-50615D01*
X77612Y-50465D01*
X77556Y-50465D01*
X77518Y-50446D01*
X77500Y-50428D01*
X77481Y-50390D01*
X77481Y-50296D01*
X77500Y-50259D01*
X77518Y-50240D01*
X77556Y-50221D01*
X77668Y-50221D01*
X77706Y-50240D01*
X77725Y-50259D01*
X85037Y-50615D02*
X84793Y-50615D01*
X84924Y-50465D01*
X84868Y-50465D01*
X84831Y-50446D01*
X84812Y-50428D01*
X84793Y-50390D01*
X84793Y-50296D01*
X84812Y-50259D01*
X84831Y-50240D01*
X84868Y-50221D01*
X84981Y-50221D01*
X85018Y-50240D01*
X85037Y-50259D01*
X84549Y-50615D02*
X84512Y-50615D01*
X84474Y-50596D01*
X84456Y-50578D01*
X84437Y-50540D01*
X84418Y-50465D01*
X84418Y-50371D01*
X84437Y-50296D01*
X84456Y-50259D01*
X84474Y-50240D01*
X84512Y-50221D01*
X84549Y-50221D01*
X84587Y-50240D01*
X84606Y-50259D01*
X84624Y-50296D01*
X84643Y-50371D01*
X84643Y-50465D01*
X84624Y-50540D01*
X84606Y-50578D01*
X84587Y-50596D01*
X84549Y-50615D01*
X84250Y-50259D02*
X84231Y-50240D01*
X84250Y-50221D01*
X84268Y-50240D01*
X84250Y-50259D01*
X84250Y-50221D01*
X84250Y-50465D02*
X84231Y-50446D01*
X84250Y-50428D01*
X84268Y-50446D01*
X84250Y-50465D01*
X84250Y-50428D01*
X84100Y-50615D02*
X83856Y-50615D01*
X83987Y-50465D01*
X83931Y-50465D01*
X83893Y-50446D01*
X83875Y-50428D01*
X83856Y-50390D01*
X83856Y-50296D01*
X83875Y-50259D01*
X83893Y-50240D01*
X83931Y-50221D01*
X84043Y-50221D01*
X84081Y-50240D01*
X84100Y-50259D01*
X83481Y-50221D02*
X83706Y-50221D01*
X83593Y-50221D02*
X83593Y-50615D01*
X83631Y-50559D01*
X83668Y-50521D01*
X83706Y-50503D01*
X89018Y-50578D02*
X88999Y-50596D01*
X88962Y-50615D01*
X88868Y-50615D01*
X88831Y-50596D01*
X88812Y-50578D01*
X88793Y-50540D01*
X88793Y-50503D01*
X88812Y-50446D01*
X89037Y-50221D01*
X88793Y-50221D01*
X88643Y-50578D02*
X88624Y-50596D01*
X88587Y-50615D01*
X88493Y-50615D01*
X88456Y-50596D01*
X88437Y-50578D01*
X88418Y-50540D01*
X88418Y-50503D01*
X88437Y-50446D01*
X88662Y-50221D01*
X88418Y-50221D01*
X88250Y-50259D02*
X88231Y-50240D01*
X88250Y-50221D01*
X88268Y-50240D01*
X88250Y-50259D01*
X88250Y-50221D01*
X88250Y-50465D02*
X88231Y-50446D01*
X88250Y-50428D01*
X88268Y-50446D01*
X88250Y-50465D01*
X88250Y-50428D01*
X88081Y-50578D02*
X88062Y-50596D01*
X88025Y-50615D01*
X87931Y-50615D01*
X87893Y-50596D01*
X87875Y-50578D01*
X87856Y-50540D01*
X87856Y-50503D01*
X87875Y-50446D01*
X88100Y-50221D01*
X87856Y-50221D01*
X87725Y-50615D02*
X87481Y-50615D01*
X87612Y-50465D01*
X87556Y-50465D01*
X87518Y-50446D01*
X87500Y-50428D01*
X87481Y-50390D01*
X87481Y-50296D01*
X87500Y-50259D01*
X87518Y-50240D01*
X87556Y-50221D01*
X87668Y-50221D01*
X87706Y-50240D01*
X87725Y-50259D01*
X73431Y-59884D02*
X73675Y-59884D01*
X73543Y-60034D01*
X73600Y-60034D01*
X73637Y-60053D01*
X73656Y-60071D01*
X73675Y-60109D01*
X73675Y-60203D01*
X73656Y-60240D01*
X73637Y-60259D01*
X73600Y-60278D01*
X73487Y-60278D01*
X73450Y-60259D01*
X73431Y-60240D01*
X74031Y-59884D02*
X73843Y-59884D01*
X73824Y-60071D01*
X73843Y-60053D01*
X73881Y-60034D01*
X73974Y-60034D01*
X74012Y-60053D01*
X74031Y-60071D01*
X74049Y-60109D01*
X74049Y-60203D01*
X74031Y-60240D01*
X74012Y-60259D01*
X73974Y-60278D01*
X73881Y-60278D01*
X73843Y-60259D01*
X73824Y-60240D01*
X80493Y-59884D02*
X80737Y-59884D01*
X80606Y-60034D01*
X80662Y-60034D01*
X80700Y-60053D01*
X80718Y-60071D01*
X80737Y-60109D01*
X80737Y-60203D01*
X80718Y-60240D01*
X80700Y-60259D01*
X80662Y-60278D01*
X80550Y-60278D01*
X80512Y-60259D01*
X80493Y-60240D01*
X80887Y-59921D02*
X80906Y-59903D01*
X80943Y-59884D01*
X81037Y-59884D01*
X81075Y-59903D01*
X81093Y-59921D01*
X81112Y-59959D01*
X81112Y-59996D01*
X81093Y-60053D01*
X80868Y-60278D01*
X81112Y-60278D01*
X81281Y-60240D02*
X81300Y-60259D01*
X81281Y-60278D01*
X81262Y-60259D01*
X81281Y-60240D01*
X81281Y-60278D01*
X81281Y-60034D02*
X81300Y-60053D01*
X81281Y-60071D01*
X81262Y-60053D01*
X81281Y-60034D01*
X81281Y-60071D01*
X81431Y-59884D02*
X81675Y-59884D01*
X81543Y-60034D01*
X81600Y-60034D01*
X81637Y-60053D01*
X81656Y-60071D01*
X81675Y-60109D01*
X81675Y-60203D01*
X81656Y-60240D01*
X81637Y-60259D01*
X81600Y-60278D01*
X81487Y-60278D01*
X81450Y-60259D01*
X81431Y-60240D01*
X81806Y-59884D02*
X82049Y-59884D01*
X81918Y-60034D01*
X81974Y-60034D01*
X82012Y-60053D01*
X82031Y-60071D01*
X82049Y-60109D01*
X82049Y-60203D01*
X82031Y-60240D01*
X82012Y-60259D01*
X81974Y-60278D01*
X81862Y-60278D01*
X81824Y-60259D01*
X81806Y-60240D01*
X82218Y-60240D02*
X82237Y-60259D01*
X82218Y-60278D01*
X82199Y-60259D01*
X82218Y-60240D01*
X82218Y-60278D01*
X82218Y-60034D02*
X82237Y-60053D01*
X82218Y-60071D01*
X82199Y-60053D01*
X82218Y-60034D01*
X82218Y-60071D01*
X82368Y-59884D02*
X82612Y-59884D01*
X82481Y-60034D01*
X82537Y-60034D01*
X82574Y-60053D01*
X82593Y-60071D01*
X82612Y-60109D01*
X82612Y-60203D01*
X82593Y-60240D01*
X82574Y-60259D01*
X82537Y-60278D01*
X82424Y-60278D01*
X82387Y-60259D01*
X82368Y-60240D01*
X82949Y-60015D02*
X82949Y-60278D01*
X82856Y-59865D02*
X82762Y-60146D01*
X83006Y-60146D01*
X74575Y-59884D02*
X74612Y-59884D01*
X74650Y-59903D01*
X74668Y-59921D01*
X74687Y-59959D01*
X74706Y-60034D01*
X74706Y-60128D01*
X74687Y-60203D01*
X74668Y-60240D01*
X74650Y-60259D01*
X74612Y-60278D01*
X74575Y-60278D01*
X74537Y-60259D01*
X74518Y-60240D01*
X74500Y-60203D01*
X74481Y-60128D01*
X74481Y-60034D01*
X74500Y-59959D01*
X74518Y-59921D01*
X74537Y-59903D01*
X74575Y-59884D01*
X74931Y-60053D02*
X74893Y-60034D01*
X74875Y-60015D01*
X74856Y-59978D01*
X74856Y-59959D01*
X74875Y-59921D01*
X74893Y-59903D01*
X74931Y-59884D01*
X75006Y-59884D01*
X75043Y-59903D01*
X75062Y-59921D01*
X75081Y-59959D01*
X75081Y-59978D01*
X75062Y-60015D01*
X75043Y-60034D01*
X75006Y-60053D01*
X74931Y-60053D01*
X74893Y-60071D01*
X74875Y-60090D01*
X74856Y-60128D01*
X74856Y-60203D01*
X74875Y-60240D01*
X74893Y-60259D01*
X74931Y-60278D01*
X75006Y-60278D01*
X75043Y-60259D01*
X75062Y-60240D01*
X75081Y-60203D01*
X75081Y-60128D01*
X75062Y-60090D01*
X75043Y-60071D01*
X75006Y-60053D01*
X75250Y-60240D02*
X75268Y-60259D01*
X75250Y-60278D01*
X75231Y-60259D01*
X75250Y-60240D01*
X75250Y-60278D01*
X75250Y-60034D02*
X75268Y-60053D01*
X75250Y-60071D01*
X75231Y-60053D01*
X75250Y-60034D01*
X75250Y-60071D01*
X75512Y-59884D02*
X75549Y-59884D01*
X75587Y-59903D01*
X75606Y-59921D01*
X75624Y-59959D01*
X75643Y-60034D01*
X75643Y-60128D01*
X75624Y-60203D01*
X75606Y-60240D01*
X75587Y-60259D01*
X75549Y-60278D01*
X75512Y-60278D01*
X75474Y-60259D01*
X75456Y-60240D01*
X75437Y-60203D01*
X75418Y-60128D01*
X75418Y-60034D01*
X75437Y-59959D01*
X75456Y-59921D01*
X75474Y-59903D01*
X75512Y-59884D01*
X75831Y-60278D02*
X75906Y-60278D01*
X75943Y-60259D01*
X75962Y-60240D01*
X75999Y-60184D01*
X76018Y-60109D01*
X76018Y-59959D01*
X75999Y-59921D01*
X75981Y-59903D01*
X75943Y-59884D01*
X75868Y-59884D01*
X75831Y-59903D01*
X75812Y-59921D01*
X75793Y-59959D01*
X75793Y-60053D01*
X75812Y-60090D01*
X75831Y-60109D01*
X75868Y-60128D01*
X75943Y-60128D01*
X75981Y-60109D01*
X75999Y-60090D01*
X76018Y-60053D01*
X91018Y-50578D02*
X90999Y-50596D01*
X90962Y-50615D01*
X90868Y-50615D01*
X90831Y-50596D01*
X90812Y-50578D01*
X90793Y-50540D01*
X90793Y-50503D01*
X90812Y-50446D01*
X91037Y-50221D01*
X90793Y-50221D01*
X90549Y-50615D02*
X90512Y-50615D01*
X90474Y-50596D01*
X90456Y-50578D01*
X90437Y-50540D01*
X90418Y-50465D01*
X90418Y-50371D01*
X90437Y-50296D01*
X90456Y-50259D01*
X90474Y-50240D01*
X90512Y-50221D01*
X90549Y-50221D01*
X90587Y-50240D01*
X90606Y-50259D01*
X90624Y-50296D01*
X90643Y-50371D01*
X90643Y-50465D01*
X90624Y-50540D01*
X90606Y-50578D01*
X90587Y-50596D01*
X90549Y-50615D01*
X90250Y-50259D02*
X90231Y-50240D01*
X90250Y-50221D01*
X90268Y-50240D01*
X90250Y-50259D01*
X90250Y-50221D01*
X90250Y-50465D02*
X90231Y-50446D01*
X90250Y-50428D01*
X90268Y-50446D01*
X90250Y-50465D01*
X90250Y-50428D01*
X90081Y-50578D02*
X90062Y-50596D01*
X90025Y-50615D01*
X89931Y-50615D01*
X89893Y-50596D01*
X89875Y-50578D01*
X89856Y-50540D01*
X89856Y-50503D01*
X89875Y-50446D01*
X90100Y-50221D01*
X89856Y-50221D01*
X89481Y-50221D02*
X89706Y-50221D01*
X89593Y-50221D02*
X89593Y-50615D01*
X89631Y-50559D01*
X89668Y-50521D01*
X89706Y-50503D01*
X85706Y-60278D02*
X85481Y-60278D01*
X85593Y-60278D02*
X85593Y-59884D01*
X85556Y-59940D01*
X85518Y-59978D01*
X85481Y-59996D01*
X86043Y-60015D02*
X86043Y-60278D01*
X85950Y-59865D02*
X85856Y-60146D01*
X86100Y-60146D01*
X86250Y-60240D02*
X86268Y-60259D01*
X86250Y-60278D01*
X86231Y-60259D01*
X86250Y-60240D01*
X86250Y-60278D01*
X86250Y-60034D02*
X86268Y-60053D01*
X86250Y-60071D01*
X86231Y-60053D01*
X86250Y-60034D01*
X86250Y-60071D01*
X86643Y-60278D02*
X86418Y-60278D01*
X86531Y-60278D02*
X86531Y-59884D01*
X86493Y-59940D01*
X86456Y-59978D01*
X86418Y-59996D01*
X86999Y-59884D02*
X86812Y-59884D01*
X86793Y-60071D01*
X86812Y-60053D01*
X86849Y-60034D01*
X86943Y-60034D01*
X86981Y-60053D01*
X86999Y-60071D01*
X87018Y-60109D01*
X87018Y-60203D01*
X86999Y-60240D01*
X86981Y-60259D01*
X86943Y-60278D01*
X86849Y-60278D01*
X86812Y-60259D01*
X86793Y-60240D01*
X71328Y-57650D02*
X71328Y-57781D01*
X71121Y-57837D02*
X71121Y-57650D01*
X71515Y-57650D01*
X71515Y-57837D01*
X71515Y-57968D02*
X71121Y-58231D01*
X71515Y-58231D02*
X71121Y-57968D01*
X71515Y-58325D02*
X71515Y-58550D01*
X71121Y-58437D02*
X71515Y-58437D01*
X70990Y-58775D02*
X71553Y-58775D01*
X71515Y-59056D02*
X71196Y-59056D01*
X71159Y-59074D01*
X71140Y-59093D01*
X71121Y-59131D01*
X71121Y-59206D01*
X71140Y-59243D01*
X71159Y-59262D01*
X71196Y-59281D01*
X71515Y-59281D01*
X71140Y-59449D02*
X71121Y-59506D01*
X71121Y-59599D01*
X71140Y-59637D01*
X71159Y-59656D01*
X71196Y-59674D01*
X71234Y-59674D01*
X71271Y-59656D01*
X71290Y-59637D01*
X71309Y-59599D01*
X71328Y-59524D01*
X71346Y-59487D01*
X71365Y-59468D01*
X71403Y-59449D01*
X71440Y-59449D01*
X71478Y-59468D01*
X71496Y-59487D01*
X71515Y-59524D01*
X71515Y-59618D01*
X71496Y-59674D01*
X71328Y-59974D02*
X71309Y-60031D01*
X71290Y-60049D01*
X71253Y-60068D01*
X71196Y-60068D01*
X71159Y-60049D01*
X71140Y-60031D01*
X71121Y-59993D01*
X71121Y-59843D01*
X71515Y-59843D01*
X71515Y-59974D01*
X71496Y-60012D01*
X71478Y-60031D01*
X71440Y-60049D01*
X71403Y-60049D01*
X71365Y-60031D01*
X71346Y-60012D01*
X71328Y-59974D01*
X71328Y-59843D01*
X71471Y-50668D02*
X71490Y-50631D01*
X71490Y-50575D01*
X71471Y-50518D01*
X71434Y-50481D01*
X71396Y-50462D01*
X71321Y-50443D01*
X71265Y-50443D01*
X71190Y-50462D01*
X71153Y-50481D01*
X71115Y-50518D01*
X71096Y-50575D01*
X71096Y-50612D01*
X71115Y-50668D01*
X71134Y-50687D01*
X71265Y-50687D01*
X71265Y-50612D01*
X71096Y-50856D02*
X71490Y-50856D01*
X71096Y-51081D01*
X71490Y-51081D01*
X71096Y-51268D02*
X71490Y-51268D01*
X71490Y-51362D01*
X71471Y-51418D01*
X71434Y-51456D01*
X71396Y-51475D01*
X71321Y-51493D01*
X71265Y-51493D01*
X71190Y-51475D01*
X71153Y-51456D01*
X71115Y-51418D01*
X71096Y-51362D01*
X71096Y-51268D01*
X70965Y-51756D02*
X71528Y-51756D01*
X71490Y-51981D02*
X71096Y-52112D01*
X71490Y-52243D01*
X71096Y-52374D02*
X71490Y-52374D01*
X71096Y-52562D02*
X71490Y-52562D01*
X71096Y-52787D01*
X71490Y-52787D01*
X91481Y-59921D02*
X91500Y-59903D01*
X91537Y-59884D01*
X91631Y-59884D01*
X91668Y-59903D01*
X91687Y-59921D01*
X91706Y-59959D01*
X91706Y-59996D01*
X91687Y-60053D01*
X91462Y-60278D01*
X91706Y-60278D01*
X92043Y-60015D02*
X92043Y-60278D01*
X91950Y-59865D02*
X91856Y-60146D01*
X92100Y-60146D01*
X92250Y-60240D02*
X92268Y-60259D01*
X92250Y-60278D01*
X92231Y-60259D01*
X92250Y-60240D01*
X92250Y-60278D01*
X92250Y-60034D02*
X92268Y-60053D01*
X92250Y-60071D01*
X92231Y-60053D01*
X92250Y-60034D01*
X92250Y-60071D01*
X92418Y-59921D02*
X92437Y-59903D01*
X92474Y-59884D01*
X92568Y-59884D01*
X92606Y-59903D01*
X92624Y-59921D01*
X92643Y-59959D01*
X92643Y-59996D01*
X92624Y-60053D01*
X92399Y-60278D01*
X92643Y-60278D01*
X92999Y-59884D02*
X92812Y-59884D01*
X92793Y-60071D01*
X92812Y-60053D01*
X92849Y-60034D01*
X92943Y-60034D01*
X92981Y-60053D01*
X92999Y-60071D01*
X93018Y-60109D01*
X93018Y-60203D01*
X92999Y-60240D01*
X92981Y-60259D01*
X92943Y-60278D01*
X92849Y-60278D01*
X92812Y-60259D01*
X92793Y-60240D01*
X93018Y-50578D02*
X92999Y-50596D01*
X92962Y-50615D01*
X92868Y-50615D01*
X92831Y-50596D01*
X92812Y-50578D01*
X92793Y-50540D01*
X92793Y-50503D01*
X92812Y-50446D01*
X93037Y-50221D01*
X92793Y-50221D01*
X92456Y-50615D02*
X92531Y-50615D01*
X92568Y-50596D01*
X92587Y-50578D01*
X92624Y-50521D01*
X92643Y-50446D01*
X92643Y-50296D01*
X92624Y-50259D01*
X92606Y-50240D01*
X92568Y-50221D01*
X92493Y-50221D01*
X92456Y-50240D01*
X92437Y-50259D01*
X92418Y-50296D01*
X92418Y-50390D01*
X92437Y-50428D01*
X92456Y-50446D01*
X92493Y-50465D01*
X92568Y-50465D01*
X92606Y-50446D01*
X92624Y-50428D01*
X92643Y-50390D01*
X92250Y-50259D02*
X92231Y-50240D01*
X92250Y-50221D01*
X92268Y-50240D01*
X92250Y-50259D01*
X92250Y-50221D01*
X92250Y-50465D02*
X92231Y-50446D01*
X92250Y-50428D01*
X92268Y-50446D01*
X92250Y-50465D01*
X92250Y-50428D01*
X92081Y-50578D02*
X92062Y-50596D01*
X92025Y-50615D01*
X91931Y-50615D01*
X91893Y-50596D01*
X91875Y-50578D01*
X91856Y-50540D01*
X91856Y-50503D01*
X91875Y-50446D01*
X92100Y-50221D01*
X91856Y-50221D01*
X91725Y-50615D02*
X91462Y-50615D01*
X91631Y-50221D01*
X87018Y-50578D02*
X86999Y-50596D01*
X86962Y-50615D01*
X86868Y-50615D01*
X86831Y-50596D01*
X86812Y-50578D01*
X86793Y-50540D01*
X86793Y-50503D01*
X86812Y-50446D01*
X87037Y-50221D01*
X86793Y-50221D01*
X86568Y-50446D02*
X86606Y-50465D01*
X86624Y-50484D01*
X86643Y-50521D01*
X86643Y-50540D01*
X86624Y-50578D01*
X86606Y-50596D01*
X86568Y-50615D01*
X86493Y-50615D01*
X86456Y-50596D01*
X86437Y-50578D01*
X86418Y-50540D01*
X86418Y-50521D01*
X86437Y-50484D01*
X86456Y-50465D01*
X86493Y-50446D01*
X86568Y-50446D01*
X86606Y-50428D01*
X86624Y-50409D01*
X86643Y-50371D01*
X86643Y-50296D01*
X86624Y-50259D01*
X86606Y-50240D01*
X86568Y-50221D01*
X86493Y-50221D01*
X86456Y-50240D01*
X86437Y-50259D01*
X86418Y-50296D01*
X86418Y-50371D01*
X86437Y-50409D01*
X86456Y-50428D01*
X86493Y-50446D01*
X86250Y-50259D02*
X86231Y-50240D01*
X86250Y-50221D01*
X86268Y-50240D01*
X86250Y-50259D01*
X86250Y-50221D01*
X86250Y-50465D02*
X86231Y-50446D01*
X86250Y-50428D01*
X86268Y-50446D01*
X86250Y-50465D01*
X86250Y-50428D01*
X86081Y-50578D02*
X86062Y-50596D01*
X86025Y-50615D01*
X85931Y-50615D01*
X85893Y-50596D01*
X85875Y-50578D01*
X85856Y-50540D01*
X85856Y-50503D01*
X85875Y-50446D01*
X86100Y-50221D01*
X85856Y-50221D01*
X85668Y-50221D02*
X85593Y-50221D01*
X85556Y-50240D01*
X85537Y-50259D01*
X85500Y-50315D01*
X85481Y-50390D01*
X85481Y-50540D01*
X85500Y-50578D01*
X85518Y-50596D01*
X85556Y-50615D01*
X85631Y-50615D01*
X85668Y-50596D01*
X85687Y-50578D01*
X85706Y-50540D01*
X85706Y-50446D01*
X85687Y-50409D01*
X85668Y-50390D01*
X85631Y-50371D01*
X85556Y-50371D01*
X85518Y-50390D01*
X85500Y-50409D01*
X85481Y-50446D01*
X83668Y-60128D02*
X83968Y-60128D01*
X83818Y-60278D02*
X83818Y-59978D01*
X84250Y-60409D02*
X84250Y-59846D01*
X84531Y-60128D02*
X84831Y-60128D01*
X81668Y-50478D02*
X81968Y-50478D01*
X81818Y-50628D02*
X81818Y-50328D01*
X82250Y-50759D02*
X82250Y-50196D01*
X82531Y-50478D02*
X82831Y-50478D01*
X80924Y-50615D02*
X80887Y-50615D01*
X80849Y-50596D01*
X80831Y-50578D01*
X80812Y-50540D01*
X80793Y-50465D01*
X80793Y-50371D01*
X80812Y-50296D01*
X80831Y-50259D01*
X80849Y-50240D01*
X80887Y-50221D01*
X80924Y-50221D01*
X80962Y-50240D01*
X80981Y-50259D01*
X80999Y-50296D01*
X81018Y-50371D01*
X81018Y-50465D01*
X80999Y-50540D01*
X80981Y-50578D01*
X80962Y-50596D01*
X80924Y-50615D01*
X80549Y-50615D02*
X80512Y-50615D01*
X80474Y-50596D01*
X80456Y-50578D01*
X80437Y-50540D01*
X80418Y-50465D01*
X80418Y-50371D01*
X80437Y-50296D01*
X80456Y-50259D01*
X80474Y-50240D01*
X80512Y-50221D01*
X80549Y-50221D01*
X80587Y-50240D01*
X80606Y-50259D01*
X80624Y-50296D01*
X80643Y-50371D01*
X80643Y-50465D01*
X80624Y-50540D01*
X80606Y-50578D01*
X80587Y-50596D01*
X80549Y-50615D01*
X80250Y-50259D02*
X80231Y-50240D01*
X80250Y-50221D01*
X80268Y-50240D01*
X80250Y-50259D01*
X80250Y-50221D01*
X80250Y-50465D02*
X80231Y-50446D01*
X80250Y-50428D01*
X80268Y-50446D01*
X80250Y-50465D01*
X80250Y-50428D01*
X79987Y-50615D02*
X79950Y-50615D01*
X79912Y-50596D01*
X79893Y-50578D01*
X79875Y-50540D01*
X79856Y-50465D01*
X79856Y-50371D01*
X79875Y-50296D01*
X79893Y-50259D01*
X79912Y-50240D01*
X79950Y-50221D01*
X79987Y-50221D01*
X80025Y-50240D01*
X80043Y-50259D01*
X80062Y-50296D01*
X80081Y-50371D01*
X80081Y-50465D01*
X80062Y-50540D01*
X80043Y-50578D01*
X80025Y-50596D01*
X79987Y-50615D01*
X79481Y-50221D02*
X79706Y-50221D01*
X79593Y-50221D02*
X79593Y-50615D01*
X79631Y-50559D01*
X79668Y-50521D01*
X79706Y-50503D01*
X98221Y-53881D02*
X98240Y-53824D01*
X98259Y-53806D01*
X98296Y-53787D01*
X98353Y-53787D01*
X98390Y-53806D01*
X98409Y-53824D01*
X98428Y-53862D01*
X98428Y-54012D01*
X98034Y-54012D01*
X98034Y-53881D01*
X98053Y-53843D01*
X98071Y-53824D01*
X98109Y-53806D01*
X98146Y-53806D01*
X98184Y-53824D01*
X98203Y-53843D01*
X98221Y-53881D01*
X98221Y-54012D01*
X98034Y-53543D02*
X98034Y-53468D01*
X98053Y-53431D01*
X98090Y-53393D01*
X98165Y-53374D01*
X98296Y-53374D01*
X98371Y-53393D01*
X98409Y-53431D01*
X98428Y-53468D01*
X98428Y-53543D01*
X98409Y-53581D01*
X98371Y-53618D01*
X98296Y-53637D01*
X98165Y-53637D01*
X98090Y-53618D01*
X98053Y-53581D01*
X98034Y-53543D01*
X98034Y-53131D02*
X98034Y-53056D01*
X98053Y-53018D01*
X98090Y-52981D01*
X98165Y-52962D01*
X98296Y-52962D01*
X98371Y-52981D01*
X98409Y-53018D01*
X98428Y-53056D01*
X98428Y-53131D01*
X98409Y-53168D01*
X98371Y-53206D01*
X98296Y-53224D01*
X98165Y-53224D01*
X98090Y-53206D01*
X98053Y-53168D01*
X98034Y-53131D01*
X98034Y-52849D02*
X98034Y-52624D01*
X98428Y-52737D02*
X98034Y-52737D01*
X98015Y-52212D02*
X98521Y-52549D01*
X98428Y-51856D02*
X98240Y-51987D01*
X98428Y-52081D02*
X98034Y-52081D01*
X98034Y-51931D01*
X98053Y-51893D01*
X98071Y-51875D01*
X98109Y-51856D01*
X98165Y-51856D01*
X98203Y-51875D01*
X98221Y-51893D01*
X98240Y-51931D01*
X98240Y-52081D01*
X98221Y-51687D02*
X98221Y-51556D01*
X98428Y-51500D02*
X98428Y-51687D01*
X98034Y-51687D01*
X98034Y-51500D01*
X98409Y-51350D02*
X98428Y-51293D01*
X98428Y-51200D01*
X98409Y-51162D01*
X98390Y-51143D01*
X98353Y-51125D01*
X98315Y-51125D01*
X98278Y-51143D01*
X98259Y-51162D01*
X98240Y-51200D01*
X98221Y-51275D01*
X98203Y-51312D01*
X98184Y-51331D01*
X98146Y-51350D01*
X98109Y-51350D01*
X98071Y-51331D01*
X98053Y-51312D01*
X98034Y-51275D01*
X98034Y-51181D01*
X98053Y-51125D01*
X98221Y-50956D02*
X98221Y-50825D01*
X98428Y-50768D02*
X98428Y-50956D01*
X98034Y-50956D01*
X98034Y-50768D01*
X98034Y-50656D02*
X98034Y-50431D01*
X98428Y-50543D02*
X98034Y-50543D01*
G54D12*
X97800Y-50750D02*
X96300Y-50750D01*
X96300Y-53750D02*
X97800Y-53750D01*
X97550Y-53250D02*
X96550Y-53250D01*
X96550Y-53250D02*
X96550Y-51250D01*
X96550Y-51250D02*
X97550Y-51250D01*
X97550Y-51250D02*
X97550Y-53250D01*
G54D13*
X97800Y-50750D02*
X97800Y-53750D01*
X96300Y-50750D02*
X96300Y-53750D01*
G54D14*
X95670Y-51750D02*
X95670Y-50750D01*
X95663Y-50736D02*
G75*
G03X95050Y-50450I-613J-513D01*
G74*
G01*
X95049Y-50451D02*
G75*
G03X94345Y-50874I0J-799D01*
G74*
G01*
X95051Y-52048D02*
G75*
G03X95660Y-51766I-1J798D01*
G74*
G01*
X94355Y-51647D02*
G75*
G03X95050Y-52050I694J397D01*
G74*
G01*
X94345Y-50870D02*
G75*
G03X94250Y-51250I704J-379D01*
G74*
G01*
X94250Y-51250D02*
G75*
G03X94369Y-51669I799J0D01*
G74*
G01*
X95670Y-53750D02*
X95670Y-52750D01*
X95663Y-52736D02*
G75*
G03X95050Y-52450I-613J-513D01*
G74*
G01*
X95049Y-52451D02*
G75*
G03X94345Y-52874I0J-799D01*
G74*
G01*
X95051Y-54048D02*
G75*
G03X95660Y-53766I-1J798D01*
G74*
G01*
X94355Y-53647D02*
G75*
G03X95050Y-54050I694J397D01*
G74*
G01*
X94345Y-52870D02*
G75*
G03X94250Y-53250I704J-379D01*
G74*
G01*
X94250Y-53250D02*
G75*
G03X94369Y-53669I799J0D01*
G74*
G01*
G54D15*
X85230Y-57750D02*
X83250Y-57750D01*
X83250Y-57750D02*
X83250Y-56750D01*
X83250Y-56750D02*
X85250Y-56750D01*
X85250Y-56750D02*
X85250Y-57750D01*
X85250Y-57500D02*
X85000Y-57750D01*
X89270Y-56750D02*
X91250Y-56750D01*
X91250Y-56750D02*
X91250Y-57750D01*
X91250Y-57750D02*
X89250Y-57750D01*
X89250Y-57750D02*
X89250Y-56750D01*
X89250Y-57000D02*
X89500Y-56750D01*
X83230Y-53750D02*
X81250Y-53750D01*
X81250Y-53750D02*
X81250Y-52750D01*
X81250Y-52750D02*
X83250Y-52750D01*
X83250Y-52750D02*
X83250Y-53750D01*
X83250Y-53500D02*
X83000Y-53750D01*
X85270Y-55750D02*
X87250Y-55750D01*
X87250Y-55750D02*
X87250Y-56750D01*
X87250Y-56750D02*
X85250Y-56750D01*
X85250Y-56750D02*
X85250Y-55750D01*
X85250Y-56000D02*
X85500Y-55750D01*
X89230Y-56750D02*
X87250Y-56750D01*
X87250Y-56750D02*
X87250Y-55750D01*
X87250Y-55750D02*
X89250Y-55750D01*
X89250Y-55750D02*
X89250Y-56750D01*
X89250Y-56500D02*
X89000Y-56750D01*
G54D13*
X100450Y-59350D02*
X100450Y-54550D01*
X100450Y-54550D02*
X93750Y-54550D01*
X93750Y-54550D02*
X93750Y-59350D01*
X93750Y-59350D02*
X100450Y-59350D01*
G54D16*
X79800Y-53750D02*
X79600Y-53750D01*
X76800Y-53750D02*
X77000Y-53750D01*
X77000Y-53750D02*
X77000Y-54150D01*
X77000Y-54150D02*
X79600Y-54150D01*
X79600Y-54150D02*
X79600Y-53350D01*
X79600Y-53350D02*
X77000Y-53350D01*
X77000Y-53350D02*
X77000Y-53750D01*
X79600Y-53950D02*
X79400Y-54150D01*
X79800Y-54750D02*
X79600Y-54750D01*
X76800Y-54750D02*
X77000Y-54750D01*
X77000Y-54750D02*
X77000Y-55150D01*
X77000Y-55150D02*
X79600Y-55150D01*
X79600Y-55150D02*
X79600Y-54350D01*
X79600Y-54350D02*
X77000Y-54350D01*
X77000Y-54350D02*
X77000Y-54750D01*
X79600Y-54950D02*
X79400Y-55150D01*
X76800Y-55750D02*
X77000Y-55750D01*
X79800Y-55750D02*
X79600Y-55750D01*
X79600Y-55750D02*
X79600Y-55350D01*
X79600Y-55350D02*
X77000Y-55350D01*
X77000Y-55350D02*
X77000Y-56150D01*
X77000Y-56150D02*
X79600Y-56150D01*
X79600Y-56150D02*
X79600Y-55750D01*
X77000Y-55550D02*
X77200Y-55350D01*
X76800Y-56750D02*
X77000Y-56750D01*
X79800Y-56750D02*
X79600Y-56750D01*
X79600Y-56750D02*
X79600Y-56350D01*
X79600Y-56350D02*
X77000Y-56350D01*
X77000Y-56350D02*
X77000Y-57150D01*
X77000Y-57150D02*
X79600Y-57150D01*
X79600Y-57150D02*
X79600Y-56750D01*
X77000Y-56550D02*
X77200Y-56350D01*
G54D17*
X72750Y-54750D02*
X73250Y-54750D01*
X73250Y-54750D02*
X73250Y-55750D01*
X73250Y-55750D02*
X72750Y-55750D01*
X72750Y-52750D02*
X93750Y-52750D01*
X93750Y-52750D02*
X93750Y-57750D01*
X93750Y-57750D02*
X72750Y-57750D01*
X72750Y-57750D02*
X72750Y-52750D01*
G54D18*
X88500Y-53250D02*
X86000Y-53250D01*
X88500Y-55250D02*
X86000Y-55250D01*
X85000Y-54250D02*
G75*
G03X86000Y-55250I1000J0D01*
G74*
G01*
X86000Y-53250D02*
G75*
G03X85000Y-54250I0J-1000D01*
G74*
G01*
X88500Y-55250D02*
G75*
G03X89500Y-54250I0J1000D01*
G74*
G01*
X89500Y-54250D02*
G75*
G03X88500Y-53250I-1000J0D01*
G74*
G01*
G54D13*
X74751Y-56250D02*
G75*
G03X74751Y-56250I-1001J0D01*
G74*
G01*
G54D15*
X73250Y-55230D02*
X73250Y-53250D01*
X73250Y-53250D02*
X74250Y-53250D01*
X74250Y-53250D02*
X74250Y-55250D01*
X74250Y-55250D02*
X73250Y-55250D01*
X73500Y-55250D02*
X73250Y-55000D01*
G54D14*
X71750Y-58250D02*
X71750Y-60250D01*
X71750Y-60250D02*
X72750Y-60250D01*
X72750Y-60250D02*
X72750Y-58250D01*
X72750Y-57250D02*
X72750Y-58250D01*
X72750Y-58250D02*
X71750Y-58250D01*
X72750Y-57250D02*
X71750Y-57250D01*
X71750Y-57250D02*
X71750Y-58250D01*
X71750Y-51750D02*
X72750Y-51750D01*
X71750Y-52750D02*
X72750Y-52750D01*
X72750Y-52750D02*
X72750Y-51750D01*
X72750Y-51750D02*
X72750Y-50750D01*
X72750Y-50750D02*
X71750Y-50750D01*
X71750Y-50750D02*
X71750Y-52750D01*
X71000Y-57000D02*
X70750Y-57000D01*
X70750Y-57000D02*
X70750Y-53500D01*
X70750Y-53500D02*
X71000Y-53500D01*
X72500Y-57000D02*
X71000Y-57000D01*
X71000Y-57000D02*
X71000Y-53500D01*
X71000Y-53500D02*
X72500Y-53500D01*
X72500Y-53500D02*
X72500Y-57000D01*
G54D19*
X96235Y-51471D02*
X95935Y-51471D01*
X95935Y-51400D01*
X95950Y-51357D01*
X95978Y-51328D01*
X96007Y-51314D01*
X96064Y-51300D01*
X96107Y-51300D01*
X96164Y-51314D01*
X96192Y-51328D01*
X96221Y-51357D01*
X96235Y-51400D01*
X96235Y-51471D01*
X96235Y-51014D02*
X96235Y-51185D01*
X96235Y-51100D02*
X95935Y-51100D01*
X95978Y-51128D01*
X96007Y-51157D01*
X96021Y-51185D01*
X96235Y-53471D02*
X95935Y-53471D01*
X95935Y-53400D01*
X95950Y-53357D01*
X95978Y-53328D01*
X96007Y-53314D01*
X96064Y-53300D01*
X96107Y-53300D01*
X96164Y-53314D01*
X96192Y-53328D01*
X96221Y-53357D01*
X96235Y-53400D01*
X96235Y-53471D01*
X95964Y-53185D02*
X95950Y-53171D01*
X95935Y-53142D01*
X95935Y-53071D01*
X95950Y-53042D01*
X95964Y-53028D01*
X95992Y-53014D01*
X96021Y-53014D01*
X96064Y-53028D01*
X96235Y-53200D01*
X96235Y-53014D01*
G54D16*
X85892Y-57316D02*
X85911Y-57335D01*
X85930Y-57392D01*
X85930Y-57430D01*
X85911Y-57488D01*
X85873Y-57526D01*
X85835Y-57545D01*
X85759Y-57564D01*
X85702Y-57564D01*
X85626Y-57545D01*
X85588Y-57526D01*
X85550Y-57488D01*
X85530Y-57430D01*
X85530Y-57392D01*
X85550Y-57335D01*
X85569Y-57316D01*
X85930Y-56935D02*
X85930Y-57164D01*
X85930Y-57049D02*
X85530Y-57049D01*
X85588Y-57088D01*
X85626Y-57126D01*
X85645Y-57164D01*
X88942Y-57316D02*
X88961Y-57335D01*
X88980Y-57392D01*
X88980Y-57430D01*
X88961Y-57488D01*
X88923Y-57526D01*
X88885Y-57545D01*
X88809Y-57564D01*
X88752Y-57564D01*
X88676Y-57545D01*
X88638Y-57526D01*
X88600Y-57488D01*
X88580Y-57430D01*
X88580Y-57392D01*
X88600Y-57335D01*
X88619Y-57316D01*
X88619Y-57164D02*
X88600Y-57145D01*
X88580Y-57107D01*
X88580Y-57011D01*
X88600Y-56973D01*
X88619Y-56954D01*
X88657Y-56935D01*
X88695Y-56935D01*
X88752Y-56954D01*
X88980Y-57183D01*
X88980Y-56935D01*
X80892Y-53316D02*
X80911Y-53335D01*
X80930Y-53392D01*
X80930Y-53430D01*
X80911Y-53488D01*
X80873Y-53526D01*
X80835Y-53545D01*
X80759Y-53564D01*
X80702Y-53564D01*
X80626Y-53545D01*
X80588Y-53526D01*
X80550Y-53488D01*
X80530Y-53430D01*
X80530Y-53392D01*
X80550Y-53335D01*
X80569Y-53316D01*
X80530Y-52954D02*
X80530Y-53145D01*
X80721Y-53164D01*
X80702Y-53145D01*
X80683Y-53107D01*
X80683Y-53011D01*
X80702Y-52973D01*
X80721Y-52954D01*
X80759Y-52935D01*
X80854Y-52935D01*
X80892Y-52954D01*
X80911Y-52973D01*
X80930Y-53011D01*
X80930Y-53107D01*
X80911Y-53145D01*
X80892Y-53164D01*
X84892Y-56316D02*
X84911Y-56335D01*
X84930Y-56392D01*
X84930Y-56430D01*
X84911Y-56488D01*
X84873Y-56526D01*
X84835Y-56545D01*
X84759Y-56564D01*
X84702Y-56564D01*
X84626Y-56545D01*
X84588Y-56526D01*
X84550Y-56488D01*
X84530Y-56430D01*
X84530Y-56392D01*
X84550Y-56335D01*
X84569Y-56316D01*
X84530Y-55973D02*
X84530Y-56049D01*
X84550Y-56088D01*
X84569Y-56107D01*
X84626Y-56145D01*
X84702Y-56164D01*
X84854Y-56164D01*
X84892Y-56145D01*
X84911Y-56126D01*
X84930Y-56088D01*
X84930Y-56011D01*
X84911Y-55973D01*
X84892Y-55954D01*
X84854Y-55935D01*
X84759Y-55935D01*
X84721Y-55954D01*
X84702Y-55973D01*
X84683Y-56011D01*
X84683Y-56088D01*
X84702Y-56126D01*
X84721Y-56145D01*
X84759Y-56164D01*
X89892Y-56316D02*
X89911Y-56335D01*
X89930Y-56392D01*
X89930Y-56430D01*
X89911Y-56488D01*
X89873Y-56526D01*
X89835Y-56545D01*
X89759Y-56564D01*
X89702Y-56564D01*
X89626Y-56545D01*
X89588Y-56526D01*
X89550Y-56488D01*
X89530Y-56430D01*
X89530Y-56392D01*
X89550Y-56335D01*
X89569Y-56316D01*
X89530Y-56183D02*
X89530Y-55916D01*
X89930Y-56088D01*
G54D15*
X96071Y-57707D02*
X96557Y-57707D01*
X96614Y-57678D01*
X96642Y-57650D01*
X96671Y-57592D01*
X96671Y-57478D01*
X96642Y-57421D01*
X96614Y-57392D01*
X96557Y-57364D01*
X96071Y-57364D01*
X96642Y-57107D02*
X96671Y-57021D01*
X96671Y-56878D01*
X96642Y-56821D01*
X96614Y-56792D01*
X96557Y-56764D01*
X96500Y-56764D01*
X96442Y-56792D01*
X96414Y-56821D01*
X96385Y-56878D01*
X96357Y-56992D01*
X96328Y-57050D01*
X96300Y-57078D01*
X96242Y-57107D01*
X96185Y-57107D01*
X96128Y-57078D01*
X96100Y-57050D01*
X96071Y-56992D01*
X96071Y-56850D01*
X96100Y-56764D01*
X96357Y-56307D02*
X96385Y-56221D01*
X96414Y-56192D01*
X96471Y-56164D01*
X96557Y-56164D01*
X96614Y-56192D01*
X96642Y-56221D01*
X96671Y-56278D01*
X96671Y-56507D01*
X96071Y-56507D01*
X96071Y-56307D01*
X96100Y-56250D01*
X96128Y-56221D01*
X96185Y-56192D01*
X96242Y-56192D01*
X96300Y-56221D01*
X96328Y-56250D01*
X96357Y-56307D01*
X96357Y-56507D01*
G54D16*
X77669Y-53582D02*
X77669Y-53948D01*
X77550Y-53372D02*
X77430Y-53765D01*
X77740Y-53765D01*
X77883Y-53398D02*
X78216Y-53398D01*
X78002Y-53948D01*
X78502Y-53398D02*
X78550Y-53398D01*
X78597Y-53425D01*
X78621Y-53451D01*
X78645Y-53503D01*
X78669Y-53608D01*
X78669Y-53739D01*
X78645Y-53844D01*
X78621Y-53896D01*
X78597Y-53922D01*
X78550Y-53948D01*
X78502Y-53948D01*
X78454Y-53922D01*
X78430Y-53896D01*
X78407Y-53844D01*
X78383Y-53739D01*
X78383Y-53608D01*
X78407Y-53503D01*
X78430Y-53451D01*
X78454Y-53425D01*
X78502Y-53398D01*
X79169Y-53948D02*
X79002Y-53686D01*
X78883Y-53948D02*
X78883Y-53398D01*
X79073Y-53398D01*
X79121Y-53425D01*
X79145Y-53451D01*
X79169Y-53503D01*
X79169Y-53582D01*
X79145Y-53634D01*
X79121Y-53660D01*
X79073Y-53686D01*
X78883Y-53686D01*
X77669Y-54582D02*
X77669Y-54948D01*
X77550Y-54372D02*
X77430Y-54765D01*
X77740Y-54765D01*
X77883Y-54398D02*
X78216Y-54398D01*
X78002Y-54948D01*
X78502Y-54398D02*
X78550Y-54398D01*
X78597Y-54425D01*
X78621Y-54451D01*
X78645Y-54503D01*
X78669Y-54608D01*
X78669Y-54739D01*
X78645Y-54844D01*
X78621Y-54896D01*
X78597Y-54922D01*
X78550Y-54948D01*
X78502Y-54948D01*
X78454Y-54922D01*
X78430Y-54896D01*
X78407Y-54844D01*
X78383Y-54739D01*
X78383Y-54608D01*
X78407Y-54503D01*
X78430Y-54451D01*
X78454Y-54425D01*
X78502Y-54398D01*
X79169Y-54948D02*
X79002Y-54686D01*
X78883Y-54948D02*
X78883Y-54398D01*
X79073Y-54398D01*
X79121Y-54425D01*
X79145Y-54451D01*
X79169Y-54503D01*
X79169Y-54582D01*
X79145Y-54634D01*
X79121Y-54660D01*
X79073Y-54686D01*
X78883Y-54686D01*
X77954Y-55948D02*
X77669Y-55948D01*
X77811Y-55948D02*
X77811Y-55398D01*
X77764Y-55477D01*
X77716Y-55529D01*
X77669Y-55555D01*
X78264Y-55398D02*
X78311Y-55398D01*
X78359Y-55425D01*
X78383Y-55451D01*
X78407Y-55503D01*
X78430Y-55608D01*
X78430Y-55739D01*
X78407Y-55844D01*
X78383Y-55896D01*
X78359Y-55922D01*
X78311Y-55948D01*
X78264Y-55948D01*
X78216Y-55922D01*
X78192Y-55896D01*
X78169Y-55844D01*
X78145Y-55739D01*
X78145Y-55608D01*
X78169Y-55503D01*
X78192Y-55451D01*
X78216Y-55425D01*
X78264Y-55398D01*
X78645Y-55948D02*
X78645Y-55398D01*
X78930Y-55948D02*
X78716Y-55634D01*
X78930Y-55398D02*
X78645Y-55713D01*
X77669Y-56572D02*
X77669Y-56938D01*
X77550Y-56362D02*
X77430Y-56755D01*
X77740Y-56755D01*
X77883Y-56388D02*
X78216Y-56388D01*
X78002Y-56938D01*
X78502Y-56388D02*
X78550Y-56388D01*
X78597Y-56415D01*
X78621Y-56441D01*
X78645Y-56493D01*
X78669Y-56598D01*
X78669Y-56729D01*
X78645Y-56834D01*
X78621Y-56886D01*
X78597Y-56912D01*
X78550Y-56938D01*
X78502Y-56938D01*
X78454Y-56912D01*
X78430Y-56886D01*
X78407Y-56834D01*
X78383Y-56729D01*
X78383Y-56598D01*
X78407Y-56493D01*
X78430Y-56441D01*
X78454Y-56415D01*
X78502Y-56388D01*
X79169Y-56938D02*
X79002Y-56676D01*
X78883Y-56938D02*
X78883Y-56388D01*
X79073Y-56388D01*
X79121Y-56415D01*
X79145Y-56441D01*
X79169Y-56493D01*
X79169Y-56572D01*
X79145Y-56624D01*
X79121Y-56650D01*
X79073Y-56676D01*
X78883Y-56676D01*
G54D15*
X76066Y-57064D02*
X76066Y-57407D01*
X76066Y-57235D02*
X75366Y-57235D01*
X75466Y-57292D01*
X75533Y-57350D01*
X75566Y-57407D01*
X75666Y-56721D02*
X75633Y-56778D01*
X75600Y-56807D01*
X75533Y-56835D01*
X75500Y-56835D01*
X75433Y-56807D01*
X75400Y-56778D01*
X75366Y-56721D01*
X75366Y-56607D01*
X75400Y-56550D01*
X75433Y-56521D01*
X75500Y-56492D01*
X75533Y-56492D01*
X75600Y-56521D01*
X75633Y-56550D01*
X75666Y-56607D01*
X75666Y-56721D01*
X75700Y-56778D01*
X75733Y-56807D01*
X75800Y-56835D01*
X75933Y-56835D01*
X76000Y-56807D01*
X76033Y-56778D01*
X76066Y-56721D01*
X76066Y-56607D01*
X76033Y-56550D01*
X76000Y-56521D01*
X75933Y-56492D01*
X75800Y-56492D01*
X75733Y-56521D01*
X75700Y-56550D01*
X75666Y-56607D01*
X75700Y-56035D02*
X75700Y-56235D01*
X76066Y-56235D02*
X75366Y-56235D01*
X75366Y-55950D01*
X75600Y-55464D02*
X76066Y-55464D01*
X75333Y-55607D02*
X75833Y-55750D01*
X75833Y-55378D01*
X75366Y-54864D02*
X75366Y-55150D01*
X75700Y-55178D01*
X75666Y-55150D01*
X75633Y-55092D01*
X75633Y-54950D01*
X75666Y-54892D01*
X75700Y-54864D01*
X75766Y-54835D01*
X75933Y-54835D01*
X76000Y-54864D01*
X76033Y-54892D01*
X76066Y-54950D01*
X76066Y-55092D01*
X76033Y-55150D01*
X76000Y-55178D01*
X76066Y-54578D02*
X75366Y-54578D01*
X76066Y-54235D02*
X75666Y-54492D01*
X75366Y-54235D02*
X75766Y-54578D01*
X75366Y-53692D02*
X75366Y-53978D01*
X75700Y-54007D01*
X75666Y-53978D01*
X75633Y-53921D01*
X75633Y-53778D01*
X75666Y-53721D01*
X75700Y-53692D01*
X75766Y-53664D01*
X75933Y-53664D01*
X76000Y-53692D01*
X76033Y-53721D01*
X76066Y-53778D01*
X76066Y-53921D01*
X76033Y-53978D01*
X76000Y-54007D01*
X75366Y-53292D02*
X75366Y-53235D01*
X75400Y-53178D01*
X75433Y-53149D01*
X75500Y-53121D01*
X75633Y-53092D01*
X75800Y-53092D01*
X75933Y-53121D01*
X76000Y-53149D01*
X76033Y-53178D01*
X76066Y-53235D01*
X76066Y-53292D01*
X76033Y-53349D01*
X76000Y-53378D01*
X75933Y-53407D01*
X75800Y-53435D01*
X75633Y-53435D01*
X75500Y-53407D01*
X75433Y-53378D01*
X75400Y-53349D01*
X75366Y-53292D01*
X89871Y-55464D02*
X90471Y-55064D01*
X89871Y-55064D02*
X90471Y-55464D01*
X90442Y-54864D02*
X90471Y-54778D01*
X90471Y-54635D01*
X90442Y-54578D01*
X90414Y-54550D01*
X90357Y-54521D01*
X90300Y-54521D01*
X90242Y-54550D01*
X90214Y-54578D01*
X90185Y-54635D01*
X90157Y-54750D01*
X90128Y-54807D01*
X90100Y-54835D01*
X90042Y-54864D01*
X89985Y-54864D01*
X89928Y-54835D01*
X89900Y-54807D01*
X89871Y-54750D01*
X89871Y-54607D01*
X89900Y-54521D01*
X89871Y-54349D02*
X89871Y-54007D01*
X90471Y-54178D02*
X89871Y-54178D01*
X90300Y-53835D02*
X90300Y-53549D01*
X90471Y-53892D02*
X89871Y-53692D01*
X90471Y-53492D01*
X90471Y-53007D02*
X90471Y-53292D01*
X89871Y-53292D01*
G54D16*
X74642Y-56316D02*
X74661Y-56335D01*
X74680Y-56392D01*
X74680Y-56430D01*
X74661Y-56488D01*
X74623Y-56526D01*
X74585Y-56545D01*
X74509Y-56564D01*
X74452Y-56564D01*
X74376Y-56545D01*
X74338Y-56526D01*
X74300Y-56488D01*
X74280Y-56430D01*
X74280Y-56392D01*
X74300Y-56335D01*
X74319Y-56316D01*
X74280Y-56183D02*
X74280Y-55935D01*
X74433Y-56069D01*
X74433Y-56011D01*
X74452Y-55973D01*
X74471Y-55954D01*
X74509Y-55935D01*
X74604Y-55935D01*
X74642Y-55954D01*
X74661Y-55973D01*
X74680Y-56011D01*
X74680Y-56126D01*
X74661Y-56164D01*
X74642Y-56183D01*
G54D20*
X74421Y-56864D02*
X74421Y-56635D01*
X74535Y-56750D02*
X74307Y-56750D01*
G54D16*
X74742Y-54316D02*
X74761Y-54335D01*
X74780Y-54392D01*
X74780Y-54430D01*
X74761Y-54488D01*
X74723Y-54526D01*
X74685Y-54545D01*
X74609Y-54564D01*
X74552Y-54564D01*
X74476Y-54545D01*
X74438Y-54526D01*
X74400Y-54488D01*
X74380Y-54430D01*
X74380Y-54392D01*
X74400Y-54335D01*
X74419Y-54316D01*
X74514Y-53973D02*
X74780Y-53973D01*
X74361Y-54069D02*
X74647Y-54164D01*
X74647Y-53916D01*
X71895Y-52821D02*
X71895Y-53307D01*
X71914Y-53364D01*
X71933Y-53392D01*
X71971Y-53421D01*
X72047Y-53421D01*
X72085Y-53392D01*
X72104Y-53364D01*
X72123Y-53307D01*
X72123Y-52821D01*
X72523Y-53421D02*
X72295Y-53421D01*
X72409Y-53421D02*
X72409Y-52821D01*
X72371Y-52907D01*
X72333Y-52964D01*
X72295Y-52992D01*
M02*
