%FSLAX34Y34*%
G04 Gerber Fmt 3.4, Leading zero omitted, Abs format*
G04 (created by PCBNEW (2014-04-11 BZR 4798)-product) date mar. 20 mai 2014 10:15:50 CEST*
%MOIN*%
G01*
G70*
G90*
G04 APERTURE LIST*
%ADD10C,0.003937*%
%ADD11C,0.007874*%
%ADD12C,0.009843*%
%ADD13C,0.015000*%
G04 APERTURE END LIST*
G54D10*
G54D11*
X82752Y-57525D02*
X82737Y-57487D01*
X82737Y-57412D01*
X82752Y-57375D01*
X82782Y-57356D01*
X82797Y-57356D01*
X82827Y-57375D01*
X82842Y-57412D01*
X82842Y-57468D01*
X82857Y-57506D01*
X82887Y-57525D01*
X82902Y-57525D01*
X82932Y-57506D01*
X82947Y-57468D01*
X82947Y-57412D01*
X82932Y-57375D01*
X82947Y-57187D02*
X82632Y-57187D01*
X82932Y-57187D02*
X82947Y-57150D01*
X82947Y-57075D01*
X82932Y-57037D01*
X82917Y-57018D01*
X82887Y-57000D01*
X82797Y-57000D01*
X82767Y-57018D01*
X82752Y-57037D01*
X82737Y-57075D01*
X82737Y-57150D01*
X82752Y-57187D01*
X82737Y-56831D02*
X82947Y-56831D01*
X83052Y-56831D02*
X83037Y-56850D01*
X83022Y-56831D01*
X83037Y-56812D01*
X83052Y-56831D01*
X83022Y-56831D01*
X82902Y-56643D02*
X82902Y-56343D01*
X82812Y-56343D02*
X82812Y-56643D01*
X82947Y-55856D02*
X82857Y-56156D01*
X82767Y-55856D01*
X83052Y-55594D02*
X83052Y-55556D01*
X83037Y-55519D01*
X83022Y-55500D01*
X82992Y-55481D01*
X82932Y-55462D01*
X82857Y-55462D01*
X82797Y-55481D01*
X82767Y-55500D01*
X82752Y-55519D01*
X82737Y-55556D01*
X82737Y-55594D01*
X82752Y-55631D01*
X82767Y-55650D01*
X82797Y-55668D01*
X82857Y-55687D01*
X82932Y-55687D01*
X82992Y-55668D01*
X83022Y-55650D01*
X83037Y-55631D01*
X83052Y-55594D01*
X82767Y-55294D02*
X82752Y-55275D01*
X82737Y-55294D01*
X82752Y-55312D01*
X82767Y-55294D01*
X82737Y-55294D01*
X82932Y-55294D02*
X82917Y-55275D01*
X82902Y-55294D01*
X82917Y-55312D01*
X82932Y-55294D01*
X82902Y-55294D01*
X82737Y-54900D02*
X82737Y-55125D01*
X82737Y-55012D02*
X83052Y-55012D01*
X83007Y-55050D01*
X82977Y-55087D01*
X82962Y-55125D01*
X82767Y-54731D02*
X82752Y-54712D01*
X82737Y-54731D01*
X82752Y-54750D01*
X82767Y-54731D01*
X82737Y-54731D01*
X82932Y-54731D02*
X82917Y-54712D01*
X82902Y-54731D01*
X82917Y-54750D01*
X82932Y-54731D01*
X82902Y-54731D01*
X83052Y-54581D02*
X83052Y-54337D01*
X82932Y-54469D01*
X82932Y-54412D01*
X82917Y-54375D01*
X82902Y-54356D01*
X82872Y-54337D01*
X82797Y-54337D01*
X82767Y-54356D01*
X82752Y-54375D01*
X82737Y-54412D01*
X82737Y-54525D01*
X82752Y-54562D01*
X82767Y-54581D01*
X82947Y-54169D02*
X82857Y-53869D01*
X82767Y-54169D01*
X82217Y-57506D02*
X82427Y-57506D01*
X82532Y-57506D02*
X82517Y-57525D01*
X82502Y-57506D01*
X82517Y-57487D01*
X82532Y-57506D01*
X82502Y-57506D01*
X82502Y-57337D02*
X82517Y-57318D01*
X82532Y-57281D01*
X82532Y-57187D01*
X82517Y-57150D01*
X82502Y-57131D01*
X82472Y-57112D01*
X82442Y-57112D01*
X82397Y-57131D01*
X82217Y-57356D01*
X82217Y-57112D01*
X82232Y-56775D02*
X82217Y-56812D01*
X82217Y-56887D01*
X82232Y-56925D01*
X82247Y-56943D01*
X82277Y-56962D01*
X82367Y-56962D01*
X82397Y-56943D01*
X82412Y-56925D01*
X82427Y-56887D01*
X82427Y-56812D01*
X82412Y-56775D01*
X82382Y-56606D02*
X82382Y-56306D01*
X82292Y-56306D02*
X82292Y-56606D01*
X82427Y-55818D02*
X82337Y-56118D01*
X82247Y-55818D01*
X82532Y-55556D02*
X82532Y-55519D01*
X82517Y-55481D01*
X82502Y-55462D01*
X82472Y-55444D01*
X82412Y-55425D01*
X82337Y-55425D01*
X82277Y-55444D01*
X82247Y-55462D01*
X82232Y-55481D01*
X82217Y-55519D01*
X82217Y-55556D01*
X82232Y-55594D01*
X82247Y-55612D01*
X82277Y-55631D01*
X82337Y-55650D01*
X82412Y-55650D01*
X82472Y-55631D01*
X82502Y-55612D01*
X82517Y-55594D01*
X82532Y-55556D01*
X82247Y-55256D02*
X82232Y-55237D01*
X82217Y-55256D01*
X82232Y-55275D01*
X82247Y-55256D01*
X82217Y-55256D01*
X82412Y-55256D02*
X82397Y-55237D01*
X82382Y-55256D01*
X82397Y-55275D01*
X82412Y-55256D01*
X82382Y-55256D01*
X82217Y-54862D02*
X82217Y-55087D01*
X82217Y-54975D02*
X82532Y-54975D01*
X82487Y-55012D01*
X82457Y-55050D01*
X82442Y-55087D01*
X82427Y-54694D02*
X82337Y-54394D01*
X82247Y-54694D01*
X81907Y-57337D02*
X81697Y-57337D01*
X81907Y-57506D02*
X81742Y-57506D01*
X81712Y-57487D01*
X81697Y-57450D01*
X81697Y-57393D01*
X81712Y-57356D01*
X81727Y-57337D01*
X81712Y-57168D02*
X81697Y-57131D01*
X81697Y-57056D01*
X81712Y-57018D01*
X81742Y-57000D01*
X81757Y-57000D01*
X81787Y-57018D01*
X81802Y-57056D01*
X81802Y-57112D01*
X81817Y-57150D01*
X81847Y-57168D01*
X81862Y-57168D01*
X81892Y-57150D01*
X81907Y-57112D01*
X81907Y-57056D01*
X81892Y-57018D01*
X81697Y-56831D02*
X82012Y-56831D01*
X81892Y-56831D02*
X81907Y-56793D01*
X81907Y-56718D01*
X81892Y-56681D01*
X81877Y-56662D01*
X81847Y-56643D01*
X81757Y-56643D01*
X81727Y-56662D01*
X81712Y-56681D01*
X81697Y-56718D01*
X81697Y-56793D01*
X81712Y-56831D01*
X81862Y-56475D02*
X81862Y-56175D01*
X81772Y-56175D02*
X81772Y-56475D01*
X81907Y-55687D02*
X81817Y-55987D01*
X81727Y-55687D01*
X81982Y-55519D02*
X81997Y-55500D01*
X82012Y-55462D01*
X82012Y-55369D01*
X81997Y-55331D01*
X81982Y-55312D01*
X81952Y-55294D01*
X81922Y-55294D01*
X81877Y-55312D01*
X81697Y-55537D01*
X81697Y-55294D01*
X82012Y-55050D02*
X82012Y-55012D01*
X81997Y-54975D01*
X81982Y-54956D01*
X81952Y-54937D01*
X81892Y-54919D01*
X81817Y-54919D01*
X81757Y-54937D01*
X81727Y-54956D01*
X81712Y-54975D01*
X81697Y-55012D01*
X81697Y-55050D01*
X81712Y-55087D01*
X81727Y-55106D01*
X81757Y-55125D01*
X81817Y-55144D01*
X81892Y-55144D01*
X81952Y-55125D01*
X81982Y-55106D01*
X81997Y-55087D01*
X82012Y-55050D01*
X81727Y-54750D02*
X81712Y-54731D01*
X81697Y-54750D01*
X81712Y-54769D01*
X81727Y-54750D01*
X81697Y-54750D01*
X81892Y-54750D02*
X81877Y-54731D01*
X81862Y-54750D01*
X81877Y-54769D01*
X81892Y-54750D01*
X81862Y-54750D01*
X81982Y-54581D02*
X81997Y-54562D01*
X82012Y-54525D01*
X82012Y-54431D01*
X81997Y-54394D01*
X81982Y-54375D01*
X81952Y-54356D01*
X81922Y-54356D01*
X81877Y-54375D01*
X81697Y-54600D01*
X81697Y-54356D01*
X81697Y-53981D02*
X81697Y-54206D01*
X81697Y-54094D02*
X82012Y-54094D01*
X81967Y-54131D01*
X81937Y-54169D01*
X81922Y-54206D01*
X81907Y-53812D02*
X81817Y-53513D01*
X81727Y-53812D01*
X81192Y-57525D02*
X81177Y-57487D01*
X81177Y-57412D01*
X81192Y-57375D01*
X81222Y-57356D01*
X81237Y-57356D01*
X81267Y-57375D01*
X81282Y-57412D01*
X81282Y-57468D01*
X81297Y-57506D01*
X81327Y-57525D01*
X81342Y-57525D01*
X81372Y-57506D01*
X81387Y-57468D01*
X81387Y-57412D01*
X81372Y-57375D01*
X81192Y-57037D02*
X81177Y-57075D01*
X81177Y-57150D01*
X81192Y-57187D01*
X81222Y-57206D01*
X81342Y-57206D01*
X81372Y-57187D01*
X81387Y-57150D01*
X81387Y-57075D01*
X81372Y-57037D01*
X81342Y-57018D01*
X81312Y-57018D01*
X81282Y-57206D01*
X81177Y-56850D02*
X81387Y-56850D01*
X81327Y-56850D02*
X81357Y-56831D01*
X81372Y-56812D01*
X81387Y-56775D01*
X81387Y-56737D01*
X81342Y-56606D02*
X81342Y-56306D01*
X81252Y-56306D02*
X81252Y-56606D01*
X81387Y-55818D02*
X81297Y-56118D01*
X81207Y-55818D01*
X81462Y-55650D02*
X81477Y-55631D01*
X81492Y-55594D01*
X81492Y-55500D01*
X81477Y-55462D01*
X81462Y-55444D01*
X81432Y-55425D01*
X81402Y-55425D01*
X81357Y-55444D01*
X81177Y-55668D01*
X81177Y-55425D01*
X81462Y-55275D02*
X81477Y-55256D01*
X81492Y-55219D01*
X81492Y-55125D01*
X81477Y-55087D01*
X81462Y-55069D01*
X81432Y-55050D01*
X81402Y-55050D01*
X81357Y-55069D01*
X81177Y-55294D01*
X81177Y-55050D01*
X81207Y-54881D02*
X81192Y-54862D01*
X81177Y-54881D01*
X81192Y-54900D01*
X81207Y-54881D01*
X81177Y-54881D01*
X81372Y-54881D02*
X81357Y-54862D01*
X81342Y-54881D01*
X81357Y-54900D01*
X81372Y-54881D01*
X81342Y-54881D01*
X81462Y-54712D02*
X81477Y-54694D01*
X81492Y-54656D01*
X81492Y-54562D01*
X81477Y-54525D01*
X81462Y-54506D01*
X81432Y-54487D01*
X81402Y-54487D01*
X81357Y-54506D01*
X81177Y-54731D01*
X81177Y-54487D01*
X81492Y-54356D02*
X81492Y-54112D01*
X81372Y-54244D01*
X81372Y-54187D01*
X81357Y-54150D01*
X81342Y-54131D01*
X81312Y-54112D01*
X81237Y-54112D01*
X81207Y-54131D01*
X81192Y-54150D01*
X81177Y-54187D01*
X81177Y-54300D01*
X81192Y-54337D01*
X81207Y-54356D01*
X81387Y-53944D02*
X81297Y-53644D01*
X81207Y-53944D01*
G54D12*
X91059Y-60278D02*
X91059Y-59884D01*
X90834Y-60278D01*
X90834Y-59884D01*
X90421Y-60240D02*
X90440Y-60259D01*
X90496Y-60278D01*
X90534Y-60278D01*
X90590Y-60259D01*
X90628Y-60221D01*
X90646Y-60184D01*
X90665Y-60109D01*
X90665Y-60053D01*
X90646Y-59978D01*
X90628Y-59940D01*
X90590Y-59903D01*
X90534Y-59884D01*
X90496Y-59884D01*
X90440Y-59903D01*
X90421Y-59921D01*
X73643Y-50271D02*
X73643Y-50665D01*
X73793Y-50665D01*
X73831Y-50646D01*
X73850Y-50628D01*
X73868Y-50590D01*
X73868Y-50534D01*
X73850Y-50496D01*
X73831Y-50478D01*
X73793Y-50459D01*
X73643Y-50459D01*
X74243Y-50646D02*
X74206Y-50665D01*
X74150Y-50665D01*
X74093Y-50646D01*
X74056Y-50609D01*
X74037Y-50571D01*
X74018Y-50496D01*
X74018Y-50440D01*
X74037Y-50365D01*
X74056Y-50328D01*
X74093Y-50290D01*
X74150Y-50271D01*
X74187Y-50271D01*
X74243Y-50290D01*
X74262Y-50309D01*
X74262Y-50440D01*
X74187Y-50440D01*
X74431Y-50271D02*
X74431Y-50665D01*
X74525Y-50665D01*
X74581Y-50646D01*
X74618Y-50609D01*
X74637Y-50571D01*
X74656Y-50496D01*
X74656Y-50440D01*
X74637Y-50365D01*
X74618Y-50328D01*
X74581Y-50290D01*
X74525Y-50271D01*
X74431Y-50271D01*
X74843Y-50290D02*
X74843Y-50271D01*
X74824Y-50234D01*
X74806Y-50215D01*
X75237Y-50309D02*
X75218Y-50290D01*
X75162Y-50271D01*
X75124Y-50271D01*
X75068Y-50290D01*
X75031Y-50328D01*
X75012Y-50365D01*
X74993Y-50440D01*
X74993Y-50496D01*
X75012Y-50571D01*
X75031Y-50609D01*
X75068Y-50646D01*
X75124Y-50665D01*
X75162Y-50665D01*
X75218Y-50646D01*
X75237Y-50628D01*
X75424Y-50290D02*
X75424Y-50271D01*
X75406Y-50234D01*
X75387Y-50215D01*
X75593Y-50271D02*
X75593Y-50665D01*
X75724Y-50384D01*
X75856Y-50665D01*
X75856Y-50271D01*
X89753Y-50615D02*
X89753Y-50296D01*
X89771Y-50259D01*
X89790Y-50240D01*
X89828Y-50221D01*
X89903Y-50221D01*
X89940Y-50240D01*
X89959Y-50259D01*
X89978Y-50296D01*
X89978Y-50615D01*
X90146Y-50240D02*
X90203Y-50221D01*
X90296Y-50221D01*
X90334Y-50240D01*
X90353Y-50259D01*
X90371Y-50296D01*
X90371Y-50334D01*
X90353Y-50371D01*
X90334Y-50390D01*
X90296Y-50409D01*
X90221Y-50428D01*
X90184Y-50446D01*
X90165Y-50465D01*
X90146Y-50503D01*
X90146Y-50540D01*
X90165Y-50578D01*
X90184Y-50596D01*
X90221Y-50615D01*
X90315Y-50615D01*
X90371Y-50596D01*
X90671Y-50428D02*
X90728Y-50409D01*
X90746Y-50390D01*
X90765Y-50353D01*
X90765Y-50296D01*
X90746Y-50259D01*
X90728Y-50240D01*
X90690Y-50221D01*
X90540Y-50221D01*
X90540Y-50615D01*
X90671Y-50615D01*
X90709Y-50596D01*
X90728Y-50578D01*
X90746Y-50540D01*
X90746Y-50503D01*
X90728Y-50465D01*
X90709Y-50446D01*
X90671Y-50428D01*
X90540Y-50428D01*
G54D11*
X93596Y-57574D02*
X93911Y-57574D01*
X93911Y-57424D01*
X93896Y-57387D01*
X93881Y-57368D01*
X93851Y-57349D01*
X93806Y-57349D01*
X93776Y-57368D01*
X93761Y-57387D01*
X93746Y-57424D01*
X93746Y-57574D01*
X93761Y-57049D02*
X93746Y-56993D01*
X93731Y-56974D01*
X93701Y-56956D01*
X93656Y-56956D01*
X93626Y-56974D01*
X93611Y-56993D01*
X93596Y-57031D01*
X93596Y-57181D01*
X93911Y-57181D01*
X93911Y-57049D01*
X93896Y-57012D01*
X93881Y-56993D01*
X93851Y-56974D01*
X93821Y-56974D01*
X93791Y-56993D01*
X93776Y-57012D01*
X93761Y-57049D01*
X93761Y-57181D01*
X93761Y-56787D02*
X93761Y-56487D01*
X93671Y-56487D02*
X93671Y-56787D01*
X93806Y-56299D02*
X93491Y-56299D01*
X93791Y-56299D02*
X93806Y-56262D01*
X93806Y-56187D01*
X93791Y-56149D01*
X93776Y-56131D01*
X93746Y-56112D01*
X93656Y-56112D01*
X93626Y-56131D01*
X93611Y-56149D01*
X93596Y-56187D01*
X93596Y-56262D01*
X93611Y-56299D01*
X93596Y-55943D02*
X93806Y-55943D01*
X93911Y-55943D02*
X93896Y-55962D01*
X93881Y-55943D01*
X93896Y-55924D01*
X93911Y-55943D01*
X93881Y-55943D01*
X93806Y-55756D02*
X93596Y-55756D01*
X93776Y-55756D02*
X93791Y-55737D01*
X93806Y-55699D01*
X93806Y-55643D01*
X93791Y-55606D01*
X93761Y-55587D01*
X93596Y-55587D01*
X93806Y-55100D02*
X93716Y-55399D01*
X93626Y-55100D01*
X93911Y-54837D02*
X93911Y-54800D01*
X93896Y-54762D01*
X93881Y-54743D01*
X93851Y-54725D01*
X93791Y-54706D01*
X93716Y-54706D01*
X93656Y-54725D01*
X93626Y-54743D01*
X93611Y-54762D01*
X93596Y-54800D01*
X93596Y-54837D01*
X93611Y-54875D01*
X93626Y-54893D01*
X93656Y-54912D01*
X93716Y-54931D01*
X93791Y-54931D01*
X93851Y-54912D01*
X93881Y-54893D01*
X93896Y-54875D01*
X93911Y-54837D01*
X93911Y-54462D02*
X93911Y-54425D01*
X93896Y-54387D01*
X93881Y-54368D01*
X93851Y-54350D01*
X93791Y-54331D01*
X93716Y-54331D01*
X93656Y-54350D01*
X93626Y-54368D01*
X93611Y-54387D01*
X93596Y-54425D01*
X93596Y-54462D01*
X93611Y-54500D01*
X93626Y-54518D01*
X93656Y-54537D01*
X93716Y-54556D01*
X93791Y-54556D01*
X93851Y-54537D01*
X93881Y-54518D01*
X93896Y-54500D01*
X93911Y-54462D01*
X93626Y-54162D02*
X93611Y-54143D01*
X93596Y-54162D01*
X93611Y-54181D01*
X93626Y-54162D01*
X93596Y-54162D01*
X93791Y-54162D02*
X93776Y-54143D01*
X93761Y-54162D01*
X93776Y-54181D01*
X93791Y-54162D01*
X93761Y-54162D01*
X93911Y-53900D02*
X93911Y-53862D01*
X93896Y-53825D01*
X93881Y-53806D01*
X93851Y-53787D01*
X93791Y-53768D01*
X93716Y-53768D01*
X93656Y-53787D01*
X93626Y-53806D01*
X93611Y-53825D01*
X93596Y-53862D01*
X93596Y-53900D01*
X93611Y-53937D01*
X93626Y-53956D01*
X93656Y-53975D01*
X93716Y-53993D01*
X93791Y-53993D01*
X93851Y-53975D01*
X93881Y-53956D01*
X93896Y-53937D01*
X93911Y-53900D01*
X93911Y-53637D02*
X93911Y-53375D01*
X93596Y-53543D01*
X93806Y-53225D02*
X93716Y-52925D01*
X93626Y-53225D01*
X93077Y-57546D02*
X93392Y-57546D01*
X93392Y-57396D01*
X93377Y-57359D01*
X93362Y-57340D01*
X93332Y-57321D01*
X93287Y-57321D01*
X93257Y-57340D01*
X93242Y-57359D01*
X93227Y-57396D01*
X93227Y-57546D01*
X93167Y-57171D02*
X93167Y-56984D01*
X93077Y-57209D02*
X93392Y-57077D01*
X93077Y-56946D01*
X93242Y-56815D02*
X93242Y-56515D01*
X93152Y-56515D02*
X93152Y-56815D01*
X93287Y-56327D02*
X92972Y-56327D01*
X93272Y-56327D02*
X93287Y-56290D01*
X93287Y-56215D01*
X93272Y-56178D01*
X93257Y-56159D01*
X93227Y-56140D01*
X93137Y-56140D01*
X93107Y-56159D01*
X93092Y-56178D01*
X93077Y-56215D01*
X93077Y-56290D01*
X93092Y-56327D01*
X93077Y-55971D02*
X93287Y-55971D01*
X93392Y-55971D02*
X93377Y-55990D01*
X93362Y-55971D01*
X93377Y-55953D01*
X93392Y-55971D01*
X93362Y-55971D01*
X93287Y-55784D02*
X93077Y-55784D01*
X93257Y-55784D02*
X93272Y-55765D01*
X93287Y-55728D01*
X93287Y-55671D01*
X93272Y-55634D01*
X93242Y-55615D01*
X93077Y-55615D01*
X93287Y-55128D02*
X93197Y-55428D01*
X93107Y-55128D01*
X93392Y-54865D02*
X93392Y-54828D01*
X93377Y-54790D01*
X93362Y-54771D01*
X93332Y-54753D01*
X93272Y-54734D01*
X93197Y-54734D01*
X93137Y-54753D01*
X93107Y-54771D01*
X93092Y-54790D01*
X93077Y-54828D01*
X93077Y-54865D01*
X93092Y-54903D01*
X93107Y-54921D01*
X93137Y-54940D01*
X93197Y-54959D01*
X93272Y-54959D01*
X93332Y-54940D01*
X93362Y-54921D01*
X93377Y-54903D01*
X93392Y-54865D01*
X93257Y-54509D02*
X93272Y-54546D01*
X93287Y-54565D01*
X93317Y-54584D01*
X93332Y-54584D01*
X93362Y-54565D01*
X93377Y-54546D01*
X93392Y-54509D01*
X93392Y-54434D01*
X93377Y-54396D01*
X93362Y-54378D01*
X93332Y-54359D01*
X93317Y-54359D01*
X93287Y-54378D01*
X93272Y-54396D01*
X93257Y-54434D01*
X93257Y-54509D01*
X93242Y-54546D01*
X93227Y-54565D01*
X93197Y-54584D01*
X93137Y-54584D01*
X93107Y-54565D01*
X93092Y-54546D01*
X93077Y-54509D01*
X93077Y-54434D01*
X93092Y-54396D01*
X93107Y-54378D01*
X93137Y-54359D01*
X93197Y-54359D01*
X93227Y-54378D01*
X93242Y-54396D01*
X93257Y-54434D01*
X93107Y-54190D02*
X93092Y-54172D01*
X93077Y-54190D01*
X93092Y-54209D01*
X93107Y-54190D01*
X93077Y-54190D01*
X93272Y-54190D02*
X93257Y-54172D01*
X93242Y-54190D01*
X93257Y-54209D01*
X93272Y-54190D01*
X93242Y-54190D01*
X93077Y-53797D02*
X93077Y-54022D01*
X93077Y-53909D02*
X93392Y-53909D01*
X93347Y-53947D01*
X93317Y-53984D01*
X93302Y-54022D01*
X93392Y-53440D02*
X93392Y-53628D01*
X93242Y-53647D01*
X93257Y-53628D01*
X93272Y-53590D01*
X93272Y-53497D01*
X93257Y-53459D01*
X93242Y-53440D01*
X93212Y-53422D01*
X93137Y-53422D01*
X93107Y-53440D01*
X93092Y-53459D01*
X93077Y-53497D01*
X93077Y-53590D01*
X93092Y-53628D01*
X93107Y-53647D01*
X93287Y-53253D02*
X93197Y-52953D01*
X93107Y-53253D01*
X92557Y-57574D02*
X92872Y-57574D01*
X92872Y-57424D01*
X92857Y-57387D01*
X92842Y-57368D01*
X92812Y-57349D01*
X92767Y-57349D01*
X92737Y-57368D01*
X92722Y-57387D01*
X92707Y-57424D01*
X92707Y-57574D01*
X92587Y-56956D02*
X92572Y-56974D01*
X92557Y-57031D01*
X92557Y-57068D01*
X92572Y-57124D01*
X92602Y-57162D01*
X92632Y-57181D01*
X92692Y-57199D01*
X92737Y-57199D01*
X92797Y-57181D01*
X92827Y-57162D01*
X92857Y-57124D01*
X92872Y-57068D01*
X92872Y-57031D01*
X92857Y-56974D01*
X92842Y-56956D01*
X92722Y-56787D02*
X92722Y-56487D01*
X92632Y-56487D02*
X92632Y-56787D01*
X92767Y-56299D02*
X92452Y-56299D01*
X92752Y-56299D02*
X92767Y-56262D01*
X92767Y-56187D01*
X92752Y-56149D01*
X92737Y-56131D01*
X92707Y-56112D01*
X92617Y-56112D01*
X92587Y-56131D01*
X92572Y-56149D01*
X92557Y-56187D01*
X92557Y-56262D01*
X92572Y-56299D01*
X92557Y-55943D02*
X92767Y-55943D01*
X92872Y-55943D02*
X92857Y-55962D01*
X92842Y-55943D01*
X92857Y-55924D01*
X92872Y-55943D01*
X92842Y-55943D01*
X92767Y-55756D02*
X92557Y-55756D01*
X92737Y-55756D02*
X92752Y-55737D01*
X92767Y-55699D01*
X92767Y-55643D01*
X92752Y-55606D01*
X92722Y-55587D01*
X92557Y-55587D01*
X92767Y-55100D02*
X92677Y-55399D01*
X92587Y-55100D01*
X92557Y-54706D02*
X92557Y-54931D01*
X92557Y-54818D02*
X92872Y-54818D01*
X92827Y-54856D01*
X92797Y-54893D01*
X92782Y-54931D01*
X92872Y-54368D02*
X92872Y-54443D01*
X92857Y-54481D01*
X92842Y-54500D01*
X92797Y-54537D01*
X92737Y-54556D01*
X92617Y-54556D01*
X92587Y-54537D01*
X92572Y-54518D01*
X92557Y-54481D01*
X92557Y-54406D01*
X92572Y-54368D01*
X92587Y-54350D01*
X92617Y-54331D01*
X92692Y-54331D01*
X92722Y-54350D01*
X92737Y-54368D01*
X92752Y-54406D01*
X92752Y-54481D01*
X92737Y-54518D01*
X92722Y-54537D01*
X92692Y-54556D01*
X92587Y-54162D02*
X92572Y-54143D01*
X92557Y-54162D01*
X92572Y-54181D01*
X92587Y-54162D01*
X92557Y-54162D01*
X92752Y-54162D02*
X92737Y-54143D01*
X92722Y-54162D01*
X92737Y-54181D01*
X92752Y-54162D01*
X92722Y-54162D01*
X92842Y-53993D02*
X92857Y-53975D01*
X92872Y-53937D01*
X92872Y-53843D01*
X92857Y-53806D01*
X92842Y-53787D01*
X92812Y-53768D01*
X92782Y-53768D01*
X92737Y-53787D01*
X92557Y-54012D01*
X92557Y-53768D01*
X92872Y-53637D02*
X92872Y-53393D01*
X92752Y-53525D01*
X92752Y-53468D01*
X92737Y-53431D01*
X92722Y-53412D01*
X92692Y-53393D01*
X92617Y-53393D01*
X92587Y-53412D01*
X92572Y-53431D01*
X92557Y-53468D01*
X92557Y-53581D01*
X92572Y-53618D01*
X92587Y-53637D01*
X92767Y-53225D02*
X92677Y-52925D01*
X92587Y-53225D01*
X92037Y-57574D02*
X92352Y-57574D01*
X92352Y-57424D01*
X92337Y-57387D01*
X92322Y-57368D01*
X92292Y-57349D01*
X92247Y-57349D01*
X92217Y-57368D01*
X92202Y-57387D01*
X92187Y-57424D01*
X92187Y-57574D01*
X92037Y-57181D02*
X92352Y-57181D01*
X92352Y-57087D01*
X92337Y-57031D01*
X92307Y-56993D01*
X92277Y-56974D01*
X92217Y-56956D01*
X92172Y-56956D01*
X92112Y-56974D01*
X92082Y-56993D01*
X92052Y-57031D01*
X92037Y-57087D01*
X92037Y-57181D01*
X92202Y-56787D02*
X92202Y-56487D01*
X92112Y-56487D02*
X92112Y-56787D01*
X92247Y-56299D02*
X91932Y-56299D01*
X92232Y-56299D02*
X92247Y-56262D01*
X92247Y-56187D01*
X92232Y-56149D01*
X92217Y-56131D01*
X92187Y-56112D01*
X92097Y-56112D01*
X92067Y-56131D01*
X92052Y-56149D01*
X92037Y-56187D01*
X92037Y-56262D01*
X92052Y-56299D01*
X92037Y-55943D02*
X92247Y-55943D01*
X92352Y-55943D02*
X92337Y-55962D01*
X92322Y-55943D01*
X92337Y-55924D01*
X92352Y-55943D01*
X92322Y-55943D01*
X92247Y-55756D02*
X92037Y-55756D01*
X92217Y-55756D02*
X92232Y-55737D01*
X92247Y-55699D01*
X92247Y-55643D01*
X92232Y-55606D01*
X92202Y-55587D01*
X92037Y-55587D01*
X92247Y-55100D02*
X92157Y-55399D01*
X92067Y-55100D01*
X92322Y-54931D02*
X92337Y-54912D01*
X92352Y-54875D01*
X92352Y-54781D01*
X92337Y-54743D01*
X92322Y-54725D01*
X92292Y-54706D01*
X92262Y-54706D01*
X92217Y-54725D01*
X92037Y-54950D01*
X92037Y-54706D01*
X92247Y-54368D02*
X92037Y-54368D01*
X92367Y-54462D02*
X92142Y-54556D01*
X92142Y-54312D01*
X92067Y-54162D02*
X92052Y-54143D01*
X92037Y-54162D01*
X92052Y-54181D01*
X92067Y-54162D01*
X92037Y-54162D01*
X92232Y-54162D02*
X92217Y-54143D01*
X92202Y-54162D01*
X92217Y-54181D01*
X92232Y-54162D01*
X92202Y-54162D01*
X92352Y-54012D02*
X92352Y-53768D01*
X92232Y-53900D01*
X92232Y-53843D01*
X92217Y-53806D01*
X92202Y-53787D01*
X92172Y-53768D01*
X92097Y-53768D01*
X92067Y-53787D01*
X92052Y-53806D01*
X92037Y-53843D01*
X92037Y-53956D01*
X92052Y-53993D01*
X92067Y-54012D01*
X92037Y-53393D02*
X92037Y-53618D01*
X92037Y-53506D02*
X92352Y-53506D01*
X92307Y-53543D01*
X92277Y-53581D01*
X92262Y-53618D01*
X92247Y-53225D02*
X92157Y-52925D01*
X92067Y-53225D01*
X91518Y-57555D02*
X91833Y-57555D01*
X91833Y-57405D01*
X91818Y-57368D01*
X91803Y-57349D01*
X91773Y-57330D01*
X91728Y-57330D01*
X91698Y-57349D01*
X91683Y-57368D01*
X91668Y-57405D01*
X91668Y-57555D01*
X91683Y-57162D02*
X91683Y-57031D01*
X91518Y-56974D02*
X91518Y-57162D01*
X91833Y-57162D01*
X91833Y-56974D01*
X91683Y-56806D02*
X91683Y-56506D01*
X91593Y-56506D02*
X91593Y-56806D01*
X91728Y-56318D02*
X91413Y-56318D01*
X91713Y-56318D02*
X91728Y-56281D01*
X91728Y-56206D01*
X91713Y-56168D01*
X91698Y-56149D01*
X91668Y-56131D01*
X91578Y-56131D01*
X91548Y-56149D01*
X91533Y-56168D01*
X91518Y-56206D01*
X91518Y-56281D01*
X91533Y-56318D01*
X91518Y-55962D02*
X91728Y-55962D01*
X91833Y-55962D02*
X91818Y-55981D01*
X91803Y-55962D01*
X91818Y-55943D01*
X91833Y-55962D01*
X91803Y-55962D01*
X91728Y-55774D02*
X91518Y-55774D01*
X91698Y-55774D02*
X91713Y-55756D01*
X91728Y-55718D01*
X91728Y-55662D01*
X91713Y-55624D01*
X91683Y-55606D01*
X91518Y-55606D01*
X91728Y-55118D02*
X91638Y-55418D01*
X91548Y-55118D01*
X91833Y-54968D02*
X91833Y-54725D01*
X91713Y-54856D01*
X91713Y-54800D01*
X91698Y-54762D01*
X91683Y-54743D01*
X91653Y-54725D01*
X91578Y-54725D01*
X91548Y-54743D01*
X91533Y-54762D01*
X91518Y-54800D01*
X91518Y-54912D01*
X91533Y-54950D01*
X91548Y-54968D01*
X91803Y-54575D02*
X91818Y-54556D01*
X91833Y-54518D01*
X91833Y-54425D01*
X91818Y-54387D01*
X91803Y-54368D01*
X91773Y-54350D01*
X91743Y-54350D01*
X91698Y-54368D01*
X91518Y-54593D01*
X91518Y-54350D01*
X91548Y-54181D02*
X91533Y-54162D01*
X91518Y-54181D01*
X91533Y-54200D01*
X91548Y-54181D01*
X91518Y-54181D01*
X91713Y-54181D02*
X91698Y-54162D01*
X91683Y-54181D01*
X91698Y-54200D01*
X91713Y-54181D01*
X91683Y-54181D01*
X91833Y-54031D02*
X91833Y-53787D01*
X91713Y-53918D01*
X91713Y-53862D01*
X91698Y-53825D01*
X91683Y-53806D01*
X91653Y-53787D01*
X91578Y-53787D01*
X91548Y-53806D01*
X91533Y-53825D01*
X91518Y-53862D01*
X91518Y-53975D01*
X91533Y-54012D01*
X91548Y-54031D01*
X91833Y-53431D02*
X91833Y-53618D01*
X91683Y-53637D01*
X91698Y-53618D01*
X91713Y-53581D01*
X91713Y-53487D01*
X91698Y-53450D01*
X91683Y-53431D01*
X91653Y-53412D01*
X91578Y-53412D01*
X91548Y-53431D01*
X91533Y-53450D01*
X91518Y-53487D01*
X91518Y-53581D01*
X91533Y-53618D01*
X91548Y-53637D01*
X91728Y-53244D02*
X91638Y-52944D01*
X91548Y-53244D01*
G54D12*
X71465Y-53899D02*
X71465Y-53637D01*
X71071Y-53806D01*
X71465Y-53543D02*
X71071Y-53412D01*
X71465Y-53281D01*
X71334Y-52849D02*
X71221Y-53149D01*
X71109Y-52849D01*
X71465Y-52718D02*
X71071Y-52587D01*
X71465Y-52456D01*
X71071Y-52324D02*
X71465Y-52324D01*
X71071Y-52137D02*
X71465Y-52137D01*
X71071Y-51912D01*
X71465Y-51912D01*
X71334Y-51425D02*
X71221Y-51725D01*
X71109Y-51425D01*
X71428Y-51256D02*
X71446Y-51237D01*
X71465Y-51200D01*
X71465Y-51106D01*
X71446Y-51068D01*
X71428Y-51050D01*
X71390Y-51031D01*
X71353Y-51031D01*
X71296Y-51050D01*
X71071Y-51275D01*
X71071Y-51031D01*
X71465Y-50675D02*
X71465Y-50862D01*
X71278Y-50881D01*
X71296Y-50862D01*
X71315Y-50825D01*
X71315Y-50731D01*
X71296Y-50693D01*
X71278Y-50675D01*
X71240Y-50656D01*
X71146Y-50656D01*
X71109Y-50675D01*
X71090Y-50693D01*
X71071Y-50731D01*
X71071Y-50825D01*
X71090Y-50862D01*
X71109Y-50881D01*
X71465Y-50543D02*
X71071Y-50412D01*
X71465Y-50281D01*
X71121Y-60231D02*
X71515Y-60231D01*
X71515Y-60081D01*
X71496Y-60043D01*
X71478Y-60024D01*
X71440Y-60006D01*
X71384Y-60006D01*
X71346Y-60024D01*
X71328Y-60043D01*
X71309Y-60081D01*
X71309Y-60231D01*
X71121Y-59781D02*
X71140Y-59818D01*
X71159Y-59837D01*
X71196Y-59856D01*
X71309Y-59856D01*
X71346Y-59837D01*
X71365Y-59818D01*
X71384Y-59781D01*
X71384Y-59724D01*
X71365Y-59687D01*
X71346Y-59668D01*
X71309Y-59649D01*
X71196Y-59649D01*
X71159Y-59668D01*
X71140Y-59687D01*
X71121Y-59724D01*
X71121Y-59781D01*
X71384Y-59518D02*
X71121Y-59443D01*
X71309Y-59368D01*
X71121Y-59293D01*
X71384Y-59218D01*
X71140Y-58918D02*
X71121Y-58956D01*
X71121Y-59031D01*
X71140Y-59068D01*
X71178Y-59087D01*
X71328Y-59087D01*
X71365Y-59068D01*
X71384Y-59031D01*
X71384Y-58956D01*
X71365Y-58918D01*
X71328Y-58899D01*
X71290Y-58899D01*
X71253Y-59087D01*
X71121Y-58731D02*
X71384Y-58731D01*
X71309Y-58731D02*
X71346Y-58712D01*
X71365Y-58693D01*
X71384Y-58656D01*
X71384Y-58618D01*
X71140Y-58206D02*
X71121Y-58150D01*
X71121Y-58056D01*
X71140Y-58018D01*
X71159Y-58000D01*
X71196Y-57981D01*
X71234Y-57981D01*
X71271Y-58000D01*
X71290Y-58018D01*
X71309Y-58056D01*
X71328Y-58131D01*
X71346Y-58168D01*
X71365Y-58187D01*
X71403Y-58206D01*
X71440Y-58206D01*
X71478Y-58187D01*
X71496Y-58168D01*
X71515Y-58131D01*
X71515Y-58037D01*
X71496Y-57981D01*
X71140Y-57662D02*
X71121Y-57700D01*
X71121Y-57775D01*
X71140Y-57812D01*
X71178Y-57831D01*
X71328Y-57831D01*
X71365Y-57812D01*
X71384Y-57775D01*
X71384Y-57700D01*
X71365Y-57662D01*
X71328Y-57643D01*
X71290Y-57643D01*
X71253Y-57831D01*
X71121Y-57418D02*
X71140Y-57456D01*
X71178Y-57475D01*
X71515Y-57475D01*
X71159Y-57268D02*
X71140Y-57250D01*
X71121Y-57268D01*
X71140Y-57287D01*
X71159Y-57268D01*
X71121Y-57268D01*
X98315Y-59008D02*
X97921Y-58915D01*
X98203Y-58840D01*
X97921Y-58765D01*
X98315Y-58671D01*
X98315Y-58558D02*
X97921Y-58465D01*
X98203Y-58390D01*
X97921Y-58315D01*
X98315Y-58221D01*
X98315Y-58109D02*
X97921Y-58015D01*
X98203Y-57940D01*
X97921Y-57865D01*
X98315Y-57771D01*
X97959Y-57621D02*
X97940Y-57602D01*
X97921Y-57621D01*
X97940Y-57640D01*
X97959Y-57621D01*
X97921Y-57621D01*
X97921Y-57434D02*
X98315Y-57434D01*
X98315Y-57284D01*
X98296Y-57246D01*
X98278Y-57227D01*
X98240Y-57209D01*
X98184Y-57209D01*
X98146Y-57227D01*
X98128Y-57246D01*
X98109Y-57284D01*
X98109Y-57434D01*
X97921Y-57040D02*
X98315Y-57040D01*
X97921Y-56852D02*
X98315Y-56852D01*
X97921Y-56627D01*
X98315Y-56627D01*
X98296Y-56234D02*
X98315Y-56271D01*
X98315Y-56327D01*
X98296Y-56384D01*
X98259Y-56421D01*
X98221Y-56440D01*
X98146Y-56459D01*
X98090Y-56459D01*
X98015Y-56440D01*
X97978Y-56421D01*
X97940Y-56384D01*
X97921Y-56327D01*
X97921Y-56290D01*
X97940Y-56234D01*
X97959Y-56215D01*
X98090Y-56215D01*
X98090Y-56290D01*
X98315Y-56046D02*
X97996Y-56046D01*
X97959Y-56028D01*
X97940Y-56009D01*
X97921Y-55971D01*
X97921Y-55896D01*
X97940Y-55859D01*
X97959Y-55840D01*
X97996Y-55821D01*
X98315Y-55821D01*
X97921Y-55634D02*
X98315Y-55634D01*
X97921Y-55446D02*
X98315Y-55446D01*
X97921Y-55221D01*
X98315Y-55221D01*
X98315Y-54959D02*
X98315Y-54884D01*
X98296Y-54846D01*
X98259Y-54809D01*
X98184Y-54790D01*
X98053Y-54790D01*
X97978Y-54809D01*
X97940Y-54846D01*
X97921Y-54884D01*
X97921Y-54959D01*
X97940Y-54996D01*
X97978Y-55034D01*
X98053Y-55053D01*
X98184Y-55053D01*
X98259Y-55034D01*
X98296Y-54996D01*
X98315Y-54959D01*
X97959Y-54621D02*
X97940Y-54603D01*
X97921Y-54621D01*
X97940Y-54640D01*
X97959Y-54621D01*
X97921Y-54621D01*
X97959Y-54209D02*
X97940Y-54228D01*
X97921Y-54284D01*
X97921Y-54321D01*
X97940Y-54378D01*
X97978Y-54415D01*
X98015Y-54434D01*
X98090Y-54453D01*
X98146Y-54453D01*
X98221Y-54434D01*
X98259Y-54415D01*
X98296Y-54378D01*
X98315Y-54321D01*
X98315Y-54284D01*
X98296Y-54228D01*
X98278Y-54209D01*
X97959Y-53815D02*
X97940Y-53834D01*
X97921Y-53890D01*
X97921Y-53928D01*
X97940Y-53984D01*
X97978Y-54022D01*
X98015Y-54040D01*
X98090Y-54059D01*
X98146Y-54059D01*
X98221Y-54040D01*
X98259Y-54022D01*
X98296Y-53984D01*
X98315Y-53928D01*
X98315Y-53890D01*
X98296Y-53834D01*
X98278Y-53815D01*
X98334Y-53365D02*
X97828Y-53703D01*
X98184Y-53065D02*
X97921Y-53065D01*
X98334Y-53159D02*
X98053Y-53253D01*
X98053Y-53009D01*
X98315Y-52672D02*
X98315Y-52859D01*
X98128Y-52878D01*
X98146Y-52859D01*
X98165Y-52822D01*
X98165Y-52728D01*
X98146Y-52690D01*
X98128Y-52672D01*
X98090Y-52653D01*
X97996Y-52653D01*
X97959Y-52672D01*
X97940Y-52690D01*
X97921Y-52728D01*
X97921Y-52822D01*
X97940Y-52859D01*
X97959Y-52878D01*
X97921Y-52484D02*
X98315Y-52484D01*
X97921Y-52259D02*
X98146Y-52428D01*
X98315Y-52259D02*
X98090Y-52484D01*
X98315Y-51903D02*
X98315Y-52091D01*
X98128Y-52109D01*
X98146Y-52091D01*
X98165Y-52053D01*
X98165Y-51959D01*
X98146Y-51922D01*
X98128Y-51903D01*
X98090Y-51884D01*
X97996Y-51884D01*
X97959Y-51903D01*
X97940Y-51922D01*
X97921Y-51959D01*
X97921Y-52053D01*
X97940Y-52091D01*
X97959Y-52109D01*
X98315Y-51641D02*
X98315Y-51603D01*
X98296Y-51566D01*
X98278Y-51547D01*
X98240Y-51528D01*
X98165Y-51509D01*
X98071Y-51509D01*
X97996Y-51528D01*
X97959Y-51547D01*
X97940Y-51566D01*
X97921Y-51603D01*
X97921Y-51641D01*
X97940Y-51678D01*
X97959Y-51697D01*
X97996Y-51716D01*
X98071Y-51734D01*
X98165Y-51734D01*
X98240Y-51716D01*
X98278Y-51697D01*
X98296Y-51678D01*
X98315Y-51641D01*
X87659Y-50221D02*
X87528Y-50409D01*
X87434Y-50221D02*
X87434Y-50615D01*
X87584Y-50615D01*
X87621Y-50596D01*
X87640Y-50578D01*
X87659Y-50540D01*
X87659Y-50484D01*
X87640Y-50446D01*
X87621Y-50428D01*
X87584Y-50409D01*
X87434Y-50409D01*
X87790Y-50615D02*
X88053Y-50221D01*
X88053Y-50615D02*
X87790Y-50221D01*
X88296Y-50090D02*
X88296Y-50653D01*
X88521Y-50615D02*
X88746Y-50615D01*
X88634Y-50221D02*
X88634Y-50615D01*
X88840Y-50615D02*
X89103Y-50221D01*
X89103Y-50615D02*
X88840Y-50221D01*
X89803Y-60278D02*
X89803Y-59884D01*
X89653Y-59884D01*
X89615Y-59903D01*
X89596Y-59921D01*
X89578Y-59959D01*
X89578Y-60015D01*
X89596Y-60053D01*
X89615Y-60071D01*
X89653Y-60090D01*
X89803Y-60090D01*
X89446Y-59884D02*
X89353Y-60278D01*
X89278Y-59996D01*
X89203Y-60278D01*
X89109Y-59884D01*
X88959Y-60278D02*
X88959Y-59884D01*
X88828Y-60165D01*
X88696Y-59884D01*
X88696Y-60278D01*
X86671Y-59884D02*
X86596Y-59884D01*
X86559Y-59903D01*
X86521Y-59940D01*
X86503Y-60015D01*
X86503Y-60146D01*
X86521Y-60221D01*
X86559Y-60259D01*
X86596Y-60278D01*
X86671Y-60278D01*
X86709Y-60259D01*
X86746Y-60221D01*
X86765Y-60146D01*
X86765Y-60015D01*
X86746Y-59940D01*
X86709Y-59903D01*
X86671Y-59884D01*
X86353Y-60259D02*
X86296Y-60278D01*
X86203Y-60278D01*
X86165Y-60259D01*
X86146Y-60240D01*
X86128Y-60203D01*
X86128Y-60165D01*
X86146Y-60128D01*
X86165Y-60109D01*
X86203Y-60090D01*
X86278Y-60071D01*
X86315Y-60053D01*
X86334Y-60034D01*
X86353Y-59996D01*
X86353Y-59959D01*
X86334Y-59921D01*
X86315Y-59903D01*
X86278Y-59884D01*
X86184Y-59884D01*
X86128Y-59903D01*
X85734Y-60240D02*
X85753Y-60259D01*
X85809Y-60278D01*
X85846Y-60278D01*
X85903Y-60259D01*
X85940Y-60221D01*
X85959Y-60184D01*
X85978Y-60109D01*
X85978Y-60053D01*
X85959Y-59978D01*
X85940Y-59940D01*
X85903Y-59903D01*
X85846Y-59884D01*
X85809Y-59884D01*
X85753Y-59903D01*
X85734Y-59921D01*
X74434Y-60278D02*
X74434Y-59884D01*
X74303Y-60165D01*
X74171Y-59884D01*
X74171Y-60278D01*
X73759Y-60240D02*
X73778Y-60259D01*
X73834Y-60278D01*
X73871Y-60278D01*
X73928Y-60259D01*
X73965Y-60221D01*
X73984Y-60184D01*
X74003Y-60109D01*
X74003Y-60053D01*
X73984Y-59978D01*
X73965Y-59940D01*
X73928Y-59903D01*
X73871Y-59884D01*
X73834Y-59884D01*
X73778Y-59903D01*
X73759Y-59921D01*
X73403Y-60278D02*
X73590Y-60278D01*
X73590Y-59884D01*
X73046Y-60278D02*
X73178Y-60090D01*
X73271Y-60278D02*
X73271Y-59884D01*
X73121Y-59884D01*
X73084Y-59903D01*
X73065Y-59921D01*
X73046Y-59959D01*
X73046Y-60015D01*
X73065Y-60053D01*
X73084Y-60071D01*
X73121Y-60090D01*
X73271Y-60090D01*
X82902Y-60128D02*
X82602Y-60128D01*
X82433Y-60165D02*
X82246Y-60165D01*
X82471Y-60278D02*
X82340Y-59884D01*
X82208Y-60278D01*
X81777Y-60015D02*
X82077Y-60128D01*
X81777Y-60240D01*
X81627Y-59884D02*
X81365Y-59884D01*
X81534Y-60278D01*
X81215Y-60240D02*
X81196Y-60259D01*
X81215Y-60278D01*
X81234Y-60259D01*
X81215Y-60240D01*
X81215Y-60278D01*
X81215Y-60034D02*
X81196Y-60053D01*
X81215Y-60071D01*
X81234Y-60053D01*
X81215Y-60034D01*
X81215Y-60071D01*
X80859Y-60015D02*
X80859Y-60278D01*
X80952Y-59865D02*
X81046Y-60146D01*
X80802Y-60146D01*
X80652Y-60015D02*
X80352Y-60128D01*
X80652Y-60240D01*
X80165Y-60128D02*
X79865Y-60128D01*
X79678Y-60128D02*
X79378Y-60128D01*
X79003Y-60278D02*
X79190Y-60278D01*
X79190Y-59884D01*
X78871Y-60071D02*
X78740Y-60071D01*
X78684Y-60278D02*
X78871Y-60278D01*
X78871Y-59884D01*
X78684Y-59884D01*
X78515Y-60278D02*
X78515Y-59884D01*
X78421Y-59884D01*
X78365Y-59903D01*
X78328Y-59940D01*
X78309Y-59978D01*
X78290Y-60053D01*
X78290Y-60109D01*
X78309Y-60184D01*
X78328Y-60221D01*
X78365Y-60259D01*
X78421Y-60278D01*
X78515Y-60278D01*
X78121Y-60128D02*
X77821Y-60128D01*
X77634Y-60128D02*
X77334Y-60128D01*
X77165Y-60165D02*
X76978Y-60165D01*
X77203Y-60278D02*
X77072Y-59884D01*
X76940Y-60278D01*
X76509Y-60015D02*
X76809Y-60128D01*
X76509Y-60240D01*
X76359Y-59884D02*
X76115Y-59884D01*
X76247Y-60034D01*
X76190Y-60034D01*
X76153Y-60053D01*
X76134Y-60071D01*
X76115Y-60109D01*
X76115Y-60203D01*
X76134Y-60240D01*
X76153Y-60259D01*
X76190Y-60278D01*
X76303Y-60278D01*
X76340Y-60259D01*
X76359Y-60240D01*
X75947Y-60240D02*
X75928Y-60259D01*
X75947Y-60278D01*
X75965Y-60259D01*
X75947Y-60240D01*
X75947Y-60278D01*
X75947Y-60034D02*
X75928Y-60053D01*
X75947Y-60071D01*
X75965Y-60053D01*
X75947Y-60034D01*
X75947Y-60071D01*
X75684Y-59884D02*
X75647Y-59884D01*
X75609Y-59903D01*
X75591Y-59921D01*
X75572Y-59959D01*
X75553Y-60034D01*
X75553Y-60128D01*
X75572Y-60203D01*
X75591Y-60240D01*
X75609Y-60259D01*
X75647Y-60278D01*
X75684Y-60278D01*
X75722Y-60259D01*
X75741Y-60240D01*
X75759Y-60203D01*
X75778Y-60128D01*
X75778Y-60034D01*
X75759Y-59959D01*
X75741Y-59921D01*
X75722Y-59903D01*
X75684Y-59884D01*
X75384Y-60015D02*
X75084Y-60128D01*
X75384Y-60240D01*
X74897Y-60128D02*
X74597Y-60128D01*
X72790Y-59608D02*
X72771Y-59552D01*
X72771Y-59458D01*
X72790Y-59421D01*
X72809Y-59402D01*
X72846Y-59383D01*
X72884Y-59383D01*
X72921Y-59402D01*
X72940Y-59421D01*
X72959Y-59458D01*
X72978Y-59533D01*
X72996Y-59571D01*
X73015Y-59590D01*
X73053Y-59608D01*
X73090Y-59608D01*
X73128Y-59590D01*
X73146Y-59571D01*
X73165Y-59533D01*
X73165Y-59440D01*
X73146Y-59383D01*
X72790Y-59065D02*
X72771Y-59102D01*
X72771Y-59177D01*
X72790Y-59215D01*
X72828Y-59233D01*
X72978Y-59233D01*
X73015Y-59215D01*
X73034Y-59177D01*
X73034Y-59102D01*
X73015Y-59065D01*
X72978Y-59046D01*
X72940Y-59046D01*
X72903Y-59233D01*
X72771Y-58708D02*
X72978Y-58708D01*
X73015Y-58727D01*
X73034Y-58765D01*
X73034Y-58840D01*
X73015Y-58877D01*
X72790Y-58708D02*
X72771Y-58746D01*
X72771Y-58840D01*
X72790Y-58877D01*
X72828Y-58896D01*
X72865Y-58896D01*
X72903Y-58877D01*
X72921Y-58840D01*
X72921Y-58746D01*
X72940Y-58708D01*
X72771Y-58521D02*
X73165Y-58521D01*
X72790Y-58165D02*
X72771Y-58202D01*
X72771Y-58277D01*
X72790Y-58315D01*
X72809Y-58333D01*
X72846Y-58352D01*
X72959Y-58352D01*
X72996Y-58333D01*
X73015Y-58315D01*
X73034Y-58277D01*
X73034Y-58202D01*
X73015Y-58165D01*
X72790Y-57846D02*
X72771Y-57884D01*
X72771Y-57959D01*
X72790Y-57996D01*
X72828Y-58015D01*
X72978Y-58015D01*
X73015Y-57996D01*
X73034Y-57959D01*
X73034Y-57884D01*
X73015Y-57846D01*
X72978Y-57827D01*
X72940Y-57827D01*
X72903Y-58015D01*
X72771Y-57471D02*
X72771Y-57659D01*
X73165Y-57659D01*
X72771Y-57171D02*
X72978Y-57171D01*
X73015Y-57190D01*
X73034Y-57227D01*
X73034Y-57302D01*
X73015Y-57340D01*
X72790Y-57171D02*
X72771Y-57209D01*
X72771Y-57302D01*
X72790Y-57340D01*
X72828Y-57359D01*
X72865Y-57359D01*
X72903Y-57340D01*
X72921Y-57302D01*
X72921Y-57209D01*
X72940Y-57171D01*
X72771Y-56984D02*
X73165Y-56984D01*
X73015Y-56984D02*
X73034Y-56946D01*
X73034Y-56871D01*
X73015Y-56834D01*
X72996Y-56815D01*
X72959Y-56796D01*
X72846Y-56796D01*
X72809Y-56815D01*
X72790Y-56834D01*
X72771Y-56871D01*
X72771Y-56946D01*
X72790Y-56984D01*
X72771Y-56103D02*
X72959Y-56234D01*
X72771Y-56327D02*
X73165Y-56327D01*
X73165Y-56178D01*
X73146Y-56140D01*
X73128Y-56121D01*
X73090Y-56103D01*
X73034Y-56103D01*
X72996Y-56121D01*
X72978Y-56140D01*
X72959Y-56178D01*
X72959Y-56327D01*
X72978Y-55803D02*
X72959Y-55746D01*
X72940Y-55728D01*
X72903Y-55709D01*
X72846Y-55709D01*
X72809Y-55728D01*
X72790Y-55746D01*
X72771Y-55784D01*
X72771Y-55934D01*
X73165Y-55934D01*
X73165Y-55803D01*
X73146Y-55765D01*
X73128Y-55746D01*
X73090Y-55728D01*
X73053Y-55728D01*
X73015Y-55746D01*
X72996Y-55765D01*
X72978Y-55803D01*
X72978Y-55934D01*
X73128Y-55559D02*
X73146Y-55540D01*
X73165Y-55503D01*
X73165Y-55409D01*
X73146Y-55371D01*
X73128Y-55353D01*
X73090Y-55334D01*
X73053Y-55334D01*
X72996Y-55353D01*
X72771Y-55578D01*
X72771Y-55334D01*
X73165Y-55090D02*
X73165Y-55053D01*
X73146Y-55015D01*
X73128Y-54996D01*
X73090Y-54978D01*
X73015Y-54959D01*
X72921Y-54959D01*
X72846Y-54978D01*
X72809Y-54996D01*
X72790Y-55015D01*
X72771Y-55053D01*
X72771Y-55090D01*
X72790Y-55128D01*
X72809Y-55146D01*
X72846Y-55165D01*
X72921Y-55184D01*
X73015Y-55184D01*
X73090Y-55165D01*
X73128Y-55146D01*
X73146Y-55128D01*
X73165Y-55090D01*
X72771Y-54584D02*
X72771Y-54809D01*
X72771Y-54696D02*
X73165Y-54696D01*
X73109Y-54734D01*
X73071Y-54771D01*
X73053Y-54809D01*
X73034Y-54247D02*
X72771Y-54247D01*
X73184Y-54340D02*
X72903Y-54434D01*
X72903Y-54190D01*
X73165Y-53965D02*
X73165Y-53928D01*
X73146Y-53890D01*
X73128Y-53872D01*
X73090Y-53853D01*
X73015Y-53834D01*
X72921Y-53834D01*
X72846Y-53853D01*
X72809Y-53872D01*
X72790Y-53890D01*
X72771Y-53928D01*
X72771Y-53965D01*
X72790Y-54003D01*
X72809Y-54022D01*
X72846Y-54040D01*
X72921Y-54059D01*
X73015Y-54059D01*
X73090Y-54040D01*
X73128Y-54022D01*
X73146Y-54003D01*
X73165Y-53965D01*
X73165Y-53478D02*
X73165Y-53665D01*
X72978Y-53684D01*
X72996Y-53665D01*
X73015Y-53628D01*
X73015Y-53534D01*
X72996Y-53497D01*
X72978Y-53478D01*
X72940Y-53459D01*
X72846Y-53459D01*
X72809Y-53478D01*
X72790Y-53497D01*
X72771Y-53534D01*
X72771Y-53628D01*
X72790Y-53665D01*
X72809Y-53684D01*
X72771Y-53084D02*
X72771Y-53309D01*
X72771Y-53197D02*
X73165Y-53197D01*
X73109Y-53234D01*
X73071Y-53272D01*
X73053Y-53309D01*
X73128Y-52934D02*
X73146Y-52915D01*
X73165Y-52878D01*
X73165Y-52784D01*
X73146Y-52747D01*
X73128Y-52728D01*
X73090Y-52709D01*
X73053Y-52709D01*
X72996Y-52728D01*
X72771Y-52953D01*
X72771Y-52709D01*
X72921Y-52540D02*
X72921Y-52241D01*
X72771Y-52053D02*
X73165Y-52053D01*
X72771Y-51828D02*
X72996Y-51997D01*
X73165Y-51828D02*
X72940Y-52053D01*
X72771Y-51453D02*
X72771Y-51678D01*
X72771Y-51566D02*
X73165Y-51566D01*
X73109Y-51603D01*
X73071Y-51641D01*
X73053Y-51678D01*
X72809Y-51284D02*
X72790Y-51266D01*
X72771Y-51284D01*
X72790Y-51303D01*
X72809Y-51284D01*
X72771Y-51284D01*
X73128Y-51116D02*
X73146Y-51097D01*
X73165Y-51059D01*
X73165Y-50966D01*
X73146Y-50928D01*
X73128Y-50909D01*
X73090Y-50891D01*
X73053Y-50891D01*
X72996Y-50909D01*
X72771Y-51134D01*
X72771Y-50891D01*
G54D13*
X80688Y-55053D02*
X78365Y-57376D01*
X78877Y-57258D02*
X79074Y-57061D01*
X79507Y-55447D02*
X79389Y-55565D01*
X78326Y-56234D02*
X78405Y-56156D01*
X80294Y-56628D02*
X80373Y-56549D01*
X80098Y-56825D02*
X79940Y-56982D01*
X80098Y-56431D02*
X80216Y-56313D01*
X80098Y-56037D02*
X80294Y-55841D01*
X80885Y-55250D02*
X80964Y-55171D01*
X80688Y-55053D02*
X80806Y-54935D01*
X80294Y-55053D02*
X80491Y-54856D01*
X80098Y-54463D02*
X80137Y-54423D01*
X80098Y-54856D02*
X80255Y-54699D01*
X80294Y-53872D02*
X80413Y-53754D01*
X80098Y-53675D02*
X80216Y-53557D01*
X78129Y-56825D02*
X78011Y-56943D01*
X78720Y-56234D02*
X78838Y-56116D01*
X77145Y-57061D02*
X77066Y-57140D01*
X77932Y-56234D02*
X78129Y-56037D01*
X76948Y-56825D02*
X76869Y-56904D01*
X77735Y-56037D02*
X77932Y-55841D01*
X77342Y-56037D02*
X77499Y-55880D01*
X79113Y-53872D02*
X79310Y-53675D01*
X78917Y-53675D02*
X79035Y-53557D01*
X77539Y-53872D02*
X77696Y-53715D01*
X78720Y-53085D02*
X78877Y-52927D01*
X77342Y-53675D02*
X76948Y-54069D01*
X77539Y-53872D02*
X77145Y-54266D01*
X78720Y-53085D02*
X77145Y-54659D01*
X78917Y-53281D02*
X77539Y-54659D01*
X78917Y-53675D02*
X77735Y-54856D01*
X77342Y-56037D02*
X77145Y-56234D01*
X77735Y-56037D02*
X76948Y-56825D01*
X77932Y-56234D02*
X77145Y-57022D01*
X78326Y-56234D02*
X77735Y-56825D01*
X78720Y-56234D02*
X78129Y-56825D01*
X80885Y-55250D02*
X80491Y-55644D01*
X80294Y-56628D02*
X80098Y-56825D01*
X80098Y-56431D02*
X79704Y-56825D01*
X78917Y-57219D02*
X78523Y-57612D01*
X80098Y-56037D02*
X79113Y-57022D01*
X80294Y-55053D02*
X78326Y-57022D01*
X79113Y-53872D02*
X78523Y-54463D01*
X79507Y-53872D02*
X78917Y-54463D01*
X80098Y-54856D02*
X79507Y-55447D01*
X80098Y-53675D02*
X79113Y-54659D01*
X80294Y-53872D02*
X79310Y-54856D01*
X80098Y-54463D02*
X79507Y-55053D01*
X75452Y-53360D02*
X75216Y-53360D01*
X75885Y-53951D02*
X74586Y-53636D01*
X74586Y-53636D02*
X74586Y-53557D01*
X74586Y-53557D02*
X75137Y-53400D01*
X75137Y-53400D02*
X75137Y-53360D01*
X75137Y-53360D02*
X74586Y-53163D01*
X74586Y-53163D02*
X74586Y-53124D01*
X74586Y-53124D02*
X75846Y-52809D01*
X75846Y-52809D02*
X75846Y-52888D01*
X75846Y-52888D02*
X74822Y-53163D01*
X74822Y-53163D02*
X75531Y-53321D01*
X75531Y-53321D02*
X75531Y-53400D01*
X75531Y-53400D02*
X74822Y-53636D01*
X74822Y-53636D02*
X75885Y-53872D01*
X75885Y-53872D02*
X75885Y-53951D01*
X75294Y-55014D02*
X75294Y-54423D01*
X75294Y-54423D02*
X75216Y-54423D01*
X75216Y-54423D02*
X75216Y-54974D01*
X75846Y-54384D02*
X74586Y-54384D01*
X74586Y-54384D02*
X74586Y-54305D01*
X74586Y-54305D02*
X75846Y-54305D01*
X75846Y-54305D02*
X75846Y-54384D01*
X75885Y-54974D02*
X75885Y-55014D01*
X75885Y-55053D02*
X74586Y-55053D01*
X74586Y-55053D02*
X74586Y-54974D01*
X74586Y-54974D02*
X75885Y-54974D01*
X75767Y-55407D02*
X75806Y-55447D01*
X75806Y-55447D02*
X75846Y-55604D01*
X75846Y-55604D02*
X75885Y-55801D01*
X75885Y-55801D02*
X75806Y-56077D01*
X75806Y-56077D02*
X75688Y-56195D01*
X75688Y-56195D02*
X75491Y-56234D01*
X75491Y-56234D02*
X75334Y-56195D01*
X75334Y-56195D02*
X75216Y-56037D01*
X75216Y-56037D02*
X75137Y-55841D01*
X75137Y-55841D02*
X75098Y-55683D01*
X75098Y-55683D02*
X75019Y-55604D01*
X75019Y-55604D02*
X74901Y-55565D01*
X74901Y-55565D02*
X74783Y-55604D01*
X74783Y-55604D02*
X74704Y-55722D01*
X74704Y-55722D02*
X74704Y-55880D01*
X74704Y-55880D02*
X74704Y-56077D01*
X74704Y-56077D02*
X74743Y-56195D01*
X74743Y-56195D02*
X74704Y-56274D01*
X74704Y-56274D02*
X74625Y-56156D01*
X74625Y-56156D02*
X74586Y-55919D01*
X74586Y-55919D02*
X74586Y-55683D01*
X74586Y-55683D02*
X74704Y-55526D01*
X74704Y-55526D02*
X74901Y-55486D01*
X74901Y-55486D02*
X75019Y-55486D01*
X75019Y-55486D02*
X75137Y-55565D01*
X75137Y-55565D02*
X75216Y-55762D01*
X75216Y-55762D02*
X75294Y-55959D01*
X75294Y-55959D02*
X75413Y-56116D01*
X75413Y-56116D02*
X75531Y-56156D01*
X75531Y-56156D02*
X75649Y-56077D01*
X75649Y-56077D02*
X75767Y-55919D01*
X75767Y-55919D02*
X75767Y-55683D01*
X75767Y-55683D02*
X75728Y-55526D01*
X75728Y-55526D02*
X75688Y-55407D01*
X75728Y-57022D02*
X75728Y-57140D01*
X75728Y-57140D02*
X75609Y-57297D01*
X75609Y-57297D02*
X75413Y-57337D01*
X75413Y-57337D02*
X75098Y-57337D01*
X75098Y-57337D02*
X74901Y-57297D01*
X74901Y-57297D02*
X74783Y-57219D01*
X74783Y-57219D02*
X74704Y-57061D01*
X74704Y-57061D02*
X74704Y-56904D01*
X74704Y-56904D02*
X74822Y-56746D01*
X74822Y-56746D02*
X75098Y-56667D01*
X75098Y-56667D02*
X75413Y-56667D01*
X75413Y-56667D02*
X75570Y-56746D01*
X75570Y-56746D02*
X75649Y-56825D01*
X75649Y-56825D02*
X75728Y-56982D01*
X75846Y-57022D02*
X75806Y-57179D01*
X75806Y-57179D02*
X75767Y-57297D01*
X75767Y-57297D02*
X75570Y-57415D01*
X75570Y-57415D02*
X75334Y-57455D01*
X75334Y-57455D02*
X74901Y-57415D01*
X74901Y-57415D02*
X74665Y-57297D01*
X74665Y-57297D02*
X74586Y-57061D01*
X74586Y-57061D02*
X74625Y-56785D01*
X74625Y-56785D02*
X74861Y-56628D01*
X74861Y-56628D02*
X75137Y-56589D01*
X75137Y-56589D02*
X75413Y-56589D01*
X75413Y-56589D02*
X75649Y-56667D01*
X75649Y-56667D02*
X75806Y-56825D01*
X75806Y-56825D02*
X75846Y-57022D01*
X77853Y-55683D02*
X78011Y-55880D01*
X78011Y-55880D02*
X78208Y-56037D01*
X78208Y-56037D02*
X78405Y-56116D01*
X78405Y-56116D02*
X78680Y-56116D01*
X78680Y-56116D02*
X78916Y-56076D01*
X78916Y-56076D02*
X79153Y-55919D01*
X79153Y-55919D02*
X79389Y-55604D01*
X79389Y-55604D02*
X79428Y-55289D01*
X79428Y-55289D02*
X79428Y-55013D01*
X79428Y-55013D02*
X79231Y-54738D01*
X79231Y-54738D02*
X78956Y-54541D01*
X78956Y-54541D02*
X78720Y-54462D01*
X78720Y-54462D02*
X78444Y-54462D01*
X78444Y-54462D02*
X78129Y-54580D01*
X78129Y-54580D02*
X77932Y-54777D01*
X77932Y-54777D02*
X77853Y-54895D01*
X77814Y-54895D02*
X76928Y-54600D01*
X76928Y-54600D02*
X77105Y-54265D01*
X77105Y-54265D02*
X76712Y-53754D01*
X76712Y-53754D02*
X77145Y-53360D01*
X77145Y-53360D02*
X77657Y-53714D01*
X77657Y-53714D02*
X78168Y-53517D01*
X78168Y-53517D02*
X78247Y-53517D01*
X78247Y-53517D02*
X78365Y-52887D01*
X78365Y-52887D02*
X78956Y-52887D01*
X78956Y-52887D02*
X79034Y-53517D01*
X79034Y-53517D02*
X79586Y-53754D01*
X79586Y-53754D02*
X80137Y-53399D01*
X80137Y-53399D02*
X80531Y-53832D01*
X80531Y-53832D02*
X80176Y-54344D01*
X80176Y-54344D02*
X80373Y-54817D01*
X80373Y-54817D02*
X81003Y-54974D01*
X81003Y-54974D02*
X81003Y-55565D01*
X81003Y-55565D02*
X80373Y-55683D01*
X80373Y-55683D02*
X80176Y-56195D01*
X80176Y-56195D02*
X80570Y-56746D01*
X80570Y-56746D02*
X80137Y-57179D01*
X80137Y-57179D02*
X79625Y-56785D01*
X79625Y-56785D02*
X79034Y-57061D01*
X79034Y-57061D02*
X78956Y-57691D01*
X78956Y-57691D02*
X78405Y-57730D01*
X78405Y-57730D02*
X78286Y-57100D01*
X78286Y-57100D02*
X77657Y-56864D01*
X77657Y-56864D02*
X77145Y-57218D01*
X77145Y-57218D02*
X76712Y-56824D01*
X76712Y-56824D02*
X77066Y-56313D01*
X77066Y-56313D02*
X76948Y-56037D01*
X76948Y-56037D02*
X77853Y-55683D01*
M02*
