%FSLAX34Y34*%
G04 Gerber Fmt 3.4, Leading zero omitted, Abs format*
G04 (created by PCBNEW (2014-04-11 BZR 4798)-product) date mar. 20 mai 2014 10:15:50 CEST*
%MOIN*%
G01*
G70*
G90*
G04 APERTURE LIST*
%ADD10C,0.003937*%
%ADD11R,0.062000X0.090000*%
%ADD12R,0.090000X0.090000*%
%ADD13R,0.068000X0.068000*%
%ADD14R,0.118110X0.118110*%
%ADD15R,0.080000X0.080000*%
%ADD16R,0.068000X0.080000*%
%ADD17C,0.070000*%
%ADD18R,0.070000X0.070000*%
%ADD19C,0.035000*%
%ADD20C,0.039370*%
%ADD21C,0.010000*%
G04 APERTURE END LIST*
G54D10*
G54D11*
X73750Y-51250D03*
X74750Y-51250D03*
X75750Y-51250D03*
X76750Y-51250D03*
X77750Y-51250D03*
X78750Y-51250D03*
X79750Y-51250D03*
X80750Y-51250D03*
X81750Y-51250D03*
X82750Y-51250D03*
X83750Y-51250D03*
X84750Y-51250D03*
X85750Y-51250D03*
X86750Y-51250D03*
X87750Y-51250D03*
X88750Y-51250D03*
X89750Y-51250D03*
X90750Y-51250D03*
X91750Y-51250D03*
X92750Y-51250D03*
G54D12*
X97050Y-51250D03*
X97050Y-53250D03*
G54D11*
X73750Y-59250D03*
X74750Y-59250D03*
X75750Y-59250D03*
X76750Y-59250D03*
X77750Y-59250D03*
X78750Y-59250D03*
X79750Y-59250D03*
X80750Y-59250D03*
X81750Y-59250D03*
X82750Y-59250D03*
X83750Y-59250D03*
X84750Y-59250D03*
X85750Y-59250D03*
X86750Y-59250D03*
X87750Y-59250D03*
X88750Y-59250D03*
X89750Y-59250D03*
X90750Y-59250D03*
X91750Y-59250D03*
X92750Y-59250D03*
X94450Y-51250D03*
X95450Y-51250D03*
X94450Y-53250D03*
X95450Y-53250D03*
X84750Y-57250D03*
X83750Y-57250D03*
X89750Y-57250D03*
X90750Y-57250D03*
X82750Y-53250D03*
X81750Y-53250D03*
X85750Y-56250D03*
X86750Y-56250D03*
X88750Y-56250D03*
X87750Y-56250D03*
G54D13*
X94550Y-56450D03*
X94550Y-57450D03*
X95337Y-57450D03*
X95337Y-56450D03*
G54D14*
X96400Y-54588D03*
X96400Y-59312D03*
G54D15*
X79800Y-53750D03*
X76800Y-53750D03*
X79800Y-54750D03*
X76800Y-54750D03*
X76800Y-55750D03*
X79800Y-55750D03*
X76800Y-56750D03*
X79800Y-56750D03*
G54D11*
X73750Y-58250D03*
X74750Y-58250D03*
X75750Y-58250D03*
X76750Y-58250D03*
X77750Y-58250D03*
X78750Y-58250D03*
X79750Y-58250D03*
X80750Y-58250D03*
X81750Y-58250D03*
X82750Y-58250D03*
X83750Y-58250D03*
X84750Y-58250D03*
X85750Y-58250D03*
X86750Y-58250D03*
X87750Y-58250D03*
X88750Y-58250D03*
X89750Y-58250D03*
X90750Y-58250D03*
X91750Y-58250D03*
X92750Y-58250D03*
X92750Y-52250D03*
X91750Y-52250D03*
X90750Y-52250D03*
X89750Y-52250D03*
X88750Y-52250D03*
X87750Y-52250D03*
X86750Y-52250D03*
X85750Y-52250D03*
X84750Y-52250D03*
X83750Y-52250D03*
X82750Y-52250D03*
X81750Y-52250D03*
X80750Y-52250D03*
X79750Y-52250D03*
X78750Y-52250D03*
X77750Y-52250D03*
X76750Y-52250D03*
X75750Y-52250D03*
X74750Y-52250D03*
X73750Y-52250D03*
G54D16*
X88250Y-54250D03*
X86250Y-54250D03*
G54D15*
X73750Y-56750D03*
X73750Y-55750D03*
X73750Y-54750D03*
X73750Y-53750D03*
X72250Y-57750D03*
X72250Y-58750D03*
X72250Y-59750D03*
X72250Y-52250D03*
X72250Y-51250D03*
G54D17*
X71750Y-56250D03*
G54D18*
X71750Y-55250D03*
G54D17*
X71750Y-54250D03*
G54D19*
X76050Y-56250D03*
X81300Y-54750D03*
X91250Y-53500D03*
X97550Y-55050D03*
X81500Y-56000D03*
X91250Y-53000D03*
X80850Y-53750D03*
G54D20*
X82750Y-50650D02*
X82750Y-51250D01*
X82500Y-50400D02*
X82750Y-50650D01*
X72600Y-50400D02*
X82500Y-50400D01*
X72250Y-50850D02*
X72600Y-50400D01*
X72250Y-51250D02*
X72250Y-50850D01*
X84750Y-56550D02*
X84450Y-56250D01*
X84450Y-56250D02*
X82800Y-56250D01*
X82800Y-56250D02*
X81600Y-57450D01*
X81600Y-57450D02*
X76000Y-57450D01*
X76000Y-57450D02*
X75650Y-57100D01*
X75650Y-57100D02*
X76050Y-56250D01*
X84750Y-57250D02*
X84750Y-56550D01*
X84100Y-54750D02*
X81300Y-54750D01*
X85314Y-53535D02*
X84100Y-54750D01*
X91214Y-53535D02*
X85314Y-53535D01*
X91250Y-53500D02*
X91214Y-53535D01*
X97550Y-55050D02*
X97250Y-55650D01*
X97250Y-55650D02*
X89900Y-55650D01*
X89900Y-55650D02*
X89650Y-55400D01*
X89650Y-55400D02*
X85150Y-55400D01*
X85150Y-55400D02*
X82211Y-55404D01*
X82211Y-55404D02*
X81500Y-56000D01*
X91250Y-53000D02*
X84000Y-53050D01*
X84000Y-53050D02*
X83750Y-53450D01*
X83750Y-53450D02*
X83750Y-53950D01*
X83750Y-53950D02*
X83550Y-54150D01*
X83550Y-54150D02*
X81100Y-54150D01*
X81100Y-54150D02*
X80850Y-53750D01*
X72150Y-52800D02*
X72350Y-53000D01*
X72350Y-53000D02*
X74500Y-53000D01*
X74500Y-53000D02*
X74650Y-53150D01*
X74650Y-53150D02*
X74650Y-56400D01*
X74650Y-56400D02*
X74300Y-56750D01*
X74300Y-56750D02*
X73750Y-56750D01*
X72250Y-52250D02*
X72150Y-52800D01*
X73000Y-54750D02*
X73000Y-56900D01*
X73000Y-56900D02*
X72250Y-57750D01*
X72100Y-54250D02*
X73000Y-54750D01*
X71750Y-54250D02*
X72100Y-54250D01*
X93700Y-59700D02*
X93300Y-60100D01*
X93300Y-60100D02*
X73350Y-60100D01*
X73000Y-59750D02*
X72250Y-59750D01*
X94550Y-56450D02*
X93850Y-56450D01*
X93700Y-56600D02*
X93850Y-56450D01*
X93700Y-59550D02*
X93700Y-56600D01*
X73000Y-59750D02*
X73350Y-60100D01*
X93700Y-59550D02*
X93700Y-59700D01*
G54D10*
G36*
X73902Y-55895D02*
X73895Y-55895D01*
X73895Y-55902D01*
X73605Y-55902D01*
X73605Y-55895D01*
X73597Y-55895D01*
X73597Y-55605D01*
X73605Y-55605D01*
X73605Y-55480D01*
X73605Y-55020D01*
X73605Y-54895D01*
X73597Y-54895D01*
X73597Y-54605D01*
X73605Y-54605D01*
X73605Y-54597D01*
X73895Y-54597D01*
X73895Y-54605D01*
X73902Y-54605D01*
X73902Y-54895D01*
X73895Y-54895D01*
X73895Y-55020D01*
X73895Y-55480D01*
X73895Y-55605D01*
X73902Y-55605D01*
X73902Y-55895D01*
X73902Y-55895D01*
G37*
G54D21*
X73902Y-55895D02*
X73895Y-55895D01*
X73895Y-55902D01*
X73605Y-55902D01*
X73605Y-55895D01*
X73597Y-55895D01*
X73597Y-55605D01*
X73605Y-55605D01*
X73605Y-55480D01*
X73605Y-55020D01*
X73605Y-54895D01*
X73597Y-54895D01*
X73597Y-54605D01*
X73605Y-54605D01*
X73605Y-54597D01*
X73895Y-54597D01*
X73895Y-54605D01*
X73902Y-54605D01*
X73902Y-54895D01*
X73895Y-54895D01*
X73895Y-55020D01*
X73895Y-55480D01*
X73895Y-55605D01*
X73902Y-55605D01*
X73902Y-55895D01*
G54D10*
G36*
X82305Y-50379D02*
X82190Y-50426D01*
X82067Y-50550D01*
X82010Y-50550D01*
X81390Y-50550D01*
X81298Y-50588D01*
X81249Y-50636D01*
X81201Y-50588D01*
X81109Y-50550D01*
X81010Y-50550D01*
X80390Y-50550D01*
X80298Y-50588D01*
X80249Y-50636D01*
X80201Y-50588D01*
X80109Y-50550D01*
X80010Y-50550D01*
X79390Y-50550D01*
X79298Y-50588D01*
X79249Y-50636D01*
X79201Y-50588D01*
X79109Y-50550D01*
X79010Y-50550D01*
X78390Y-50550D01*
X78298Y-50588D01*
X78249Y-50636D01*
X78201Y-50588D01*
X78109Y-50550D01*
X78010Y-50550D01*
X77390Y-50550D01*
X77298Y-50588D01*
X77249Y-50636D01*
X77201Y-50588D01*
X77109Y-50550D01*
X77010Y-50550D01*
X76390Y-50550D01*
X76298Y-50588D01*
X76249Y-50636D01*
X76201Y-50588D01*
X76109Y-50550D01*
X76010Y-50550D01*
X75390Y-50550D01*
X75298Y-50588D01*
X75249Y-50636D01*
X75201Y-50588D01*
X75109Y-50550D01*
X75010Y-50550D01*
X74390Y-50550D01*
X74298Y-50588D01*
X74249Y-50636D01*
X74201Y-50588D01*
X74109Y-50550D01*
X74010Y-50550D01*
X73390Y-50550D01*
X73298Y-50588D01*
X73228Y-50658D01*
X73190Y-50750D01*
X73190Y-50849D01*
X73190Y-51749D01*
X73190Y-51749D01*
X73190Y-51750D01*
X73190Y-51849D01*
X73190Y-52553D01*
X72900Y-52553D01*
X72900Y-52022D01*
X73023Y-51899D01*
X73090Y-51737D01*
X73090Y-51505D01*
X73090Y-50995D01*
X73090Y-50762D01*
X73023Y-50600D01*
X72899Y-50476D01*
X72737Y-50410D01*
X72562Y-50410D01*
X72505Y-50410D01*
X72395Y-50520D01*
X72395Y-51105D01*
X72980Y-51105D01*
X73090Y-50995D01*
X73090Y-51505D01*
X72980Y-51395D01*
X72395Y-51395D01*
X72395Y-51402D01*
X72105Y-51402D01*
X72105Y-51395D01*
X72105Y-51105D01*
X72105Y-50520D01*
X71995Y-50410D01*
X71937Y-50410D01*
X71762Y-50410D01*
X71600Y-50476D01*
X71476Y-50600D01*
X71410Y-50762D01*
X71410Y-50995D01*
X71520Y-51105D01*
X72105Y-51105D01*
X72105Y-51395D01*
X71520Y-51395D01*
X71410Y-51505D01*
X71410Y-51737D01*
X71476Y-51899D01*
X71600Y-52022D01*
X71600Y-52699D01*
X71638Y-52791D01*
X71708Y-52861D01*
X71712Y-52863D01*
X71713Y-52894D01*
X71729Y-52931D01*
X71737Y-52971D01*
X71763Y-53010D01*
X71782Y-53054D01*
X71811Y-53082D01*
X71834Y-53115D01*
X72034Y-53315D01*
X72034Y-53315D01*
X72178Y-53412D01*
X72350Y-53446D01*
X73100Y-53446D01*
X73100Y-53977D01*
X72976Y-54100D01*
X72934Y-54202D01*
X72317Y-53859D01*
X72292Y-53851D01*
X72271Y-53837D01*
X72210Y-53825D01*
X72156Y-53807D01*
X72090Y-53741D01*
X71869Y-53650D01*
X71631Y-53649D01*
X71410Y-53741D01*
X71241Y-53909D01*
X71150Y-54130D01*
X71149Y-54368D01*
X71205Y-54504D01*
X71150Y-54526D01*
X71026Y-54650D01*
X70960Y-54812D01*
X70960Y-54987D01*
X70960Y-54995D01*
X71070Y-55105D01*
X71605Y-55105D01*
X71605Y-55097D01*
X71895Y-55097D01*
X71895Y-55105D01*
X72430Y-55105D01*
X72533Y-55001D01*
X72553Y-55012D01*
X72553Y-56731D01*
X72540Y-56745D01*
X72540Y-55687D01*
X72540Y-55512D01*
X72540Y-55505D01*
X72430Y-55395D01*
X71895Y-55395D01*
X71895Y-55402D01*
X71605Y-55402D01*
X71605Y-55395D01*
X71070Y-55395D01*
X70960Y-55505D01*
X70960Y-55512D01*
X70960Y-55687D01*
X71026Y-55849D01*
X71150Y-55973D01*
X71205Y-55995D01*
X71150Y-56130D01*
X71149Y-56368D01*
X71241Y-56589D01*
X71409Y-56758D01*
X71630Y-56849D01*
X71868Y-56850D01*
X72089Y-56758D01*
X72258Y-56590D01*
X72349Y-56369D01*
X72350Y-56131D01*
X72294Y-55995D01*
X72349Y-55973D01*
X72473Y-55849D01*
X72540Y-55687D01*
X72540Y-56745D01*
X72227Y-57100D01*
X71800Y-57100D01*
X71708Y-57138D01*
X71638Y-57208D01*
X71600Y-57300D01*
X71600Y-57399D01*
X71600Y-58199D01*
X71620Y-58249D01*
X71600Y-58300D01*
X71600Y-58399D01*
X71600Y-59199D01*
X71620Y-59249D01*
X71600Y-59300D01*
X71600Y-59399D01*
X71600Y-60170D01*
X70929Y-60170D01*
X70929Y-50379D01*
X82305Y-50379D01*
X82305Y-50379D01*
G37*
G54D21*
X82305Y-50379D02*
X82190Y-50426D01*
X82067Y-50550D01*
X82010Y-50550D01*
X81390Y-50550D01*
X81298Y-50588D01*
X81249Y-50636D01*
X81201Y-50588D01*
X81109Y-50550D01*
X81010Y-50550D01*
X80390Y-50550D01*
X80298Y-50588D01*
X80249Y-50636D01*
X80201Y-50588D01*
X80109Y-50550D01*
X80010Y-50550D01*
X79390Y-50550D01*
X79298Y-50588D01*
X79249Y-50636D01*
X79201Y-50588D01*
X79109Y-50550D01*
X79010Y-50550D01*
X78390Y-50550D01*
X78298Y-50588D01*
X78249Y-50636D01*
X78201Y-50588D01*
X78109Y-50550D01*
X78010Y-50550D01*
X77390Y-50550D01*
X77298Y-50588D01*
X77249Y-50636D01*
X77201Y-50588D01*
X77109Y-50550D01*
X77010Y-50550D01*
X76390Y-50550D01*
X76298Y-50588D01*
X76249Y-50636D01*
X76201Y-50588D01*
X76109Y-50550D01*
X76010Y-50550D01*
X75390Y-50550D01*
X75298Y-50588D01*
X75249Y-50636D01*
X75201Y-50588D01*
X75109Y-50550D01*
X75010Y-50550D01*
X74390Y-50550D01*
X74298Y-50588D01*
X74249Y-50636D01*
X74201Y-50588D01*
X74109Y-50550D01*
X74010Y-50550D01*
X73390Y-50550D01*
X73298Y-50588D01*
X73228Y-50658D01*
X73190Y-50750D01*
X73190Y-50849D01*
X73190Y-51749D01*
X73190Y-51749D01*
X73190Y-51750D01*
X73190Y-51849D01*
X73190Y-52553D01*
X72900Y-52553D01*
X72900Y-52022D01*
X73023Y-51899D01*
X73090Y-51737D01*
X73090Y-51505D01*
X73090Y-50995D01*
X73090Y-50762D01*
X73023Y-50600D01*
X72899Y-50476D01*
X72737Y-50410D01*
X72562Y-50410D01*
X72505Y-50410D01*
X72395Y-50520D01*
X72395Y-51105D01*
X72980Y-51105D01*
X73090Y-50995D01*
X73090Y-51505D01*
X72980Y-51395D01*
X72395Y-51395D01*
X72395Y-51402D01*
X72105Y-51402D01*
X72105Y-51395D01*
X72105Y-51105D01*
X72105Y-50520D01*
X71995Y-50410D01*
X71937Y-50410D01*
X71762Y-50410D01*
X71600Y-50476D01*
X71476Y-50600D01*
X71410Y-50762D01*
X71410Y-50995D01*
X71520Y-51105D01*
X72105Y-51105D01*
X72105Y-51395D01*
X71520Y-51395D01*
X71410Y-51505D01*
X71410Y-51737D01*
X71476Y-51899D01*
X71600Y-52022D01*
X71600Y-52699D01*
X71638Y-52791D01*
X71708Y-52861D01*
X71712Y-52863D01*
X71713Y-52894D01*
X71729Y-52931D01*
X71737Y-52971D01*
X71763Y-53010D01*
X71782Y-53054D01*
X71811Y-53082D01*
X71834Y-53115D01*
X72034Y-53315D01*
X72034Y-53315D01*
X72178Y-53412D01*
X72350Y-53446D01*
X73100Y-53446D01*
X73100Y-53977D01*
X72976Y-54100D01*
X72934Y-54202D01*
X72317Y-53859D01*
X72292Y-53851D01*
X72271Y-53837D01*
X72210Y-53825D01*
X72156Y-53807D01*
X72090Y-53741D01*
X71869Y-53650D01*
X71631Y-53649D01*
X71410Y-53741D01*
X71241Y-53909D01*
X71150Y-54130D01*
X71149Y-54368D01*
X71205Y-54504D01*
X71150Y-54526D01*
X71026Y-54650D01*
X70960Y-54812D01*
X70960Y-54987D01*
X70960Y-54995D01*
X71070Y-55105D01*
X71605Y-55105D01*
X71605Y-55097D01*
X71895Y-55097D01*
X71895Y-55105D01*
X72430Y-55105D01*
X72533Y-55001D01*
X72553Y-55012D01*
X72553Y-56731D01*
X72540Y-56745D01*
X72540Y-55687D01*
X72540Y-55512D01*
X72540Y-55505D01*
X72430Y-55395D01*
X71895Y-55395D01*
X71895Y-55402D01*
X71605Y-55402D01*
X71605Y-55395D01*
X71070Y-55395D01*
X70960Y-55505D01*
X70960Y-55512D01*
X70960Y-55687D01*
X71026Y-55849D01*
X71150Y-55973D01*
X71205Y-55995D01*
X71150Y-56130D01*
X71149Y-56368D01*
X71241Y-56589D01*
X71409Y-56758D01*
X71630Y-56849D01*
X71868Y-56850D01*
X72089Y-56758D01*
X72258Y-56590D01*
X72349Y-56369D01*
X72350Y-56131D01*
X72294Y-55995D01*
X72349Y-55973D01*
X72473Y-55849D01*
X72540Y-55687D01*
X72540Y-56745D01*
X72227Y-57100D01*
X71800Y-57100D01*
X71708Y-57138D01*
X71638Y-57208D01*
X71600Y-57300D01*
X71600Y-57399D01*
X71600Y-58199D01*
X71620Y-58249D01*
X71600Y-58300D01*
X71600Y-58399D01*
X71600Y-59199D01*
X71620Y-59249D01*
X71600Y-59300D01*
X71600Y-59399D01*
X71600Y-60170D01*
X70929Y-60170D01*
X70929Y-50379D01*
X82305Y-50379D01*
G54D10*
G36*
X82902Y-53395D02*
X82895Y-53395D01*
X82895Y-53402D01*
X82605Y-53402D01*
X82605Y-53395D01*
X82597Y-53395D01*
X82597Y-53105D01*
X82605Y-53105D01*
X82605Y-53030D01*
X82605Y-52470D01*
X82605Y-52395D01*
X82597Y-52395D01*
X82597Y-52105D01*
X82605Y-52105D01*
X82605Y-52030D01*
X82605Y-51470D01*
X82605Y-51395D01*
X82597Y-51395D01*
X82597Y-51105D01*
X82605Y-51105D01*
X82605Y-51097D01*
X82895Y-51097D01*
X82895Y-51105D01*
X82902Y-51105D01*
X82902Y-51395D01*
X82895Y-51395D01*
X82895Y-51470D01*
X82895Y-52030D01*
X82895Y-52105D01*
X82902Y-52105D01*
X82902Y-52395D01*
X82895Y-52395D01*
X82895Y-52470D01*
X82895Y-53030D01*
X82895Y-53105D01*
X82902Y-53105D01*
X82902Y-53395D01*
X82902Y-53395D01*
G37*
G54D21*
X82902Y-53395D02*
X82895Y-53395D01*
X82895Y-53402D01*
X82605Y-53402D01*
X82605Y-53395D01*
X82597Y-53395D01*
X82597Y-53105D01*
X82605Y-53105D01*
X82605Y-53030D01*
X82605Y-52470D01*
X82605Y-52395D01*
X82597Y-52395D01*
X82597Y-52105D01*
X82605Y-52105D01*
X82605Y-52030D01*
X82605Y-51470D01*
X82605Y-51395D01*
X82597Y-51395D01*
X82597Y-51105D01*
X82605Y-51105D01*
X82605Y-51097D01*
X82895Y-51097D01*
X82895Y-51105D01*
X82902Y-51105D01*
X82902Y-51395D01*
X82895Y-51395D01*
X82895Y-51470D01*
X82895Y-52030D01*
X82895Y-52105D01*
X82902Y-52105D01*
X82902Y-52395D01*
X82895Y-52395D01*
X82895Y-52470D01*
X82895Y-53030D01*
X82895Y-53105D01*
X82902Y-53105D01*
X82902Y-53395D01*
G54D10*
G36*
X93589Y-56096D02*
X93534Y-56134D01*
X93384Y-56284D01*
X93287Y-56428D01*
X93253Y-56600D01*
X93253Y-57639D01*
X93201Y-57588D01*
X93109Y-57550D01*
X93010Y-57550D01*
X92390Y-57550D01*
X92298Y-57588D01*
X92249Y-57636D01*
X92201Y-57588D01*
X92109Y-57550D01*
X92010Y-57550D01*
X91390Y-57550D01*
X91310Y-57583D01*
X91310Y-56750D01*
X91271Y-56658D01*
X91201Y-56588D01*
X91109Y-56550D01*
X91010Y-56550D01*
X90432Y-56550D01*
X90309Y-56426D01*
X90147Y-56360D01*
X90005Y-56360D01*
X89895Y-56470D01*
X89895Y-57105D01*
X89902Y-57105D01*
X89902Y-57395D01*
X89895Y-57395D01*
X89895Y-57402D01*
X89605Y-57402D01*
X89605Y-57395D01*
X89605Y-57105D01*
X89605Y-56470D01*
X89495Y-56360D01*
X89352Y-56360D01*
X89267Y-56395D01*
X88895Y-56395D01*
X88895Y-57030D01*
X89005Y-57140D01*
X89147Y-57140D01*
X89232Y-57105D01*
X89605Y-57105D01*
X89605Y-57395D01*
X89110Y-57395D01*
X89000Y-57505D01*
X89000Y-57550D01*
X88390Y-57550D01*
X88298Y-57588D01*
X88249Y-57636D01*
X88201Y-57588D01*
X88109Y-57550D01*
X88010Y-57550D01*
X87390Y-57550D01*
X87298Y-57588D01*
X87249Y-57636D01*
X87201Y-57588D01*
X87109Y-57550D01*
X87010Y-57550D01*
X86390Y-57550D01*
X86298Y-57588D01*
X86249Y-57636D01*
X86201Y-57588D01*
X86109Y-57550D01*
X86010Y-57550D01*
X85605Y-57550D01*
X85605Y-57030D01*
X85605Y-56395D01*
X85232Y-56395D01*
X85147Y-56360D01*
X85005Y-56360D01*
X84895Y-56470D01*
X84895Y-57105D01*
X85267Y-57105D01*
X85352Y-57140D01*
X85495Y-57140D01*
X85605Y-57030D01*
X85605Y-57550D01*
X85500Y-57550D01*
X85500Y-57505D01*
X85390Y-57395D01*
X85232Y-57395D01*
X85147Y-57360D01*
X85005Y-57360D01*
X84970Y-57395D01*
X84895Y-57395D01*
X84895Y-57470D01*
X84895Y-58030D01*
X84895Y-58105D01*
X84902Y-58105D01*
X84902Y-58395D01*
X84895Y-58395D01*
X84895Y-58470D01*
X84895Y-59030D01*
X84895Y-59105D01*
X84902Y-59105D01*
X84902Y-59395D01*
X84895Y-59395D01*
X84895Y-59402D01*
X84605Y-59402D01*
X84605Y-59395D01*
X84597Y-59395D01*
X84597Y-59105D01*
X84605Y-59105D01*
X84605Y-59030D01*
X84605Y-58470D01*
X84605Y-58395D01*
X84597Y-58395D01*
X84597Y-58105D01*
X84605Y-58105D01*
X84605Y-58030D01*
X84605Y-57470D01*
X84605Y-57395D01*
X84597Y-57395D01*
X84597Y-57105D01*
X84605Y-57105D01*
X84605Y-56470D01*
X84495Y-56360D01*
X84352Y-56360D01*
X84190Y-56426D01*
X84067Y-56550D01*
X84010Y-56550D01*
X83390Y-56550D01*
X83298Y-56588D01*
X83228Y-56658D01*
X83190Y-56750D01*
X83190Y-56849D01*
X83190Y-57583D01*
X83109Y-57550D01*
X83010Y-57550D01*
X82390Y-57550D01*
X82298Y-57588D01*
X82249Y-57636D01*
X82201Y-57588D01*
X82109Y-57550D01*
X82010Y-57550D01*
X81390Y-57550D01*
X81298Y-57588D01*
X81249Y-57636D01*
X81201Y-57588D01*
X81109Y-57550D01*
X81010Y-57550D01*
X80390Y-57550D01*
X80298Y-57588D01*
X80249Y-57636D01*
X80201Y-57588D01*
X80109Y-57550D01*
X80010Y-57550D01*
X79390Y-57550D01*
X79298Y-57588D01*
X79249Y-57636D01*
X79201Y-57588D01*
X79109Y-57550D01*
X79010Y-57550D01*
X78390Y-57550D01*
X78298Y-57588D01*
X78249Y-57636D01*
X78201Y-57588D01*
X78109Y-57550D01*
X78010Y-57550D01*
X77450Y-57550D01*
X77450Y-57199D01*
X77450Y-57100D01*
X77450Y-56300D01*
X77429Y-56250D01*
X77450Y-56199D01*
X77450Y-56100D01*
X77450Y-55300D01*
X77429Y-55250D01*
X77450Y-55199D01*
X77450Y-55100D01*
X77450Y-54300D01*
X77429Y-54250D01*
X77450Y-54199D01*
X77450Y-54100D01*
X77450Y-53300D01*
X77411Y-53208D01*
X77341Y-53138D01*
X77249Y-53100D01*
X77150Y-53100D01*
X76350Y-53100D01*
X76258Y-53138D01*
X76188Y-53208D01*
X76150Y-53300D01*
X76150Y-53399D01*
X76150Y-54199D01*
X76170Y-54249D01*
X76150Y-54300D01*
X76150Y-54399D01*
X76150Y-55199D01*
X76170Y-55249D01*
X76150Y-55300D01*
X76150Y-55399D01*
X76150Y-56199D01*
X76170Y-56249D01*
X76150Y-56300D01*
X76150Y-56399D01*
X76150Y-57199D01*
X76188Y-57291D01*
X76258Y-57361D01*
X76350Y-57400D01*
X76449Y-57400D01*
X77249Y-57400D01*
X77341Y-57361D01*
X77411Y-57291D01*
X77450Y-57199D01*
X77450Y-57550D01*
X77390Y-57550D01*
X77298Y-57588D01*
X77249Y-57636D01*
X77201Y-57588D01*
X77109Y-57550D01*
X77010Y-57550D01*
X76390Y-57550D01*
X76298Y-57588D01*
X76249Y-57636D01*
X76201Y-57588D01*
X76109Y-57550D01*
X76010Y-57550D01*
X75390Y-57550D01*
X75298Y-57588D01*
X75249Y-57636D01*
X75201Y-57588D01*
X75109Y-57550D01*
X75010Y-57550D01*
X74390Y-57550D01*
X74298Y-57588D01*
X74249Y-57636D01*
X74201Y-57588D01*
X74109Y-57550D01*
X74010Y-57550D01*
X73390Y-57550D01*
X73298Y-57588D01*
X73228Y-57658D01*
X73190Y-57750D01*
X73190Y-57849D01*
X73190Y-58749D01*
X73190Y-58749D01*
X73190Y-58750D01*
X73190Y-58849D01*
X73190Y-59349D01*
X73171Y-59337D01*
X73000Y-59303D01*
X72900Y-59303D01*
X72900Y-59300D01*
X72879Y-59250D01*
X72900Y-59199D01*
X72900Y-59100D01*
X72900Y-58300D01*
X72879Y-58250D01*
X72900Y-58199D01*
X72900Y-58100D01*
X72900Y-57688D01*
X73197Y-57351D01*
X73208Y-57361D01*
X73300Y-57400D01*
X73399Y-57400D01*
X74199Y-57400D01*
X74291Y-57361D01*
X74361Y-57291D01*
X74400Y-57199D01*
X74400Y-57176D01*
X74471Y-57162D01*
X74471Y-57162D01*
X74615Y-57065D01*
X74965Y-56715D01*
X75062Y-56571D01*
X75062Y-56571D01*
X75096Y-56400D01*
X75096Y-53150D01*
X75062Y-52978D01*
X75043Y-52950D01*
X75109Y-52950D01*
X75201Y-52911D01*
X75250Y-52863D01*
X75298Y-52911D01*
X75390Y-52950D01*
X75489Y-52950D01*
X76109Y-52950D01*
X76201Y-52911D01*
X76250Y-52863D01*
X76298Y-52911D01*
X76390Y-52950D01*
X76489Y-52950D01*
X77109Y-52950D01*
X77201Y-52911D01*
X77250Y-52863D01*
X77298Y-52911D01*
X77390Y-52950D01*
X77489Y-52950D01*
X78109Y-52950D01*
X78201Y-52911D01*
X78250Y-52863D01*
X78298Y-52911D01*
X78390Y-52950D01*
X78489Y-52950D01*
X79109Y-52950D01*
X79201Y-52911D01*
X79250Y-52863D01*
X79298Y-52911D01*
X79390Y-52950D01*
X79489Y-52950D01*
X80109Y-52950D01*
X80201Y-52911D01*
X80250Y-52863D01*
X80298Y-52911D01*
X80390Y-52950D01*
X80489Y-52950D01*
X81109Y-52950D01*
X81190Y-52916D01*
X81190Y-53471D01*
X81109Y-53386D01*
X80950Y-53314D01*
X80776Y-53309D01*
X80613Y-53371D01*
X80486Y-53490D01*
X80450Y-53570D01*
X80450Y-53300D01*
X80411Y-53208D01*
X80341Y-53138D01*
X80249Y-53100D01*
X80150Y-53100D01*
X79350Y-53100D01*
X79258Y-53138D01*
X79188Y-53208D01*
X79150Y-53300D01*
X79150Y-53399D01*
X79150Y-54199D01*
X79170Y-54249D01*
X79150Y-54300D01*
X79150Y-54399D01*
X79150Y-55199D01*
X79170Y-55249D01*
X79150Y-55300D01*
X79150Y-55399D01*
X79150Y-56199D01*
X79170Y-56249D01*
X79150Y-56300D01*
X79150Y-56399D01*
X79150Y-57199D01*
X79188Y-57291D01*
X79258Y-57361D01*
X79350Y-57400D01*
X79449Y-57400D01*
X80249Y-57400D01*
X80341Y-57361D01*
X80411Y-57291D01*
X80450Y-57199D01*
X80450Y-57100D01*
X80450Y-56300D01*
X80429Y-56250D01*
X80450Y-56199D01*
X80450Y-56100D01*
X80450Y-55300D01*
X80429Y-55250D01*
X80450Y-55199D01*
X80450Y-55100D01*
X80450Y-54300D01*
X80429Y-54250D01*
X80450Y-54199D01*
X80450Y-54100D01*
X80450Y-53931D01*
X80471Y-53986D01*
X80721Y-54386D01*
X80755Y-54423D01*
X80784Y-54465D01*
X80815Y-54486D01*
X80840Y-54513D01*
X80886Y-54534D01*
X80907Y-54548D01*
X80887Y-54578D01*
X80853Y-54750D01*
X80887Y-54921D01*
X80984Y-55065D01*
X81128Y-55162D01*
X81300Y-55196D01*
X81763Y-55196D01*
X81213Y-55657D01*
X81103Y-55793D01*
X81054Y-55960D01*
X81073Y-56133D01*
X81157Y-56286D01*
X81293Y-56396D01*
X81460Y-56445D01*
X81633Y-56426D01*
X81786Y-56342D01*
X82374Y-55850D01*
X85000Y-55847D01*
X85000Y-55887D01*
X85000Y-55995D01*
X85110Y-56105D01*
X85605Y-56105D01*
X85605Y-56097D01*
X85895Y-56097D01*
X85895Y-56105D01*
X85902Y-56105D01*
X85902Y-56395D01*
X85895Y-56395D01*
X85895Y-57030D01*
X86005Y-57140D01*
X86147Y-57140D01*
X86309Y-57073D01*
X86432Y-56950D01*
X86489Y-56950D01*
X87109Y-56950D01*
X87201Y-56911D01*
X87250Y-56863D01*
X87298Y-56911D01*
X87390Y-56950D01*
X87489Y-56950D01*
X88067Y-56950D01*
X88190Y-57073D01*
X88352Y-57140D01*
X88495Y-57140D01*
X88605Y-57030D01*
X88605Y-56395D01*
X88597Y-56395D01*
X88597Y-56105D01*
X88605Y-56105D01*
X88605Y-56097D01*
X88895Y-56097D01*
X88895Y-56105D01*
X89390Y-56105D01*
X89500Y-55995D01*
X89500Y-55887D01*
X89500Y-55881D01*
X89584Y-55965D01*
X89728Y-56062D01*
X89728Y-56062D01*
X89900Y-56096D01*
X93589Y-56096D01*
X93589Y-56096D01*
G37*
G54D21*
X93589Y-56096D02*
X93534Y-56134D01*
X93384Y-56284D01*
X93287Y-56428D01*
X93253Y-56600D01*
X93253Y-57639D01*
X93201Y-57588D01*
X93109Y-57550D01*
X93010Y-57550D01*
X92390Y-57550D01*
X92298Y-57588D01*
X92249Y-57636D01*
X92201Y-57588D01*
X92109Y-57550D01*
X92010Y-57550D01*
X91390Y-57550D01*
X91310Y-57583D01*
X91310Y-56750D01*
X91271Y-56658D01*
X91201Y-56588D01*
X91109Y-56550D01*
X91010Y-56550D01*
X90432Y-56550D01*
X90309Y-56426D01*
X90147Y-56360D01*
X90005Y-56360D01*
X89895Y-56470D01*
X89895Y-57105D01*
X89902Y-57105D01*
X89902Y-57395D01*
X89895Y-57395D01*
X89895Y-57402D01*
X89605Y-57402D01*
X89605Y-57395D01*
X89605Y-57105D01*
X89605Y-56470D01*
X89495Y-56360D01*
X89352Y-56360D01*
X89267Y-56395D01*
X88895Y-56395D01*
X88895Y-57030D01*
X89005Y-57140D01*
X89147Y-57140D01*
X89232Y-57105D01*
X89605Y-57105D01*
X89605Y-57395D01*
X89110Y-57395D01*
X89000Y-57505D01*
X89000Y-57550D01*
X88390Y-57550D01*
X88298Y-57588D01*
X88249Y-57636D01*
X88201Y-57588D01*
X88109Y-57550D01*
X88010Y-57550D01*
X87390Y-57550D01*
X87298Y-57588D01*
X87249Y-57636D01*
X87201Y-57588D01*
X87109Y-57550D01*
X87010Y-57550D01*
X86390Y-57550D01*
X86298Y-57588D01*
X86249Y-57636D01*
X86201Y-57588D01*
X86109Y-57550D01*
X86010Y-57550D01*
X85605Y-57550D01*
X85605Y-57030D01*
X85605Y-56395D01*
X85232Y-56395D01*
X85147Y-56360D01*
X85005Y-56360D01*
X84895Y-56470D01*
X84895Y-57105D01*
X85267Y-57105D01*
X85352Y-57140D01*
X85495Y-57140D01*
X85605Y-57030D01*
X85605Y-57550D01*
X85500Y-57550D01*
X85500Y-57505D01*
X85390Y-57395D01*
X85232Y-57395D01*
X85147Y-57360D01*
X85005Y-57360D01*
X84970Y-57395D01*
X84895Y-57395D01*
X84895Y-57470D01*
X84895Y-58030D01*
X84895Y-58105D01*
X84902Y-58105D01*
X84902Y-58395D01*
X84895Y-58395D01*
X84895Y-58470D01*
X84895Y-59030D01*
X84895Y-59105D01*
X84902Y-59105D01*
X84902Y-59395D01*
X84895Y-59395D01*
X84895Y-59402D01*
X84605Y-59402D01*
X84605Y-59395D01*
X84597Y-59395D01*
X84597Y-59105D01*
X84605Y-59105D01*
X84605Y-59030D01*
X84605Y-58470D01*
X84605Y-58395D01*
X84597Y-58395D01*
X84597Y-58105D01*
X84605Y-58105D01*
X84605Y-58030D01*
X84605Y-57470D01*
X84605Y-57395D01*
X84597Y-57395D01*
X84597Y-57105D01*
X84605Y-57105D01*
X84605Y-56470D01*
X84495Y-56360D01*
X84352Y-56360D01*
X84190Y-56426D01*
X84067Y-56550D01*
X84010Y-56550D01*
X83390Y-56550D01*
X83298Y-56588D01*
X83228Y-56658D01*
X83190Y-56750D01*
X83190Y-56849D01*
X83190Y-57583D01*
X83109Y-57550D01*
X83010Y-57550D01*
X82390Y-57550D01*
X82298Y-57588D01*
X82249Y-57636D01*
X82201Y-57588D01*
X82109Y-57550D01*
X82010Y-57550D01*
X81390Y-57550D01*
X81298Y-57588D01*
X81249Y-57636D01*
X81201Y-57588D01*
X81109Y-57550D01*
X81010Y-57550D01*
X80390Y-57550D01*
X80298Y-57588D01*
X80249Y-57636D01*
X80201Y-57588D01*
X80109Y-57550D01*
X80010Y-57550D01*
X79390Y-57550D01*
X79298Y-57588D01*
X79249Y-57636D01*
X79201Y-57588D01*
X79109Y-57550D01*
X79010Y-57550D01*
X78390Y-57550D01*
X78298Y-57588D01*
X78249Y-57636D01*
X78201Y-57588D01*
X78109Y-57550D01*
X78010Y-57550D01*
X77450Y-57550D01*
X77450Y-57199D01*
X77450Y-57100D01*
X77450Y-56300D01*
X77429Y-56250D01*
X77450Y-56199D01*
X77450Y-56100D01*
X77450Y-55300D01*
X77429Y-55250D01*
X77450Y-55199D01*
X77450Y-55100D01*
X77450Y-54300D01*
X77429Y-54250D01*
X77450Y-54199D01*
X77450Y-54100D01*
X77450Y-53300D01*
X77411Y-53208D01*
X77341Y-53138D01*
X77249Y-53100D01*
X77150Y-53100D01*
X76350Y-53100D01*
X76258Y-53138D01*
X76188Y-53208D01*
X76150Y-53300D01*
X76150Y-53399D01*
X76150Y-54199D01*
X76170Y-54249D01*
X76150Y-54300D01*
X76150Y-54399D01*
X76150Y-55199D01*
X76170Y-55249D01*
X76150Y-55300D01*
X76150Y-55399D01*
X76150Y-56199D01*
X76170Y-56249D01*
X76150Y-56300D01*
X76150Y-56399D01*
X76150Y-57199D01*
X76188Y-57291D01*
X76258Y-57361D01*
X76350Y-57400D01*
X76449Y-57400D01*
X77249Y-57400D01*
X77341Y-57361D01*
X77411Y-57291D01*
X77450Y-57199D01*
X77450Y-57550D01*
X77390Y-57550D01*
X77298Y-57588D01*
X77249Y-57636D01*
X77201Y-57588D01*
X77109Y-57550D01*
X77010Y-57550D01*
X76390Y-57550D01*
X76298Y-57588D01*
X76249Y-57636D01*
X76201Y-57588D01*
X76109Y-57550D01*
X76010Y-57550D01*
X75390Y-57550D01*
X75298Y-57588D01*
X75249Y-57636D01*
X75201Y-57588D01*
X75109Y-57550D01*
X75010Y-57550D01*
X74390Y-57550D01*
X74298Y-57588D01*
X74249Y-57636D01*
X74201Y-57588D01*
X74109Y-57550D01*
X74010Y-57550D01*
X73390Y-57550D01*
X73298Y-57588D01*
X73228Y-57658D01*
X73190Y-57750D01*
X73190Y-57849D01*
X73190Y-58749D01*
X73190Y-58749D01*
X73190Y-58750D01*
X73190Y-58849D01*
X73190Y-59349D01*
X73171Y-59337D01*
X73000Y-59303D01*
X72900Y-59303D01*
X72900Y-59300D01*
X72879Y-59250D01*
X72900Y-59199D01*
X72900Y-59100D01*
X72900Y-58300D01*
X72879Y-58250D01*
X72900Y-58199D01*
X72900Y-58100D01*
X72900Y-57688D01*
X73197Y-57351D01*
X73208Y-57361D01*
X73300Y-57400D01*
X73399Y-57400D01*
X74199Y-57400D01*
X74291Y-57361D01*
X74361Y-57291D01*
X74400Y-57199D01*
X74400Y-57176D01*
X74471Y-57162D01*
X74471Y-57162D01*
X74615Y-57065D01*
X74965Y-56715D01*
X75062Y-56571D01*
X75062Y-56571D01*
X75096Y-56400D01*
X75096Y-53150D01*
X75062Y-52978D01*
X75043Y-52950D01*
X75109Y-52950D01*
X75201Y-52911D01*
X75250Y-52863D01*
X75298Y-52911D01*
X75390Y-52950D01*
X75489Y-52950D01*
X76109Y-52950D01*
X76201Y-52911D01*
X76250Y-52863D01*
X76298Y-52911D01*
X76390Y-52950D01*
X76489Y-52950D01*
X77109Y-52950D01*
X77201Y-52911D01*
X77250Y-52863D01*
X77298Y-52911D01*
X77390Y-52950D01*
X77489Y-52950D01*
X78109Y-52950D01*
X78201Y-52911D01*
X78250Y-52863D01*
X78298Y-52911D01*
X78390Y-52950D01*
X78489Y-52950D01*
X79109Y-52950D01*
X79201Y-52911D01*
X79250Y-52863D01*
X79298Y-52911D01*
X79390Y-52950D01*
X79489Y-52950D01*
X80109Y-52950D01*
X80201Y-52911D01*
X80250Y-52863D01*
X80298Y-52911D01*
X80390Y-52950D01*
X80489Y-52950D01*
X81109Y-52950D01*
X81190Y-52916D01*
X81190Y-53471D01*
X81109Y-53386D01*
X80950Y-53314D01*
X80776Y-53309D01*
X80613Y-53371D01*
X80486Y-53490D01*
X80450Y-53570D01*
X80450Y-53300D01*
X80411Y-53208D01*
X80341Y-53138D01*
X80249Y-53100D01*
X80150Y-53100D01*
X79350Y-53100D01*
X79258Y-53138D01*
X79188Y-53208D01*
X79150Y-53300D01*
X79150Y-53399D01*
X79150Y-54199D01*
X79170Y-54249D01*
X79150Y-54300D01*
X79150Y-54399D01*
X79150Y-55199D01*
X79170Y-55249D01*
X79150Y-55300D01*
X79150Y-55399D01*
X79150Y-56199D01*
X79170Y-56249D01*
X79150Y-56300D01*
X79150Y-56399D01*
X79150Y-57199D01*
X79188Y-57291D01*
X79258Y-57361D01*
X79350Y-57400D01*
X79449Y-57400D01*
X80249Y-57400D01*
X80341Y-57361D01*
X80411Y-57291D01*
X80450Y-57199D01*
X80450Y-57100D01*
X80450Y-56300D01*
X80429Y-56250D01*
X80450Y-56199D01*
X80450Y-56100D01*
X80450Y-55300D01*
X80429Y-55250D01*
X80450Y-55199D01*
X80450Y-55100D01*
X80450Y-54300D01*
X80429Y-54250D01*
X80450Y-54199D01*
X80450Y-54100D01*
X80450Y-53931D01*
X80471Y-53986D01*
X80721Y-54386D01*
X80755Y-54423D01*
X80784Y-54465D01*
X80815Y-54486D01*
X80840Y-54513D01*
X80886Y-54534D01*
X80907Y-54548D01*
X80887Y-54578D01*
X80853Y-54750D01*
X80887Y-54921D01*
X80984Y-55065D01*
X81128Y-55162D01*
X81300Y-55196D01*
X81763Y-55196D01*
X81213Y-55657D01*
X81103Y-55793D01*
X81054Y-55960D01*
X81073Y-56133D01*
X81157Y-56286D01*
X81293Y-56396D01*
X81460Y-56445D01*
X81633Y-56426D01*
X81786Y-56342D01*
X82374Y-55850D01*
X85000Y-55847D01*
X85000Y-55887D01*
X85000Y-55995D01*
X85110Y-56105D01*
X85605Y-56105D01*
X85605Y-56097D01*
X85895Y-56097D01*
X85895Y-56105D01*
X85902Y-56105D01*
X85902Y-56395D01*
X85895Y-56395D01*
X85895Y-57030D01*
X86005Y-57140D01*
X86147Y-57140D01*
X86309Y-57073D01*
X86432Y-56950D01*
X86489Y-56950D01*
X87109Y-56950D01*
X87201Y-56911D01*
X87250Y-56863D01*
X87298Y-56911D01*
X87390Y-56950D01*
X87489Y-56950D01*
X88067Y-56950D01*
X88190Y-57073D01*
X88352Y-57140D01*
X88495Y-57140D01*
X88605Y-57030D01*
X88605Y-56395D01*
X88597Y-56395D01*
X88597Y-56105D01*
X88605Y-56105D01*
X88605Y-56097D01*
X88895Y-56097D01*
X88895Y-56105D01*
X89390Y-56105D01*
X89500Y-55995D01*
X89500Y-55887D01*
X89500Y-55881D01*
X89584Y-55965D01*
X89728Y-56062D01*
X89728Y-56062D01*
X89900Y-56096D01*
X93589Y-56096D01*
G54D10*
G36*
X98370Y-60170D02*
X97344Y-60170D01*
X97363Y-60151D01*
X97430Y-59990D01*
X97430Y-59567D01*
X97430Y-59057D01*
X97430Y-58633D01*
X97363Y-58472D01*
X97239Y-58348D01*
X97078Y-58281D01*
X96903Y-58281D01*
X96655Y-58281D01*
X96545Y-58391D01*
X96545Y-59167D01*
X97320Y-59167D01*
X97430Y-59057D01*
X97430Y-59567D01*
X97320Y-59457D01*
X96545Y-59457D01*
X96545Y-59464D01*
X96255Y-59464D01*
X96255Y-59457D01*
X96255Y-59167D01*
X96255Y-58391D01*
X96145Y-58281D01*
X95896Y-58281D01*
X95721Y-58281D01*
X95560Y-58348D01*
X95436Y-58472D01*
X95369Y-58633D01*
X95369Y-59057D01*
X95479Y-59167D01*
X96255Y-59167D01*
X96255Y-59457D01*
X95479Y-59457D01*
X95369Y-59567D01*
X95369Y-59990D01*
X95436Y-60151D01*
X95455Y-60170D01*
X93861Y-60170D01*
X94015Y-60015D01*
X94112Y-59871D01*
X94112Y-59871D01*
X94146Y-59700D01*
X94146Y-59550D01*
X94146Y-58034D01*
X94160Y-58040D01*
X94259Y-58040D01*
X94939Y-58040D01*
X94943Y-58038D01*
X94947Y-58040D01*
X95046Y-58040D01*
X95726Y-58040D01*
X95818Y-58001D01*
X95888Y-57931D01*
X95927Y-57839D01*
X95927Y-57740D01*
X95927Y-57162D01*
X96050Y-57039D01*
X96117Y-56877D01*
X96117Y-56705D01*
X96007Y-56595D01*
X95482Y-56595D01*
X95482Y-56602D01*
X95192Y-56602D01*
X95192Y-56595D01*
X95184Y-56595D01*
X95184Y-56305D01*
X95192Y-56305D01*
X95192Y-56297D01*
X95482Y-56297D01*
X95482Y-56305D01*
X96007Y-56305D01*
X96117Y-56195D01*
X96117Y-56096D01*
X97250Y-56096D01*
X97320Y-56082D01*
X97391Y-56073D01*
X97405Y-56065D01*
X97421Y-56062D01*
X97480Y-56023D01*
X97542Y-55987D01*
X97552Y-55974D01*
X97565Y-55965D01*
X97605Y-55906D01*
X97649Y-55849D01*
X97949Y-55249D01*
X97995Y-55081D01*
X97973Y-54908D01*
X97940Y-54849D01*
X97940Y-51787D01*
X97940Y-51612D01*
X97940Y-51505D01*
X97830Y-51395D01*
X97195Y-51395D01*
X97195Y-52030D01*
X97305Y-52140D01*
X97587Y-52140D01*
X97749Y-52073D01*
X97873Y-51949D01*
X97940Y-51787D01*
X97940Y-54849D01*
X97887Y-54757D01*
X97750Y-54650D01*
X97750Y-53749D01*
X97750Y-53650D01*
X97750Y-52750D01*
X97711Y-52658D01*
X97641Y-52588D01*
X97549Y-52550D01*
X97450Y-52550D01*
X96905Y-52550D01*
X96905Y-52030D01*
X96905Y-51395D01*
X96270Y-51395D01*
X96180Y-51485D01*
X96090Y-51395D01*
X95595Y-51395D01*
X95595Y-52030D01*
X95705Y-52140D01*
X95847Y-52140D01*
X96009Y-52073D01*
X96133Y-51949D01*
X96180Y-51835D01*
X96226Y-51949D01*
X96350Y-52073D01*
X96512Y-52140D01*
X96795Y-52140D01*
X96905Y-52030D01*
X96905Y-52550D01*
X96550Y-52550D01*
X96458Y-52588D01*
X96388Y-52658D01*
X96350Y-52750D01*
X96350Y-52849D01*
X96350Y-53557D01*
X96254Y-53557D01*
X96254Y-53667D01*
X96200Y-53612D01*
X96200Y-53505D01*
X96200Y-52995D01*
X96200Y-52887D01*
X96200Y-52712D01*
X96133Y-52550D01*
X96009Y-52426D01*
X95847Y-52360D01*
X95705Y-52360D01*
X95595Y-52470D01*
X95595Y-53105D01*
X96090Y-53105D01*
X96200Y-52995D01*
X96200Y-53505D01*
X96090Y-53395D01*
X95595Y-53395D01*
X95595Y-53402D01*
X95305Y-53402D01*
X95305Y-53395D01*
X95297Y-53395D01*
X95297Y-53105D01*
X95305Y-53105D01*
X95305Y-52470D01*
X95195Y-52360D01*
X95052Y-52360D01*
X94890Y-52426D01*
X94767Y-52550D01*
X94710Y-52550D01*
X94090Y-52550D01*
X93998Y-52588D01*
X93928Y-52658D01*
X93890Y-52750D01*
X93890Y-52849D01*
X93890Y-53749D01*
X93928Y-53841D01*
X93998Y-53911D01*
X94090Y-53950D01*
X94189Y-53950D01*
X94767Y-53950D01*
X94890Y-54073D01*
X95052Y-54140D01*
X95195Y-54140D01*
X95304Y-54030D01*
X95304Y-54140D01*
X95305Y-54140D01*
X95369Y-54140D01*
X95369Y-54333D01*
X95479Y-54443D01*
X96255Y-54443D01*
X96255Y-54435D01*
X96545Y-54435D01*
X96545Y-54443D01*
X97320Y-54443D01*
X97430Y-54333D01*
X97430Y-53950D01*
X97549Y-53950D01*
X97641Y-53911D01*
X97711Y-53841D01*
X97750Y-53749D01*
X97750Y-54650D01*
X97749Y-54650D01*
X97581Y-54604D01*
X97408Y-54626D01*
X97257Y-54712D01*
X97241Y-54733D01*
X96545Y-54733D01*
X96545Y-54740D01*
X96255Y-54740D01*
X96255Y-54733D01*
X95479Y-54733D01*
X95369Y-54843D01*
X95369Y-55203D01*
X95305Y-55203D01*
X90085Y-55203D01*
X89965Y-55084D01*
X89821Y-54987D01*
X89650Y-54953D01*
X85150Y-54953D01*
X85149Y-54953D01*
X85149Y-54953D01*
X84527Y-54954D01*
X85499Y-53982D01*
X85660Y-53982D01*
X85660Y-54699D01*
X85698Y-54791D01*
X85768Y-54861D01*
X85860Y-54900D01*
X85959Y-54900D01*
X86639Y-54900D01*
X86731Y-54861D01*
X86801Y-54791D01*
X86840Y-54699D01*
X86840Y-54600D01*
X86840Y-53982D01*
X87660Y-53982D01*
X87660Y-54699D01*
X87698Y-54791D01*
X87768Y-54861D01*
X87860Y-54900D01*
X87959Y-54900D01*
X88639Y-54900D01*
X88731Y-54861D01*
X88801Y-54791D01*
X88840Y-54699D01*
X88840Y-54600D01*
X88840Y-53982D01*
X91214Y-53982D01*
X91385Y-53948D01*
X91385Y-53948D01*
X91530Y-53851D01*
X91565Y-53815D01*
X91662Y-53671D01*
X91696Y-53500D01*
X91662Y-53328D01*
X91610Y-53250D01*
X91664Y-53168D01*
X91696Y-52996D01*
X91687Y-52950D01*
X92109Y-52950D01*
X92201Y-52911D01*
X92250Y-52863D01*
X92298Y-52911D01*
X92390Y-52950D01*
X92489Y-52950D01*
X93109Y-52950D01*
X93201Y-52911D01*
X93271Y-52841D01*
X93310Y-52749D01*
X93310Y-52650D01*
X93310Y-51750D01*
X93309Y-51750D01*
X93310Y-51749D01*
X93310Y-51650D01*
X93310Y-50750D01*
X93271Y-50658D01*
X93201Y-50588D01*
X93109Y-50550D01*
X93010Y-50550D01*
X92390Y-50550D01*
X92298Y-50588D01*
X92249Y-50636D01*
X92201Y-50588D01*
X92109Y-50550D01*
X92010Y-50550D01*
X91390Y-50550D01*
X91298Y-50588D01*
X91249Y-50636D01*
X91201Y-50588D01*
X91109Y-50550D01*
X91010Y-50550D01*
X90390Y-50550D01*
X90298Y-50588D01*
X90249Y-50636D01*
X90201Y-50588D01*
X90109Y-50550D01*
X90010Y-50550D01*
X89390Y-50550D01*
X89298Y-50588D01*
X89249Y-50636D01*
X89201Y-50588D01*
X89109Y-50550D01*
X89010Y-50550D01*
X88390Y-50550D01*
X88298Y-50588D01*
X88249Y-50636D01*
X88201Y-50588D01*
X88109Y-50550D01*
X88010Y-50550D01*
X87390Y-50550D01*
X87298Y-50588D01*
X87249Y-50636D01*
X87201Y-50588D01*
X87109Y-50550D01*
X87010Y-50550D01*
X86390Y-50550D01*
X86298Y-50588D01*
X86249Y-50636D01*
X86201Y-50588D01*
X86109Y-50550D01*
X86010Y-50550D01*
X85390Y-50550D01*
X85298Y-50588D01*
X85249Y-50636D01*
X85201Y-50588D01*
X85109Y-50550D01*
X85010Y-50550D01*
X84390Y-50550D01*
X84298Y-50588D01*
X84249Y-50636D01*
X84201Y-50588D01*
X84109Y-50550D01*
X84010Y-50550D01*
X83432Y-50550D01*
X83309Y-50426D01*
X83194Y-50379D01*
X95005Y-50379D01*
X94890Y-50426D01*
X94767Y-50550D01*
X94710Y-50550D01*
X94090Y-50550D01*
X93998Y-50588D01*
X93928Y-50658D01*
X93890Y-50750D01*
X93890Y-50849D01*
X93890Y-51749D01*
X93928Y-51841D01*
X93998Y-51911D01*
X94090Y-51950D01*
X94189Y-51950D01*
X94767Y-51950D01*
X94890Y-52073D01*
X95052Y-52140D01*
X95195Y-52140D01*
X95305Y-52030D01*
X95305Y-51395D01*
X95297Y-51395D01*
X95297Y-51105D01*
X95305Y-51105D01*
X95305Y-51097D01*
X95595Y-51097D01*
X95595Y-51105D01*
X96090Y-51105D01*
X96180Y-51015D01*
X96270Y-51105D01*
X96905Y-51105D01*
X96905Y-51097D01*
X97195Y-51097D01*
X97195Y-51105D01*
X97830Y-51105D01*
X97940Y-50995D01*
X97940Y-50887D01*
X97940Y-50712D01*
X97873Y-50550D01*
X97749Y-50426D01*
X97634Y-50379D01*
X98370Y-50379D01*
X98370Y-60170D01*
X98370Y-60170D01*
G37*
G54D21*
X98370Y-60170D02*
X97344Y-60170D01*
X97363Y-60151D01*
X97430Y-59990D01*
X97430Y-59567D01*
X97430Y-59057D01*
X97430Y-58633D01*
X97363Y-58472D01*
X97239Y-58348D01*
X97078Y-58281D01*
X96903Y-58281D01*
X96655Y-58281D01*
X96545Y-58391D01*
X96545Y-59167D01*
X97320Y-59167D01*
X97430Y-59057D01*
X97430Y-59567D01*
X97320Y-59457D01*
X96545Y-59457D01*
X96545Y-59464D01*
X96255Y-59464D01*
X96255Y-59457D01*
X96255Y-59167D01*
X96255Y-58391D01*
X96145Y-58281D01*
X95896Y-58281D01*
X95721Y-58281D01*
X95560Y-58348D01*
X95436Y-58472D01*
X95369Y-58633D01*
X95369Y-59057D01*
X95479Y-59167D01*
X96255Y-59167D01*
X96255Y-59457D01*
X95479Y-59457D01*
X95369Y-59567D01*
X95369Y-59990D01*
X95436Y-60151D01*
X95455Y-60170D01*
X93861Y-60170D01*
X94015Y-60015D01*
X94112Y-59871D01*
X94112Y-59871D01*
X94146Y-59700D01*
X94146Y-59550D01*
X94146Y-58034D01*
X94160Y-58040D01*
X94259Y-58040D01*
X94939Y-58040D01*
X94943Y-58038D01*
X94947Y-58040D01*
X95046Y-58040D01*
X95726Y-58040D01*
X95818Y-58001D01*
X95888Y-57931D01*
X95927Y-57839D01*
X95927Y-57740D01*
X95927Y-57162D01*
X96050Y-57039D01*
X96117Y-56877D01*
X96117Y-56705D01*
X96007Y-56595D01*
X95482Y-56595D01*
X95482Y-56602D01*
X95192Y-56602D01*
X95192Y-56595D01*
X95184Y-56595D01*
X95184Y-56305D01*
X95192Y-56305D01*
X95192Y-56297D01*
X95482Y-56297D01*
X95482Y-56305D01*
X96007Y-56305D01*
X96117Y-56195D01*
X96117Y-56096D01*
X97250Y-56096D01*
X97320Y-56082D01*
X97391Y-56073D01*
X97405Y-56065D01*
X97421Y-56062D01*
X97480Y-56023D01*
X97542Y-55987D01*
X97552Y-55974D01*
X97565Y-55965D01*
X97605Y-55906D01*
X97649Y-55849D01*
X97949Y-55249D01*
X97995Y-55081D01*
X97973Y-54908D01*
X97940Y-54849D01*
X97940Y-51787D01*
X97940Y-51612D01*
X97940Y-51505D01*
X97830Y-51395D01*
X97195Y-51395D01*
X97195Y-52030D01*
X97305Y-52140D01*
X97587Y-52140D01*
X97749Y-52073D01*
X97873Y-51949D01*
X97940Y-51787D01*
X97940Y-54849D01*
X97887Y-54757D01*
X97750Y-54650D01*
X97750Y-53749D01*
X97750Y-53650D01*
X97750Y-52750D01*
X97711Y-52658D01*
X97641Y-52588D01*
X97549Y-52550D01*
X97450Y-52550D01*
X96905Y-52550D01*
X96905Y-52030D01*
X96905Y-51395D01*
X96270Y-51395D01*
X96180Y-51485D01*
X96090Y-51395D01*
X95595Y-51395D01*
X95595Y-52030D01*
X95705Y-52140D01*
X95847Y-52140D01*
X96009Y-52073D01*
X96133Y-51949D01*
X96180Y-51835D01*
X96226Y-51949D01*
X96350Y-52073D01*
X96512Y-52140D01*
X96795Y-52140D01*
X96905Y-52030D01*
X96905Y-52550D01*
X96550Y-52550D01*
X96458Y-52588D01*
X96388Y-52658D01*
X96350Y-52750D01*
X96350Y-52849D01*
X96350Y-53557D01*
X96254Y-53557D01*
X96254Y-53667D01*
X96200Y-53612D01*
X96200Y-53505D01*
X96200Y-52995D01*
X96200Y-52887D01*
X96200Y-52712D01*
X96133Y-52550D01*
X96009Y-52426D01*
X95847Y-52360D01*
X95705Y-52360D01*
X95595Y-52470D01*
X95595Y-53105D01*
X96090Y-53105D01*
X96200Y-52995D01*
X96200Y-53505D01*
X96090Y-53395D01*
X95595Y-53395D01*
X95595Y-53402D01*
X95305Y-53402D01*
X95305Y-53395D01*
X95297Y-53395D01*
X95297Y-53105D01*
X95305Y-53105D01*
X95305Y-52470D01*
X95195Y-52360D01*
X95052Y-52360D01*
X94890Y-52426D01*
X94767Y-52550D01*
X94710Y-52550D01*
X94090Y-52550D01*
X93998Y-52588D01*
X93928Y-52658D01*
X93890Y-52750D01*
X93890Y-52849D01*
X93890Y-53749D01*
X93928Y-53841D01*
X93998Y-53911D01*
X94090Y-53950D01*
X94189Y-53950D01*
X94767Y-53950D01*
X94890Y-54073D01*
X95052Y-54140D01*
X95195Y-54140D01*
X95304Y-54030D01*
X95304Y-54140D01*
X95305Y-54140D01*
X95369Y-54140D01*
X95369Y-54333D01*
X95479Y-54443D01*
X96255Y-54443D01*
X96255Y-54435D01*
X96545Y-54435D01*
X96545Y-54443D01*
X97320Y-54443D01*
X97430Y-54333D01*
X97430Y-53950D01*
X97549Y-53950D01*
X97641Y-53911D01*
X97711Y-53841D01*
X97750Y-53749D01*
X97750Y-54650D01*
X97749Y-54650D01*
X97581Y-54604D01*
X97408Y-54626D01*
X97257Y-54712D01*
X97241Y-54733D01*
X96545Y-54733D01*
X96545Y-54740D01*
X96255Y-54740D01*
X96255Y-54733D01*
X95479Y-54733D01*
X95369Y-54843D01*
X95369Y-55203D01*
X95305Y-55203D01*
X90085Y-55203D01*
X89965Y-55084D01*
X89821Y-54987D01*
X89650Y-54953D01*
X85150Y-54953D01*
X85149Y-54953D01*
X85149Y-54953D01*
X84527Y-54954D01*
X85499Y-53982D01*
X85660Y-53982D01*
X85660Y-54699D01*
X85698Y-54791D01*
X85768Y-54861D01*
X85860Y-54900D01*
X85959Y-54900D01*
X86639Y-54900D01*
X86731Y-54861D01*
X86801Y-54791D01*
X86840Y-54699D01*
X86840Y-54600D01*
X86840Y-53982D01*
X87660Y-53982D01*
X87660Y-54699D01*
X87698Y-54791D01*
X87768Y-54861D01*
X87860Y-54900D01*
X87959Y-54900D01*
X88639Y-54900D01*
X88731Y-54861D01*
X88801Y-54791D01*
X88840Y-54699D01*
X88840Y-54600D01*
X88840Y-53982D01*
X91214Y-53982D01*
X91385Y-53948D01*
X91385Y-53948D01*
X91530Y-53851D01*
X91565Y-53815D01*
X91662Y-53671D01*
X91696Y-53500D01*
X91662Y-53328D01*
X91610Y-53250D01*
X91664Y-53168D01*
X91696Y-52996D01*
X91687Y-52950D01*
X92109Y-52950D01*
X92201Y-52911D01*
X92250Y-52863D01*
X92298Y-52911D01*
X92390Y-52950D01*
X92489Y-52950D01*
X93109Y-52950D01*
X93201Y-52911D01*
X93271Y-52841D01*
X93310Y-52749D01*
X93310Y-52650D01*
X93310Y-51750D01*
X93309Y-51750D01*
X93310Y-51749D01*
X93310Y-51650D01*
X93310Y-50750D01*
X93271Y-50658D01*
X93201Y-50588D01*
X93109Y-50550D01*
X93010Y-50550D01*
X92390Y-50550D01*
X92298Y-50588D01*
X92249Y-50636D01*
X92201Y-50588D01*
X92109Y-50550D01*
X92010Y-50550D01*
X91390Y-50550D01*
X91298Y-50588D01*
X91249Y-50636D01*
X91201Y-50588D01*
X91109Y-50550D01*
X91010Y-50550D01*
X90390Y-50550D01*
X90298Y-50588D01*
X90249Y-50636D01*
X90201Y-50588D01*
X90109Y-50550D01*
X90010Y-50550D01*
X89390Y-50550D01*
X89298Y-50588D01*
X89249Y-50636D01*
X89201Y-50588D01*
X89109Y-50550D01*
X89010Y-50550D01*
X88390Y-50550D01*
X88298Y-50588D01*
X88249Y-50636D01*
X88201Y-50588D01*
X88109Y-50550D01*
X88010Y-50550D01*
X87390Y-50550D01*
X87298Y-50588D01*
X87249Y-50636D01*
X87201Y-50588D01*
X87109Y-50550D01*
X87010Y-50550D01*
X86390Y-50550D01*
X86298Y-50588D01*
X86249Y-50636D01*
X86201Y-50588D01*
X86109Y-50550D01*
X86010Y-50550D01*
X85390Y-50550D01*
X85298Y-50588D01*
X85249Y-50636D01*
X85201Y-50588D01*
X85109Y-50550D01*
X85010Y-50550D01*
X84390Y-50550D01*
X84298Y-50588D01*
X84249Y-50636D01*
X84201Y-50588D01*
X84109Y-50550D01*
X84010Y-50550D01*
X83432Y-50550D01*
X83309Y-50426D01*
X83194Y-50379D01*
X95005Y-50379D01*
X94890Y-50426D01*
X94767Y-50550D01*
X94710Y-50550D01*
X94090Y-50550D01*
X93998Y-50588D01*
X93928Y-50658D01*
X93890Y-50750D01*
X93890Y-50849D01*
X93890Y-51749D01*
X93928Y-51841D01*
X93998Y-51911D01*
X94090Y-51950D01*
X94189Y-51950D01*
X94767Y-51950D01*
X94890Y-52073D01*
X95052Y-52140D01*
X95195Y-52140D01*
X95305Y-52030D01*
X95305Y-51395D01*
X95297Y-51395D01*
X95297Y-51105D01*
X95305Y-51105D01*
X95305Y-51097D01*
X95595Y-51097D01*
X95595Y-51105D01*
X96090Y-51105D01*
X96180Y-51015D01*
X96270Y-51105D01*
X96905Y-51105D01*
X96905Y-51097D01*
X97195Y-51097D01*
X97195Y-51105D01*
X97830Y-51105D01*
X97940Y-50995D01*
X97940Y-50887D01*
X97940Y-50712D01*
X97873Y-50550D01*
X97749Y-50426D01*
X97634Y-50379D01*
X98370Y-50379D01*
X98370Y-60170D01*
M02*
